<svg xmlns="http://www.w3.org/2000/svg" xmlns:xlink="http://www.w3.org/1999/xlink" viewBox="0 0 758 341"><defs><style>.cls-1{isolation:isolate;}.cls-2{fill:#e39b1d;}.cls-3{fill:#d2772a;}.cls-4{fill:#984934;}.cls-5{fill:#7f3526;}.cls-6{fill:none;}.cls-7{fill:#8a5330;}.cls-8{fill:#f6d6b2;}.cls-9{fill:#704126;}.cls-10{fill:#59321e;}.cls-11{fill:#e2ac6e;}.cls-12{fill:#cc6335;}.cls-13{fill:#9d4b31;}.cls-14{fill:#90654c;}.cls-15{fill:#a18046;}.cls-16{fill:#b7a238;}.cls-17{fill:#f9d9b5;}.cls-18{fill:#e5af6e;}.cls-19{fill:url(#linear-gradient);}.cls-20{fill:#9b4934;}.cls-21{fill:#d5772a;}.cls-22{fill:#e69e1d;}.cls-23{fill:#913a30;}.cls-24{fill:#cf6335;}.cls-25{fill:#f9dab6;}.cls-26{fill:#7f492b;}.cls-27{fill:#6b3822;}.cls-28{fill:#9e3089;}.cls-29{fill:#bc40a1;}.cls-30{fill:#d860c1;}.cls-31{fill:#6b3c22;}.cls-32{fill:#564339;opacity:0.5;mix-blend-mode:multiply;}.cls-33{mix-blend-mode:overlay;fill:url(#linear-gradient-2);}.cls-34{fill:#fff;}</style><linearGradient id="linear-gradient" x1="-24.03" y1="60.47" x2="108.27" y2="29.62" gradientTransform="translate(27.24 45.84) rotate(7.02)" gradientUnits="userSpaceOnUse"><stop offset="0" stop-color="#90654c"/><stop offset="0.67" stop-color="#8a5330"/><stop offset="1" stop-color="#6d4530"/></linearGradient><linearGradient id="linear-gradient-2" x1="46.18" y1="138.12" x2="157.01" y2="200.09" gradientUnits="userSpaceOnUse"><stop offset="0" stop-color="#f2deb6" stop-opacity="0"/><stop offset="0.99" stop-color="#f4e9d7" stop-opacity="0.6"/><stop offset="1" stop-color="#c7e1b7" stop-opacity="0.8"/></linearGradient></defs><title>character9_1</title><g class="cls-1"><g id="Layer_1" data-name="Layer 1"><path class="cls-2" d="M107.46,147.32a2.28,2.28,0,0,1-.16.19l-.11-.07Z" transform="translate(-0.36 0.4)"/><path class="cls-3" d="M84.7,151.83c4.72-.18,11.5-.58,14.68-1.34a73.63,73.63,0,0,0,7.81-3.05l.11.07c-.86,1-5.33,5.24-17.74,7.34-.48-.37-.92-.7-1.32-1A26.66,26.66,0,0,0,84.7,151.83Z" transform="translate(-0.36 0.4)"/><path class="cls-2" d="M108.52,152a8,8,0,0,0,.67,2.19c-2.8,1.7-7.37,3.72-14.46,5-1.82-1.64-3.67-3.23-5.17-4.39,12.41-2.1,16.88-6.38,17.74-7.34a14.63,14.63,0,0,1,4.56,4.79,16.49,16.49,0,0,1-1.49,1.15C109.19,151.55,108.52,152,108.52,152Z" transform="translate(-0.36 0.4)"/><path class="cls-2" d="M117.88,193.05a10.69,10.69,0,0,1,1,2.69,13.12,13.12,0,0,0-.65-2.73c4.21-.51,13-2,16.77-6.18a33.58,33.58,0,0,1,5.85,13.39c-2.23,1.54-7.69,4.35-18.36,5-.47-2.86-1.34-6.23-2.92-8.37,0,0-2.4-5.48,1.84,8.42h-.3a23.28,23.28,0,0,0-3.16-4.58s-1.29-1.5-1.58-5.41c0,0-.14-.75-.44-2C116.08,193.22,116.79,193.17,117.88,193.05Z" transform="translate(-0.36 0.4)"/><path class="cls-2" d="M141.78,207.44a25.92,25.92,0,0,1,0,4.11c-.14,1.35-.87,7.38-3.13,8.59a1.71,1.71,0,0,0,.2,2.64s1.87,3.51,2.9-10.77a22.58,22.58,0,0,0,.61,3.7s2.15,5.25.9,8.7c-3.11,1.05-9.81,2-20.85-3a7.9,7.9,0,0,1,.45-2.89h0a2.94,2.94,0,0,0,.53-1.84,17.92,17.92,0,0,0-.34-6l.08,0S135.55,211.41,141.78,207.44Z" transform="translate(-0.36 0.4)"/><path class="cls-2" d="M126.84,177.54a48.5,48.5,0,0,1,4.14,4.19c-2.6,1.89-7.65,4.57-16.59,6.12A68.51,68.51,0,0,0,110,177.46c3.63-.54,9-1.68,12.76-4A27.29,27.29,0,0,0,126.84,177.54Z" transform="translate(-0.36 0.4)"/><path class="cls-2" d="M113.57,159.39a6.05,6.05,0,0,1-.33,1.53l-.31-1C113.15,159.72,113.36,159.56,113.57,159.39Z" transform="translate(-0.36 0.4)"/><path class="cls-2" d="M100.08,164.21c3.73-.59,9-1.79,12.55-4.13.37.52.61.84.61.84s2.36,3.4,5.24,7.17a43,43,0,0,1-11.63,4,45.11,45.11,0,0,0-4.58-5.75S101.4,165.47,100.08,164.21Z" transform="translate(-0.36 0.4)"/><path class="cls-3" d="M122.45,221.45c-.54-.24-1.1-.49-1.67-.77l-.12-.05a7.82,7.82,0,0,0,2.24-2.07h0A7.9,7.9,0,0,0,122.45,221.45Z" transform="translate(-0.36 0.4)"/><path class="cls-3" d="M122.84,227.58a57,57,0,0,0,7.79,2.52h0s-5.15,5.07-14.85,2c0,0-12-5.05-17.78-4.5,0,0,11.39-1.85,18.93-5C119.57,225,122.84,227.58,122.84,227.58Z" transform="translate(-0.36 0.4)"/><path class="cls-3" d="M108.52,152s.67-.48,1.85,1.42c-.36.25-.75.51-1.18.77A8,8,0,0,1,108.52,152Z" transform="translate(-0.36 0.4)"/><path class="cls-3" d="M112.93,159.87l.31,1s-.24-.32-.61-.84Z" transform="translate(-0.36 0.4)"/><path class="cls-3" d="M141.82,211.55l0-.28c0,.26,0,.5-.06.74v-.08Z" transform="translate(-0.36 0.4)"/><path class="cls-3" d="M138.89,222.78a1.71,1.71,0,0,1-.2-2.64c2.26-1.21,3-7.24,3.13-8.59l0,.38V212C140.76,226.29,138.89,222.78,138.89,222.78Z" transform="translate(-0.36 0.4)"/><path class="cls-3" d="M119.58,196.81c1.58,2.14,2.45,5.51,2.92,8.37l-1.08,0C117.18,191.33,119.58,196.81,119.58,196.81Z" transform="translate(-0.36 0.4)"/><path class="cls-3" d="M117.88,193.05l.36,0a13.12,13.12,0,0,1,.65,2.73A10.69,10.69,0,0,0,117.88,193.05Z" transform="translate(-0.36 0.4)"/><path class="cls-4" d="M110.37,153.45a16.49,16.49,0,0,0,1.49-1.15,11.21,11.21,0,0,1,.87,2,12.63,12.63,0,0,1,.84,5.13c-.21.17-.42.33-.64.48A28.53,28.53,0,0,0,110.37,153.45Z" transform="translate(-0.36 0.4)"/><path class="cls-4" d="M112.63,160.08c-3.55,2.34-8.82,3.54-12.55,4.13-1.42-1.35-3.36-3.18-5.35-5,7.09-1.3,11.66-3.32,14.46-5A36.79,36.79,0,0,0,112.63,160.08Z" transform="translate(-0.36 0.4)"/><path class="cls-5" d="M110.37,153.45a28.53,28.53,0,0,1,2.56,6.42l-.3.21a36.79,36.79,0,0,1-3.44-5.86C109.62,154,110,153.7,110.37,153.45Z" transform="translate(-0.36 0.4)"/><path class="cls-4" d="M122.79,173.48c-3.74,2.3-9.13,3.44-12.76,4a52.6,52.6,0,0,0-3.18-5.38,43,43,0,0,0,11.63-4C119.87,169.92,121.37,171.82,122.79,173.48Z" transform="translate(-0.36 0.4)"/><path class="cls-4" d="M135,186.83c-3.78,4.13-12.56,5.67-16.77,6.18a2.65,2.65,0,0,0-1.37-1.74,19.29,19.29,0,0,1,1,1.78c-1.09.12-1.8.17-1.94.18-.32-1.3-.82-3.16-1.55-5.38,8.94-1.55,14-4.23,16.59-6.12A53.52,53.52,0,0,1,135,186.83Z" transform="translate(-0.36 0.4)"/><path class="cls-5" d="M116.87,191.27a2.65,2.65,0,0,1,1.37,1.74l-.36,0A19.29,19.29,0,0,0,116.87,191.27Z" transform="translate(-0.36 0.4)"/><path class="cls-5" d="M122.05,207.27c-.27-.66-.57-1.34-.93-2h.3Q121.71,206.19,122.05,207.27Z" transform="translate(-0.36 0.4)"/><path class="cls-4" d="M123.06,210.51a46.34,46.34,0,0,0-.56-5.33c10.67-.61,16.13-3.42,18.36-5,0,.13,0,.26.07.39s.59,3.46.85,6.83c-6.23,4-18.61,3.27-18.61,3.27l-.08,0a1.42,1.42,0,0,0,0-.2Z" transform="translate(-0.36 0.4)"/><path class="cls-5" d="M122.05,207.27a20.92,20.92,0,0,1,1,3.22C122.69,209.33,122.35,208.27,122.05,207.27Z" transform="translate(-0.36 0.4)"/><path class="cls-5" d="M123.06,210.51v0a20.92,20.92,0,0,0-1-3.22q-.35-1.08-.63-2l1.08,0A46.34,46.34,0,0,1,123.06,210.51Z" transform="translate(-0.36 0.4)"/><path class="cls-4" d="M136.46,227.22l-.59.21c-11.17,1.09-13.3-3-13.42-6,11,4.92,17.74,4,20.85,3a4.34,4.34,0,0,1-.2.5A13,13,0,0,1,136.46,227.22Z" transform="translate(-0.36 0.4)"/><path class="cls-5" d="M122.45,221.45c.12,3,2.25,7.07,13.42,6-1.25.46-4.16,1.6-5.24,2.67a57,57,0,0,1-7.79-2.52s-3.27-2.57-5.92-5a24.5,24.5,0,0,0,3.74-1.93l.12.05C121.35,221,121.91,221.21,122.45,221.45Z" transform="translate(-0.36 0.4)"/><path class="cls-6" d="M77.19,319.48A9.19,9.19,0,0,1,75.37,321l2.49.52C77.67,320.9,77.45,320.22,77.19,319.48Z" transform="translate(-0.36 0.4)"/><path class="cls-6" d="M74,321.75a7.56,7.56,0,0,1-4.82.37,13.52,13.52,0,0,0,1.08,3Z" transform="translate(-0.36 0.4)"/><path class="cls-7" d="M79.12,321.8a17.51,17.51,0,0,1-.64-2.32l-1.25-1.89c0,1.18,0,1.89,0,1.89.26.74.48,1.42.67,2Z" transform="translate(-0.36 0.4)"/><path class="cls-7" d="M70.24,325.11s0,.33-.07.93c-.13,1.59-.41,5-.82,8.54a19.56,19.56,0,0,1-1.47-2.66,23.2,23.2,0,0,1-1.52-4.37l.85-8.3,1-2a22.82,22.82,0,0,0,.92,4.88A13.94,13.94,0,0,0,70.24,325.11Z" transform="translate(-0.36 0.4)"/><path class="cls-8" d="M81.5,274.11c0,3.1-.22,6.46-.51,9.59-.61,6.54-1.55,12.09-1.55,12.09a34.11,34.11,0,0,0-1.26,6.77c-.6,5.34-.85,11.87-.94,15,0,1.18,0,1.89,0,1.89.07.21.15.41.21.61.17.47.31.92.44,1.34l0,.1c0,.18.11.36.16.54l.18.65,0,0a6.23,6.23,0,0,1,.23,1v0h0v.06a5,5,0,0,0-.7-.27,7,7,0,0,0-2.63-.32,9.26,9.26,0,0,0-3.07.8c-.23.1-.45.2-.65.31h0c-.4.21-.72.41-.93.54l-.15.1-.09.06c-.1-.2-.2-.41-.28-.6a12.4,12.4,0,0,1-.77-2.24l0-.14a22.94,22.94,0,0,1-.92-4.88,161.69,161.69,0,0,1-.45-17.62,24.48,24.48,0,0,1,2.43-10.17c0-.13,0-.27,0-.41.16-4.12-2.57-11.53-2.57-11.53C68.94,275.07,81.5,264.55,81.5,274.11Z" transform="translate(-0.36 0.4)"/><path class="cls-8" d="M70.92,326.31a9.6,9.6,0,0,0,5.83,4.5s2.89.17,2-5.64A9,9,0,0,0,70.92,326.31Z" transform="translate(-0.36 0.4)"/><path class="cls-9" d="M77.77,323.55,78,325a9.1,9.1,0,0,0-7.08,1.34c-.24-.41-.48-.81-.67-1.19C70.75,324.73,74.16,322.44,77.77,323.55Z" transform="translate(-0.36 0.4)"/><path class="cls-9" d="M78.73,325.18l-.26-1.37a.65.65,0,0,1,.13,0C78.7,324.32,78.67,324.79,78.73,325.18Z" transform="translate(-0.36 0.4)"/><path class="cls-9" d="M82.44,330.45s-2-4.69-3.15-8.13l-.81-2.84c.06,1.49-.64,1.95-.64,1.95.26.84.48,1.74.64,2.44.11.47.19.92.25,1.31.92,5.82-2,5.63-2,5.63a9.64,9.64,0,0,1-5.84-4.51c-.24-.41-.48-.81-.67-1.19,0,0,0,.33-.1.93,0,0-.76,4.74-2.26,5.88a19.56,19.56,0,0,0,1.47,2.66c.14.19.27.4.4.59,2.15,2.95,5.5,5.28,10.47,3.71C80.22,338.88,84.55,337.42,82.44,330.45Z" transform="translate(-0.36 0.4)"/><path class="cls-10" d="M78.73,325.18A5,5,0,0,0,78,325l-.22-1.41a3.92,3.92,0,0,1,.7.25h0Z" transform="translate(-0.36 0.4)"/><path class="cls-10" d="M70.24,325.11s.56,1,.67,1.19l.1-.06-.67-1.2Z" transform="translate(-0.36 0.4)"/><path class="cls-6" d="M91.26,319.48A9.19,9.19,0,0,0,93.08,321l-2.49.52C90.78,320.9,91,320.22,91.26,319.48Z" transform="translate(-0.36 0.4)"/><path class="cls-6" d="M94.46,321.75a7.56,7.56,0,0,0,4.82.37,13.52,13.52,0,0,1-1.08,3Z" transform="translate(-0.36 0.4)"/><path class="cls-7" d="M89.33,321.8a17.51,17.51,0,0,0,.64-2.32l1.24-1.89c0,1.18.05,1.89.05,1.89-.26.74-.48,1.42-.67,2Z" transform="translate(-0.36 0.4)"/><path class="cls-7" d="M98.21,325.11s0,.33.07.93c.13,1.59.41,5,.81,8.54a17.61,17.61,0,0,0,1.47-2.66,22.86,22.86,0,0,0,1.53-4.37l-.86-8.3-1-2a22.82,22.82,0,0,1-.92,4.88A13.94,13.94,0,0,1,98.21,325.11Z" transform="translate(-0.36 0.4)"/><path class="cls-8" d="M100.67,300.61a152.55,152.55,0,0,1-.47,16.63,33,33,0,0,1-.5,3.38c-.08.38-.17.73-.26,1.05l-.15.45,0,.14a12.4,12.4,0,0,1-.77,2.24c-.08.19-.18.4-.28.6l-.09-.06-.15-.1c-.16-.1-.38-.24-.65-.39l-.3-.16c-.2-.1-.41-.21-.64-.31a9.26,9.26,0,0,0-3.07-.8,6.81,6.81,0,0,0-2.64.32,4.92,4.92,0,0,0-.69.27v-.06h0a4.74,4.74,0,0,1,.23-1.05l0,0c.06-.21.12-.43.19-.65s.1-.36.16-.54l0-.1c.1-.34.21-.69.34-1.06s.19-.58.3-.89c0,0,0-.71,0-1.89-.09-3.1-.33-9.45-.91-14.74A35.61,35.61,0,0,0,89,295.79s-.94-5.55-1.55-12.09c-.29-3.13-.51-6.49-.51-9.59,0-9.56,12.42-1.48,13.67,1,0,0-2.09,10-1.92,14.14,0,.14,0,.28,0,.41A34.39,34.39,0,0,1,100.67,300.61Z" transform="translate(-0.36 0.4)"/><path class="cls-8" d="M97.53,326.31a9.6,9.6,0,0,1-5.83,4.5s-2.89.17-2-5.64A9,9,0,0,1,97.53,326.31Z" transform="translate(-0.36 0.4)"/><path class="cls-9" d="M90.68,323.55,90.46,325a9.11,9.11,0,0,1,7.08,1.34c.24-.41.48-.81.67-1.19C97.7,324.73,94.29,322.44,90.68,323.55Z" transform="translate(-0.36 0.4)"/><path class="cls-9" d="M89.72,325.18l.26-1.37a.65.65,0,0,0-.13,0C89.75,324.32,89.78,324.79,89.72,325.18Z" transform="translate(-0.36 0.4)"/><path class="cls-9" d="M86,330.45s2-4.69,3.15-8.13l.81-2.84c-.06,1.49.64,1.95.64,1.95-.26.84-.48,1.74-.64,2.44-.11.47-.19.92-.25,1.31-.92,5.82,2,5.63,2,5.63a9.64,9.64,0,0,0,5.84-4.51c.24-.41.48-.81.67-1.19,0,0,.05.33.09.93,0,0,.76,4.74,2.26,5.88a17.61,17.61,0,0,1-1.47,2.66l-.39.59c-2.15,2.95-5.5,5.28-10.47,3.71C88.23,338.88,83.89,337.42,86,330.45Z" transform="translate(-0.36 0.4)"/><path class="cls-10" d="M89.72,325.18a5,5,0,0,1,.74-.22l.22-1.41a3.92,3.92,0,0,0-.7.25h0Z" transform="translate(-0.36 0.4)"/><path class="cls-10" d="M98.21,325.11s-.56,1-.67,1.19l-.1-.06.67-1.2Z" transform="translate(-0.36 0.4)"/><path class="cls-11" d="M81.5,274.11c0,3.1-.22,6.46-.51,9.59-.61,6.54-1.55,12.09-1.55,12.09a34.11,34.11,0,0,0-1.26,6.77,44.8,44.8,0,0,1-10.38-2.94,24.48,24.48,0,0,1,2.43-10.17c0-.13,0-.27,0-.41.16-4.12-2.57-11.53-2.57-11.53C68.94,275.07,81.5,264.55,81.5,274.11Z" transform="translate(-0.36 0.4)"/><path class="cls-11" d="M98.73,289.62a34.39,34.39,0,0,1,1.94,11,49.46,49.46,0,0,1-10.36,2.24A35.61,35.61,0,0,0,89,295.79s-.94-5.55-1.55-12.09c-.29-3.13-.51-6.49-.51-9.59,0-9.56,13.08-4.38,14.33-1.94,0,0-2.75,12.92-2.58,17C98.72,289.35,98.72,289.49,98.73,289.62Z" transform="translate(-0.36 0.4)"/><path class="cls-12" d="M83.14,278.82a31.33,31.33,0,0,1-8.34-.69c-1.5-.27-3-.59-4.51-.93-5.31-1.22-10-2.65-10-2.65l5.16-36.9A129.64,129.64,0,0,0,83,240.29Z" transform="translate(-0.36 0.4)"/><path class="cls-12" d="M106.82,274.55a15.39,15.39,0,0,1-4.54,1.61c-8.94,1.92-23.6.55-23.6.55l2.77-36.57a128.54,128.54,0,0,0,21.93.17l1,10.36Z" transform="translate(-0.36 0.4)"/><path class="cls-13" d="M83.14,277s-.37-34.57,0-40.78,1.34.25,1.34.25v40.59Z" transform="translate(-0.36 0.4)"/><path class="cls-13" d="M74.8,278.13c-1.5-.27-3-.59-4.51-.93l-4.8-23.08,1.44-6.18,7.56-5.31S73.69,262.86,74.8,278.13Z" transform="translate(-0.36 0.4)"/><path class="cls-13" d="M106.82,274.55a15.39,15.39,0,0,1-4.54,1.61c-.52-10.17-3.9-30.91-3.9-30.91L101,246.7l3.42,4Z" transform="translate(-0.36 0.4)"/><path class="cls-13" d="M103.38,240.31l-2.41-24-17.63-1.25H68.64l-3.16,22.56a129.26,129.26,0,0,0,16,2.49h0l.36,0,1.16.12v0A128.79,128.79,0,0,0,103.38,240.31Z" transform="translate(-0.36 0.4)"/><path class="cls-14" d="M72.17,246.18c.23,25.48,1.49,51.29,1.49,51.29-9.7-2.37-34.48-25.3-34.48-25.3-1.19-5.37,6.24-34.11,11-51.7,2.71,9.23,6.54,21.87,8.44,26.37a14,14,0,0,0,2.53-.41c.35,1,.67,1.83.94,2.47a8.11,8.11,0,0,0,1.14-.13c.76-.13,1.62-.35,2.34-.54s1.29-.37,1.44-.41h0C68.54,247.42,70.26,246.88,72.17,246.18Z" transform="translate(-0.36 0.4)"/><path class="cls-14" d="M70,203.06l0-.36,4.09-1A71.92,71.92,0,0,0,73,209.87l-1.5-3.2-1.42-3-.06-.48.06.06Z" transform="translate(-0.36 0.4)"/><path class="cls-14" d="M92.74,200.49l3.71,1.08-.18,1.49-.07.16.06-.06-.06.48-1.42,3-.69,1.45C93.27,203.35,92.74,200.49,92.74,200.49Z" transform="translate(-0.36 0.4)"/><path class="cls-14" d="M132.2,272.17c-6.11,8.53-28.11,25.47-28.11,25.47,1-10-1.06-30.14-3.73-49.5a19.47,19.47,0,0,0,3.8.76c.27-.64.59-1.49.94-2.47a14,14,0,0,0,2.53.41c1.56-3.71,4.44-12.94,6.92-21.23.77-2.58,1.5-5.06,2.15-7.26C126.71,240.57,132.2,272.17,132.2,272.17Z" transform="translate(-0.36 0.4)"/><path class="cls-7" d="M67,174h0c-.41-1.22,2.8-5.7,2.8-5.7a6.48,6.48,0,0,1,0-1.87c-1.08.08-1.32,1.87-1.32,1.87-.41,3.47-2.37,3.85-2.37,3.85l.89,1.85Z" transform="translate(-0.36 0.4)"/><path class="cls-13" d="M94.09,208.13,83.15,231.52,73,209.87c-.8,9.41-1,22.82-.84,36.31.81-.29,1.66-.62,2.53-1a6.82,6.82,0,0,0,.51,1.5s.63,2.8,2.55,3.71c0,0,1.51,1.71,2,.76.4.37,1.16.94,1.6.58a14.92,14.92,0,0,0-.12-2.21,6,6,0,0,0,.5-4,1.36,1.36,0,0,1-.07-.56s0-.4.25-.52a.94.94,0,0,1,.44-.26,3.87,3.87,0,0,0,.78-.17,3.71,3.71,0,0,0,.77.17.94.94,0,0,1,.44.26c.21.12.25.52.25.52a1.36,1.36,0,0,1-.07.56,6,6,0,0,0,.5,4,14.92,14.92,0,0,0-.12,2.21c.44.36,1.2-.21,1.6-.58.5.95,2-.76,2-.76,1.92-.91,2.55-3.71,2.55-3.71a6.82,6.82,0,0,0,.51-1.5,67.89,67.89,0,0,0,7.61,2.6h0l1.12.32C98.18,232.29,95.62,217,94.09,208.13ZM83.15,242.47l-1.34-.6.13-.07.23-.13,1-.54,1,.54.23.13.13.07Z" transform="translate(-0.36 0.4)"/><path class="cls-7" d="M116.7,218.34h0c-.65,2.2-1.38,4.68-2.15,7.26-2.48,8.29-5.36,17.52-6.92,21.23a14,14,0,0,1-2.53-.41c-.35,1-.67,1.83-.94,2.47a19.47,19.47,0,0,1-3.8-.76c-2.18-15.85-4.74-31.19-6.27-40h0l.69-1.45,1.42-3,.06-.48-.06.06.07-.16.18-1.49,12.88,3.75A69.91,69.91,0,0,1,116.7,218.34Z" transform="translate(-0.36 0.4)"/><path class="cls-7" d="M72.17,246.18c-1.91.7-3.63,1.24-5.08,1.63h0c-.15,0-.72.22-1.44.41s-1.58.41-2.34.54a8.11,8.11,0,0,1-1.14.13c-.27-.64-.59-1.49-.94-2.47a14,14,0,0,1-2.53.41c-1.9-4.5-5.73-17.14-8.44-26.37,2.22-8.11,3.88-13.85,3.88-13.85L70,202.7l0,.36.07.16-.06-.06.06.48,1.42,3,1.5,3.2C72.21,219.28,72,232.69,72.17,246.18Z" transform="translate(-0.36 0.4)"/><path class="cls-15" d="M72.78,221.49s3.63,2.47,10.76.83c0,0,5.62.37,6.7.56s3.83-11.82,3.83-11.82l.54-7.16-3-.73-19.09,6.32" transform="translate(-0.36 0.4)"/><path class="cls-16" d="M80.89,171.25l.43-.73,2.92,1,2.92-1s.49.83,1.25,2.16c-.86-5-1.7-9.35-2.39-12.24l.64-.1-1.53-3.64-3,3.27c.46,0,.9,0,1.38,0C82.82,162.85,81.9,166.8,80.89,171.25Z" transform="translate(-0.36 0.4)"/><path class="cls-16" d="M91.62,193.45l-3.07,1.27s-2.29-16.1-4.31-21.51c-2,5.41-4.31,21.51-4.31,21.51l-3.68-1.53c-1,5.53-1.86,10.48-2.16,13.88a10.75,10.75,0,0,1-.28,1.64l.78.52,8.55,5.86,10-3.68.94-.35a7.9,7.9,0,0,1-.62-2.51C93.13,204.91,92.46,199.46,91.62,193.45Z" transform="translate(-0.36 0.4)"/><path class="cls-15" d="M78,192.72s10.15,4.52,15.91,4.58S81.73,213,81.73,213l-11.45-4.73,4.38-12.09" transform="translate(-0.36 0.4)"/><path class="cls-15" d="M94.63,210.85l-1.5.56C89.42,189.75,86,172.33,86,172.33c-2.19.78-2.88,0-2.88,0-1.24,1.06-6.72,27.78-8.55,36.9l-.61,3-.67-3.88-2.92-17.16-4.15-24.4L78.14,155h4.55l3.56-1.09,3.47,12.79s.06.44.14,1.23C90.48,173.31,93,195.34,94.63,210.85Z" transform="translate(-0.36 0.4)"/><path class="cls-14" d="M83.5,160c-.48,0-.92,0-1.38,0-13.87-.24-21.18-4.53-21.18-4.53l11.39-1.75-12.07-1.75-3.19,1.72,2.11,53.71,1.76,4.89s10.21,7.18,12.87-3.55a10.75,10.75,0,0,0,.28-1.64c.3-3.4,1.11-8.35,2.16-13.88l-5-2.05c.64-4.18,7.78-16.73,9.6-19.89C81.9,166.8,82.82,162.85,83.5,160Z" transform="translate(-0.36 0.4)"/><path class="cls-14" d="M112.89,158.38l-6.26,1.82-2.27-5.73c-4.18,3.67-14.12,5.33-17.7,5.87l-.64.1c.69,2.89,1.53,7.25,2.39,12.24,2.55,4.49,8.21,14.76,8.78,18.46l-5.57,2.31c.84,6,1.51,11.46,1.83,15.1a7.9,7.9,0,0,0,.62,2.51c4.06,9.19,11.52,2.2,11.52,2.2l4.5-5.68Z" transform="translate(-0.36 0.4)"/><path class="cls-7" d="M85.12,156.69s.34,1.4.9,3.75c2.83-.42,17.92-2.09,20.59-8.92Z" transform="translate(-0.36 0.4)"/><path class="cls-7" d="M72.33,153.66l-11.39,1.75s7.73,4.83,22.51,4.79c.69-2.93,1.18-4.95,1.18-4.95Z" transform="translate(-0.36 0.4)"/><path class="cls-15" d="M84.24,171.48l-2.92-1-.43.73c-1.55,6.84-3.29,14.85-4.64,21.94l3.68,1.53s2.29-16.1,4.31-21.51a5.5,5.5,0,0,0-.74-1.49Z" transform="translate(-0.36 0.4)"/><path class="cls-7" d="M71.29,191.14l5,2.05c1.35-7.09,3.09-15.1,4.64-21.94C79.07,174.41,71.93,187,71.29,191.14Z" transform="translate(-0.36 0.4)"/><path class="cls-15" d="M84.24,171.48l.74.24a5.5,5.5,0,0,0-.74,1.49c2,5.41,4.31,21.51,4.31,21.51l3.07-1.27c-.94-6.8-2.1-14.31-3.21-20.77-.76-1.33-1.25-2.16-1.25-2.16Z" transform="translate(-0.36 0.4)"/><path class="cls-7" d="M97.19,191.14c-.57-3.7-6.23-14-8.78-18.46,1.11,6.46,2.27,14,3.21,20.77Z" transform="translate(-0.36 0.4)"/><path class="cls-15" d="M84.24,171.48l-.74.24a5.5,5.5,0,0,1,.74,1.49,5.5,5.5,0,0,1,.74-1.49Z" transform="translate(-0.36 0.4)"/><path class="cls-14" d="M84.93,231.2c-.54,0-1.08,0-1.6,0-11,.22-19.41,5.75-23.1,8.69a26,26,0,0,0-2.06,1.78c-3.13-7.42-11.49-36.9-11.49-36.9a157.65,157.65,0,0,1,3.5-46.92c0-2.43,6.63-8.19,6.63-8.19,5.38,3.77,9,18,9,18l.76,6.19,3,24.59,1.42,3Z" transform="translate(-0.36 0.4)"/><path class="cls-7" d="M58.17,241.67A75.62,75.62,0,0,0,84.93,231.2,35.57,35.57,0,0,0,58.17,241.67Z" transform="translate(-0.36 0.4)"/><path class="cls-14" d="M59.23,240.65l4.63-.24a32,32,0,0,1-5.69,1.26l.52-1.26Z" transform="translate(-0.36 0.4)"/><polyline class="cls-14" points="83.31 231.54 80.52 233.95 84.57 231.6 83.15 230.42"/><path class="cls-14" d="M84.93,234.62H83.78c-10.61.12-18.49,5.95-21.15,8.22-.34.28-.59.51-.75.66l-.24.23.46-1.09.46.2a31.19,31.19,0,0,1,21.27-8.26h0l-.14-1Z" transform="translate(-0.36 0.4)"/><path class="cls-15" d="M81.41,236.66l0,0a70.9,70.9,0,0,1-14.84,6h0a42.08,42.08,0,0,1-4.92,1.08l.24-.23c.23-.23.45-.45.68-.66a31.19,31.19,0,0,1,21.27-8.26c.71,0,1.1,0,1.1,0-1.1.68-2.18,1.3-3.25,1.88Z" transform="translate(-0.36 0.4)"/><path class="cls-17" d="M84,237.91a3,3,0,0,1-2.15,1.17.94.94,0,0,0-.44.26c-.21.12-.25.52-.25.52a1.36,1.36,0,0,0,.07.56,6,6,0,0,1-.5,4,14.92,14.92,0,0,1,.12,2.21c-.44.36-1.2-.21-1.6-.58-.5,1-2-.76-2-.76-1.92-.91-2.55-3.71-2.55-3.71a6.57,6.57,0,0,1-.57-1.89,4.88,4.88,0,0,1-.07-.79,2.11,2.11,0,0,1,0-.67.73.73,0,0,1,0-.08h0a5.47,5.47,0,0,1,3.3-2.83,10.28,10.28,0,0,1,1.66.42,6.63,6.63,0,0,1,.94.43h0Z" transform="translate(-0.36 0.4)"/><path class="cls-18" d="M79.28,246s-1.92-1.35-2-2.28A18.3,18.3,0,0,1,79.28,246Z" transform="translate(-0.36 0.4)"/><path class="cls-18" d="M77.27,245.25s-1.81-1.89-1.81-2.62Z" transform="translate(-0.36 0.4)"/><path class="cls-16" d="M81.41,236.66l3.52-2-1.6-3.42c-11,.22-19.41,5.75-23.1,8.69.53,1.59,1,2.91,1.41,3.84a27.2,27.2,0,0,0,4.92-1.08h0l-3.95.2h-.07a30.85,30.85,0,0,1,10.6-6.43,34.68,34.68,0,0,1,4.11-1.16h0a29.5,29.5,0,0,1,6.55-.67l0,0Z" transform="translate(-0.36 0.4)"/><path class="cls-18" d="M79.09,235.69a10.4,10.4,0,0,0-4.94,4,4.88,4.88,0,0,1-.07-.79,2.11,2.11,0,0,1,0-.67.51.51,0,0,0,0-.09h0l-1-1.68a34.68,34.68,0,0,1,4.11-1.16h0l.15,0A10.28,10.28,0,0,1,79.09,235.69Z" transform="translate(-0.36 0.4)"/><path class="cls-7" d="M55.2,199.35s7.39-8.28,13-4.33l1.42,3-2.51-2.33A24.31,24.31,0,0,0,55.2,199.35Z" transform="translate(-0.36 0.4)"/><path class="cls-7" d="M65.59,166.92s.42-6.75-3-8.12l.46,2.4S65.61,165.18,65.59,166.92Z" transform="translate(-0.36 0.4)"/><path class="cls-7" d="M65.59,166.92s3.68,4.9,2.37,21.48C68,188.4,67.8,168.24,65.59,166.92Z" transform="translate(-0.36 0.4)"/><path class="cls-7" d="M65.59,166.92s2-.38,2.37-3.86c0,0,.24-1.78,1.32-1.86a7.12,7.12,0,0,0,0,1.86s-3.2,4.49-2.8,5.71Z" transform="translate(-0.36 0.4)"/><path class="cls-14" d="M80.38,231.2c.54,0,1.08,0,1.6,0,11,.22,19.41,5.75,23.1,8.69a26,26,0,0,1,2.06,1.78c3.13-7.42,11.49-36.9,11.49-36.9a157.65,157.65,0,0,0-3.5-46.92c0-2.43-7.66-8.55-7.66-8.55-5.38,3.77-8,18.39-8,18.39l-.76,6.19-3,24.59-1.42,3Z" transform="translate(-0.36 0.4)"/><path class="cls-7" d="M107.14,241.67A75.62,75.62,0,0,1,80.38,231.2,35.57,35.57,0,0,1,107.14,241.67Z" transform="translate(-0.36 0.4)"/><path class="cls-14" d="M106.08,240.65l-4.64-.24a32.14,32.14,0,0,0,5.7,1.26l-.52-1.26Z" transform="translate(-0.36 0.4)"/><polyline class="cls-14" points="81.28 231.54 84.07 233.95 80.02 231.6 81.44 230.42"/><path class="cls-14" d="M80.38,234.62h1.15c10.61.12,18.49,5.95,21.15,8.22.34.28.59.51.75.66l.24.23-.46-1.09-.46.2a31.19,31.19,0,0,0-21.27-8.26h0l.14-1Z" transform="translate(-0.36 0.4)"/><path class="cls-15" d="M83.9,236.66l0,0a70.94,70.94,0,0,0,14.85,6h0a42.08,42.08,0,0,0,4.92,1.08l-.24-.23c-.23-.23-.45-.45-.68-.66a31.19,31.19,0,0,0-21.27-8.26c-.71,0-1.1,0-1.1,0,1.1.68,2.18,1.3,3.25,1.88Z" transform="translate(-0.36 0.4)"/><path class="cls-17" d="M81.28,237.91a3,3,0,0,0,2.15,1.17.94.94,0,0,1,.44.26c.21.12.25.52.25.52a1.36,1.36,0,0,1-.07.56,6,6,0,0,0,.5,4,14.92,14.92,0,0,0-.12,2.21c.44.36,1.2-.21,1.6-.58.5,1,2-.76,2-.76,1.92-.91,2.55-3.71,2.55-3.71a6.57,6.57,0,0,0,.57-1.89,4.88,4.88,0,0,0,.07-.79,2.11,2.11,0,0,0,0-.67.73.73,0,0,0,0-.08h0a5.47,5.47,0,0,0-3.3-2.83,10.28,10.28,0,0,0-1.66.42,6.63,6.63,0,0,0-.94.43h0Z" transform="translate(-0.36 0.4)"/><path class="cls-18" d="M86,246s1.92-1.35,2-2.28A18.3,18.3,0,0,0,86,246Z" transform="translate(-0.36 0.4)"/><path class="cls-18" d="M88,245.25s1.81-1.89,1.81-2.62Z" transform="translate(-0.36 0.4)"/><path class="cls-16" d="M83.9,236.66l-3.52-2L82,231.2c11,.22,19.41,5.75,23.1,8.69-.53,1.59-1,2.91-1.41,3.84a27.2,27.2,0,0,1-4.92-1.08h0l4,.2h.07a30.85,30.85,0,0,0-10.6-6.43A34.68,34.68,0,0,0,88,235.25h0a29.5,29.5,0,0,0-6.55-.67l0,0Z" transform="translate(-0.36 0.4)"/><path class="cls-18" d="M86.22,235.69a10.4,10.4,0,0,1,4.94,4,4.88,4.88,0,0,0,.07-.79,2.11,2.11,0,0,0,0-.67.51.51,0,0,1,0-.09h0l1-1.68A34.68,34.68,0,0,0,88,235.25h0l-.15,0A10.28,10.28,0,0,0,86.22,235.69Z" transform="translate(-0.36 0.4)"/><path class="cls-7" d="M110.11,199.35s-7.39-8.28-13-4.33l-1.42,3,2.51-2.33A24.31,24.31,0,0,1,110.11,199.35Z" transform="translate(-0.36 0.4)"/><path class="cls-7" d="M99.72,166.92s-.42-6.75,3-8.12l-.46,2.4S99.69,165.18,99.72,166.92Z" transform="translate(-0.36 0.4)"/><path class="cls-7" d="M99.72,166.92s-3.68,4.9-2.38,21.48C97.34,188.4,97.51,168.24,99.72,166.92Z" transform="translate(-0.36 0.4)"/><path class="cls-7" d="M99.72,166.92s-2-.38-2.38-3.86c0,0-.24-1.78-1.32-1.86a6.41,6.41,0,0,1,0,1.86s3.21,4.49,2.81,5.71Z" transform="translate(-0.36 0.4)"/><polyline class="cls-5" points="55.77 130.02 53.96 138.98 59.6 140.71 103.86 143.28 111.59 132.1 106.94 125.32"/><path class="cls-16" d="M119.66,88.79q-.28,4.21-.63,7.87l.67.51,4.17.14c1.9-5.52,4-22.75,4-22.75.4-2.59.81-5,1.24-7.39-2.07-1.52-4.15-2.91-6.24-4.2A217.76,217.76,0,0,0,119.66,88.79Z" transform="translate(-0.36 0.4)"/><path class="cls-16" d="M81.28,70.85a136.57,136.57,0,0,1,12.66-20,107.55,107.55,0,0,0-26.63-3.18A113.39,113.39,0,0,0,55.65,66.51L88.1,84.16s1.1.4,2.91,1c-.78-2.84-1.22-4.61-1.22-4.61Z" transform="translate(-0.36 0.4)"/><path class="cls-14" d="M160.76,17.06c-10.43-6.14-24.46-6.67-24.46-6.67-33.47-1.29-56.37,20.46-69,37.26,12.59-.12,38.06,2.16,61.77,19.52,3.7-20.56,8.32-32.42,10-36.33a17.7,17.7,0,0,1,7.17-6,18.3,18.3,0,0,1,4.46-1.16l.29,0a15.55,15.55,0,0,1,4.31.07,12.66,12.66,0,0,1,5.92,1.84h0S166.16,23,160.76,17.06Z" transform="translate(-0.36 0.4)"/><path class="cls-7" d="M93.94,50.83A101.22,101.22,0,0,1,122.84,63c8.73-45.46,29.42-42.47,37.07-39.11C131.53,9.74,107.63,32.74,93.94,50.83Z" transform="translate(-0.36 0.4)"/><path class="cls-15" d="M81.28,70.85l8.51,9.73s.44,1.77,1.22,4.61c5.06,1.78,15.7,5.41,23.4,7.36A53.92,53.92,0,0,0,119,96.66q.34-3.66.63-7.87A217.76,217.76,0,0,1,122.84,63a101.22,101.22,0,0,0-28.9-12.14A136.57,136.57,0,0,0,81.28,70.85Z" transform="translate(-0.36 0.4)"/><path class="cls-7" d="M171.83,34.09c-.3-8.16-5.1-13.5-11.07-17,5.4,5.9.51,8.46.51,8.46h0a9.87,9.87,0,0,1,2.6,2.38l.11.13.39.61,0,.05a13.69,13.69,0,0,1,.24,14.66,12,12,0,0,1-2,2.65s-.55,1.93,5-2.17A15.94,15.94,0,0,0,171.83,34.09Z" transform="translate(-0.36 0.4)"/><path class="cls-17" d="M100.9,123.07a8,8,0,0,0,.51-2.39,25.23,25.23,0,0,1-4.82-1.61,25.83,25.83,0,0,1-7.5,1.94c-12.3,1.21-20.47-7.88-22.5-10.43-.33-.41-.5-.66-.5-.66,2.16,12.42,8.58,13.87,9.72,14l.17,0-.17,0c-16.33-1.41-17.24-14.45-17.12-18.53,0,.28,0,.55,0,.83l0,.12v.4c0-.12,0-.24-.06-.36-1.32,24,8.44,26.76,8.44,26.76A11.45,11.45,0,0,1,59,127.57c1.91,5.84,7.39,14.17,23.09,15.05,0,0,12.47-.08,19.4-8.06C99.5,129.82,100.9,123.07,100.9,123.07Z" transform="translate(-0.36 0.4)"/><path class="cls-19" d="M44.14,101.2S5.62,93.79,1.3,76.68c0,0-2.65-10,11.47-13.06,0,0,33.35-3.81,66.76,4,0,0,22.58,4.72,40.47,18.43a188.66,188.66,0,0,0,23.63,8.39s26.77,8.29,32.62,21.41c0,0,3,8.71-23,5.89,0,0-42.09-4.12-72.39-12.9" transform="translate(-0.36 0.4)"/><path class="cls-18" d="M110.09,109.5l-20-8.41-33-1.68-2.27,1.29L58,121.86a19.38,19.38,0,0,0,1,5.71,11.45,11.45,0,0,0,8.06,5.59s-9.76-2.73-8.44-26.76c0,.12,0,.24.06.36v-.4l0-.12c0-.28,0-.55,0-.83-.12,4.08.79,17.12,17.12,18.53-1.14-.15-7.56-1.6-9.72-14,0,0,.17.25.5.66,2,2.55,10.2,11.64,22.5,10.43a25.83,25.83,0,0,0,7.5-1.94,25.23,25.23,0,0,0,4.82,1.61,8,8,0,0,1-.51,2.39s-1.4,6.75.61,11.49a17.62,17.62,0,0,0,2.85-4.5C109.8,117.6,110.09,109.5,110.09,109.5Z" transform="translate(-0.36 0.4)"/><path class="cls-6" d="M56.69,144.81a1.77,1.77,0,0,0,0-.23h0C56.68,144.66,56.69,144.73,56.69,144.81Z" transform="translate(-0.36 0.4)"/><path class="cls-6" d="M57.08,150.87c.08.22.17.42.24.59C57.25,151.29,57.16,151.09,57.08,150.87Z" transform="translate(-0.36 0.4)"/><path class="cls-6" d="M56.43,148.57c.06.22.12.41.19.6C56.55,149,56.49,148.79,56.43,148.57Z" transform="translate(-0.36 0.4)"/><path class="cls-6" d="M56.7,143.41c0-.18,0-.35,0-.53C56.7,143.06,56.71,143.23,56.7,143.41Z" transform="translate(-0.36 0.4)"/><path class="cls-6" d="M56.69,140.8c0-.17,0-.32.06-.5C56.72,140.48,56.72,140.63,56.69,140.8Z" transform="translate(-0.36 0.4)"/><path class="cls-6" d="M56.07,146.59c0,.2,0,.37.07.55C56.12,147,56.09,146.79,56.07,146.59Z" transform="translate(-0.36 0.4)"/><path class="cls-6" d="M56.22,147.67c0,.2.09.38.13.57C56.31,148.05,56.26,147.87,56.22,147.67Z" transform="translate(-0.36 0.4)"/><path class="cls-20" d="M109.93,142.29c0-.52-.09-.88-.09-.88a5.55,5.55,0,0,0,0-1.64c-.54-3.05-4.24-2.1-4.24-2.1a31.41,31.41,0,0,1,.88,10.17,54.7,54.7,0,0,1,3.37-6.43,9.69,9.69,0,0,1-3.45,7.25c0,.53.31,2.31.22,2.86,1.83-2.08,3-3.57,3-3.57C110.45,146.84,110,143.49,109.93,142.29Z" transform="translate(-0.36 0.4)"/><polygon class="cls-21" points="53.74 144.65 53.74 144.65 53.74 144.65 53.74 144.65"/><path class="cls-21" d="M56.68,144.58h0c0-.1,0-.19,0-.3C56.67,144.38,56.68,144.48,56.68,144.58Z" transform="translate(-0.36 0.4)"/><path class="cls-5" d="M109.84,141.41a54.7,54.7,0,0,0-3.37,6.43c0,.27,0,.54-.08.82A9.69,9.69,0,0,0,109.84,141.41Z" transform="translate(-0.36 0.4)"/><path class="cls-22" d="M75.64,151.82a15.27,15.27,0,0,0-9.28,4.63c2.84,1.37,8.85.53,13.74,1.72C77.64,155.6,76,154.07,75.64,151.82Z" transform="translate(-0.36 0.4)"/><path class="cls-21" d="M75.42,150q-.73.25-1.5.57a26.3,26.3,0,0,0-7.56,5.86,15.27,15.27,0,0,1,9.28-4.63C75.46,150.73,75.42,150,75.42,150Z" transform="translate(-0.36 0.4)"/><path class="cls-22" d="M80.75,147.66a5.06,5.06,0,0,0,.25.58l-.15,0,.3-.05a6.35,6.35,0,0,1-.06-.72Z" transform="translate(-0.36 0.4)"/><path class="cls-5" d="M80.85,148.28c-.56.15-2.78.77-5.43,1.74,0,0,0,.71.22,1.8a30.35,30.35,0,0,1,6.47-.27,13.14,13.14,0,0,1-1-3.32Z" transform="translate(-0.36 0.4)"/><path class="cls-21" d="M93.27,150.28l-2.13-1a21.11,21.11,0,0,0-10-1.07,13.14,13.14,0,0,0,1,3.32,39.89,39.89,0,0,1,7.77,1.25c3,.95,4.52.86,5.31.46A17.79,17.79,0,0,0,93.27,150.28Z" transform="translate(-0.36 0.4)"/><path class="cls-20" d="M93.27,150.28l1.12.42a25.48,25.48,0,0,0-3.25-1.4l2.13,1Z" transform="translate(-0.36 0.4)"/><path class="cls-20" d="M97.79,137a51.15,51.15,0,0,1-6.33.52c.39,4.64.5,9.65-.53,11.65l.21.09a25.48,25.48,0,0,1,3.25,1.4c1.79.68,3.25,1.31,4.33,1.8,0-1.53.1-6.54-.18-11.67a4.54,4.54,0,0,1-1-.51S96.53,138.15,97.79,137Z" transform="translate(-0.36 0.4)"/><path class="cls-5" d="M97.79,137c-1.26,1.11-.29,3.28-.29,3.28a4.54,4.54,0,0,0,1,.51c-.07-1.3-.17-2.6-.3-3.86Z" transform="translate(-0.36 0.4)"/><path class="cls-5" d="M95.19,153.26a1.51,1.51,0,0,0,.76-1.72l-2.68-1.26A17.79,17.79,0,0,1,95.19,153.26Z" transform="translate(-0.36 0.4)"/><path class="cls-20" d="M98.72,152.5c0,.31,0,.48,0,.48A22.73,22.73,0,0,0,96,151.54a1.51,1.51,0,0,1-.76,1.72,7.7,7.7,0,0,1,1.27,4.54c1.56-1.17,3.42-1.08,4.83-2.42l-.36-1.8S100.15,153.16,98.72,152.5Z" transform="translate(-0.36 0.4)"/><path class="cls-20" d="M94.39,150.7l-1.12-.42h0L96,151.54h0C95.42,151.23,94.91,151,94.39,150.7Z" transform="translate(-0.36 0.4)"/><path class="cls-21" d="M63.57,136.48c.5-.1,1.11-.22,1.78-.37l-2,.41Z" transform="translate(-0.36 0.4)"/><path class="cls-22" d="M61.94,154.89h0c1.39,1,3.29,1,4.42,1.56,0,0-2.15-2.41-4.67-5.09C61.87,152.24,61.61,154,61.94,154.89Z" transform="translate(-0.36 0.4)"/><path class="cls-22" d="M73.87,150.6a48.42,48.42,0,0,1,.1-15.34c-1.57-.07-3.17-.06-4.71,0-1.43.33-2.77.62-3.9.86h0c-.67.15-1.28.27-1.78.37h0a29.23,29.23,0,0,0-2.24,11.86,2.43,2.43,0,0,1,.55.76s4.68,5.62,4.48,7.35a26.3,26.3,0,0,1,7.56-5.86Z" transform="translate(-0.36 0.4)"/><path class="cls-21" d="M61.88,149.1a2.43,2.43,0,0,0-.55-.76,19.88,19.88,0,0,0,.36,3c2.52,2.68,4.67,5.09,4.67,5.09C66.56,154.72,61.88,149.1,61.88,149.1Z" transform="translate(-0.36 0.4)"/><path class="cls-22" d="M57.32,151.46c-.07-.17-.16-.37-.24-.59,0-.05-.45-1.65-.46-1.7s-.13-.38-.19-.6,0-.22-.08-.33-.09-.37-.13-.57,0-.35-.08-.53,0-.35-.07-.55.63-1.54.62-1.78c0-.08,0-.15,0-.23-.85-.76-2.19-.2-2.58-.34.08,1.48,3.22,7.31,3.22,7.31v-.08Z" transform="translate(-0.36 0.4)"/><path class="cls-21" d="M56.67,144.28V144a3.45,3.45,0,0,0-2.57.24h0c.39.14,1.73-.42,2.58.34C56.68,144.48,56.67,144.38,56.67,144.28Z" transform="translate(-0.36 0.4)"/><polygon class="cls-20" points="65 136.51 65 136.51 64.99 136.52 65 136.51"/><path class="cls-20" d="M63.35,136.52l-1.47.3,1.69-.34Z" transform="translate(-0.36 0.4)"/><path class="cls-20" d="M61.87,136.76v.06l0-.07Z" transform="translate(-0.36 0.4)"/><path class="cls-20" d="M61.9,136.75l0,.07a.41.41,0,0,1,.13-.08Z" transform="translate(-0.36 0.4)"/><path class="cls-20" d="M62,136.74a.41.41,0,0,0-.13.08l1.47-.3Z" transform="translate(-0.36 0.4)"/><path class="cls-20" d="M96,151.54h0A22.73,22.73,0,0,1,98.71,153s0-.17,0-.48c-1.08-.49-2.54-1.12-4.33-1.8C94.91,151,95.42,151.23,96,151.54Z" transform="translate(-0.36 0.4)"/><path class="cls-20" d="M75.64,151.82c.37,2.25,2,3.78,4.46,6.35h0c1.59.39,3.12.75,4.51,1.06,1.81.41,3-.65,4.11-.42-1.39-2-5-3.2-6.61-7.26A30.35,30.35,0,0,0,75.64,151.82Z" transform="translate(-0.36 0.4)"/><polygon class="cls-20" points="79.74 158.58 79.74 158.58 79.74 158.58 79.74 158.58"/><path class="cls-20" d="M77.72,149a22.23,22.23,0,0,0-3.8,1.59q.77-.32,1.5-.57h0Z" transform="translate(-0.36 0.4)"/><path class="cls-23" d="M80.75,147.66l-3,1.34a21.67,21.67,0,0,1,3.13-.72l.15,0A5.06,5.06,0,0,1,80.75,147.66Z" transform="translate(-0.36 0.4)"/><path class="cls-23" d="M77.72,149l-2.3,1h0c2.65-1,4.87-1.59,5.43-1.74A21.67,21.67,0,0,0,77.72,149Z" transform="translate(-0.36 0.4)"/><path class="cls-20" d="M80.75,147.66c-1.21-2.94-.83-7.86-.28-11.52a28.94,28.94,0,0,0-6.5-.88,48.42,48.42,0,0,0-.1,15.34h0a22.23,22.23,0,0,1,3.8-1.59Z" transform="translate(-0.36 0.4)"/><path class="cls-22" d="M106.18,148.82a4.26,4.26,0,0,1,.29-1,31.41,31.41,0,0,0-.88-10.17s-3.25,4.53-7,3.16c.28,5.13.21,10.14.18,11.67,1.43.66,2.21,1.08,2.21,1.08l.36,1.8c.79-.74,1.88-1.31,2.59-2,1-1,2-.94,2.73-1.82.09-.55-.27-2.33-.22-2.86Z" transform="translate(-0.36 0.4)"/><path class="cls-21" d="M98.24,137c.13,1.26.23,2.56.3,3.86,3.8,1.37,7-3.16,7-3.16a20.24,20.24,0,0,0-5-1.24A16.86,16.86,0,0,1,98.24,137Z" transform="translate(-0.36 0.4)"/><path class="cls-21" d="M106.39,148.66c0-.28.06-.55.08-.82a4.26,4.26,0,0,0-.29,1Z" transform="translate(-0.36 0.4)"/><path class="cls-20" d="M61.69,151.36c-1.94-2.06-3.43-5.36-5-6.78a1.77,1.77,0,0,1,0,.23c0,.24-.64,1.56-.62,1.78s0,.37.07.55,0,.36.08.53.09.38.13.57,0,.23.08.33.12.41.19.6.44,1.65.46,1.7c.08.22.08.25.15.42a.75.75,0,0,1,.06.13l0,.13.32.24c.78.59,2.06,1.58,4.3,3.1h0C61.61,154,61.87,152.24,61.69,151.36Z" transform="translate(-0.36 0.4)"/><path class="cls-5" d="M56.67,144.28c0,.11,0,.2,0,.3,1.58,1.42,3.07,4.72,5,6.78a19.88,19.88,0,0,1-.36-3c-1.15-1.2-2.92-3.54-4.65-4.34C56.68,144.09,56.67,144.19,56.67,144.28Z" transform="translate(-0.36 0.4)"/><path class="cls-20" d="M56.35,148.24c0,.11,0,.23.08.33C56.4,148.47,56.38,148.35,56.35,148.24Z" transform="translate(-0.36 0.4)"/><path class="cls-20" d="M56.7,143.41l0,.59h0C56.68,143.81,56.69,143.61,56.7,143.41Z" transform="translate(-0.36 0.4)"/><path class="cls-20" d="M56.14,147.14c0,.18,0,.36.08.53C56.19,147.5,56.17,147.32,56.14,147.14Z" transform="translate(-0.36 0.4)"/><path class="cls-20" d="M57.32,151.55" transform="translate(-0.36 0.4)"/><path class="cls-20" d="M56.62,149.17c0,.05.44,1.65.46,1.7S56.63,149.22,56.62,149.17Z" transform="translate(-0.36 0.4)"/><path class="cls-20" d="M56.72,142.88c0-.34-.08-1.72,0-2.08C56.64,141.16,56.74,142.54,56.72,142.88Z" transform="translate(-0.36 0.4)"/><path class="cls-20" d="M56.69,144.81c0,.24-.64,1.56-.62,1.78C56.05,146.37,56.7,145.05,56.69,144.81Z" transform="translate(-0.36 0.4)"/><path class="cls-20" d="M56.67,144v.28c0-.09,0-.19,0-.28Z" transform="translate(-0.36 0.4)"/><path class="cls-22" d="M91.46,137.56l-1.6,0a47.66,47.66,0,0,1-7.89-.91h0a13.09,13.09,0,0,0-1.5-.54c-.55,3.66-.93,8.58.28,11.52l.34-.15a6.35,6.35,0,0,0,.06.72,21.11,21.11,0,0,1,10,1.07l-.21-.09C92,147.21,91.85,142.2,91.46,137.56Z" transform="translate(-0.36 0.4)"/><path class="cls-22" d="M96.46,157.8a7.7,7.7,0,0,0-1.27-4.54c-.79.4-2.32.49-5.31-.46a39.89,39.89,0,0,0-7.77-1.25c1.66,4.06,5.22,5.23,6.61,7.26a1.15,1.15,0,0,0,.49,0A27.57,27.57,0,0,0,96.46,157.8Z" transform="translate(-0.36 0.4)"/><path class="cls-20" d="M57.07,150.82a7.13,7.13,0,0,0,.25.73l.12-.12Z" transform="translate(-0.36 0.4)"/><path class="cls-20" d="M63.56,136.49h-.11l-.11,0a12.73,12.73,0,0,0-5.24,1.28c-.12,0-.19.12-.23.13h0a3.84,3.84,0,0,0-.74.64c-.16.58-.26,1.13-.35,1.65l0,.07-.06.5c0,.37.05,1.74,0,2.07s0,.36,0,.54,0,.39,0,.58c1.73.81,3.5,3.15,4.65,4.34A29.22,29.22,0,0,1,63.56,136.49Z" transform="translate(-0.36 0.4)"/><path class="cls-22" d="M55.78,140.55a28.84,28.84,0,0,0-1.68,3.69,3.45,3.45,0,0,1,2.58-.25c0-.19,0-.38,0-.58s0-.34,0-.54-.08-1.7,0-2.07l.06-.5,0-.07c.09-.52.19-1.07.35-1.65A11.5,11.5,0,0,0,55.78,140.55Z" transform="translate(-0.36 0.4)"/><path class="cls-24" d="M127.56,108.66h0l-.1-.07-.56-.47-.14,0c-.38-.29-.76-.58-1.13-.88h0c-6.31-2.19-18.16-5.77-18.16-5.77-41-8.7-60.85-1.72-65.48.33-1.05,2.77-1.68,4.87-1.82,5.33-.17,1.55-.31,3.15-.38,4.89A6.25,6.25,0,0,1,38,116s-8.11,7-5.74,17.11c0,0,.7,7.61,8.11,10.09,0,0-8.7-6.33-3.56-16.72,0,0-1.78,18.3,15.23,19a10.4,10.4,0,0,1-6-4.66h0v0a8.15,8.15,0,0,1-.88-4.19s-.89-3.26,1.48-9.39c0,0-1.66,13.91,8.07,17.3a17.53,17.53,0,0,0,6.67.3s-3.66-.79-3-5.24c0,0,3.57-4.92,2.86-9h0l0-.14a3.72,3.72,0,0,0-.18-.69l0,0v0a19.93,19.93,0,0,0-1.84-3.38A15.3,15.3,0,0,1,58,121.86a11.58,11.58,0,0,0,9.1,7.91S57,127,58.69,102c-.12,4.09.79,17.13,17.12,18.54-1.14-.16-7.56-1.6-9.72-14a39.51,39.51,0,0,1,0-8.7s4.57,18.78,23,19.79a26.16,26.16,0,0,0,7.5-1.94,26,26,0,0,0,4.82,1.61,8.16,8.16,0,0,1-.51,2.39s-3.12,15,6.57,16c0,0,2.57,7.12-2.76,9.69,0,0,5.93,1.39,10.48-4.94a26,26,0,0,0,6.23-5.05c6.3-10.62-.63-23.63-2-26l-.23-.38.23.38c1.89,3.1,7,7.21,7,7.21s9.39,6.52,4.65,17C131.11,133.57,141.29,120.3,127.56,108.66Z" transform="translate(-0.36 0.4)"/><path class="cls-18" d="M75.81,123.94l.17,0Z" transform="translate(-0.36 0.4)"/><path class="cls-13" d="M75.81,120.55l.17,0Z" transform="translate(-0.36 0.4)"/><path class="cls-13" d="M58.69,103s-2.59-7.71,1.07-14.24,0,2.87,0,2.87a22,22,0,0,0-1.06,11.77" transform="translate(-0.36 0.4)"/><path class="cls-24" d="M66.59,107.19l-.5-.66S66.26,106.78,66.59,107.19Z" transform="translate(-0.36 0.4)"/><path class="cls-13" d="M66.09,97.83a39.51,39.51,0,0,0,0,8.7l.5.66c2,2.54,10.2,11.64,22.5,10.43C70.66,116.61,66.09,97.83,66.09,97.83Z" transform="translate(-0.36 0.4)"/><path class="cls-13" d="M58.38,139.56s-1.52-8.21,1.22-9.3c0,0,.82.59,0,3.36A10.35,10.35,0,0,0,58.38,139.56Z" transform="translate(-0.36 0.4)"/><path class="cls-13" d="M36.82,126.5s.5-5.14,4.65-7.71A23,23,0,0,0,36.82,126.5Z" transform="translate(-0.36 0.4)"/><path class="cls-13" d="M107.47,135.65s-1-7-3.9-10.73c0,0-1.88.89.49,4.45A24,24,0,0,1,107.47,135.65Z" transform="translate(-0.36 0.4)"/><path class="cls-13" d="M96.59,115.68s-12.11-5-12.9-13.2c0,0,1.13-1.43,2.87,3.26C86.56,105.74,87.83,111.58,96.59,115.68Z" transform="translate(-0.36 0.4)"/><path class="cls-13" d="M101.41,117.29a51.35,51.35,0,0,0-2.49-19.46S105,105.5,101.41,117.29Z" transform="translate(-0.36 0.4)"/><path class="cls-6" d="M46,140.78l-.88-4.19A8.15,8.15,0,0,0,46,140.78Z" transform="translate(-0.36 0.4)"/><path class="cls-13" d="M46,140.82h0l0-.05Z" transform="translate(-0.36 0.4)"/><path class="cls-13" d="M46.61,127.2c-2.37,6.13-1.48,9.39-1.48,9.39a14.51,14.51,0,0,0,9.55,7.91C45,141.11,46.61,127.2,46.61,127.2Z" transform="translate(-0.36 0.4)"/><path class="cls-13" d="M119.42,109.36l-.23-.38Z" transform="translate(-0.36 0.4)"/><path class="cls-13" d="M119.42,109.36c1.37,2.36,8.3,15.37,2,26a20.21,20.21,0,0,0,5-18.78S121.31,112.46,119.42,109.36Z" transform="translate(-0.36 0.4)"/><path class="cls-13" d="M115.19,140.4s4.59-6.78,2-12.71C117.21,127.69,122.85,131.84,115.19,140.4Z" transform="translate(-0.36 0.4)"/><path class="cls-6" d="M119.42,109.36l-.23-.38Z" transform="translate(-0.36 0.4)"/><path class="cls-13" d="M52.68,84.52c-1.36.22-2.72.46-4.09.75,0,0-6.64,5.87-8.42,21.81C40.58,105.7,45.46,89.58,52.68,84.52Z" transform="translate(-0.36 0.4)"/><path class="cls-13" d="M58,121.86s-5.37-8.44-2.76-14.67c0,0-1.21,3.75,2.93,15.16" transform="translate(-0.36 0.4)"/><path class="cls-13" d="M119.19,109s-5-7.1-6.13-13.18a5.84,5.84,0,0,0-2.17-2.32s1.93,6.34,8.53,15.88" transform="translate(-0.36 0.4)"/><path class="cls-6" d="M119.42,109.36l-.23-.38Z" transform="translate(-0.36 0.4)"/><path class="cls-13" d="M107.47,101.42s11.85,3.58,18.16,5.77h0a47.09,47.09,0,0,1-8.93-10.07h0c-1-1.69,1.14.52-1-1.69,0,0-31.31-16.11-63.06-10.91C47.86,87.89,44.09,96.19,42,101.75,46.62,99.7,66.47,92.72,107.47,101.42Z" transform="translate(-0.36 0.4)"/><polygon class="cls-7" points="69.93 188.6 67.74 186.78 67.4 189.6 68.6 195.12 73.51 208.64 73.91 205.72 76.14 192.32 69.93 188.6"/><path class="cls-25" d="M84.3,170.26A10.68,10.68,0,0,0,83,173.58c-1.77,6.29-3.55,18.76-3.55,18.76l-8.28-3.43c.51-3.38,5.47-12.49,8.07-17.09.93-1.66,1.56-2.72,1.56-2.72Z" transform="translate(-0.36 0.4)"/><path class="cls-25" d="M97.5,188.91l-8.28,3.43S87.45,180,85.7,173.69a11.15,11.15,0,0,0-1.35-3.43l3.53-1.16s.68,1.17,1.68,3C92.19,176.7,97,185.58,97.5,188.91Z" transform="translate(-0.36 0.4)"/><path class="cls-18" d="M84.3,170.26A10.68,10.68,0,0,0,83,173.58a9.3,9.3,0,0,1-3.76-1.76c.93-1.66,1.56-2.72,1.56-2.72Z" transform="translate(-0.36 0.4)"/><path class="cls-18" d="M89.56,172.05a8,8,0,0,1-3.86,1.64,11.15,11.15,0,0,0-1.35-3.43l3.53-1.16S88.56,170.27,89.56,172.05Z" transform="translate(-0.36 0.4)"/><path class="cls-26" d="M89.72,165.19c0,3.25-2.27,5.88-5.1,5.88s-5.08-2.63-5.08-5.88,2.27-5.86,5.08-5.86S89.72,162,89.72,165.19Z" transform="translate(-0.36 0.4)"/><path class="cls-27" d="M89.72,165.19c0,3.25-2.27,5.88-5.1,5.88V159.33C87.45,159.33,89.72,162,89.72,165.19Z" transform="translate(-0.36 0.4)"/><path class="cls-28" d="M84.63,161c-1.95,0-3.52,1.9-3.52,4.25s1.57,4.24,3.52,4.24,3.52-1.9,3.52-4.24S86.58,161,84.63,161Zm0,7.27c-1.62,0-2.93-1.58-2.93-3.53s1.31-3.54,2.93-3.54,2.93,1.59,2.93,3.54S86.25,168.22,84.63,168.22Z" transform="translate(-0.36 0.4)"/><ellipse class="cls-29" cx="84.27" cy="165.09" rx="2.93" ry="3.53"/><path class="cls-30" d="M84.63,162.06a1.34,1.34,0,1,0,1.09,1.32A1.22,1.22,0,0,0,84.63,162.06Z" transform="translate(-0.36 0.4)"/><polygon class="cls-7" points="96.23 191.79 95.35 198.87 92.7 204.52 92.26 201.44 94.7 197.05 96.08 191.35 96.23 191.79"/><polygon class="cls-7" points="82.25 226.66 80.27 231.66 80.95 223.87 82.25 226.66"/><polygon class="cls-15" points="81.26 232.37 80.27 231.76 78.72 235.32 80.02 235.02 81.26 232.37"/><path class="cls-31" d="M64.24,118.86s4.84-3.41,8.61-3.32c0,0,1.41.62,1.59,1.06L63.72,121Z" transform="translate(-0.36 0.4)"/><ellipse class="cls-31" cx="69.11" cy="121.57" rx="3.1" ry="4.4"/><path class="cls-31" d="M100.78,118.86s-4.84-3.41-8.62-3.32c0,0-1.41.62-1.58,1.06L101.29,121Z" transform="translate(-0.36 0.4)"/><ellipse class="cls-31" cx="95.18" cy="121.57" rx="3.1" ry="4.4"/><path class="cls-32" d="M176.25,115.89c-5.85-13.12-32.62-21.41-32.62-21.41a179.25,179.25,0,0,1-17.8-6c1.13-6.62,2-13.93,2-13.93.18-1.16.36-2.29.55-3.4l1.53-8.43c3.53-17.83,7.6-28.27,9.18-31.89a17.7,17.7,0,0,1,7.17-6,18.3,18.3,0,0,1,4.46-1.16l.29,0a15.55,15.55,0,0,1,4.31.07,12.7,12.7,0,0,1,5.92,1.84h0a9.87,9.87,0,0,1,2.6,2.38l.11.13.39.61,0,.05a13.69,13.69,0,0,1,.24,14.66,12,12,0,0,1-2,2.65s-.55,1.93,5-2.17a15.94,15.94,0,0,0,4.16-9.76c-.3-8.15-5.1-13.5-11.06-17h0c-10.43-6.14-24.46-6.67-24.46-6.67-33.47-1.29-56.37,20.46-69,37.26A122.09,122.09,0,0,0,57,63.91a226.22,226.22,0,0,0-44.18-.29C-1.35,66.66,1.3,76.68,1.3,76.68c3.6,14.27,31,21.79,40,23.89a60.77,60.77,0,0,0-1.09,6.51c-.17,1.55-.31,3.15-.38,4.89A6.25,6.25,0,0,1,38,116s-8.11,7-5.74,17.11c0,0,.7,7.61,8.11,10.09,0,0-8.7-6.33-3.56-16.72,0,0-1.78,18.3,15.23,19a10.4,10.4,0,0,1-6-4.66l0-.05-.88-4.19a14.59,14.59,0,0,0,9,7.74c.11,1,1.45,3.82,2.37,5.61-1.32,1.18-6.31,5.8-6.31,7.91a157.65,157.65,0,0,0-3.5,46.92s1.79,6.34,4,13.88c-.17.59-.33,1.2-.5,1.82-4.8,17.59-12.23,46.33-11,51.7,0,0,17.8,16.48,29.14,22.94a22.63,22.63,0,0,0-.52,4.51,161.69,161.69,0,0,0,.45,17.62h0l-1,2-.85,8.3a23.2,23.2,0,0,0,1.52,4.37,20.28,20.28,0,0,0,1.47,2.67c.14.18.27.39.4.58,2.15,2.95,5.5,5.28,10.47,3.71,0,0,4.33-1.46,2.22-8.43,0,0-2-4.69-3.15-8.13l-.81-2.84-1.24-1.89h0c.09-3.16.34-9.69.94-15a34.11,34.11,0,0,1,1.26-6.77s.94-5.55,1.55-12.09c.14-1.56.27-3.19.36-4.8a14.19,14.19,0,0,0,1.79-.08V277c1.15.06,2.47.11,3.89.14.09,2.19.25,4.42.45,6.55.61,6.54,1.55,12.09,1.55,12.09a35.61,35.61,0,0,1,1.29,7.06c.58,5.29.82,11.64.91,14.74,0,.15,0,.29,0,.42,0-.13,0-.27,0-.42L90,319.48l-.81,2.84C88,325.76,86,330.45,86,330.45c-2.11,7,2.23,8.43,2.23,8.43,5,1.57,8.32-.76,10.47-3.71.13-.19.26-.4.39-.58a18.19,18.19,0,0,0,1.47-2.67,22.86,22.86,0,0,0,1.53-4.37l-.86-8.3-1-2c0,.2,0,.37-.07.55,0-.18.05-.36.07-.55a152.55,152.55,0,0,0,.47-16.63,34.39,34.39,0,0,0-1.94-11c0-.13,0-.27,0-.41-.11-2.57.92-8.56,1.71-12.71.64-.1,1.26-.21,1.86-.34.44-.1.87-.2,1.28-.31.76,8.94,1,16.69.53,21.79,0,0,22-16.94,28.11-25.47a311.14,311.14,0,0,0-9.85-39.1,12.86,12.86,0,0,0,8.27-3h0c1.08-1.07,4-2.21,5.24-2.67l.59-.21a13,13,0,0,0,6.64-2.31,4.34,4.34,0,0,0,.2-.5c1.25-3.45-.9-8.7-.9-8.7a22.58,22.58,0,0,1-.61-3.7c0-.24,0-.48.06-.74l0,.28a25.92,25.92,0,0,0,0-4.11c-.26-3.37-.85-6.83-.85-6.83s-.05-.26-.07-.39A33.58,33.58,0,0,0,135,186.83a53.52,53.52,0,0,0-4-5.1,48.5,48.5,0,0,0-4.14-4.19,27.29,27.29,0,0,1-4-4.06c-1.42-1.66-2.92-3.56-4.31-5.39-.6-.79-1.18-1.56-1.72-2.29-.86-5-1.63-8-1.63-8,0-.93-1.12-2.4-2.5-3.86a11.79,11.79,0,0,0-.77-1.69,13.55,13.55,0,0,0-2.94-3.52l.66-.83a5.84,5.84,0,0,0,.52-3.31,12.22,12.22,0,0,0,5.09-4.24,26,26,0,0,0,6.23-5.05,20.21,20.21,0,0,0,5.38-17l1.94.29a13.17,13.17,0,0,1,2.37,14.9s4.85-6.33,3.33-14.08c11.15,1.54,18.82,2.29,18.82,2.29C179.21,124.6,176.25,115.89,176.25,115.89ZM40.37,106.43c.29-.92.83-2.6,1.61-4.67C41.21,103.83,40.66,105.51,40.37,106.43ZM42,101.74c.12-.3.23-.61.36-.92h0ZM78.73,325.18m-.26-1.37Zm0,0h0Zm40.16-119c.08-1,.14-2.05.2-3.07a23.49,23.49,0,0,1,2.29,3.54c.36.69.66,1.37.93,2,.3,1,.64,2.06,1,3.22a1.42,1.42,0,0,1,0,.2,17.92,17.92,0,0,1,.34,6,2.94,2.94,0,0,1-.53,1.84,7.82,7.82,0,0,1-2.24,2.07,23.29,23.29,0,0,1-2.41,1.33c-.51-1.23-1-2.43-1.55-3.61h0c-.41-.9-.82-1.77-1.24-2.63C117.28,209.53,118.63,204.77,118.63,204.77Z" transform="translate(-0.36 0.4)"/><path class="cls-33" d="M176.25,115.89c-5.85-13.12-32.62-21.41-32.62-21.41a179.25,179.25,0,0,1-17.8-6c1.13-6.62,2-13.93,2-13.93.18-1.16.36-2.29.55-3.4l1.53-8.43c3.53-17.83,7.6-28.27,9.18-31.89a17.7,17.7,0,0,1,7.17-6,18.3,18.3,0,0,1,4.46-1.16l.29,0a15.55,15.55,0,0,1,4.31.07,12.7,12.7,0,0,1,5.92,1.84h0a9.87,9.87,0,0,1,2.6,2.38l.11.13.39.61,0,.05a13.69,13.69,0,0,1,.24,14.66,12,12,0,0,1-2,2.65s-.55,1.93,5-2.17a15.94,15.94,0,0,0,4.16-9.76c-.3-8.15-5.1-13.5-11.06-17h0c-10.43-6.14-24.46-6.67-24.46-6.67-33.47-1.29-56.37,20.46-69,37.26A122.09,122.09,0,0,0,57,63.91a226.22,226.22,0,0,0-44.18-.29C-1.35,66.66,1.3,76.68,1.3,76.68c3.6,14.27,31,21.79,40,23.89a60.77,60.77,0,0,0-1.09,6.51c-.17,1.55-.31,3.15-.38,4.89A6.25,6.25,0,0,1,38,116s-8.11,7-5.74,17.11c0,0,.7,7.61,8.11,10.09,0,0-8.7-6.33-3.56-16.72,0,0-1.78,18.3,15.23,19a10.4,10.4,0,0,1-6-4.66l0-.05-.88-4.19a14.59,14.59,0,0,0,9,7.74c.11,1,1.45,3.82,2.37,5.61-1.32,1.18-6.31,5.8-6.31,7.91a157.65,157.65,0,0,0-3.5,46.92s1.79,6.34,4,13.88c-.17.59-.33,1.2-.5,1.82-4.8,17.59-12.23,46.33-11,51.7,0,0,17.8,16.48,29.14,22.94a22.63,22.63,0,0,0-.52,4.51,161.69,161.69,0,0,0,.45,17.62h0l-1,2-.85,8.3a23.2,23.2,0,0,0,1.52,4.37,20.28,20.28,0,0,0,1.47,2.67c.14.18.27.39.4.58,2.15,2.95,5.5,5.28,10.47,3.71,0,0,4.33-1.46,2.22-8.43,0,0-2-4.69-3.15-8.13l-.81-2.84-1.24-1.89h0c.09-3.16.34-9.69.94-15a34.11,34.11,0,0,1,1.26-6.77s.94-5.55,1.55-12.09c.14-1.56.27-3.19.36-4.8a14.19,14.19,0,0,0,1.79-.08V277c1.15.06,2.47.11,3.89.14.09,2.19.25,4.42.45,6.55.61,6.54,1.55,12.09,1.55,12.09a35.61,35.61,0,0,1,1.29,7.06c.58,5.29.82,11.64.91,14.74,0,.15,0,.29,0,.42,0-.13,0-.27,0-.42L90,319.48l-.81,2.84C88,325.76,86,330.45,86,330.45c-2.11,7,2.23,8.43,2.23,8.43,5,1.57,8.32-.76,10.47-3.71.13-.19.26-.4.39-.58a18.19,18.19,0,0,0,1.47-2.67,22.86,22.86,0,0,0,1.53-4.37l-.86-8.3-1-2c0,.2,0,.37-.07.55,0-.18.05-.36.07-.55a152.55,152.55,0,0,0,.47-16.63,34.39,34.39,0,0,0-1.94-11c0-.13,0-.27,0-.41-.11-2.57.92-8.56,1.71-12.71.64-.1,1.26-.21,1.86-.34.44-.1.87-.2,1.28-.31.76,8.94,1,16.69.53,21.79,0,0,22-16.94,28.11-25.47a311.14,311.14,0,0,0-9.85-39.1,12.86,12.86,0,0,0,8.27-3h0c1.08-1.07,4-2.21,5.24-2.67l.59-.21a13,13,0,0,0,6.64-2.31,4.34,4.34,0,0,0,.2-.5c1.25-3.45-.9-8.7-.9-8.7a22.58,22.58,0,0,1-.61-3.7c0-.24,0-.48.06-.74l0,.28a25.92,25.92,0,0,0,0-4.11c-.26-3.37-.85-6.83-.85-6.83s-.05-.26-.07-.39A33.58,33.58,0,0,0,135,186.83a53.52,53.52,0,0,0-4-5.1,48.5,48.5,0,0,0-4.14-4.19,27.29,27.29,0,0,1-4-4.06c-1.42-1.66-2.92-3.56-4.31-5.39-.6-.79-1.18-1.56-1.72-2.29-.86-5-1.63-8-1.63-8,0-.93-1.12-2.4-2.5-3.86a11.79,11.79,0,0,0-.77-1.69,13.55,13.55,0,0,0-2.94-3.52l.66-.83a5.84,5.84,0,0,0,.52-3.31,12.22,12.22,0,0,0,5.09-4.24,26,26,0,0,0,6.23-5.05,20.21,20.21,0,0,0,5.38-17l1.94.29a13.17,13.17,0,0,1,2.37,14.9s4.85-6.33,3.33-14.08c11.15,1.54,18.82,2.29,18.82,2.29C179.21,124.6,176.25,115.89,176.25,115.89ZM40.37,106.43c.29-.92.83-2.6,1.61-4.67C41.21,103.83,40.66,105.51,40.37,106.43ZM42,101.74c.12-.3.23-.61.36-.92h0ZM78.73,325.18m-.26-1.37Zm0,0h0Zm40.16-119c.08-1,.14-2.05.2-3.07a23.49,23.49,0,0,1,2.29,3.54c.36.69.66,1.37.93,2,.3,1,.64,2.06,1,3.22a1.42,1.42,0,0,1,0,.2,17.92,17.92,0,0,1,.34,6,2.94,2.94,0,0,1-.53,1.84,7.82,7.82,0,0,1-2.24,2.07,23.29,23.29,0,0,1-2.41,1.33c-.51-1.23-1-2.43-1.55-3.61h0c-.41-.9-.82-1.77-1.24-2.63C117.28,209.53,118.63,204.77,118.63,204.77Z" transform="translate(-0.36 0.4)"/><rect class="cls-34" height="30"/><rect class="cls-34" x="758" y="302" height="39"/></g></g></svg>