<svg xmlns="http://www.w3.org/2000/svg" xmlns:xlink="http://www.w3.org/1999/xlink" viewBox="0 0 758 341"><defs><style>.cls-1{isolation:isolate;}.cls-2{fill:#90654c;}.cls-3{fill:#8a5330;}.cls-4{fill:#f9d9b5;}.cls-5{fill:#e29f54;}.cls-6{fill:#e5af6e;}.cls-7{fill:#cf6335;}.cls-8{fill:#9d4b31;}.cls-9{fill:#b7a238;}.cls-10{fill:#a18046;}.cls-11{fill:#e69e1d;}.cls-12{fill:#d5772a;}.cls-13{fill:#9b4934;}.cls-14{fill:#7f3526;}.cls-15{fill:#e39b1d;}.cls-16{fill:#d2772a;}.cls-17{fill:none;}.cls-18{fill:#913a30;}.cls-19{mix-blend-mode:overlay;fill:url(#linear-gradient);}.cls-20{opacity:0.4;mix-blend-mode:multiply;fill:url(#linear-gradient-2);}.cls-21{fill:#fff;}</style><linearGradient id="linear-gradient" x1="526.07" y1="172.11" x2="701.59" y2="172.11" gradientUnits="userSpaceOnUse"><stop offset="0" stop-color="#f2deb6" stop-opacity="0"/><stop offset="0.99" stop-color="#f4e9d7" stop-opacity="0.6"/><stop offset="1" stop-color="#c7e1b7" stop-opacity="0.8"/></linearGradient><linearGradient id="linear-gradient-2" x1="457.81" y1="242.08" x2="597.45" y2="172.26" gradientUnits="userSpaceOnUse"><stop offset="0" stop-color="#564339"/><stop offset="0.22" stop-color="#564339" stop-opacity="0.87"/><stop offset="0.61" stop-color="#564339" stop-opacity="0.52"/><stop offset="1" stop-color="#564339" stop-opacity="0.1"/></linearGradient></defs><title>character9_12</title><g class="cls-1"><g id="Layer_1" data-name="Layer 1"><path class="cls-2" d="M612,338.11h0a18.88,18.88,0,0,1-7,1.32,19.45,19.45,0,0,1-8.69-2.56,7.15,7.15,0,0,1-2.2-2,4.17,4.17,0,0,1-.67-1.16,7.33,7.33,0,0,1-.08-4.48L595.5,325l1.42-1.16.3-.1c.29-.11.25.24.55.16a10.25,10.25,0,0,1,1.84-.31l.35,0a14.78,14.78,0,0,1,1.63,0,24.3,24.3,0,0,1,7.66,1.76h0c.3.06,5.78,2.46,6.46,6.37C616.34,335.12,614.41,337.05,612,338.11Z" transform="translate(-0.36 0.4)"/><path class="cls-3" d="M612,338.11a18.88,18.88,0,0,1-7,1.32,19.45,19.45,0,0,1-8.69-2.56,7.15,7.15,0,0,1-2.2-2,4.17,4.17,0,0,1-.67-1.16,7.33,7.33,0,0,1-.08-4.48L595.5,325l1.42-1.16.3-.1c.29-.11.25.24.55.16a10.25,10.25,0,0,1,1.84-.31l3.89,5.78S607,337.53,612,338.11Z" transform="translate(-0.36 0.4)"/><path class="cls-4" d="M610.38,327.75a3.9,3.9,0,0,0-2.07-2h0a9.73,9.73,0,0,0-3-1.16c-.8-.2-1.52-.34-2.17-.45l-2.33-.72.12.49c-2.73-.11-3.62.6-3.62.6a10.31,10.31,0,0,0,4.88,4.52h0a10,10,0,0,0,1,.33h0s3.92,1.33,6.14-.22A2.23,2.23,0,0,0,610.38,327.75Z" transform="translate(-0.36 0.4)"/><path class="cls-3" d="M606.74,324.8s2.09,3.21,1.17,6.05l1.18-.49s-.08-4.17-1.74-5.51Z" transform="translate(-0.36 0.4)"/><path class="cls-4" d="M611.37,293.83c-.09.46-.2.93-.29,1.37-.27,1.22-.52,2.34-.74,3.31-.55,2.34-.93,3.82-.93,3.82-2,4.42-3.39,18.11-3.78,22.32-.06.79-.1,1.24-.1,1.24a4.44,4.44,0,0,1-4.6,1.1,9.09,9.09,0,0,1-3.66-2.51,6.42,6.42,0,0,1-.13-.66c-1.06-6.3,1.07-21.43,1.89-27.34a2.42,2.42,0,0,0,0-.25c.16-1.08.24-1.71.24-1.71s0-.27.06-.41c.08-.58.15-1.24.21-1.93A69.7,69.7,0,0,0,611.37,293.83Z" transform="translate(-0.36 0.4)"/><path class="cls-5" d="M613.49,280.73c-.3,3.11-.83,6.47-1.42,9.59-.23,1.23-.47,2.39-.7,3.51a69.7,69.7,0,0,1-11.8-1.65c.38-4.12.45-9.47.45-9.47C601.46,280.39,614.44,271.11,613.49,280.73Z" transform="translate(-0.36 0.4)"/><path class="cls-4" d="M597.23,323l-.31,2.78s.83,2.28,6.2,3.54Z" transform="translate(-0.36 0.4)"/><path class="cls-6" d="M600,282.71s-.07,5.35-.45,9.47c-.06.69-.13,1.35-.21,1.93,0,.14,0,.28-.06.41s-.08.63-.24,1.71a2.42,2.42,0,0,1,0,.25c2.53.59,6.51,1.41,11.31,2,.22-1,.47-2.09.74-3.31.09-.44.2-.91.29-1.37.23-1.12.47-2.28.7-3.51.59-3.12,1.12-6.48,1.42-9.59C614.44,271.11,601.46,280.39,600,282.71Z" transform="translate(-0.36 0.4)"/><path class="cls-2" d="M643.33,335.26l0,0a8.19,8.19,0,0,0,2.17-3.42h0c.05-.16.07-.25.07-.25a5.63,5.63,0,0,0-.26-1.37c-.6-1.92-2.5-4.67-9.06-6.2a22.23,22.23,0,0,0-7.46.43,14.07,14.07,0,0,0-1.52.48l3.12,3.08S636.08,335.46,643.33,335.26Z" transform="translate(-0.36 0.4)"/><path class="cls-3" d="M624.78,325.82l-.51-1.17-1.13,1.51-1.06,6.09a4.5,4.5,0,0,0,.66,3.5,6.91,6.91,0,0,0,5.1,3.18,21.78,21.78,0,0,0,3.45.46h.2c6.39.36,9.89-2.23,11.84-4.14-7.25.2-12.9-7.29-12.9-7.29l-3.12-3.08a12.41,12.41,0,0,0-2,.93C625.05,326,625,325.64,624.78,325.82Z" transform="translate(-0.36 0.4)"/><path class="cls-4" d="M638.2,326.21a3.76,3.76,0,0,0-2.44-1.48h0a9.9,9.9,0,0,0-3.17-.43c-.81,0-1.55,0-2.21.08l-2.42-.16.22.45c-2.68.52-3.41,1.43-3.41,1.43a10,10,0,0,0,5.71,3.27h0a8.41,8.41,0,0,0,1,.09h0s4.1.38,5.94-1.65A2.29,2.29,0,0,0,638.2,326.21Z" transform="translate(-0.36 0.4)"/><path class="cls-3" d="M634,324.19s2.7,2.64,2.4,5.62l1.06-.76s-1-4-2.86-5Z" transform="translate(-0.36 0.4)"/><path class="cls-4" d="M633.08,325.53c-3.11,4.51-8.34.55-8.34.55-2.41-5.1-3.57-20-4.07-26.73,0-.45-.06-.86-.09-1.23-.08-1.09-.12-1.73-.12-1.73l0-.41c0-.59-.12-1.24-.19-1.93a69.09,69.09,0,0,0,11.84-1.15c0,.47,0,1,0,1.4,0,1.56,0,3-.06,4.12,0,2-.09,3.22-.09,3.22C630.72,307.32,633.08,325.53,633.08,325.53Z" transform="translate(-0.36 0.4)"/><path class="cls-4" d="M624.39,324.67l.28,2.79s1.29,2,6.79,2" transform="translate(-0.36 0.4)"/><path class="cls-6" d="M631.93,292.93h0l.15,0v-.74c0-.92,0-1.86-.05-2.84-.08-3.18-.26-6.58-.61-9.69-1.09-9.6-11.82,2.48-12.73,5.08,0,0,1,5.23,1.54,9.35h0c.07.69.15,1.33.19,1.92l0,.41s0,.64.12,1.73c0,.37,0,.78.09,1.23a73.22,73.22,0,0,0,11.36-.93c0-1.15.05-2.56.06-4.12,0-.45,0-.93,0-1.4Z" transform="translate(-0.36 0.4)"/><path class="cls-2" d="M643.6,283.29c-1.7,1.81-6.82,3.83-7.93,4.19-8.87,2.89-18.95,2.17-18.95,2.17-1.42-.12-2.8-.27-4.16-.45-1.07-.13-2.11-.29-3.15-.48a91.11,91.11,0,0,1-24-7.25c-18.69-8.69-27.66-20.83-27.66-20.83a82.85,82.85,0,0,1,5.73-12.27h0l1.19-2.11c.4-.74.82-1.47,1.23-2.2l1-1.76c.87-1.51,1.73-3,2.56-4.46s1.76-3.09,2.54-4.57c.1-.16.17-.32.26-.48h0c1.22-2.29,2.45-4.55,3.67-6.75h0c.07-.12.14-.23.2-.35l1.34-2.35c.17-.3.34-.61.52-.91l.17-.28c.15-.27.31-.54.47-.81,0-.11.12-.22.18-.34q1.53-2.61,3-5.09h0l.05-.07c.94-1.57,1.86-3.09,2.77-4.53.26-.45.55-.9.81-1.31l1-1.6,2.62-4.07,2-8.32,2.44-10,1.5-6.17c-.31-.4.18-9.74-.06-10.19,0,0,1.34,1.41,1.36,1.41-1.27-2.46-2.61-3.35-3.6-3.64a2.55,2.55,0,0,0-1.5,0l6-10.5,0-.08.05-.08,2.61-4.55,4-7,.42-.72,1-1.77s2.89-.81,6.88-1.85l3.09-.79c6.71-1.7,14.94-3.61,18.31-3.7,1.54-.05,7.06,5.21,8.23,5.59l-5.41.19-3.78.13a25.46,25.46,0,0,1-6.62,7.57c3.7,4.15,8.44.44,12.72,3.91-.07.84-.18,2.45-.26,4.36a95.34,95.34,0,0,0,0,11.52c.15,4,3.66,6.22,4.61,10.18-.66-.82-3.87.26-4,.09,1.26,4.38,3.3.76,4.08,8.49l.15,12.42C646.71,232.6,643.6,283.29,643.6,283.29Z" transform="translate(-0.36 0.4)"/><path class="cls-4" d="M680.38,189.38c1.5-1.93.34-3.24.34-3.24-2.92-1.55-6.55.06-8.53,1.22a13.86,13.86,0,0,1,5.82,6.15,5.76,5.76,0,0,0,1.33-2.08A3.41,3.41,0,0,0,680.38,189.38Z" transform="translate(-0.36 0.4)"/><path class="cls-6" d="M672.19,187.36l-.05,0h0l-2.87,2.29,4.2,5.68a7.3,7.3,0,0,0,2.68-.56,5.7,5.7,0,0,0,1.86-1.28A13.86,13.86,0,0,0,672.19,187.36Z" transform="translate(-0.36 0.4)"/><path class="cls-7" d="M663.33,138.8c5.54-13.52-.79-18.14-.79-18.14,1.78,10.89-10.82,19.46-10.82,19.46l-57.34-6.49c-5.28.47-8.46-3.33-10.21-6.65a21.52,21.52,0,0,1-1.83-4.71,16.56,16.56,0,0,0-1.62,4.44,14,14,0,0,0-.29,4.42,20.13,20.13,0,0,1-.92-4.53c-.81-8.71,3.29-17.64,3.29-17.64s75.32-14.33,75.72-10,7.34,14,7.34,14c.33.44.64.87.93,1.31C676.59,128.9,663.33,138.8,663.33,138.8Z" transform="translate(-0.36 0.4)"/><path class="cls-8" d="M666.79,114.34c-18.69,8.85-78.46,12.93-82.62,12.64a21.52,21.52,0,0,1-1.83-4.71,16.56,16.56,0,0,0-1.62,4.44l-1.21-.11c-.81-8.71,3.29-17.64,3.29-17.64S657.6,92.09,658,96.45,665.86,113,665.86,113C666.19,113.47,666.5,113.9,666.79,114.34Z" transform="translate(-0.36 0.4)"/><path class="cls-2" d="M535.38,28.42C543.7-5.09,588.26,6.85,588.26,6.85c35.29,8.54,52,26.33,59.85,41.55,0,0-18.31,22-67.72,12.6h0c-2-8.69-4.07-16.61-4.07-16.61-4.54-17-11.8-23.5-17.54-25.86-1-.37-9.25-3-18.29,5.57a16.47,16.47,0,0,0-3.71,7.74c-.11,1.32-1.29.36-1.29.36A10,10,0,0,1,535.38,28.42Z" transform="translate(-0.36 0.4)"/><path class="cls-9" d="M582.42,69.92c-.63-2.87-1.33-5.94-2-8.92h0q5.21,1,10,1.54c.64,1.92,1.24,3.83,1.77,5.72C589,68.65,585.67,69.24,582.42,69.92Z" transform="translate(-0.36 0.4)"/><path class="cls-9" d="M627.16,62.63c-.35-.7-.72-1.41-1.1-2.13,15.59-4.33,22.05-12.1,22.05-12.1a66.31,66.31,0,0,1,3.94,9.29l-2.7.1S639.12,60.16,627.16,62.63Z" transform="translate(-0.36 0.4)"/><path class="cls-9" d="M593.85,85.75c-.89-.15-1.76-.33-2.58-.54h0a33.78,33.78,0,0,1-6.62-2.46c.06-1.73-.92-6.86-2.22-12.83,3.25-.68,6.56-1.27,9.71-1.66C594,75,595,81.35,593.85,85.75Z" transform="translate(-0.36 0.4)"/><path class="cls-9" d="M645.67,80h0s-1.23.62-3.54,1.49a63.8,63.8,0,0,1-6.37,2.09,128.61,128.61,0,0,0-8.62-20.95c12-2.47,22.19-4.84,22.19-4.84l2.7-.1a54.11,54.11,0,0,1,3.09,17A66.47,66.47,0,0,1,645.67,80Z" transform="translate(-0.36 0.4)"/><path class="cls-3" d="M577.5,33.07c-12.86-18.41,4.34-14.91,4.34-14.91,25.63,5.28,35,25,44.22,42.34-8.82,2.45-20.56,3.8-35.7,2A226.84,226.84,0,0,0,577.5,33.07Z" transform="translate(-0.36 0.4)"/><path class="cls-10" d="M592.13,68.26c-.53-1.89-1.13-3.8-1.77-5.72,15.14,1.76,26.88.41,35.7-2,.38.72.75,1.43,1.1,2.13a128.61,128.61,0,0,1,8.62,20.95c-1.63.45-3.23.83-4.78,1.13a103.82,103.82,0,0,1-34,1.34,23.63,23.63,0,0,1-3.18-.3C595,81.35,594,75,592.13,68.26Z" transform="translate(-0.36 0.4)"/><path class="cls-2" d="M701.59,65.39c-.2,6.69-3.09,14.39-28.87,26.51-17.47,8.72-42.3,16.48-43.16,16.44-24.39,5.42-40.09,4.88-40.09,4.88-31,.17-49-5.33-56.22-8.19-2.14-.86-3.34-1.47-3.67-1.64l-.06,0,0,0a6.28,6.28,0,0,1-3-3s-6.38-11,33.76-24.29a223.61,223.61,0,0,1,22.21-6.07c1.3,6,2.28,11.1,2.22,12.83,0,0,.69.37,1.88.86a37.21,37.21,0,0,0,4.73,1.6h0c.82.22,1.68.39,2.58.54A23.78,23.78,0,0,0,597,86a103.58,103.58,0,0,0,34-1.33c1.55-.31,3.15-.69,4.78-1.13a64.82,64.82,0,0,0,6.38-2.09A37.85,37.85,0,0,0,645.68,80h0a67.11,67.11,0,0,0,9.48-5.29,54.2,54.2,0,0,0-3.11-17c3.89-.17,11-.52,14.21-1.06,0,0,25.56-3.36,34.55,3.63l-.5.37a1.1,1.1,0,0,1,.09.14l.41-.51A12.47,12.47,0,0,1,701.59,65.39Z" transform="translate(-0.36 0.4)"/><path class="cls-3" d="M629.56,108.34c-24.26,5.31-40.09,4.88-40.09,4.88-31,.17-49-5.33-56.22-8.19l51.39-22.28s.69.37,1.88.86a37.21,37.21,0,0,0,4.73,1.6h0c.82.22,1.68.39,2.58.54A23.78,23.78,0,0,0,597,86a103.58,103.58,0,0,0,34-1.33c1.55-.31,3.15-.69,4.78-1.13Z" transform="translate(-0.36 0.4)"/><path class="cls-8" d="M585.71,126s1.86,6.52,5.69,7.44c0,0-5.4-.75-7.73-7.44" transform="translate(-0.36 0.4)"/><path class="cls-8" d="M662.54,120.66s-2.88-3.12-3.46-5.3c0,0,3.31,8.71.74,16.36C659.82,131.72,664.46,126.71,662.54,120.66Z" transform="translate(-0.36 0.4)"/><path class="cls-8" d="M654.06,118s1.24,15.38-7.56,20.92-.59-5.26-.59-5.26S653.84,131.22,654.06,118Z" transform="translate(-0.36 0.4)"/><path class="cls-8" d="M590.26,125.49s-1.2,5.54,7.19,7-7.54.38-5.39-8.16" transform="translate(-0.36 0.4)"/><path class="cls-2" d="M639.67,155.94s7.14,4.09,9.38,6.6l14.17,22.79s12.81,2.1,11.42,21.75c0,0-7.62,12.77-19.55,10.28,0,0-8.38,1.73-17.23-19.08a84,84,0,0,1-4.22-35.42Z" transform="translate(-0.36 0.4)"/><path class="cls-3" d="M663.22,185.33s6.85,13,3,17.41Z" transform="translate(-0.36 0.4)"/><path class="cls-3" d="M633.94,159.88s-5.86,14-1,26.21c0,0-6.17-8.28-2-23.51S633.94,159.88,633.94,159.88Z" transform="translate(-0.36 0.4)"/><path class="cls-3" d="M633,186.09s5.33,16.81,11.32,24c0,0,.19,2.4.35,7.56C644.64,217.68,638.46,208.53,633,186.09Z" transform="translate(-0.36 0.4)"/><path class="cls-3" d="M631.84,164.82s6-9.27,12-6.31l-5-3.43-4,1.24-1.91.1" transform="translate(-0.36 0.4)"/><path class="cls-3" d="M632.12,184.15s-5.69-4.49-7.34-9.58c0,0-1.52,3.78,0,5.38C624.78,180,629.38,184.14,632.12,184.15Z" transform="translate(-0.36 0.4)"/><path class="cls-3" d="M639,153.66c-.07.84-.18,2.45-.26,4.36L631,162.58s-8.81.2-12.23-1.08c0,0-17.21,23.09-17.15,44.49,0,0-17,24.5-35.69,38.06,1.2-2.1,2.42-4.19,3.57-6.22.9-1.56,1.76-3.09,2.54-4.57.1-.16.17-.32.26-.48h0c1.22-2.29,2.45-4.55,3.67-6.75h0c.51-.9,1-1.8,1.54-2.7.17-.3.34-.61.52-.91l.17-.28c.15-.27.31-.54.47-.81,0-.11.12-.22.18-.34q1.53-2.61,3-5.09h0l.05-.07c.94-1.57,1.86-3.09,2.77-4.53.26-.45.55-.9.81-1.31l1-1.6,2.62-4.07,2-8.32,2.44-10,1.5-6.17c-.31-.4.18-9.74-.06-10.19,0,0,1.34,1.41,1.36,1.41-2.34-4.54-4.9-3.74-5.1-3.68l6-10.5,0-.08.05-.08,2.61-4.55,4-7,.42-.72,5.49-2.29,2.42-1.33,1.69-.93,1.4.14,21.13,2.08-3.78.13a25.46,25.46,0,0,1-6.62,7.57C629.93,153.9,634.67,150.19,639,153.66Z" transform="translate(-0.36 0.4)"/><path class="cls-3" d="M602.74,248.87c-5.86-.76-19.62-.55-19.62-.55-9.91,3-10.62-2.88-10.62-2.88h0c-1.07-1.18-4-2.5-5.23-3l-.3-.13c.87-1.51,1.73-3,2.56-4.46s1.76-3.09,2.54-4.57c.1-.16.17-.32.26-.48h0c1.22-2.29,2.45-4.55,3.67-6.75h0c.07-.12.14-.23.2-.35a11,11,0,0,0,4,1.94,17.76,17.76,0,0,0-.07,3.73,3.31,3.31,0,0,0,.5,2,8.06,8.06,0,0,0,2.2,2.27,23.09,23.09,0,0,0,3.73,2.18C594.12,241.41,602.74,248.87,602.74,248.87Z" transform="translate(-0.36 0.4)"/><path class="cls-11" d="M597.62,148.52l.16.21.11-.07Z" transform="translate(-0.36 0.4)"/><path class="cls-12" d="M625.53,154.19c-4.78-.34-16.62-1.12-19.81-2a73.76,73.76,0,0,1-7.83-3.49l-.11.07c.85,1.05,7,7.3,19.5,9.92.5-.39,3.09-1.51,3.49-1.78A44,44,0,0,1,625.53,154.19Z" transform="translate(-0.36 0.4)"/><path class="cls-12" d="M596.42,153.52a9.11,9.11,0,0,1-.74,2.33c2.78,1.91,10.3,4.81,17.44,6.42,1.89-1.7,2.61-2.43,4.16-3.62-12.5-2.62-18.65-8.87-19.5-9.92a15.22,15.22,0,0,0-4.75,5,16.84,16.84,0,0,0,1.48,1.29C595.75,153,596.42,153.52,596.42,153.52Z" transform="translate(-0.36 0.4)"/><path class="cls-11" d="M561.17,211.86a29.56,29.56,0,0,0-.16,4.39c.1,1.45.66,7.93,2.92,9.29a1.92,1.92,0,0,1-.28,2.83s-2,3.7-2.63-11.62a24.16,24.16,0,0,1-.72,3.94s-2.32,5.55-1.16,9.29c3.12,1.22,9.87,2.39,21.19-2.54a8.79,8.79,0,0,0-.37-3.1h0a3.37,3.37,0,0,1-.49-2,20.38,20.38,0,0,1,.52-6.45l-.08,0S567.36,216.29,561.17,211.86Z" transform="translate(-0.36 0.4)"/><path class="cls-11" d="M577.15,180.29a51.48,51.48,0,0,0-4.32,4.36c2.58,2.1,10.23,5.65,19.23,7.59a76.9,76.9,0,0,1,4.71-11c-3.65-.68-11.69-2.6-15.41-5.18A28.6,28.6,0,0,1,577.15,180.29Z" transform="translate(-0.36 0.4)"/><path class="cls-11" d="M591.1,161.26a6.41,6.41,0,0,0,.29,1.64c.11-.38.23-.75.34-1.11C591.51,161.62,591.3,161.44,591.1,161.26Z" transform="translate(-0.36 0.4)"/><path class="cls-11" d="M608.25,166.81c-3.77-.74-12.69-2.17-16.23-4.79-.38.55-.63.88-.63.88s-2.49,3.58-5.51,7.53c2.58,1.57,9,3.81,14.27,5.15a26.63,26.63,0,0,1,3.81-4.32S606.88,168.12,608.25,166.81Z" transform="translate(-0.36 0.4)"/><path class="cls-12" d="M580.33,227.44c.56-.24,1.13-.5,1.71-.77l.13-.06a8.11,8.11,0,0,1-2.21-2.27h0A8.79,8.79,0,0,1,580.33,227.44Z" transform="translate(-0.36 0.4)"/><path class="cls-12" d="M579.76,234a55.64,55.64,0,0,1-8,2.47h0s.71,5.9,10.62,2.88c0,0,13.75-.21,19.62.55,0,0-8.62-7.46-16.16-11.1C583.15,231.33,579.76,234,579.76,234Z" transform="translate(-0.36 0.4)"/><path class="cls-12" d="M596.42,153.52s-.67-.53-1.91,1.48c.35.27.74.56,1.17.85A9.11,9.11,0,0,0,596.42,153.52Z" transform="translate(-0.36 0.4)"/><path class="cls-12" d="M591.73,161.79c-.11.36-.23.73-.34,1.11,0,0,.25-.33.63-.88Z" transform="translate(-0.36 0.4)"/><path class="cls-12" d="M561,216.25c0-.19,0-.3,0-.3,0,.28,0,.53,0,.8v-.09C561,216.53,561,216.39,561,216.25Z" transform="translate(-0.36 0.4)"/><path class="cls-12" d="M563.65,228.37a1.92,1.92,0,0,0,.28-2.83c-2.26-1.36-2.82-7.84-2.92-9.29,0,.14,0,.28,0,.41v.09C561.66,232.07,563.65,228.37,563.65,228.37Z" transform="translate(-0.36 0.4)"/><path class="cls-12" d="M583.94,201.14c-1.66,2.24-2.63,5.82-3.19,8.87l1.09.09C586.53,195.34,583.94,201.14,583.94,201.14Z" transform="translate(-0.36 0.4)"/><path class="cls-12" d="M585.77,197.16l-.36,0a15.14,15.14,0,0,0-.74,2.91A12,12,0,0,1,585.77,197.16Z" transform="translate(-0.36 0.4)"/><path class="cls-13" d="M594.51,155a16.84,16.84,0,0,1-1.48-1.29,11.89,11.89,0,0,0-.94,2.08,14.05,14.05,0,0,0-1,5.47c.2.18.41.36.63.53A30.86,30.86,0,0,1,594.51,155Z" transform="translate(-0.36 0.4)"/><path class="cls-13" d="M592,162c3.54,2.62,12.46,4,16.23,4.79,1.48-1.4,2.81-2.69,4.87-4.54-7.14-1.61-14.66-4.51-17.44-6.42A38.92,38.92,0,0,1,592,162Z" transform="translate(-0.36 0.4)"/><path class="cls-14" d="M594.51,155a30.86,30.86,0,0,0-2.78,6.79l.29.23a38.92,38.92,0,0,0,3.66-6.17C595.25,155.56,594.86,155.27,594.51,155Z" transform="translate(-0.36 0.4)"/><path class="cls-13" d="M581.36,176.06c3.72,2.58,11.76,4.5,15.41,5.18a60.75,60.75,0,0,1,3.38-5.66c-5.32-1.34-11.69-3.58-14.27-5.15C584.42,172.34,582.84,174.33,581.36,176.06Z" transform="translate(-0.36 0.4)"/><path class="cls-13" d="M568.6,190c3.71,4.54,12.55,6.45,16.81,7.12.34-.87.81-1.65,1.44-1.81a18.14,18.14,0,0,0-1.08,1.86c1.1.17,3.46.72,3.6.74.36-1.39,1.89-3.31,2.69-5.66-9-1.94-16.65-5.49-19.23-7.59A56.67,56.67,0,0,0,568.6,190Z" transform="translate(-0.36 0.4)"/><path class="cls-14" d="M586.85,195.3c-.63.16-1.1.94-1.44,1.81l.36,0A18.14,18.14,0,0,1,586.85,195.3Z" transform="translate(-0.36 0.4)"/><path class="cls-14" d="M581.15,212.27c.28-.7.61-1.42,1-2.15l-.3,0C581.63,210.78,581.39,211.5,581.15,212.27Z" transform="translate(-0.36 0.4)"/><path class="cls-13" d="M580,215.7a49.76,49.76,0,0,1,.72-5.69c-10.79-1-16.23-4.14-18.45-5.86,0,.14,0,.28-.08.42s-.7,3.68-1.05,7.29c6.19,4.43,18.74,4.06,18.74,4.06l.08,0c0-.07,0-.14,0-.21Z" transform="translate(-0.36 0.4)"/><path class="cls-14" d="M581.15,212.27a22.9,22.9,0,0,0-1.11,3.42C580.44,214.46,580.81,213.33,581.15,212.27Z" transform="translate(-0.36 0.4)"/><path class="cls-14" d="M580,215.7h0a22.9,22.9,0,0,1,1.11-3.42c.24-.77.48-1.49.69-2.17l-1.09-.09A49.76,49.76,0,0,0,580,215.7Z" transform="translate(-0.36 0.4)"/><path class="cls-13" d="M566,233.19l.59.25c11.28,1.51,13.54-2.8,13.75-6-11.32,4.93-18.07,3.76-21.19,2.54.06.18.11.36.19.54A12.84,12.84,0,0,0,566,233.19Z" transform="translate(-0.36 0.4)"/><path class="cls-14" d="M580.33,227.44c-.21,3.2-2.47,7.51-13.75,6,1.25.52,4.16,1.84,5.23,3a55.64,55.64,0,0,0,8-2.47s3.39-2.66,6.14-5.2a23.09,23.09,0,0,1-3.73-2.18l-.13.06C581.46,226.94,580.89,227.2,580.33,227.44Z" transform="translate(-0.36 0.4)"/><path class="cls-11" d="M589.37,197.9c-.14,0-2.5-.57-3.6-.74a12,12,0,0,0-1.1,2.86,15.14,15.14,0,0,1,.74-2.91c-4.26-.67-13.1-2.58-16.81-7.12a37.11,37.11,0,0,0-6.3,14.16c2.22,1.72,7.66,4.89,18.45,5.86.56-3,1.53-6.63,3.19-8.87,0,0,2.59-5.8-2.1,9l.3,0a26.13,26.13,0,0,1,1.52-2.5h0Z" transform="translate(-0.36 0.4)"/><path class="cls-15" d="M646.71,149.68l-.2.2a.47.47,0,0,0-.1-.1Z" transform="translate(-0.36 0.4)"/><path class="cls-16" d="M622.61,151.45c4.9.48,11.94,1,15.33.62a70.8,70.8,0,0,0,8.47-2.29.47.47,0,0,1,.1.1c-1,1-6.2,5.12-19.29,5.68-.44-.49-.86-.92-1.23-1.28A27.58,27.58,0,0,0,622.61,151.45Z" transform="translate(-0.36 0.4)"/><path class="cls-17" d="M594.67,139.46c0-.09,0-.17,0-.26h0C594.68,139.29,594.68,139.37,594.67,139.46Z" transform="translate(-0.36 0.4)"/><path class="cls-17" d="M594.25,146.34c.06.27.11.5.17.71C594.36,146.84,594.31,146.6,594.25,146.34Z" transform="translate(-0.36 0.4)"/><path class="cls-17" d="M593.89,143.66c0,.26.07.48.11.7C594,144.14,593.92,143.92,593.89,143.66Z" transform="translate(-0.36 0.4)"/><path class="cls-17" d="M594.86,137.88c0-.2.06-.39.1-.59C594.92,137.49,594.9,137.68,594.86,137.88Z" transform="translate(-0.36 0.4)"/><path class="cls-17" d="M595.21,134.94c0-.18.08-.36.13-.55C595.29,134.58,595.26,134.76,595.21,134.94Z" transform="translate(-0.36 0.4)"/><path class="cls-17" d="M593.79,141.38c0,.22,0,.42,0,.63C593.79,141.8,593.78,141.6,593.79,141.38Z" transform="translate(-0.36 0.4)"/><path class="cls-17" d="M593.8,142.61c0,.24,0,.45.05.67C593.83,143.06,593.81,142.85,593.8,142.61Z" transform="translate(-0.36 0.4)"/><path class="cls-13" d="M649.94,144.38c0-.6,0-1,0-1a6.5,6.5,0,0,0,.21-1.85c-.14-3.51-4.08-3-4.08-3a39,39,0,0,1-.48,11.59,62.65,62.65,0,0,1,4.35-6.76,11.06,11.06,0,0,1-4.53,7.67c-.13.59,0,2.65-.17,3.26,2.17-2.08,3.54-3.59,3.54-3.59C649.85,149.57,649.87,145.74,649.94,144.38Z" transform="translate(-0.36 0.4)"/><polygon class="cls-12" points="591.71 138.85 591.71 138.85 591.71 138.85 591.71 138.85"/><path class="cls-12" d="M594.69,139.2h0c0-.11,0-.22,0-.34C594.7,139,594.7,139.09,594.69,139.2Z" transform="translate(-0.36 0.4)"/><path class="cls-14" d="M650,143.36a62.65,62.65,0,0,0-4.35,6.76c-.05.3-.12.6-.18.91A11.06,11.06,0,0,0,650,143.36Z" transform="translate(-0.36 0.4)"/><path class="cls-11" d="M613.27,150.12a15.12,15.12,0,0,0-10.2,3.86c2.75,2,9.06,1.89,13.94,4C614.82,154.67,613.34,152.71,613.27,150.12Z" transform="translate(-0.36 0.4)"/><path class="cls-12" d="M613.29,148.05c-.53.13-1.08.27-1.63.43a27.48,27.48,0,0,0-8.59,5.5,15.12,15.12,0,0,1,10.2-3.86C613.23,148.87,613.29,148.05,613.29,148.05Z" transform="translate(-0.36 0.4)"/><path class="cls-11" d="M619.1,146.18c.06.23.11.47.18.69l-.15,0,.31,0a7,7,0,0,1,0-.81Z" transform="translate(-0.36 0.4)"/><path class="cls-14" d="M619.13,146.89c-.61.09-3,.46-5.84,1.16,0,0-.06.82,0,2.07a28.53,28.53,0,0,1,6.71.64,16.56,16.56,0,0,1-.54-3.89Z" transform="translate(-0.36 0.4)"/><path class="cls-12" d="M631.67,151l-2.07-1.42a20.42,20.42,0,0,0-10.16-2.66,16.56,16.56,0,0,0,.54,3.89,38.64,38.64,0,0,1,7.85,2.54c2.95,1.5,4.55,1.63,5.42,1.28A21.16,21.16,0,0,0,631.67,151Z" transform="translate(-0.36 0.4)"/><path class="cls-13" d="M631.67,151l1.09.63a27.24,27.24,0,0,0-3.16-2.05l2.07,1.42Z" transform="translate(-0.36 0.4)"/><path class="cls-13" d="M638.12,136.69a49.74,49.74,0,0,1-6.6-.34c-.23,5.29-.79,11-2.12,13.05l.2.13a27.24,27.24,0,0,1,3.16,2.05c1.76,1,3.18,1.95,4.23,2.67.24-1.73,1-7.36,1.39-13.18a5,5,0,0,1-1-.72S636.67,137.76,638.12,136.69Z" transform="translate(-0.36 0.4)"/><path class="cls-14" d="M638.12,136.69c-1.45,1.07-.75,3.66-.75,3.66a5,5,0,0,0,1,.72c.1-1.47.18-3,.22-4.39Z" transform="translate(-0.36 0.4)"/><path class="cls-14" d="M633.25,154.58a1.75,1.75,0,0,0,1-1.82c-.85-.6-1.77-1.25-2.59-1.81A21.16,21.16,0,0,1,633.25,154.58Z" transform="translate(-0.36 0.4)"/><path class="cls-13" d="M637,154.25l-.08.54a22.34,22.34,0,0,0-2.65-2,1.75,1.75,0,0,1-1,1.82,9.56,9.56,0,0,1,.69,5.3c1.77-1.08,3.68-.71,5.31-2l-.13-2.08S638.38,155.2,637,154.25Z" transform="translate(-0.36 0.4)"/><path class="cls-13" d="M632.76,151.58l-1.09-.63h0c.82.56,1.74,1.21,2.59,1.81h0C633.76,152.33,633.26,152,632.76,151.58Z" transform="translate(-0.36 0.4)"/><path class="cls-12" d="M602.89,131.08l1.89-.16-2.12.17Z" transform="translate(-0.36 0.4)"/><path class="cls-11" d="M598.72,151.58h0c1.3,1.27,3.27,1.56,4.35,2.4,0,0-1.89-3-4.13-6.41C599,148.59,598.5,150.56,598.72,151.58Z" transform="translate(-0.36 0.4)"/><path class="cls-11" d="M611.61,148.49a59.86,59.86,0,0,1,2.17-17.28c-1.61-.3-3.26-.53-4.85-.69-1.52.16-2.94.3-4.14.4h0l-1.89.16h0a35.23,35.23,0,0,0-3.91,13,3,3,0,0,1,.46.94s4.06,7,3.63,8.93a27.48,27.48,0,0,1,8.59-5.5Z" transform="translate(-0.36 0.4)"/><path class="cls-12" d="M599.44,145.05a3,3,0,0,0-.46-.94,24.9,24.9,0,0,0,0,3.46c2.24,3.39,4.13,6.41,4.13,6.41C603.5,152.07,599.44,145.05,599.44,145.05Z" transform="translate(-0.36 0.4)"/><path class="cls-11" d="M594.42,147.05c-.06-.21-.11-.44-.17-.71,0-.05-.24-1.92-.25-2,0-.22-.08-.44-.11-.7s0-.25,0-.38,0-.43-.05-.67,0-.4,0-.6,0-.41,0-.63.86-1.65.88-1.92c0-.09,0-.17,0-.26-.78-1-2.24-.55-2.62-.76-.12,1.68,2.34,8.71,2.34,8.71v-.1Z" transform="translate(-0.36 0.4)"/><path class="cls-12" d="M594.72,138.86c0-.11,0-.22,0-.32a3.33,3.33,0,0,0-2.69-.1h0c.38.21,1.84-.22,2.62.76C594.7,139.09,594.7,139,594.72,138.86Z" transform="translate(-0.36 0.4)"/><polygon class="cls-13" points="604.42 131.32 604.42 131.32 604.41 131.32 604.42 131.32"/><path class="cls-13" d="M602.66,131.09l-1.56.12,1.79-.13Z" transform="translate(-0.36 0.4)"/><path class="cls-13" d="M601.1,131.14v.07l0-.07Z" transform="translate(-0.36 0.4)"/><path class="cls-13" d="M601.13,131.14l0,.07a.91.91,0,0,1,.14-.07Z" transform="translate(-0.36 0.4)"/><path class="cls-13" d="M601.24,131.14a.91.91,0,0,0-.14.07l1.56-.12Z" transform="translate(-0.36 0.4)"/><path class="cls-13" d="M634.26,152.76h0a22.34,22.34,0,0,1,2.65,2l.08-.54c-1-.72-2.47-1.64-4.23-2.67C633.26,152,633.76,152.33,634.26,152.76Z" transform="translate(-0.36 0.4)"/><path class="cls-13" d="M613.27,150.12c.07,2.59,1.55,4.55,3.74,7.81h0c1.58.67,3.12,1.29,4.52,1.85,1.8.72,3.19-.3,4.29.11-1.17-2.48-4.68-4.31-5.84-9.13A28.53,28.53,0,0,0,613.27,150.12Z" transform="translate(-0.36 0.4)"/><polygon class="cls-13" points="616.65 158.33 616.65 158.33 616.65 158.33 616.65 158.33"/><path class="cls-13" d="M615.8,147.24a23,23,0,0,0-4.14,1.24c.55-.16,1.1-.3,1.63-.43h0Z" transform="translate(-0.36 0.4)"/><path class="cls-18" d="M619.1,146.18l-3.3,1.06a21,21,0,0,1,3.33-.35l.15,0C619.21,146.65,619.16,146.41,619.1,146.18Z" transform="translate(-0.36 0.4)"/><path class="cls-18" d="M615.8,147.24l-2.51.81h0c2.86-.7,5.23-1.07,5.84-1.16A21,21,0,0,0,615.8,147.24Z" transform="translate(-0.36 0.4)"/><path class="cls-13" d="M619.1,146.18c-.85-3.5.21-9,1.28-13a27.6,27.6,0,0,0-6.6-1.95,59.86,59.86,0,0,0-2.17,17.28h0a23,23,0,0,1,4.14-1.24Z" transform="translate(-0.36 0.4)"/><path class="cls-11" d="M645.19,151.18a5.22,5.22,0,0,1,.42-1.06,39,39,0,0,0,.48-11.59s-4,4.64-7.71,2.54c-.4,5.82-1.15,11.45-1.39,13.18,1.39.95,2.13,1.54,2.13,1.54l.13,2.08c.92-.73,2.12-1.21,3-1.93,1.15-1,2.15-.77,3.06-1.65.16-.61,0-2.67.17-3.26Z" transform="translate(-0.36 0.4)"/><path class="cls-12" d="M638.6,136.68c0,1.43-.12,2.92-.22,4.39,3.73,2.1,7.71-2.54,7.71-2.54a19.8,19.8,0,0,0-5-2.12A17.93,17.93,0,0,1,638.6,136.68Z" transform="translate(-0.36 0.4)"/><path class="cls-12" d="M645.43,151c.06-.31.13-.61.18-.91a5.22,5.22,0,0,0-.42,1.06Z" transform="translate(-0.36 0.4)"/><path class="cls-13" d="M598.94,147.57c-1.72-2.61-2.82-6.55-4.25-8.37,0,.09,0,.17,0,.26,0,.27-.88,1.67-.88,1.92s0,.42,0,.63,0,.41,0,.6,0,.45.05.67,0,.26,0,.38.07.48.11.7c0,.06.24,1.93.25,2,.06.26,0,.29.1.5l0,.15,0,.16.29.31c.73.79,1.91,2.08,4,4.12h0C598.5,150.56,599,148.59,598.94,147.57Z" transform="translate(-0.36 0.4)"/><path class="cls-14" d="M594.72,138.86c0,.12,0,.23,0,.34,1.43,1.82,2.53,5.76,4.25,8.37a24.9,24.9,0,0,1,0-3.46c-1-1.51-2.54-4.41-4.22-5.57C594.75,138.64,594.73,138.76,594.72,138.86Z" transform="translate(-0.36 0.4)"/><path class="cls-13" d="M593.85,143.28c0,.13,0,.26,0,.38C593.87,143.54,593.86,143.41,593.85,143.28Z" transform="translate(-0.36 0.4)"/><path class="cls-13" d="M594.86,137.88c0,.22-.07.45-.1.66h0C594.79,138.33,594.83,138.1,594.86,137.88Z" transform="translate(-0.36 0.4)"/><path class="cls-13" d="M593.79,142c0,.2,0,.41,0,.6C593.79,142.42,593.79,142.21,593.79,142Z" transform="translate(-0.36 0.4)"/><path class="cls-13" d="M594.41,147.15" transform="translate(-0.36 0.4)"/><path class="cls-13" d="M594,144.36c0,.06.24,1.93.25,2S594,144.42,594,144.36Z" transform="translate(-0.36 0.4)"/><path class="cls-13" d="M595,137.29c.07-.38.15-1.95.25-2.35C595.11,135.34,595,136.91,595,137.29Z" transform="translate(-0.36 0.4)"/><path class="cls-13" d="M594.67,139.46c0,.27-.88,1.67-.88,1.92C593.79,141.13,594.65,139.73,594.67,139.46Z" transform="translate(-0.36 0.4)"/><path class="cls-13" d="M594.76,138.54c0,.1,0,.21,0,.32,0-.1,0-.22,0-.32Z" transform="translate(-0.36 0.4)"/><path class="cls-11" d="M631.52,136.35l-1.66-.19a46.79,46.79,0,0,1-8-2.19h0a11.44,11.44,0,0,0-1.47-.82c-1.07,4-2.13,9.52-1.28,13l.37-.12a7,7,0,0,0,0,.81,20.42,20.42,0,0,1,10.16,2.66l-.2-.13C630.73,147.3,631.29,141.64,631.52,136.35Z" transform="translate(-0.36 0.4)"/><path class="cls-11" d="M633.94,159.88a9.56,9.56,0,0,0-.69-5.3c-.87.35-2.47.22-5.42-1.28a38.64,38.64,0,0,0-7.85-2.54c1.16,4.82,4.67,6.65,5.84,9.13a1,1,0,0,0,.51.06C627.73,160.11,631.69,160.46,633.94,159.88Z" transform="translate(-0.36 0.4)"/><path class="cls-13" d="M594.24,146.29a6.88,6.88,0,0,0,.17.86l.14-.12Z" transform="translate(-0.36 0.4)"/><path class="cls-13" d="M602.88,131.08h-.23a12.19,12.19,0,0,0-5.58.67c-.13.05-.22.11-.25.11l0,0a3.88,3.88,0,0,0-.85.61c-.24.63-.41,1.24-.58,1.81l0,.08c-.05.19-.09.36-.13.55-.11.41-.19,2-.26,2.34,0,.22-.05.4-.08.6s-.07.44-.11.66c1.68,1.15,3.19,4.05,4.22,5.56A35.32,35.32,0,0,1,602.88,131.08Z" transform="translate(-0.36 0.4)"/><path class="cls-11" d="M594.31,134.53a32.87,32.87,0,0,0-2.24,3.91,3.29,3.29,0,0,1,2.69.1c0-.22.07-.44.11-.66s0-.38.08-.6c.07-.37.15-1.93.26-2.34,0-.19.08-.36.13-.55l0-.08c.17-.57.34-1.18.58-1.81A13.3,13.3,0,0,0,594.31,134.53Z" transform="translate(-0.36 0.4)"/><path class="cls-19" d="M701.59,65.39a12.47,12.47,0,0,0-.79-5.13l-.41.51a1.1,1.1,0,0,0-.09-.14l.5-.37c-9-7-34.55-3.63-34.55-3.63-3.25.54-10.32.89-14.2,1.06a66.31,66.31,0,0,0-3.94-9.29c-7.88-15.22-24.56-33-59.85-41.55,0,0-44.56-11.94-52.88,21.57a10,10,0,0,0,.11,3.78s1.18,1,1.29-.36a16.47,16.47,0,0,1,3.71-7.74c9-8.61,17.28-5.94,18.29-5.57,5.74,2.36,13,8.85,17.54,25.86,0,0,2,7.92,4.07,16.61.7,3,1.4,6,2,8.92h0A223.61,223.61,0,0,0,560.21,76c-40.14,13.34-33.76,24.29-33.76,24.29a6.28,6.28,0,0,0,3,3l0,0,.06,0c.33.17,1.53.78,3.67,1.64,6.57,2.6,22,7.37,48,8.1a35.66,35.66,0,0,0-1.75,13.47,20.13,20.13,0,0,0,.92,4.53,14,14,0,0,1,.29-4.42,16.56,16.56,0,0,1,1.62-4.44,20.94,20.94,0,0,0,1.33,3.71h0c2.33,6.69,7.73,7.44,7.73,7.44l-.06,0a8.84,8.84,0,0,0,3,.23l.53.06c-.2.27-.41.55-.6.84a32.87,32.87,0,0,0-2.24,3.91h0c-.12,1.67,2.34,8.7,2.34,8.7l.29.31c.45.49,1.08,1.16,2,2.09a14.52,14.52,0,0,0-3.65,4.16,11.89,11.89,0,0,0-.94,2.08,14.05,14.05,0,0,0-1,5.47,6.41,6.41,0,0,0,.29,1.64s-2.49,3.58-5.51,7.53c-1.46,1.91-3,3.9-4.52,5.63a28.6,28.6,0,0,1-4.21,4.23,51.48,51.48,0,0,0-4.32,4.36A56.67,56.67,0,0,0,568.6,190h0a37.11,37.11,0,0,0-6.3,14.16h0c0,.14,0,.28-.08.42s-.7,3.68-1.05,7.29a29.56,29.56,0,0,0-.16,4.39c0-.19,0-.3,0-.3,0,.28,0,.53,0,.8a24.16,24.16,0,0,1-.72,3.94s-2.32,5.55-1.16,9.29c.06.18.11.36.19.54a12.84,12.84,0,0,0,6.66,2.67l.59.25a26.57,26.57,0,0,1,4.2,2.17l-1.26,2.22c-.83,1.46-1.69,2.95-2.56,4.46l-1,1.76c-.41.73-.83,1.46-1.23,2.2l-1.19,2.11h0a82.85,82.85,0,0,0-5.73,12.27s9,12.14,27.66,20.83a90.17,90.17,0,0,0,14.46,5.23c-.07,1.7-.17,3.71-.34,5.48-.06.69-.13,1.35-.21,1.93,0,.14,0,.28-.06.41s-.08.63-.24,1.71a2.42,2.42,0,0,1,0,.25c-.81,5.89-2.93,20.92-1.9,27.26l-.21.07L595.5,325l-2.14,4.28a7.33,7.33,0,0,0,.08,4.48,4.17,4.17,0,0,0,.67,1.16,7.15,7.15,0,0,0,2.2,2,19.45,19.45,0,0,0,8.69,2.56,18.88,18.88,0,0,0,7-1.32h0c2.38-1.06,4.31-3,3.7-6.47-.68-3.91-6.16-6.31-6.46-6.37h0a24,24,0,0,0-3.56-1.15c.44-4.71,1.79-17.52,3.72-21.78,0,0,.38-1.48.93-3.82.22-1,.47-2.09.74-3.31.09-.44.2-.91.29-1.37.23-1.12.47-2.28.7-3.51l.21-1.16.28,0c1.36.18,2.74.33,4.16.45,0,0,1.1.08,2.88.08.23,1.41.47,2.93.63,4.33h0c0,.25,0,.48.08.72l0,.28c0,.32.06.63.08.92l0,.41s0,.64.12,1.73c0,.37,0,.78.09,1.23.46,6.24,1.48,19.39,3.53,25.39l-1.06,1.42-1.06,6.09a4.5,4.5,0,0,0,.66,3.5,6.91,6.91,0,0,0,5.1,3.18,21.78,21.78,0,0,0,3.45.46h.2c6.39.36,9.89-2.23,11.84-4.14l0,0a8.19,8.19,0,0,0,2.17-3.42h0c.05-.16.07-.25.07-.25a5.63,5.63,0,0,0-.26-1.37c-.6-1.92-2.5-4.67-9.06-6.2a22.73,22.73,0,0,0-3.41-.12c-.55-4.63-1.93-17.58-.94-22.22,0,0,.06-1.23.09-3.22,0-1.15.05-2.56.06-4.12,0-.45,0-.93,0-1.4l-.15,0,.15,0v-.74c0-.92,0-1.86-.05-2.84,0-.28,0-.57,0-.85a36.87,36.87,0,0,0,3.67-1c1.11-.36,6.23-2.38,7.93-4.19,0,0,2.17-35.38,1-65.61h0c-.16-5.16-.35-7.56-.35-7.56h0V210c6.1,8.31,10.82,7.33,10.82,7.33,11.93,2.49,19.55-10.28,19.55-10.28a29.44,29.44,0,0,0-1.27-11.87l.1.14a7.3,7.3,0,0,0,2.68-.56,5.7,5.7,0,0,0,1.86-1.28,5.76,5.76,0,0,0,1.33-2.08,3.41,3.41,0,0,0,1-2.05c1.5-1.93.34-3.24.34-3.24-2.92-1.55-6.55.06-8.53,1.22l-.05,0h0l-2.31,1.85a13,13,0,0,0-6.61-3.9l-14.17-22.79a30.23,30.23,0,0,0-5.21-4h0l-2.69-1.85a6.7,6.7,0,0,0,1.05-.72c1.15-1,2.15-.77,3.06-1.65,2.17-2.08,3.54-3.59,3.54-3.59,1.05-1.13,1.07-5,1.14-6.32,0-.6,0-1,0-1a6.5,6.5,0,0,0,.21-1.85,3.2,3.2,0,0,0-.45-1.61l2,.22a32.69,32.69,0,0,0,8.11-8.41h0s4.64-5,2.72-11.06c0,0,6.33,4.62.79,18.14,0,0,13.26-9.9,3.46-24.46-.29-.44-.6-.87-.93-1.31,0,0-5.82-9.51-7.45-14.74,4.9-2,9.84-4.16,14.31-6.39C698.5,79.78,701.39,72.08,701.59,65.39ZM645.67,80h0ZM591.18,196l-2,8.32-2.62,4.07-1,1.6c-.26.41-.55.86-.81,1.31-.91,1.44-1.83,3-2.77,4.53l-.05.07h0q-1.23,2-2.49,4.17a23.68,23.68,0,0,1,.57-4.15c0-.07,0-.14,0-.21.4-1.23.77-2.36,1.11-3.42.28-.7.61-1.42,1-2.15l-.3,0,.3,0a26.13,26.13,0,0,1,1.52-2.5h0l5.71-9.72c.36-1.39,1.89-3.31,2.69-5.66,0-.08.06-.16.08-.23Z" transform="translate(-0.36 0.4)"/><path class="cls-20" d="M701.59,65.39a12.47,12.47,0,0,0-.79-5.13l-.41.51a1.1,1.1,0,0,0-.09-.14l.5-.37c-9-7-34.55-3.63-34.55-3.63-3.25.54-10.32.89-14.2,1.06a66.31,66.31,0,0,0-3.94-9.29c-7.88-15.22-24.56-33-59.85-41.55,0,0-44.56-11.94-52.88,21.57a10,10,0,0,0,.11,3.78s1.18,1,1.29-.36a16.47,16.47,0,0,1,3.71-7.74c9-8.61,17.28-5.94,18.29-5.57,5.74,2.36,13,8.85,17.54,25.86,0,0,2,7.92,4.07,16.61.7,3,1.4,6,2,8.92h0A223.61,223.61,0,0,0,560.21,76c-40.14,13.34-33.76,24.29-33.76,24.29a6.28,6.28,0,0,0,3,3l0,0,.06,0c.33.17,1.53.78,3.67,1.64,6.57,2.6,22,7.37,48,8.1a35.66,35.66,0,0,0-1.75,13.47,20.13,20.13,0,0,0,.92,4.53,14,14,0,0,1,.29-4.42,16.56,16.56,0,0,1,1.62-4.44,20.94,20.94,0,0,0,1.33,3.71h0c2.33,6.69,7.73,7.44,7.73,7.44l-.06,0a8.84,8.84,0,0,0,3,.23l.53.06c-.2.27-.41.55-.6.84a32.87,32.87,0,0,0-2.24,3.91h0c-.12,1.67,2.34,8.7,2.34,8.7l.29.31c.45.49,1.08,1.16,2,2.09a14.52,14.52,0,0,0-3.65,4.16,11.89,11.89,0,0,0-.94,2.08,14.05,14.05,0,0,0-1,5.47,6.41,6.41,0,0,0,.29,1.64s-2.49,3.58-5.51,7.53c-1.46,1.91-3,3.9-4.52,5.63a28.6,28.6,0,0,1-4.21,4.23,51.48,51.48,0,0,0-4.32,4.36A56.67,56.67,0,0,0,568.6,190h0a37.11,37.11,0,0,0-6.3,14.16h0c0,.14,0,.28-.08.42s-.7,3.68-1.05,7.29a29.56,29.56,0,0,0-.16,4.39c0-.19,0-.3,0-.3,0,.28,0,.53,0,.8a24.16,24.16,0,0,1-.72,3.94s-2.32,5.55-1.16,9.29c.06.18.11.36.19.54a12.84,12.84,0,0,0,6.66,2.67l.59.25a26.57,26.57,0,0,1,4.2,2.17l-1.26,2.22c-.83,1.46-1.69,2.95-2.56,4.46l-1,1.76c-.41.73-.83,1.46-1.23,2.2l-1.19,2.11h0a82.85,82.85,0,0,0-5.73,12.27s9,12.14,27.66,20.83a90.17,90.17,0,0,0,14.46,5.23c-.07,1.7-.17,3.71-.34,5.48-.06.69-.13,1.35-.21,1.93,0,.14,0,.28-.06.41s-.08.63-.24,1.71a2.42,2.42,0,0,1,0,.25c-.81,5.89-2.93,20.92-1.9,27.26l-.21.07L595.5,325l-2.14,4.28a7.33,7.33,0,0,0,.08,4.48,4.17,4.17,0,0,0,.67,1.16,7.15,7.15,0,0,0,2.2,2,19.45,19.45,0,0,0,8.69,2.56,18.88,18.88,0,0,0,7-1.32h0c2.38-1.06,4.31-3,3.7-6.47-.68-3.91-6.16-6.31-6.46-6.37h0a24,24,0,0,0-3.56-1.15c.44-4.71,1.79-17.52,3.72-21.78,0,0,.38-1.48.93-3.82.22-1,.47-2.09.74-3.31.09-.44.2-.91.29-1.37.23-1.12.47-2.28.7-3.51l.21-1.16.28,0c1.36.18,2.74.33,4.16.45,0,0,1.1.08,2.88.08.23,1.41.47,2.93.63,4.33h0c0,.25,0,.48.08.72l0,.28c0,.32.06.63.08.92l0,.41s0,.64.12,1.73c0,.37,0,.78.09,1.23.46,6.24,1.48,19.39,3.53,25.39l-1.06,1.42-1.06,6.09a4.5,4.5,0,0,0,.66,3.5,6.91,6.91,0,0,0,5.1,3.18,21.78,21.78,0,0,0,3.45.46h.2c6.39.36,9.89-2.23,11.84-4.14l0,0a8.19,8.19,0,0,0,2.17-3.42h0c.05-.16.07-.25.07-.25a5.63,5.63,0,0,0-.26-1.37c-.6-1.92-2.5-4.67-9.06-6.2a22.73,22.73,0,0,0-3.41-.12c-.55-4.63-1.93-17.58-.94-22.22,0,0,.06-1.23.09-3.22,0-1.15.05-2.56.06-4.12,0-.45,0-.93,0-1.4l-.15,0,.15,0v-.74c0-.92,0-1.86-.05-2.84,0-.28,0-.57,0-.85a36.87,36.87,0,0,0,3.67-1c1.11-.36,6.23-2.38,7.93-4.19,0,0,2.17-35.38,1-65.61h0c-.16-5.16-.35-7.56-.35-7.56h0V210c6.1,8.31,10.82,7.33,10.82,7.33,11.93,2.49,19.55-10.28,19.55-10.28a29.44,29.44,0,0,0-1.27-11.87l.1.14a7.3,7.3,0,0,0,2.68-.56,5.7,5.7,0,0,0,1.86-1.28,5.76,5.76,0,0,0,1.33-2.08,3.41,3.41,0,0,0,1-2.05c1.5-1.93.34-3.24.34-3.24-2.92-1.55-6.55.06-8.53,1.22l-.05,0h0l-2.31,1.85a13,13,0,0,0-6.61-3.9l-14.17-22.79a30.23,30.23,0,0,0-5.21-4h0l-2.69-1.85a6.7,6.7,0,0,0,1.05-.72c1.15-1,2.15-.77,3.06-1.65,2.17-2.08,3.54-3.59,3.54-3.59,1.05-1.13,1.07-5,1.14-6.32,0-.6,0-1,0-1a6.5,6.5,0,0,0,.21-1.85,3.2,3.2,0,0,0-.45-1.61l2,.22a32.69,32.69,0,0,0,8.11-8.41h0s4.64-5,2.72-11.06c0,0,6.33,4.62.79,18.14,0,0,13.26-9.9,3.46-24.46-.29-.44-.6-.87-.93-1.31,0,0-5.82-9.51-7.45-14.74,4.9-2,9.84-4.16,14.31-6.39C698.5,79.78,701.39,72.08,701.59,65.39ZM645.67,80h0ZM591.18,196l-2,8.32-2.62,4.07-1,1.6c-.26.41-.55.86-.81,1.31-.91,1.44-1.83,3-2.77,4.53l-.05.07h0q-1.23,2-2.49,4.17a23.68,23.68,0,0,1,.57-4.15c0-.07,0-.14,0-.21.4-1.23.77-2.36,1.11-3.42.28-.7.61-1.42,1-2.15l-.3,0,.3,0a26.13,26.13,0,0,1,1.52-2.5h0l5.71-9.72c.36-1.39,1.89-3.31,2.69-5.66,0-.08.06-.16.08-.23Z" transform="translate(-0.36 0.4)"/><rect class="cls-21" height="30"/><rect class="cls-21" x="758" y="302" height="39"/></g></g></svg>