<svg xmlns="http://www.w3.org/2000/svg" xmlns:xlink="http://www.w3.org/1999/xlink" viewBox="0 0 758.36 341"><defs><style>.cls-1{isolation:isolate;}.cls-2{fill:none;}.cls-3{fill:#8a5330;}.cls-4{fill:#f6d6b2;}.cls-5{fill:#704126;}.cls-6{fill:#59321e;}.cls-7{fill:#e2ac6e;}.cls-8{fill:#cc6335;}.cls-9{fill:#9d4b31;}.cls-10{fill:#e39b1d;}.cls-11{fill:#d2772a;}.cls-12{fill:#984934;}.cls-13{fill:#7f3526;}.cls-14{fill:#90654c;}.cls-15{fill:#a18046;}.cls-16{fill:#b7a238;}.cls-17{fill:#f9d9b5;}.cls-18{fill:#e5af6e;}.cls-19{fill:#f9dab6;}.cls-20{fill:#7f492b;}.cls-21{fill:#6b3822;}.cls-22{fill:#9e3089;}.cls-23{fill:#bc40a1;}.cls-24{fill:#d860c1;}.cls-25{fill:url(#linear-gradient);}.cls-26{fill:#9b4934;}.cls-27{fill:#d5772a;}.cls-28{fill:#e69e1d;}.cls-29{fill:#913a30;}.cls-30{fill:#cf6335;}.cls-31{fill:#6b3c22;}.cls-32{mix-blend-mode:overlay;fill:url(#linear-gradient-2);}.cls-33{fill:#564339;opacity:0.5;mix-blend-mode:multiply;}.cls-34{fill:#fff;}</style><linearGradient id="linear-gradient" x1="-25.11" y1="60.73" x2="107.19" y2="29.88" gradientTransform="translate(27.24 45.84) rotate(7.02)" gradientUnits="userSpaceOnUse"><stop offset="0" stop-color="#90654c"/><stop offset="0.67" stop-color="#8a5330"/><stop offset="1" stop-color="#6d4530"/></linearGradient><linearGradient id="linear-gradient-2" x1="26.96" y1="111.4" x2="153.94" y2="210.89" gradientUnits="userSpaceOnUse"><stop offset="0" stop-color="#f2deb6" stop-opacity="0"/><stop offset="0.99" stop-color="#f4e9d7" stop-opacity="0.6"/><stop offset="1" stop-color="#c7e1b7" stop-opacity="0.8"/></linearGradient></defs><title>character9_4</title><g class="cls-1"><g id="Layer_1" data-name="Layer 1"><path class="cls-2" d="M103.59,319.82A9.65,9.65,0,0,1,102,321.6l2.54.16C104.27,321.15,104,320.52,103.59,319.82Z" transform="translate(0 0.4)"/><path class="cls-2" d="M100.75,322.53A7.55,7.55,0,0,1,96,323.59a13.9,13.9,0,0,0,1.51,2.8Z" transform="translate(0 0.4)"/><path class="cls-3" d="M105.83,321.83a19.59,19.59,0,0,1-1-2.19l-1.5-1.7c.14,1.17.23,1.88.23,1.88.37.7.68,1.33,1,1.94Z" transform="translate(0 0.4)"/><path class="cls-3" d="M97.53,326.4s0,.33.07.93c.1,1.59.31,5,.43,8.57a18.21,18.21,0,0,1-1.84-2.42,24.08,24.08,0,0,1-2.15-4.1L93.69,321l.73-2.13A23.59,23.59,0,0,0,96,323.6,14.45,14.45,0,0,0,97.53,326.4Z" transform="translate(0 0.4)"/><path class="cls-4" d="M100.79,274.69c.45,3.06.72,6.42.89,9.56.34,6.56.22,12.19.22,12.19-.32,1.55.12,3.68.21,6.5.18,5.37.88,11.86,1.25,15,.13,1.18.23,1.88.23,1.88.1.2.2.38.29.57.24.44.44.87.63,1.27a.73.73,0,0,1,0,.09c.07.17.16.34.23.51s.19.42.28.62l0,0a7.34,7.34,0,0,1,.38,1v0h0l0,0v0a4.81,4.81,0,0,0-.73-.17,7.08,7.08,0,0,0-2.65.07,9.44,9.44,0,0,0-2.92,1.23l-.6.4v0c-.36.26-.65.51-.84.66l-.13.13a.3.3,0,0,0-.08.07l-.37-.55a12.85,12.85,0,0,1-1.09-2.11,1.11,1.11,0,0,0,0-.13,22.87,22.87,0,0,1-1.61-4.7,160.64,160.64,0,0,1-3-17.37c-.74-5.78-.87-10.39-.87-10.39s0-.27,0-.41a89.39,89.39,0,0,0-2.41-11.06C89,277.08,99.4,265.23,100.79,274.69Z" transform="translate(0 0.4)"/><path class="cls-4" d="M98.37,327.48a9.6,9.6,0,0,0,6.43,3.61s2.89-.25,1.14-5.87A9,9,0,0,0,98.37,327.48Z" transform="translate(0 0.4)"/><path class="cls-5" d="M104.75,323.76l.43,1.37a9.08,9.08,0,0,0-6.81,2.35c-.31-.37-.59-.74-.84-1.08C98,326,101,323.19,104.75,323.76Z" transform="translate(0 0.4)"/><path class="cls-5" d="M105.94,325.24l-.46-1.32s.09,0,.14,0C105.79,324.39,105.83,324.86,105.94,325.24Z" transform="translate(0 0.4)"/><path class="cls-5" d="M110.38,329.91s-2.63-4.35-4.3-7.58l-1.22-2.69c.28,1.46-.35,2-.35,2,.39.79.74,1.65,1,2.32.17.44.32.88.43,1.26,1.75,5.62-1.14,5.86-1.14,5.86a9.61,9.61,0,0,1-6.43-3.62c-.31-.37-.59-.74-.84-1.08,0,0,0,.33,0,.93,0,0-.06,4.81-1.38,6.15A18.21,18.21,0,0,0,98,335.9l.47.52c2.56,2.61,6.22,4.43,10.9,2.16C109.4,338.58,113.48,336.51,110.38,329.91Z" transform="translate(0 0.4)"/><path class="cls-6" d="M105.94,325.24a4.2,4.2,0,0,0-.76-.11l-.43-1.37a4.73,4.73,0,0,1,.73.15h0Z" transform="translate(0 0.4)"/><path class="cls-6" d="M97.53,326.4s.7.93.84,1.08l.08-.07-.83-1.09Z" transform="translate(0 0.4)"/><path class="cls-7" d="M100.79,274.69c.45,3.06.72,6.42.89,9.56.34,6.56.22,12.19.22,12.19-.32,1.55.12,3.68.21,6.5a45,45,0,0,1-10.7-1.41c-.74-5.78-.87-10.39-.87-10.39s0-.27,0-.41c-.44-4.1-3.67-16-3.67-16C87.72,272.13,99.4,265.23,100.79,274.69Z" transform="translate(0 0.4)"/><path class="cls-2" d="M68.38,319.73a10.1,10.1,0,0,0,1.71,1.65l-2.52.35C67.81,321.11,68.07,320.45,68.38,319.73Z" transform="translate(0 0.4)"/><path class="cls-2" d="M71.42,322.2a7.52,7.52,0,0,0,4.79.69,13.64,13.64,0,0,1-1.28,2.91Z" transform="translate(0 0.4)"/><path class="cls-3" d="M66.3,321.91a16.54,16.54,0,0,0,.79-2.27l1.37-1.8c0,1.18-.08,1.89-.08,1.89-.31.72-.57,1.38-.81,2Z" transform="translate(0 0.4)"/><path class="cls-3" d="M74.94,325.8s0,.34,0,.94c0,1.59.07,5,.24,8.58a18.75,18.75,0,0,0,1.65-2.56,23.66,23.66,0,0,0,1.81-4.26l-.3-8.34-.9-2.07a23,23,0,0,1-1.24,4.81A14.64,14.64,0,0,1,74.94,325.8Z" transform="translate(0 0.4)"/><path class="cls-4" d="M67.61,274.51c-.21,3.1-.21,6.46-.13,9.61.17,6.56.74,12.16.74,12.16.44,1.53.17,3.68.3,6.5.24,5.37.06,11.9-.06,15.06,0,1.18-.08,1.89-.08,1.89-.08.2-.17.4-.25.59-.2.46-.37.9-.53,1.31l0,.1c-.06.17-.14.35-.2.53l-.22.63,0,0a5.44,5.44,0,0,0-.3,1v0h0V324a5.35,5.35,0,0,1,.72-.22,7.09,7.09,0,0,1,2.65-.15,9.27,9.27,0,0,1,3,1c.22.11.43.23.62.35h0c.39.24.69.46.9.6l.14.11s.07,0,.08.07c.12-.2.23-.4.32-.58a12.24,12.24,0,0,0,.92-2.19,1.31,1.31,0,0,0,0-.14,22.86,22.86,0,0,0,1.24-4.8,160.76,160.76,0,0,0,1.62-17.55c.29-5.83.05-10.43.05-10.43s0-.27,0-.41a88.54,88.54,0,0,1,1.53-11.22C79.57,276,68.24,265,67.61,274.51Z" transform="translate(0 0.4)"/><path class="cls-4" d="M74.18,327a9.6,9.6,0,0,1-6.12,4.11s-2.89,0-1.59-5.76A9,9,0,0,1,74.18,327Z" transform="translate(0 0.4)"/><path class="cls-5" d="M67.53,323.75l-.31,1.39a9.12,9.12,0,0,1,7,1.81c.27-.39.53-.78.75-1.15C74.45,325.39,71.21,322.88,67.53,323.75Z" transform="translate(0 0.4)"/><path class="cls-5" d="M66.46,325.31l.35-1.35a.93.93,0,0,0-.13,0C66.55,324.46,66.55,324.92,66.46,325.31Z" transform="translate(0 0.4)"/><path class="cls-5" d="M62.41,330.32s2.28-4.54,3.69-7.89l1-2.79c-.15,1.49.51,2,.51,2-.31.82-.6,1.7-.8,2.39-.14.46-.25.9-.34,1.29-1.3,5.75,1.6,5.76,1.6,5.76A9.67,9.67,0,0,0,74.19,327c.27-.39.53-.78.75-1.15,0,0,0,.34,0,.94,0,0,.45,4.79,1.87,6a18.75,18.75,0,0,1-1.65,2.56l-.43.55c-2.35,2.81-5.84,4.91-10.69,3C64.07,338.88,59.84,337.14,62.41,330.32Z" transform="translate(0 0.4)"/><path class="cls-6" d="M66.46,325.31a5.32,5.32,0,0,1,.76-.17l.31-1.39a3.58,3.58,0,0,0-.71.2h0Z" transform="translate(0 0.4)"/><path class="cls-6" d="M74.94,325.8s-.62,1-.75,1.15l-.09-.07.75-1.15Z" transform="translate(0 0.4)"/><path class="cls-7" d="M67.61,274.51c-.21,3.1-.21,6.46-.13,9.61.17,6.56.74,12.16.74,12.16.44,1.53.17,3.68.3,6.5a44.78,44.78,0,0,0,10.55-2.24c.29-5.83.05-10.43.05-10.43s0-.27,0-.41c.11-4.12,2.4-16.25,2.4-16.25C80.43,270.93,68.24,265,67.61,274.51Z" transform="translate(0 0.4)"/><path class="cls-8" d="M81.87,240.39a126.33,126.33,0,0,0,20.4,0l-2.4-24-17.63-1.25H67.54l-3.16,22.56h0l-5.16,36.89s4.65,1.43,10,2.65c1.48.34,3,.66,4.51.93a31.33,31.33,0,0,0,8.34.69Zm-13.36-1.77" transform="translate(0 0.4)"/><path class="cls-8" d="M105.71,274.67a15.39,15.39,0,0,1-4.54,1.61c-8.94,1.92-23.6.55-23.6.55l2.77-36.57a128.54,128.54,0,0,0,21.93.17l1,10.36Z" transform="translate(0 0.4)"/><path class="cls-9" d="M82,277.13s-.37-49.56,0-55.77,1.33.25,1.33.25v55.58Z" transform="translate(0 0.4)"/><path class="cls-9" d="M103.31,250.79,100,247l-3.77-23.29c3.81-1.74-.21-3.47-.21-3.47l-6.21-.44-1.47.79c-3.6-2.58-13.74-5.34-13.74-5.34l-4.31.71-2.53,13,1,17-3,2.09-1.44,6.18,4.8,23.08c1.48.34,3,.66,4.51.93-1.11-15.27-.31-35.5-.31-35.5l.31-17.26a60.06,60.06,0,0,0,9.79-.58,39.2,39.2,0,0,0,10.34-.45c1.24,4.76,3.45,20.91,3.45,20.91s3.38,20.74,3.9,30.91a15.39,15.39,0,0,0,4.54-1.61Z" transform="translate(0 0.4)"/><path class="cls-10" d="M106.36,147.44a2.37,2.37,0,0,1-.17.2l-.1-.07Z" transform="translate(0 0.4)"/><path class="cls-11" d="M83.6,152c4.72-.19,11.49-.58,14.67-1.35a74.23,74.23,0,0,0,7.82-3l.1.07c-.86,1-5.32,5.23-17.73,7.33q-.72-.56-1.32-1A26.41,26.41,0,0,0,83.6,152Z" transform="translate(0 0.4)"/><path class="cls-10" d="M107.42,152.15a8.21,8.21,0,0,0,.66,2.19c-2.79,1.71-7.36,3.72-14.45,5-1.82-1.64-3.67-3.24-5.17-4.4,12.41-2.1,16.87-6.37,17.73-7.33a14.31,14.31,0,0,1,4.56,4.78,15.42,15.42,0,0,1-1.49,1.16C108.09,151.67,107.42,152.15,107.42,152.15Z" transform="translate(0 0.4)"/><path class="cls-10" d="M116.78,193.17a11,11,0,0,1,1,2.7,13.52,13.52,0,0,0-.64-2.74c4.21-.51,13-2,16.77-6.18a33.71,33.71,0,0,1,5.85,13.4c-2.24,1.54-7.69,4.34-18.36,5-.48-2.86-1.34-6.23-2.92-8.37,0,0-2.41-5.48,1.83,8.42H120a23.28,23.28,0,0,0-3.16-4.58s-1.29-1.5-1.59-5.41c0,0-.13-.74-.44-2C115,193.35,115.69,193.3,116.78,193.17Z" transform="translate(0 0.4)"/><path class="cls-10" d="M140.67,207.57a27.15,27.15,0,0,1,.05,4.1c-.14,1.36-.87,7.38-3.13,8.59a1.72,1.72,0,0,0,.2,2.65s1.87,3.51,2.9-10.77a21.61,21.61,0,0,0,.61,3.69s2.14,5.25.9,8.71c-3.11,1.05-9.81,2-20.85-3a7.78,7.78,0,0,1,.44-2.89h0a2.91,2.91,0,0,0,.54-1.84,17.92,17.92,0,0,0-.34-6h.08S134.45,211.53,140.67,207.57Z" transform="translate(0 0.4)"/><path class="cls-10" d="M125.73,177.66a47.6,47.6,0,0,1,4.15,4.19c-2.6,1.89-7.65,4.57-16.59,6.13a70.06,70.06,0,0,0-4.36-10.4c3.62-.53,9-1.67,12.76-4A26.37,26.37,0,0,0,125.73,177.66Z" transform="translate(0 0.4)"/><path class="cls-10" d="M112.47,159.52a5.59,5.59,0,0,1-.34,1.52q-.15-.54-.3-1C112.05,159.84,112.26,159.68,112.47,159.52Z" transform="translate(0 0.4)"/><path class="cls-10" d="M99,164.34c3.73-.59,9-1.79,12.55-4.14.36.52.6.84.6.84s2.37,3.41,5.24,7.18a43.43,43.43,0,0,1-11.62,4,45.2,45.2,0,0,0-4.58-5.76S100.3,165.6,99,164.34Z" transform="translate(0 0.4)"/><path class="cls-11" d="M121.35,221.58c-.55-.24-1.1-.5-1.67-.77l-.12-.06a7.75,7.75,0,0,0,2.23-2.06h0A7.78,7.78,0,0,0,121.35,221.58Z" transform="translate(0 0.4)"/><path class="cls-11" d="M121.74,227.7a57.93,57.93,0,0,0,7.78,2.53h0s-5.15,5.07-14.85,2c0,0-12-5-17.78-4.5,0,0,11.39-1.84,18.93-5C118.46,225.13,121.74,227.7,121.74,227.7Z" transform="translate(0 0.4)"/><path class="cls-11" d="M107.42,152.15s.67-.48,1.84,1.43c-.35.24-.74.5-1.18.76A8.21,8.21,0,0,1,107.42,152.15Z" transform="translate(0 0.4)"/><path class="cls-11" d="M111.83,160q.15.51.3,1s-.24-.32-.6-.84Z" transform="translate(0 0.4)"/><path class="cls-11" d="M140.72,211.67c0-.17,0-.28,0-.28l-.06.75v-.09C140.7,211.93,140.71,211.8,140.72,211.67Z" transform="translate(0 0.4)"/><path class="cls-11" d="M137.79,222.91a1.72,1.72,0,0,1-.2-2.65c2.26-1.21,3-7.23,3.13-8.59,0,.13,0,.26,0,.38v.09C139.66,226.42,137.79,222.91,137.79,222.91Z" transform="translate(0 0.4)"/><path class="cls-11" d="M118.48,196.93c1.58,2.14,2.44,5.51,2.92,8.37l-1.09,0C116.07,191.45,118.48,196.93,118.48,196.93Z" transform="translate(0 0.4)"/><path class="cls-11" d="M116.78,193.17l.36,0a13.52,13.52,0,0,1,.64,2.74A11,11,0,0,0,116.78,193.17Z" transform="translate(0 0.4)"/><path class="cls-12" d="M109.26,153.58a15.42,15.42,0,0,0,1.49-1.16,11.16,11.16,0,0,1,.88,2,12.65,12.65,0,0,1,.84,5.14c-.21.16-.42.32-.64.47A28.26,28.26,0,0,0,109.26,153.58Z" transform="translate(0 0.4)"/><path class="cls-12" d="M111.53,160.2c-3.56,2.35-8.82,3.55-12.55,4.14-1.42-1.36-3.37-3.18-5.35-5,7.09-1.31,11.66-3.32,14.45-5A35.88,35.88,0,0,0,111.53,160.2Z" transform="translate(0 0.4)"/><path class="cls-13" d="M109.26,153.58a28.26,28.26,0,0,1,2.57,6.41l-.3.21a35.88,35.88,0,0,1-3.45-5.86C108.52,154.08,108.91,153.82,109.26,153.58Z" transform="translate(0 0.4)"/><path class="cls-12" d="M121.69,173.6c-3.75,2.31-9.14,3.45-12.76,4a55.54,55.54,0,0,0-3.18-5.37,43.43,43.43,0,0,0,11.62-4C118.76,170,120.27,172,121.69,173.6Z" transform="translate(0 0.4)"/><path class="cls-12" d="M133.91,187c-3.78,4.14-12.56,5.67-16.77,6.18-.32-.83-.76-1.56-1.38-1.73a18.47,18.47,0,0,1,1,1.77c-1.09.13-1.81.18-2,.19-.31-1.31-.81-3.17-1.54-5.38,8.94-1.56,14-4.24,16.59-6.13A54.82,54.82,0,0,1,133.91,187Z" transform="translate(0 0.4)"/><path class="cls-13" d="M115.76,191.4c.62.17,1.06.9,1.38,1.73l-.36,0A18.47,18.47,0,0,0,115.76,191.4Z" transform="translate(0 0.4)"/><path class="cls-13" d="M120.94,207.4a21.18,21.18,0,0,0-.92-2h.29C120.51,206,120.72,206.67,120.94,207.4Z" transform="translate(0 0.4)"/><path class="cls-12" d="M122,210.63a44.88,44.88,0,0,0-.55-5.33c10.67-.61,16.12-3.41,18.36-5,0,.13.05.26.06.39s.6,3.45.85,6.83c-6.22,4-18.6,3.26-18.6,3.26H122a1.42,1.42,0,0,1,0-.2Z" transform="translate(0 0.4)"/><path class="cls-13" d="M120.94,207.4a22.19,22.19,0,0,1,1,3.22C121.58,209.46,121.25,208.39,120.94,207.4Z" transform="translate(0 0.4)"/><path class="cls-13" d="M122,210.63h0a22.19,22.19,0,0,0-1-3.22c-.22-.73-.43-1.41-.63-2.05l1.09,0A44.88,44.88,0,0,1,122,210.63Z" transform="translate(0 0.4)"/><path class="cls-12" d="M135.36,227.34l-.59.21c-11.18,1.1-13.3-3-13.42-6,11,4.91,17.74,4,20.85,3a5,5,0,0,1-.2.49A13,13,0,0,1,135.36,227.34Z" transform="translate(0 0.4)"/><path class="cls-13" d="M121.35,221.58c.12,3,2.24,7.07,13.42,6-1.25.46-4.16,1.6-5.25,2.68a57.93,57.93,0,0,1-7.78-2.53s-3.28-2.57-5.92-5a24.08,24.08,0,0,0,3.74-1.93l.12.06C120.25,221.08,120.8,221.34,121.35,221.58Z" transform="translate(0 0.4)"/><path class="cls-14" d="M131.09,272.29C125,280.82,103,297.76,103,297.76c1-9.87-1-29.65-3.63-48.79,0-.24-.07-.47-.1-.71s-.09-.65-.14-1l-.12-.9c-1.31-9.41-2.75-18.57-4-26.18-.77-4.66-1.47-8.74-2-12h0l.69-1.45,1.42-3,.06-.48-.06.06.07-.16.18-1.49,1.06.31,9,2.61,2.86.83a69.91,69.91,0,0,1,7.37,13h0a160.35,160.35,0,0,1,6.28,16.63c1.26,3.93,2.4,7.85,3.42,11.6C129.08,260.74,131.09,272.29,131.09,272.29Z" transform="translate(0 0.4)"/><path class="cls-3" d="M125.29,246.7a2.56,2.56,0,0,1-.11.24s-.23,2.27-1.19,1.79h0c-.11.53-.39,1.44-1,1.4a14.47,14.47,0,0,1-1.19-1.86,6,6,0,0,1-2.72-2.92,1.38,1.38,0,0,0-.27-.5s-.27-.3-.51-.27a1,1,0,0,0-.51,0,3,3,0,0,1-2.43.31l1.49-2.57-.15,0h.06l-.32,0c-1.21.15-2.45.28-3.73.37l-.55-2.89-1.45.12h0l-5-31.89-.43-3.52,2.86.83a69.91,69.91,0,0,1,7.37,13h0a160.35,160.35,0,0,1,6.28,16.63C123.13,239,124.27,243,125.29,246.7Z" transform="translate(0 0.4)"/><path class="cls-14" d="M68.91,203.18l0-.36,4.09-1A71.92,71.92,0,0,0,71.9,210l-1.5-3.2-1.42-3-.06-.48.06.06Z" transform="translate(0 0.4)"/><path class="cls-14" d="M91.63,200.61l3.71,1.08-.18,1.49-.07.16.06-.06-.06.48-1.42,3L93,208.24C92.16,203.47,91.63,200.61,91.63,200.61Z" transform="translate(0 0.4)"/><path class="cls-3" d="M65.87,174.07h0c-.41-1.22,2.8-5.71,2.8-5.71a6.41,6.41,0,0,1,0-1.86c-1.08.07-1.32,1.86-1.32,1.86-.42,3.48-2.38,3.86-2.38,3.86l.89,1.84Z" transform="translate(0 0.4)"/><path class="cls-14" d="M68.41,203.67l-.09-.71.56-.14,0,.36.07.16-.06-.06.06.48.07.15C68.8,203.8,68.57,203.72,68.41,203.67Z" transform="translate(0 0.4)"/><path class="cls-15" d="M70.92,221.55s4.39,2.54,11.52.89c0,0,5.61.37,6.7.57S93,211.18,93,211.18l.54-7.15-3-.73-19.1,6.32" transform="translate(0 0.4)"/><path class="cls-16" d="M79.79,171.38l.42-.74,2.93,1,2.92-1s.49.83,1.24,2.16c-.86-5-1.69-9.34-2.38-12.24l.64-.09L84,156.82l-3,3.28,1.38,0C81.72,163,80.79,166.93,79.79,171.38Z" transform="translate(0 0.4)"/><path class="cls-16" d="M90.52,193.57l-3.07,1.27s-2.29-16.09-4.31-21.5c-2,5.41-4.32,21.5-4.32,21.5l-3.67-1.52c-1.05,5.52-1.87,10.48-2.16,13.87a12.14,12.14,0,0,1-.28,1.64l.78.53L82,215.22l10-3.69.94-.35a7.82,7.82,0,0,1-.63-2.51C92,205,91.36,199.58,90.52,193.57Z" transform="translate(0 0.4)"/><path class="cls-15" d="M76.91,192.84s10.15,4.52,15.91,4.58-12.2,15.74-12.2,15.74l-11.44-4.73,4.38-12.09" transform="translate(0 0.4)"/><path class="cls-15" d="M93.53,211l-1.5.56c-3.71-21.66-7.11-39.07-7.11-39.07-2.19.77-2.88,0-2.88,0-1.24,1.06-6.72,27.77-8.55,36.9-.38,1.89-.62,3-.62,3l-.66-3.89-2.93-17.16L65.14,167,77,155.12h4.56L85.15,154l3.47,12.8s0,.43.13,1.22C89.38,173.43,91.92,195.46,93.53,211Z" transform="translate(0 0.4)"/><path class="cls-14" d="M82.39,160.12l-1.38,0c-13.86-.24-17.76-5.76-17.76-5.76l8-.53-12.06-1.74L56,153.79l2.11,53.7,1.75,4.9s10.22,7.17,12.88-3.56a12.14,12.14,0,0,0,.28-1.64c.29-3.39,1.11-8.35,2.16-13.87l-5-2.06c.64-4.17,7.77-16.72,9.6-19.88C80.79,166.93,81.72,163,82.39,160.12Z" transform="translate(0 0.4)"/><path class="cls-14" d="M111.79,158.5l-6.27,1.83-2.74-7.81c-4.18,3.67-13.65,7.41-17.22,7.95l-.64.09c.69,2.9,1.52,7.26,2.38,12.24,2.56,4.5,8.22,14.76,8.79,18.46l-5.57,2.31c.84,6,1.5,11.46,1.82,15.1a7.82,7.82,0,0,0,.63,2.51c4.06,9.19,11.52,2.2,11.52,2.2l4.5-5.67Z" transform="translate(0 0.4)"/><path class="cls-3" d="M84,156.82s.34,1.4.9,3.74c2.83-.41,15.19-.27,17.86-7.1Z" transform="translate(0 0.4)"/><path class="cls-3" d="M71.22,153.79,59.83,154s7.74,6.33,22.52,6.3c.69-2.94,1.18-5,1.18-5Z" transform="translate(0 0.4)"/><path class="cls-15" d="M83.14,171.61l-2.93-1-.42.74c-1.55,6.83-3.29,14.85-4.64,21.94l3.67,1.52s2.3-16.09,4.32-21.5a5.77,5.77,0,0,0-.75-1.49Z" transform="translate(0 0.4)"/><path class="cls-3" d="M70.19,191.26l5,2.06c1.35-7.09,3.09-15.11,4.64-21.94C78,174.54,70.83,187.09,70.19,191.26Z" transform="translate(0 0.4)"/><path class="cls-15" d="M83.14,171.61l.74.24a5.5,5.5,0,0,0-.74,1.49c2,5.41,4.31,21.5,4.31,21.5l3.07-1.27c-.94-6.8-2.1-14.31-3.22-20.77-.75-1.33-1.24-2.16-1.24-2.16Z" transform="translate(0 0.4)"/><path class="cls-3" d="M96.09,191.26c-.57-3.7-6.23-14-8.79-18.46,1.12,6.46,2.28,14,3.22,20.77Z" transform="translate(0 0.4)"/><path class="cls-15" d="M83.14,171.61l-.75.24a5.77,5.77,0,0,1,.75,1.49,5.5,5.5,0,0,1,.74-1.49Z" transform="translate(0 0.4)"/><path class="cls-3" d="M64.49,167s3.68,4.9,2.37,21.49C66.86,188.53,66.69,168.36,64.49,167Z" transform="translate(0 0.4)"/><polygon class="cls-3" points="69.19 188.72 67 186.9 66.66 189.73 67.86 195.24 72.77 208.76 73.17 205.84 75.4 192.44 69.19 188.72"/><polygon class="cls-3" points="95.48 191.91 94.61 199 91.96 204.65 91.52 201.56 93.96 197.18 95.34 191.47 95.48 191.91"/><path class="cls-14" d="M72.56,297.59c-9.7-2.37-34.48-25.3-34.48-25.3-1.19-5.37,6.24-34.11,11-51.7a.65.65,0,0,1,0-.13c.24-.88.47-1.73.7-2.55a9.18,9.18,0,0,0,4.33,1.3A121.6,121.6,0,0,0,71.51,216c-.27,5.16-.41,11.07-.46,17.28,0,4.24,0,8.63,0,13C71.3,271.78,72.56,297.59,72.56,297.59Z" transform="translate(0 0.4)"/><path class="cls-3" d="M71.91,210c-.16,1.85-.29,3.86-.4,6a121.6,121.6,0,0,1-17.32,3.22,9.18,9.18,0,0,1-4.33-1.3C51.7,211.25,53,206.74,53,206.74L68.32,203l.09.71c.16.05.39.13.65.24l1.35,2.88Z" transform="translate(0 0.4)"/><polyline class="cls-13" points="55.02 130.15 53.22 139.11 58.86 140.83 103.12 143.4 110.85 132.22 106.2 125.45"/><path class="cls-14" d="M117.7,202.6c2-26.2-3.65-44.62-3.65-44.62,0-2.43-7.66-8.55-7.66-8.55-5.38,3.77-8,18.39-8,18.39L97.67,174l-2.3,25.13" transform="translate(0 0.4)"/><path class="cls-3" d="M91.52,201.16l1,8.55a57.31,57.31,0,0,0,1.92,7l1-18.16.11-3.72.61-3.58-.75-.19-.78,4.8Z" transform="translate(0 0.4)"/><path class="cls-15" d="M89.14,223s5.55,1.3,7.75-2.88l-.8-7-3.12-2-3.14,4.57" transform="translate(0 0.4)"/><path class="cls-14" d="M129.06,197c-4.89-25.21-15.16-41.83-15.16-41.83-.54-2.37-9.38-6.61-9.38-6.61-4.4,4.89-3.62,19.71-3.62,19.71l.65,6.2,3.42,25" transform="translate(0 0.4)"/><path class="cls-14" d="M125.08,185.47s12.77,36.6,14.92,44.36a25.55,25.55,0,0,0-2.72-.12c-4.72,0-14.74.87-23.5,7.53-.42.31-.85.65-1.26,1l-6.39-31.64-1.59-9.49,13.39-4.88Z" transform="translate(0 0.4)"/><path class="cls-3" d="M140,229.83a75.75,75.75,0,0,1-27.48,8.41A35.58,35.58,0,0,1,140,229.83Z" transform="translate(0 0.4)"/><path class="cls-14" d="M138.54,229.69l-3.79,2.69a32.79,32.79,0,0,0,5.25-2.55l-1.19-.66Z" transform="translate(0 0.4)"/><polyline class="cls-14" points="112.9 236.83 112.52 238.64 117.16 237.97 113.47 237.81"/><path class="cls-14" d="M114.65,240.92c.3-.25.59-.49.9-.72,8.39-6.49,18.19-6.81,21.68-6.69.44,0,.78,0,1,.05l.33,0-1-.57-.24.44a31.19,31.19,0,0,0-21.8,6.73h0l-.5-.85Z" transform="translate(0 0.4)"/><path class="cls-15" d="M118.67,240.33h0A70.09,70.09,0,0,0,134,235.82h0a42.28,42.28,0,0,0,4.53-2.2l-.33,0c-.33,0-.63-.07-.95-.09a31.19,31.19,0,0,0-21.8,6.73c-.55.44-.83.72-.83.72,1.28-.15,2.51-.34,3.71-.54Z" transform="translate(0 0.4)"/><path class="cls-17" d="M117.39,242.94a3,3,0,0,0,2.42-.42.93.93,0,0,1,.5-.07c.24,0,.52.25.52.25a1.36,1.36,0,0,1,.29.48A6,6,0,0,0,124,246a15.35,15.35,0,0,0,1.28,1.81c.57,0,.81-.91.9-1.45,1,.43,1.1-1.85,1.1-1.85.94-1.9-.3-4.49-.3-4.49a7,7,0,0,0-.73-1.83,5.2,5.2,0,0,0-.44-.67,2.13,2.13,0,0,0-.44-.5l-.07-.05h0a5.45,5.45,0,0,0-4.34-.17,10.63,10.63,0,0,0-1,1.36,6.13,6.13,0,0,0-.47.92h0Z" transform="translate(0 0.4)"/><path class="cls-18" d="M126.15,246.34s.66-2.25.14-3A17.54,17.54,0,0,0,126.15,246.34Z" transform="translate(0 0.4)"/><path class="cls-18" d="M127.25,244.5s.25-2.61-.21-3.18Z" transform="translate(0 0.4)"/><path class="cls-16" d="M118.67,240.33l-4,.59-.87-3.68c8.76-6.66,18.78-7.54,23.5-7.53.57,1.58,1,2.92,1.28,3.89a26.39,26.39,0,0,1-4.53,2.2h0l3.22-2.3.05,0A30.94,30.94,0,0,0,125,235a36,36,0,0,0-3.94,1.64h0a30.36,30.36,0,0,0-5.55,3.54h.07Z" transform="translate(0 0.4)"/><path class="cls-18" d="M119.89,238.13a10.37,10.37,0,0,1,6.33,0,5.2,5.2,0,0,0-.44-.67,2.13,2.13,0,0,0-.44-.5l-.07-.06h0L125,235a36,36,0,0,0-3.94,1.64h0l-.1.11A10.63,10.63,0,0,0,119.89,238.13Z" transform="translate(0 0.4)"/><path class="cls-3" d="M118.73,195s-10-4.73-13.64,1.09l-.12,3.34,1.39-3.12A24.36,24.36,0,0,1,118.73,195Z" transform="translate(0 0.4)"/><path class="cls-19" d="M83.2,170.38a10.9,10.9,0,0,0-1.32,3.32c-1.77,6.3-3.55,18.76-3.55,18.76L70.05,189c.5-3.39,5.47-12.5,8.06-17.09.94-1.66,1.57-2.72,1.57-2.72Z" transform="translate(0 0.4)"/><path class="cls-19" d="M96.4,189l-8.28,3.42s-1.77-12.31-3.52-18.65a11.42,11.42,0,0,0-1.35-3.43l3.52-1.15s.68,1.17,1.69,3C91.08,176.83,95.9,185.71,96.4,189Z" transform="translate(0 0.4)"/><path class="cls-18" d="M83.2,170.38a10.9,10.9,0,0,0-1.32,3.32A9.3,9.3,0,0,1,78.11,172c.94-1.66,1.57-2.72,1.57-2.72Z" transform="translate(0 0.4)"/><path class="cls-18" d="M88.46,172.18a8.1,8.1,0,0,1-3.86,1.63,11.42,11.42,0,0,0-1.35-3.43l3.52-1.15S87.45,170.4,88.46,172.18Z" transform="translate(0 0.4)"/><path class="cls-20" d="M88.62,165.32c0,3.25-2.27,5.87-5.1,5.87s-5.08-2.62-5.08-5.87,2.27-5.86,5.08-5.86S88.62,162.08,88.62,165.32Z" transform="translate(0 0.4)"/><path class="cls-21" d="M88.62,165.32c0,3.25-2.27,5.87-5.1,5.87V159.46C86.35,159.46,88.62,162.08,88.62,165.32Z" transform="translate(0 0.4)"/><path class="cls-22" d="M83.53,161.07c-2,0-3.53,1.9-3.53,4.25s1.58,4.25,3.53,4.25,3.52-1.91,3.52-4.25S85.47,161.07,83.53,161.07Zm0,7.27a3.59,3.59,0,0,1,0-7.06c1.62,0,2.93,1.58,2.93,3.53S85.15,168.34,83.53,168.34Z" transform="translate(0 0.4)"/><ellipse class="cls-23" cx="83.53" cy="165.21" rx="2.93" ry="3.53"/><path class="cls-24" d="M83.53,162.19a1.33,1.33,0,1,0,1.09,1.31A1.22,1.22,0,0,0,83.53,162.19Z" transform="translate(0 0.4)"/><path class="cls-16" d="M118.56,88.92c-.19,2.81-.4,5.42-.63,7.86.22.17.45.36.67.51l4.17.14c1.9-5.51,4-22.75,4-22.75.4-2.59.81-5,1.24-7.39q-3.11-2.27-6.24-4.2A217.68,217.68,0,0,0,118.56,88.92Z" transform="translate(0 0.4)"/><path class="cls-16" d="M80.18,71A137.33,137.33,0,0,1,92.83,51a107.44,107.44,0,0,0-26.62-3.18A113.86,113.86,0,0,0,54.55,66.63L87,84.28l2.9,1c-.77-2.83-1.21-4.61-1.21-4.61Z" transform="translate(0 0.4)"/><path class="cls-14" d="M159.66,17.19c-10.44-6.14-24.46-6.67-24.46-6.67-33.47-1.3-56.38,20.45-69,37.25,12.59-.12,38.06,2.16,61.77,19.52,3.7-20.56,8.31-32.41,10-36.33a17.64,17.64,0,0,1,7.17-6,17.37,17.37,0,0,1,4.45-1.16l.3,0a15.58,15.58,0,0,1,4.31.07,12.58,12.58,0,0,1,5.92,1.85h0S165.05,23.09,159.66,17.19Z" transform="translate(0 0.4)"/><path class="cls-3" d="M92.83,51a101.15,101.15,0,0,1,28.91,12.14c8.72-45.46,29.42-42.46,37.07-39.1C130.42,9.86,106.53,32.86,92.83,51Z" transform="translate(0 0.4)"/><path class="cls-15" d="M80.18,71l8.51,9.72s.44,1.78,1.21,4.61c5.06,1.78,15.71,5.42,23.41,7.36a50.7,50.7,0,0,0,4.62,4.11c.23-2.44.44-5,.63-7.86a217.68,217.68,0,0,1,3.18-25.83A101.15,101.15,0,0,0,92.83,51,137.33,137.33,0,0,0,80.18,71Z" transform="translate(0 0.4)"/><path class="cls-3" d="M170.73,34.22c-.3-8.16-5.11-13.51-11.07-17,5.4,5.89.51,8.46.51,8.46h0a9.84,9.84,0,0,1,2.6,2.37l.1.14c.14.21.27.4.4.61l0,0a13.72,13.72,0,0,1,.24,14.66,12.35,12.35,0,0,1-2,2.65s-.55,1.93,5-2.16A16,16,0,0,0,170.73,34.22Z" transform="translate(0 0.4)"/><path class="cls-17" d="M99.8,123.2a8.48,8.48,0,0,0,.51-2.4,26.09,26.09,0,0,1-4.82-1.6,26.12,26.12,0,0,1-7.5,1.93c-12.3,1.21-20.47-7.88-22.5-10.43-.33-.41-.5-.65-.5-.65,2.16,12.42,8.58,13.86,9.71,14l.18,0-.18,0c-16.32-1.42-17.23-14.45-17.11-18.54,0,.28,0,.55,0,.83l0,.13v.39c0-.12,0-.24-.05-.36-1.33,24,8.44,26.76,8.44,26.76a11.51,11.51,0,0,1-8.07-5.58c1.92,5.83,7.4,14.16,23.1,15,0,0,12.46-.09,19.4-8.07C98.4,130,99.8,123.2,99.8,123.2Z" transform="translate(0 0.4)"/><path class="cls-25" d="M43,101.32S4.52,93.92.2,76.81c0,0-2.65-10,11.47-13.07,0,0,33.35-3.81,66.75,4,0,0,22.59,4.73,40.47,18.44a190,190,0,0,0,23.64,8.38s26.76,8.29,32.62,21.42c0,0,3,8.7-23,5.89,0,0-42.09-4.12-72.39-12.9" transform="translate(0 0.4)"/><path class="cls-18" d="M109,109.62l-20-8.4L56,99.53l-2.27,1.29L56.88,122a19.58,19.58,0,0,0,1,5.72A11.51,11.51,0,0,0,66,133.28s-9.77-2.73-8.44-26.76c0,.12,0,.24.05.36v-.39l0-.13c0-.28,0-.55,0-.83-.12,4.09.79,17.12,17.11,18.54-1.13-.16-7.55-1.6-9.71-14,0,0,.17.24.5.65,2,2.55,10.2,11.64,22.5,10.43a26.12,26.12,0,0,0,7.5-1.93,26.09,26.09,0,0,0,4.82,1.6,8.48,8.48,0,0,1-.51,2.4s-1.4,6.75.61,11.48a17.66,17.66,0,0,0,2.85-4.49C108.69,117.73,109,109.62,109,109.62Z" transform="translate(0 0.4)"/><path class="cls-2" d="M55.59,144.93c0-.07,0-.14,0-.22h0C55.58,144.79,55.59,144.86,55.59,144.93Z" transform="translate(0 0.4)"/><path class="cls-2" d="M56,151q.12.33.24.6Q56.1,151.32,56,151Z" transform="translate(0 0.4)"/><path class="cls-2" d="M55.33,148.7c.06.22.12.41.18.6C55.45,149.11,55.39,148.92,55.33,148.7Z" transform="translate(0 0.4)"/><path class="cls-2" d="M55.59,143.53c0-.18,0-.34,0-.53C55.6,143.19,55.6,143.35,55.59,143.53Z" transform="translate(0 0.4)"/><path class="cls-2" d="M55.59,140.92c0-.16,0-.32.06-.49C55.62,140.6,55.61,140.76,55.59,140.92Z" transform="translate(0 0.4)"/><path class="cls-2" d="M55,146.72c0,.19.05.36.07.55C55,147.08,55,146.91,55,146.72Z" transform="translate(0 0.4)"/><path class="cls-2" d="M55.12,147.79c0,.21.08.39.13.58C55.2,148.18,55.16,148,55.12,147.79Z" transform="translate(0 0.4)"/><path class="cls-26" d="M108.83,142.42c0-.52-.09-.89-.09-.89a5.55,5.55,0,0,0,0-1.64c-.54-3-4.24-2.1-4.24-2.1a31.31,31.31,0,0,1,.87,10.17,55.85,55.85,0,0,1,3.38-6.43,9.72,9.72,0,0,1-3.45,7.25c-.05.53.3,2.31.22,2.87,1.83-2.08,3-3.57,3-3.57C109.35,147,108.92,143.61,108.83,142.42Z" transform="translate(0 0.4)"/><polygon class="cls-27" points="53 144.77 53 144.77 53 144.77 53 144.77"/><path class="cls-27" d="M55.58,144.71h0c0-.11,0-.2,0-.31C55.57,144.51,55.58,144.6,55.58,144.71Z" transform="translate(0 0.4)"/><path class="cls-13" d="M108.74,141.53a55.85,55.85,0,0,0-3.38,6.43c0,.27,0,.54-.07.82A9.72,9.72,0,0,0,108.74,141.53Z" transform="translate(0 0.4)"/><path class="cls-28" d="M74.54,152a15.26,15.26,0,0,0-9.28,4.62c2.84,1.37,8.85.53,13.74,1.73C76.53,155.73,74.9,154.2,74.54,152Z" transform="translate(0 0.4)"/><path class="cls-27" d="M74.32,150.14l-1.51.57a26.54,26.54,0,0,0-7.55,5.86A15.26,15.26,0,0,1,74.54,152C74.36,150.86,74.32,150.14,74.32,150.14Z" transform="translate(0 0.4)"/><path class="cls-28" d="M79.65,147.79c.08.19.15.4.24.58l-.14,0,.29-.05a4.47,4.47,0,0,1-.05-.71Z" transform="translate(0 0.4)"/><path class="cls-13" d="M79.75,148.4c-.57.16-2.79.77-5.43,1.74,0,0,0,.72.22,1.81a29.68,29.68,0,0,1,6.47-.27,13.58,13.58,0,0,1-1-3.33Z" transform="translate(0 0.4)"/><path class="cls-27" d="M92.17,150.4l-2.13-1a21.14,21.14,0,0,0-10-1.07,13.58,13.58,0,0,0,1,3.33,39,39,0,0,1,7.77,1.25c3,.94,4.52.86,5.31.45A17.79,17.79,0,0,0,92.17,150.4Z" transform="translate(0 0.4)"/><path class="cls-26" d="M92.17,150.4l1.11.42a24.77,24.77,0,0,0-3.24-1.4l2.13,1Z" transform="translate(0 0.4)"/><path class="cls-26" d="M96.68,137.17a53.19,53.19,0,0,1-6.32.51c.38,4.65.49,9.66-.53,11.65l.21.09a24.77,24.77,0,0,1,3.24,1.4c1.8.68,3.26,1.31,4.33,1.81,0-1.54.11-6.55-.17-11.67a5.06,5.06,0,0,1-1-.51S95.43,138.28,96.68,137.17Z" transform="translate(0 0.4)"/><path class="cls-13" d="M96.68,137.17c-1.25,1.11-.29,3.28-.29,3.28a5.06,5.06,0,0,0,1,.51c-.08-1.3-.17-2.6-.3-3.86Z" transform="translate(0 0.4)"/><path class="cls-13" d="M94.09,153.38a1.52,1.52,0,0,0,.76-1.72l-2.68-1.26A17.79,17.79,0,0,1,94.09,153.38Z" transform="translate(0 0.4)"/><path class="cls-26" d="M97.61,152.63c0,.3,0,.48,0,.48a21.74,21.74,0,0,0-2.75-1.45,1.52,1.52,0,0,1-.76,1.72,7.64,7.64,0,0,1,1.26,4.54c1.57-1.17,3.43-1.08,4.84-2.41l-.37-1.8S99.05,153.28,97.61,152.63Z" transform="translate(0 0.4)"/><path class="cls-26" d="M93.28,150.82l-1.11-.42h0l2.68,1.26h0C94.32,151.35,93.8,151.08,93.28,150.82Z" transform="translate(0 0.4)"/><path class="cls-27" d="M62.47,136.61l1.78-.37-2,.4Z" transform="translate(0 0.4)"/><path class="cls-28" d="M60.84,155h0c1.39,1,3.29,1,4.42,1.56,0,0-2.15-2.41-4.67-5.09C60.77,152.37,60.51,154.15,60.84,155Z" transform="translate(0 0.4)"/><path class="cls-28" d="M72.76,150.73a48.82,48.82,0,0,1,.1-15.35c-1.56-.06-3.16-.06-4.7,0-1.43.33-2.77.63-3.9.87h0l-1.78.37h0a29.21,29.21,0,0,0-2.24,11.85,2.73,2.73,0,0,1,.55.76s4.67,5.63,4.48,7.35a26.54,26.54,0,0,1,7.55-5.86Z" transform="translate(0 0.4)"/><path class="cls-27" d="M60.78,149.22a2.73,2.73,0,0,0-.55-.76,19.58,19.58,0,0,0,.36,3c2.52,2.68,4.67,5.09,4.67,5.09C65.45,154.85,60.78,149.22,60.78,149.22Z" transform="translate(0 0.4)"/><path class="cls-28" d="M56.22,151.59q-.12-.27-.24-.6c0-.05-.45-1.64-.47-1.69s-.12-.38-.18-.6a3.18,3.18,0,0,1-.08-.33c0-.19-.09-.37-.13-.58s0-.35-.08-.52,0-.36-.07-.55.63-1.55.62-1.79c0-.07,0-.14,0-.22-.85-.76-2.2-.21-2.58-.34.07,1.47,3.22,7.3,3.22,7.3v-.08Z" transform="translate(0 0.4)"/><path class="cls-27" d="M55.56,144.4c0-.09,0-.19,0-.28a3.43,3.43,0,0,0-2.57.25h0c.38.13,1.73-.42,2.58.34C55.58,144.6,55.57,144.51,55.56,144.4Z" transform="translate(0 0.4)"/><polygon class="cls-26" points="64.26 136.64 64.26 136.64 64.25 136.64 64.26 136.64"/><path class="cls-26" d="M62.25,136.64l-1.48.3,1.7-.33Z" transform="translate(0 0.4)"/><path class="cls-26" d="M60.77,136.88v.06l0-.06Z" transform="translate(0 0.4)"/><path class="cls-26" d="M60.8,136.88l0,.06.13-.08Z" transform="translate(0 0.4)"/><path class="cls-26" d="M60.9,136.86l-.13.08,1.48-.3Z" transform="translate(0 0.4)"/><path class="cls-26" d="M94.85,151.66h0a21.74,21.74,0,0,1,2.75,1.45s0-.18,0-.48c-1.07-.5-2.53-1.13-4.33-1.81C93.8,151.08,94.32,151.35,94.85,151.66Z" transform="translate(0 0.4)"/><path class="cls-26" d="M74.54,152c.36,2.25,2,3.78,4.46,6.35h0c1.58.39,3.12.74,4.51,1.06,1.81.4,3-.66,4.1-.43-1.39-2-4.94-3.19-6.6-7.25A29.68,29.68,0,0,0,74.54,152Z" transform="translate(0 0.4)"/><polygon class="cls-26" points="79 158.7 79 158.7 79 158.7 79 158.7"/><path class="cls-26" d="M76.62,149.12a24.48,24.48,0,0,0-3.81,1.59l1.51-.57h0Z" transform="translate(0 0.4)"/><path class="cls-29" d="M79.65,147.79l-3,1.33a21.67,21.67,0,0,1,3.13-.72l.14,0C79.8,148.19,79.73,148,79.65,147.79Z" transform="translate(0 0.4)"/><path class="cls-29" d="M76.62,149.12l-2.3,1h0c2.64-1,4.86-1.58,5.43-1.74A21.67,21.67,0,0,0,76.62,149.12Z" transform="translate(0 0.4)"/><path class="cls-26" d="M79.65,147.79c-1.21-2.95-.83-7.87-.28-11.52a28.92,28.92,0,0,0-6.51-.89,48.82,48.82,0,0,0-.1,15.35l0,0a24.48,24.48,0,0,1,3.81-1.59Z" transform="translate(0 0.4)"/><path class="cls-28" d="M105.08,148.94a5.08,5.08,0,0,1,.28-1,31.31,31.31,0,0,0-.87-10.17s-3.26,4.54-7,3.17c.28,5.12.21,10.13.17,11.67,1.44.65,2.21,1.08,2.21,1.08l.37,1.8c.79-.75,1.88-1.32,2.59-2,1-1,2-.94,2.73-1.81.08-.56-.27-2.34-.22-2.87Z" transform="translate(0 0.4)"/><path class="cls-27" d="M97.14,137.1c.13,1.26.22,2.56.3,3.86,3.79,1.37,7-3.17,7-3.17a20.08,20.08,0,0,0-5-1.23A20.14,20.14,0,0,1,97.14,137.1Z" transform="translate(0 0.4)"/><path class="cls-27" d="M105.29,148.78c0-.28,0-.55.07-.82a5.08,5.08,0,0,0-.28,1Z" transform="translate(0 0.4)"/><path class="cls-26" d="M60.59,151.48c-1.94-2.06-3.43-5.36-5-6.77,0,.08,0,.15,0,.22,0,.24-.64,1.57-.62,1.79s.05.36.07.55.05.36.08.52.08.39.13.58a3.18,3.18,0,0,0,.08.33c.06.22.12.41.18.6S56,150.94,56,151c.08.22.07.25.15.43l.06.12,0,.13.32.24c.78.6,2.05,1.58,4.3,3.1h0C60.51,154.15,60.77,152.37,60.59,151.48Z" transform="translate(0 0.4)"/><path class="cls-13" d="M55.56,144.4c0,.11,0,.2,0,.31,1.58,1.41,3.07,4.71,5,6.77a19.58,19.58,0,0,1-.36-3c-1.15-1.19-2.93-3.54-4.66-4.34C55.57,144.21,55.56,144.31,55.56,144.4Z" transform="translate(0 0.4)"/><path class="cls-26" d="M55.25,148.37a3.18,3.18,0,0,0,.08.33A3.18,3.18,0,0,1,55.25,148.37Z" transform="translate(0 0.4)"/><path class="cls-26" d="M55.59,143.53c0,.2,0,.4,0,.59h0C55.58,143.93,55.59,143.73,55.59,143.53Z" transform="translate(0 0.4)"/><path class="cls-26" d="M55,147.27c0,.17.05.36.08.52C55.09,147.63,55.07,147.44,55,147.27Z" transform="translate(0 0.4)"/><path class="cls-26" d="M56.22,151.67" transform="translate(0 0.4)"/><path class="cls-26" d="M55.51,149.3S56,150.94,56,151,55.53,149.35,55.51,149.3Z" transform="translate(0 0.4)"/><path class="cls-26" d="M55.62,143c0-.34-.08-1.71,0-2.08C55.54,141.29,55.64,142.66,55.62,143Z" transform="translate(0 0.4)"/><path class="cls-26" d="M55.59,144.93c0,.24-.64,1.57-.62,1.79C55,146.5,55.6,145.17,55.59,144.93Z" transform="translate(0 0.4)"/><path class="cls-26" d="M55.57,144.12c0,.09,0,.19,0,.28,0-.09,0-.19,0-.28Z" transform="translate(0 0.4)"/><path class="cls-28" d="M90.36,137.68l-1.6,0a48.32,48.32,0,0,1-7.89-.92h0a11.44,11.44,0,0,0-1.5-.53c-.55,3.65-.93,8.57.28,11.52l.34-.15a4.47,4.47,0,0,0,.05.71,21.14,21.14,0,0,1,10,1.07l-.21-.09C90.85,147.34,90.74,142.33,90.36,137.68Z" transform="translate(0 0.4)"/><path class="cls-28" d="M95.35,157.92a7.64,7.64,0,0,0-1.26-4.54c-.79.41-2.32.49-5.31-.45A39,39,0,0,0,81,151.68c1.66,4.06,5.21,5.23,6.6,7.25a1.4,1.4,0,0,0,.5,0A27.93,27.93,0,0,0,95.35,157.92Z" transform="translate(0 0.4)"/><path class="cls-26" d="M56,151a5.26,5.26,0,0,0,.25.72l.12-.11Z" transform="translate(0 0.4)"/><path class="cls-26" d="M62.46,136.61l-.11,0-.11,0A12.62,12.62,0,0,0,57,137.92l-.23.13v0a3.05,3.05,0,0,0-.74.64,16.15,16.15,0,0,0-.35,1.64.25.25,0,0,0,0,.07c0,.18,0,.33-.06.5-.06.37,0,1.74,0,2.08,0,.19,0,.35,0,.53a5.82,5.82,0,0,0,0,.59c1.73.8,3.5,3.14,4.65,4.34A29.3,29.3,0,0,1,62.46,136.61Z" transform="translate(0 0.4)"/><path class="cls-28" d="M54.68,140.67a28.63,28.63,0,0,0-1.68,3.7,3.45,3.45,0,0,1,2.58-.25,5.82,5.82,0,0,1,0-.59c0-.18,0-.34,0-.53,0-.34-.08-1.71,0-2.08,0-.17,0-.32.06-.5a.25.25,0,0,1,0-.07,16.15,16.15,0,0,1,.35-1.64A11.81,11.81,0,0,0,54.68,140.67Z" transform="translate(0 0.4)"/><path class="cls-30" d="M126.45,108.79h0l-.09-.07c-.19-.16-.36-.32-.56-.47l-.14,0c-.39-.28-.76-.58-1.13-.88h0c-6.31-2.18-18.16-5.77-18.16-5.77-41-8.7-60.86-1.72-65.48.33-1,2.78-1.68,4.88-1.82,5.33-.17,1.55-.31,3.15-.38,4.89a6.26,6.26,0,0,1-1.78,4.06s-8.11,7-5.74,17.1c0,0,.69,7.62,8.11,10.09,0,0-8.7-6.33-3.56-16.71,0,0-1.78,18.29,15.23,19a10.4,10.4,0,0,1-6-4.66h0v0a8.12,8.12,0,0,1-.88-4.2s-.89-3.26,1.48-9.39c0,0-1.66,13.91,8.07,17.31a17.31,17.31,0,0,0,6.66.29s-3.66-.79-3-5.24c0,0,3.57-4.92,2.85-9h0a.59.59,0,0,1,0-.13,3.91,3.91,0,0,0-.19-.7.08.08,0,0,0,0,0h0a19.64,19.64,0,0,0-1.85-3.39A15.21,15.21,0,0,1,56.88,122a11.57,11.57,0,0,0,9.1,7.91s-10.05-2.79-8.39-27.75c-.12,4.08.79,17.12,17.11,18.54-1.13-.16-7.55-1.6-9.71-14A38.68,38.68,0,0,1,65,98s4.56,18.78,23,19.79a26.12,26.12,0,0,0,7.5-1.93,26.09,26.09,0,0,0,4.82,1.6,8.48,8.48,0,0,1-.51,2.4s-3.12,15,6.57,16c0,0,2.57,7.12-2.77,9.7,0,0,5.94,1.38,10.48-4.95a25.72,25.72,0,0,0,6.23-5.05c6.31-10.61-.63-23.62-2-26-.07-.13-.16-.26-.22-.38l.22.38c1.9,3.11,7,7.21,7,7.21s9.39,6.53,4.64,17C130,133.7,140.19,120.43,126.45,108.79Z" transform="translate(0 0.4)"/><path class="cls-18" d="M74.7,124.07l.18,0Z" transform="translate(0 0.4)"/><path class="cls-9" d="M74.7,120.68l.18,0Z" transform="translate(0 0.4)"/><path class="cls-9" d="M57.58,103.09S55,95.38,58.66,88.86s0,2.86,0,2.86a22.1,22.1,0,0,0-1.07,11.77" transform="translate(0 0.4)"/><path class="cls-30" d="M65.49,107.31l-.5-.66S65.16,106.9,65.49,107.31Z" transform="translate(0 0.4)"/><path class="cls-9" d="M65,98a38.68,38.68,0,0,0,0,8.7l.5.66c2,2.55,10.2,11.64,22.5,10.43C69.55,116.73,65,98,65,98Z" transform="translate(0 0.4)"/><path class="cls-9" d="M57.28,139.68s-1.53-8.21,1.21-9.29c0,0,.82.59,0,3.36A10.34,10.34,0,0,0,57.28,139.68Z" transform="translate(0 0.4)"/><path class="cls-9" d="M35.72,126.63s.49-5.14,4.65-7.71A22.89,22.89,0,0,0,35.72,126.63Z" transform="translate(0 0.4)"/><path class="cls-9" d="M106.37,135.77s-1-7-3.91-10.72c0,0-1.87.89.5,4.45A24.21,24.21,0,0,1,106.37,135.77Z" transform="translate(0 0.4)"/><path class="cls-9" d="M95.49,115.81s-12.11-5-12.9-13.21c0,0,1.12-1.42,2.87,3.26C85.46,105.86,86.73,111.71,95.49,115.81Z" transform="translate(0 0.4)"/><path class="cls-9" d="M100.31,117.41A51.35,51.35,0,0,0,97.82,98S103.88,105.63,100.31,117.41Z" transform="translate(0 0.4)"/><path class="cls-2" d="M44.91,140.91l-.88-4.2A8.12,8.12,0,0,0,44.91,140.91Z" transform="translate(0 0.4)"/><path class="cls-9" d="M44.92,140.94h0s0,0,0,0Z" transform="translate(0 0.4)"/><path class="cls-9" d="M45.51,127.32c-2.37,6.13-1.48,9.39-1.48,9.39a14.52,14.52,0,0,0,9.55,7.92C43.85,141.23,45.51,127.32,45.51,127.32Z" transform="translate(0 0.4)"/><path class="cls-9" d="M118.31,109.48l-.22-.38C118.15,109.22,118.24,109.35,118.31,109.48Z" transform="translate(0 0.4)"/><path class="cls-9" d="M118.31,109.48c1.37,2.37,8.31,15.38,2,26a20.17,20.17,0,0,0,5-18.78S120.21,112.59,118.31,109.48Z" transform="translate(0 0.4)"/><path class="cls-9" d="M114.08,140.52s4.6-6.77,2-12.71C116.11,127.81,121.75,132,114.08,140.52Z" transform="translate(0 0.4)"/><path class="cls-2" d="M118.31,109.48l-.22-.38C118.15,109.22,118.24,109.35,118.31,109.48Z" transform="translate(0 0.4)"/><path class="cls-9" d="M51.58,84.64c-1.36.23-2.72.47-4.09.75,0,0-6.64,5.87-8.42,21.81C39.48,105.83,44.35,89.7,51.58,84.64Z" transform="translate(0 0.4)"/><path class="cls-9" d="M56.88,122s-5.37-8.44-2.76-14.67c0,0-1.21,3.76,2.92,15.17" transform="translate(0 0.4)"/><path class="cls-9" d="M118.09,109.1s-5-7.1-6.13-13.18a5.82,5.82,0,0,0-2.18-2.32s1.94,6.35,8.53,15.88" transform="translate(0 0.4)"/><path class="cls-2" d="M118.31,109.48l-.22-.38C118.15,109.22,118.24,109.35,118.31,109.48Z" transform="translate(0 0.4)"/><path class="cls-9" d="M106.37,101.54s11.85,3.59,18.16,5.77h0a46.71,46.71,0,0,1-8.94-10.07h0c-1-1.69,1.15.52-1-1.69,0,0-31.31-16.11-63.06-10.92C46.76,88,43,96.31,40.89,101.87,45.51,99.82,65.37,92.84,106.37,101.54Z" transform="translate(0 0.4)"/><path class="cls-31" d="M63.72,116s5.92.13,8.91,2.44c0,0,.77,1.33.65,1.78L62.05,117.4Z" transform="translate(0 0.4)"/><ellipse class="cls-31" cx="68.37" cy="121.69" rx="3.1" ry="4.4"/><path class="cls-14" d="M67.07,184.87,65.73,174,65,168.27l0-.45s-3.61-14.26-9-18c0,0-6.63,5.76-6.63,8.19a157.65,157.65,0,0,0-3.5,46.92Z" transform="translate(0 0.4)"/><path class="cls-3" d="M45.73,200S48.14,189,62.11,171.45c0,0,.65-1.17,3.21-.76L59,201.56l-13.26,1.79Z" transform="translate(0 0.4)"/><polygon class="cls-3" points="64.82 175.49 67.07 171.86 65.94 171.86 64.82 171.86 63.34 176.15 64.82 175.49"/><polygon class="cls-3" points="79.73 191.76 77.32 194.73 79.73 194.62 80.52 192.96 80.52 191.2 79.73 191.76"/><path class="cls-14" d="M80.91,191.33c0-.3,0-.6,0-.87,0,0-.09-1.43-.18-1.93A14.47,14.47,0,0,1,80,192.2a3.52,3.52,0,0,1-.27.55c-.15.23-.26.37-.26.37l-.49,0c-7.43.62-12.68-6.78-12.68-6.78-3.93-5.53-2.87-10.1-1.78-12.47a8.61,8.61,0,0,1,1-1.73,1.79,1.79,0,0,1,.77-.55,5.52,5.52,0,0,1,2.71-.13c.32.05.53.1.53.1l-.46-.21a8.33,8.33,0,0,0-2-.63,4.89,4.89,0,0,0-2.26.1,2.1,2.1,0,0,0-.94.44h0c-1.41,1-4,3.79-9.89,13.11-8.61,13.74-8.24,18.92-8.24,18.92a10.44,10.44,0,0,0,5.9,10.21c6.18,3.16,13.14-3.38,13.14-3.38L80.68,195A13.61,13.61,0,0,0,80.91,191.33Z" transform="translate(0 0.4)"/><path class="cls-15" d="M73,170s8.91,4.51,9.46,14.34l-.72,4.1S75,192,74.64,191.67s-6.11-11.78-6.11-11.78l-2-4,.48-3.62L69.18,170l.79-.76Z" transform="translate(0 0.4)"/><polyline class="cls-18" points="76.7 180.72 70.32 187.3 67.77 182.23 74.18 177.09"/><path class="cls-16" d="M82.48,189.83l-1.57,1.5-.92.87-1,1c-7.43.62-12.68-6.78-12.68-6.78-3.93-5.53-2.87-10.1-1.78-12.47.69-.95,1.28-1.7,1.79-2.28.29-.34.55-.63.79-.87a7.29,7.29,0,0,1,1.16-1h0a1.71,1.71,0,0,1,.79-.38,5.42,5.42,0,0,1,4,.62c-.3-.07-2.57-.55-3.36.5a6.45,6.45,0,0,0-.58.91.41.41,0,0,0-.07.11c-1,1.82-2.32,6,1.29,11,0,0,4.55,6.24,11.06,5.39,0,0,.09-.11.23-.31a10,10,0,0,0,.89-3.27c.08.42.15,1.63.15,1.63A13.88,13.88,0,0,1,82.48,189.83Z" transform="translate(0 0.4)"/><path class="cls-17" d="M74.44,169.58a3,3,0,0,1,1.83,1.63.91.91,0,0,0,.39.33c.18.15.57.06.57.06a1.43,1.43,0,0,0,.51-.26,6,6,0,0,1,3.89-.86,14.57,14.57,0,0,1,2-.86c.49.29.21,1.2,0,1.7,1.06.15,0,2.15,0,2.15-.21,2.11-2.63,3.65-2.63,3.65a6.4,6.4,0,0,1-1.59,1.17,5,5,0,0,1-.72.34,2,2,0,0,1-.64.18H78v0a5.5,5.5,0,0,1-3.78-2.16A11,11,0,0,1,74,175a7.15,7.15,0,0,1,.08-1h0Z" transform="translate(0 0.4)"/><path class="cls-18" d="M83.67,171.31S83,173.58,82.2,174A18.46,18.46,0,0,1,83.67,171.31Z" transform="translate(0 0.4)"/><path class="cls-18" d="M83.63,173.46s-1.17,2.35-1.85,2.59Z" transform="translate(0 0.4)"/><path class="cls-18" d="M74,175a10.34,10.34,0,0,0,5.39,3.31,5,5,0,0,1-.72.34,2,2,0,0,1-.64.18l-.09,0h0l-1.25,1.47a33.5,33.5,0,0,1-2.48-3.48h0a1.31,1.31,0,0,0,0-.15A11,11,0,0,1,74,175Z" transform="translate(0 0.4)"/><path class="cls-3" d="M64.49,167s.42-6.74-3-8.12l.45,2.41S64.51,165.31,64.49,167Z" transform="translate(0 0.4)"/><path class="cls-3" d="M64.49,167s2-.38,2.37-3.85c0,0,.24-1.79,1.32-1.86a6.35,6.35,0,0,0,0,1.86s-3.21,4.48-2.8,5.71Z" transform="translate(0 0.4)"/><path class="cls-3" d="M101.85,166.2s-2.59,5.56,2.12,21.51C104,187.71,100,168,101.85,166.2Z" transform="translate(0 0.4)"/><path class="cls-3" d="M101.85,166.2s-1.81-6.51,1.28-8.57l.05,2.45S101.47,164.51,101.85,166.2Z" transform="translate(0 0.4)"/><path class="cls-3" d="M101.85,166.2s-2,0-3.12-3.28c0,0-.6-1.7-1.68-1.55a6.32,6.32,0,0,1,.39,1.82s4.06,3.73,3.92,5Z" transform="translate(0 0.4)"/><polygon class="cls-3" points="103.33 185.87 104.54 197.81 106.42 212.54 106.89 210.76 105.09 196.5 103.97 187.72 103.33 185.54 103.33 185.87"/><path class="cls-31" d="M99.07,116s-5.92.13-8.91,2.44c0,0-.77,1.33-.65,1.78l11.23-2.82Z" transform="translate(0 0.4)"/><ellipse class="cls-31" cx="94.42" cy="121.69" rx="3.1" ry="4.4"/><path class="cls-32" d="M175.15,116c-5.86-13.13-32.62-21.42-32.62-21.42a179.78,179.78,0,0,1-17.81-6c1.14-6.63,2-13.94,2-13.94.4-2.59.81-5,1.24-7.39,3.7-20.56,8.31-32.41,10-36.33a17.64,17.64,0,0,1,7.17-6,17.37,17.37,0,0,1,4.45-1.16l.3,0a15.58,15.58,0,0,1,4.31.07,12.58,12.58,0,0,1,5.92,1.85h0a9.84,9.84,0,0,1,2.6,2.37l.1.14c.14.21.27.4.4.61l0,0a13.72,13.72,0,0,1,.24,14.66,12.35,12.35,0,0,1-2,2.65s-.55,1.93,5-2.16a16,16,0,0,0,4.16-9.76c-.3-8.16-5.1-13.51-11.06-17h0c-10.44-6.14-24.46-6.67-24.46-6.67-33.47-1.3-56.38,20.45-69,37.25A121.39,121.39,0,0,0,55.85,64a225.8,225.8,0,0,0-44.18-.3C-2.45,66.78.2,76.81.2,76.81c3.6,14.26,31,21.78,40,23.89a57.78,57.78,0,0,0-1.09,6.5c-.17,1.55-.31,3.15-.38,4.89a6.26,6.26,0,0,1-1.78,4.06s-8.11,7-5.74,17.1c0,0,.69,7.62,8.11,10.09,0,0-8.7-6.33-3.56-16.71,0,0-1.78,18.29,15.23,19a10.4,10.4,0,0,1-6-4.66s0,0,0,0l-.88-4.2a14.59,14.59,0,0,0,9,7.75c.12,1.08,1.55,4,2.46,5.78-1.54,1.39-6.12,5.72-6.12,7.74a157.25,157.25,0,0,0-3.61,45.32v0a10.46,10.46,0,0,0,5.4,10c-.39,1.37-.82,2.92-1.28,4.6-.23.82-.46,1.67-.7,2.55a.65.65,0,0,0,0,.13c-4.8,17.59-12.23,46.33-11,51.7,0,0,18.83,17.43,30.09,23.46,0,.34,0,.53,0,.53.44,1.53.17,3.68.3,6.5.24,5.37.06,11.9-.06,15.06l-1.37,1.8-1,2.79c-1.41,3.35-3.69,7.89-3.69,7.89-2.57,6.82,1.66,8.56,1.66,8.56,4.85,1.9,8.34-.2,10.69-3l.43-.55a18.75,18.75,0,0,0,1.65-2.56,23.66,23.66,0,0,0,1.81-4.26l-.3-8.34-.9-2.07h0a160.76,160.76,0,0,0,1.62-17.55c.29-5.83.05-10.43.05-10.43s0-.27,0-.41,0-.32,0-.48c.12-2.16.67-5.87,1.21-9.14.08-.44.15-.79.2-1.06a11.14,11.14,0,0,0,1.47-.08v-1.81c1.57.08,3.45.15,5.48.17l.6,2.32,0,.05s.17.62.42,1.57c.8,3.22,1.64,6.87,1.93,9l.06.48c0,.14,0,.28,0,.41s.13,4.61.87,10.39a160.64,160.64,0,0,0,3,17.37h0L93.69,321l.35,8.34a24.08,24.08,0,0,0,2.15,4.1A18.21,18.21,0,0,0,98,335.9l.47.52c2.56,2.61,6.22,4.43,10.9,2.16,0,0,4.08-2.07,1-8.67,0,0-2.63-4.35-4.3-7.58l-1.22-2.69-1.5-1.7h0c-.37-3.14-1.07-9.63-1.25-15-.09-2.82-.53-4.95-.21-6.5,0,0,.12-5.63-.22-12.19-.14-2.59-.36-5.33-.68-7.93l.17,0q.51-.11,1-.24l.3-.07c.76,8.94,1.05,16.69.52,21.79,0,0,22-16.94,28.11-25.47,0,0-1.92-11-5.54-24.61a2.19,2.19,0,0,0,.6-1.34h0c1,.43,1.1-1.85,1.1-1.85.94-1.9-.3-4.49-.3-4.49a7.31,7.31,0,0,0-.54-1.49,68.08,68.08,0,0,0,7.58-2.69h0a26.39,26.39,0,0,0,4.53-2.2c-.19-.68-.46-1.54-.8-2.52a14.47,14.47,0,0,0,2.24-1.25h0c-.22-.8-.56-1.92-1-3.26a11.26,11.26,0,0,0,3-1.54,5,5,0,0,0,.2-.49c1.24-3.46-.9-8.71-.9-8.71a21.61,21.61,0,0,1-.61-3.69l.06-.75s0,.11,0,.28a27.15,27.15,0,0,0-.05-4.1c-.25-3.38-.85-6.83-.85-6.83s0-.26-.06-.39a33.71,33.71,0,0,0-5.85-13.4,54.82,54.82,0,0,0-4-5.1,47.6,47.6,0,0,0-4.15-4.19,20.37,20.37,0,0,1-2.71-2.55,117.5,117.5,0,0,0-9.12-20c-.22-.95-1.78-2.21-3.57-3.37a13.78,13.78,0,0,0-2.51-2.86l.65-.83c.51-.64.57-2,.52-3.32a12.08,12.08,0,0,0,5.09-4.24,25.72,25.72,0,0,0,6.23-5.05,20.15,20.15,0,0,0,5.38-17l2,.3A13.14,13.14,0,0,1,130,133.7s4.86-6.33,3.34-14.09c11.15,1.55,18.82,2.3,18.82,2.3C178.11,124.72,175.15,116,175.15,116ZM40.32,103.41c0,.16-.11.32-.16.47C40.21,103.73,40.27,103.57,40.32,103.41Zm-.24.7c-.06.15-.11.3-.16.45C40,104.41,40,104.26,40.08,104.11Zm-.22.63-.15.44Zm-.19.57c-.05.14-.09.28-.13.4C39.58,105.59,39.62,105.45,39.67,105.31Zm-.17.53c0,.12-.08.23-.11.34C39.42,106.07,39.46,106,39.5,105.84Zm.93-2.72c0-.15.11-.3.17-.47C40.54,102.82,40.48,103,40.43,103.12Zm.46-1.25c0,.14-.1.26-.15.39.16-.42.32-.86.5-1.32h0Zm91,131.66.86-.07-.88.08ZM68.45,318.17c0,1-.07,1.56-.07,1.56h0S68.41,319.15,68.45,318.17Zm-.88,3.56c0,.07,0,.14-.08.2a1.18,1.18,0,0,0,.07-.2ZM66.82,324Zm0,0h0Zm1.24,7.1s-2.9,0-1.6-5.75h0c-1.29,5.72,1.6,5.75,1.6,5.75A9.6,9.6,0,0,0,74.18,327l-.19-.13.2.13A9.62,9.62,0,0,1,68.06,331.06Zm6.79-5.33h0l.07.06h0l.11-.19c0,.07-.06.13-.1.19Zm1.36-2.83,0,.07,0-.08a12,12,0,0,0,.51-1.48A12.83,12.83,0,0,1,76.21,322.9Zm19.82.7a14,14,0,0,1-.6-1.4,15.06,15.06,0,0,0,.6,1.4l0,.07Zm1.59,2.72h0l-.09.08-.11-.19a1.88,1.88,0,0,0,.12.18h0l.08-.06h0Zm7.87-2.4h0Zm0,0Zm-.92-2.14.09.18-.09-.18Zm-1-1.94h0s-.08-.57-.19-1.54C103.51,319.25,103.59,319.82,103.59,319.82Zm1.21,11.27s2.88-.25,1.14-5.85h0c1.75,5.62-1.14,5.86-1.14,5.86a9.61,9.61,0,0,1-6.43-3.62c.06-.06.12-.09.19-.15l-.19.15A9.6,9.6,0,0,0,104.8,331.09Z" transform="translate(0 0.4)"/><path class="cls-33" d="M175.15,116c-5.86-13.13-32.62-21.42-32.62-21.42a179.78,179.78,0,0,1-17.81-6c1.14-6.63,2-13.94,2-13.94.4-2.59.81-5,1.24-7.39,3.7-20.56,8.31-32.41,10-36.33a17.64,17.64,0,0,1,7.17-6,17.37,17.37,0,0,1,4.45-1.16l.3,0a15.58,15.58,0,0,1,4.31.07,12.58,12.58,0,0,1,5.92,1.85h0a9.84,9.84,0,0,1,2.6,2.37l.1.14c.14.21.27.4.4.61l0,0a13.72,13.72,0,0,1,.24,14.66,12.35,12.35,0,0,1-2,2.65s-.55,1.93,5-2.16a16,16,0,0,0,4.16-9.76c-.3-8.16-5.1-13.51-11.06-17h0c-10.44-6.14-24.46-6.67-24.46-6.67-33.47-1.3-56.38,20.45-69,37.25A121.39,121.39,0,0,0,55.85,64a225.8,225.8,0,0,0-44.18-.3C-2.45,66.78.2,76.81.2,76.81c3.6,14.26,31,21.78,40,23.89a57.78,57.78,0,0,0-1.09,6.5c-.17,1.55-.31,3.15-.38,4.89a6.26,6.26,0,0,1-1.78,4.06s-8.11,7-5.74,17.1c0,0,.69,7.62,8.11,10.09,0,0-8.7-6.33-3.56-16.71,0,0-1.78,18.29,15.23,19a10.4,10.4,0,0,1-6-4.66s0,0,0,0l-.88-4.2a14.59,14.59,0,0,0,9,7.75c.12,1.08,1.55,4,2.46,5.78-1.54,1.39-6.12,5.72-6.12,7.74a157.25,157.25,0,0,0-3.61,45.32v0a10.46,10.46,0,0,0,5.4,10c-.39,1.37-.82,2.92-1.28,4.6-.23.82-.46,1.67-.7,2.55a.65.65,0,0,0,0,.13c-4.8,17.59-12.23,46.33-11,51.7,0,0,18.83,17.43,30.09,23.46,0,.34,0,.53,0,.53.44,1.53.17,3.68.3,6.5.24,5.37.06,11.9-.06,15.06l-1.37,1.8-1,2.79c-1.41,3.35-3.69,7.89-3.69,7.89-2.57,6.82,1.66,8.56,1.66,8.56,4.85,1.9,8.34-.2,10.69-3l.43-.55a18.75,18.75,0,0,0,1.65-2.56,23.66,23.66,0,0,0,1.81-4.26l-.3-8.34-.9-2.07h0a160.76,160.76,0,0,0,1.62-17.55c.29-5.83.05-10.43.05-10.43s0-.27,0-.41,0-.32,0-.48c.12-2.16.67-5.87,1.21-9.14.08-.44.15-.79.2-1.06a11.14,11.14,0,0,0,1.47-.08v-1.81c1.57.08,3.45.15,5.48.17l.6,2.32,0,.05s.17.62.42,1.57c.8,3.22,1.64,6.87,1.93,9l.06.48c0,.14,0,.28,0,.41s.13,4.61.87,10.39a160.64,160.64,0,0,0,3,17.37h0L93.69,321l.35,8.34a24.08,24.08,0,0,0,2.15,4.1A18.21,18.21,0,0,0,98,335.9l.47.52c2.56,2.61,6.22,4.43,10.9,2.16,0,0,4.08-2.07,1-8.67,0,0-2.63-4.35-4.3-7.58l-1.22-2.69-1.5-1.7h0c-.37-3.14-1.07-9.63-1.25-15-.09-2.82-.53-4.95-.21-6.5,0,0,.12-5.63-.22-12.19-.14-2.59-.36-5.33-.68-7.93l.17,0q.51-.11,1-.24l.3-.07c.76,8.94,1.05,16.69.52,21.79,0,0,22-16.94,28.11-25.47,0,0-1.92-11-5.54-24.61a2.19,2.19,0,0,0,.6-1.34h0c1,.43,1.1-1.85,1.1-1.85.94-1.9-.3-4.49-.3-4.49a7.31,7.31,0,0,0-.54-1.49,68.08,68.08,0,0,0,7.58-2.69h0a26.39,26.39,0,0,0,4.53-2.2c-.19-.68-.46-1.54-.8-2.52a14.47,14.47,0,0,0,2.24-1.25h0c-.22-.8-.56-1.92-1-3.26a11.26,11.26,0,0,0,3-1.54,5,5,0,0,0,.2-.49c1.24-3.46-.9-8.71-.9-8.71a21.61,21.61,0,0,1-.61-3.69l.06-.75s0,.11,0,.28a27.15,27.15,0,0,0-.05-4.1c-.25-3.38-.85-6.83-.85-6.83s0-.26-.06-.39a33.71,33.71,0,0,0-5.85-13.4,54.82,54.82,0,0,0-4-5.1,47.6,47.6,0,0,0-4.15-4.19,20.37,20.37,0,0,1-2.71-2.55,117.5,117.5,0,0,0-9.12-20c-.22-.95-1.78-2.21-3.57-3.37a13.78,13.78,0,0,0-2.51-2.86l.65-.83c.51-.64.57-2,.52-3.32a12.08,12.08,0,0,0,5.09-4.24,25.72,25.72,0,0,0,6.23-5.05,20.15,20.15,0,0,0,5.38-17l2,.3A13.14,13.14,0,0,1,130,133.7s4.86-6.33,3.34-14.09c11.15,1.55,18.82,2.3,18.82,2.3C178.11,124.72,175.15,116,175.15,116ZM40.32,103.41c0,.16-.11.32-.16.47C40.21,103.73,40.27,103.57,40.32,103.41Zm-.24.7c-.06.15-.11.3-.16.45C40,104.41,40,104.26,40.08,104.11Zm-.22.63-.15.44Zm-.19.57c-.05.14-.09.28-.13.4C39.58,105.59,39.62,105.45,39.67,105.31Zm-.17.53c0,.12-.08.23-.11.34C39.42,106.07,39.46,106,39.5,105.84Zm.93-2.72c0-.15.11-.3.17-.47C40.54,102.82,40.48,103,40.43,103.12Zm.46-1.25c0,.14-.1.26-.15.39.16-.42.32-.86.5-1.32h0Zm91,131.66.86-.07-.88.08ZM68.45,318.17c0,1-.07,1.56-.07,1.56h0S68.41,319.15,68.45,318.17Zm-.88,3.56c0,.07,0,.14-.08.2a1.18,1.18,0,0,0,.07-.2ZM66.82,324Zm0,0h0Zm1.24,7.1s-2.9,0-1.6-5.75h0c-1.29,5.72,1.6,5.75,1.6,5.75A9.6,9.6,0,0,0,74.18,327l-.19-.13.2.13A9.62,9.62,0,0,1,68.06,331.06Zm6.79-5.33h0l.07.06h0l.11-.19c0,.07-.06.13-.1.19Zm1.36-2.83,0,.07,0-.08a12,12,0,0,0,.51-1.48A12.83,12.83,0,0,1,76.21,322.9Zm19.82.7a14,14,0,0,1-.6-1.4,15.06,15.06,0,0,0,.6,1.4l0,.07Zm1.59,2.72h0l-.09.08-.11-.19a1.88,1.88,0,0,0,.12.18h0l.08-.06h0Zm7.87-2.4h0Zm0,0Zm-.92-2.14.09.18-.09-.18Zm-1-1.94h0s-.08-.57-.19-1.54C103.51,319.25,103.59,319.82,103.59,319.82Zm1.21,11.27s2.88-.25,1.14-5.85h0c1.75,5.62-1.14,5.86-1.14,5.86a9.61,9.61,0,0,1-6.43-3.62c.06-.06.12-.09.19-.15l-.19.15A9.6,9.6,0,0,0,104.8,331.09Z" transform="translate(0 0.4)"/><rect class="cls-34" x="0.36" height="30"/><rect class="cls-34" x="758.36" y="302" height="39"/></g></g></svg>