<svg xmlns="http://www.w3.org/2000/svg" xmlns:xlink="http://www.w3.org/1999/xlink" viewBox="0 0 758 341"><defs><style>.cls-1{isolation:isolate;}.cls-2{fill:#90654c;}.cls-3{fill:#8a5330;}.cls-4{fill:#f6d6b2;}.cls-5{fill:#e2ac6e;}.cls-6{fill:#f9d9b5;}.cls-7{fill:#e5af6e;}.cls-8{fill:#b7a238;}.cls-9{fill:#cf6335;}.cls-10{fill:#9d4b31;}.cls-11{fill:#a18046;}.cls-12{fill:#e69e1d;}.cls-13{fill:#d5772a;}.cls-14{fill:#9b4934;}.cls-15{fill:#7f3526;}.cls-16{fill:#e39b1d;}.cls-17{fill:#d2772a;}.cls-18{fill:none;}.cls-19{fill:#913a30;}.cls-20{mix-blend-mode:overlay;fill:url(#linear-gradient);}.cls-21{opacity:0.4;mix-blend-mode:multiply;fill:url(#linear-gradient-2);}.cls-22{fill:#fff;}</style><linearGradient id="linear-gradient" x1="155.65" y1="171.72" x2="333.92" y2="171.72" gradientUnits="userSpaceOnUse"><stop offset="0" stop-color="#f2deb6" stop-opacity="0"/><stop offset="0.99" stop-color="#f4e9d7" stop-opacity="0.6"/><stop offset="1" stop-color="#c7e1b7" stop-opacity="0.8"/></linearGradient><linearGradient id="linear-gradient-2" x1="200.41" y1="172.87" x2="299.9" y2="169.38" gradientUnits="userSpaceOnUse"><stop offset="0" stop-color="#564339"/><stop offset="0.22" stop-color="#564339" stop-opacity="0.87"/><stop offset="0.61" stop-color="#564339" stop-opacity="0.52"/><stop offset="1" stop-color="#564339" stop-opacity="0.1"/></linearGradient></defs><title>character9_8</title><g class="cls-1"><g id="Layer_1" data-name="Layer 1"><path class="cls-2" d="M239,332.39l0-.05A8.16,8.16,0,0,0,241,328.7h0c0-.16,0-.25,0-.25a4.88,4.88,0,0,0-.39-1.34c-.8-1.85-3-4.37-9.87-5.16a23.21,23.21,0,0,0-7.59,1.25,14.39,14.39,0,0,0-1.52.64l3.5,2.72S231.62,333.38,239,332.39Z" transform="translate(-0.36 0.4)"/><path class="cls-3" d="M218.92,325.59l-.43-1.65-1.4,2.26L216,330.56a4.46,4.46,0,0,0,1,3.42,11,11,0,0,0,6.22,3.55,15.38,15.38,0,0,0,3.83.29h.21c6.58-.35,9.9-3.31,11.71-5.42-7.4,1-13.9-5.83-13.9-5.83l-3.5-2.72a14.24,14.24,0,0,0-2,1.15C219.41,325.18,219.17,325.38,218.92,325.59Z" transform="translate(-0.36 0.4)"/><path class="cls-4" d="M233,323.77a4.07,4.07,0,0,0-2.82-1h0a11.08,11.08,0,0,0-3.38.21c-.85.16-1.6.34-2.28.52l-2.55.33.31.39c-2.68,1.06-3.26,2.09-3.26,2.09a10.68,10.68,0,0,0,6.55,2.07h0c.35,0,.71-.06,1.08-.11h0s4.34-.45,5.86-2.81A2.21,2.21,0,0,0,233,323.77Z" transform="translate(-0.36 0.4)"/><path class="cls-3" d="M228.26,322.62s3.3,2.05,3.56,5l1-1s-1.76-3.77-3.91-4.3Z" transform="translate(-0.36 0.4)"/><path class="cls-2" d="M279.33,334.64l.05,0a7.48,7.48,0,0,0,2.34-3.5h0c0-.16.07-.25.07-.25a4.75,4.75,0,0,0-.42-1.37c-.86-1.91-3.35-4.61-11.34-5.92a31.84,31.84,0,0,0-8.93.68,17.49,17.49,0,0,0-1.8.53l4,3S270.63,335.07,279.33,334.64Z" transform="translate(-0.36 0.4)"/><path class="cls-3" d="M256.34,325.78l-.69-1.15-1.25,1.55-.82,6.13s-.5,1.46,1.06,3.5c1.89,2.24,4.14,2.69,6.36,3a31.89,31.89,0,0,0,4.18.34h.24c7.71.16,11.71-2.55,13.91-4.53-8.7.43-16-6.88-16-6.88l-4-3a14.78,14.78,0,0,0-2.31,1C256.68,325.94,256.63,325.59,256.34,325.78Z" transform="translate(-0.36 0.4)"/><path class="cls-4" d="M270.31,325.44a4,4,0,0,0-2.65-1.36h0a11,11,0,0,0-3.37-.26c-.86,0-1.64.1-2.33.19l-2.57,0,.25.43c-2.81.67-3.52,1.61-3.52,1.61a10.68,10.68,0,0,0,6.19,3h0a7.69,7.69,0,0,0,1.08,0h0s4.35.16,6.19-2A2.2,2.2,0,0,0,270.31,325.44Z" transform="translate(-0.36 0.4)"/><path class="cls-3" d="M265.82,323.64s3,2.49,2.81,5.48l1.08-.81s-1.21-4-3.26-4.81Z" transform="translate(-0.36 0.4)"/><path class="cls-4" d="M221.05,294.83c-.87,5.93-3.56,25.62-2.1,31.52a7.15,7.15,0,0,0,8.31-1.17s2.23-19,4.74-24.26c0,0,.74-2.7,1.63-6.55-4.72-.21-9-.59-12.37-.95C221.22,293.7,221.14,294.18,221.05,294.83Z" transform="translate(-0.36 0.4)"/><path class="cls-4" d="M250,296.19l.06.4s.07.64.21,1.72c.76,5.95,2.79,22.41,5.78,27.71,0,0,5.73,3.68,8.8-1,0,0-3.41-18.06-2.4-23.8,0,0,0-3.07-.21-7.34,0-.44,0-.93-.08-1.4a77.09,77.09,0,0,1-12.46,1.78C249.85,295,250,295.6,250,296.19Z" transform="translate(-0.36 0.4)"/><path class="cls-5" d="M234.8,288.91c.62-3.12,1.18-6.48,1.5-9.6,1-9.62-12.74-.33-14.25,2,0,0-.1,7.27-.69,11.4l-.06.41s0,.11,0,.3c3.36.36,7.65.74,12.37.95,0-.19.09-.39.13-.58C234.1,292.29,234.46,290.64,234.8,288.91Z" transform="translate(-0.36 0.4)"/><path class="cls-5" d="M260.83,279.27c-1.63-9.53-12.36,3.1-13.19,5.75,0,0,1.36,5.17,2.09,9.25a77.09,77.09,0,0,0,12.46-1.78c-.06-1.14-.13-2.33-.23-3.58C261.72,285.74,261.36,282.36,260.83,279.27Z" transform="translate(-0.36 0.4)"/><path class="cls-4" d="M255.65,324.63l.43,2.77s1.46,2,7.27,1.64" transform="translate(-0.36 0.4)"/><path class="cls-6" d="M286.09,109.41c0,.13,0,.26,0,.39-.44,4.09-1.74,8.4-4.82,11.6a15.26,15.26,0,0,1-6.22,3.84l-1.78-8L272.5,114l-3.93-17.6,4.13-2.93a31.46,31.46,0,0,0,7.23,18.27C282,111,284.09,110.23,286.09,109.41Z" transform="translate(-0.36 0.4)"/><path class="cls-4" d="M310,225.1c2.31.8,3.18-.73,3.18-.73.51-3.26-2.2-6.17-3.94-7.67a13.81,13.81,0,0,1-3.92,7.51,5.64,5.64,0,0,0,2.4.58A3.35,3.35,0,0,0,310,225.1Z" transform="translate(-0.36 0.4)"/><path class="cls-7" d="M309.21,216.7l0,0h0l-4.93,2-2.17,1.85a6.89,6.89,0,0,0,1.4,2.34,5.8,5.8,0,0,0,1.81,1.35A13.81,13.81,0,0,0,309.21,216.7Z" transform="translate(-0.36 0.4)"/><path class="cls-8" d="M295.58,230l-1-.87c11.91-4.83,14.42-16.08,14.93-19.85l.85.74S309.72,224.77,295.58,230Z" transform="translate(-0.36 0.4)"/><path class="cls-2" d="M255.44,148.77c-1.39,1.9-2.95,3.27-4.8,3.41l-5.09-.61S227.82,179.15,225.93,197c0,0-7.48,10.08-11.11,18.2-.55,1.24-1.1,1.77-1.63,1.77-.8,0-1.57-1.09-2.26-2.75a33.87,33.87,0,0,1-1.35-4l-.89,1.29c-2.3,3.34-4.77,7-7.28,11-.75,1.17-1.5,2.37-2.25,3.57h0c-1.35,2.17-2.7,4.4-4,6.65l0,0,0,0a192.43,192.43,0,0,0-13.33,26.63s9.45,12.1,29.33,20.86a103.15,103.15,0,0,0,25.56,7.39c1.11.19,2.22.36,3.36.5,1.45.18,2.93.34,4.44.47,0,0,10.79.81,20.34-2a34.3,34.3,0,0,0,4.78-2c4.25-2.11,9.38-5.21,11.21-7,0,0-3.43-45.29-6.36-76.9v-12.3c-.71-7.67-3-4.1-4.24-8.46.09.18,3.55-.86,4.24,0-1-3.92-4.69-6.18-4.8-10.13a35.33,35.33,0,0,1-.23-8.47A100.54,100.54,0,0,1,255.44,148.77Z" transform="translate(-0.36 0.4)"/><path class="cls-3" d="M264.92,136.73c-6.59.12-30.37,6-30.37,6L219,167.16s-2.13,7.25.4,12h0a7.3,7.3,0,0,0,.88,1.26L210.82,204l2.71.58c-1.22,1.7-2.54,3.56-3.94,5.58,1.37,5,3.29,9.37,5.23,5,.77-1.71,1.71-3.51,2.71-5.28l0,0c14.71,10.14,20.18-3.85,20.18-3.85-3.45-4.06-8.73-11.23-10.87-14.17,4.07-17.57,18.73-40.37,18.73-40.37h0l5.08.61c7.77-.57,13.17-9.61,13.17-9.61l9.85-.23C272.41,142,266.57,136.7,264.92,136.73Z" transform="translate(-0.36 0.4)"/><path class="cls-2" d="M266.2,197.79l-9.88-26s.06-18.84,12.43-22.08c0,0,2.66-.62,6.59,5.47,2.5,3.87,5.52,10.46,8.68,21.65" transform="translate(-0.36 0.4)"/><path class="cls-2" d="M287.48,188.7l2.14,1.87,20,17.46s0,.46-.13,1.26c-.51,3.77-3,15-14.93,19.85l-.74.29-28.73-24.78-8.77-32.83L268,165.17l14.39,6.14Z" transform="translate(-0.36 0.4)"/><path class="cls-3" d="M261.93,154.66l-2.77.2s-4.51,9.63-2.84,17C256.32,171.82,255.84,163.77,261.93,154.66Z" transform="translate(-0.36 0.4)"/><path class="cls-3" d="M256.32,171.82s-4.77-2.54-5.11-7.56c0,0-1.87,2.86.34,5A8.16,8.16,0,0,0,256.32,171.82Z" transform="translate(-0.36 0.4)"/><path class="cls-9" d="M276.23,134.82l-5-3.89-47.57,2.61a24.49,24.49,0,0,1-7-1c-6.52-2.29-7.58-7.85-7.59-11.18a13.56,13.56,0,0,1,.24-2.67,16.93,16.93,0,0,0-.83,2.67,15.88,15.88,0,0,0,2.09,12.16c-5.64-3.78-5.92-8.73-5.2-12.16a14.46,14.46,0,0,1,1.51-4.06c2.85-4.55,2-11.27,2-11.27s63.22-26.58,63.78-13.49c0,.3,0,.59.05.88a31.46,31.46,0,0,0,7.23,18.27c.63.71,1,1.07,1,1.07a5.06,5.06,0,0,1-2.92-.44,11.7,11.7,0,0,1-3.57-2.54,8.46,8.46,0,0,0,1.9,3.06,15,15,0,0,0,1.06,1.08,13.68,13.68,0,0,1,3.83,7.46C282.33,128.75,276.23,134.82,276.23,134.82Z" transform="translate(-0.36 0.4)"/><path class="cls-5" d="M286.09,109.41c-2,.82-4.06,1.59-6.16,2.3a31.46,31.46,0,0,1-7.23-18.27l4-2.8,5.95-.12,2.61,6.67A40.28,40.28,0,0,1,286.09,109.41Z" transform="translate(-0.36 0.4)"/><path class="cls-10" d="M279.93,111.71l-1.91.63-1.67.52c-1.27.39-2.55.76-3.85,1.11-22.57,6.16-48.54,7.32-63.45,7.41a13.56,13.56,0,0,1,.24-2.67,16.93,16.93,0,0,0-.83,2.67c-1.1,0-2.14,0-3.11,0a14.46,14.46,0,0,1,1.51-4.06c2.85-4.55,2-11.27,2-11.27s63.22-26.58,63.78-13.49c0,.3,0,.59.05.88A31.46,31.46,0,0,0,279.93,111.71Z" transform="translate(-0.36 0.4)"/><path class="cls-10" d="M274.46,131.76s6.71-9.56-2.91-18.07c0,0,10.09,9.63-3,18.07" transform="translate(-0.36 0.4)"/><path class="cls-10" d="M209.19,121.38A10.38,10.38,0,0,0,217,132.56s-8.48-2-5.53-13.47Z" transform="translate(-0.36 0.4)"/><path class="cls-10" d="M216.49,119.09s-4.22,8.25,3.2,10c0,0-6.26-.77,0-10" transform="translate(-0.36 0.4)"/><path class="cls-10" d="M260.56,116.1s6.8,6.09,3.54,11.71c0,0,4.41-3.47-1.33-14.12S260.56,116.1,260.56,116.1Z" transform="translate(-0.36 0.4)"/><path class="cls-3" d="M256.32,171.82s6.28,29.69,7.59,32.31l11.72,9.61.63,7.28L263,206.38l-6.71-32.62Z" transform="translate(-0.36 0.4)"/><path class="cls-3" d="M287.47,189s-.05,10.33-3.1,14.28C284.37,203.3,291.66,198.8,287.47,189Z" transform="translate(-0.36 0.4)"/><path class="cls-2" d="M301.73,56.82s-53.48,6.28-64.61,9.23l-18,3.89s-1.43.29-3.8.81l22.47,18-12.52,18.37c19.85-2.59,95.6-12.87,108.56-43.3C333.82,63.81,337.45,53.19,301.73,56.82Z" transform="translate(-0.36 0.4)"/><path class="cls-3" d="M215.31,70.75c-9.49,2.09-34.32,8-45.7,14.66,0,0-12.29,4.7-10.74,11.89,0,0,8.13,14.55,61.6,10.39,0,0,1.75-.18,4.79-.58l15.27-19.28Z" transform="translate(-0.36 0.4)"/><path class="cls-2" d="M280.64,73.86s-2.54,2.27-8.75,4.85a82,82,0,0,1-28.17,8.62c-1.79.28-3.59.5-5.4.68a194.36,194.36,0,0,0-5.87-25.33C211.76-4.17,168,21.43,166.79,22.15l0,0a20.42,20.42,0,0,0-1.9,1.32,15.32,15.32,0,0,0-3.23,3.38,20.42,20.42,0,0,0-3.39,10.21c0,5.05-2,2.21-2,2.21a22.8,22.8,0,0,1-.6-5.68,1.8,1.8,0,0,1,0-.22A19.17,19.17,0,0,1,156,30.3a23.55,23.55,0,0,1,1.74-5.68,28.2,28.2,0,0,1,11.17-12.13c.25-.2,8.66-6.51,25.6-7.93,11.6-1.11,28,.56,47.37,11.52a86.48,86.48,0,0,1,11.16,9.24,103,103,0,0,1,17.76,22.44c.77,1.33,1.53,2.71,2.25,4.13.48.93.94,1.89,1.39,2.85h0A80.32,80.32,0,0,1,280.64,73.86Z" transform="translate(-0.36 0.4)"/><path class="cls-8" d="M280.64,73.86s-2.54,2.27-8.75,4.85a82,82,0,0,1-28.17,8.62c-1.79.28-3.59.5-5.4.68a194.36,194.36,0,0,0-5.87-25.33c13.33-2.14,27.83-6.45,38.37-14.92.77,1.33,1.53,2.71,2.25,4.13.48.93.94,1.89,1.39,2.85h0A80.32,80.32,0,0,1,280.64,73.86Z" transform="translate(-0.36 0.4)"/><path class="cls-3" d="M232.45,62.68a169,169,0,0,1-27.72,2c-.38-2.29-.76-4.42-1.1-6.31a84.65,84.65,0,0,0-4.87-16.31c-1.9-4.45-3.42-7.6-3.52-7.79C185.62,16.5,171.87,20,166.79,22.15,168,21.43,211.76-4.17,232.45,62.68Z" transform="translate(-0.36 0.4)"/><path class="cls-11" d="M238.32,88a173.65,173.65,0,0,1-30.74,0s-.05-.68-.12-1.88c-.49-6.89-1.63-14.82-2.73-21.47a169,169,0,0,0,27.72-2A194.36,194.36,0,0,1,238.32,88Z" transform="translate(-0.36 0.4)"/><path class="cls-3" d="M197.65,228.48s5.74,2,9.31,5.6c0,0,5.24,8.68,14.55,5.94,0,0,14.91-8.13,24.11-7.94,0,0-17.07-2.29-25.32-8.36s-18.89-1.26-18.89-1.26Z" transform="translate(-0.36 0.4)"/><path class="cls-12" d="M229.63,139.08l.18.2.11-.08Z" transform="translate(-0.36 0.4)"/><path class="cls-13" d="M259.52,142.26c-5.07.08-17.61.36-21.06-.27a81.25,81.25,0,0,1-8.54-2.79l-.11.08c1,1,8,6.65,21.39,8.15.49-.42,3.12-1.77,3.53-2.08A47.78,47.78,0,0,1,259.52,142.26Z" transform="translate(-0.36 0.4)"/><path class="cls-13" d="M228.78,144.18a8.86,8.86,0,0,1-.59,2.38c3.1,1.66,11.26,3.88,18.93,4.85,1.85-1.86,2.54-2.65,4.08-4-13.4-1.5-20.41-7.18-21.39-8.15a15.61,15.61,0,0,0-4.59,5.39,19.37,19.37,0,0,0,1.67,1.15C228,143.71,228.78,144.18,228.78,144.18Z" transform="translate(-0.36 0.4)"/><path class="cls-12" d="M196.52,205.43a28.57,28.57,0,0,0,.19,4.4c.23,1.44,1.37,7.84,3.87,9a1.83,1.83,0,0,1-.06,2.83s-1.79,3.87-3.75-11.34a23.88,23.88,0,0,1-.43,4s-2,5.74-.44,9.36c3.39.94,10.6,1.51,22.12-4.4a8.49,8.49,0,0,0-.65-3.07h0a3.08,3.08,0,0,1-.68-1.94,19.18,19.18,0,0,1,0-6.47l-.08,0S203.41,209.3,196.52,205.43Z" transform="translate(-0.36 0.4)"/><path class="cls-12" d="M210.71,172.56a52.77,52.77,0,0,0-4.19,4.72c2.9,1.87,11.26,4.73,20.91,5.86a75.41,75.41,0,0,1,4-11.38c-3.9-.35-12.53-1.54-16.68-3.78A28.73,28.73,0,0,1,210.71,172.56Z" transform="translate(-0.36 0.4)"/><path class="cls-12" d="M223.82,152.36a6.41,6.41,0,0,0,.44,1.61q.13-.58.27-1.14C224.28,152.68,224.05,152.52,223.82,152.36Z" transform="translate(-0.36 0.4)"/><path class="cls-12" d="M242.36,156.37c-4-.41-13.56-1-17.5-3.33-.36.57-.6.93-.6.93s-2.33,3.78-5.18,8c2.86,1.33,9.77,3,15.48,3.87a27,27,0,0,1,3.65-4.64S241,157.8,242.36,156.37Z" transform="translate(-0.36 0.4)"/><path class="cls-13" d="M218,219.27c.57-.3,1.15-.6,1.74-.93l.13-.07a8.29,8.29,0,0,1-2.52-2.07h0A8.49,8.49,0,0,1,218,219.27Z" transform="translate(-0.36 0.4)"/><path class="cls-13" d="M218,225.84a62.08,62.08,0,0,1-8.18,3.16h0s5.81,5.11,16,1.23c0,0,12.5-6.11,18.75-5.87,0,0-12.29-1.3-20.55-4.26C221.32,222.89,218,225.84,218,225.84Z" transform="translate(-0.36 0.4)"/><path class="cls-13" d="M228.78,144.18s-.75-.47-1.89,1.64c.39.24.82.49,1.3.74A8.86,8.86,0,0,0,228.78,144.18Z" transform="translate(-0.36 0.4)"/><path class="cls-13" d="M224.53,152.83q-.14.55-.27,1.14s.24-.36.6-.93Z" transform="translate(-0.36 0.4)"/><path class="cls-13" d="M196.71,209.83c0-.19,0-.3,0-.3,0,.27.07.53.1.79v-.09Z" transform="translate(-0.36 0.4)"/><path class="cls-13" d="M200.52,221.66a1.83,1.83,0,0,0,.06-2.83c-2.5-1.16-3.64-7.56-3.87-9l.06.4v.09C198.73,225.53,200.52,221.66,200.52,221.66Z" transform="translate(-0.36 0.4)"/><path class="cls-13" d="M219.62,192.74c-1.56,2.38-2.29,6-2.62,9.12h1.16C221.86,186.73,219.62,192.74,219.62,192.74Z" transform="translate(-0.36 0.4)"/><path class="cls-13" d="M221.21,188.61l-.38,0a13.93,13.93,0,0,0-.53,3A11.86,11.86,0,0,1,221.21,188.61Z" transform="translate(-0.36 0.4)"/><path class="cls-14" d="M226.89,145.82a19.37,19.37,0,0,1-1.67-1.15,12.58,12.58,0,0,0-.82,2.15,13.54,13.54,0,0,0-.58,5.54c.23.16.46.32.71.47A29.34,29.34,0,0,1,226.89,145.82Z" transform="translate(-0.36 0.4)"/><path class="cls-14" d="M224.86,153c3.94,2.29,13.47,2.92,17.5,3.33,1.44-1.53,2.74-2.93,4.76-5-7.67-1-15.83-3.19-18.93-4.85A39.3,39.3,0,0,1,224.86,153Z" transform="translate(-0.36 0.4)"/><path class="cls-15" d="M226.89,145.82a29.34,29.34,0,0,0-2.36,7l.33.21a39.3,39.3,0,0,0,3.33-6.48C227.71,146.31,227.28,146.06,226.89,145.82Z" transform="translate(-0.36 0.4)"/><path class="cls-14" d="M214.79,168c4.15,2.24,12.78,3.43,16.68,3.78a61.1,61.1,0,0,1,3.09-5.93c-5.71-.87-12.62-2.54-15.48-3.87C217.71,164,216.21,166.12,214.79,168Z" transform="translate(-0.36 0.4)"/><path class="cls-14" d="M202.52,183c4.29,4.2,13.77,5.31,18.31,5.61.28-.9.71-1.72,1.36-1.94a21.12,21.12,0,0,0-1,2c1.17.07,3.71.41,3.86.41.26-1.41,1.72-3.47,2.36-5.88-9.65-1.13-18-4-20.91-5.86A59,59,0,0,0,202.52,183Z" transform="translate(-0.36 0.4)"/><path class="cls-15" d="M222.19,186.65c-.65.22-1.08,1-1.36,1.94l.38,0A21.12,21.12,0,0,1,222.19,186.65Z" transform="translate(-0.36 0.4)"/><path class="cls-15" d="M217.61,204.07a21.72,21.72,0,0,1,.87-2.23h-.32C218,202.54,217.8,203.29,217.61,204.07Z" transform="translate(-0.36 0.4)"/><path class="cls-14" d="M216.72,207.59a46.54,46.54,0,0,1,.28-5.73c-11.45,0-17.45-2.69-19.94-4.21,0,.15,0,.29,0,.43s-.44,3.73-.5,7.35c6.89,3.87,20.09,2.39,20.09,2.39l.08,0a1.52,1.52,0,0,0,0-.21Z" transform="translate(-0.36 0.4)"/><path class="cls-15" d="M217.61,204.07a22.32,22.32,0,0,0-.89,3.51C217.05,206.31,217.34,205.15,217.61,204.07Z" transform="translate(-0.36 0.4)"/><path class="cls-15" d="M216.72,207.59h0a22.32,22.32,0,0,1,.89-3.51c.19-.78.38-1.53.55-2.22H217A46.54,46.54,0,0,0,216.72,207.59Z" transform="translate(-0.36 0.4)"/><path class="cls-14" d="M203.38,226.27l.64.19c12,.5,14-4,14-7.19-11.52,5.91-18.73,5.34-22.12,4.4a4.9,4.9,0,0,0,.24.52A13.92,13.92,0,0,0,203.38,226.27Z" transform="translate(-0.36 0.4)"/><path class="cls-15" d="M218,219.27c0,3.2-2,7.69-14,7.19,1.37.41,4.55,1.46,5.77,2.54a62.08,62.08,0,0,0,8.18-3.16s3.35-3,6-5.73a24.3,24.3,0,0,1-4.11-1.84l-.13.07C219.17,218.67,218.59,219,218,219.27Z" transform="translate(-0.36 0.4)"/><path class="cls-12" d="M225.07,189c-.15,0-2.69-.34-3.86-.41a11.86,11.86,0,0,0-.91,2.95,13.93,13.93,0,0,1,.53-3c-4.54-.3-14-1.41-18.31-5.61a36.11,36.11,0,0,0-5.46,14.67c2.49,1.52,8.49,4.19,19.94,4.21.33-3.09,1.06-6.74,2.62-9.12,0,0,2.24-6-1.46,9.11h.32a23.82,23.82,0,0,1,1.39-2.62h0Z" transform="translate(-0.36 0.4)"/><path class="cls-16" d="M279,142.9l-.19.22-.12-.09Z" transform="translate(-0.36 0.4)"/><path class="cls-17" d="M253.79,147.08c5.2,0,12.67-.18,16.19-.92a76.56,76.56,0,0,0,8.71-3.13l.12.09c-1,1-6.05,5.72-19.78,7.58-.51-.44-1-.82-1.42-1.14A29.43,29.43,0,0,0,253.79,147.08Z" transform="translate(-0.36 0.4)"/><path class="cls-18" d="M223.23,137.93c0-.08,0-.16,0-.25h0C223.22,137.77,223.23,137.85,223.23,137.93Z" transform="translate(-0.36 0.4)"/><path class="cls-18" d="M223.44,144.83c.08.26.16.48.24.69C223.6,145.32,223.52,145.08,223.44,144.83Z" transform="translate(-0.36 0.4)"/><path class="cls-18" d="M222.8,142.2c.06.25.12.47.19.68C222.92,142.67,222.86,142.45,222.8,142.2Z" transform="translate(-0.36 0.4)"/><path class="cls-18" d="M223.28,136.34c0-.2,0-.39,0-.6C223.3,136,223.3,136.14,223.28,136.34Z" transform="translate(-0.36 0.4)"/><path class="cls-18" d="M223.37,133.38c0-.19,0-.36.09-.56C223.42,133,223.4,133.19,223.37,133.38Z" transform="translate(-0.36 0.4)"/><path class="cls-18" d="M222.48,139.94c0,.22,0,.41.06.62C222.52,140.35,222.49,140.16,222.48,139.94Z" transform="translate(-0.36 0.4)"/><path class="cls-18" d="M222.6,141.16c0,.24.08.44.13.66C222.68,141.6,222.64,141.39,222.6,141.16Z" transform="translate(-0.36 0.4)"/><path class="cls-14" d="M281.89,137.3c0-.59-.07-1-.07-1a6.25,6.25,0,0,0,.05-1.86c-.48-3.49-4.58-2.56-4.58-2.56a36.76,36.76,0,0,1,.59,11.58,64.62,64.62,0,0,1,3.94-7.16,11.05,11.05,0,0,1-4.05,8.09c-.07.6.25,2.63.14,3.26,2.09-2.29,3.39-3.93,3.39-3.93C282.3,142.48,282,138.66,281.89,137.3Z" transform="translate(-0.36 0.4)"/><polygon class="cls-13" points="220.04 137.59 220.04 137.59 220.04 137.59 220.04 137.59"/><path class="cls-13" d="M223.22,137.68h0v0Z" transform="translate(-0.36 0.4)"/><path class="cls-15" d="M281.82,136.29a64.62,64.62,0,0,0-3.94,7.16c0,.3-.07.61-.11.93A11.05,11.05,0,0,0,281.82,136.29Z" transform="translate(-0.36 0.4)"/><path class="cls-12" d="M243.82,146.69a16.54,16.54,0,0,0-10.37,4.86c3.07,1.68,9.71,1,15.05,2.54C245.88,151.07,244.14,149.26,243.82,146.69Z" transform="translate(-0.36 0.4)"/><path class="cls-13" d="M243.64,144.63c-.54.18-1.1.37-1.67.58a29.17,29.17,0,0,0-8.52,6.34,16.54,16.54,0,0,1,10.37-4.86C243.66,145.44,243.64,144.63,243.64,144.63Z" transform="translate(-0.36 0.4)"/><path class="cls-12" d="M249.59,142.18c.08.23.16.46.25.67l-.15,0,.32,0a7.88,7.88,0,0,1,0-.82Z" transform="translate(-0.36 0.4)"/><path class="cls-15" d="M249.69,142.88c-.63.15-3.1.76-6.05,1.75,0,0,0,.81.18,2.06a32.13,32.13,0,0,1,7.13,0,15.71,15.71,0,0,1-.94-3.81Z" transform="translate(-0.36 0.4)"/><path class="cls-13" d="M263.28,145.67l-2.32-1.2A22.41,22.41,0,0,0,250,142.84a15.71,15.71,0,0,0,.94,3.81,42.72,42.72,0,0,1,8.51,1.75c3.25,1.19,4.94,1.16,5.82.73A20.78,20.78,0,0,0,263.28,145.67Z" transform="translate(-0.36 0.4)"/><path class="cls-14" d="M263.28,145.67l1.21.52a28.53,28.53,0,0,0-3.53-1.72l2.32,1.2Z" transform="translate(-0.36 0.4)"/><path class="cls-14" d="M268.72,130.83a58.64,58.64,0,0,1-7,.33c.26,5.28.2,11-1,13.2l.22.11a28.53,28.53,0,0,1,3.53,1.72c1.95.85,3.53,1.62,4.7,2.23.09-1.74.35-7.42.22-13.25a6.05,6.05,0,0,1-1.13-.62S267.3,132,268.72,130.83Z" transform="translate(-0.36 0.4)"/><path class="cls-15" d="M268.72,130.83c-1.42,1.21-.44,3.72-.44,3.72a6.05,6.05,0,0,0,1.13.62c0-1.48-.09-3-.19-4.4Z" transform="translate(-0.36 0.4)"/><path class="cls-15" d="M265.28,149.13a1.74,1.74,0,0,0,.9-1.92l-2.9-1.54A20.78,20.78,0,0,1,265.28,149.13Z" transform="translate(-0.36 0.4)"/><path class="cls-14" d="M269.19,148.42c0,.35,0,.55,0,.55a26.36,26.36,0,0,0-3-1.76,1.74,1.74,0,0,1-.9,1.92,9,9,0,0,1,1.23,5.21c1.77-1.26,3.81-1.08,5.41-2.54l-.34-2.06S270.74,149.23,269.19,148.42Z" transform="translate(-0.36 0.4)"/><path class="cls-14" d="M264.49,146.19l-1.21-.52h0l2.9,1.54h0C265.61,146.84,265.05,146.51,264.49,146.19Z" transform="translate(-0.36 0.4)"/><path class="cls-13" d="M231.09,128.77l2-.35-2.21.38Z" transform="translate(-0.36 0.4)"/><path class="cls-12" d="M228.64,149.6h0c1.49,1.13,3.59,1.23,4.81,2,0,0-2.28-2.82-5-6C228.66,146.59,228.31,148.6,228.64,149.6Z" transform="translate(-0.36 0.4)"/><path class="cls-12" d="M241.92,145.23a56.85,56.85,0,0,1,.65-17.42c-1.72-.14-3.48-.2-5.17-.21-1.58.32-3.07.6-4.33.82h0l-2,.35h0a34,34,0,0,0-2.89,13.36,3.2,3.2,0,0,1,.58.89s4.94,6.58,4.67,8.53a29.17,29.17,0,0,1,8.52-6.34Z" transform="translate(-0.36 0.4)"/><path class="cls-13" d="M228.78,143a3.2,3.2,0,0,0-.58-.89,25.35,25.35,0,0,0,.29,3.45c2.68,3.15,5,6,5,6C233.72,149.6,228.78,143,228.78,143Z" transform="translate(-0.36 0.4)"/><path class="cls-12" d="M223.68,145.52c-.08-.21-.16-.43-.24-.69,0-.06-.44-1.89-.45-2-.07-.21-.13-.43-.19-.68s-.05-.26-.07-.38-.09-.42-.13-.66l-.06-.6c0-.21,0-.4-.06-.62s.75-1.73.75-2c0-.08,0-.16,0-.25-.91-.9-2.41-.33-2.82-.5,0,1.68,3.28,8.43,3.28,8.43v-.09Z" transform="translate(-0.36 0.4)"/><path class="cls-13" d="M223.22,137.33c0-.1,0-.21,0-.32a3.71,3.71,0,0,0-2.84.17h0c.41.17,1.91-.4,2.82.5Z" transform="translate(-0.36 0.4)"/><polygon class="cls-14" points="232.71 128.82 232.71 128.82 232.7 128.83 232.71 128.82"/><path class="cls-14" d="M230.85,128.8l-1.63.28,1.87-.31Z" transform="translate(-0.36 0.4)"/><path class="cls-14" d="M229.21,129v.07l0-.07Z" transform="translate(-0.36 0.4)"/><path class="cls-14" d="M229.25,129l0,.07.14-.09Z" transform="translate(-0.36 0.4)"/><path class="cls-14" d="M229.36,129l-.14.09,1.63-.28Z" transform="translate(-0.36 0.4)"/><path class="cls-14" d="M266.18,147.21h0a26.36,26.36,0,0,1,3,1.76s0-.2,0-.55c-1.17-.61-2.75-1.38-4.7-2.23C265.05,146.51,265.61,146.84,266.18,147.21Z" transform="translate(-0.36 0.4)"/><path class="cls-14" d="M243.82,146.69c.32,2.57,2.06,4.38,4.68,7.4h0c1.73.5,3.41,1,4.93,1.39,2,.53,3.34-.62,4.53-.32-1.46-2.35-5.33-3.83-7-8.51A32.13,32.13,0,0,0,243.82,146.69Z" transform="translate(-0.36 0.4)"/><polygon class="cls-14" points="248.14 154.49 248.14 154.49 248.14 154.49 248.14 154.49"/><path class="cls-14" d="M246.21,143.57a26.15,26.15,0,0,0-4.24,1.64c.57-.21,1.13-.4,1.67-.58h0Z" transform="translate(-0.36 0.4)"/><path class="cls-19" d="M249.59,142.18l-3.38,1.39a23.55,23.55,0,0,1,3.48-.69l.15,0C249.75,142.64,249.67,142.41,249.59,142.18Z" transform="translate(-0.36 0.4)"/><path class="cls-19" d="M246.21,143.57l-2.57,1.06h0c3-1,5.42-1.6,6.05-1.75A23.55,23.55,0,0,0,246.21,143.57Z" transform="translate(-0.36 0.4)"/><path class="cls-14" d="M249.59,142.18c-1.22-3.39-.63-9,.11-13.09a30.88,30.88,0,0,0-7.13-1.28,56.85,56.85,0,0,0-.65,17.42l.05,0a26.15,26.15,0,0,1,4.24-1.64Z" transform="translate(-0.36 0.4)"/><path class="cls-12" d="M277.53,144.55a6.12,6.12,0,0,1,.35-1.1,36.76,36.76,0,0,0-.59-11.58s-3.75,5-7.88,3.3c.13,5.83-.13,11.51-.22,13.25,1.55.81,2.39,1.32,2.39,1.32l.34,2.06c.89-.81,2.11-1.41,2.92-2.21,1.12-1.12,2.19-1,3.07-2,.11-.63-.21-2.66-.14-3.26A2.59,2.59,0,0,1,277.53,144.55Z" transform="translate(-0.36 0.4)"/><path class="cls-13" d="M269.22,130.77c.1,1.44.16,2.92.19,4.4,4.13,1.71,7.88-3.3,7.88-3.3a21,21,0,0,0-5.48-1.61A20.48,20.48,0,0,1,269.22,130.77Z" transform="translate(-0.36 0.4)"/><path class="cls-13" d="M277.77,144.38c0-.32.08-.63.11-.93a6.12,6.12,0,0,0-.35,1.1A2.59,2.59,0,0,0,277.77,144.38Z" transform="translate(-0.36 0.4)"/><path class="cls-14" d="M228.49,145.58c-2.06-2.42-3.58-6.23-5.27-7.9,0,.09,0,.17,0,.25,0,.27-.77,1.76-.75,2s0,.41.06.62l.06.6c0,.23.08.44.13.66s0,.26.07.38.12.47.19.68c0,.06.43,1.89.45,2,.08.25.07.29.15.49l.06.14,0,.15.34.29c.84.71,2.21,1.88,4.62,3.7h0C228.31,148.6,228.66,146.59,228.49,145.58Z" transform="translate(-0.36 0.4)"/><path class="cls-15" d="M223.22,137.33v.35c1.69,1.67,3.21,5.48,5.27,7.9a25.35,25.35,0,0,1-.29-3.45c-1.22-1.4-3.09-4.13-5-5.12C223.23,137.12,223.22,137.23,223.22,137.33Z" transform="translate(-0.36 0.4)"/><path class="cls-14" d="M222.73,141.82c0,.12,0,.26.07.38C222.77,142.08,222.75,141.94,222.73,141.82Z" transform="translate(-0.36 0.4)"/><path class="cls-14" d="M223.28,136.34c0,.23,0,.46,0,.67h0C223.25,136.8,223.27,136.57,223.28,136.34Z" transform="translate(-0.36 0.4)"/><path class="cls-14" d="M222.54,140.56l.06.6Z" transform="translate(-0.36 0.4)"/><path class="cls-14" d="M223.68,145.61" transform="translate(-0.36 0.4)"/><path class="cls-14" d="M223,142.88c0,.06.43,1.89.45,2S223,142.94,223,142.88Z" transform="translate(-0.36 0.4)"/><path class="cls-14" d="M223.32,135.74c.05-.38,0-2,.05-2.36C223.3,133.79,223.37,135.36,223.32,135.74Z" transform="translate(-0.36 0.4)"/><path class="cls-14" d="M223.23,137.93c0,.28-.77,1.76-.75,2C222.46,139.69,223.23,138.2,223.23,137.93Z" transform="translate(-0.36 0.4)"/><path class="cls-14" d="M223.24,137c0,.11,0,.22,0,.32,0-.1,0-.21,0-.32Z" transform="translate(-0.36 0.4)"/><path class="cls-12" d="M261.74,131.16l-1.76,0a51.22,51.22,0,0,1-8.65-1.37h0a12.87,12.87,0,0,0-1.63-.67c-.74,4.13-1.33,9.7-.11,13.09L250,142a7.88,7.88,0,0,0,0,.82A22.41,22.41,0,0,1,261,144.47l-.22-.11C261.94,142.14,262,136.44,261.74,131.16Z" transform="translate(-0.36 0.4)"/><path class="cls-12" d="M266.51,154.34a9,9,0,0,0-1.23-5.21c-.88.43-2.57.46-5.82-.73a42.72,42.72,0,0,0-8.51-1.75c1.68,4.68,5.55,6.16,7,8.51a1.23,1.23,0,0,0,.54,0C260,155.18,264.2,155.14,266.51,154.34Z" transform="translate(-0.36 0.4)"/><path class="cls-14" d="M223.43,144.78a6.84,6.84,0,0,0,.25.83l.13-.12Z" transform="translate(-0.36 0.4)"/><path class="cls-14" d="M231.09,128.77l-.13,0h-.12A13.73,13.73,0,0,0,225,130c-.13.06-.22.13-.26.14v0a3.65,3.65,0,0,0-.84.69c-.19.65-.32,1.27-.44,1.86l0,.08c0,.19,0,.37-.08.56-.07.42,0,2-.05,2.36,0,.22,0,.4,0,.61s0,.44,0,.66c1.88,1,3.74,3.71,5,5.12A34,34,0,0,1,231.09,128.77Z" transform="translate(-0.36 0.4)"/><path class="cls-12" d="M222.38,133.06a32.75,32.75,0,0,0-2,4.12,3.69,3.69,0,0,1,2.85-.17c0-.22,0-.44,0-.66s0-.39,0-.61c0-.38,0-1.94.05-2.36,0-.19,0-.37.08-.56l0-.08c.12-.59.25-1.21.44-1.86A13.33,13.33,0,0,0,222.38,133.06Z" transform="translate(-0.36 0.4)"/><path class="cls-3" d="M161.63,26.87a20.42,20.42,0,0,0-3.39,10.21c0,5.05-2,2.21-2,2.21a22.8,22.8,0,0,1-.6-5.68,1.8,1.8,0,0,1,0-.22A19.17,19.17,0,0,1,156,30.3a23.55,23.55,0,0,1,1.74-5.68S157.93,29.16,161.63,26.87Z" transform="translate(-0.36 0.4)"/><path class="cls-20" d="M301.73,56.82s-11.58,1.36-25.07,3.11q-1-2.66-2.2-5.18h0c-.45-1-.91-1.92-1.39-2.85-.72-1.42-1.48-2.8-2.25-4.13a103,103,0,0,0-17.76-22.44,86.48,86.48,0,0,0-11.16-9.24c-19.39-11-35.77-12.63-47.37-11.52-16.94,1.42-25.35,7.73-25.6,7.93a28.2,28.2,0,0,0-11.17,12.13A23.55,23.55,0,0,0,156,30.3a19.17,19.17,0,0,0-.35,3.09,1.8,1.8,0,0,0,0,.22,22.8,22.8,0,0,0,.6,5.68s1.95,2.84,2-2.21a20.42,20.42,0,0,1,3.39-10.21,15.32,15.32,0,0,1,3.23-3.38,20.42,20.42,0,0,1,1.9-1.32l0,0c5.08-2.13,18.83-5.65,28.45,12.12.1.19,1.62,3.34,3.52,7.79a84.65,84.65,0,0,1,4.87,16.31c.34,1.89.72,4,1.1,6.31.43,2.6.87,5.4,1.27,8.25-11.54,2.85-27.8,7.44-36.39,12.48,0,0-12.29,4.7-10.74,11.89,0,0,6.94,12.41,50.12,11,0,2.36-.32,6.11-2.13,9a14.46,14.46,0,0,0-1.51,4.06c-.72,3.43-.44,8.38,5.2,12.16a15.88,15.88,0,0,1-2.09-12.16,16.93,16.93,0,0,1,.83-2.67,13.56,13.56,0,0,0-.24,2.67,15.69,15.69,0,0,0,.14,2,10.09,10.09,0,0,0,3.41,6.87,11.55,11.55,0,0,0,4,2.35,26.21,26.21,0,0,0,5.48,1,33.17,33.17,0,0,0-1.73,3.66v0c0,1.69,3.28,8.41,3.28,8.41l.34.29.54.45c-.05.16-.11.31-.16.47a13.54,13.54,0,0,0-.58,5.54,6.41,6.41,0,0,0,.44,1.61s-2.33,3.78-5.18,8c-1.37,2-2.87,4.16-4.29,6a28.73,28.73,0,0,1-4.08,4.58,52.77,52.77,0,0,0-4.19,4.72,59,59,0,0,0-4,5.7h0a36.1,36.1,0,0,0-5.46,14.68c0,.14,0,.28,0,.42s-.44,3.73-.5,7.35a28.57,28.57,0,0,0,.19,4.4c0-.19,0-.3,0-.3,0,.27.07.53.1.79a23.88,23.88,0,0,1-.43,4s-2,5.74-.44,9.36a4.12,4.12,0,0,0,.24.52,12.39,12.39,0,0,0,3.26,1.46l-.24.38h0l-1.2,2-.31.48h0q-1.28,2.09-2.54,4.21l0,0,0,0a192.43,192.43,0,0,0-13.33,26.63s9.45,12.1,29.33,20.86a100.24,100.24,0,0,0,10.85,4c-.08,2.49-.25,6.05-.61,8.51l-.06.41s0,.11,0,.3-.12.76-.21,1.41c-.8,5.45-3.13,22.49-2.37,29.81l-.19-.7-1.4,2.26L216,330.56a4.46,4.46,0,0,0,1,3.42,11,11,0,0,0,6.22,3.55,15.38,15.38,0,0,0,3.83.29h.21c6.58-.35,9.9-3.31,11.71-5.42l0-.05A8.16,8.16,0,0,0,241,328.7h0c0-.16,0-.25,0-.25a4.88,4.88,0,0,0-.39-1.34c-.8-1.85-3-4.37-9.87-5.16a20.68,20.68,0,0,0-3.08.2c.74-5.59,2.46-17.29,4.35-21.23,0,0,.74-2.7,1.63-6.55,0-.19.09-.39.13-.58.34-1.5.7-3.15,1-4.88.11-.53.2-1.06.3-1.6.53.09,1,.19,1.58.27,1.11.19,2.22.36,3.36.5,1.45.18,2.93.34,4.44.47,0,0,1.58.12,4.06.11.4,1.71.86,3.77,1.19,5.61.12.68.23,1.33.3,1.92l.06.4s.07.64.21,1.72c.71,5.55,2.52,20.26,5.19,26.51l-1.09,1.36-.82,6.13s-.5,1.46,1.06,3.5c1.89,2.24,4.14,2.69,6.36,3a31.89,31.89,0,0,0,4.18.34h.24c7.71.16,11.71-2.55,13.91-4.53l.05,0a7.48,7.48,0,0,0,2.34-3.5h0c0-.16.07-.25.07-.25a4.75,4.75,0,0,0-.42-1.37c-.86-1.91-3.35-4.61-11.34-5.92a31.65,31.65,0,0,0-3.54,0l0,0-.14,0c-.53,0-1.09.07-1.68.13-.77-4.31-3-17.65-2.15-22.43,0,0,0-3.07-.21-7.34,0-.44,0-.93-.08-1.4-.06-1.14-.13-2.33-.23-3.58,0-.52-.09-1.06-.14-1.59,1-.22,2-.46,3-.75a34.3,34.3,0,0,0,4.78-2c4.25-2.11,9.38-5.21,11.21-7,0,0-2.58-34.1-5.18-63.78v0l18.19,15.69.74-.29,1,.87a21.72,21.72,0,0,0,9-6.18,5.13,5.13,0,0,0,.67.38,5.64,5.64,0,0,0,2.4.58,3.35,3.35,0,0,0,2.28.31c2.31.8,3.18-.73,3.18-.73.51-3.26-2.2-6.17-3.94-7.67l0,0h0l-.42.17a24,24,0,0,0,1.58-6.81l-.85-.74c.11-.8.13-1.26.13-1.26l-20-17.46-2.14-1.87L284,176.89l0,0q-.84-3-1.67-5.53v0h0c-2.54-7.9-4.95-12.92-7-16.1a19.28,19.28,0,0,0-3-3.73,27.12,27.12,0,0,0,2.52-1.89c1.12-1.12,2.19-1,3.07-2,2.09-2.29,3.39-3.93,3.39-3.93,1-1.23.65-5.05.59-6.41,0-.59-.07-1-.07-1a6.25,6.25,0,0,0,.05-1.86,3,3,0,0,0-3.26-2.67c1.57-2.47,3.25-6.21,2.63-10.36,3.08-3.2,4.38-7.51,4.82-11.6,0-.13,0-.26,0-.39a40.28,40.28,0,0,0-.86-12.22l-.78-2c22.19-6.7,43.11-16.7,49.37-31.4C333.82,63.81,337.45,53.19,301.73,56.82Z" transform="translate(-0.36 0.4)"/><path class="cls-21" d="M301.73,56.82s-11.58,1.36-25.07,3.11q-1-2.66-2.2-5.18h0c-.45-1-.91-1.92-1.39-2.85-.72-1.42-1.48-2.8-2.25-4.13a103,103,0,0,0-17.76-22.44,86.48,86.48,0,0,0-11.16-9.24c-19.39-11-35.77-12.63-47.37-11.52-16.94,1.42-25.35,7.73-25.6,7.93a28.2,28.2,0,0,0-11.17,12.13A23.55,23.55,0,0,0,156,30.3a19.17,19.17,0,0,0-.35,3.09,1.8,1.8,0,0,0,0,.22,22.8,22.8,0,0,0,.6,5.68s1.95,2.84,2-2.21a20.42,20.42,0,0,1,3.39-10.21,15.32,15.32,0,0,1,3.23-3.38,20.42,20.42,0,0,1,1.9-1.32l0,0c5.08-2.13,18.83-5.65,28.45,12.12.1.19,1.62,3.34,3.52,7.79a84.65,84.65,0,0,1,4.87,16.31c.34,1.89.72,4,1.1,6.31.43,2.6.87,5.4,1.27,8.25-11.54,2.85-27.8,7.44-36.39,12.48,0,0-12.29,4.7-10.74,11.89,0,0,6.94,12.41,50.12,11,0,2.36-.32,6.11-2.13,9a14.46,14.46,0,0,0-1.51,4.06c-.72,3.43-.44,8.38,5.2,12.16a15.88,15.88,0,0,1-2.09-12.16,16.93,16.93,0,0,1,.83-2.67,13.56,13.56,0,0,0-.24,2.67,15.69,15.69,0,0,0,.14,2,10.09,10.09,0,0,0,3.41,6.87,11.55,11.55,0,0,0,4,2.35,26.21,26.21,0,0,0,5.48,1,33.17,33.17,0,0,0-1.73,3.66v0c0,1.69,3.28,8.41,3.28,8.41l.34.29.54.45c-.05.16-.11.31-.16.47a13.54,13.54,0,0,0-.58,5.54,6.41,6.41,0,0,0,.44,1.61s-2.33,3.78-5.18,8c-1.37,2-2.87,4.16-4.29,6a28.73,28.73,0,0,1-4.08,4.58,52.77,52.77,0,0,0-4.19,4.72,59,59,0,0,0-4,5.7h0a36.1,36.1,0,0,0-5.46,14.68c0,.14,0,.28,0,.42s-.44,3.73-.5,7.35a28.57,28.57,0,0,0,.19,4.4c0-.19,0-.3,0-.3,0,.27.07.53.1.79a23.88,23.88,0,0,1-.43,4s-2,5.74-.44,9.36a4.12,4.12,0,0,0,.24.52,12.39,12.39,0,0,0,3.26,1.46l-.24.38h0l-1.2,2-.31.48h0q-1.28,2.09-2.54,4.21l0,0,0,0a192.43,192.43,0,0,0-13.33,26.63s9.45,12.1,29.33,20.86a100.24,100.24,0,0,0,10.85,4c-.08,2.49-.25,6.05-.61,8.51l-.06.41s0,.11,0,.3-.12.76-.21,1.41c-.8,5.45-3.13,22.49-2.37,29.81l-.19-.7-1.4,2.26L216,330.56a4.46,4.46,0,0,0,1,3.42,11,11,0,0,0,6.22,3.55,15.38,15.38,0,0,0,3.83.29h.21c6.58-.35,9.9-3.31,11.71-5.42l0-.05A8.16,8.16,0,0,0,241,328.7h0c0-.16,0-.25,0-.25a4.88,4.88,0,0,0-.39-1.34c-.8-1.85-3-4.37-9.87-5.16a20.68,20.68,0,0,0-3.08.2c.74-5.59,2.46-17.29,4.35-21.23,0,0,.74-2.7,1.63-6.55,0-.19.09-.39.13-.58.34-1.5.7-3.15,1-4.88.11-.53.2-1.06.3-1.6.53.09,1,.19,1.58.27,1.11.19,2.22.36,3.36.5,1.45.18,2.93.34,4.44.47,0,0,1.58.12,4.06.11.4,1.71.86,3.77,1.19,5.61.12.68.23,1.33.3,1.92l.06.4s.07.64.21,1.72c.71,5.55,2.52,20.26,5.19,26.51l-1.09,1.36-.82,6.13s-.5,1.46,1.06,3.5c1.89,2.24,4.14,2.69,6.36,3a31.89,31.89,0,0,0,4.18.34h.24c7.71.16,11.71-2.55,13.91-4.53l.05,0a7.48,7.48,0,0,0,2.34-3.5h0c0-.16.07-.25.07-.25a4.75,4.75,0,0,0-.42-1.37c-.86-1.91-3.35-4.61-11.34-5.92a31.65,31.65,0,0,0-3.54,0l0,0-.14,0c-.53,0-1.09.07-1.68.13-.77-4.31-3-17.65-2.15-22.43,0,0,0-3.07-.21-7.34,0-.44,0-.93-.08-1.4-.06-1.14-.13-2.33-.23-3.58,0-.52-.09-1.06-.14-1.59,1-.22,2-.46,3-.75a34.3,34.3,0,0,0,4.78-2c4.25-2.11,9.38-5.21,11.21-7,0,0-2.58-34.1-5.18-63.78v0l18.19,15.69.74-.29,1,.87a21.72,21.72,0,0,0,9-6.18,5.13,5.13,0,0,0,.67.38,5.64,5.64,0,0,0,2.4.58,3.35,3.35,0,0,0,2.28.31c2.31.8,3.18-.73,3.18-.73.51-3.26-2.2-6.17-3.94-7.67l0,0h0l-.42.17a24,24,0,0,0,1.58-6.81l-.85-.74c.11-.8.13-1.26.13-1.26l-20-17.46-2.14-1.87L284,176.89l0,0q-.84-3-1.67-5.53v0h0c-2.54-7.9-4.95-12.92-7-16.1a19.28,19.28,0,0,0-3-3.73,27.12,27.12,0,0,0,2.52-1.89c1.12-1.12,2.19-1,3.07-2,2.09-2.29,3.39-3.93,3.39-3.93,1-1.23.65-5.05.59-6.41,0-.59-.07-1-.07-1a6.25,6.25,0,0,0,.05-1.86,3,3,0,0,0-3.26-2.67c1.57-2.47,3.25-6.21,2.63-10.36,3.08-3.2,4.38-7.51,4.82-11.6,0-.13,0-.26,0-.39a40.28,40.28,0,0,0-.86-12.22l-.78-2c22.19-6.7,43.11-16.7,49.37-31.4C333.82,63.81,337.45,53.19,301.73,56.82Z" transform="translate(-0.36 0.4)"/><rect class="cls-22" height="30"/><rect class="cls-22" x="758" y="302" height="39"/></g></g></svg>