<svg xmlns="http://www.w3.org/2000/svg" xmlns:xlink="http://www.w3.org/1999/xlink" viewBox="0 0 758.36 341"><defs><style>.cls-1{isolation:isolate;}.cls-2{fill:#e39b1d;}.cls-3{fill:#d2772a;}.cls-4{fill:#984934;}.cls-5{fill:#7f3526;}.cls-6{fill:none;}.cls-7{fill:#8a5330;}.cls-8{fill:#f6d6b2;}.cls-9{fill:#704126;}.cls-10{fill:#59321e;}.cls-11{fill:#e2ac6e;}.cls-12{fill:#cc6335;}.cls-13{fill:#9d4b31;}.cls-14{fill:#90654c;}.cls-15{fill:#a18046;}.cls-16{fill:#b7a238;}.cls-17{fill:#f9d9b5;}.cls-18{fill:#e5af6e;}.cls-19{fill:#f9dab6;}.cls-20{fill:#7f492b;}.cls-21{fill:#6b3822;}.cls-22{fill:#9e3089;}.cls-23{fill:#bc40a1;}.cls-24{fill:#d860c1;}.cls-25{fill:url(#linear-gradient);}.cls-26{fill:#9b4934;}.cls-27{fill:#d5772a;}.cls-28{fill:#e69e1d;}.cls-29{fill:#913a30;}.cls-30{fill:#cf6335;}.cls-31{fill:#6b3c22;}.cls-32{mix-blend-mode:overlay;fill:url(#linear-gradient-2);}.cls-33{fill:#564339;opacity:0.5;mix-blend-mode:multiply;}.cls-34{fill:#fff;}</style><linearGradient id="linear-gradient" x1="-25.11" y1="60.74" x2="107.19" y2="29.89" gradientTransform="translate(27.24 45.84) rotate(7.02)" gradientUnits="userSpaceOnUse"><stop offset="0" stop-color="#90654c"/><stop offset="0.67" stop-color="#8a5330"/><stop offset="1" stop-color="#6d4530"/></linearGradient><linearGradient id="linear-gradient-2" x1="33.59" y1="103.8" x2="160.57" y2="217.69" gradientUnits="userSpaceOnUse"><stop offset="0" stop-color="#f2deb6" stop-opacity="0"/><stop offset="0.97" stop-color="#f4e9d6" stop-opacity="0.57"/><stop offset="1" stop-color="#c7e1b7" stop-opacity="0.8"/></linearGradient></defs><title>character9_2</title><g class="cls-1"><g id="Layer_1" data-name="Layer 1"><path class="cls-2" d="M106.36,147.45a2.37,2.37,0,0,1-.17.2l-.1-.07Z" transform="translate(0 0.4)"/><path class="cls-3" d="M83.6,152c4.72-.19,11.49-.58,14.67-1.35a76.51,76.51,0,0,0,7.82-3l.1.07c-.86.95-5.32,5.23-17.73,7.33q-.72-.55-1.32-1A26.41,26.41,0,0,0,83.6,152Z" transform="translate(0 0.4)"/><path class="cls-2" d="M107.42,152.16a8.21,8.21,0,0,0,.66,2.19c-2.79,1.71-7.36,3.72-14.45,5-1.82-1.63-3.67-3.23-5.17-4.39,12.41-2.1,16.87-6.38,17.73-7.33a14.31,14.31,0,0,1,4.56,4.78,15.42,15.42,0,0,1-1.49,1.16C108.09,151.68,107.42,152.16,107.42,152.16Z" transform="translate(0 0.4)"/><path class="cls-2" d="M116.78,193.18a11,11,0,0,1,1,2.7,13.52,13.52,0,0,0-.64-2.74c4.21-.51,13-2,16.77-6.18a33.71,33.71,0,0,1,5.85,13.4c-2.24,1.54-7.69,4.34-18.36,4.95-.48-2.86-1.34-6.23-2.92-8.37,0,0-2.41-5.48,1.83,8.42H120a23.28,23.28,0,0,0-3.16-4.58s-1.29-1.5-1.59-5.41c0,0-.13-.75-.44-2C115,193.36,115.69,193.31,116.78,193.18Z" transform="translate(0 0.4)"/><path class="cls-2" d="M140.67,207.58a27.15,27.15,0,0,1,.05,4.1c-.14,1.35-.87,7.38-3.13,8.59a1.71,1.71,0,0,0,.2,2.64s1.87,3.52,2.9-10.76a21.61,21.61,0,0,0,.61,3.69s2.14,5.25.9,8.71c-3.11,1-9.81,1.95-20.85-3a7.78,7.78,0,0,1,.44-2.89h0a2.91,2.91,0,0,0,.54-1.84,18,18,0,0,0-.34-6l.08,0S134.45,211.54,140.67,207.58Z" transform="translate(0 0.4)"/><path class="cls-2" d="M125.73,177.67a47.6,47.6,0,0,1,4.15,4.19c-2.6,1.89-7.65,4.57-16.59,6.13a69.62,69.62,0,0,0-4.36-10.4c3.62-.54,9-1.67,12.76-4A26.37,26.37,0,0,0,125.73,177.67Z" transform="translate(0 0.4)"/><path class="cls-2" d="M112.47,159.53a5.59,5.59,0,0,1-.34,1.52q-.15-.54-.3-1.05C112.05,159.85,112.26,159.69,112.47,159.53Z" transform="translate(0 0.4)"/><path class="cls-2" d="M99,164.35c3.73-.59,9-1.79,12.55-4.14.36.52.6.84.6.84s2.37,3.4,5.24,7.18a43.43,43.43,0,0,1-11.62,4,45.2,45.2,0,0,0-4.58-5.76S100.3,165.61,99,164.35Z" transform="translate(0 0.4)"/><path class="cls-3" d="M121.35,221.59l-1.67-.77-.12-.06a7.75,7.75,0,0,0,2.23-2.06h0A7.78,7.78,0,0,0,121.35,221.59Z" transform="translate(0 0.4)"/><path class="cls-3" d="M121.74,227.71a57.93,57.93,0,0,0,7.78,2.53h0s-5.15,5.07-14.85,2c0,0-12-5-17.78-4.5,0,0,11.39-1.84,18.93-5C118.46,225.14,121.74,227.71,121.74,227.71Z" transform="translate(0 0.4)"/><path class="cls-3" d="M107.42,152.16s.67-.48,1.84,1.43c-.35.24-.74.5-1.18.76A8.21,8.21,0,0,1,107.42,152.16Z" transform="translate(0 0.4)"/><path class="cls-3" d="M111.83,160q.15.51.3,1.05s-.24-.32-.6-.84Z" transform="translate(0 0.4)"/><path class="cls-3" d="M140.72,211.68c0-.17,0-.28,0-.28l-.06.75v-.09C140.7,211.94,140.71,211.81,140.72,211.68Z" transform="translate(0 0.4)"/><path class="cls-3" d="M137.79,222.91a1.71,1.71,0,0,1-.2-2.64c2.26-1.21,3-7.24,3.13-8.59,0,.13,0,.26,0,.38v.09C139.66,226.43,137.79,222.91,137.79,222.91Z" transform="translate(0 0.4)"/><path class="cls-3" d="M118.48,196.94c1.58,2.14,2.44,5.51,2.92,8.37l-1.09.05C116.07,191.46,118.48,196.94,118.48,196.94Z" transform="translate(0 0.4)"/><path class="cls-3" d="M116.78,193.18l.36,0a13.52,13.52,0,0,1,.64,2.74A11,11,0,0,0,116.78,193.18Z" transform="translate(0 0.4)"/><path class="cls-4" d="M109.26,153.59a15.42,15.42,0,0,0,1.49-1.16,10.54,10.54,0,0,1,.88,2,12.65,12.65,0,0,1,.84,5.14c-.21.16-.42.32-.64.47A28.26,28.26,0,0,0,109.26,153.59Z" transform="translate(0 0.4)"/><path class="cls-4" d="M111.53,160.21c-3.56,2.35-8.82,3.55-12.55,4.14-1.42-1.36-3.37-3.18-5.35-5,7.09-1.3,11.66-3.31,14.45-5A36.76,36.76,0,0,0,111.53,160.21Z" transform="translate(0 0.4)"/><path class="cls-5" d="M109.26,153.59a28.26,28.26,0,0,1,2.57,6.41l-.3.21a36.76,36.76,0,0,1-3.45-5.86C108.52,154.09,108.91,153.83,109.26,153.59Z" transform="translate(0 0.4)"/><path class="cls-4" d="M121.69,173.61c-3.75,2.31-9.14,3.44-12.76,4a55.54,55.54,0,0,0-3.18-5.37,43.43,43.43,0,0,0,11.62-4C118.76,170.05,120.27,172,121.69,173.61Z" transform="translate(0 0.4)"/><path class="cls-4" d="M133.91,187c-3.78,4.14-12.56,5.67-16.77,6.18-.32-.83-.76-1.56-1.38-1.73a17.05,17.05,0,0,1,1,1.77c-1.09.13-1.81.18-2,.19-.31-1.31-.81-3.17-1.54-5.38,8.94-1.56,14-4.24,16.59-6.13A54.82,54.82,0,0,1,133.91,187Z" transform="translate(0 0.4)"/><path class="cls-5" d="M115.76,191.41c.62.17,1.06.9,1.38,1.73l-.36,0A17.05,17.05,0,0,0,115.76,191.41Z" transform="translate(0 0.4)"/><path class="cls-5" d="M120.94,207.41a20.14,20.14,0,0,0-.92-2h.29C120.51,206,120.72,206.68,120.94,207.41Z" transform="translate(0 0.4)"/><path class="cls-4" d="M122,210.64a44.88,44.88,0,0,0-.55-5.33c10.67-.61,16.12-3.41,18.36-4.95,0,.13.05.25.06.39s.6,3.45.85,6.83c-6.22,4-18.6,3.26-18.6,3.26l-.08,0a1.06,1.06,0,0,1,0-.19Z" transform="translate(0 0.4)"/><path class="cls-5" d="M120.94,207.41a21.81,21.81,0,0,1,1,3.22C121.58,209.47,121.25,208.4,120.94,207.41Z" transform="translate(0 0.4)"/><path class="cls-5" d="M122,210.64h0a21.81,21.81,0,0,0-1-3.22c-.22-.73-.43-1.41-.63-2l1.09-.05A44.88,44.88,0,0,1,122,210.64Z" transform="translate(0 0.4)"/><path class="cls-4" d="M135.36,227.35l-.59.21c-11.18,1.1-13.3-3-13.42-6,11,4.91,17.74,4,20.85,3a5,5,0,0,1-.2.49A13,13,0,0,1,135.36,227.35Z" transform="translate(0 0.4)"/><path class="cls-5" d="M121.35,221.59c.12,3,2.24,7.07,13.42,6-1.25.46-4.16,1.6-5.25,2.68a57.93,57.93,0,0,1-7.78-2.53s-3.28-2.57-5.92-5a24.08,24.08,0,0,0,3.74-1.93l.12.06Z" transform="translate(0 0.4)"/><path class="cls-6" d="M76.09,319.62a10.27,10.27,0,0,1-1.82,1.53l2.49.52C76.56,321,76.35,320.35,76.09,319.62Z" transform="translate(0 0.4)"/><path class="cls-6" d="M72.89,321.88a7.6,7.6,0,0,1-4.83.37,14.36,14.36,0,0,0,1.08,3Z" transform="translate(0 0.4)"/><path class="cls-7" d="M78,321.93a19.16,19.16,0,0,1-.64-2.31l-1.24-1.9c0,1.18,0,1.9,0,1.9.26.73.47,1.41.67,2.05Z" transform="translate(0 0.4)"/><path class="cls-7" d="M69.14,325.24s0,.33-.07.93c-.13,1.59-.41,5-.82,8.55a18.63,18.63,0,0,1-1.47-2.67,23.51,23.51,0,0,1-1.53-4.36l.86-8.3,1-2a22.41,22.41,0,0,0,.91,4.88A14.4,14.4,0,0,0,69.14,325.24Z" transform="translate(0 0.4)"/><path class="cls-8" d="M80.39,274.24c0,3.1-.22,6.46-.51,9.59-.61,6.54-1.55,12.09-1.55,12.09a34.11,34.11,0,0,0-1.26,6.77c-.6,5.34-.85,11.87-.94,15,0,1.18,0,1.89,0,1.89.07.21.15.41.21.61.17.47.31.92.44,1.34l0,.1c0,.18.11.36.16.54l.18.65,0,0a6.23,6.23,0,0,1,.23,1v0h0V324a5,5,0,0,0-.7-.27,7,7,0,0,0-2.63-.32,9.26,9.26,0,0,0-3.07.8c-.23.1-.45.2-.65.31h0c-.4.21-.72.41-.93.54l-.15.1-.09.06c-.1-.2-.2-.41-.28-.6a12.4,12.4,0,0,1-.77-2.24l0-.14a22.94,22.94,0,0,1-.92-4.88,161.69,161.69,0,0,1-.45-17.62,24.39,24.39,0,0,1,2.44-10.17c0-.13,0-.27,0-.41.16-4.12-2.58-11.53-2.58-11.53C67.83,275.2,80.39,264.68,80.39,274.24Z" transform="translate(0 0.4)"/><path class="cls-8" d="M69.81,326.44a9.66,9.66,0,0,0,5.84,4.5s2.89.17,2-5.64A9,9,0,0,0,69.81,326.44Z" transform="translate(0 0.4)"/><path class="cls-9" d="M76.67,323.68l.22,1.41a9.14,9.14,0,0,0-7.08,1.34c-.25-.4-.48-.81-.67-1.19C69.65,324.86,73.06,322.58,76.67,323.68Z" transform="translate(0 0.4)"/><path class="cls-9" d="M77.63,325.31l-.26-1.37a.43.43,0,0,1,.13.05C77.6,324.45,77.57,324.92,77.63,325.31Z" transform="translate(0 0.4)"/><path class="cls-9" d="M81.34,330.58s-2-4.68-3.16-8.12l-.81-2.84c.06,1.49-.64,1.94-.64,1.94.27.85.49,1.74.65,2.44.1.47.19.92.25,1.31.92,5.83-2,5.64-2,5.64a9.62,9.62,0,0,1-5.84-4.52c-.25-.4-.48-.81-.67-1.19,0,0,0,.34-.1.93,0,0-.76,4.75-2.26,5.88a18.63,18.63,0,0,0,1.47,2.67l.39.58c2.16,3,5.51,5.29,10.47,3.71C79.11,339,83.45,337.56,81.34,330.58Z" transform="translate(0 0.4)"/><path class="cls-10" d="M77.63,325.31a6.61,6.61,0,0,0-.74-.22l-.22-1.41a5.37,5.37,0,0,1,.7.25h0Z" transform="translate(0 0.4)"/><path class="cls-10" d="M69.14,325.24s.55,1,.67,1.19l.09-.06-.67-1.2Z" transform="translate(0 0.4)"/><path class="cls-6" d="M90.85,319.71a9.51,9.51,0,0,0,1.88,1.45l-2.46.63C90.43,321.14,90.62,320.46,90.85,319.71Z" transform="translate(0 0.4)"/><path class="cls-6" d="M94.14,321.83A7.55,7.55,0,0,0,99,322a14.17,14.17,0,0,1-1,3Z" transform="translate(0 0.4)"/><path class="cls-7" d="M89,322.11a18,18,0,0,0,.54-2.34l1.16-1.95c.08,1.18.13,1.89.13,1.89-.23.75-.42,1.43-.58,2.08Z" transform="translate(0 0.4)"/><path class="cls-7" d="M98,325s0,.34.12.93c.2,1.58.62,4.94,1.19,8.5a18.57,18.57,0,0,0,1.35-2.72,23,23,0,0,0,1.33-4.44L100.8,319l-1.12-2A23.44,23.44,0,0,1,99,322,14.17,14.17,0,0,1,98,325Z" transform="translate(0 0.4)"/><path class="cls-8" d="M99.41,300.44a152,152,0,0,1,.26,16.64,31.24,31.24,0,0,1-.35,3.39c-.06.39-.14.74-.21,1.07,0,.16-.09.31-.13.45s0,.05,0,.14a12.33,12.33,0,0,1-.68,2.27c-.07.2-.16.41-.25.62l-.09-.06-.16-.09a7.07,7.07,0,0,0-.66-.36,2.23,2.23,0,0,0-.31-.15l-.65-.28a9.38,9.38,0,0,0-3.1-.67,6.89,6.89,0,0,0-2.63.44,4.93,4.93,0,0,0-.67.3v-.06h0A4.75,4.75,0,0,1,90,323a0,0,0,0,1,0,0c.06-.21.11-.43.17-.66s.08-.36.13-.54l0-.11c.08-.34.18-.69.29-1.07s.16-.59.26-.9c0,0,0-.71-.12-1.89-.23-3.09-.75-9.42-1.56-14.68a36.11,36.11,0,0,0-1.6-7s-1.19-5.5-2.09-12c-.42-3.11-.79-6.46-.93-9.56-.42-9.55,12.35-2,13.71.36,0,0-1.65,10.1-1.3,14.21,0,.14,0,.28,0,.41A34.48,34.48,0,0,1,99.41,300.44Z" transform="translate(0 0.4)"/><path class="cls-8" d="M97.41,326.25A9.63,9.63,0,0,1,91.78,331s-2.88.29-2.22-5.55A9,9,0,0,1,97.41,326.25Z" transform="translate(0 0.4)"/><path class="cls-9" d="M90.44,323.8l-.15,1.42a9.1,9.1,0,0,1,7.13,1c.22-.42.44-.84.61-1.23C97.51,324.67,94,322.53,90.44,323.8Z" transform="translate(0 0.4)"/><path class="cls-9" d="M89.56,325.47l.2-1.38a.29.29,0,0,0-.13.05C89.55,324.61,89.6,325.08,89.56,325.47Z" transform="translate(0 0.4)"/><path class="cls-9" d="M86.08,330.9s1.76-4.77,2.79-8.26l.69-2.87c0,1.49.72,1.92.72,1.92-.22.85-.41,1.76-.54,2.46-.08.47-.14.93-.18,1.32-.66,5.86,2.22,5.54,2.22,5.54a9.66,9.66,0,0,0,5.64-4.76c.22-.42.44-.84.61-1.23,0,0,.07.34.14.93,0,0,1,4.71,2.52,5.78a18.57,18.57,0,0,1-1.35,2.72l-.37.6c-2,3.05-5.26,5.53-10.29,4.17C88.68,339.22,84.28,338,86.08,330.9Z" transform="translate(0 0.4)"/><path class="cls-10" d="M89.56,325.47a6.43,6.43,0,0,1,.73-.25l.15-1.42a4.43,4.43,0,0,0-.68.28h0Z" transform="translate(0 0.4)"/><path class="cls-10" d="M98,325s-.51,1.05-.61,1.23l-.1-.06.62-1.23Z" transform="translate(0 0.4)"/><path class="cls-11" d="M80.39,274.24c0,3.1-.22,6.46-.51,9.59-.61,6.54-1.55,12.09-1.55,12.09a34.11,34.11,0,0,0-1.26,6.77,44.8,44.8,0,0,1-10.38-2.94,24.39,24.39,0,0,1,2.44-10.17c0-.13,0-.27,0-.41.16-4.12-2.58-11.53-2.58-11.53C67.83,275.2,80.39,264.68,80.39,274.24Z" transform="translate(0 0.4)"/><path class="cls-11" d="M97,289.55a34.48,34.48,0,0,1,2.42,10.89,50,50,0,0,1-10.25,2.7,36.11,36.11,0,0,0-1.6-7s-1.19-5.5-2.09-12c-.42-3.11-.79-6.46-.93-9.56-.42-9.55,12.88-5,14.24-2.57,0,0-2.18,13-1.83,17.14C97,289.28,97,289.42,97,289.55Z" transform="translate(0 0.4)"/><path class="cls-12" d="M81.87,240.4a127.49,127.49,0,0,0,20.4,0l-2.4-24-17.63-1.24H67.54l-3.16,22.56h0l-5.16,36.89s4.65,1.43,10,2.65c1.48.34,3,.66,4.51.93A31.33,31.33,0,0,0,82,279Zm-13.36-1.78" transform="translate(0 0.4)"/><path class="cls-12" d="M105.71,274.68a15.39,15.39,0,0,1-4.54,1.61c-8.94,1.92-23.6.55-23.6.55l2.77-36.57a128.54,128.54,0,0,0,21.93.17l1,10.36Z" transform="translate(0 0.4)"/><path class="cls-13" d="M105.71,274.68a15.39,15.39,0,0,1-4.54,1.61c-.52-10.17-3.9-30.91-3.9-30.91l2.62,1.45,3.42,4Z" transform="translate(0 0.4)"/><path class="cls-14" d="M131.09,272.3C125,280.83,103,297.77,103,297.77c1-9.18-.74-27-3.1-44.81-.2-1.56-.42-3.13-.63-4.69-1.89-13.75-4.07-27.12-5.61-36.18-.24-1.38-.46-2.66-.66-3.83h0l.69-1.45,1.42-3,.06-.48-.06.06.07-.16.18-1.49,3.56,1,9.32,2.71a69.91,69.91,0,0,1,7.37,13h0c.88,2,1.73,4,2.53,6.07C126.53,246,131.09,272.3,131.09,272.3Z" transform="translate(0 0.4)"/><path class="cls-13" d="M99.88,253a3.32,3.32,0,0,1-.41.43s-1,2.05-1.73,1.27c-.29.46-.87,1.21-1.39,1a15,15,0,0,1-.47-2.16,6.05,6.05,0,0,1-1.54-3.69,1.32,1.32,0,0,0-.08-.56s-.14-.37-.38-.43a1,1,0,0,0-.49-.14,3,3,0,0,1-2.38-.55l2.29-1.9-.15,0,0,0-.3-.08c-1.19-.28-2.4-.59-3.63-1l.49-2.9-1.4-.39h0l5.28-29.78c1.54,9.06,3.72,22.43,5.61,36.18C99.46,249.83,99.68,251.4,99.88,253Z" transform="translate(0 0.4)"/><path class="cls-7" d="M118.12,224.55c-.28,8-.68,16.54-1.18,20.32a13.72,13.72,0,0,1-2.55.28c-.08,1-.16,1.93-.25,2.62a26.76,26.76,0,0,1-5,.27h0a67.51,67.51,0,0,1-8-.49,6.84,6.84,0,0,1-.07,1.59A6.5,6.5,0,0,1,99.88,253c-.2-1.56-.42-3.13-.63-4.69-1.89-13.75-4.07-27.12-5.61-36.18l.34-1.93L95.6,203l3.3-.29,9.32,2.71a69.91,69.91,0,0,1,7.37,13h0C116.47,220.44,117.32,222.47,118.12,224.55Z" transform="translate(0 0.4)"/><path class="cls-13" d="M82.81,225.76s5.76,1,7.79,1.11,1.29-6.11,1.29-6.11l-5.07-.62-2.48,1" transform="translate(0 0.4)"/><path class="cls-13" d="M73.38,242.76l.31-10.84s11.2-4.33,12.16-7.25S83.33,218,83.33,218l-11.7,5.27-5,3.79,1,14.71.76,9.07" transform="translate(0 0.4)"/><path class="cls-13" d="M82,277.14s-.37-45,0-51.25,1.33.25,1.33.25V277.2Z" transform="translate(0 0.4)"/><path class="cls-13" d="M73.69,278.26c-1.5-.27-3-.59-4.51-.93l-4.8-23.08,1.44-6.18,7.56-5.31S72.58,263,73.69,278.26Z" transform="translate(0 0.4)"/><path class="cls-14" d="M68.91,203.19l0-.36,4.09-1A71.92,71.92,0,0,0,71.9,210l-1.5-3.2-1.42-3-.06-.48.06.06Z" transform="translate(0 0.4)"/><path class="cls-14" d="M91.63,200.62l3.71,1.08-.18,1.49-.07.16.06-.06-.06.48-1.42,3L93,208.25C92.16,203.48,91.63,200.62,91.63,200.62Z" transform="translate(0 0.4)"/><path class="cls-7" d="M65.87,174.08h0c-.41-1.23,2.8-5.71,2.8-5.71a6.35,6.35,0,0,1,0-1.86c-1.08.07-1.32,1.86-1.32,1.86-.42,3.47-2.38,3.85-2.38,3.85l.89,1.85Z" transform="translate(0 0.4)"/><path class="cls-14" d="M68.41,203.68l-.09-.71.56-.14,0,.36.07.16-.06-.06.06.48.07.15C68.8,203.81,68.57,203.73,68.41,203.68Z" transform="translate(0 0.4)"/><path class="cls-15" d="M71.68,221.62s3.63,2.48,10.76.83c0,0,6.7.57,7.78.76s2.75-12,2.75-12l.54-7.15-3-.73-19.1,6.32" transform="translate(0 0.4)"/><path class="cls-16" d="M79.79,171.39l.42-.74,2.93,1,2.92-1s.49.83,1.24,2.16c-.86-5-1.69-9.34-2.38-12.24l.64-.09L84,156.83l-3,3.28,1.38,0C81.72,163,80.79,166.94,79.79,171.39Z" transform="translate(0 0.4)"/><path class="cls-16" d="M90.52,193.58l-3.07,1.27s-2.29-16.1-4.31-21.5c-2,5.4-4.32,21.5-4.32,21.5l-3.67-1.52c-1.05,5.52-1.87,10.48-2.16,13.87a12.14,12.14,0,0,1-.28,1.64l.78.53L82,215.23l10-3.69.94-.35a7.82,7.82,0,0,1-.63-2.51C92,205,91.36,199.59,90.52,193.58Z" transform="translate(0 0.4)"/><path class="cls-15" d="M76.91,192.85s10.15,4.52,15.91,4.58-12.2,15.74-12.2,15.74l-11.44-4.73,4.38-12.09" transform="translate(0 0.4)"/><path class="cls-15" d="M93.53,211l-1.5.56c-3.71-21.66-7.11-39.08-7.11-39.08-2.19.78-2.88,0-2.88,0-1.24,1.07-6.72,27.78-8.55,36.91-.38,1.88-.62,3-.62,3l-.66-3.89-2.93-17.16L65.14,167,77,155.13h4.56L85.15,154l3.47,12.8s0,.43.13,1.22C89.38,173.44,91.92,195.47,93.53,211Z" transform="translate(0 0.4)"/><path class="cls-14" d="M82.39,160.13l-1.38,0c-13.86-.25-17.76-5.76-17.76-5.76l8-.53-12.06-1.74L56,153.8l2.11,53.7,1.75,4.9s10.22,7.17,12.88-3.56A12.14,12.14,0,0,0,73,207.2c.29-3.39,1.11-8.35,2.16-13.87l-5-2.06c.64-4.17,7.77-16.72,9.6-19.88C80.79,166.94,81.72,163,82.39,160.13Z" transform="translate(0 0.4)"/><path class="cls-14" d="M111.79,158.51l-6.27,1.83-2.94-6.3c-4.18,3.67-13.45,5.9-17,6.44l-.64.09c.69,2.9,1.52,7.25,2.38,12.24,2.56,4.5,8.22,14.76,8.79,18.46l-5.57,2.31c.84,6,1.5,11.46,1.82,15.1a7.82,7.82,0,0,0,.63,2.51c4.06,9.19,11.52,2.2,11.52,2.2l4.5-5.67Z" transform="translate(0 0.4)"/><path class="cls-7" d="M84,156.83s.34,1.39.9,3.74c3.26.48,15.68-.69,18.35-7.52Z" transform="translate(0 0.4)"/><path class="cls-7" d="M71.22,153.8,59.83,154s7.74,6.33,22.52,6.3c.69-2.94,1.18-5,1.18-5Z" transform="translate(0 0.4)"/><path class="cls-15" d="M83.14,171.61l-2.93-1-.42.74c-1.55,6.83-3.29,14.85-4.64,21.94l3.67,1.52s2.3-16.1,4.32-21.5a5.77,5.77,0,0,0-.75-1.49Z" transform="translate(0 0.4)"/><path class="cls-7" d="M70.19,191.27l5,2.06c1.35-7.09,3.09-15.11,4.64-21.94C78,174.55,70.83,187.1,70.19,191.27Z" transform="translate(0 0.4)"/><path class="cls-15" d="M83.14,171.61l.74.25a5.5,5.5,0,0,0-.74,1.49c2,5.4,4.31,21.5,4.31,21.5l3.07-1.27c-.94-6.8-2.1-14.31-3.22-20.77-.75-1.33-1.24-2.16-1.24-2.16Z" transform="translate(0 0.4)"/><path class="cls-7" d="M96.09,191.27c-.57-3.7-6.23-14-8.79-18.46,1.12,6.46,2.28,14,3.22,20.77Z" transform="translate(0 0.4)"/><path class="cls-15" d="M83.14,171.61l-.75.25a5.77,5.77,0,0,1,.75,1.49,5.5,5.5,0,0,1,.74-1.49Z" transform="translate(0 0.4)"/><path class="cls-7" d="M64.49,167.05s3.68,4.9,2.37,21.48C66.86,188.53,66.69,168.37,64.49,167.05Z" transform="translate(0 0.4)"/><path class="cls-14" d="M105,240.78l-4.64-.23a32.37,32.37,0,0,0,5.7,1.25l-.53-1.25Z" transform="translate(0 0.4)"/><path class="cls-7" d="M109,199.48s-7.4-8.28-13-4.33l-1.42,3,2.5-2.33A24.33,24.33,0,0,1,109,199.48Z" transform="translate(0 0.4)"/><path class="cls-7" d="M98.62,167.05s-3.69,4.9-2.38,21.48C96.24,188.53,96.41,168.37,98.62,167.05Z" transform="translate(0 0.4)"/><path class="cls-14" d="M117.62,202.6C119.58,176.4,114,158,114,158c0-2.43-7.66-8.55-7.66-8.55-5.38,3.77-8,18.39-8,18.39L97.59,174l-3,24.59" transform="translate(0 0.4)"/><path class="cls-14" d="M117.62,202.6S117,232,115.94,240a24.68,24.68,0,0,0-2.46-1.17c-4.34-1.86-13.91-5-24.58-2.25-.5.12-1,.26-1.54.43L93,205.31l1.63-7.13,15.7-1.4Z" transform="translate(0 0.4)"/><path class="cls-7" d="M115.94,240a75.62,75.62,0,0,1-28.58-3A35.57,35.57,0,0,1,115.94,240Z" transform="translate(0 0.4)"/><path class="cls-14" d="M114.65,239.31l-4.54,1a32.33,32.33,0,0,0,5.83-.3l-.84-1.08Z" transform="translate(0 0.4)"/><polyline class="cls-14" points="88.42 235.91 87.36 237.43 91.89 238.62 88.55 237.03"/><path class="cls-14" d="M88.27,240.32l1.11-.3c10.26-2.7,19.4.83,22.57,2.31.4.18.7.33.9.44l.29.15-.73-.93-.39.32A31.2,31.2,0,0,0,89.32,240h0l-.13-1Z" transform="translate(0 0.4)"/><path class="cls-15" d="M92.2,241.35l0,0a70,70,0,0,0,15.91,1.86h0a41.39,41.39,0,0,0,5-.27l-.29-.15c-.28-.17-.55-.32-.83-.46A31.2,31.2,0,0,0,89.32,240c-.69.19-1,.33-1,.33,1.24.37,2.44.67,3.63,1Z" transform="translate(0 0.4)"/><path class="cls-17" d="M90,243.26a3,3,0,0,0,2.38.55,1,1,0,0,1,.5.14c.23.06.38.43.38.43a1.54,1.54,0,0,1,.08.56,6,6,0,0,0,1.53,3.69,15,15,0,0,0,.47,2.16c.52.23,1.1-.52,1.39-1,.73.79,1.74-1.26,1.74-1.26,1.6-1.39,1.47-4.26,1.47-4.26a6.66,6.66,0,0,0,0-2,4.51,4.51,0,0,0-.15-.78,2,2,0,0,0-.21-.63.48.48,0,0,0,0-.08h0A5.44,5.44,0,0,0,95.67,239a10.3,10.3,0,0,0-1.49.84,6.23,6.23,0,0,0-.79.67h0Z" transform="translate(0 0.4)"/><path class="cls-18" d="M96.74,249.81s1.49-1.82,1.31-2.73A17.79,17.79,0,0,0,96.74,249.81Z" transform="translate(0 0.4)"/><path class="cls-18" d="M98.47,248.54s1.25-2.3,1-3Z" transform="translate(0 0.4)"/><path class="cls-16" d="M92.2,241.35l-3.93-1,.63-3.72c10.67-2.71,20.24.39,24.58,2.25-.09,1.67-.21,3.07-.34,4.07a26.76,26.76,0,0,1-5,.27h0l3.86-.85.07,0a30.84,30.84,0,0,0-11.93-3.39,36,36,0,0,0-4.27,0h0A29.68,29.68,0,0,0,89.32,240l.06,0Z" transform="translate(0 0.4)"/><path class="cls-18" d="M94.18,239.8a10.51,10.51,0,0,1,5.82,2.51,4.51,4.51,0,0,0-.15-.78,2,2,0,0,0-.21-.63l0-.09h0l.48-1.88a36,36,0,0,0-4.27,0h0l-.14.06A10.3,10.3,0,0,0,94.18,239.8Z" transform="translate(0 0.4)"/><path class="cls-7" d="M109,199.48s-7.39-8.28-13-4.33l-1.42,3,2.51-2.33A24.31,24.31,0,0,1,109,199.48Z" transform="translate(0 0.4)"/><path class="cls-16" d="M118.56,88.93c-.19,2.81-.4,5.42-.63,7.86.22.17.45.36.67.51l4.17.14c1.9-5.51,4-22.75,4-22.75.4-2.59.81-5,1.24-7.39-2.07-1.52-4.15-2.91-6.24-4.2A217.68,217.68,0,0,0,118.56,88.93Z" transform="translate(0 0.4)"/><path class="cls-16" d="M80.18,71A137.33,137.33,0,0,1,92.83,51a107.44,107.44,0,0,0-26.62-3.18A113.86,113.86,0,0,0,54.55,66.64L87,84.29l2.9,1c-.77-2.83-1.21-4.61-1.21-4.61Z" transform="translate(0 0.4)"/><path class="cls-14" d="M159.66,17.2c-10.44-6.15-24.46-6.68-24.46-6.68C101.73,9.23,78.82,31,66.21,47.78,78.8,47.66,104.27,49.94,128,67.3c3.7-20.56,8.31-32.42,10-36.33a17.64,17.64,0,0,1,7.17-6,17.37,17.37,0,0,1,4.45-1.16l.3,0a15.58,15.58,0,0,1,4.31.07,12.58,12.58,0,0,1,5.92,1.85h0S165.05,23.1,159.66,17.2Z" transform="translate(0 0.4)"/><path class="cls-7" d="M92.83,51A101.15,101.15,0,0,1,121.74,63.1c8.72-45.46,29.42-42.46,37.07-39.1C130.42,9.87,106.53,32.87,92.83,51Z" transform="translate(0 0.4)"/><path class="cls-15" d="M80.18,71l8.51,9.72s.44,1.78,1.21,4.61c5.06,1.78,15.71,5.42,23.41,7.36a50.7,50.7,0,0,0,4.62,4.11c.23-2.44.44-5.05.63-7.86a217.68,217.68,0,0,1,3.18-25.83A101.15,101.15,0,0,0,92.83,51,137.33,137.33,0,0,0,80.18,71Z" transform="translate(0 0.4)"/><path class="cls-7" d="M170.73,34.23c-.3-8.16-5.11-13.51-11.07-17,5.4,5.9.51,8.46.51,8.46l0,0a9.84,9.84,0,0,1,2.6,2.37l.1.14c.14.21.27.4.4.61l0,0a13.72,13.72,0,0,1,.24,14.66,12.35,12.35,0,0,1-2,2.65s-.55,1.93,5-2.16A16,16,0,0,0,170.73,34.23Z" transform="translate(0 0.4)"/><polygon class="cls-7" points="69.19 188.73 67 186.91 66.66 189.74 67.86 195.25 72.77 208.77 73.17 205.85 75.4 192.45 69.19 188.73"/><path class="cls-19" d="M83.2,170.39a10.9,10.9,0,0,0-1.32,3.32c-1.77,6.3-3.55,18.76-3.55,18.76l-8.28-3.42c.5-3.39,5.47-12.5,8.06-17.09.94-1.66,1.57-2.72,1.57-2.72Z" transform="translate(0 0.4)"/><path class="cls-19" d="M96.4,189.05l-8.28,3.42s-1.77-12.31-3.52-18.65a11.42,11.42,0,0,0-1.35-3.43l3.52-1.15s.68,1.17,1.69,2.95C91.08,176.84,95.9,185.72,96.4,189.05Z" transform="translate(0 0.4)"/><path class="cls-18" d="M83.2,170.39a10.9,10.9,0,0,0-1.32,3.32A9.45,9.45,0,0,1,78.11,172c.94-1.66,1.57-2.72,1.57-2.72Z" transform="translate(0 0.4)"/><path class="cls-18" d="M88.46,172.19a8.1,8.1,0,0,1-3.86,1.63,11.42,11.42,0,0,0-1.35-3.43l3.52-1.15S87.45,170.41,88.46,172.19Z" transform="translate(0 0.4)"/><path class="cls-20" d="M88.62,165.33c0,3.25-2.27,5.87-5.1,5.87s-5.08-2.62-5.08-5.87,2.27-5.86,5.08-5.86S88.62,162.09,88.62,165.33Z" transform="translate(0 0.4)"/><path class="cls-21" d="M88.62,165.33c0,3.25-2.27,5.87-5.1,5.87V159.47C86.35,159.47,88.62,162.09,88.62,165.33Z" transform="translate(0 0.4)"/><path class="cls-22" d="M83.53,161.08c-2,0-3.53,1.9-3.53,4.25s1.58,4.24,3.53,4.24,3.52-1.9,3.52-4.24S85.47,161.08,83.53,161.08Zm0,7.27a3.59,3.59,0,0,1,0-7.06c1.62,0,2.93,1.58,2.93,3.53S85.15,168.35,83.53,168.35Z" transform="translate(0 0.4)"/><ellipse class="cls-23" cx="83.53" cy="165.22" rx="2.93" ry="3.53"/><path class="cls-24" d="M83.53,162.2a1.33,1.33,0,1,0,1.09,1.31A1.21,1.21,0,0,0,83.53,162.2Z" transform="translate(0 0.4)"/><polygon class="cls-7" points="95.48 191.92 94.61 199 91.96 204.65 91.52 201.57 93.96 197.18 95.34 191.48 95.48 191.92"/><path class="cls-14" d="M72.56,297.6c-9.7-2.37-34.48-25.3-34.48-25.3-1.19-5.37,6.24-34.11,11-51.7a.65.65,0,0,1,0-.13A25.23,25.23,0,0,0,60.6,231.65a17.16,17.16,0,0,0,10.45,1.63c0,4.24,0,8.63,0,13C71.3,271.79,72.56,297.6,72.56,297.6Z" transform="translate(0 0.4)"/><path class="cls-7" d="M71.91,210c-.54,6.34-.79,14.5-.86,23.28a17.16,17.16,0,0,1-10.45-1.63,25.23,25.23,0,0,1-11.44-11.18c2.2-8,3.84-13.72,3.84-13.72L68.32,203l.09.71c.16,0,.39.13.65.24l1.35,2.88Z" transform="translate(0 0.4)"/><path class="cls-15" d="M81.54,211s1.25,7.63-1.74,11.65l-4.63,2.59H69.28l-6.17-7.9,2.08-8,6.77-6,4.63.6,4.49,4.64Z" transform="translate(0 0.4)"/><polyline class="cls-18" points="71.68 214.91 63.01 211.97 66.5 207.49 73.89 211.08"/><path class="cls-7" d="M70.07,202.94s-1.57-1.56,2.43-.76l4,.8L79,204.76l1.4,1.28.22.4H78.67l-5-1.69Z" transform="translate(0 0.4)"/><polygon class="cls-14" points="78.92 224.07 79.13 223.46 76.59 224.95 77.37 225.12 78.92 224.07"/><path class="cls-6" d="M75,203.1a11.63,11.63,0,0,0-3.52-.5v.1a67.33,67.33,0,0,1,7.76,3.09A9.89,9.89,0,0,0,75,203.1Z" transform="translate(0 0.4)"/><path class="cls-6" d="M78.92,223.67l-1.46.9A12.4,12.4,0,0,0,78.92,223.67Z" transform="translate(0 0.4)"/><path class="cls-6" d="M68.1,225.5a12.8,12.8,0,0,1-2.87-1.06l-.61-.3a9,9,0,0,0,2.9,1.25Z" transform="translate(0 0.4)"/><path class="cls-6" d="M79.8,222.64l-1.16.71A9.07,9.07,0,0,0,79.8,222.64Z" transform="translate(0 0.4)"/><path class="cls-6" d="M76.3,204.29a11.42,11.42,0,0,0-1.44-.33c1.7.69,3.55,1.45,4.31,1.79A10.55,10.55,0,0,0,76.3,204.29Z" transform="translate(0 0.4)"/><path class="cls-15" d="M61.78,214.2h0a25.24,25.24,0,0,1,.55-3.16,10.91,10.91,0,0,1,3.86-5.11,11.89,11.89,0,0,1,8.67-2l-3.37-1.36a12.12,12.12,0,0,0-6.6,2.14A11,11,0,0,0,61,209.85a23.53,23.53,0,0,0-.55,3.18h0s-.91,7.4,3.86,10.9C61,220.17,61.78,214.2,61.78,214.2Z" transform="translate(0 0.4)"/><path class="cls-16" d="M81.08,208a4.78,4.78,0,0,0-.51-1.07h0a4.73,4.73,0,0,0-.7-.86s-3.3-1.42-5-2.11a11.89,11.89,0,0,0-8.67,2A10.91,10.91,0,0,0,62.33,211a25.24,25.24,0,0,0-.55,3.16h0s-.74,6,2.56,9.72c.1.07-.5.83-.4.9s.88.59,1.09.68a5.94,5.94,0,0,1,3.07,0c.41.08.83.14,1.28.19h0a16.26,16.26,0,0,0,7.6-1.14,13.69,13.69,0,0,0,2.78-1.91,13.14,13.14,0,0,1-7.55,1.61h0a12.43,12.43,0,0,1-1.48-.23c-6.62-1.62-5.59-9.84-5.59-9.84h0a19.79,19.79,0,0,1,.43-2.52,8.74,8.74,0,0,1,3.07-4.06,9.39,9.39,0,0,1,8-1.31,7.13,7.13,0,0,1,4.81,4.59s0,.07,0,.12A9.3,9.3,0,0,0,81.08,208Z" transform="translate(0 0.4)"/><path class="cls-14" d="M79.89,203.93h0a5.93,5.93,0,0,0-.89-1.07s-2.17-1.17-5.88-2.8c-1.62-.72-3.89-1.84-4.71-2.08l-3-24-.7-5.74-.06-.45s-3.61-14.26-9-18c0,0-6.63,5.76-6.63,8.19a157.65,157.65,0,0,0-3.5,46.92s2.52,15.29,15,21a16.77,16.77,0,0,0,13.26.86h0a16.68,16.68,0,0,0,5.06-3.12h0a17.76,17.76,0,0,1-1.9.88c-.42.21-.83.41-1.24.57h0a12.69,12.69,0,0,1-7.67.38l-.58-.11a9,9,0,0,1-2.9-1.25c-5.1-3.41-4.14-11.12-4.14-11.12h0a23.53,23.53,0,0,1,.55-3.18,11,11,0,0,1,3.86-5.11,12.12,12.12,0,0,1,6.6-2.14,11.63,11.63,0,0,1,3.52.5,9.89,9.89,0,0,1,4.25,2.69l.6.28a4.73,4.73,0,0,1,.7.86h0a4.78,4.78,0,0,1,.51,1.07A9.1,9.1,0,0,0,79.89,203.93Z" transform="translate(0 0.4)"/><path class="cls-16" d="M69.42,225.69h0c-.45-.05-.87-.11-1.28-.19a12.69,12.69,0,0,0,7.67-.38h0c.41-.16.82-.36,1.24-.57A16.26,16.26,0,0,1,69.42,225.69Z" transform="translate(0 0.4)"/><path class="cls-16" d="M81.72,216.33l-.92.42a10.7,10.7,0,0,1-.76,4.08,6.87,6.87,0,0,1-6.14,3.46l1.27.53,1.3-.63,1,.12S82.05,222.58,81.72,216.33Z" transform="translate(0 0.4)"/><path class="cls-16" d="M81.8,217.55a22.29,22.29,0,0,0-.5-9s-3-4.87-1.21-.21a17.69,17.69,0,0,1,.69,9.22" transform="translate(0 0.4)"/><path class="cls-17" d="M80.42,207.87a3,3,0,0,1-.69,2.35,1,1,0,0,0-.13.49c-.06.23.2.55.2.55a1.34,1.34,0,0,0,.44.34,6,6,0,0,1,2.45,3.15,14.79,14.79,0,0,1,1.65,1.48c0,.56-1,.7-1.54.72.32,1-2,.89-2,.89-2,.71-4.43-.82-4.43-.82a6.09,6.09,0,0,1-1.74-.93,4.3,4.3,0,0,1-.61-.5,2.14,2.14,0,0,1-.45-.51.28.28,0,0,1,0-.07h0a5.41,5.41,0,0,1,.32-4.33,9.91,9.91,0,0,1,1.47-.88,6.64,6.64,0,0,1,1-.36h0Z" transform="translate(0 0.4)"/><path class="cls-18" d="M82.81,217s-2.32.41-3-.2A18.13,18.13,0,0,1,82.81,217Z" transform="translate(0 0.4)"/><path class="cls-18" d="M80.85,217.84s-2.62-.06-3.13-.57Z" transform="translate(0 0.4)"/><path class="cls-18" d="M75.36,209.8a10.38,10.38,0,0,0-.68,6.29,4.3,4.3,0,0,1-.61-.5,2.14,2.14,0,0,1-.45-.51l-.05-.07h0l-1.87-.5a36.28,36.28,0,0,1,2.08-3.73h0l.12-.09A9.91,9.91,0,0,1,75.36,209.8Z" transform="translate(0 0.4)"/><path class="cls-7" d="M53.86,199.48s7.39-8.28,13-4.33L68.4,198l-2.65-2.11A24.31,24.31,0,0,0,53.86,199.48Z" transform="translate(0 0.4)"/><path class="cls-7" d="M68.4,198a4.68,4.68,0,0,0-3-.52s-2.47,0-5.16,3.18C60.2,200.62,63.74,197.13,68.4,198Z" transform="translate(0 0.4)"/><polyline class="cls-5" points="55.02 130.16 53.22 139.12 58.86 140.84 103.12 143.41 110.85 132.23 106.2 125.46"/><path class="cls-17" d="M99.8,123.21a8.48,8.48,0,0,0,.51-2.4,26.09,26.09,0,0,1-4.82-1.6,26.12,26.12,0,0,1-7.5,1.93c-12.3,1.21-20.47-7.88-22.5-10.43-.33-.41-.5-.65-.5-.65,2.16,12.42,8.58,13.86,9.71,14l.18,0-.18,0c-16.32-1.42-17.23-14.46-17.11-18.54,0,.28,0,.55,0,.83l0,.13v.39c0-.12,0-.24-.05-.36-1.33,24,8.44,26.76,8.44,26.76a11.51,11.51,0,0,1-8.07-5.58c1.92,5.83,7.4,14.16,23.1,15,0,0,12.46-.09,19.4-8.07C98.4,130,99.8,123.21,99.8,123.21Z" transform="translate(0 0.4)"/><path class="cls-25" d="M43,101.33S4.52,93.92.2,76.82c0,0-2.65-10,11.47-13.07,0,0,33.35-3.81,66.75,4,0,0,22.59,4.73,40.47,18.44a190,190,0,0,0,23.64,8.38s26.76,8.29,32.62,21.41c0,0,3,8.71-23,5.9,0,0-42.09-4.12-72.39-12.9" transform="translate(0 0.4)"/><path class="cls-18" d="M109,109.63l-20-8.41L56,99.54l-2.27,1.29L56.88,122a19.58,19.58,0,0,0,1,5.72A11.51,11.51,0,0,0,66,133.29s-9.77-2.73-8.44-26.76c0,.12,0,.24.05.36v-.39l0-.13c0-.28,0-.55,0-.83-.12,4.08.79,17.12,17.11,18.54-1.13-.16-7.55-1.6-9.71-14,0,0,.17.24.5.65,2,2.55,10.2,11.64,22.5,10.43a26.12,26.12,0,0,0,7.5-1.93,26.09,26.09,0,0,0,4.82,1.6,8.48,8.48,0,0,1-.51,2.4s-1.4,6.75.61,11.48a17.66,17.66,0,0,0,2.85-4.49C108.69,117.74,109,109.63,109,109.63Z" transform="translate(0 0.4)"/><path class="cls-6" d="M55.59,144.94c0-.07,0-.15,0-.22h0C55.58,144.79,55.59,144.87,55.59,144.94Z" transform="translate(0 0.4)"/><path class="cls-6" d="M56,151q.12.33.24.6Q56.1,151.33,56,151Z" transform="translate(0 0.4)"/><path class="cls-6" d="M55.33,148.71c.06.22.12.41.18.59C55.45,149.12,55.39,148.92,55.33,148.71Z" transform="translate(0 0.4)"/><path class="cls-6" d="M55.59,143.54c0-.18,0-.34,0-.53C55.6,143.2,55.6,143.36,55.59,143.54Z" transform="translate(0 0.4)"/><path class="cls-6" d="M55.59,140.93c0-.16,0-.32.06-.49C55.62,140.61,55.61,140.77,55.59,140.93Z" transform="translate(0 0.4)"/><path class="cls-6" d="M55,146.73c0,.19.05.36.07.54C55,147.09,55,146.92,55,146.73Z" transform="translate(0 0.4)"/><path class="cls-6" d="M55.12,147.8c0,.21.08.39.13.57C55.2,148.19,55.16,148,55.12,147.8Z" transform="translate(0 0.4)"/><path class="cls-26" d="M108.83,142.43c0-.53-.09-.89-.09-.89a5.55,5.55,0,0,0,0-1.64c-.54-3.05-4.24-2.1-4.24-2.1a31.31,31.31,0,0,1,.87,10.17,55.85,55.85,0,0,1,3.38-6.43,9.72,9.72,0,0,1-3.45,7.25c-.05.53.3,2.31.22,2.86,1.83-2.08,3-3.56,3-3.56C109.35,147,108.92,143.62,108.83,142.43Z" transform="translate(0 0.4)"/><polygon class="cls-27" points="53 144.78 53 144.78 53 144.78 53 144.78"/><path class="cls-27" d="M55.58,144.72h0c0-.11,0-.2,0-.31C55.57,144.52,55.58,144.61,55.58,144.72Z" transform="translate(0 0.4)"/><path class="cls-5" d="M108.74,141.54a55.85,55.85,0,0,0-3.38,6.43c0,.27,0,.54-.07.82A9.72,9.72,0,0,0,108.74,141.54Z" transform="translate(0 0.4)"/><path class="cls-28" d="M74.54,152a15.32,15.32,0,0,0-9.28,4.63c2.84,1.37,8.85.53,13.74,1.73C76.53,155.74,74.9,154.2,74.54,152Z" transform="translate(0 0.4)"/><path class="cls-27" d="M74.32,150.15l-1.51.57a26.54,26.54,0,0,0-7.55,5.86A15.32,15.32,0,0,1,74.54,152C74.36,150.87,74.32,150.15,74.32,150.15Z" transform="translate(0 0.4)"/><path class="cls-28" d="M79.65,147.8c.08.19.15.4.24.58l-.14,0,.29,0a4.47,4.47,0,0,1-.05-.71Z" transform="translate(0 0.4)"/><path class="cls-5" d="M79.75,148.41c-.57.16-2.79.77-5.43,1.74,0,0,0,.72.22,1.8a30.3,30.3,0,0,1,6.47-.26,13.58,13.58,0,0,1-1-3.33Z" transform="translate(0 0.4)"/><path class="cls-27" d="M92.17,150.41l-2.13-1a21.14,21.14,0,0,0-10-1.07,13.58,13.58,0,0,0,1,3.33,39,39,0,0,1,7.77,1.25c3,.94,4.52.86,5.31.45A17.79,17.79,0,0,0,92.17,150.41Z" transform="translate(0 0.4)"/><path class="cls-26" d="M92.17,150.41l1.11.42a24.77,24.77,0,0,0-3.24-1.4l2.13,1Z" transform="translate(0 0.4)"/><path class="cls-26" d="M96.68,137.18a53.19,53.19,0,0,1-6.32.51c.38,4.65.49,9.66-.53,11.65l.21.09a24.77,24.77,0,0,1,3.24,1.4c1.8.68,3.26,1.31,4.33,1.8,0-1.53.11-6.54-.17-11.66a5.06,5.06,0,0,1-1-.51S95.43,138.29,96.68,137.18Z" transform="translate(0 0.4)"/><path class="cls-5" d="M96.68,137.18c-1.25,1.11-.29,3.28-.29,3.28a5.06,5.06,0,0,0,1,.51c-.08-1.3-.17-2.6-.3-3.86Z" transform="translate(0 0.4)"/><path class="cls-5" d="M94.09,153.39a1.52,1.52,0,0,0,.76-1.72l-2.68-1.26A17.79,17.79,0,0,1,94.09,153.39Z" transform="translate(0 0.4)"/><path class="cls-26" d="M97.61,152.63c0,.31,0,.49,0,.49a21.74,21.74,0,0,0-2.75-1.45,1.52,1.52,0,0,1-.76,1.72,7.64,7.64,0,0,1,1.26,4.54c1.57-1.17,3.43-1.08,4.84-2.41l-.37-1.8S99.05,153.29,97.61,152.63Z" transform="translate(0 0.4)"/><path class="cls-26" d="M93.28,150.83l-1.11-.42h0l2.68,1.26h0C94.32,151.36,93.8,151.09,93.28,150.83Z" transform="translate(0 0.4)"/><path class="cls-27" d="M62.47,136.62l1.78-.37-2,.4Z" transform="translate(0 0.4)"/><path class="cls-28" d="M60.84,155h0c1.39.95,3.29,1,4.42,1.56,0,0-2.15-2.41-4.67-5.09C60.77,152.37,60.51,154.15,60.84,155Z" transform="translate(0 0.4)"/><path class="cls-28" d="M72.76,150.74a48.82,48.82,0,0,1,.1-15.35c-1.56-.06-3.16-.06-4.7,0-1.43.33-2.77.63-3.9.87h0l-1.78.37h0a29.21,29.21,0,0,0-2.24,11.85,2.73,2.73,0,0,1,.55.76s4.67,5.63,4.48,7.35a26.54,26.54,0,0,1,7.55-5.86Z" transform="translate(0 0.4)"/><path class="cls-27" d="M60.78,149.23a2.73,2.73,0,0,0-.55-.76,19.58,19.58,0,0,0,.36,3c2.52,2.68,4.67,5.09,4.67,5.09C65.45,154.86,60.78,149.23,60.78,149.23Z" transform="translate(0 0.4)"/><path class="cls-28" d="M56.22,151.6q-.12-.27-.24-.6c0-.05-.45-1.65-.47-1.7s-.12-.37-.18-.59-.06-.23-.08-.34-.09-.36-.13-.57,0-.35-.08-.53,0-.35-.07-.54.63-1.55.62-1.79c0-.07,0-.15,0-.22-.85-.77-2.2-.21-2.58-.34.07,1.47,3.22,7.3,3.22,7.3v-.08Z" transform="translate(0 0.4)"/><path class="cls-27" d="M55.56,144.41c0-.09,0-.19,0-.28a3.43,3.43,0,0,0-2.57.25h0c.38.13,1.73-.43,2.58.34C55.58,144.61,55.57,144.52,55.56,144.41Z" transform="translate(0 0.4)"/><polygon class="cls-26" points="64.26 136.65 64.26 136.65 64.25 136.65 64.26 136.65"/><path class="cls-26" d="M62.25,136.65l-1.48.3,1.7-.33Z" transform="translate(0 0.4)"/><path class="cls-26" d="M60.77,136.89V137l0-.06Z" transform="translate(0 0.4)"/><path class="cls-26" d="M60.8,136.89l0,.06.13-.08Z" transform="translate(0 0.4)"/><path class="cls-26" d="M60.9,136.87l-.13.08,1.48-.3Z" transform="translate(0 0.4)"/><path class="cls-26" d="M94.85,151.67h0a21.74,21.74,0,0,1,2.75,1.45s0-.18,0-.49c-1.07-.49-2.53-1.12-4.33-1.8C93.8,151.09,94.32,151.36,94.85,151.67Z" transform="translate(0 0.4)"/><path class="cls-26" d="M74.54,152c.36,2.25,2,3.79,4.46,6.36h0c1.58.39,3.12.74,4.51,1.06,1.81.4,3-.66,4.1-.43-1.39-2-4.94-3.19-6.6-7.25A30.3,30.3,0,0,0,74.54,152Z" transform="translate(0 0.4)"/><polygon class="cls-26" points="79 158.71 79 158.71 79 158.71 79 158.71"/><path class="cls-26" d="M76.62,149.13a24.48,24.48,0,0,0-3.81,1.59l1.51-.57h0Z" transform="translate(0 0.4)"/><path class="cls-29" d="M79.65,147.8l-3,1.33a21.67,21.67,0,0,1,3.13-.72l.14,0C79.8,148.2,79.73,148,79.65,147.8Z" transform="translate(0 0.4)"/><path class="cls-29" d="M76.62,149.13l-2.3,1h0c2.64-1,4.86-1.58,5.43-1.74A21.67,21.67,0,0,0,76.62,149.13Z" transform="translate(0 0.4)"/><path class="cls-26" d="M79.65,147.8c-1.21-3-.83-7.87-.28-11.52a28.92,28.92,0,0,0-6.51-.89,48.82,48.82,0,0,0-.1,15.35l0,0a24.48,24.48,0,0,1,3.81-1.59Z" transform="translate(0 0.4)"/><path class="cls-28" d="M105.08,149a5.08,5.08,0,0,1,.28-1,31.31,31.31,0,0,0-.87-10.17s-3.26,4.54-7,3.17c.28,5.12.21,10.13.17,11.66,1.44.66,2.21,1.09,2.21,1.09l.37,1.8c.79-.75,1.88-1.32,2.59-2.05,1-1,2-.94,2.73-1.82.08-.55-.27-2.33-.22-2.86Z" transform="translate(0 0.4)"/><path class="cls-27" d="M97.14,137.11c.13,1.26.22,2.56.3,3.86,3.79,1.37,7-3.17,7-3.17a19.64,19.64,0,0,0-5-1.23A20.14,20.14,0,0,1,97.14,137.11Z" transform="translate(0 0.4)"/><path class="cls-27" d="M105.29,148.79c0-.28,0-.55.07-.82a5.08,5.08,0,0,0-.28,1Z" transform="translate(0 0.4)"/><path class="cls-26" d="M60.59,151.49c-1.94-2.06-3.43-5.36-5-6.77,0,.07,0,.15,0,.22,0,.24-.64,1.57-.62,1.79s.05.36.07.54.05.37.08.53.08.39.13.57,0,.23.08.34.12.41.18.59S56,151,56,151c.08.22.07.25.15.43l.06.12,0,.13.32.24c.78.59,2.05,1.58,4.3,3.1h0C60.51,154.15,60.77,152.37,60.59,151.49Z" transform="translate(0 0.4)"/><path class="cls-5" d="M55.56,144.41c0,.11,0,.2,0,.31,1.58,1.41,3.07,4.71,5,6.77a19.58,19.58,0,0,1-.36-3c-1.15-1.19-2.93-3.54-4.66-4.34C55.57,144.22,55.56,144.32,55.56,144.41Z" transform="translate(0 0.4)"/><path class="cls-26" d="M55.25,148.37c0,.11,0,.23.08.34C55.3,148.6,55.27,148.48,55.25,148.37Z" transform="translate(0 0.4)"/><path class="cls-26" d="M55.59,143.54c0,.2,0,.4,0,.59h0C55.58,143.94,55.59,143.74,55.59,143.54Z" transform="translate(0 0.4)"/><path class="cls-26" d="M55,147.27c0,.18.05.37.08.53C55.09,147.64,55.07,147.45,55,147.27Z" transform="translate(0 0.4)"/><path class="cls-26" d="M56.22,151.68" transform="translate(0 0.4)"/><path class="cls-26" d="M55.51,149.3S56,151,56,151,55.53,149.35,55.51,149.3Z" transform="translate(0 0.4)"/><path class="cls-26" d="M55.62,143c0-.34-.08-1.71,0-2.08C55.54,141.3,55.64,142.67,55.62,143Z" transform="translate(0 0.4)"/><path class="cls-26" d="M55.59,144.94c0,.24-.64,1.57-.62,1.79C55,146.51,55.6,145.18,55.59,144.94Z" transform="translate(0 0.4)"/><path class="cls-26" d="M55.57,144.13c0,.09,0,.19,0,.28,0-.09,0-.19,0-.28Z" transform="translate(0 0.4)"/><path class="cls-28" d="M90.36,137.69l-1.6,0a48.32,48.32,0,0,1-7.89-.92h0a11.44,11.44,0,0,0-1.5-.53c-.55,3.65-.93,8.57.28,11.52l.34-.15a4.47,4.47,0,0,0,.05.71,21.14,21.14,0,0,1,10,1.07l-.21-.09C90.85,147.35,90.74,142.34,90.36,137.69Z" transform="translate(0 0.4)"/><path class="cls-28" d="M95.35,157.93a7.64,7.64,0,0,0-1.26-4.54c-.79.41-2.32.49-5.31-.45A39,39,0,0,0,81,151.69c1.66,4.06,5.21,5.23,6.6,7.25a1.4,1.4,0,0,0,.5,0A27.93,27.93,0,0,0,95.35,157.93Z" transform="translate(0 0.4)"/><path class="cls-26" d="M56,151a5.26,5.26,0,0,0,.25.72l.12-.11Z" transform="translate(0 0.4)"/><path class="cls-26" d="M62.46,136.62l-.11,0h-.11A12.73,12.73,0,0,0,57,137.93l-.23.13v0a3.05,3.05,0,0,0-.74.64,16.15,16.15,0,0,0-.35,1.64.19.19,0,0,0,0,.07c0,.17,0,.33-.06.5-.06.37,0,1.74,0,2.08,0,.19,0,.35,0,.53a5.82,5.82,0,0,0,0,.59c1.73.8,3.5,3.14,4.65,4.33A29.27,29.27,0,0,1,62.46,136.62Z" transform="translate(0 0.4)"/><path class="cls-28" d="M54.68,140.68A28.84,28.84,0,0,0,53,144.37a3.47,3.47,0,0,1,2.58-.24,5.82,5.82,0,0,1,0-.59c0-.18,0-.34,0-.53,0-.34-.08-1.71,0-2.08,0-.17,0-.33.06-.5a.19.19,0,0,1,0-.07,16.15,16.15,0,0,1,.35-1.64A11.81,11.81,0,0,0,54.68,140.68Z" transform="translate(0 0.4)"/><path class="cls-30" d="M126.45,108.8h0l-.09-.07c-.19-.16-.36-.32-.56-.47l-.14,0c-.39-.28-.76-.58-1.13-.88h0c-6.31-2.18-18.16-5.77-18.16-5.77-41-8.7-60.86-1.72-65.48.33-1,2.78-1.68,4.87-1.82,5.33-.17,1.55-.31,3.15-.38,4.89a6.26,6.26,0,0,1-1.78,4.06s-8.11,7-5.74,17.1c0,0,.69,7.62,8.11,10.09,0,0-8.7-6.33-3.56-16.71,0,0-1.78,18.29,15.23,19a10.4,10.4,0,0,1-6-4.66h0v0a8.12,8.12,0,0,1-.88-4.2s-.89-3.26,1.48-9.39c0,0-1.66,13.91,8.07,17.31a17.51,17.51,0,0,0,6.66.29s-3.66-.79-3-5.24c0,0,3.57-4.92,2.85-9h0a.59.59,0,0,1,0-.13,3.91,3.91,0,0,0-.19-.7.06.06,0,0,0,0,0h0a19.64,19.64,0,0,0-1.85-3.39A15.21,15.21,0,0,1,56.88,122,11.57,11.57,0,0,0,66,129.9s-10.05-2.79-8.39-27.75c-.12,4.08.79,17.12,17.11,18.54-1.13-.16-7.55-1.6-9.71-14A38.68,38.68,0,0,1,65,98s4.56,18.78,23,19.79a26.12,26.12,0,0,0,7.5-1.93,26.09,26.09,0,0,0,4.82,1.6,8.35,8.35,0,0,1-.51,2.39s-3.12,15,6.57,16c0,0,2.57,7.12-2.77,9.69,0,0,5.94,1.39,10.48-4.94a25.72,25.72,0,0,0,6.23-5.05c6.31-10.61-.63-23.62-2-26-.07-.13-.16-.26-.22-.38l.22.38c1.9,3.11,7,7.21,7,7.21s9.39,6.53,4.64,17C130,133.71,140.19,120.44,126.45,108.8Z" transform="translate(0 0.4)"/><path class="cls-18" d="M74.7,124.08l.18,0Z" transform="translate(0 0.4)"/><path class="cls-13" d="M74.7,120.69h0Z" transform="translate(0 0.4)"/><path class="cls-13" d="M57.58,103.1S55,95.39,58.66,88.86s0,2.87,0,2.87a22.1,22.1,0,0,0-1.07,11.77" transform="translate(0 0.4)"/><path class="cls-30" d="M65.49,107.32l-.5-.66S65.16,106.91,65.49,107.32Z" transform="translate(0 0.4)"/><path class="cls-13" d="M65,98a38.68,38.68,0,0,0,0,8.7l.5.66c2,2.55,10.2,11.64,22.5,10.43C69.55,116.74,65,98,65,98Z" transform="translate(0 0.4)"/><path class="cls-13" d="M57.28,139.69s-1.53-8.21,1.21-9.29c0,0,.82.59,0,3.36A10.34,10.34,0,0,0,57.28,139.69Z" transform="translate(0 0.4)"/><path class="cls-13" d="M35.72,126.64s.49-5.14,4.65-7.72A23,23,0,0,0,35.72,126.64Z" transform="translate(0 0.4)"/><path class="cls-13" d="M106.37,135.78s-1-7-3.91-10.72c0,0-1.87.89.5,4.45A24.21,24.21,0,0,1,106.37,135.78Z" transform="translate(0 0.4)"/><path class="cls-13" d="M95.49,115.82s-12.11-5-12.9-13.21c0,0,1.12-1.42,2.87,3.26C85.46,105.87,86.73,111.72,95.49,115.82Z" transform="translate(0 0.4)"/><path class="cls-13" d="M100.31,117.42A51.35,51.35,0,0,0,97.82,98S103.88,105.63,100.31,117.42Z" transform="translate(0 0.4)"/><path class="cls-6" d="M44.91,140.92l-.88-4.2A8.12,8.12,0,0,0,44.91,140.92Z" transform="translate(0 0.4)"/><path class="cls-13" d="M44.92,141h0l0,0Z" transform="translate(0 0.4)"/><path class="cls-13" d="M45.51,127.33c-2.37,6.13-1.48,9.39-1.48,9.39a14.52,14.52,0,0,0,9.55,7.92C43.85,141.24,45.51,127.33,45.51,127.33Z" transform="translate(0 0.4)"/><path class="cls-13" d="M118.31,109.49l-.22-.38C118.15,109.23,118.24,109.36,118.31,109.49Z" transform="translate(0 0.4)"/><path class="cls-13" d="M118.31,109.49c1.37,2.37,8.31,15.38,2,26a20.17,20.17,0,0,0,5-18.78S120.21,112.6,118.31,109.49Z" transform="translate(0 0.4)"/><path class="cls-13" d="M114.08,140.53s4.6-6.77,2-12.71C116.11,127.82,121.75,132,114.08,140.53Z" transform="translate(0 0.4)"/><path class="cls-6" d="M118.31,109.49l-.22-.38C118.15,109.23,118.24,109.36,118.31,109.49Z" transform="translate(0 0.4)"/><path class="cls-13" d="M51.58,84.65c-1.36.23-2.72.47-4.09.75,0,0-6.64,5.87-8.42,21.81C39.48,105.83,44.35,89.71,51.58,84.65Z" transform="translate(0 0.4)"/><path class="cls-13" d="M56.88,122s-5.37-8.44-2.76-14.67c0,0-1.21,3.76,2.92,15.16" transform="translate(0 0.4)"/><path class="cls-13" d="M118.09,109.11s-5-7.1-6.13-13.18a5.82,5.82,0,0,0-2.18-2.32s1.94,6.35,8.53,15.88" transform="translate(0 0.4)"/><path class="cls-6" d="M118.31,109.49l-.22-.38C118.15,109.23,118.24,109.36,118.31,109.49Z" transform="translate(0 0.4)"/><path class="cls-13" d="M106.37,101.55s11.85,3.59,18.16,5.77h0a46.71,46.71,0,0,1-8.94-10.07h0c-1-1.69,1.15.52-1-1.69,0,0-31.31-16.11-63.06-10.92C46.76,88,43,96.32,40.89,101.88,45.51,99.83,65.37,92.85,106.37,101.55Z" transform="translate(0 0.4)"/><path class="cls-31" d="M63.11,118s5.43-2.36,9.11-1.52c0,0,1.26.89,1.34,1.35L62.18,120Z" transform="translate(0 0.4)"/><ellipse class="cls-31" cx="68.37" cy="121.7" rx="3.1" ry="4.4"/><path class="cls-31" d="M99.69,117.92s-5.48-2.26-9.14-1.35c0,0-1.24.91-1.31,1.38l11.42,1.92Z" transform="translate(0 0.4)"/><ellipse class="cls-31" cx="94.44" cy="121.7" rx="3.1" ry="4.4"/><path class="cls-7" d="M98.62,167.05s-.43-6.74,3-8.12l-.46,2.41S98.59,165.32,98.62,167.05Z" transform="translate(0 0.4)"/><path class="cls-7" d="M98.62,167.05s-2-.38-2.38-3.85c0,0-.24-1.79-1.32-1.86a6.35,6.35,0,0,1,0,1.86s3.21,4.48,2.8,5.7Z" transform="translate(0 0.4)"/><path class="cls-7" d="M64.49,167.05s.42-6.74-3-8.12l.45,2.41S64.51,165.32,64.49,167.05Z" transform="translate(0 0.4)"/><path class="cls-7" d="M64.49,167.05s2-.38,2.37-3.85c0,0,.24-1.79,1.32-1.86a6.35,6.35,0,0,0,0,1.86s-3.21,4.48-2.8,5.7Z" transform="translate(0 0.4)"/><path class="cls-32" d="M175.15,116c-5.86-13.12-32.62-21.41-32.62-21.41a179.78,179.78,0,0,1-17.81-6c.78-4.51,1.43-9.33,1.77-11.95h0c.16-1.23.25-2,.25-2,.4-2.59.81-5,1.24-7.39,3.7-20.56,8.31-32.42,10-36.33a17.64,17.64,0,0,1,7.17-6,17.37,17.37,0,0,1,4.45-1.16l.3,0a15.58,15.58,0,0,1,4.31.07,12.58,12.58,0,0,1,5.92,1.85h0a9.84,9.84,0,0,1,2.6,2.37l.1.14c.14.21.27.4.4.61l0,0a13.72,13.72,0,0,1,.24,14.66,12.35,12.35,0,0,1-2,2.65s-.55,1.93,5-2.16a16,16,0,0,0,4.16-9.76c-.3-8.16-5.1-13.51-11.06-17h0c-10.44-6.14-24.46-6.67-24.46-6.67-33.47-1.3-56.38,20.45-69,37.25A121.39,121.39,0,0,0,55.85,64.05a225.8,225.8,0,0,0-44.18-.3C-2.45,66.79.2,76.82.2,76.82c3.6,14.26,31,21.78,40,23.89a57.78,57.78,0,0,0-1.09,6.5c-.17,1.55-.31,3.15-.38,4.89a6.26,6.26,0,0,1-1.78,4.06s-8.11,7-5.74,17.1c0,0,.69,7.62,8.11,10.09,0,0-8.7-6.33-3.56-16.71,0,0-1.78,18.29,15.23,19a10.4,10.4,0,0,1-6-4.66l0,0-.88-4.2a14.59,14.59,0,0,0,9,7.75,28,28,0,0,0,2.37,5.6c-1.31,1.17-6.32,5.8-6.32,7.91a157.65,157.65,0,0,0-3.5,46.92,35,35,0,0,0,4.67,11.68c-.34,1.22-.7,2.51-1.07,3.89a.65.65,0,0,0,0,.13c-4.8,17.59-12.23,46.33-11,51.7,0,0,17.8,16.47,29.13,22.93a24.42,24.42,0,0,0-.52,4.52,161.69,161.69,0,0,0,.45,17.62h0l-1,2-.86,8.3a23.51,23.51,0,0,0,1.53,4.36,18.63,18.63,0,0,0,1.47,2.67l.39.58c2.16,3,5.51,5.29,10.47,3.71,0,0,4.34-1.45,2.23-8.43,0,0-2-4.68-3.16-8.12l-.81-2.84-1.24-1.9h0c.09-3.16.34-9.69.94-15a34.11,34.11,0,0,1,1.26-6.77s.94-5.55,1.55-12.09c.15-1.56.28-3.18.37-4.8A12.39,12.39,0,0,0,82,279v-1.81l2.68.11c.18,2.3.46,4.65.76,6.88.9,6.51,2.09,12,2.09,12a36.11,36.11,0,0,1,1.6,7c.81,5.26,1.33,11.59,1.56,14.68,0,.15,0,.3,0,.43,0-.13,0-.28,0-.43l-1.16,1.95-.69,2.87c-1,3.49-2.79,8.26-2.79,8.26-1.8,7.06,2.6,8.32,2.6,8.32,5,1.36,8.27-1.12,10.29-4.17l.37-.6a18.57,18.57,0,0,0,1.35-2.72A23.07,23.07,0,0,0,102,327.3L100.8,319l-1.12-2c0,.19,0,.36,0,.55l0-.55a152,152,0,0,0-.26-16.64A34.48,34.48,0,0,0,97,289.55c0-.13,0-.27,0-.41-.21-2.47.49-8.18,1.09-12.33,1.09-.14,2.15-.31,3.13-.52.45-.09.88-.2,1.29-.31.76,8.94,1.05,16.69.52,21.79,0,0,22-16.94,28.11-25.47a309.2,309.2,0,0,0-9.85-39.09,13,13,0,0,0,8.28-3h0c1.09-1.08,4-2.22,5.25-2.68l.59-.21A13,13,0,0,0,142,225a5,5,0,0,0,.2-.49c1.24-3.46-.9-8.71-.9-8.71a21.61,21.61,0,0,1-.61-3.69l.06-.75s0,.11,0,.28a27.15,27.15,0,0,0-.05-4.1c-.25-3.38-.85-6.84-.85-6.84s0-.25-.06-.38a33.71,33.71,0,0,0-5.85-13.4,54.82,54.82,0,0,0-4-5.1,47.6,47.6,0,0,0-4.15-4.19,26.83,26.83,0,0,1-4-4.06c-1.42-1.65-2.93-3.56-4.31-5.38l-1.56-2.07A80.89,80.89,0,0,0,114,158c0-.9-1.07-2.32-2.4-3.75a12.23,12.23,0,0,0-.82-1.8,11.91,11.91,0,0,0-1.49-2.08l.07-5.73a12.28,12.28,0,0,0,4.75-4.09,25.72,25.72,0,0,0,6.23-5.05,20.15,20.15,0,0,0,5.38-17l2,.3a13.14,13.14,0,0,1,2.36,14.9s4.86-6.34,3.34-14.09c11.15,1.55,18.82,2.3,18.82,2.3C178.11,124.73,175.15,116,175.15,116ZM39.27,106.57c.28-.91.83-2.6,1.61-4.68C40.1,104,39.55,105.66,39.27,106.57Zm1.62-4.69.35-.93h0ZM117.62,202.6l.06-.82a23.55,23.55,0,0,1,2.34,3.59,21.18,21.18,0,0,1,.92,2c.31,1,.64,2.06,1,3.22a1.06,1.06,0,0,0,0,.19,18,18,0,0,1,.34,6,2.91,2.91,0,0,1-.54,1.84,7.75,7.75,0,0,1-2.23,2.06,20.87,20.87,0,0,1-2.42,1.33c0-.07-.06-.15-.1-.23C117.42,212.16,117.62,202.6,117.62,202.6ZM76.12,318.07c0,1,0,1.55,0,1.55h0S76.09,319,76.12,318.07ZM60.23,148.47A46,46,0,0,0,57,145.09h0c1.23,1,2.38,2.51,3.22,3.37a27.3,27.3,0,0,1,.91-7.89h0A27,27,0,0,0,60.23,148.47Zm7.83,173.79a13.15,13.15,0,0,1-.42-1.58,13,13,0,0,0,.42,1.57l0,.08A.31.31,0,0,0,68.06,322.26Zm1.17,2.91h0l-.09.07c0-.07,0-.13-.08-.19s0,.12.08.19h0l.08-.06h0Zm8.14-1.23Zm0,0Zm-.59-2.26c0,.06,0,.13,0,.19l-.06-.19Zm.86,3.64h0c.92,5.83-2,5.64-2,5.64a9.62,9.62,0,0,1-5.84-4.52l.21-.11-.21.12a9.66,9.66,0,0,0,5.84,4.5S78.54,331.11,77.63,325.31Zm12.63-3.52h0c-.05.18-.09.36-.13.54l0,.19C90.14,322.28,90.19,322,90.26,321.79ZM89.77,324s0,0,0,0h0Zm8,.84.16.09.07,0,0,0h0c.08-.17.14-.34.21-.5-.07.17-.13.33-.21.5l-.09-.06h0l-.17-.1Zm-.37,1.38-.21-.11.22.11A9.66,9.66,0,0,1,91.78,331s-2.88.32-2.22-5.54h0c-.65,5.83,2.22,5.54,2.22,5.54A9.63,9.63,0,0,0,97.41,326.25Z" transform="translate(0 0.4)"/><path class="cls-33" d="M175.15,116c-5.86-13.12-32.62-21.41-32.62-21.41a179.78,179.78,0,0,1-17.81-6c.78-4.51,1.43-9.33,1.77-11.95h0c.16-1.23.25-2,.25-2,.4-2.59.81-5,1.24-7.39,3.7-20.56,8.31-32.42,10-36.33a17.64,17.64,0,0,1,7.17-6,17.37,17.37,0,0,1,4.45-1.16l.3,0a15.58,15.58,0,0,1,4.31.07,12.58,12.58,0,0,1,5.92,1.85h0a9.84,9.84,0,0,1,2.6,2.37l.1.14c.14.21.27.4.4.61l0,0a13.72,13.72,0,0,1,.24,14.66,12.35,12.35,0,0,1-2,2.65s-.55,1.93,5-2.16a16,16,0,0,0,4.16-9.76c-.3-8.16-5.1-13.51-11.06-17h0c-10.44-6.14-24.46-6.67-24.46-6.67-33.47-1.3-56.38,20.45-69,37.25A121.39,121.39,0,0,0,55.85,64.05a225.8,225.8,0,0,0-44.18-.3C-2.45,66.79.2,76.82.2,76.82c3.6,14.26,31,21.78,40,23.89a57.78,57.78,0,0,0-1.09,6.5c-.17,1.55-.31,3.15-.38,4.89a6.26,6.26,0,0,1-1.78,4.06s-8.11,7-5.74,17.1c0,0,.69,7.62,8.11,10.09,0,0-8.7-6.33-3.56-16.71,0,0-1.78,18.29,15.23,19a10.4,10.4,0,0,1-6-4.66l0,0-.88-4.2a14.59,14.59,0,0,0,9,7.75,28,28,0,0,0,2.37,5.6c-1.31,1.17-6.32,5.8-6.32,7.91a157.65,157.65,0,0,0-3.5,46.92,35,35,0,0,0,4.67,11.68c-.34,1.22-.7,2.51-1.07,3.89a.65.65,0,0,0,0,.13c-4.8,17.59-12.23,46.33-11,51.7,0,0,17.8,16.47,29.13,22.93a24.42,24.42,0,0,0-.52,4.52,161.69,161.69,0,0,0,.45,17.62h0l-1,2-.86,8.3a23.51,23.51,0,0,0,1.53,4.36,18.63,18.63,0,0,0,1.47,2.67l.39.58c2.16,3,5.51,5.29,10.47,3.71,0,0,4.34-1.45,2.23-8.43,0,0-2-4.68-3.16-8.12l-.81-2.84-1.24-1.9h0c.09-3.16.34-9.69.94-15a34.11,34.11,0,0,1,1.26-6.77s.94-5.55,1.55-12.09c.15-1.56.28-3.18.37-4.8A12.39,12.39,0,0,0,82,279v-1.81l2.68.11c.18,2.3.46,4.65.76,6.88.9,6.51,2.09,12,2.09,12a36.11,36.11,0,0,1,1.6,7c.81,5.26,1.33,11.59,1.56,14.68,0,.15,0,.3,0,.43,0-.13,0-.28,0-.43l-1.16,1.95-.69,2.87c-1,3.49-2.79,8.26-2.79,8.26-1.8,7.06,2.6,8.32,2.6,8.32,5,1.36,8.27-1.12,10.29-4.17l.37-.6a18.57,18.57,0,0,0,1.35-2.72A23.07,23.07,0,0,0,102,327.3L100.8,319l-1.12-2c0,.19,0,.36,0,.55l0-.55a152,152,0,0,0-.26-16.64A34.48,34.48,0,0,0,97,289.55c0-.13,0-.27,0-.41-.21-2.47.49-8.18,1.09-12.33,1.09-.14,2.15-.31,3.13-.52.45-.09.88-.2,1.29-.31.76,8.94,1.05,16.69.52,21.79,0,0,22-16.94,28.11-25.47a309.2,309.2,0,0,0-9.85-39.09,13,13,0,0,0,8.28-3h0c1.09-1.08,4-2.22,5.25-2.68l.59-.21A13,13,0,0,0,142,225a5,5,0,0,0,.2-.49c1.24-3.46-.9-8.71-.9-8.71a21.61,21.61,0,0,1-.61-3.69l.06-.75s0,.11,0,.28a27.15,27.15,0,0,0-.05-4.1c-.25-3.38-.85-6.84-.85-6.84s0-.25-.06-.38a33.71,33.71,0,0,0-5.85-13.4,54.82,54.82,0,0,0-4-5.1,47.6,47.6,0,0,0-4.15-4.19,26.83,26.83,0,0,1-4-4.06c-1.42-1.65-2.93-3.56-4.31-5.38l-1.56-2.07A80.89,80.89,0,0,0,114,158c0-.9-1.07-2.32-2.4-3.75a12.23,12.23,0,0,0-.82-1.8,11.91,11.91,0,0,0-1.49-2.08l.07-5.73a12.28,12.28,0,0,0,4.75-4.09,25.72,25.72,0,0,0,6.23-5.05,20.15,20.15,0,0,0,5.38-17l2,.3a13.14,13.14,0,0,1,2.36,14.9s4.86-6.34,3.34-14.09c11.15,1.55,18.82,2.3,18.82,2.3C178.11,124.73,175.15,116,175.15,116ZM39.27,106.57c.28-.91.83-2.6,1.61-4.68C40.1,104,39.55,105.66,39.27,106.57Zm1.62-4.69.35-.93h0ZM117.62,202.6l.06-.82a23.55,23.55,0,0,1,2.34,3.59,21.18,21.18,0,0,1,.92,2c.31,1,.64,2.06,1,3.22a1.06,1.06,0,0,0,0,.19,18,18,0,0,1,.34,6,2.91,2.91,0,0,1-.54,1.84,7.75,7.75,0,0,1-2.23,2.06,20.87,20.87,0,0,1-2.42,1.33c0-.07-.06-.15-.1-.23C117.42,212.16,117.62,202.6,117.62,202.6ZM76.12,318.07c0,1,0,1.55,0,1.55h0S76.09,319,76.12,318.07ZM60.23,148.47A46,46,0,0,0,57,145.09h0c1.23,1,2.38,2.51,3.22,3.37a27.3,27.3,0,0,1,.91-7.89h0A27,27,0,0,0,60.23,148.47Zm7.83,173.79a13.15,13.15,0,0,1-.42-1.58,13,13,0,0,0,.42,1.57l0,.08A.31.31,0,0,0,68.06,322.26Zm1.17,2.91h0l-.09.07c0-.07,0-.13-.08-.19s0,.12.08.19h0l.08-.06h0Zm8.14-1.23Zm0,0Zm-.59-2.26c0,.06,0,.13,0,.19l-.06-.19Zm.86,3.64h0c.92,5.83-2,5.64-2,5.64a9.62,9.62,0,0,1-5.84-4.52l.21-.11-.21.12a9.66,9.66,0,0,0,5.84,4.5S78.54,331.11,77.63,325.31Zm12.63-3.52h0c-.05.18-.09.36-.13.54l0,.19C90.14,322.28,90.19,322,90.26,321.79ZM89.77,324s0,0,0,0h0Zm8,.84.16.09.07,0,0,0h0c.08-.17.14-.34.21-.5-.07.17-.13.33-.21.5l-.09-.06h0l-.17-.1Zm-.37,1.38-.21-.11.22.11A9.66,9.66,0,0,1,91.78,331s-2.88.32-2.22-5.54h0c-.65,5.83,2.22,5.54,2.22,5.54A9.63,9.63,0,0,0,97.41,326.25Z" transform="translate(0 0.4)"/><rect class="cls-34" x="0.36" height="30"/><rect class="cls-34" x="758.36" y="302" height="39"/></g></g></svg>