<svg xmlns="http://www.w3.org/2000/svg" xmlns:xlink="http://www.w3.org/1999/xlink" viewBox="0 0 758 341"><defs><style>.cls-1{isolation:isolate;}.cls-2{fill:#90654c;}.cls-3{fill:#8a5330;}.cls-4{fill:#e2b78d;}.cls-5{fill:#83503a;}.cls-6{fill:#ce8945;}.cls-7{fill:#f9d9b5;}.cls-8{fill:#f9d2a4;}.cls-9{fill:#e5af6e;}.cls-10{fill:#b7a238;}.cls-11{fill:#e69e1d;}.cls-12{fill:#d5772a;}.cls-13{fill:#9b4934;}.cls-14{fill:#7f3526;}.cls-15{fill:#cf6335;}.cls-16{fill:#9d4b31;}.cls-17{fill:#e39b1d;}.cls-18{fill:#d2772a;}.cls-19{fill:none;}.cls-20{fill:#913a30;}.cls-21{fill:#a18046;}.cls-22{mix-blend-mode:overlay;fill:url(#linear-gradient);}.cls-23{opacity:0.4;mix-blend-mode:multiply;fill:url(#linear-gradient-2);}.cls-24{fill:#fff;}</style><linearGradient id="linear-gradient" x1="415.85" y1="171.59" x2="600.92" y2="171.59" gradientUnits="userSpaceOnUse"><stop offset="0" stop-color="#f2deb6" stop-opacity="0"/><stop offset="0.99" stop-color="#f4e9d7" stop-opacity="0.6"/><stop offset="1" stop-color="#c7e1b7" stop-opacity="0.8"/></linearGradient><linearGradient id="linear-gradient-2" x1="410.57" y1="191.65" x2="496.97" y2="170.71" gradientUnits="userSpaceOnUse"><stop offset="0" stop-color="#564339"/><stop offset="0.22" stop-color="#564339" stop-opacity="0.87"/><stop offset="0.61" stop-color="#564339" stop-opacity="0.52"/><stop offset="1" stop-color="#564339" stop-opacity="0.1"/></linearGradient></defs><title>character9_10</title><g class="cls-1"><g id="Layer_1" data-name="Layer 1"><path class="cls-2" d="M493.46,333.49l.07,0a7.52,7.52,0,0,0,3.73-2h0l.18-.18a4.64,4.64,0,0,0,.28-1.4c.16-2.09-.75-5.65-7.14-10.61a31.72,31.72,0,0,0-8.17-3.66,18.81,18.81,0,0,0-1.84-.4l2.08,4.53S485.62,329.72,493.46,333.49Z" transform="translate(-0.36 0.4)"/><path class="cls-3" d="M477.48,314.74l-.05-1.35-1.84.78-3.65,5s-1.13,1-.73,3.57c.6,2.88,2.36,4.34,4.15,5.69a31.33,31.33,0,0,0,3.51,2.29h0l0,0,.19.1c6.7,3.81,11.51,3.34,14.38,2.65-7.84-3.77-10.81-13.7-10.81-13.7l-2.08-4.53a16.26,16.26,0,0,0-2.51-.22C477.71,315,477.83,314.71,477.48,314.74Z" transform="translate(-0.36 0.4)"/><path class="cls-4" d="M489.93,321.1a4,4,0,0,0-1.69-2.45l0,0a11,11,0,0,0-2.84-1.85c-.77-.37-1.49-.68-2.14-.94L481,314.59v.5c-2.78-.75-3.86-.26-3.86-.26a10.72,10.72,0,0,0,4,5.56h0a7.6,7.6,0,0,0,.93.55h0s3.75,2.22,6.38,1.24A2.25,2.25,0,0,0,489.93,321.1Z" transform="translate(-0.36 0.4)"/><path class="cls-5" d="M486.84,317.37s1.43,3.62-.14,6.17l1.33-.2s.83-4.08-.58-5.78Z" transform="translate(-0.36 0.4)"/><path class="cls-4" d="M477.43,313.39l-.95,2.65s.36,2.41,5.61,4.9Z" transform="translate(-0.36 0.4)"/><path class="cls-4" d="M503.61,276c-1,3-2.31,6.11-3.6,9-.05.11-.09.21-.14.31-.47,1-.92,2-1.37,2.95l-.6,1.27c-1.85,3.84-3.31,6.55-3.31,6.55l-.12.16a28.32,28.32,0,0,0-2.69,4.86c-2.46,5.35-5,12.75-6,15.72,0,.05,0,.09,0,.13-.25.75-.39,1.19-.39,1.19a5,5,0,0,1-3.16.62,5.51,5.51,0,0,1-1.83-.63,9.51,9.51,0,0,1-3.22-3.31c0-.22,0-.46,0-.71a4.7,4.7,0,0,1,0-.63A59.8,59.8,0,0,1,480,302.05c.76-2.34,1.58-4.69,2.39-6.85,1.12-3.07,2.17-5.75,2.85-7.49.25-.63.43-1.11.54-1.37l.09-.24c0-.12.09-.25.15-.39.21-.55.43-1.17.64-1.82,1.31-3.93,2.57-9.13,2.57-9.13C491.27,272.83,506.72,266.84,503.61,276Z" transform="translate(-0.36 0.4)"/><path class="cls-6" d="M503.61,276c-1,3-2.31,6.11-3.6,9-.05.11-.09.21-.14.31-.47,1-.92,2-1.37,2.95l-.6,1.27c-1.85,3.84-3.31,6.55-3.31,6.55l-.12.16c-3.44-.08-8.45-.62-12-1.05,1.12-3.07,2.17-5.75,2.85-7.49.25-.63.43-1.11.54-1.37l.09-.24c0-.12.09-.25.15-.39.21-.55.43-1.17.64-1.82,1.31-3.93,2.57-9.13,2.57-9.13C491.27,272.83,506.72,266.84,503.61,276Z" transform="translate(-0.36 0.4)"/><path class="cls-2" d="M536.59,336.28a.1.1,0,0,1,0,0,7.55,7.55,0,0,0,2.79-3.16h0a2.52,2.52,0,0,0,.1-.24,5,5,0,0,0-.23-1.41c-.6-2-2.72-5-10.47-7.36a31.77,31.77,0,0,0-8.94-.5c-.62.06-1.24.16-1.85.28l3.56,3.49S527.91,335.56,536.59,336.28Z" transform="translate(-0.36 0.4)"/><path class="cls-3" d="M515,324.47l-.53-1.24L513,324.61l-1.62,6s-.69,1.38.59,3.6c1.59,2.47,3.76,3.22,5.91,3.83a30.07,30.07,0,0,0,4.1.89h0l.22,0c7.62,1.17,11.94-1,14.38-2.66-8.68-.72-15-8.94-15-8.94L518,323.85a15.36,15.36,0,0,0-2.43.69C515.28,324.67,515.28,324.32,515,324.47Z" transform="translate(-0.36 0.4)"/><path class="cls-7" d="M528.86,326a4,4,0,0,0-2.45-1.69h0a11,11,0,0,0-3.3-.71q-1.29-.1-2.34-.12l-2.54-.37.19.47c-2.87.29-3.7,1.13-3.7,1.13a10.69,10.69,0,0,0,5.74,3.76h0a8.84,8.84,0,0,0,1.07.18h0s4.29.73,6.4-1.13A2.22,2.22,0,0,0,528.86,326Z" transform="translate(-0.36 0.4)"/><path class="cls-3" d="M524.64,323.59s2.64,2.87,2.08,5.81l1.16-.66s-.67-4.11-2.59-5.2Z" transform="translate(-0.36 0.4)"/><path class="cls-8" d="M514.68,324.67s-.09,3.71,6.82,3.94" transform="translate(-0.36 0.4)"/><path class="cls-7" d="M516,327s2.49,2.48,9.51,1.58" transform="translate(-0.36 0.4)"/><path class="cls-7" d="M503.83,295.17h0l.75,2.23s.17.61.49,1.65.76,2.57,1.25,4.24c2.05,7,5.26,17.57,8.35,21.38,0,0,7.43,4.42,9.66-.7a198.35,198.35,0,0,1-6-19,24.7,24.7,0,0,1-.78-5.13s-.52-3-1.44-7.2a1.6,1.6,0,0,0,0-.21,83.11,83.11,0,0,1-14.61-4.34C502.45,291.14,503.36,293.85,503.83,295.17Z" transform="translate(-0.36 0.4)"/><path class="cls-9" d="M515.82,291.31c-.26-1.11-.53-2.27-.84-3.48-.77-3.09-1.7-6.36-2.74-9.32-3.21-9.12-14.57-6-14.95-3.26,0,0,2.25,7,4.18,12.88a83.11,83.11,0,0,0,14.61,4.34c-.08-.38-.17-.77-.26-1.16Z" transform="translate(-0.36 0.4)"/><path class="cls-2" d="M540,173.91c-.58-.9-4.15-.33-4.21-.51.69,4.48,3.38,1.24,3.07,8.94l-1.65,12.19c-1.32,31.72-4,77.06-4,77.06-2.05,1.51-7.54,3.89-12,5.42a32.73,32.73,0,0,1-5,1.36c-9.83,1.49-20.41-.75-20.41-.75-1.48-.33-2.92-.68-4.34-1.07-1.11-.29-2.19-.6-3.27-.94a103,103,0,0,1-24.33-10.74c-18.53-11.34-26.27-24.6-26.27-24.6a80.09,80.09,0,0,1,7.88-11.16h0c1.05-1.28,2.12-2.57,3.2-3.85,1.57-1.88,3.16-3.74,4.69-5.56,1.17-1.39,2.31-2.76,3.36-4.09.12-.14.23-.29.34-.43h0c1.63-2.06,3.26-4.09,4.89-6.06h0c.67-.81,1.34-1.61,2-2.41l.69-.82.21-.25.62-.72.24-.3c1.34-1.55,2.66-3.07,4-4.53h0l.06-.07c1.22-1.39,2.43-2.74,3.6-4,.35-.4.71-.79,1-1.16l1.29-1.41q1.78-1.92,3.37-3.6l3.36-7.84,4.05-9.44,2.5-5.82c-.28-.44,1.61-9.52,1.43-10,0,0,1.21,1.59,1.23,1.59-1.89-5-4.88-4.37-4.88-4.37l7.95-9.39.05-.07.07-.07,3.43-4.06,5.29-6.27,1.9-2.23s24.36-2.69,30.9-1.93c1.64.19,6.72,6.18,7.9,6.73l-9.79-1.08a26.05,26.05,0,0,1-8.12,6.42c3.31,4.62,8.88,1.71,12.91,5.75-.64,2.54-2.62,12.5-2.62,15.53C536.14,167.17,539.53,169.89,540,173.91Z" transform="translate(-0.36 0.4)"/><path class="cls-3" d="M507.53,174.81,497.76,243s.52.34,1.49.86l-.42,1.89a42.42,42.42,0,0,0,10.84,4.52l0,.1a5.79,5.79,0,0,0-.05,2.26,5.65,5.65,0,0,0,.91,2.29,3.4,3.4,0,0,0,1.06,2c.69,2.35,2.44,2.17,2.44,2.17,3-1.46,3.77-5.35,4-7.64a27.27,27.27,0,0,0,10.35-1.71l.33-1.57a21.71,21.71,0,0,0,2.11-.7L542.9,165S525.46,147.84,507.53,174.81Z" transform="translate(-0.36 0.4)"/><path class="cls-2" d="M545.28,163s-.3-15.94-6.45-19.12-10.65,3.49-10.65,3.49l-5.35,3.19v10.82l1.28,4.32" transform="translate(-0.36 0.4)"/><path class="cls-3" d="M529.57,148.59s-10,4.36-16.57,2.92c0,0-18.25,8.05-22.29,22.14,0,0-4.65,17.87,11.63,27.93,0,0-10.39,10.86-31.55,6.46l-5.36-3.15c1.42-1.66,2.82-3.28,4.2-4.83h0l.06-.07c1.22-1.39,2.44-2.74,3.6-4l1-1.15c1.66-1.81,3.21-3.49,4.66-5l9.91-23.11c-.28-.43,1.61-9.51,1.43-10,0,0,1.21,1.59,1.23,1.59-1.89-5-4.88-4.37-4.88-4.37l16.79-19.85,6.32-.9,1.94-.62Z" transform="translate(-0.36 0.4)"/><path class="cls-3" d="M475.63,193.39v14.69s-19,9.35-30.23,21c2.58-3.17,5.32-6.35,7.89-9.41,1.3-1.54,2.55-3.05,3.7-4.52h0c1.63-2.06,3.26-4.09,4.89-6.06h0c.67-.81,1.34-1.61,2-2.41l.69-.82.21-.25.62-.72.24-.3c1.34-1.55,2.66-3.07,4-4.53h0l.06-.07c1.22-1.39,2.43-2.74,3.6-4,.35-.4.71-.79,1-1.16Z" transform="translate(-0.36 0.4)"/><path class="cls-7" d="M514,255c.69,2.35,2.43,2.17,2.43,2.17,3-1.46,3.77-5.35,4-7.64a13.92,13.92,0,0,1-8.4,1.14,5.65,5.65,0,0,0,.91,2.29A3.45,3.45,0,0,0,514,255Z" transform="translate(-0.36 0.4)"/><path class="cls-9" d="M520.37,249.49v-.05h0l-4.48-2.86-2.76-.71a6.93,6.93,0,0,0-1.11,2.5,5.81,5.81,0,0,0-.06,2.26A13.92,13.92,0,0,0,520.37,249.49Z" transform="translate(-0.36 0.4)"/><path class="cls-2" d="M533.16,245.51a20.85,20.85,0,0,1-2.11.7c-12.66,3.74-25.2-2.07-29.42-4.35-1-.52-1.49-.86-1.49-.86l9.77-68.19c17.93-27,35.37-9.84,35.37-9.84Z" transform="translate(-0.36 0.4)"/><path class="cls-10" d="M530.73,247.78c-14.52,5.54-29.52-4-29.52-4l.42-1.89c4.22,2.28,16.76,8.09,29.42,4.35Z" transform="translate(-0.36 0.4)"/><path class="cls-3" d="M531.05,157.1a28.93,28.93,0,0,0-21.14,15.71s5.8-17.33,21.14-18.36C531.05,154.45,542.85,155,531.05,157.1Z" transform="translate(-0.36 0.4)"/><path class="cls-3" d="M531.05,157.1s11.58,1.2,14.08,6.87l-.17-4.23a15.56,15.56,0,0,0-17.64-4.68" transform="translate(-0.36 0.4)"/><path class="cls-11" d="M496.44,130.56a1.8,1.8,0,0,0,.09.26l.13,0Z" transform="translate(-0.36 0.4)"/><path class="cls-12" d="M522.68,145.21c-4.69-1.91-16.33-6.58-19.25-8.51a79.68,79.68,0,0,1-6.77-5.92l-.13,0c.52,1.27,4.74,9.25,16.47,15.88.62-.19,3.57-.4,4.07-.52A49.25,49.25,0,0,1,522.68,145.21Z" transform="translate(-0.36 0.4)"/><path class="cls-12" d="M493.65,134.91a8.51,8.51,0,0,1-1.47,2c2.2,2.74,8.84,8,15.51,11.88,2.43-1,3.38-1.44,5.31-2.06-11.73-6.63-15.95-14.61-16.47-15.88a15.45,15.45,0,0,0-6.34,3.15,19.37,19.37,0,0,0,1.08,1.71C493.15,134.19,493.65,134.91,493.65,134.91Z" transform="translate(-0.36 0.4)"/><path class="cls-11" d="M440,178.6a27.92,27.92,0,0,0-1.55,4.11c-.35,1.42-1.82,7.75,0,9.8a1.84,1.84,0,0,1-1.16,2.59s-3.17,2.85,1-11.91a23.53,23.53,0,0,1-2,3.5s-4.07,4.51-4.08,8.44c2.75,2.19,9.16,5.55,22.08,4.63a8.32,8.32,0,0,0,.6-3.08h0a3.17,3.17,0,0,1,.13-2.05,19.23,19.23,0,0,1,2.55-5.95h-.09S444.77,184.86,440,178.6Z" transform="translate(-0.36 0.4)"/><path class="cls-11" d="M465.9,153.93a51.89,51.89,0,0,0-5.7,2.7c1.93,2.86,8.49,8.77,16.93,13.6a74.84,74.84,0,0,1,8.18-8.88c-3.45-1.86-10.92-6.35-13.86-10A28.91,28.91,0,0,1,465.9,153.93Z" transform="translate(-0.36 0.4)"/><path class="cls-11" d="M485.88,140.49a6.26,6.26,0,0,0-.22,1.66l.69-.94C486.19,141,486,140.73,485.88,140.49Z" transform="translate(-0.36 0.4)"/><path class="cls-11" d="M501.37,151.46c-3.55-2-12.07-6.28-14.79-9.94l-.92.63s-3.62,2.56-7.9,5.32c2.11,2.34,7.8,6.59,12.72,9.63a27.46,27.46,0,0,1,5.18-2.84S499.58,152.25,501.37,151.46Z" transform="translate(-0.36 0.4)"/><path class="cls-12" d="M454.3,199.76c.64,0,1.29-.1,2-.17h.15a8.35,8.35,0,0,1-1.51-2.9h0A8.32,8.32,0,0,1,454.3,199.76Z" transform="translate(-0.36 0.4)"/><path class="cls-12" d="M451.67,205.78a61.61,61.61,0,0,1-8.76-.3v0s-1.13,5.83,9.77,6.26c0,0,13.88,4.36,19.53,7,0,0-6.31-9.95-12.74-15.9C455.91,204.39,451.67,205.78,451.67,205.78Z" transform="translate(-0.36 0.4)"/><path class="cls-12" d="M493.65,134.91s-.5-.72-2.38.77c.27.37.57.78.91,1.2A8.51,8.51,0,0,0,493.65,134.91Z" transform="translate(-0.36 0.4)"/><path class="cls-12" d="M486.35,141.21l-.69.94.92-.63Z" transform="translate(-0.36 0.4)"/><path class="cls-12" d="M438.4,182.71l.08-.29c-.08.27-.15.52-.22.77l0-.08C438.33,183,438.37,182.85,438.4,182.71Z" transform="translate(-0.36 0.4)"/><path class="cls-12" d="M437.26,195.1a1.84,1.84,0,0,0,1.16-2.59c-1.84-2-.37-8.38,0-9.8,0,.14-.07.27-.1.4l0,.08C434.09,198,437.26,195.1,437.26,195.1Z" transform="translate(-0.36 0.4)"/><path class="cls-12" d="M466.18,176c-2.37,1.58-4.47,4.66-6,7.37l1.07.44C470.6,171.34,466.18,176,466.18,176Z" transform="translate(-0.36 0.4)"/><path class="cls-12" d="M469.26,172.81l-.34-.17a14.39,14.39,0,0,0-1.65,2.52A12,12,0,0,1,469.26,172.81Z" transform="translate(-0.36 0.4)"/><path class="cls-13" d="M491.27,135.68a19.37,19.37,0,0,1-1.08-1.71,12,12,0,0,0-1.59,1.66,13.36,13.36,0,0,0-2.72,4.86c.15.24.31.48.47.72A30.66,30.66,0,0,1,491.27,135.68Z" transform="translate(-0.36 0.4)"/><path class="cls-13" d="M486.58,141.52c2.72,3.66,11.24,8,14.79,9.94,1.92-.84,3.66-1.62,6.32-2.7-6.67-3.9-13.31-9.14-15.51-11.88A39,39,0,0,1,486.58,141.52Z" transform="translate(-0.36 0.4)"/><path class="cls-14" d="M491.27,135.68a30.66,30.66,0,0,0-4.92,5.53l.23.31a39,39,0,0,0,5.6-4.64C491.84,136.46,491.54,136.05,491.27,135.68Z" transform="translate(-0.36 0.4)"/><path class="cls-13" d="M471.45,151.32c2.94,3.68,10.41,8.17,13.86,10a59.41,59.41,0,0,1,5.17-4.25c-4.92-3-10.61-7.29-12.72-9.63C475.7,148.79,473.49,150.17,471.45,151.32Z" transform="translate(-0.36 0.4)"/><path class="cls-13" d="M454.27,160.3c2.31,5.55,10.59,10.29,14.65,12.34a2.82,2.82,0,0,1,2-1.24s-.78.58-1.67,1.41c1.05.53,3.25,1.83,3.39,1.9.79-1.2,2.94-2.52,4.48-4.48-8.44-4.83-15-10.74-16.93-13.6A58.65,58.65,0,0,0,454.27,160.3Z" transform="translate(-0.36 0.4)"/><path class="cls-14" d="M470.93,171.4a2.82,2.82,0,0,0-2,1.24l.34.17C470.15,172,470.93,171.4,470.93,171.4Z" transform="translate(-0.36 0.4)"/><path class="cls-14" d="M459.88,185.62c.51-.57,1.06-1.14,1.67-1.71l-.29-.12Z" transform="translate(-0.36 0.4)"/><path class="cls-13" d="M457.68,188.51a47.59,47.59,0,0,1,2.51-5.16c-10.53-4.51-15-9.32-16.69-11.69l-.21.37s-1.86,3.26-3.34,6.57c4.82,6.26,17.54,10.07,17.54,10.07h.09l.11-.18Z" transform="translate(-0.36 0.4)"/><path class="cls-14" d="M459.88,185.62a22.65,22.65,0,0,0-2.19,2.88Z" transform="translate(-0.36 0.4)"/><path class="cls-14" d="M457.68,188.51h0a22.65,22.65,0,0,1,2.19-2.88l1.38-1.83-1.07-.44A47.59,47.59,0,0,0,457.68,188.51Z" transform="translate(-0.36 0.4)"/><path class="cls-13" d="M438.08,200.45l.52.43c10.86,5.18,14.48,1.84,15.7-1.12-12.92.92-19.33-2.44-22.08-4.63a5.43,5.43,0,0,0,0,.57A14,14,0,0,0,438.08,200.45Z" transform="translate(-0.36 0.4)"/><path class="cls-14" d="M454.3,199.76c-1.22,3-4.84,6.3-15.7,1.12,1.09.92,3.61,3.13,4.31,4.6a61.61,61.61,0,0,0,8.76.3s4.24-1.39,7.8-2.89a24.66,24.66,0,0,1-3.06-3.31h-.15C455.59,199.66,454.94,199.71,454.3,199.76Z" transform="translate(-0.36 0.4)"/><path class="cls-11" d="M472.65,174.71c-.14-.07-2.34-1.37-3.39-1.9a12,12,0,0,0-2,2.35,14.39,14.39,0,0,1,1.65-2.52c-4.06-2-12.34-6.79-14.65-12.34a36.11,36.11,0,0,0-10.77,11.36c1.69,2.37,6.16,7.18,16.69,11.69,1.52-2.71,3.62-5.79,6-7.37,0,0,4.42-4.64-4.92,7.81l.29.12a23.58,23.58,0,0,1,2.32-1.86h0Z" transform="translate(-0.36 0.4)"/><path class="cls-3" d="M457.65,216.56c-.35-.32-.69-.64-1-1-1,1.33-2.19,2.7-3.36,4.09-1.53,1.82-3.12,3.68-4.69,5.56.69.09,1.44.15,2.26.18,0,0,13.88,4.37,19.53,7C470.39,232.47,464.08,222.52,457.65,216.56Z" transform="translate(-0.36 0.4)"/><path class="cls-2" d="M515.19,278.5s11.26-.42,17.38-3.48l.73-5.23" transform="translate(-0.36 0.4)"/><path class="cls-7" d="M561.79,109.5c0,.13,0,.26,0,.39-.43,4.09-1.74,8.4-4.81,11.6a15.4,15.4,0,0,1-6.22,3.84l-1.79-8-.74-3.27-3.93-17.6,4.14-2.93a31.47,31.47,0,0,0,7.22,18.27C557.74,111.09,559.8,110.32,561.79,109.5Z" transform="translate(-0.36 0.4)"/><path class="cls-15" d="M551.94,134.91l-5-3.89-47.57,2.61a24.46,24.46,0,0,1-7-1c-6.53-2.29-7.58-7.85-7.59-11.18a14.13,14.13,0,0,1,.23-2.67,16.49,16.49,0,0,0,1.27,14.83c-5.65-3.78-5.93-8.73-5.21-12.16a14.83,14.83,0,0,1,1.51-4.06c2.86-4.55,2-11.27,2-11.27s63.22-26.58,63.78-13.49c0,.3,0,.59.06.88a31.47,31.47,0,0,0,7.22,18.27c.63.71,1,1.07,1,1.07a5,5,0,0,1-2.92-.44,11.7,11.7,0,0,1-3.57-2.54,8.57,8.57,0,0,0,1.89,3.06,13.84,13.84,0,0,0,1.07,1.08,13.68,13.68,0,0,1,3.83,7.46C558,128.84,551.94,134.91,551.94,134.91Z" transform="translate(-0.36 0.4)"/><path class="cls-9" d="M561.79,109.5c-2,.82-4,1.59-6.16,2.3-2-2.37-12.43-9.2-13.09-18.85l5.08-10.19,8,.93,5.3,13.59A40.28,40.28,0,0,1,561.79,109.5Z" transform="translate(-0.36 0.4)"/><path class="cls-16" d="M555.63,111.8l-1.9.63-1.68.52c-1.26.39-2.55.76-3.85,1.11-22.56,6.16-48.53,7.32-63.44,7.41a14.13,14.13,0,0,1,.23-2.67,15.87,15.87,0,0,0-.82,2.67c-1.1,0-2.15,0-3.12,0a14.83,14.83,0,0,1,1.51-4.06c2.86-4.55,2-11.27,2-11.27s63.22-31.91,63.78-18.82c0,.3,0,5.92.06,6.21A31.47,31.47,0,0,0,555.63,111.8Z" transform="translate(-0.36 0.4)"/><path class="cls-16" d="M550.16,131.85s6.71-9.56-2.91-18.07c0,0,10.1,9.63-3,18.07" transform="translate(-0.36 0.4)"/><path class="cls-16" d="M484.89,121.47a10.4,10.4,0,0,0,7.85,11.18s-8.48-2-5.53-13.47Z" transform="translate(-0.36 0.4)"/><path class="cls-16" d="M492.19,119.18s-4.22,8.25,3.2,10c0,0-6.25-.77,0-10" transform="translate(-0.36 0.4)"/><path class="cls-16" d="M536.27,116.19s6.8,6.09,3.53,11.71c0,0,4.42-3.46-1.32-14.12S536.27,116.19,536.27,116.19Z" transform="translate(-0.36 0.4)"/><path class="cls-17" d="M550.7,143l-.19.21-.11-.09Z" transform="translate(-0.36 0.4)"/><path class="cls-18" d="M525.49,147.17c5.2,0,12.67-.18,16.2-.92a77.29,77.29,0,0,0,8.71-3.13l.11.09c-1,1-6,5.72-19.78,7.59-.51-.44-1-.83-1.41-1.15A30.11,30.11,0,0,0,525.49,147.17Z" transform="translate(-0.36 0.4)"/><path class="cls-19" d="M494.93,138v-.26h0Z" transform="translate(-0.36 0.4)"/><path class="cls-19" d="M495.14,144.92c.08.26.17.49.25.69C495.31,145.41,495.22,145.18,495.14,144.92Z" transform="translate(-0.36 0.4)"/><path class="cls-19" d="M494.5,142.29c.06.25.13.47.19.69C494.63,142.76,494.56,142.54,494.5,142.29Z" transform="translate(-0.36 0.4)"/><path class="cls-19" d="M495,136.44c0-.21,0-.39,0-.6C495,136.05,495,136.23,495,136.44Z" transform="translate(-0.36 0.4)"/><path class="cls-19" d="M495.07,133.48c0-.19.05-.37.09-.56C495.12,133.11,495.1,133.29,495.07,133.48Z" transform="translate(-0.36 0.4)"/><path class="cls-19" d="M494.18,140c0,.22,0,.42.06.62C494.22,140.45,494.19,140.25,494.18,140Z" transform="translate(-0.36 0.4)"/><path class="cls-19" d="M494.31,141.25c0,.24.08.45.12.66C494.39,141.7,494.34,141.49,494.31,141.25Z" transform="translate(-0.36 0.4)"/><path class="cls-13" d="M553.59,137.39c0-.59-.06-1-.06-1a6.21,6.21,0,0,0,0-1.86C553.09,131,549,132,549,132a36.76,36.76,0,0,1,.59,11.58,64.12,64.12,0,0,1,3.95-7.16,11.07,11.07,0,0,1-4,8.09c-.08.6.24,2.64.13,3.26,2.09-2.28,3.39-3.93,3.39-3.93C554,142.58,553.65,138.76,553.59,137.39Z" transform="translate(-0.36 0.4)"/><polygon class="cls-12" points="491.74 137.68 491.74 137.68 491.74 137.68 491.74 137.68"/><path class="cls-12" d="M494.93,137.77h0c0-.12,0-.22,0-.35C494.92,137.55,494.93,137.65,494.93,137.77Z" transform="translate(-0.36 0.4)"/><path class="cls-14" d="M553.53,136.38a64.12,64.12,0,0,0-3.95,7.16c0,.31-.06.62-.1.93A11.07,11.07,0,0,0,553.53,136.38Z" transform="translate(-0.36 0.4)"/><path class="cls-11" d="M515.52,146.78a16.52,16.52,0,0,0-10.37,4.87c3.08,1.67,9.72,1,15.05,2.53C517.59,151.16,515.85,149.35,515.52,146.78Z" transform="translate(-0.36 0.4)"/><path class="cls-12" d="M515.35,144.72l-1.68.58a29.1,29.1,0,0,0-8.52,6.35,16.52,16.52,0,0,1,10.37-4.87C515.37,145.54,515.35,144.72,515.35,144.72Z" transform="translate(-0.36 0.4)"/><path class="cls-11" d="M521.29,142.27c.09.23.16.46.26.67l-.16,0,.32,0a5.64,5.64,0,0,1,0-.81Z" transform="translate(-0.36 0.4)"/><path class="cls-14" d="M521.39,143c-.63.15-3.09.76-6,1.74,0,0,0,.82.17,2.06a31.61,31.61,0,0,1,7.14,0,16,16,0,0,1-.95-3.82Z" transform="translate(-0.36 0.4)"/><path class="cls-12" d="M535,145.77l-2.31-1.21a22.7,22.7,0,0,0-11-1.63,16,16,0,0,0,.95,3.82,42.12,42.12,0,0,1,8.5,1.74c3.25,1.2,4.94,1.16,5.83.73A20.51,20.51,0,0,0,535,145.77Z" transform="translate(-0.36 0.4)"/><path class="cls-13" d="M535,145.77l1.21.51a29.91,29.91,0,0,0-3.52-1.72l2.31,1.21Z" transform="translate(-0.36 0.4)"/><path class="cls-13" d="M540.42,130.93a58.61,58.61,0,0,1-7,.32c.25,5.28.19,11-1,13.2l.22.11a29.91,29.91,0,0,1,3.52,1.72c1.95.86,3.53,1.63,4.7,2.23.09-1.73.35-7.42.22-13.25a6.05,6.05,0,0,1-1.13-.62S539,132.13,540.42,130.93Z" transform="translate(-0.36 0.4)"/><path class="cls-14" d="M540.42,130.93c-1.42,1.2-.44,3.71-.44,3.71a6.05,6.05,0,0,0,1.13.62c0-1.48-.09-3-.18-4.4Z" transform="translate(-0.36 0.4)"/><path class="cls-14" d="M537,149.22a1.72,1.72,0,0,0,.89-1.91c-1-.52-2-1.07-2.9-1.54A20.51,20.51,0,0,1,537,149.22Z" transform="translate(-0.36 0.4)"/><path class="cls-13" d="M540.89,148.51c0,.35,0,.55,0,.55a25.94,25.94,0,0,0-3-1.75,1.72,1.72,0,0,1-.89,1.91,9,9,0,0,1,1.22,5.21c1.77-1.26,3.81-1.08,5.41-2.53l-.34-2.06S542.45,149.32,540.89,148.51Z" transform="translate(-0.36 0.4)"/><path class="cls-13" d="M536.19,146.28l-1.21-.51h0c.91.47,1.95,1,2.9,1.54h0C537.31,146.93,536.75,146.61,536.19,146.28Z" transform="translate(-0.36 0.4)"/><path class="cls-12" d="M502.79,128.86l2-.34-2.22.37Z" transform="translate(-0.36 0.4)"/><path class="cls-11" d="M500.34,149.69h0c1.5,1.14,3.59,1.23,4.81,2,0,0-2.28-2.83-4.95-6C500.36,146.68,500,148.69,500.34,149.69Z" transform="translate(-0.36 0.4)"/><path class="cls-11" d="M513.62,145.32a57,57,0,0,1,.66-17.42c-1.72-.13-3.48-.19-5.18-.2-1.58.31-3.07.59-4.32.81h0l-2,.34h0a34.09,34.09,0,0,0-2.88,13.37,3.25,3.25,0,0,1,.58.88s4.94,6.59,4.66,8.54a29.1,29.1,0,0,1,8.52-6.35Z" transform="translate(-0.36 0.4)"/><path class="cls-12" d="M500.49,143.11a3.25,3.25,0,0,0-.58-.88,22.49,22.49,0,0,0,.29,3.44c2.67,3.15,4.95,6,4.95,6C505.43,149.7,500.49,143.11,500.49,143.11Z" transform="translate(-0.36 0.4)"/><path class="cls-11" d="M495.39,145.61c-.08-.2-.17-.43-.25-.69,0,0-.43-1.88-.45-1.94-.06-.22-.13-.44-.19-.69s0-.25-.07-.38-.09-.42-.12-.66-.05-.4-.07-.6-.05-.4-.06-.62.76-1.73.75-2v-.26c-.91-.9-2.41-.32-2.83-.49,0,1.67,3.28,8.43,3.28,8.43v-.1Z" transform="translate(-0.36 0.4)"/><path class="cls-12" d="M494.92,137.42c0-.1,0-.21,0-.32a3.69,3.69,0,0,0-2.84.18h0c.42.17,1.92-.41,2.83.49C494.93,137.65,494.92,137.55,494.92,137.42Z" transform="translate(-0.36 0.4)"/><polygon class="cls-13" points="504.42 128.92 504.42 128.92 504.41 128.92 504.42 128.92"/><path class="cls-13" d="M502.55,128.89l-1.63.28,1.87-.31Z" transform="translate(-0.36 0.4)"/><path class="cls-13" d="M500.92,129.1v.07l0-.07Z" transform="translate(-0.36 0.4)"/><path class="cls-13" d="M501,129.1l0,.07.14-.08Z" transform="translate(-0.36 0.4)"/><path class="cls-13" d="M501.06,129.09l-.14.08,1.63-.28Z" transform="translate(-0.36 0.4)"/><path class="cls-13" d="M537.88,147.3h0a25.94,25.94,0,0,1,3,1.75s0-.2,0-.55c-1.17-.6-2.75-1.37-4.7-2.23C536.75,146.61,537.31,146.93,537.88,147.3Z" transform="translate(-0.36 0.4)"/><path class="cls-13" d="M515.52,146.78c.33,2.57,2.07,4.38,4.68,7.4h0c1.73.51,3.42,1,4.93,1.39,2,.54,3.34-.62,4.53-.32-1.46-2.35-5.33-3.83-7-8.5A31.61,31.61,0,0,0,515.52,146.78Z" transform="translate(-0.36 0.4)"/><polygon class="cls-13" points="519.84 154.58 519.84 154.58 519.84 154.58 519.84 154.58"/><path class="cls-13" d="M517.92,143.66a26.27,26.27,0,0,0-4.25,1.64l1.68-.58h0Z" transform="translate(-0.36 0.4)"/><path class="cls-20" d="M521.29,142.27l-3.37,1.39a22.2,22.2,0,0,1,3.47-.68l.16,0C521.45,142.73,521.38,142.5,521.29,142.27Z" transform="translate(-0.36 0.4)"/><path class="cls-20" d="M517.92,143.66l-2.57,1.06h0c2.95-1,5.41-1.59,6-1.74A22.2,22.2,0,0,0,517.92,143.66Z" transform="translate(-0.36 0.4)"/><path class="cls-13" d="M521.29,142.27c-1.22-3.39-.62-9,.11-13.09a31.23,31.23,0,0,0-7.12-1.28,57,57,0,0,0-.66,17.42l0,0a26.27,26.27,0,0,1,4.25-1.64Z" transform="translate(-0.36 0.4)"/><path class="cls-11" d="M549.24,144.64a5.67,5.67,0,0,1,.34-1.1A36.76,36.76,0,0,0,549,132s-3.75,5-7.88,3.3c.13,5.83-.13,11.52-.22,13.25,1.56.81,2.39,1.33,2.39,1.33l.34,2.06c.89-.82,2.12-1.42,2.92-2.22,1.12-1.12,2.19-1,3.07-2,.11-.62-.21-2.66-.13-3.26Z" transform="translate(-0.36 0.4)"/><path class="cls-12" d="M540.93,130.86c.09,1.44.15,2.92.18,4.4C545.24,137,549,132,549,132a21.33,21.33,0,0,0-5.48-1.61A20.67,20.67,0,0,1,540.93,130.86Z" transform="translate(-0.36 0.4)"/><path class="cls-12" d="M549.48,144.47c0-.31.07-.62.1-.93a5.67,5.67,0,0,0-.34,1.1Z" transform="translate(-0.36 0.4)"/><path class="cls-13" d="M500.2,145.67c-2.06-2.42-3.59-6.23-5.27-7.9V138c0,.27-.76,1.75-.75,2s0,.42.06.62,0,.41.07.6.08.45.12.66.05.26.07.38.13.47.19.69c0,.06.43,1.89.45,1.94a5,5,0,0,0,.15.49.94.94,0,0,1,.06.15l0,.15.34.28c.84.71,2.21,1.88,4.62,3.7h0C500,148.69,500.36,146.68,500.2,145.67Z" transform="translate(-0.36 0.4)"/><path class="cls-14" d="M494.92,137.42c0,.13,0,.23,0,.35,1.68,1.67,3.21,5.48,5.27,7.9a22.49,22.49,0,0,1-.29-3.44c-1.22-1.41-3.09-4.14-5-5.13C494.94,137.21,494.92,137.32,494.92,137.42Z" transform="translate(-0.36 0.4)"/><path class="cls-13" d="M494.43,141.91c0,.13.05.26.07.38C494.48,142.17,494.46,142,494.43,141.91Z" transform="translate(-0.36 0.4)"/><path class="cls-13" d="M495,136.44c0,.22,0,.45-.05.66h0C495,136.89,495,136.66,495,136.44Z" transform="translate(-0.36 0.4)"/><path class="cls-13" d="M494.24,140.65c0,.2,0,.41.07.6C494.28,141.06,494.26,140.85,494.24,140.65Z" transform="translate(-0.36 0.4)"/><path class="cls-13" d="M495.38,145.71" transform="translate(-0.36 0.4)"/><path class="cls-13" d="M494.69,143c0,.06.43,1.89.45,1.94S494.71,143,494.69,143Z" transform="translate(-0.36 0.4)"/><path class="cls-13" d="M495,135.84c0-.39,0-2,0-2.36C495,133.89,495.07,135.45,495,135.84Z" transform="translate(-0.36 0.4)"/><path class="cls-13" d="M494.93,138c0,.27-.76,1.75-.75,2C494.17,139.78,494.94,138.3,494.93,138Z" transform="translate(-0.36 0.4)"/><path class="cls-13" d="M494.94,137.1c0,.11,0,.22,0,.32,0-.1,0-.21,0-.32Z" transform="translate(-0.36 0.4)"/><path class="cls-11" d="M533.45,131.25l-1.77,0a51.44,51.44,0,0,1-8.65-1.37h0a12.29,12.29,0,0,0-1.63-.67c-.73,4.13-1.33,9.7-.11,13.09l.39-.15a5.64,5.64,0,0,0,0,.81,22.7,22.7,0,0,1,11,1.63l-.22-.11C533.64,142.23,533.7,136.53,533.45,131.25Z" transform="translate(-0.36 0.4)"/><path class="cls-11" d="M538.21,154.43a9,9,0,0,0-1.22-5.21c-.89.43-2.58.47-5.83-.73a42.12,42.12,0,0,0-8.5-1.74c1.67,4.67,5.54,6.15,7,8.5a1.28,1.28,0,0,0,.55,0C531.7,155.28,535.9,155.23,538.21,154.43Z" transform="translate(-0.36 0.4)"/><path class="cls-13" d="M495.13,144.87a6.86,6.86,0,0,0,.25.84l.14-.13Z" transform="translate(-0.36 0.4)"/><path class="cls-13" d="M502.79,128.87h-.13l-.12,0a13.67,13.67,0,0,0-5.81,1.22,2.65,2.65,0,0,1-.26.14v0a3.68,3.68,0,0,0-.83.7,19,19,0,0,0-.45,1.85l0,.08c0,.19,0,.37-.08.56-.07.42,0,2,0,2.36,0,.22,0,.41,0,.61s0,.44-.05.66c1.88,1,3.74,3.72,5,5.12A34,34,0,0,1,502.79,128.87Z" transform="translate(-0.36 0.4)"/><path class="cls-11" d="M494.08,133.15a31.68,31.68,0,0,0-2,4.13,3.69,3.69,0,0,1,2.84-.18c0-.22,0-.44.05-.66s0-.39,0-.61c0-.38,0-1.94,0-2.36,0-.19.05-.37.08-.56l0-.08a19,19,0,0,1,.45-1.85A13.26,13.26,0,0,0,494.08,133.15Z" transform="translate(-0.36 0.4)"/><path class="cls-2" d="M567.39,47.6S513.53,60,502.51,64.26l-17.95,6s-1.43.46-3.79,1.26l24.86,16.15-10.78,20.39c20-4.86,96.1-23.83,106-56.75C600.88,51.31,603.43,39.92,567.39,47.6Z" transform="translate(-0.36 0.4)"/><path class="cls-3" d="M480.77,71.52c-9.45,3.21-34.13,12-45,20.2,0,0-12,6.22-9.66,13.49,0,0,9.86,14.16,64,4,0,0,1.76-.38,4.81-1.13l13.5-21.63Z" transform="translate(-0.36 0.4)"/><path class="cls-2" d="M547.73,67.56s-2.34,2.63-8.39,6c-10.52,6.82-19.93,10.33-27.8,12q-2.7.72-5.43,1.3a205.82,205.82,0,0,0-8.73-25.58C469-5.64,427.18,25.66,426,26.54l0,0a18.66,18.66,0,0,0-1.79,1.58A15.42,15.42,0,0,0,421.28,32a21.56,21.56,0,0,0-2.35,10.94c.5,5.23-1.79,2.51-1.79,2.51a23.74,23.74,0,0,1-1.23-5.82.89.89,0,0,1,0-.23,20.48,20.48,0,0,1,0-3.24,24.58,24.58,0,0,1,1.16-6.06,29.26,29.26,0,0,1,10.08-13.79c.23-.24,8.12-7.69,25.24-11C464.12,2.87,481,2.8,502,12a89.55,89.55,0,0,1,12.38,8.34,106.15,106.15,0,0,1,20.54,21.28c.93,1.3,1.86,2.64,2.74,4,.59.91,1.17,1.85,1.73,2.8h0A84.18,84.18,0,0,1,547.73,67.56Z" transform="translate(-0.36 0.4)"/><path class="cls-10" d="M547.73,67.56s-2.34,2.63-8.39,6c-10.52,6.82-19.93,10.33-27.8,12q-2.7.72-5.43,1.3a205.82,205.82,0,0,0-8.73-25.58c13.36-3.68,27.68-9.73,37.51-19.66.93,1.3,1.86,2.64,2.74,4,.59.91,1.17,1.85,1.73,2.8h0A84.18,84.18,0,0,1,547.73,67.56Z" transform="translate(-0.36 0.4)"/><path class="cls-3" d="M497.38,61.28a171.9,171.9,0,0,1-28.05,5.12c-.64-2.33-1.26-4.5-1.81-6.41a89,89,0,0,0-6.73-16.35c-2.42-4.4-4.31-7.49-4.44-7.68C444.62,18.63,431,23.78,426,26.54,427.18,25.66,469-5.64,497.38,61.28Z" transform="translate(-0.36 0.4)"/><path class="cls-21" d="M506.11,86.86a175.86,175.86,0,0,1-31.35,3.4l-.33-1.94c-1.24-7.07-3.26-15.15-5.1-21.92a171.9,171.9,0,0,0,28.05-5.12A205.82,205.82,0,0,1,506.11,86.86Z" transform="translate(-0.36 0.4)"/><path class="cls-22" d="M567.39,47.6s-11.65,2.68-25.23,6q-1.33-2.64-2.8-5.12h0c-.56-1-1.14-1.89-1.73-2.8-.88-1.39-1.81-2.73-2.74-4a106.15,106.15,0,0,0-20.54-21.28A89.55,89.55,0,0,0,502,12c-21-9.2-37.85-9.13-49.56-6.71-17.12,3.33-25,10.78-25.24,11A29.26,29.26,0,0,0,417.09,30.1a24.58,24.58,0,0,0-1.16,6.06,20.48,20.48,0,0,0,0,3.24.89.89,0,0,0,0,.23,23.74,23.74,0,0,0,1.23,5.82s2.29,2.72,1.79-2.51A21.56,21.56,0,0,1,421.28,32a15.42,15.42,0,0,1,2.93-3.85A18.66,18.66,0,0,1,426,26.57l0,0c5-2.76,18.59-7.91,30.32,9.42.13.19,2,3.28,4.44,7.68A89,89,0,0,1,467.52,60c.55,1.91,1.17,4.08,1.81,6.41.72,2.64,1.46,5.49,2.18,8.4C460.06,79,444,85.55,435.75,91.72c0,0-12,6.22-9.66,13.49,0,0,9.2,13.2,58.54,4.94a15.92,15.92,0,0,1-2.07,7.26,14.64,14.64,0,0,0-1.5,4.06c-.73,3.43-.45,8.38,5.2,12.16A16.49,16.49,0,0,1,485,118.8a14.13,14.13,0,0,0-.23,2.67,15.45,15.45,0,0,0,.13,2,10.11,10.11,0,0,0,3.41,6.87,11.67,11.67,0,0,0,3.86,2.28,13.25,13.25,0,0,0-2,1.39,12,12,0,0,0-1.59,1.66,13.36,13.36,0,0,0-2.72,4.86,6.26,6.26,0,0,0-.22,1.66s-3.62,2.56-7.9,5.32c-2.06,1.33-4.27,2.7-6.31,3.85a28.91,28.91,0,0,1-5.55,2.61,51.89,51.89,0,0,0-5.7,2.7,58.65,58.65,0,0,0-5.93,3.67,36.11,36.11,0,0,0-10.77,11.36l-.21.37s-1.86,3.26-3.34,6.57a27.92,27.92,0,0,0-1.55,4.11l.08-.29c-.08.27-.15.52-.22.77a23.53,23.53,0,0,1-2,3.5s-4.07,4.51-4.08,8.44a5.43,5.43,0,0,0,0,.57,14,14,0,0,0,5.84,4.75l.52.43c1.09.92,3.61,3.13,4.31,4.6v0s-1.13,5.83,9.77,6.26c0,0,2.39.75,5.58,1.81L457,215.16h0l-1.12,1.4-.82,1-1.76,2.1-2.69,3.19c-1.74,2.06-3.5,4.14-5.2,6.22h0a80.09,80.09,0,0,0-7.88,11.16s7.74,13.26,26.27,24.6a103,103,0,0,0,24.33,10.74c.29.1.59.17.88.26-.44,1.74-1.35,5.2-2.29,8-.21.65-.43,1.27-.64,1.82-.06.14-.1.27-.15.39l-.09.24c-.11.26-.29.74-.54,1.37-.68,1.74-1.73,4.42-2.85,7.49-.81,2.16-1.63,4.51-2.39,6.85a59.73,59.73,0,0,0-2.83,11.43l-1.62.69-3.65,5s-1.13,1-.73,3.57c.6,2.88,2.36,4.34,4.15,5.69a31.33,31.33,0,0,0,3.51,2.29h0l0,0,.19.1c6.7,3.81,11.51,3.34,14.38,2.65l.07,0a7.52,7.52,0,0,0,3.73-2h0l.18-.18a4.64,4.64,0,0,0,.28-1.4c.16-2.09-.75-5.65-7.14-10.61a28.62,28.62,0,0,0-3.1-1.72l0,0-.13,0c-.47-.23-1-.46-1.54-.69h0c1-3,3.54-10.37,6-15.72a28.32,28.32,0,0,1,2.69-4.86l.12-.16s1.46-2.71,3.31-6.55l.6-1.27c.45-.95.9-1.92,1.37-2.95.05-.1.09-.2.14-.31s.16-.38.25-.57c.4,1.23.81,2.49,1.21,3.69,1,3,1.89,5.72,2.36,7h0l.75,2.23s.17.61.49,1.65.76,2.57,1.25,4.24c1.9,6.44,4.78,16,7.64,20.39l-1,.93-1.62,6s-.69,1.38.59,3.6c1.59,2.47,3.76,3.22,5.91,3.83a30.07,30.07,0,0,0,4.1.89h0l.22,0c7.62,1.17,11.94-1,14.38-2.66a.1.1,0,0,1,0,0,7.55,7.55,0,0,0,2.79-3.16h0a2.52,2.52,0,0,0,.1-.24,5,5,0,0,0-.23-1.41c-.6-2-2.72-5-10.47-7.36a32,32,0,0,0-3.51-.5l0,0h-.14l-1-.07a190.54,190.54,0,0,1-5.8-18.47,24.7,24.7,0,0,1-.78-5.13s-.52-3-1.44-7.2a1.6,1.6,0,0,0,0-.21c-.08-.38-.17-.77-.26-1.16h0c-.26-1.11-.53-2.27-.84-3.48-.75-3-1.64-6.17-2.65-9.05,1-.07,2-.16,2.95-.29s11.49-.57,17.29-3.47l.46-3.31.16-.12s0-.63.11-1.8h0c.3-5.34,1.25-21.82,2.2-40.23L545.13,164h0l.15-1a52.53,52.53,0,0,0-1.56-11.15c.88-.77,2-1.37,2.82-2.14,1.12-1.12,2.19-1,3.07-2,2.09-2.28,3.39-3.93,3.39-3.93,1-1.22.65-5,.59-6.41,0-.59-.06-1-.06-1a6.21,6.21,0,0,0,0-1.86,3.58,3.58,0,0,0-.34-1.13c1.72-2.24,4.48-6.75,3.72-11.9,3.07-3.2,4.38-7.51,4.81-11.6,0-.13,0-.26,0-.39a40.28,40.28,0,0,0-.86-12.22l-3.7-9.49c20.61-9.21,39.09-21.37,43.65-36.48C600.88,51.31,603.43,39.92,567.39,47.6ZM489.56,161.86a27.92,27.92,0,0,0-.65,4.83l-2.5,5.82L482.36,182l-2.88,6.74L479,189.8c-1.06,1.12-2.18,2.31-3.37,3.59l-1.29,1.41-.47.52c-.19.22-.39.42-.58.64l-1.69,1.87-.32.36L469.69,200l-.06.07h0c-.83.93-1.68,1.9-2.52,2.88l-1.44,1.65-.17.21-.07.09h0l-.62.72-.21.25-.69.82-.38.46a55,55,0,0,0-4.06-4.25,24.66,24.66,0,0,1-3.06-3.31,8.35,8.35,0,0,1-1.51-2.9,3.17,3.17,0,0,1,.13-2.05,19.23,19.23,0,0,1,2.55-5.95l.11-.18,2.19-2.88c.51-.57,1.06-1.14,1.67-1.71l-.29-.12.29.12a23.58,23.58,0,0,1,2.32-1.86h0l8.79-7.33h0c.79-1.2,2.94-2.52,4.48-4.48a74.84,74.84,0,0,1,8.18-8.88,59.19,59.19,0,0,1,5-4.13C490.22,158.12,489.88,160,489.56,161.86Z" transform="translate(-0.36 0.4)"/><path class="cls-23" d="M567.39,47.6s-11.65,2.68-25.23,6q-1.33-2.64-2.8-5.12h0c-.56-1-1.14-1.89-1.73-2.8-.88-1.39-1.81-2.73-2.74-4a106.15,106.15,0,0,0-20.54-21.28A89.55,89.55,0,0,0,502,12c-21-9.2-37.85-9.13-49.56-6.71-17.12,3.33-25,10.78-25.24,11A29.26,29.26,0,0,0,417.09,30.1a24.58,24.58,0,0,0-1.16,6.06,20.48,20.48,0,0,0,0,3.24.89.89,0,0,0,0,.23,23.74,23.74,0,0,0,1.23,5.82s2.29,2.72,1.79-2.51A21.56,21.56,0,0,1,421.28,32a15.42,15.42,0,0,1,2.93-3.85A18.66,18.66,0,0,1,426,26.57l0,0c5-2.76,18.59-7.91,30.32,9.42.13.19,2,3.28,4.44,7.68A89,89,0,0,1,467.52,60c.55,1.91,1.17,4.08,1.81,6.41.72,2.64,1.46,5.49,2.18,8.4C460.06,79,444,85.55,435.75,91.72c0,0-12,6.22-9.66,13.49,0,0,9.2,13.2,58.54,4.94a15.92,15.92,0,0,1-2.07,7.26,14.64,14.64,0,0,0-1.5,4.06c-.73,3.43-.45,8.38,5.2,12.16A16.49,16.49,0,0,1,485,118.8a14.13,14.13,0,0,0-.23,2.67,15.45,15.45,0,0,0,.13,2,10.11,10.11,0,0,0,3.41,6.87,11.67,11.67,0,0,0,3.86,2.28,13.25,13.25,0,0,0-2,1.39,12,12,0,0,0-1.59,1.66,13.36,13.36,0,0,0-2.72,4.86,6.26,6.26,0,0,0-.22,1.66s-3.62,2.56-7.9,5.32c-2.06,1.33-4.27,2.7-6.31,3.85a28.91,28.91,0,0,1-5.55,2.61,51.89,51.89,0,0,0-5.7,2.7,58.65,58.65,0,0,0-5.93,3.67,36.11,36.11,0,0,0-10.77,11.36l-.21.37s-1.86,3.26-3.34,6.57a27.92,27.92,0,0,0-1.55,4.11l.08-.29c-.08.27-.15.52-.22.77a23.53,23.53,0,0,1-2,3.5s-4.07,4.51-4.08,8.44a5.43,5.43,0,0,0,0,.57,14,14,0,0,0,5.84,4.75l.52.43c1.09.92,3.61,3.13,4.31,4.6v0s-1.13,5.83,9.77,6.26c0,0,2.39.75,5.58,1.81L457,215.16h0l-1.12,1.4-.82,1-1.76,2.1-2.69,3.19c-1.74,2.06-3.5,4.14-5.2,6.22h0a80.09,80.09,0,0,0-7.88,11.16s7.74,13.26,26.27,24.6a103,103,0,0,0,24.33,10.74c.29.1.59.17.88.26-.44,1.74-1.35,5.2-2.29,8-.21.65-.43,1.27-.64,1.82-.06.14-.1.27-.15.39l-.09.24c-.11.26-.29.74-.54,1.37-.68,1.74-1.73,4.42-2.85,7.49-.81,2.16-1.63,4.51-2.39,6.85a59.73,59.73,0,0,0-2.83,11.43l-1.62.69-3.65,5s-1.13,1-.73,3.57c.6,2.88,2.36,4.34,4.15,5.69a31.33,31.33,0,0,0,3.51,2.29h0l0,0,.19.1c6.7,3.81,11.51,3.34,14.38,2.65l.07,0a7.52,7.52,0,0,0,3.73-2h0l.18-.18a4.64,4.64,0,0,0,.28-1.4c.16-2.09-.75-5.65-7.14-10.61a28.62,28.62,0,0,0-3.1-1.72l0,0-.13,0c-.47-.23-1-.46-1.54-.69h0c1-3,3.54-10.37,6-15.72a28.32,28.32,0,0,1,2.69-4.86l.12-.16s1.46-2.71,3.31-6.55l.6-1.27c.45-.95.9-1.92,1.37-2.95.05-.1.09-.2.14-.31s.16-.38.25-.57c.4,1.23.81,2.49,1.21,3.69,1,3,1.89,5.72,2.36,7h0l.75,2.23s.17.61.49,1.65.76,2.57,1.25,4.24c1.9,6.44,4.78,16,7.64,20.39l-1,.93-1.62,6s-.69,1.38.59,3.6c1.59,2.47,3.76,3.22,5.91,3.83a30.07,30.07,0,0,0,4.1.89h0l.22,0c7.62,1.17,11.94-1,14.38-2.66a.1.1,0,0,1,0,0,7.55,7.55,0,0,0,2.79-3.16h0a2.52,2.52,0,0,0,.1-.24,5,5,0,0,0-.23-1.41c-.6-2-2.72-5-10.47-7.36a32,32,0,0,0-3.51-.5l0,0h-.14l-1-.07a190.54,190.54,0,0,1-5.8-18.47,24.7,24.7,0,0,1-.78-5.13s-.52-3-1.44-7.2a1.6,1.6,0,0,0,0-.21c-.08-.38-.17-.77-.26-1.16h0c-.26-1.11-.53-2.27-.84-3.48-.75-3-1.64-6.17-2.65-9.05,1-.07,2-.16,2.95-.29s11.49-.57,17.29-3.47l.46-3.31.16-.12s0-.63.11-1.8h0c.3-5.34,1.25-21.82,2.2-40.23L545.13,164h0l.15-1a52.53,52.53,0,0,0-1.56-11.15c.88-.77,2-1.37,2.82-2.14,1.12-1.12,2.19-1,3.07-2,2.09-2.28,3.39-3.93,3.39-3.93,1-1.22.65-5,.59-6.41,0-.59-.06-1-.06-1a6.21,6.21,0,0,0,0-1.86,3.58,3.58,0,0,0-.34-1.13c1.72-2.24,4.48-6.75,3.72-11.9,3.07-3.2,4.38-7.51,4.81-11.6,0-.13,0-.26,0-.39a40.28,40.28,0,0,0-.86-12.22l-3.7-9.49c20.61-9.21,39.09-21.37,43.65-36.48C600.88,51.31,603.43,39.92,567.39,47.6ZM489.56,161.86a27.92,27.92,0,0,0-.65,4.83l-2.5,5.82L482.36,182l-2.88,6.74L479,189.8c-1.06,1.12-2.18,2.31-3.37,3.59l-1.29,1.41-.47.52c-.19.22-.39.42-.58.64l-1.69,1.87-.32.36L469.69,200l-.06.07h0c-.83.93-1.68,1.9-2.52,2.88l-1.44,1.65-.17.21-.07.09h0l-.62.72-.21.25-.69.82-.38.46a55,55,0,0,0-4.06-4.25,24.66,24.66,0,0,1-3.06-3.31,8.35,8.35,0,0,1-1.51-2.9,3.17,3.17,0,0,1,.13-2.05,19.23,19.23,0,0,1,2.55-5.95l.11-.18,2.19-2.88c.51-.57,1.06-1.14,1.67-1.71l-.29-.12.29.12a23.58,23.58,0,0,1,2.32-1.86h0l8.79-7.33h0c.79-1.2,2.94-2.52,4.48-4.48a74.84,74.84,0,0,1,8.18-8.88,59.19,59.19,0,0,1,5-4.13C490.22,158.12,489.88,160,489.56,161.86Z" transform="translate(-0.36 0.4)"/><rect class="cls-24" height="30"/><rect class="cls-24" x="758" y="302" height="39"/></g></g></svg>