<svg xmlns="http://www.w3.org/2000/svg" xmlns:xlink="http://www.w3.org/1999/xlink" viewBox="0 0 758.06 341"><defs><style>.cls-1{isolation:isolate;}.cls-2{fill:#b49f38;}.cls-3{fill:#7f5049;}.cls-4{fill:#683a2f;}.cls-5{fill:#f9d9b5;}.cls-6{fill:#e5af6e;}.cls-7{fill:#8a5330;}.cls-8{fill:#90654c;}.cls-9{fill:#cf6335;}.cls-10{fill:#9d4b31;}.cls-11{fill:#7f3526;}.cls-12{fill:#9b4934;}.cls-13{fill:#d5772a;}.cls-14{fill:#e69e1d;}.cls-15{fill:#b7a238;}.cls-16{fill:#a18046;}.cls-17{mix-blend-mode:overlay;fill:url(#linear-gradient);}.cls-18{opacity:0.4;mix-blend-mode:multiply;fill:url(#linear-gradient-2);}.cls-19{fill:#fff;}</style><linearGradient id="linear-gradient" x1="651.65" y1="395.43" x2="671.73" y2="11.43" gradientUnits="userSpaceOnUse"><stop offset="0" stop-color="#f2deb6" stop-opacity="0"/><stop offset="0.99" stop-color="#f4e9d7" stop-opacity="0.6"/><stop offset="1" stop-color="#c7e1b7" stop-opacity="0.8"/></linearGradient><linearGradient id="linear-gradient-2" x1="564.86" y1="369.47" x2="647.33" y2="178.34" gradientUnits="userSpaceOnUse"><stop offset="0" stop-color="#564339"/><stop offset="0.22" stop-color="#564339" stop-opacity="0.87"/><stop offset="0.61" stop-color="#564339" stop-opacity="0.52"/><stop offset="1" stop-color="#564339" stop-opacity="0.1"/></linearGradient></defs><title>character9_13</title><g class="cls-1"><g id="Layer_1" data-name="Layer 1"><path class="cls-2" d="M727.6,133.9" transform="translate(-0.36 0.4)"/><path class="cls-3" d="M738,114.83c0-.06-.06-.15-.2-.21s-.26-.06-.28,0,0,0,0,0h0l-2.93,6.67-10.27,21.43c-.09.23.25.59.77.82s1,.23,1.11,0c0,0,0,0,0,0h0l8.31-20.78,3.48-7.92h0Z" transform="translate(-0.36 0.4)"/><path class="cls-4" d="M725.45,142.63c-.81-.36-1.59-.36-1.74,0l-3.13,7.61c-.14.31.33.81,1,1.12s1.39.32,1.52,0l3.5-7.45C726.79,143.56,726.26,143,725.45,142.63Z" transform="translate(-0.36 0.4)"/><path class="cls-5" d="M725.85,152.21a3.44,3.44,0,0,0-.12-2.31c.35-2.45-1.33-3-1.33-3-3.35.1-5.74,3.38-6.89,5.39a22.19,22.19,0,0,1,7.22,4.48A5.82,5.82,0,0,0,725.85,152.21Z" transform="translate(-0.36 0.4)"/><path class="cls-6" d="M722.67,158.59a7.22,7.22,0,0,0,2.06-1.83,22.19,22.19,0,0,0-7.22-4.48h0l2.92,4.5Z" transform="translate(-0.36 0.4)"/><polygon class="cls-7" points="717.15 152.68 717.15 152.68 717.15 152.68 717.15 152.68"/><path class="cls-8" d="M654.22,325.66c1.48-.51,2.21-.27,2.49.34l5.53-3.24-5.57-7.88s-7-.84-9.88,8.17C646.79,323.05,648.71,327.53,654.22,325.66Z" transform="translate(-0.36 0.4)"/><path class="cls-7" d="M663.41,324.42l-1.17-1.66L656.71,326c-.28-.61-1-.85-2.49-.34-5.51,1.87-7.43-2.61-7.43-2.61a19.34,19.34,0,0,0,.17,7.49,13.26,13.26,0,0,0,1.46,3.7,11.12,11.12,0,0,0,4.84,4.46c.28.11.58.21.89.3a5.83,5.83,0,0,0,4.05-.16,9.93,9.93,0,0,0,5.06-5.06A11.76,11.76,0,0,0,663.41,324.42Z" transform="translate(-0.36 0.4)"/><path class="cls-8" d="M685.41,323.72s5,3.36,6.52-1c-3-9-10-8-10-8l-4.47,6.54,7.31,3.57Z" transform="translate(-0.36 0.4)"/><path class="cls-7" d="M691.93,322.69c-1.5,4.39-6.52,1-6.52,1l-.65,1.07-7.31-3.57-2.12,3.11a11.73,11.73,0,0,0,.31,9.35,11.27,11.27,0,0,0,1.93,2.8h0a9.11,9.11,0,0,0,3.21,2.18,7,7,0,0,0,1.53.34l.19,0a5.13,5.13,0,0,0,2.32-.27c.31-.1.61-.21.89-.32a11.48,11.48,0,0,0,5.71-6.6A19,19,0,0,0,691.93,322.69Z" transform="translate(-0.36 0.4)"/><path class="cls-5" d="M675.9,294.25s-1.18,26.79,1.32,33.6a8.16,8.16,0,0,0,8.17-2.75s.17-18.67,2.11-24.22c0,0,.91-5.67,1.48-12.36a124.75,124.75,0,0,1-13.06,5.31C675.91,294,675.91,294.12,675.9,294.25Z" transform="translate(-0.36 0.4)"/><path class="cls-6" d="M666.86,279.78c-1.15-8.45-13.43,3.47-13.43,3.47s.44,8,.69,15.26a75.8,75.8,0,0,0,13.18-2.13A108.47,108.47,0,0,0,666.86,279.78Z" transform="translate(-0.36 0.4)"/><path class="cls-6" d="M675.34,282.32s.71,7.3.58,11.51A124.75,124.75,0,0,0,689,288.52c.27-3.19.46-6.63.44-9.78C689.34,269,676.6,279.81,675.34,282.32Z" transform="translate(-0.36 0.4)"/><path class="cls-8" d="M695.78,174.16c1.61,4.29,3.08,10.78,4.38,18.45h0c5.37,31.58,8.1,83.11,8.1,83.11a24.44,24.44,0,0,1-9.77,6.19c-9.4,3.54-20.33,3.55-20.33,3.55-1.52,0-3-.06-4.5-.14A104.75,104.75,0,0,1,644,279.6c-20.67-7.29-31.1-18.76-31.1-18.76A192.74,192.74,0,0,1,624.22,233l.08,0c3.06,1.28,26.58-5,26.58-5a21.55,21.55,0,0,1-13.26-5.65l-7.85-.22c9.15-17,17.93-30.08,17.93-30.08-.8-1.43.57-12,.57-12a7.05,7.05,0,0,1-3.72-2.93,51.84,51.84,0,0,1,7.1-12.6c.61-.84,1.25-1.65,1.89-2.44a90.5,90.5,0,0,1,15.24-14.69l5.17.22c5.57-.83,11.77-7.81,14.86-11.71l8.45.19a5.68,5.68,0,0,0,.7-.28c1.92,4.21,9.09,14.25,9.09,14.25,3.89.33,8.17,1.16,8.17,1.16,11,4.19,8.29,17.18,8.29,17.18-1,5.56-8.49,10.41-8.49,10.41C700.76,182.14,696.18,174.83,695.78,174.16Z" transform="translate(-0.36 0.4)"/><path class="cls-7" d="M685,149.83s5.06,17.87,10.72,24.28l-10.76-24Z" transform="translate(-0.36 0.4)"/><path class="cls-7" d="M707.06,150.19s5.69,4.17,6.24,9.54a9.11,9.11,0,0,1-2.8-3.94S708.82,151.17,707.06,150.19Z" transform="translate(-0.36 0.4)"/><path class="cls-7" d="M713.6,162.74s-1.34,8-4.33,7.85C709.27,170.59,713.73,164.87,713.6,162.74Z" transform="translate(-0.36 0.4)"/><path class="cls-7" d="M668.79,147.52l5.16.22c7.77-1.16,16.82-14.33,16.82-14.33l.8-2a13.58,13.58,0,0,0-4.42-.28c-6.62.63-30.1,8.4-30.1,8.4l-13.81,25.74s-1.6,7.47,1.32,12C650.84,160.51,668.79,147.52,668.79,147.52Z" transform="translate(-0.36 0.4)"/><path class="cls-7" d="M653.54,162.21s-4,11-5.26,18c0,0,2.5-15,5.44-21.73Z" transform="translate(-0.36 0.4)"/><path class="cls-7" d="M647.7,192.15s10-18.59,13.8-19.82c0,0-3-.45-6.14,4.47C655.36,176.8,649.42,186.92,647.7,192.15Z" transform="translate(-0.36 0.4)"/><path class="cls-7" d="M650.89,228.11a21.51,21.51,0,0,1-13.26-5.65l-7.86-.22c-1.85,3.46-3.73,7.07-5.54,10.78l.08,0C627.37,234.35,650.89,228.11,650.89,228.11Z" transform="translate(-0.36 0.4)"/><path class="cls-8" d="M698,135.94a5.68,5.68,0,0,1-.7.28l-8.45-.19c1.22-1.55,2-2.62,2-2.62l.8-2a12.28,12.28,0,0,1,5.92,3.21A5.74,5.74,0,0,0,698,135.94Z" transform="translate(-0.36 0.4)"/><path class="cls-9" d="M703.29,128.91a9.84,9.84,0,0,1-5.33,7,5.74,5.74,0,0,1-.47-1.35,12.28,12.28,0,0,0-5.92-3.21l-.8,2s-.74,1.07-2,2.62h-.5l-12-4.44-32.07,3.65c-3.73,9-14.12,4.09-14.12,4.09-16.46-6-9.62-25.34-9.62-25.34S685.44,95.17,698,97.54,712.49,112,712.49,112C714.43,125.6,703.29,128.91,703.29,128.91Z" transform="translate(-0.36 0.4)"/><path class="cls-10" d="M689.64,101.65s5.86,2,8.53,5.74c0,0-2.44-5-9.54-8" transform="translate(-0.36 0.4)"/><path class="cls-10" d="M630.36,123.93s-2.14-7.09-.7-12.08,4.63-1.7,4.63-1.7S629.35,113.05,630.36,123.93Z" transform="translate(-0.36 0.4)"/><path class="cls-10" d="M644.27,135.23s-12.77-1.86-13.91-11.3C630.36,123.93,626.25,140.88,644.27,135.23Z" transform="translate(-0.36 0.4)"/><path class="cls-10" d="M703.22,128.9s9.46-11.58,3.31-23.27C706.53,105.63,710.8,118.22,703.22,128.9Z" transform="translate(-0.36 0.4)"/><path class="cls-10" d="M703.22,128.9s2.76-10.43-2.38-17.81C700.84,111.09,704.46,123.24,703.22,128.9Z" transform="translate(-0.36 0.4)"/><path class="cls-10" d="M676.34,131.58s-12.05-6.33-16.93-14.69C659.41,116.89,663.39,127.11,676.34,131.58Z" transform="translate(-0.36 0.4)"/><path class="cls-9" d="M631.78,131.65s-1.42,5.38,8.14,3.64C639.92,135.29,633.57,134.49,631.78,131.65Z" transform="translate(-0.36 0.4)"/><path class="cls-5" d="M654.28,308s-1,14,.21,19.32c0,0,4.21,4.63,8.53,1.45,0,0,1.71-16.53,2.87-20.42a48.55,48.55,0,0,0,1.14-6.74s.16-2.12.27-5.21a75.8,75.8,0,0,1-13.18,2.13C654.26,302.35,654.34,306,654.28,308Z" transform="translate(-0.36 0.4)"/><path class="cls-11" d="M662.42,126.61s4.68-1.47,6.34-2.69c0,0-2.65.65-6,1.58A11.11,11.11,0,0,0,662.42,126.61Z" transform="translate(-0.36 0.4)"/><path class="cls-12" d="M691.37,130.35a6,6,0,0,0-.08-.6,2.86,2.86,0,0,0,0-1.11c-.48-2-3.59-1.16-3.59-1.16a17.31,17.31,0,0,1,.63,8.54c1.53-1.53,2.47-2.61,2.47-2.61A4.23,4.23,0,0,0,691.37,130.35Z" transform="translate(-0.36 0.4)"/><path class="cls-13" d="M687.67,127.48s-3.22,3.93-6.81,2.32C680.86,129.8,678.31,125.5,687.67,127.48Z" transform="translate(-0.36 0.4)"/><path class="cls-13" d="M644.27,135.23s5.82,1.43,6.61,2.8c0,0,4,3.53,3.85,4.71C654.73,142.74,646,135.58,644.27,135.23Z" transform="translate(-0.36 0.4)"/><path class="cls-11" d="M691.29,129.75s-2.85,4.08-3,5.27A6.88,6.88,0,0,0,691.29,129.75Z" transform="translate(-0.36 0.4)"/><path class="cls-14" d="M646.69,139l.16.21.11-.07Z" transform="translate(-0.36 0.4)"/><path class="cls-13" d="M669.63,145.1c-4.81-.51-11.7-1.36-14.9-2.36a73.39,73.39,0,0,1-7.77-3.63l-.11.07c.81,1,5.08,5.7,17.61,8.67.52-.34,1-.65,1.41-.89A27.7,27.7,0,0,1,669.63,145.1Z" transform="translate(-0.36 0.4)"/><path class="cls-14" d="M662.52,139a15.28,15.28,0,0,0-7.79,3.73,75.66,75.66,0,0,0,11.08,1.93h0A9.73,9.73,0,0,1,662.52,139Z" transform="translate(-0.36 0.4)"/><path class="cls-13" d="M662.52,139a10.24,10.24,0,0,1-.2-1.21l1.93-.84a24.76,24.76,0,0,0-9.52,5.78A15.28,15.28,0,0,1,662.52,139Z" transform="translate(-0.36 0.4)"/><path class="cls-14" d="M667.08,135.73,664.25,137a24.22,24.22,0,0,1,2.88-.75A4.12,4.12,0,0,1,667.08,135.73Z" transform="translate(-0.36 0.4)"/><path class="cls-11" d="M662.52,139a31.37,31.37,0,0,1,5.46-.59,7.63,7.63,0,0,1-.85-2.21,24.22,24.22,0,0,0-2.88.75l-1.93.84A10.24,10.24,0,0,0,662.52,139Z" transform="translate(-0.36 0.4)"/><path class="cls-12" d="M668.76,123.92s.6-2,1.45-2.06a44,44,0,0,0-5.78.47,18.31,18.31,0,0,0-1.64,3.17C666.11,124.57,668.76,123.92,668.76,123.92Z" transform="translate(-0.36 0.4)"/><path class="cls-13" d="M674.55,138.77c2.53.45,3.83.3,4.49,0a11.17,11.17,0,0,0-1.65-1.9l-1.81-.53a21.73,21.73,0,0,0-8.45-.1,7.63,7.63,0,0,0,.85,2.21A40.11,40.11,0,0,1,674.55,138.77Z" transform="translate(-0.36 0.4)"/><path class="cls-14" d="M674.55,138.77a40.11,40.11,0,0,0-6.57-.35,40.58,40.58,0,0,0,5.41,7.05l1.4.13a20.1,20.1,0,0,0,4.64-2.24c.35-.22.68-.46,1-.69a7.17,7.17,0,0,0-1.41-3.93C678.38,139.07,677.08,139.22,674.55,138.77Z" transform="translate(-0.36 0.4)"/><path class="cls-12" d="M678.34,137.05a23.64,23.64,0,0,0-2.76-.74l1.81.53h0Z" transform="translate(-0.36 0.4)"/><path class="cls-12" d="M675.41,136.26l.17.05a23.64,23.64,0,0,1,2.76.74c1.52.35,2.75.69,3.67.95,0-1.86,0-11.23-1.64-15L679,122.3c-1.51-.17-2.94-.28-4.29-.36C674.71,122.05,677.14,133.34,675.41,136.26Z" transform="translate(-0.36 0.4)"/><path class="cls-11" d="M679,138.74a1,1,0,0,0,.62-1.22l-2.27-.68A11.17,11.17,0,0,1,679,138.74Z" transform="translate(-0.36 0.4)"/><path class="cls-12" d="M682,138c0,.21,0,.33,0,.33a22.68,22.68,0,0,0-2.34-.81,1,1,0,0,1-.62,1.22,7.17,7.17,0,0,1,1.41,3.93,44.87,44.87,0,0,0,3.76-2.87l-.33-1.2S683.23,138.36,682,138Z" transform="translate(-0.36 0.4)"/><path class="cls-12" d="M678.34,137.05l-1-.21h0l2.27.68h0C679.22,137.35,678.78,137.2,678.34,137.05Z" transform="translate(-0.36 0.4)"/><path class="cls-14" d="M662.79,125.5a18.31,18.31,0,0,1,1.64-3.17,25.12,25.12,0,0,0-9.35,3.16,9.34,9.34,0,0,0-1.38,2.87C656.3,127.38,659.81,126.33,662.79,125.5Z" transform="translate(-0.36 0.4)"/><path class="cls-13" d="M652.18,129.35l1.5-.36-1.69.4Z" transform="translate(-0.36 0.4)"/><path class="cls-13" d="M653.69,129c4.76-1.17,13.79-3.55,15.07-5.06-1.66,1.22-6.34,2.69-6.34,2.69a11.11,11.11,0,0,1,.37-1.11c-3,.83-6.49,1.88-9.09,2.86A1.45,1.45,0,0,0,653.69,129Z" transform="translate(-0.36 0.4)"/><path class="cls-14" d="M674.69,121.94c-1.59-.08-3.08-.11-4.48-.08-.85,0-1.45,2.06-1.45,2.06-1.28,1.51-10.31,3.89-15.07,5.06h0l-1.5.36h0s-3.48,6.6-.79,12h0a36,36,0,0,0,3.34,1.42,24.76,24.76,0,0,1,9.52-5.78l2.83-1.23a4.12,4.12,0,0,0,0,.48,21.73,21.73,0,0,1,8.45.1l-.17-.05C677.14,133.34,674.71,122.05,674.69,121.94Z" transform="translate(-0.36 0.4)"/><path class="cls-14" d="M646.34,132.64a14.58,14.58,0,0,0-2.07,2.59c.07,1,2.42,3.74,2.42,3.74h0C646.15,138.05,645.36,136,646.34,132.64Z" transform="translate(-0.36 0.4)"/><path class="cls-12" d="M650.77,129.64l.09,0a19.23,19.23,0,0,1,2.84-1.26,9.34,9.34,0,0,1,1.38-2.87A11.31,11.31,0,0,0,650.77,129.64Z" transform="translate(-0.36 0.4)"/><path class="cls-11" d="M653.7,128.36a19.23,19.23,0,0,0-2.84,1.26l1.13-.23,1.69-.4h0A1.45,1.45,0,0,1,653.7,128.36Z" transform="translate(-0.36 0.4)"/><polygon class="cls-12" points="653.33 129.39 653.33 129.39 653.32 129.39 653.33 129.39"/><path class="cls-12" d="M650.75,129.68l1.43-.33-.19,0Z" transform="translate(-0.36 0.4)"/><path class="cls-12" d="M650.77,129.64h0v0Z" transform="translate(-0.36 0.4)"/><path class="cls-12" d="M650.77,129.64l0,0,.11-.06Z" transform="translate(-0.36 0.4)"/><path class="cls-12" d="M650.86,129.62l-.11.06,1.24-.29Z" transform="translate(-0.36 0.4)"/><path class="cls-12" d="M679.66,137.52h0a22.68,22.68,0,0,1,2.34.81s0-.12,0-.33c-.92-.26-2.15-.6-3.67-.95C678.78,137.2,679.22,137.35,679.66,137.52Z" transform="translate(-0.36 0.4)"/><path class="cls-12" d="M668,138.42a31.37,31.37,0,0,0-5.46.59,9.73,9.73,0,0,0,3.29,5.66h0c1.34.16,2.64.31,3.82.43,1.53.16,2.84.29,3.76.37A40.58,40.58,0,0,1,668,138.42Z" transform="translate(-0.36 0.4)"/><path class="cls-12" d="M667.15,124.82s-2.36,8.32-.14,11.41c0,0-2.85.82-6,2.06a26.33,26.33,0,0,1,.13-11.29Z" transform="translate(-0.36 0.4)"/><path class="cls-14" d="M687.67,127.48c-1.22-1.43-5.18-3.48-7.3-4.52,1.68,3.81,1.66,13.18,1.64,15,1.22.36,1.87.6,1.87.6l.33,1.2c.66-.56,1.3-1.11,1.88-1.66.83-.75,1.57-1.48,2.21-2.12A17.31,17.31,0,0,0,687.67,127.48Z" transform="translate(-0.36 0.4)"/><path class="cls-12" d="M652.18,129.35h0l-1.43.33a12.86,12.86,0,0,0-4.41,3c-1,3.32-.22,5.33.35,6.27V139l.27.14c.67.35,2.52,1.32,4.43,2.21h0C648.7,136,652.18,129.35,652.18,129.35Z" transform="translate(-0.36 0.4)"/><path class="cls-14" d="M645.3,143.7a8.81,8.81,0,0,1-.83,2.2c2.74,1.92,7.27,4.28,14.42,6.09,2-1.55,4-3.06,5.57-4.14-12.53-3-16.8-7.64-17.61-8.67a14.81,14.81,0,0,0-5,4.58,17.73,17.73,0,0,0,1.45,1.28C644.64,143.17,645.3,143.7,645.3,143.7Z" transform="translate(-0.36 0.4)"/><path class="cls-14" d="M633,185a11,11,0,0,0-1.2,2.69,13.62,13.62,0,0,1,.84-2.75c-4.27-.8-13.13-3-16.71-7.43a34.46,34.46,0,0,0-6.87,13.28c2.18,1.72,7.56,4.95,18.42,6.29.67-2.89,1.78-6.27,3.54-8.35,0,0,2.82-5.44-2.44,8.47l.3,0a23.11,23.11,0,0,1,3.54-4.46s1.41-1.45,2-5.42c0,0,.19-.75.59-2C634.82,185.25,634.1,185.15,633,185Z" transform="translate(-0.36 0.4)"/><path class="cls-14" d="M607.64,198.05a26.22,26.22,0,0,0-.33,4.19c.05,1.39.4,7.59,2.63,9a1.76,1.76,0,0,1-.38,2.68s-2.15,3.46-2.25-11.18a21.6,21.6,0,0,1-.87,3.73s-2.54,5.21-1.5,8.82c3.11,1.28,9.88,2.66,21.48-1.62a7.86,7.86,0,0,0-.26-3h0a3,3,0,0,1-.43-1.92,18.36,18.36,0,0,1,.75-6.13h-.08S613.72,202.52,607.64,198.05Z" transform="translate(-0.36 0.4)"/><path class="cls-14" d="M624.89,168.52a48.38,48.38,0,0,0-4.51,4c2.53,2.1,7.5,5.18,16.52,7.36a73.1,73.1,0,0,1,5.15-10.32c-3.66-.79-9.09-2.31-12.76-4.91A27.8,27.8,0,0,1,624.89,168.52Z" transform="translate(-0.36 0.4)"/><path class="cls-14" d="M639.65,150.89a5.66,5.66,0,0,0,.24,1.58c.13-.37.25-.72.38-1.05Z" transform="translate(-0.36 0.4)"/><path class="cls-14" d="M653.1,156.71c-3.78-.85-9.07-2.43-12.54-5.06l-.67.82s-2.65,3.31-5.83,7a44.25,44.25,0,0,0,11.6,4.85,45.63,45.63,0,0,1,5.06-5.57Z" transform="translate(-0.36 0.4)"/><path class="cls-13" d="M626.42,213.65c.58-.21,1.16-.44,1.76-.68l.13-.05a7.84,7.84,0,0,1-2.14-2.25h0A7.86,7.86,0,0,1,626.42,213.65Z" transform="translate(-0.36 0.4)"/><path class="cls-13" d="M625.62,219.88a59.87,59.87,0,0,1-8.12,2.05h0s4.91,5.52,15,3c0,0,12.56-4.35,18.46-3.4,0,0-11.51-2.65-19-6.41C629.13,217.47,625.62,219.88,625.62,219.88Z" transform="translate(-0.36 0.4)"/><path class="cls-13" d="M645.3,143.7s-.66-.53-2,1.34c.34.27.72.56,1.15.86A8.81,8.81,0,0,0,645.3,143.7Z" transform="translate(-0.36 0.4)"/><path class="cls-13" d="M640.27,151.42c-.13.33-.25.68-.38,1.05l.67-.82Z" transform="translate(-0.36 0.4)"/><path class="cls-13" d="M607.31,202.24v.39C607.32,202.5,607.32,202.37,607.31,202.24Z" transform="translate(-0.36 0.4)"/><path class="cls-13" d="M609.56,213.9a1.76,1.76,0,0,0,.38-2.68c-2.23-1.39-2.58-7.59-2.63-9,0,.13,0,.26,0,.39v.09C607.41,217.36,609.56,213.9,609.56,213.9Z" transform="translate(-0.36 0.4)"/><path class="cls-13" d="M631,188.68c-1.76,2.08-2.87,5.46-3.54,8.35l1.1.12C633.83,183.24,631,188.68,631,188.68Z" transform="translate(-0.36 0.4)"/><path class="cls-13" d="M633,185l-.36-.06a13.62,13.62,0,0,0-.84,2.75A11,11,0,0,1,633,185Z" transform="translate(-0.36 0.4)"/><path class="cls-12" d="M643.32,145a17.73,17.73,0,0,1-1.45-1.28,11.15,11.15,0,0,0-1,1.94,12.86,12.86,0,0,0-1.2,5.19l.62.53A28.44,28.44,0,0,1,643.32,145Z" transform="translate(-0.36 0.4)"/><path class="cls-12" d="M640.56,151.65c3.47,2.63,8.76,4.21,12.54,5.06,1.54-1.29,3.64-3,5.79-4.72-7.15-1.81-11.68-4.17-14.42-6.09A37.86,37.86,0,0,1,640.56,151.65Z" transform="translate(-0.36 0.4)"/><path class="cls-11" d="M643.32,145a28.44,28.44,0,0,0-3.05,6.38l.29.23a37.86,37.86,0,0,0,3.91-5.75C644,145.6,643.66,145.31,643.32,145Z" transform="translate(-0.36 0.4)"/><path class="cls-12" d="M629.29,164.65c3.67,2.6,9.1,4.12,12.76,4.91a56.78,56.78,0,0,1,3.61-5.27,44.25,44.25,0,0,1-11.6-4.85C632.51,161.21,630.85,163.05,629.29,164.65Z" transform="translate(-0.36 0.4)"/><path class="cls-12" d="M615.92,177.46c3.58,4.47,12.44,6.63,16.71,7.43.38-.82.88-1.55,1.52-1.68A18.92,18.92,0,0,0,633,185c1.11.2,1.83.3,2,.32.41-1.31,1-3.18,1.93-5.39-9-2.18-14-5.26-16.52-7.36A54.15,54.15,0,0,0,615.92,177.46Z" transform="translate(-0.36 0.4)"/><path class="cls-11" d="M634.15,183.21c-.64.13-1.14.86-1.52,1.68l.36.06A18.92,18.92,0,0,1,634.15,183.21Z" transform="translate(-0.36 0.4)"/><path class="cls-11" d="M627.79,199.2c.31-.66.67-1.33,1.08-2l-.3,0Z" transform="translate(-0.36 0.4)"/><path class="cls-12" d="M626.54,202.43a46.68,46.68,0,0,1,.93-5.4c-10.86-1.34-16.24-4.57-18.42-6.29l-.09.39s-.84,3.49-1.32,6.92c6.08,4.47,18.77,4.58,18.77,4.58h.08l.06-.2Z" transform="translate(-0.36 0.4)"/><path class="cls-11" d="M627.79,199.2a20.48,20.48,0,0,0-1.24,3.22Z" transform="translate(-0.36 0.4)"/><path class="cls-11" d="M626.54,202.43h0a20.48,20.48,0,0,1,1.24-3.22l.78-2-1.1-.12A46.68,46.68,0,0,0,626.54,202.43Z" transform="translate(-0.36 0.4)"/><path class="cls-12" d="M611.74,218.6l.58.25c11.34,1.87,13.78-2.16,14.1-5.2-11.6,4.28-18.37,2.9-21.48,1.62a4.51,4.51,0,0,0,.17.52A13.36,13.36,0,0,0,611.74,218.6Z" transform="translate(-0.36 0.4)"/><path class="cls-11" d="M626.42,213.65c-.32,3-2.76,7.07-14.1,5.2,1.25.55,4.15,1.91,5.18,3.08a59.87,59.87,0,0,0,8.12-2.05s3.51-2.41,6.38-4.74a22.92,22.92,0,0,1-3.69-2.22l-.13.05C627.58,213.21,627,213.44,626.42,213.65Z" transform="translate(-0.36 0.4)"/><path class="cls-8" d="M732.7,15.69C716.78-14.19,677.27,7.8,677.27,7.8c-31.52,16.54-43.13,37.44-47,53.79,0,0,22.67,16.57,67.4-4.19h0c-.12-8.76-.1-16.77-.1-16.77.26-17.26,5.61-25.16,10.51-28.78.86-.59,8.06-5.09,18.71.94a16.14,16.14,0,0,1,5.39,6.47c.41,1.22,1.31,0,1.31,0A9.86,9.86,0,0,0,732.7,15.69Z" transform="translate(-0.36 0.4)"/><path class="cls-8" d="M650.4,92.1a60.8,60.8,0,0,1-6.56-.47c-2.39-.27-3.71-.57-3.71-.57h0a65.28,65.28,0,0,1-10.26-2.77,52.8,52.8,0,0,1-1.12-16.93c-3.73.78-10.53,2.13-13.76,2.39,0,0-16.76,1.71-25.08,1.69,0,0-6-.86-7.8,1.38,0,0-10.49,9-.11,22.34,0,0,19,17.31,50.56,16.39,0,0,2.5,0,6.6-.43l11.23-23Z" transform="translate(-0.36 0.4)"/><path class="cls-8" d="M720.45,66.84a216.86,216.86,0,0,0-22.57-.47c.18,6,.48,11.1,1,12.73a33.35,33.35,0,0,1-5.7,3.92h0c-.73.4-1.51.78-2.32,1.13h0s33.5,8,47.41,8.51c10.11-2.25,19.42-5.69,20.15-10.79C758.35,81.87,761.8,69.94,720.45,66.84Z" transform="translate(-0.36 0.4)"/><path class="cls-15" d="M697.88,66.37c-.09-2.88-.15-6-.2-9h0c-3.15,1.47-6.18,2.74-9.11,3.84-.16,2-.27,3.95-.32,5.87C691.34,66.72,694.62,66.49,697.88,66.37Z" transform="translate(-0.36 0.4)"/><path class="cls-15" d="M653.59,70.12c.18-.75.36-1.51.55-2.29-15.86-.4-23.86-6.24-23.86-6.24a64.36,64.36,0,0,0-1.52,9.77c1.55-.32,2.58-.55,2.58-.55S641.64,70.63,653.59,70.12Z" transform="translate(-0.36 0.4)"/><path class="cls-15" d="M690.79,84.15c.81-.35,1.59-.73,2.32-1.13h0a33.35,33.35,0,0,0,5.7-3.92c-.47-1.63-.77-6.74-1-12.73-3.26.12-6.54.35-9.63.74C688.07,74,688.69,80.23,690.79,84.15Z" transform="translate(-0.36 0.4)"/><path class="cls-15" d="M640.14,91.06h0s1.32.3,3.71.57a60.8,60.8,0,0,0,6.56.47,127.08,127.08,0,0,1,3.19-22c-12,.51-22.25.69-22.25.69s-1,.23-2.58.55a52.8,52.8,0,0,0,1.12,16.93A65.28,65.28,0,0,0,640.14,91.06Z" transform="translate(-0.36 0.4)"/><path class="cls-7" d="M693.75,30.16C701.59,9.58,686.07,17,686.07,17,663,28.16,658.79,49.13,654.14,67.83c9,.23,20.45-1.29,34.43-6.59A221.33,221.33,0,0,1,693.75,30.16Z" transform="translate(-0.36 0.4)"/><path class="cls-7" d="M690.79,84.15h0a23,23,0,0,1-3,1A101.5,101.5,0,0,1,655.22,92c-1.54.08-3.16.1-4.82.07h0l-11.23,23c7.93-.74,21.84-2.71,35.21-7.94,0,0,22.36-9.23,37.33-10.76a205.94,205.94,0,0,0,26.49-3.76C724.29,92.15,690.79,84.15,690.79,84.15Z" transform="translate(-0.36 0.4)"/><path class="cls-16" d="M688.25,67.11c0-1.92.16-3.89.32-5.87-14,5.3-25.46,6.82-34.43,6.59-.19.78-.37,1.54-.55,2.29a127.08,127.08,0,0,0-3.19,22c1.66,0,3.28,0,4.82-.07a101.5,101.5,0,0,0,32.61-6.84,23,23,0,0,0,3-1C688.69,80.23,688.07,74,688.25,67.11Z" transform="translate(-0.36 0.4)"/><path class="cls-7" d="M673.67,285.33A104.9,104.9,0,0,1,644,279.6s22.36-43.81,29.83-50.64,7.21.15,5.88,8.51Z" transform="translate(-0.36 0.4)"/><path class="cls-10" d="M694.64,132.52a19.34,19.34,0,0,1,2.85,2.07l.47,1.35a9.26,9.26,0,0,0,5.39-7.21l.37-5S700.73,131.88,694.64,132.52Z" transform="translate(-0.36 0.4)"/><path class="cls-10" d="M704.71,100.23s-57,32.33-85.18,27a33.5,33.5,0,0,1,.68-12.25s24.86,3.16,54.17-7.82c0,0,19.16-8.09,26.65-8.8A9.47,9.47,0,0,1,704.71,100.23Z" transform="translate(-0.36 0.4)"/><path class="cls-17" d="M720.45,66.84a216.86,216.86,0,0,0-22.57-.47c-.09-2.88-.15-6-.2-9-.12-8.76-.1-16.77-.1-16.77.26-17.26,5.61-25.16,10.51-28.78.86-.59,8.06-5.09,18.71.94a16.14,16.14,0,0,1,5.39,6.47c.41,1.22,1.31,0,1.31,0a9.86,9.86,0,0,0-.8-3.62C716.78-14.19,677.27,7.8,677.27,7.8c-31.52,16.54-43.13,37.44-47,53.79a64.36,64.36,0,0,0-1.52,9.77c-3.73.78-10.53,2.13-13.76,2.39,0,0-16.76,1.71-25.08,1.69,0,0-6-.86-7.8,1.38,0,0-10.49,9-.11,22.34,0,0,14.13,12.84,38.21,15.81-1.12,4-4.31,19.16,9.92,24.35,0,0,10.39,4.91,14.12-4.09h0c.08,1,2.42,3.74,2.42,3.74l.16.21a14.81,14.81,0,0,0-5,4.58,11.15,11.15,0,0,0-1,1.94,12.86,12.86,0,0,0-1.2,5.19,5.66,5.66,0,0,0,.24,1.58s-2.65,3.31-5.83,7c-1.55,1.77-3.21,3.61-4.77,5.21a27.8,27.8,0,0,1-4.4,3.87,48.38,48.38,0,0,0-4.51,4,54.15,54.15,0,0,0-4.46,4.94,34.46,34.46,0,0,0-6.87,13.28l-.09.39s-.84,3.49-1.32,6.92a26.22,26.22,0,0,0-.33,4.19v.48a21.6,21.6,0,0,1-.87,3.73s-2.54,5.21-1.5,8.82a4.51,4.51,0,0,0,.17.52,13.36,13.36,0,0,0,6.63,2.81l.58.25c1.25.55,4.15,1.91,5.18,3.08h0s3.45,3.85,10.49,3.64c-1.26,2.42-2.53,4.91-3.77,7.44l.08,0a2.53,2.53,0,0,0,.8.15,2.6,2.6,0,0,1-.81-.15l-.08,0a192.74,192.74,0,0,0-11.37,27.82s10.43,11.47,31.1,18.76a103.07,103.07,0,0,0,10.2,3l-.72.66s.44,8,.69,15.26c.14,3.84.22,7.44.16,9.47,0,0-.23,3.25-.33,7.2-2.29.65-5.44,2.53-7.16,7.87a19.34,19.34,0,0,0,.17,7.49,13.26,13.26,0,0,0,1.46,3.7,11.12,11.12,0,0,0,4.84,4.46c.28.11.58.21.89.3a5.83,5.83,0,0,0,4.05-.16,9.93,9.93,0,0,0,5.06-5.06,11.89,11.89,0,0,0,.22-9.22c.59-5.16,1.63-13.59,2.41-16.23a48.55,48.55,0,0,0,1.14-6.74s.16-2.12.27-5.21.19-7.54,0-11.57c2.07.23,4.19.41,6.38.52h0c.63,0,1.29,0,1.93.06.19,2.5.4,6,.32,8.44,0,.14,0,.29,0,.42s-.81,18.57.36,28.72l-.93,1.36a11.73,11.73,0,0,0,.31,9.35,11.27,11.27,0,0,0,1.93,2.8h0a9.11,9.11,0,0,0,3.21,2.18,7,7,0,0,0,1.53.34l.19,0a5.13,5.13,0,0,0,2.32-.27c.31-.1.61-.21.89-.32a11.48,11.48,0,0,0,5.71-6.6,19,19,0,0,0,.51-9.15c-1.54-4.53-4.09-6.53-6.22-7.4.28-5.41.8-11.59,1.79-14.41,0,0,.91-5.67,1.48-12.36.11-1.35.21-2.75.28-4.15a52.21,52.21,0,0,0,9.23-2.45,24.44,24.44,0,0,0,9.77-6.19s-2.73-51.53-8.1-83.11h0c-1.3-7.67-2.77-14.16-4.38-18.45.4.67,5,8,19.24,4.78,0,0,7.48-4.85,8.49-10.41a19.41,19.41,0,0,0-.85-9.95h0a7.22,7.22,0,0,0,2.06-1.83,5.82,5.82,0,0,0,1.12-4.55,3.44,3.44,0,0,0-.12-2.31,2.81,2.81,0,0,0-.69-2.58l1.6-3.41c.09-.2,0-.47-.33-.72l8.17-20.43,3.48-7.92h0c0-.06-.06-.15-.2-.21s-.26-.06-.28,0,0,0,0,0h0l-2.93,6.67-10.09,21.07c-.38,0-.67,0-.75.25l-2.12,5.13a12.81,12.81,0,0,0-4.08,4.53h0l.21.32a14.58,14.58,0,0,0-2.5-1.25s-4.27-.82-8.16-1.16h0s-7.17-10-9.09-14.25a9.26,9.26,0,0,0,5.35-7c.38-.12,11.09-3.56,9.18-16.89a19.25,19.25,0,0,0-7.78-11.79A9.47,9.47,0,0,0,701,98.38h0a80.46,80.46,0,0,1,10.68-2,205.94,205.94,0,0,0,26.49-3.76c10.11-2.25,19.42-5.69,20.15-10.79C758.35,81.87,761.8,69.94,720.45,66.84ZM645.91,135a1.7,1.7,0,0,0,0,.22V135Zm0,1h0c0,.06,0,.11,0,.16S645.9,136.13,645.9,136.07Zm1.8,56.09s-6.63,9.86-14.37,23.62c-.46-.21-.9-.42-1.33-.64a22.92,22.92,0,0,1-3.69-2.22,7.84,7.84,0,0,1-2.14-2.25,3,3,0,0,1-.43-1.92,18.36,18.36,0,0,1,.75-6.13l.06-.2,1.24-3.22c.31-.66.67-1.33,1.08-2a23.11,23.11,0,0,1,3.54-4.46s1.41-1.45,2-5.42c0,0,.19-.75.59-2s1-3.18,1.93-5.39a73.1,73.1,0,0,1,5.15-10.32c.25-.42.54-.84.81-1.26-.17,2.58,0,6.26,1.69,8.94h0a7.05,7.05,0,0,0,3.72,2.93S646.9,190.73,647.7,192.16Zm40.85-55.81h0c.08-.1.18-.22.25-.32h0Z" transform="translate(-0.36 0.4)"/><path class="cls-18" d="M720.45,66.84a216.86,216.86,0,0,0-22.57-.47c-.09-2.88-.15-6-.2-9-.12-8.76-.1-16.77-.1-16.77.26-17.26,5.61-25.16,10.51-28.78.86-.59,8.06-5.09,18.71.94a16.14,16.14,0,0,1,5.39,6.47c.41,1.22,1.31,0,1.31,0a9.86,9.86,0,0,0-.8-3.62C716.78-14.19,677.27,7.8,677.27,7.8c-31.52,16.54-43.13,37.44-47,53.79a64.36,64.36,0,0,0-1.52,9.77c-3.73.78-10.53,2.13-13.76,2.39,0,0-16.76,1.71-25.08,1.69,0,0-6-.86-7.8,1.38,0,0-10.49,9-.11,22.34,0,0,14.13,12.84,38.21,15.81-1.12,4-4.31,19.16,9.92,24.35,0,0,10.39,4.91,14.12-4.09h0c.08,1,2.42,3.74,2.42,3.74l.16.21a14.81,14.81,0,0,0-5,4.58,11.15,11.15,0,0,0-1,1.94,12.86,12.86,0,0,0-1.2,5.19,5.66,5.66,0,0,0,.24,1.58s-2.65,3.31-5.83,7c-1.55,1.77-3.21,3.61-4.77,5.21a27.8,27.8,0,0,1-4.4,3.87,48.38,48.38,0,0,0-4.51,4,54.15,54.15,0,0,0-4.46,4.94,34.46,34.46,0,0,0-6.87,13.28l-.09.39s-.84,3.49-1.32,6.92a26.22,26.22,0,0,0-.33,4.19v.48a21.6,21.6,0,0,1-.87,3.73s-2.54,5.21-1.5,8.82a4.51,4.51,0,0,0,.17.52,13.36,13.36,0,0,0,6.63,2.81l.58.25c1.25.55,4.15,1.91,5.18,3.08h0s3.45,3.85,10.49,3.64c-1.26,2.42-2.53,4.91-3.77,7.44l.08,0a2.53,2.53,0,0,0,.8.15,2.6,2.6,0,0,1-.81-.15l-.08,0a192.74,192.74,0,0,0-11.37,27.82s10.43,11.47,31.1,18.76a103.07,103.07,0,0,0,10.2,3l-.72.66s.44,8,.69,15.26c.14,3.84.22,7.44.16,9.47,0,0-.23,3.25-.33,7.2-2.29.65-5.44,2.53-7.16,7.87a19.34,19.34,0,0,0,.17,7.49,13.26,13.26,0,0,0,1.46,3.7,11.12,11.12,0,0,0,4.84,4.46c.28.11.58.21.89.3a5.83,5.83,0,0,0,4.05-.16,9.93,9.93,0,0,0,5.06-5.06,11.89,11.89,0,0,0,.22-9.22c.59-5.16,1.63-13.59,2.41-16.23a48.55,48.55,0,0,0,1.14-6.74s.16-2.12.27-5.21.19-7.54,0-11.57c2.07.23,4.19.41,6.38.52h0c.63,0,1.29,0,1.93.06.19,2.5.4,6,.32,8.44,0,.14,0,.29,0,.42s-.81,18.57.36,28.72l-.93,1.36a11.73,11.73,0,0,0,.31,9.35,11.27,11.27,0,0,0,1.93,2.8h0a9.11,9.11,0,0,0,3.21,2.18,7,7,0,0,0,1.53.34l.19,0a5.13,5.13,0,0,0,2.32-.27c.31-.1.61-.21.89-.32a11.48,11.48,0,0,0,5.71-6.6,19,19,0,0,0,.51-9.15c-1.54-4.53-4.09-6.53-6.22-7.4.28-5.41.8-11.59,1.79-14.41,0,0,.91-5.67,1.48-12.36.11-1.35.21-2.75.28-4.15a52.21,52.21,0,0,0,9.23-2.45,24.44,24.44,0,0,0,9.77-6.19s-2.73-51.53-8.1-83.11h0c-1.3-7.67-2.77-14.16-4.38-18.45.4.67,5,8,19.24,4.78,0,0,7.48-4.85,8.49-10.41a19.41,19.41,0,0,0-.85-9.95h0a7.22,7.22,0,0,0,2.06-1.83,5.82,5.82,0,0,0,1.12-4.55,3.44,3.44,0,0,0-.12-2.31,2.81,2.81,0,0,0-.69-2.58l1.6-3.41c.09-.2,0-.47-.33-.72l8.17-20.43,3.48-7.92h0c0-.06-.06-.15-.2-.21s-.26-.06-.28,0,0,0,0,0h0l-2.93,6.67-10.09,21.07c-.38,0-.67,0-.75.25l-2.12,5.13a12.81,12.81,0,0,0-4.08,4.53h0l.21.32a14.58,14.58,0,0,0-2.5-1.25s-4.27-.82-8.16-1.16h0s-7.17-10-9.09-14.25a9.26,9.26,0,0,0,5.35-7c.38-.12,11.09-3.56,9.18-16.89a19.25,19.25,0,0,0-7.78-11.79A9.47,9.47,0,0,0,701,98.38h0a80.46,80.46,0,0,1,10.68-2,205.94,205.94,0,0,0,26.49-3.76c10.11-2.25,19.42-5.69,20.15-10.79C758.35,81.87,761.8,69.94,720.45,66.84ZM645.91,135a1.7,1.7,0,0,0,0,.22V135Zm0,1h0c0,.06,0,.11,0,.16S645.9,136.13,645.9,136.07Zm1.8,56.09s-6.63,9.86-14.37,23.62c-.46-.21-.9-.42-1.33-.64a22.92,22.92,0,0,1-3.69-2.22,7.84,7.84,0,0,1-2.14-2.25,3,3,0,0,1-.43-1.92,18.36,18.36,0,0,1,.75-6.13l.06-.2,1.24-3.22c.31-.66.67-1.33,1.08-2a23.11,23.11,0,0,1,3.54-4.46s1.41-1.45,2-5.42c0,0,.19-.75.59-2s1-3.18,1.93-5.39a73.1,73.1,0,0,1,5.15-10.32c.25-.42.54-.84.81-1.26-.17,2.58,0,6.26,1.69,8.94h0a7.05,7.05,0,0,0,3.72,2.93S646.9,190.73,647.7,192.16Zm40.85-55.81h0c.08-.1.18-.22.25-.32h0Z" transform="translate(-0.36 0.4)"/><rect class="cls-19" height="30"/><rect class="cls-19" x="758" y="302" height="39"/></g></g></svg>