<svg xmlns="http://www.w3.org/2000/svg" xmlns:xlink="http://www.w3.org/1999/xlink" viewBox="0 0 758 341"><defs><style>.cls-1{isolation:isolate;}.cls-2{fill:#e39b1d;}.cls-3{fill:#d2772a;}.cls-4{fill:#984934;}.cls-5{fill:#7f3526;}.cls-6{fill:none;}.cls-7{fill:#8a5330;}.cls-8{fill:#f6d6b2;}.cls-9{fill:#704126;}.cls-10{fill:#59321e;}.cls-11{fill:#e2ac6e;}.cls-12{fill:#90654c;}.cls-13{fill:#a18046;}.cls-14{fill:#f9d9b5;}.cls-15{fill:#e5af6e;}.cls-16{fill:#b7a238;}.cls-17{fill:#cc6335;}.cls-18{fill:#9d4b31;}.cls-19{fill:url(#linear-gradient);}.cls-20{fill:#9b4934;}.cls-21{fill:#d5772a;}.cls-22{fill:#e69e1d;}.cls-23{fill:#913a30;}.cls-24{fill:#f9dab6;}.cls-25{fill:#7f492b;}.cls-26{fill:#6b3822;}.cls-27{fill:#9e3089;}.cls-28{fill:#bc40a1;}.cls-29{fill:#d860c1;}.cls-30{fill:#cf6335;}.cls-31{fill:#6b3c22;}.cls-32{mix-blend-mode:overlay;fill:url(#linear-gradient-2);}.cls-33{opacity:0.4;mix-blend-mode:multiply;fill:url(#linear-gradient-3);}.cls-34{fill:#fff;}</style><linearGradient id="linear-gradient" x1="94.22" y1="117.14" x2="224.37" y2="86.79" gradientTransform="translate(-33.22 -3.22) rotate(-1.78)" gradientUnits="userSpaceOnUse"><stop offset="0" stop-color="#90654c"/><stop offset="0.67" stop-color="#8a5330"/><stop offset="1" stop-color="#6d4530"/></linearGradient><linearGradient id="linear-gradient-2" x1="66.09" y1="175.04" x2="241.22" y2="175.04" gradientUnits="userSpaceOnUse"><stop offset="0" stop-color="#f2deb6" stop-opacity="0"/><stop offset="0.99" stop-color="#f4e9d7" stop-opacity="0.6"/><stop offset="1" stop-color="#c7e1b7" stop-opacity="0.8"/></linearGradient><linearGradient id="linear-gradient-3" x1="103.61" y1="174.44" x2="272.92" y2="177.06" gradientUnits="userSpaceOnUse"><stop offset="0" stop-color="#564339"/><stop offset="0.22" stop-color="#564339" stop-opacity="0.87"/><stop offset="0.61" stop-color="#564339" stop-opacity="0.52"/><stop offset="1" stop-color="#564339" stop-opacity="0.1"/></linearGradient></defs><title>character9_7</title><g class="cls-1"><g id="Layer_1" data-name="Layer 1"><path class="cls-2" d="M133.87,149.18l.18.18a.39.39,0,0,1,.1-.08Z" transform="translate(-0.36 0.4)"/><path class="cls-3" d="M156.93,151.74c-4.72.22-11.5.4-14.74-.09a73.9,73.9,0,0,1-8-2.37.39.39,0,0,0-.1.08c.94.88,5.75,4.76,18.29,5.8.45-.41.86-.77,1.24-1.07A26.41,26.41,0,0,1,156.93,151.74Z" transform="translate(-0.36 0.4)"/><path class="cls-2" d="M133.21,154a8.1,8.1,0,0,1-.47,2.24c2.93,1.46,7.65,3.08,14.83,3.78,1.67-1.79,3.37-3.54,4.77-4.82-12.54-1-17.35-4.92-18.29-5.8a14.44,14.44,0,0,0-4.14,5.15c.42.31.94.65,1.58,1C132.5,153.54,133.21,154,133.21,154Z" transform="translate(-0.36 0.4)"/><path class="cls-2" d="M127.37,195.63a10.77,10.77,0,0,0-.77,2.77,13,13,0,0,1,.41-2.78c-4.24-.15-13.12-.93-17.24-4.73a33.61,33.61,0,0,0-4.69,13.84c2.36,1.34,8,3.67,18.72,3.37.23-2.89.8-6.32,2.2-8.58,0,0,1.93-5.67-1.12,8.54h.3a22.94,22.94,0,0,1,2.76-4.84s1.15-1.6,1.12-5.52c0,0,.07-.75.27-2C129.18,195.65,128.47,195.66,127.37,195.63Z" transform="translate(-0.36 0.4)"/><path class="cls-2" d="M104.79,212a26,26,0,0,0,.3,4.09c.25,1.34,1.49,7.28,3.85,8.3a1.72,1.72,0,0,1,0,2.65s-1.57,3.66-3.81-10.48a21.82,21.82,0,0,1-.3,3.73s-1.69,5.41-.15,8.75c3.19.78,9.94,1.11,20.52-4.72a7.78,7.78,0,0,0-.69-2.84h0a2.93,2.93,0,0,1-.69-1.79,17.93,17.93,0,0,1-.17-6l-.08,0S111.32,215.42,104.79,212Z" transform="translate(-0.36 0.4)"/><path class="cls-2" d="M117.13,180.94a48.63,48.63,0,0,0-3.78,4.52c2.76,1.66,8,3.9,17.06,4.69a69.81,69.81,0,0,1,3.46-10.73c-3.66-.22-9.13-.9-13.06-2.87A27.68,27.68,0,0,1,117.13,180.94Z" transform="translate(-0.36 0.4)"/><path class="cls-2" d="M128.81,161.73a6,6,0,0,0,.46,1.49c.07-.37.14-.73.22-1.07Z" transform="translate(-0.36 0.4)"/><path class="cls-2" d="M142.66,165.38c-3.77-.27-9.12-1-12.86-3-.32.55-.53.89-.53.89s-2.07,3.59-4.61,7.59a43.06,43.06,0,0,0,11.92,3,43.14,43.14,0,0,1,4.08-6.12S141.45,166.75,142.66,165.38Z" transform="translate(-0.36 0.4)"/><path class="cls-3" d="M125.23,224.32c.52-.29,1.06-.59,1.6-.91l.12-.07a7.74,7.74,0,0,1-2.41-1.86h0A7.78,7.78,0,0,1,125.23,224.32Z" transform="translate(-0.36 0.4)"/><path class="cls-3" d="M125.36,230.45a57.12,57.12,0,0,1-7.54,3.18h0s5.56,4.61,15,.71c0,0,11.5-6,17.34-6,0,0-11.51-.87-19.29-3.4C128.41,227.61,125.36,230.45,125.36,230.45Z" transform="translate(-0.36 0.4)"/><path class="cls-3" d="M133.21,154s-.71-.42-1.72,1.58c.38.21.79.43,1.25.66A8.1,8.1,0,0,0,133.21,154Z" transform="translate(-0.36 0.4)"/><path class="cls-3" d="M129.49,162.15c-.08.34-.15.7-.22,1.07,0,0,.21-.34.53-.89Z" transform="translate(-0.36 0.4)"/><path class="cls-3" d="M105.09,216.09l0-.27.12.74v-.09C105.13,216.35,105.11,216.22,105.09,216.09Z" transform="translate(-0.36 0.4)"/><path class="cls-3" d="M109,227a1.72,1.72,0,0,0,0-2.65c-2.36-1-3.6-7-3.85-8.3,0,.13,0,.26.07.38v.09C107.4,230.7,109,227,109,227Z" transform="translate(-0.36 0.4)"/><path class="cls-3" d="M126,199.52c-1.4,2.26-2,5.69-2.2,8.58l1.08,0C127.93,193.85,126,199.52,126,199.52Z" transform="translate(-0.36 0.4)"/><path class="cls-3" d="M127.37,195.63H127a13,13,0,0,0-.41,2.78A10.77,10.77,0,0,1,127.37,195.63Z" transform="translate(-0.36 0.4)"/><path class="cls-4" d="M131.49,155.54c-.64-.38-1.16-.72-1.58-1a11.3,11.3,0,0,0-.7,2,12.51,12.51,0,0,0-.4,5.19l.68.42A27.89,27.89,0,0,1,131.49,155.54Z" transform="translate(-0.36 0.4)"/><path class="cls-4" d="M129.8,162.33c3.74,2,9.09,2.78,12.86,3,1.3-1.47,3.08-3.45,4.91-5.4-7.18-.7-11.9-2.32-14.83-3.78A38,38,0,0,1,129.8,162.33Z" transform="translate(-0.36 0.4)"/><path class="cls-5" d="M131.49,155.54a27.89,27.89,0,0,0-2,6.61l.31.18a38,38,0,0,0,2.94-6.13C132.28,156,131.87,155.75,131.49,155.54Z" transform="translate(-0.36 0.4)"/><path class="cls-4" d="M120.81,176.55c3.93,2,9.4,2.65,13.06,2.87a54.36,54.36,0,0,1,2.71-5.62,43.06,43.06,0,0,1-11.92-3C123.43,172.75,122.09,174.78,120.81,176.55Z" transform="translate(-0.36 0.4)"/><path class="cls-4" d="M109.77,190.89c4.12,3.8,13,4.58,17.24,4.73a2.64,2.64,0,0,1,1.22-1.85,18.19,18.19,0,0,0-.86,1.86c1.1,0,1.81,0,2,0,.2-1.33.54-3.23,1.08-5.5-9-.79-14.3-3-17.06-4.69A55.68,55.68,0,0,0,109.77,190.89Z" transform="translate(-0.36 0.4)"/><path class="cls-5" d="M128.23,193.77a2.64,2.64,0,0,0-1.22,1.85h.36A18.19,18.19,0,0,1,128.23,193.77Z" transform="translate(-0.36 0.4)"/><path class="cls-5" d="M124.43,210.16a22.37,22.37,0,0,1,.75-2.11h-.3Z" transform="translate(-0.36 0.4)"/><path class="cls-4" d="M123.7,213.46a45.43,45.43,0,0,1,.1-5.36c-10.69.3-16.36-2-18.72-3.37l0,.39s-.3,3.49-.26,6.88c6.53,3.42,18.81,1.68,18.81,1.68l.08,0c0-.07,0-.13,0-.2Z" transform="translate(-0.36 0.4)"/><path class="cls-5" d="M124.43,210.16a21.67,21.67,0,0,0-.73,3.29C124,212.26,124.21,211.17,124.43,210.16Z" transform="translate(-0.36 0.4)"/><path class="cls-5" d="M123.7,213.46h0a21.67,21.67,0,0,1,.73-3.29l.45-2.1-1.08,0A45.43,45.43,0,0,0,123.7,213.46Z" transform="translate(-0.36 0.4)"/><path class="cls-4" d="M111.76,231.25l.61.16c11.23.14,13-4.1,12.86-7.09-10.58,5.83-17.33,5.5-20.52,4.72a4.16,4.16,0,0,0,.24.47A13,13,0,0,0,111.76,231.25Z" transform="translate(-0.36 0.4)"/><path class="cls-5" d="M125.23,224.32c.13,3-1.63,7.23-12.86,7.09,1.28.35,4.28,1.24,5.45,2.22a57.12,57.12,0,0,0,7.54-3.18s3-2.84,5.48-5.5a23.75,23.75,0,0,1-3.89-1.61l-.12.07C126.29,223.73,125.75,224,125.23,224.32Z" transform="translate(-0.36 0.4)"/><path class="cls-6" d="M176.9,320.49a9.32,9.32,0,0,1-1.65,1.71l2.52.26C177.52,321.85,177.23,321.2,176.9,320.49Z" transform="translate(-0.36 0.4)"/><path class="cls-6" d="M174,323.07a7.56,7.56,0,0,1-4.76.87,13.76,13.76,0,0,0,1.38,2.86Z" transform="translate(-0.36 0.4)"/><path class="cls-7" d="M179.05,322.6a19.09,19.09,0,0,1-.87-2.24l-1.43-1.76c.08,1.18.15,1.89.15,1.89.33.71.62,1.36.87,2Z" transform="translate(-0.36 0.4)"/><path class="cls-7" d="M170.57,326.81s0,.33,0,.93c0,1.59.11,5,.07,8.58a18.32,18.32,0,0,1-1.73-2.49,24.09,24.09,0,0,1-2-4.19V321.3l.82-2.11a23.22,23.22,0,0,0,1.42,4.76A14,14,0,0,0,170.57,326.81Z" transform="translate(-0.36 0.4)"/><path class="cls-8" d="M176,275.28c.32,3.08.45,6.45.48,9.59.07,6.57-.29,12.19-.29,12.19-.38,1.53,0,3.68-.06,6.5,0,5.37.38,11.89.62,15.05.08,1.17.14,1.88.14,1.88.09.2.19.39.27.59.22.45.41.88.58,1.28l0,.1.22.52c.08.21.16.43.24.63l0,0a6.15,6.15,0,0,1,.33,1v0h0l0,0v0a5.12,5.12,0,0,0-.72-.19,7,7,0,0,0-2.65,0,9.25,9.25,0,0,0-3,1.11c-.22.13-.43.25-.62.38h0c-.37.25-.67.48-.87.63l-.14.12-.08.07c-.12-.19-.24-.39-.34-.57a13,13,0,0,1-1-2.15l0-.13a23,23,0,0,1-1.42-4.76,162.69,162.69,0,0,1-2.27-17.48c-.5-5.81-.43-10.42-.43-10.42l0-.41a87.94,87.94,0,0,0-1.94-11.15C164.1,277.17,175,265.77,176,275.28Z" transform="translate(-0.36 0.4)"/><path class="cls-8" d="M171.36,327.93a9.62,9.62,0,0,0,6.27,3.87s2.89-.13,1.38-5.81A9,9,0,0,0,171.36,327.93Z" transform="translate(-0.36 0.4)"/><path class="cls-9" d="M177.89,324.48l.37,1.38a9.11,9.11,0,0,0-6.9,2.06c-.29-.38-.56-.76-.79-1.11C171,326.38,174.19,323.75,177.89,324.48Z" transform="translate(-0.36 0.4)"/><path class="cls-9" d="M179,326l-.4-1.33s.09,0,.13,0C178.9,325.15,178.92,325.62,179,326Z" transform="translate(-0.36 0.4)"/><path class="cls-9" d="M183.26,330.86s-2.45-4.46-4-7.76l-1.1-2.74c.21,1.48-.44,2-.44,2,.35.82.67,1.68.9,2.36.15.46.28.9.38,1.28,1.51,5.7-1.39,5.81-1.39,5.81a9.61,9.61,0,0,1-6.27-3.89c-.29-.38-.56-.76-.79-1.11,0,0,0,.33,0,.93,0,0-.27,4.8-1.64,6.09a18.32,18.32,0,0,0,1.73,2.49l.46.54c2.44,2.72,6,4.69,10.79,2.61C181.91,339.47,186.08,337.58,183.26,330.86Z" transform="translate(-0.36 0.4)"/><path class="cls-10" d="M179,326a6.3,6.3,0,0,0-.76-.14l-.37-1.38a4,4,0,0,1,.73.17v0Z" transform="translate(-0.36 0.4)"/><path class="cls-10" d="M170.57,326.81s.65.95.79,1.11l.08-.07-.79-1.12Z" transform="translate(-0.36 0.4)"/><path class="cls-11" d="M176,275.28c.32,3.08.45,6.45.48,9.59.07,6.57-.29,12.19-.29,12.19-.38,1.53,0,3.68-.06,6.5a45.27,45.27,0,0,1-10.63-1.85c-.5-5.81-.43-10.42-.43-10.42l0-.41c-.26-4.12-3-16.15-3-16.15C163.05,272.18,175,265.77,176,275.28Z" transform="translate(-0.36 0.4)"/><path class="cls-6" d="M142.48,319a9.74,9.74,0,0,1-2.1,1.11l2.33,1C142.65,320.43,142.58,319.73,142.48,319Z" transform="translate(-0.36 0.4)"/><path class="cls-6" d="M138.88,320.49a7.55,7.55,0,0,1-4.79-.66,13.71,13.71,0,0,0,.42,3.15Z" transform="translate(-0.36 0.4)"/><path class="cls-7" d="M143.88,321.62a20,20,0,0,1-.14-2.4l-.81-2.11-.45,1.84c.1.78.17,1.48.23,2.15Z" transform="translate(-0.36 0.4)"/><path class="cls-7" d="M134.51,323s-.1.32-.27.9c-.46,1.52-1.45,4.76-2.6,8.18a18.22,18.22,0,0,1-.88-2.92,23.24,23.24,0,0,1-.57-4.59l2.59-7.93,1.44-1.75a23.48,23.48,0,0,0-.14,5A14.07,14.07,0,0,0,134.51,323Z" transform="translate(-0.36 0.4)"/><path class="cls-8" d="M155.69,275.7c-.65,3-1.58,6.27-2.52,9.26-2,6.27-4.07,11.49-4.07,11.49-.84,1.35-1.18,3.5-2.08,6.17-1.71,5.09-3.34,11.42-4.09,14.49-.29,1.14-.45,1.84-.45,1.84,0,.22.06.43.08.64.06.49.11,1,.15,1.4v.1c0,.19,0,.38,0,.56l0,.68,0,0a6.25,6.25,0,0,1,0,1.06v0h0v.06a4.5,4.5,0,0,0-.63-.41,7,7,0,0,0-2.5-.87,9.32,9.32,0,0,0-3.17.13,6.72,6.72,0,0,0-.71.17h0c-.43.12-.79.25-1,.33l-.17.06a.26.26,0,0,1-.1,0c0-.21-.11-.44-.15-.64a14.2,14.2,0,0,1-.28-2.35v-.15a22.73,22.73,0,0,1,.14-5,160.42,160.42,0,0,1,3.28-17.32c1.32-5.68,2.82-10,2.82-10s.07-.26.11-.39A89.88,89.88,0,0,0,142,275.91C143.79,273.79,157.71,266.35,155.69,275.7Z" transform="translate(-0.36 0.4)"/><path class="cls-8" d="M134.91,324.29a9.65,9.65,0,0,0,4.76,5.64s2.79.77,3.12-5.1A9,9,0,0,0,134.91,324.29Z" transform="translate(-0.36 0.4)"/><path class="cls-9" d="M142.19,323.05l-.08,1.42a9.13,9.13,0,0,0-7.2-.18,13.68,13.68,0,0,1-.4-1.31C135.09,322.72,138.9,321.2,142.19,323.05Z" transform="translate(-0.36 0.4)"/><path class="cls-9" d="M142.79,324.84l0-1.39a.75.75,0,0,1,.12.07C142.94,324,142.81,324.45,142.79,324.84Z" transform="translate(-0.36 0.4)"/><path class="cls-9" d="M145.31,330.78s-.94-5-1.37-8.61l-.2-2.95c-.25,1.47-1,1.77-1,1.77.07.88.1,1.8.11,2.52,0,.48,0,.94,0,1.33-.33,5.89-3.13,5.09-3.13,5.09a9.66,9.66,0,0,1-4.75-5.64,13.68,13.68,0,0,1-.4-1.31s-.13.32-.3.89c0,0-1.74,4.48-3.45,5.27a18.22,18.22,0,0,0,.88,2.92c.09.21.17.44.26.65,1.48,3.34,4.26,6.33,9.45,5.84C141.35,338.55,145.9,338,145.31,330.78Z" transform="translate(-0.36 0.4)"/><path class="cls-10" d="M142.79,324.84a6,6,0,0,0-.68-.37l.08-1.42a3.46,3.46,0,0,1,.63.39h0Z" transform="translate(-0.36 0.4)"/><path class="cls-10" d="M134.51,323s.32,1.12.4,1.31l.1,0-.4-1.32Z" transform="translate(-0.36 0.4)"/><path class="cls-11" d="M155.69,275.7c-.65,3-1.58,6.27-2.52,9.26-2,6.27-4.07,11.49-4.07,11.49-.84,1.35-1.18,3.5-2.08,6.17a44.1,44.1,0,0,1-9.52-5.07c1.32-5.68,2.82-10,2.82-10s.07-.26.11-.39c1-4,2.17-16.28,2.17-16.28C144.35,268.72,157.71,266.35,155.69,275.7Z" transform="translate(-0.36 0.4)"/><path class="cls-12" d="M195.64,196.44c-4.36-24.94-14.27-41.54-14.27-41.54-.5-2.34-9.24-6.71-9.24-6.71-4.5,4.72-4,19.34-4,19.34l.52,6.13,2.89,24.7Z" transform="translate(-0.36 0.4)"/><path class="cls-12" d="M191.9,185s12,36.33,14,44a25.16,25.16,0,0,0-2.72-.17c-4.72-.12-14.76.54-23.66,6.91-.42.29-.85.62-1.27,1l-5.72-31.3-1.39-9.39,13.49-4.52Z" transform="translate(-0.36 0.4)"/><path class="cls-7" d="M205.88,229.05s-11.1,6.17-27.65,7.69A35.88,35.88,0,0,1,205.88,229.05Z" transform="translate(-0.36 0.4)"/><path class="cls-12" d="M204.42,228.88l-3.84,2.57a32.68,32.68,0,0,0,5.3-2.4l-1.18-.68Z" transform="translate(-0.36 0.4)"/><polygon class="cls-12" points="178.28 235.37 177.87 237.14 182.51 236.58 178.83 236.35 178.28 235.37"/><path class="cls-12" d="M180.3,239.43c.3-.24.6-.47.91-.68,8.53-6.22,18.33-6.33,21.82-6.13.44,0,.78,0,1,.07l.33,0-1-.58-.24.43a31.5,31.5,0,0,0-21.94,6.16h0l-.48-.85Z" transform="translate(-0.36 0.4)"/><path class="cls-13" d="M184.33,238.94h-.05a71.37,71.37,0,0,0,15.47-4.1v0h0a41.21,41.21,0,0,0,4.58-2.08l-.33,0-.94-.11a31.5,31.5,0,0,0-21.94,6.16c-.57.43-.85.69-.85.69,1.28-.12,2.51-.28,3.72-.45Z" transform="translate(-0.36 0.4)"/><path class="cls-14" d="M183,241.48a3,3,0,0,0,2.42-.36,1,1,0,0,1,.51-.06c.24,0,.51.26.51.26a1.24,1.24,0,0,1,.28.48,6,6,0,0,0,2.79,2.82,14.9,14.9,0,0,0,1.24,1.8c.57,0,.83-.87.93-1.4,1,.45,1.14-1.8,1.14-1.8,1-1.85-.21-4.43-.21-4.43a6.13,6.13,0,0,0-.69-1.82,3.79,3.79,0,0,0-.42-.66,2.42,2.42,0,0,0-.43-.51l-.07-.05h0a5.53,5.53,0,0,0-4.34-.26,10.51,10.51,0,0,0-1.06,1.32,5.15,5.15,0,0,0-.49.89h0Z" transform="translate(-0.36 0.4)"/><path class="cls-15" d="M191.68,245s.71-2.21.21-3A16.81,16.81,0,0,0,191.68,245Z" transform="translate(-0.36 0.4)"/><path class="cls-15" d="M192.82,243.23s.3-2.57-.14-3.14Z" transform="translate(-0.36 0.4)"/><path class="cls-16" d="M184.33,238.94l-4,.49-.8-3.64c8.9-6.37,18.94-7,23.66-6.91.54,1.56,1,2.89,1.2,3.85a27.81,27.81,0,0,1-4.58,2.08h0l3.27-2.19.06,0a31.27,31.27,0,0,0-12.33,1.25,36.47,36.47,0,0,0-4,1.54h0a29.6,29.6,0,0,0-5.62,3.37h.06Z" transform="translate(-0.36 0.4)"/><path class="cls-15" d="M185.6,236.8a10.44,10.44,0,0,1,6.32.17,3.79,3.79,0,0,0-.42-.66,2.42,2.42,0,0,0-.43-.51l-.07-.06h0l-.25-1.89a36.47,36.47,0,0,0-4,1.54h0l-.11.11A10.51,10.51,0,0,0,185.6,236.8Z" transform="translate(-0.36 0.4)"/><path class="cls-7" d="M185.35,194.29s-9.93-4.88-13.66.77l-.19,3.3,1.46-3.05A24.61,24.61,0,0,1,185.35,194.29Z" transform="translate(-0.36 0.4)"/><path class="cls-17" d="M188.63,250.77s-.9-3.48-1.33-6.41a11.12,11.12,0,0,1-.13-3.41c.07-.33.21-.52.42-.54l-.74-7.33V233l-1.66-16.54-4.8-.34-12.82-.91H152.85l-3.15,22.56-5.16,36.9s4.63,1.42,9.93,2.64h0c1.48.34,3,.66,4.51.93a31.33,31.33,0,0,0,8.34.69v-1.81a105.28,105.28,0,0,0,14-.12,42.1,42.1,0,0,0,5.14-.73,21.19,21.19,0,0,0,2.06-.55,11.15,11.15,0,0,0,2.48-1.06Z" transform="translate(-0.36 0.4)"/><path class="cls-18" d="M167.36,277.11s-.37-49.56,0-55.77,1.33.24,1.33.24v55.59Z" transform="translate(-0.36 0.4)"/><path class="cls-18" d="M188.55,275.71a21.19,21.19,0,0,1-2.06.55,16.2,16.2,0,0,1-2.28.4c-3-29.19-7.11-51.54-7.11-51.54-.55-.76-3.8-.49-3.8-.49-5.82,1.39-16.48.15-16.48.15-2.78,8.49-3.9,41.48-4.3,52a78.65,78.65,0,0,1-8-2.18l5.16-36.9,3.15-22.56h14.71l12.82.91L186.84,233v.1l.32,7.87.13,3.41Z" transform="translate(-0.36 0.4)"/><path class="cls-13" d="M179.23,213.13l-.32-2.25L176.65,204l-3-.73-19.1,6.32-1.65,12a21.54,21.54,0,0,0,12.66.86s5.57-.15,6.66,0c0,0,5.55,1.31,7.75-2.87Z" transform="translate(-0.36 0.4)"/><path class="cls-16" d="M176.12,212.49l-.94-1-10,3.68-8.1-5.55-.46-.31-.78-.52a9.65,9.65,0,0,0,.28-1.64c.3-3.39,1.12-8.35,2.17-13.87,0,0,1.26-10.32,2.79-21.82,0-.1,0-.19,0-.28.47-3.5,1-7.11,1.46-10.56.19-1.36.38-2.69.57-4,.31-2.07.61-4,.9-5.83a75.62,75.62,0,0,1,1.93-9.64,74,74,0,0,1,1.9,9.53c.06.32.11.64.16,1,.2,1.28.41,2.63.62,4l-3,.83h0c-.17.93-.38,2.13-.65,3.58,1.57-.35,3-.74,4.17-1.14,2.2,15.27,4.52,34.56,4.52,34.56.83,6,1.5,11.46,1.82,15.1A18.89,18.89,0,0,0,176.12,212.49Z" transform="translate(-0.36 0.4)"/><path class="cls-13" d="M160.06,192.82s10.14,4.52,15.9,4.58-12.19,15.74-12.19,15.74l-11.44-4.73,4.38-12.09" transform="translate(-0.36 0.4)"/><path class="cls-12" d="M186.46,291.47c1-9.31-4.47-47.12-4.47-47.12-1.08-7.5-2.26-16.23-3.43-25.21-1.28-9.93-2.56-20.17-3.69-29.41C172.62,171.32,171,156.9,171,156.9s7-16.12,7.56-6.8.84,34.5.84,34.5c.48,2.48,1.06,5.39,1.71,8.61,1.14,5.69,2.51,12.32,3.93,19.11,4.53,21.7,9.56,45.11,9.56,45.11C194.85,266.78,186.46,291.47,186.46,291.47Z" transform="translate(-0.36 0.4)"/><path class="cls-12" d="M168.81,150.69l-.76,1-2,2.56,0,.07s-.15.78-.42,2.23c-.17.93-.38,2.13-.65,3.58,0,.31-.11.63-.17,1-.73,4-1.71,9.58-2.79,16.16-.15.89-.3,1.8-.44,2.72-1.21,7.39-2.52,15.85-3.74,24.66q-.24,1.73-.51,3.45l-.24,1.56c-2.16,13.76-5.27,28-5.8,40.06-1.22,27.58-.39,47.87-.39,47.87C141.2,295.2,108,269.82,108,269.82c-.24-1.06,0-3,.63-5.51,3.17-17.69,17.11-57.11,17.11-57.11a361.18,361.18,0,0,1,2.74-47.82c0-2.43,6.12-9.61,6.12-9.61a10.09,10.09,0,0,1,1.93,1.85l27.51-.79,3.83-.11Z" transform="translate(-0.36 0.4)"/><path class="cls-7" d="M179.58,167.94s1.16-.29,1.66-3.74c0,0,.28-1.77.91-1.8a11.49,11.49,0,0,0-.14,1.86s-2.2,4.33-2,5.57Z" transform="translate(-0.36 0.4)"/><polyline class="cls-5" points="185.13 127.01 167.4 142.26 178.83 146.48 187.88 140.81 188.89 127.7"/><path class="cls-16" d="M116.09,90.3c-.31,2.79-.57,5.4-.78,7.85l-.77.38-4.23-.6c-.92-5.76.12-23.09.12-23.09.07-2.62.09-5.1.09-7.5,2.36-1.12,4.71-2.12,7-3A211.59,211.59,0,0,1,116.09,90.3Z" transform="translate(-0.36 0.4)"/><path class="cls-16" d="M158,79.43a134.88,134.88,0,0,0-9.13-22,113.12,113.12,0,0,1,27.42,1.57,112.38,112.38,0,0,1,8.34,20.63L148.75,91.31s-1.18.2-3.11.5c1.29-2.65,2.06-4.32,2.06-4.32Z" transform="translate(-0.36 0.4)"/><path class="cls-12" d="M87.66,12.43c11.63-4.2,25.86-2.24,25.86-2.24,34,4.65,53.13,30.1,62.81,48.86-12.68-2.34-38.77-4.6-65.81,8.29C110.51,46.46,108,34,107,29.82a17.84,17.84,0,0,0-6.14-7.19,18.43,18.43,0,0,0-4.29-1.93l-.29-.09a16,16,0,0,0-4.35-.69,13.17,13.17,0,0,0-6.31.77h0S81.14,17.28,87.66,12.43Z" transform="translate(-0.36 0.4)"/><path class="cls-7" d="M148.91,57.48a106,106,0,0,0-31.35,6.83c-.55-46.28-22-47-30.28-45C118.45,10.39,138.37,37.25,148.91,57.48Z" transform="translate(-0.36 0.4)"/><path class="cls-13" d="M158,79.43,147.7,87.49s-.77,1.67-2.06,4.32c-5.43.86-16.82,2.56-24.93,3.11a54.24,54.24,0,0,1-5.4,3.23c.21-2.45.47-5.06.78-7.85a211.59,211.59,0,0,0,1.47-26,106,106,0,0,1,31.35-6.83A134.88,134.88,0,0,1,158,79.43Z" transform="translate(-0.36 0.4)"/><path class="cls-7" d="M75.84,37.58c4.86,5,4.65,3,4.65,3a12.26,12.26,0,0,1-1.49-3,13.5,13.5,0,0,1,2.89-14.39l0,0c.16-.18.32-.35.5-.53l.13-.11a9.94,9.94,0,0,1,3.05-1.88v0s-4.47-3.38,2-8.23C81,14.84,75.19,19.25,73.41,27.23A15.61,15.61,0,0,0,75.84,37.58Z" transform="translate(-0.36 0.4)"/><path class="cls-19" d="M240.92,93.29c-5.83-8.4-20.65-12.82-28.62-14.65a13.86,13.86,0,0,0-3.52-.74h0c-1.11-.21-1.76-.31-1.76-.31l-1.53-.13c-12-1.68-24.19-4.55-24.19-4.55h0c-20.64-8.54-57.47-6.85-57.47-6.85-33.47.61-48.41,7.26-48.41,7.26-13.06,5.7-8.6,15-8.6,15,7.42,16,46,15.83,46,15.83l36.92.49c30.91,2.79,70.11-1.18,70.11-1.18C245.43,101.27,240.92,93.29,240.92,93.29Z" transform="translate(-0.36 0.4)"/><path class="cls-14" d="M188.41,107.61s-.27,8.12-5.17,20.74l-.33.82-.23.57a19,19,0,0,1-2.85,4.83c-6.94,8.59-19.4,8.68-19.4,8.68a30.81,30.81,0,0,1-12.11-3s0,0,0,0a20.59,20.59,0,0,1-1.91-1.08h0a20.39,20.39,0,0,1-2.62-1.93h0a21.79,21.79,0,0,1-6.43-10.13,22.54,22.54,0,0,1-1-6.15l-3.16-22.77,2.27-1.38,33,1.81Z" transform="translate(-0.36 0.4)"/><path class="cls-13" d="M178.56,219.14l-.88-.54a4.13,4.13,0,0,1-1,.71,2.67,2.67,0,0,1-1.33.32c-5.11-3.06-12-7.56-18.06-11.55q.27-1.72.51-3.45c1.22-8.81,2.53-17.27,3.74-24.66l.68,1.07c2.61,1.55,2.51,3,2.51,3l1.89,1.07,8.21,4.63C176,199,177.28,209.21,178.56,219.14Z" transform="translate(-0.36 0.4)"/><path class="cls-7" d="M153.79,167.79,161.58,180c-1.21,7.39-2.52,15.85-3.74,24.66q-.24,1.73-.51,3.45c-7.2-4.76-13.11-8.79-13.11-8.79-6.09-6.42-14.09-25.59-14.09-25.59-.65-30.89,20-11.58,20-11.58Z" transform="translate(-0.36 0.4)"/><path class="cls-7" d="M185,212.32a50.25,50.25,0,0,1-3.89,5.45,3.52,3.52,0,0,1-2,1.4l0,0h0a1.58,1.58,0,0,1-.38,0l-.12-.07c-1.28-9.93-2.56-20.17-3.69-29.41l6.19,3.48C182.2,198.9,183.57,205.53,185,212.32Z" transform="translate(-0.36 0.4)"/><path class="cls-13" d="M169.15,159c-1.22.4-2.6.79-4.17,1.14.27-1.45.48-2.65.65-3.58h0l3-.83C168.82,156.78,169,157.88,169.15,159Z" transform="translate(-0.36 0.4)"/><path class="cls-7" d="M163.16,156.66l2.47-.11c-.17.93-.38,2.13-.65,3.58-.75.18-1.55.35-2.39.51a84.48,84.48,0,0,1-8.52,1.09l7.06,9.47,1.11,1.49-1.15-1.21-13.4-14.1Z" transform="translate(-0.36 0.4)"/><path class="cls-7" d="M178.26,153.08s-1.21,3.3-9.11,5.91c-.17-1.11-.33-2.21-.48-3.27Z" transform="translate(-0.36 0.4)"/><path class="cls-6" d="M181.59,144.91c0-.08,0-.15,0-.23h0C181.6,144.76,181.59,144.83,181.59,144.91Z" transform="translate(-0.36 0.4)"/><path class="cls-6" d="M181.21,151c-.08.22-.15.42-.23.59C181.05,151.39,181.13,151.19,181.21,151Z" transform="translate(-0.36 0.4)"/><path class="cls-6" d="M181.85,148.67c-.06.22-.12.41-.18.6Q181.76,149,181.85,148.67Z" transform="translate(-0.36 0.4)"/><path class="cls-6" d="M181.59,143.51c0-.18,0-.35,0-.53C181.58,143.16,181.58,143.33,181.59,143.51Z" transform="translate(-0.36 0.4)"/><path class="cls-6" d="M181.59,140.9c0-.17,0-.32-.06-.5C181.56,140.58,181.57,140.73,181.59,140.9Z" transform="translate(-0.36 0.4)"/><path class="cls-6" d="M182.2,146.69c0,.2,0,.37-.07.55C182.15,147.06,182.18,146.89,182.2,146.69Z" transform="translate(-0.36 0.4)"/><path class="cls-6" d="M182.05,147.77l-.12.57Z" transform="translate(-0.36 0.4)"/><path class="cls-20" d="M129.79,142.4c0-.53.09-.89.09-.89a5.91,5.91,0,0,1,0-1.64c.53-3.05,4.12-2.1,4.12-2.1a32.16,32.16,0,0,0-.84,10.17,56.93,56.93,0,0,0-3.29-6.43,9.78,9.78,0,0,0,3.36,7.25c0,.53-.3,2.31-.22,2.86-1.78-2.08-2.88-3.57-2.88-3.57C129.29,146.94,129.71,143.59,129.79,142.4Z" transform="translate(-0.36 0.4)"/><polygon class="cls-21" points="183.75 144.75 183.75 144.75 183.75 144.75 183.75 144.75"/><path class="cls-21" d="M181.6,144.68h0a2.83,2.83,0,0,0,0-.3C181.62,144.48,181.61,144.58,181.6,144.68Z" transform="translate(-0.36 0.4)"/><path class="cls-5" d="M129.88,141.51a56.93,56.93,0,0,1,3.29,6.43c0,.27,0,.54.07.82A9.78,9.78,0,0,1,129.88,141.51Z" transform="translate(-0.36 0.4)"/><path class="cls-22" d="M163.16,151.92a14.7,14.7,0,0,1,9,4.63c-2.76,1.37-8.6.53-13.36,1.72C161.22,155.7,162.8,154.17,163.16,151.92Z" transform="translate(-0.36 0.4)"/><path class="cls-21" d="M163.37,150.12c.48.17,1,.36,1.46.57a25.69,25.69,0,0,1,7.35,5.86,14.7,14.7,0,0,0-9-4.63C163.33,150.83,163.37,150.12,163.37,150.12Z" transform="translate(-0.36 0.4)"/><path class="cls-22" d="M158.19,147.76c-.08.2-.15.41-.24.58l.14,0-.29,0a6.35,6.35,0,0,0,.06-.72Z" transform="translate(-0.36 0.4)"/><path class="cls-5" d="M158.09,148.38c.55.15,2.71.77,5.28,1.74,0,0,0,.71-.21,1.8a28.14,28.14,0,0,0-6.3-.26,13.62,13.62,0,0,0,.94-3.33Z" transform="translate(-0.36 0.4)"/><path class="cls-21" d="M146,150.38l2.08-1a20,20,0,0,1,9.72-1.07,13.62,13.62,0,0,1-.94,3.33,37.5,37.5,0,0,0-7.56,1.24c-2.9.95-4.4.86-5.17.46A18.17,18.17,0,0,1,146,150.38Z" transform="translate(-0.36 0.4)"/><path class="cls-20" d="M146,150.38l-1.08.42a23.91,23.91,0,0,1,3.16-1.4l-2.08,1Z" transform="translate(-0.36 0.4)"/><path class="cls-20" d="M141.61,137.14a48.55,48.55,0,0,0,6.15.52c-.37,4.64-.48,9.65.52,11.65l-.2.09a23.91,23.91,0,0,0-3.16,1.4c-1.75.68-3.17,1.31-4.22,1.8,0-1.53-.1-6.54.18-11.67a4.57,4.57,0,0,0,1-.51S142.83,138.25,141.61,137.14Z" transform="translate(-0.36 0.4)"/><path class="cls-5" d="M141.61,137.14c1.22,1.11.28,3.28.28,3.28a4.57,4.57,0,0,1-1,.51c.07-1.3.16-2.6.28-3.86Z" transform="translate(-0.36 0.4)"/><path class="cls-5" d="M144.13,153.36a1.52,1.52,0,0,1-.73-1.72l2.6-1.26A18.17,18.17,0,0,0,144.13,153.36Z" transform="translate(-0.36 0.4)"/><path class="cls-20" d="M140.7,152.6c0,.31,0,.48,0,.48a21.51,21.51,0,0,1,2.68-1.44,1.52,1.52,0,0,0,.73,1.72,7.83,7.83,0,0,0-1.22,4.54c-1.53-1.17-3.34-1.08-4.71-2.42l.36-1.8S139.31,153.26,140.7,152.6Z" transform="translate(-0.36 0.4)"/><path class="cls-20" d="M144.92,150.8l1.08-.42h0l-2.6,1.26h0C143.91,151.33,144.41,151.06,144.92,150.8Z" transform="translate(-0.36 0.4)"/><path class="cls-21" d="M174.9,136.58l-1.73-.37,2,.41Z" transform="translate(-0.36 0.4)"/><path class="cls-22" d="M176.49,155h0c-1.35.95-3.21,1-4.31,1.56,0,0,2.1-2.41,4.55-5.09C176.56,152.34,176.81,154.12,176.49,155Z" transform="translate(-0.36 0.4)"/><path class="cls-22" d="M164.88,150.7a50,50,0,0,0-.09-15.34c1.52-.07,3.08-.06,4.58,0,1.38.33,2.69.62,3.79.86h0l1.73.37h0a30,30,0,0,1,2.18,11.86,2.74,2.74,0,0,0-.54.76s-4.54,5.62-4.36,7.35a25.69,25.69,0,0,0-7.35-5.86Z" transform="translate(-0.36 0.4)"/><path class="cls-21" d="M176.54,149.2a2.74,2.74,0,0,1,.54-.76,21.19,21.19,0,0,1-.35,3c-2.45,2.68-4.55,5.09-4.55,5.09C172,154.82,176.54,149.2,176.54,149.2Z" transform="translate(-0.36 0.4)"/><path class="cls-22" d="M181,151.56c.08-.17.15-.37.23-.59,0-.05.44-1.65.46-1.7s.12-.38.18-.6.05-.22.08-.33l.12-.57c0-.17,0-.35.08-.53s.05-.35.07-.55-.62-1.54-.61-1.78c0-.08,0-.15,0-.23.83-.76,2.14-.2,2.51-.34-.07,1.48-3.13,7.31-3.13,7.31v-.08Z" transform="translate(-0.36 0.4)"/><path class="cls-21" d="M181.62,144.38c0-.09,0-.19,0-.28a3.27,3.27,0,0,1,2.5.24h0c-.37.14-1.68-.42-2.51.34C181.61,144.58,181.62,144.48,181.62,144.38Z" transform="translate(-0.36 0.4)"/><polygon class="cls-20" points="172.8 136.61 172.8 136.61 172.81 136.62 172.8 136.61"/><path class="cls-20" d="M175.12,136.62l1.43.3-1.65-.34Z" transform="translate(-0.36 0.4)"/><path class="cls-20" d="M176.55,136.86v.06l0-.07Z" transform="translate(-0.36 0.4)"/><path class="cls-20" d="M176.53,136.85l0,.07-.13-.08Z" transform="translate(-0.36 0.4)"/><path class="cls-20" d="M176.42,136.84l.13.08-1.43-.3Z" transform="translate(-0.36 0.4)"/><path class="cls-20" d="M143.4,151.64h0a21.51,21.51,0,0,0-2.68,1.44s0-.17,0-.48c1.05-.49,2.47-1.12,4.22-1.8C144.41,151.06,143.91,151.33,143.4,151.64Z" transform="translate(-0.36 0.4)"/><path class="cls-20" d="M163.16,151.92c-.36,2.25-1.94,3.78-4.34,6.35h0c-1.54.39-3,.75-4.39,1.06-1.76.41-2.94-.65-4-.42,1.35-2,4.81-3.2,6.42-7.25A28.14,28.14,0,0,1,163.16,151.92Z" transform="translate(-0.36 0.4)"/><polygon class="cls-20" points="158.46 158.68 158.46 158.68 158.46 158.68 158.46 158.68"/><path class="cls-20" d="M161.13,149.1a21.47,21.47,0,0,1,3.7,1.59c-.49-.21-1-.4-1.46-.57h0Z" transform="translate(-0.36 0.4)"/><path class="cls-23" d="M158.19,147.76l2.94,1.34a20.45,20.45,0,0,0-3-.72l-.14,0C158,148.17,158.11,148,158.19,147.76Z" transform="translate(-0.36 0.4)"/><path class="cls-23" d="M161.13,149.1l2.24,1h0c-2.57-1-4.73-1.59-5.28-1.74A20.45,20.45,0,0,1,161.13,149.1Z" transform="translate(-0.36 0.4)"/><path class="cls-20" d="M158.19,147.76c1.17-2.94.8-7.86.27-11.52a27.46,27.46,0,0,1,6.33-.88,50,50,0,0,1,.09,15.34h0a21.47,21.47,0,0,0-3.7-1.59Z" transform="translate(-0.36 0.4)"/><path class="cls-22" d="M133.44,148.92a4.6,4.6,0,0,0-.27-1,32.16,32.16,0,0,1,.84-10.17s3.17,4.53,6.87,3.16c-.28,5.13-.21,10.14-.18,11.67-1.39.66-2.14,1.08-2.14,1.08l-.36,1.8c-.77-.74-1.83-1.31-2.52-2-1-1-1.91-.94-2.66-1.82-.08-.55.27-2.33.22-2.86Z" transform="translate(-0.36 0.4)"/><path class="cls-21" d="M141.16,137.07c-.12,1.26-.21,2.56-.28,3.86-3.7,1.37-6.87-3.16-6.87-3.16a19.29,19.29,0,0,1,4.89-1.24A16,16,0,0,0,141.16,137.07Z" transform="translate(-0.36 0.4)"/><path class="cls-21" d="M133.24,148.76c0-.28-.06-.55-.07-.82a4.6,4.6,0,0,1,.27,1Z" transform="translate(-0.36 0.4)"/><path class="cls-20" d="M176.73,151.46c1.88-2.06,3.34-5.36,4.87-6.78,0,.08,0,.15,0,.23,0,.24.63,1.56.61,1.78s0,.37-.07.55,0,.36-.08.53l-.12.57c0,.11-.05.23-.08.33s-.12.42-.18.6-.44,1.65-.46,1.7c-.08.22-.07.25-.14.42a.75.75,0,0,0-.06.13l0,.13-.31.24c-.76.59-2,1.58-4.18,3.1h0C176.81,154.12,176.56,152.34,176.73,151.46Z" transform="translate(-0.36 0.4)"/><path class="cls-5" d="M181.62,144.38a2.83,2.83,0,0,1,0,.3c-1.53,1.42-3,4.72-4.87,6.78a21.19,21.19,0,0,0,.35-3c1.12-1.2,2.84-3.54,4.53-4.34C181.61,144.19,181.62,144.29,181.62,144.38Z" transform="translate(-0.36 0.4)"/><path class="cls-20" d="M181.93,148.34c0,.11-.05.23-.08.33C181.88,148.57,181.9,148.45,181.93,148.34Z" transform="translate(-0.36 0.4)"/><path class="cls-20" d="M181.59,143.51c0,.19,0,.4,0,.59h0C181.61,143.91,181.6,143.71,181.59,143.51Z" transform="translate(-0.36 0.4)"/><path class="cls-20" d="M182.13,147.24c0,.18,0,.36-.08.53C182.08,147.6,182.1,147.42,182.13,147.24Z" transform="translate(-0.36 0.4)"/><path class="cls-20" d="M181,151.65" transform="translate(-0.36 0.4)"/><path class="cls-20" d="M181.67,149.27s-.44,1.65-.46,1.7S181.65,149.32,181.67,149.27Z" transform="translate(-0.36 0.4)"/><path class="cls-20" d="M181.57,143c0-.34.07-1.72,0-2.08C181.64,141.26,181.54,142.64,181.57,143Z" transform="translate(-0.36 0.4)"/><path class="cls-20" d="M181.59,144.91c0,.24.63,1.56.61,1.78C182.22,146.47,181.58,145.15,181.59,144.91Z" transform="translate(-0.36 0.4)"/><path class="cls-20" d="M181.61,144.1c0,.09,0,.19,0,.28,0-.09,0-.19,0-.28Z" transform="translate(-0.36 0.4)"/><path class="cls-22" d="M147.76,137.66l1.56,0a45.2,45.2,0,0,0,7.68-.91h0a11.75,11.75,0,0,1,1.46-.54c.53,3.66.9,8.58-.27,11.52l-.33-.15a6.35,6.35,0,0,1-.06.72,20,20,0,0,0-9.72,1.07l.2-.09C147.28,147.31,147.39,142.3,147.76,137.66Z" transform="translate(-0.36 0.4)"/><path class="cls-22" d="M142.91,157.9a7.83,7.83,0,0,1,1.22-4.54c.77.4,2.27.49,5.17-.46a37.5,37.5,0,0,1,7.56-1.24c-1.61,4.05-5.07,5.22-6.42,7.25a1.15,1.15,0,0,1-.49,0A26,26,0,0,1,142.91,157.9Z" transform="translate(-0.36 0.4)"/><path class="cls-20" d="M181.23,150.92a7.13,7.13,0,0,1-.25.73l-.12-.12Z" transform="translate(-0.36 0.4)"/><path class="cls-20" d="M174.91,136.59H175l.11,0a12.1,12.1,0,0,1,5.09,1.28c.12,0,.19.12.23.13h0a3.8,3.8,0,0,1,.73.64c.15.58.25,1.13.34,1.65a.19.19,0,0,0,0,.07c0,.17,0,.33.06.5.05.37,0,1.74,0,2.07s0,.36,0,.54,0,.39,0,.58c-1.69.81-3.41,3.15-4.53,4.34A30,30,0,0,0,174.91,136.59Z" transform="translate(-0.36 0.4)"/><path class="cls-22" d="M182.48,140.65a28.61,28.61,0,0,1,1.64,3.69,3.28,3.28,0,0,0-2.51-.25c0-.19,0-.38,0-.58s0-.34,0-.54.08-1.7,0-2.07c0-.17,0-.33-.06-.5a.19.19,0,0,1,0-.07c-.09-.52-.19-1.07-.34-1.65A12,12,0,0,1,182.48,140.65Z" transform="translate(-0.36 0.4)"/><path class="cls-15" d="M188.41,107.61s-.27,8.12-5.17,20.74l-.33.82a4.14,4.14,0,0,1-2.9,1,9.93,9.93,0,0,0,3.11-7.46,11.77,11.77,0,0,0-.46-3.34h0s-19.6,5.21-32.42-12h0c1.31,8.69,7.29,12.17,7.29,12.17C146.08,118.43,145.06,104.3,145,104c0,.42-2.7,15.35,2.1,21.39,0,0,5.31,8,1.56,14.39a3.12,3.12,0,0,1-.31.49l0,.06v-.07l.31-2.22a13.67,13.67,0,0,0-2.75-7.31,24.83,24.83,0,0,1,.53,8.44,20.39,20.39,0,0,1-2.62-1.93h0a21.79,21.79,0,0,1-6.43-10.13,22.54,22.54,0,0,1-1-6.15l-3.16-22.77,2.27-1.38,33,1.81Z" transform="translate(-0.36 0.4)"/><path class="cls-24" d="M167.9,170.31a11.56,11.56,0,0,0-1,3.35c-1.34,6.34-2.5,18.85-2.5,18.85l-7.28-3.21c.33-3.39,4.35-12.63,6.46-17.29.76-1.69,1.27-2.76,1.27-2.76Z" transform="translate(-0.36 0.4)"/><path class="cls-24" d="M179.91,188.61l-7.07,3.64s-1.91-12.27-3.62-18.55a12.33,12.33,0,0,0-1.27-3.39l3-1.25s.63,1.15,1.55,2.9C174.93,176.54,179.37,185.29,179.91,188.61Z" transform="translate(-0.36 0.4)"/><path class="cls-15" d="M167.9,170.31a11.56,11.56,0,0,0-1,3.35,7.85,7.85,0,0,1-3.32-1.65c.76-1.69,1.27-2.76,1.27-2.76Z" transform="translate(-0.36 0.4)"/><path class="cls-15" d="M172.51,172a6.51,6.51,0,0,1-3.29,1.74,12.33,12.33,0,0,0-1.27-3.39l3-1.25S171.59,170.21,172.51,172Z" transform="translate(-0.36 0.4)"/><path class="cls-25" d="M172.44,165.1c.1,3.25-1.78,5.93-4.23,6s-4.49-2.49-4.59-5.74,1.79-5.92,4.23-6S172.34,161.87,172.44,165.1Z" transform="translate(-0.36 0.4)"/><path class="cls-26" d="M172.44,165.1c.1,3.25-1.78,5.93-4.23,6l-.36-11.73C170.3,159.3,172.34,161.87,172.44,165.1Z" transform="translate(-0.36 0.4)"/><path class="cls-27" d="M167.9,161c-1.68.06-3,2-2.92,4.34s1.49,4.2,3.18,4.15,3-2,2.92-4.33S169.59,160.94,167.9,161Zm.22,7.27c-1.4.05-2.58-1.5-2.64-3.45s1-3.57,2.43-3.61,2.59,1.5,2.65,3.45S169.53,168.22,168.12,168.26Z" transform="translate(-0.36 0.4)"/><ellipse class="cls-28" cx="168.02" cy="164.73" rx="2.54" ry="3.53" transform="translate(-5.31 5.61) rotate(-1.75)"/><path class="cls-29" d="M167.94,162.11c-.53,0-.93.62-.91,1.34s.46,1.3,1,1.28.92-.61.9-1.34S168.46,162.09,167.94,162.11Z" transform="translate(-0.36 0.4)"/><path class="cls-13" d="M194.29,190.59a64.72,64.72,0,0,1-5.66,15.56l-1.73,1.77s-1.57-1-1.57-1.53-.82-6.43-.82-6.43l2.94-5.46,2.19-3.91,2.56-1.38,2.35-.71Z" transform="translate(-0.36 0.4)"/><polygon class="cls-7" points="191.89 185.63 190.2 187.07 191.89 188.09 192.49 186.86 191.89 185.63"/><polygon class="cls-7" points="182.29 205.6 182.69 208.42 184.26 208.89 185.5 207.25 182.29 205.6"/><polyline class="cls-15" points="189.16 199.46 180.64 196.1 184.34 191.8 191.55 195.75"/><path class="cls-14" d="M197.21,202.2a5.1,5.1,0,0,1-2.19-.09,4.89,4.89,0,0,1-2.62-1.26,5.71,5.71,0,0,1-1.05-1.2l-1.85-.6a3.35,3.35,0,0,0,.2-.37.07.07,0,0,1,0-.05,19,19,0,0,1,2.16-3.29s.6-.33,1.47-.7c1.88-.77,5.07-1.63,6.24.71a1.31,1.31,0,0,1-.5,1.48s.23.46.68,1.45c0,0,.86-.39,1.13,1.45,0,0,.35,1.51-1.64,1.52C199.27,201.25,199,202.44,197.21,202.2Z" transform="translate(-0.36 0.4)"/><path class="cls-15" d="M192.4,200.85a5.71,5.71,0,0,1-1.05-1.2s-1.93-.59-1.93-.63-.57-.62-.52-.74-.38-1-.36-1.05c.37-.71,2.41-.8,3.35-1.89,0,0,.6-.33,1.47-.7A11.73,11.73,0,0,0,192.4,200.85Z" transform="translate(-0.36 0.4)"/><path class="cls-15" d="M199.27,201.25a9.9,9.9,0,0,1-1.87-.08A2.14,2.14,0,0,0,199.27,201.25Z" transform="translate(-0.36 0.4)"/><path class="cls-15" d="M197.21,202.2a7.79,7.79,0,0,1-2-.24A7,7,0,0,1,197.21,202.2Z" transform="translate(-0.36 0.4)"/><path class="cls-15" d="M199.78,198.28a6.36,6.36,0,0,1,.3,1.14S200.56,199.43,199.78,198.28Z" transform="translate(-0.36 0.4)"/><path class="cls-15" d="M199.1,196.83a2.32,2.32,0,0,0-.92-1.17A2.57,2.57,0,0,0,199.1,196.83Z" transform="translate(-0.36 0.4)"/><path class="cls-12" d="M193.15,185.12l-24.9-8.31-2.06-.69s-.18-1.43-3-2.46l-10.84-11.4-4.63-4.88s-24-15-17.47,15.18c0,0,11.49,17.3,18.69,22.45,0,0,22.17,9.57,34.47,14.05a3.24,3.24,0,0,0,2.05-1.45,4.53,4.53,0,0,0,.43-.76,4.47,4.47,0,0,1-.77.64,1.83,1.83,0,0,1-1.62.39,6.52,6.52,0,0,1-.25-1.1c-.78-4.58,1.52-11,1.84-11.83,2.39-5.16,5.27-7.45,6.59-8.28a4.13,4.13,0,0,1,.71-.4,6.06,6.06,0,0,1,.13.67,6.88,6.88,0,0,1,0,1.56,6.59,6.59,0,0,0,.5-1.37A5,5,0,0,0,193.15,185.12Z" transform="translate(-0.36 0.4)"/><path class="cls-16" d="M194.55,187.63l-1.52-.5-.54-.19-.84-.27c-1.32.83-4.2,3.12-6.59,8.28-.32.86-2.62,7.25-1.84,11.83l1.87.71.34.12,1.1.41a3.24,3.24,0,0,0,2.1-1.87c-1,1-1.65,1-2,.87-1.22-3.89,1-10.17,1.34-11,2.7-5.86,6.17-7.35,6.19-7.36a5.93,5.93,0,0,1,.15,1.89A4,4,0,0,0,194.55,187.63Z" transform="translate(-0.36 0.4)"/><path class="cls-7" d="M166.19,176.12s-5.29,0-6.85,10.1C159.34,186.22,164.13,175.43,166.19,176.12Z" transform="translate(-0.36 0.4)"/><path class="cls-7" d="M163.16,173.66a6.42,6.42,0,0,1-9.09.66S161.33,175.67,163.16,173.66Z" transform="translate(-0.36 0.4)"/><path class="cls-7" d="M178.85,158.33s1,17.67.45,22.17l13.85,4.62-12.6-5.7S181,165.2,178.85,158.33Z" transform="translate(-0.36 0.4)"/><path class="cls-30" d="M197.25,110.62s-1-1.29-2-5.64c-.09-.33-.17-.68-.26-1,0,0-3.65-11.36-7.67-13.43,0,0-41.74-12.56-68.9-2.88,0,0-5.56,6.09-6.71,16.89a38,38,0,0,0-.1,6.88s-.23,1.24-2.64,3.94c0,0-8.89,13.82,1.08,27.62-.26-.49-3.38-6.78.47-15.16-.11.78-1.83,15,13.86,17.41-.56-.14-5.2-1.54-4.65-10.36,0,0,2.22,6.82,11.92,7.14,0,0,4.21,2.33,6.55,2.41a5.89,5.89,0,0,1-1.76-2.53c1,.86,3.92,4.77,13.42,3a19.29,19.29,0,0,1-2.08-1.61,2.49,2.49,0,0,0-.3-.26l-.54-.51a5.79,5.79,0,0,1-1.06-4.76,23.78,23.78,0,0,0,0-11.17,13.81,13.81,0,0,1,2.76,7.32l-.32,2.29a5.14,5.14,0,0,0,.35-.55c3.75-6.38-1.56-14.39-1.56-14.39-4.8-6-2.11-21-2.11-21.39.09.34,1.11,14.47,12.55,15.6,0,0-6-3.48-7.29-12.17,0,0,13.47,15.75,32.43,12,0,0,2.1,6.37-2.64,10.8,0,0,2.58.3,4.31-2.77-.33.75-3.66,8.71-.56,14.25,0,0,2.53,2.93-2.39,6.36A11.29,11.29,0,0,0,192,135.78a21.09,21.09,0,0,0,5.29-17.93s7,6.4,2.89,14.47C200.48,131.88,209.53,120.36,197.25,110.62Z" transform="translate(-0.36 0.4)"/><path class="cls-18" d="M111.78,110.92s2.79-8.45,4.08-11C115.86,99.88,118.71,100.78,111.78,110.92Z" transform="translate(-0.36 0.4)"/><path class="cls-18" d="M110.49,127.76a32.46,32.46,0,0,1,3.49-7.11s-4.87,14.17,2.46,21.58C116.44,142.23,109.57,139.66,110.49,127.76Z" transform="translate(-0.36 0.4)"/><path class="cls-18" d="M119.68,134.84a16,16,0,0,1,1.58-6.79s.41,11,10.35,13.93C131.61,142,122.33,142.72,119.68,134.84Z" transform="translate(-0.36 0.4)"/><path class="cls-18" d="M150.23,103.31s-.14-2.56,0-5.38c0,0,13.46,19.67,32.42,17.4C182.65,115.33,163,120.54,150.23,103.31Z" transform="translate(-0.36 0.4)"/><path class="cls-18" d="M184.35,123.29s2.93-4.13,2.93-5.9A18.84,18.84,0,0,0,184.35,123.29Z" transform="translate(-0.36 0.4)"/><path class="cls-18" d="M184.35,140.4s4.46-6.39,2.93-11.33a7.64,7.64,0,0,0-1.91,5.67S185.71,138.21,184.35,140.4Z" transform="translate(-0.36 0.4)"/><path class="cls-18" d="M197.25,117.85a10.49,10.49,0,0,0-1.77-3s3.38,8.92-3.52,20.9A19.26,19.26,0,0,0,197.25,117.85Z" transform="translate(-0.36 0.4)"/><path class="cls-18" d="M182.65,115.33s-10.61-5.14-14.29-13.81C168.36,101.52,172.5,108.58,182.65,115.33Z" transform="translate(-0.36 0.4)"/><path class="cls-18" d="M182.65,115.33s.34-11.79-5.17-21.75C177.48,93.58,185.83,103.56,182.65,115.33Z" transform="translate(-0.36 0.4)"/><path class="cls-18" d="M195.21,105c-57.06-12.42-78.92-2.68-83.54-.47,1.15-10.8,6.71-16.89,6.71-16.89,27.16-9.68,68.9,2.88,68.9,2.88,4,2.07,7.67,13.43,7.67,13.43C195,104.3,195.12,104.65,195.21,105Z" transform="translate(-0.36 0.4)"/><path class="cls-18" d="M192,135.77s2.3-8.38.61-13.32Z" transform="translate(-0.36 0.4)"/><path class="cls-18" d="M136.4,141.86s-4.86-4.65-4.11-9.3A45.83,45.83,0,0,0,136.4,141.86Z" transform="translate(-0.36 0.4)"/><path class="cls-18" d="M145.84,126.6s-2.65-2.2-3.86-9.21c0,0,.54-.33,1.93,5.06A23,23,0,0,0,145.84,126.6Z" transform="translate(-0.36 0.4)"/><path class="cls-18" d="M145.72,139s-2.19-7.52-.76-9.89" transform="translate(-0.36 0.4)"/><path class="cls-31" d="M152.52,116s5.92.13,8.9,2.44c0,0,.77,1.33.65,1.79l-11.23-2.82Z" transform="translate(-0.36 0.4)"/><ellipse class="cls-31" cx="156.8" cy="121.67" rx="3.1" ry="4.4"/><path class="cls-31" d="M181.38,116.17a7.58,7.58,0,0,0-5.34,2.24,5.9,5.9,0,0,0-.44,1.79l6.92-2.63Z" transform="translate(-0.36 0.4)"/><ellipse class="cls-31" cx="178.05" cy="121.93" rx="1.58" ry="4.14"/><path class="cls-32" d="M240.92,93.29c-5.83-8.4-20.65-12.82-28.62-14.65a13.86,13.86,0,0,0-3.52-.74h0c-1.11-.21-1.76-.31-1.76-.31l-1.53-.13C195.8,76.1,186,74,182.55,73.2a126.81,126.81,0,0,0-6.22-14.15c-.48-.92-1-1.87-1.51-2.82h0c-10.1-18.4-29-41.61-61.3-46,0,0-14.23-2-25.86,2.24h0C81,14.84,75.19,19.26,73.41,27.23a15.61,15.61,0,0,0,2.43,10.35c4.86,5,4.65,3,4.65,3a12.26,12.26,0,0,1-1.49-3,13.5,13.5,0,0,1,2.89-14.39l0,0c.16-.18.32-.35.5-.53l.13-.11a9.94,9.94,0,0,1,3.05-1.88h0a13.17,13.17,0,0,1,6.31-.77,16,16,0,0,1,4.35.69l.29.09a18.43,18.43,0,0,1,4.29,1.93A17.84,17.84,0,0,1,107,29.82c1,4.1,3.45,16.38,3.51,36.84-24.14,1.79-35.09,6.66-35.09,6.66-13.06,5.7-8.6,15-8.6,15,6.68,14.36,38.57,15.7,44.9,15.82,0,.11,0,.22,0,.34a38,38,0,0,0-.1,6.88s-.23,1.24-2.64,3.94c0,0-8.89,13.82,1.08,27.62-.26-.49-3.38-6.78.47-15.16a16.92,16.92,0,0,0,0,3.69c.6,8.72,6,10.75,6,10.75h0a18.63,18.63,0,0,0,7.9,3c-.56-.14-5.2-1.54-4.65-10.35a.69.69,0,0,0,0,.13,2.05,2.05,0,0,0,.08.19c2,5.42,7.25,6.57,10,6.78,0,.13,0,.27,0,.44-.08,1.2-.5,4.55.35,5.66,0,0,.86,1.16,2.27,2.85a13.09,13.09,0,0,0-2.5,3.61,11.3,11.3,0,0,0-.7,2,12.2,12.2,0,0,0-.34,1.48,3.72,3.72,0,0,0-.37,1.36s-.33,2.33-.76,6.43c-.82,1.36-1.9,3.14-3.08,5s-2.57,4-3.85,5.74a27.68,27.68,0,0,1-3.68,4.39,48.63,48.63,0,0,0-3.78,4.52,55.68,55.68,0,0,0-3.58,5.43,33.61,33.61,0,0,0-4.69,13.84l0,.39s-.3,3.49-.26,6.88a26,26,0,0,0,.3,4.09l0-.27.12.74a21.82,21.82,0,0,1-.3,3.73s-1.69,5.41-.15,8.75a4.16,4.16,0,0,0,.24.47,13,13,0,0,0,6.81,1.74l.61.16a25.2,25.2,0,0,1,4.73,1.75c-3.5,11.09-7,23.27-8.45,31.15-.6,2.52-.87,4.45-.63,5.51,0,0,17.71,13.55,31,21.77-.48,1.65-1,3.7-1.56,6a160.42,160.42,0,0,0-3.28,17.32h0l-1.44,1.74-2.59,7.93a23.24,23.24,0,0,0,.57,4.59,18.22,18.22,0,0,0,.88,2.92c.09.21.17.44.26.65,1.48,3.34,4.26,6.33,9.45,5.84,0,0,4.55-.51,4-7.77,0,0-.94-5-1.37-8.61l-.2-2.95-.81-2.11c.75-3.07,2.38-9.4,4.09-14.49a58.86,58.86,0,0,1,1.85-5.73,16.1,16.1,0,0,0,2,.68s-.08-2-.16-5.47c.72-2,1.58-4.46,2.43-7.14.76-2.42,1.5-5,2.11-7.49,1.23.27,2.49.54,3.73.76s2.69.45,3.93.59c.06.27.12.56.18.86a.08.08,0,0,0,0,.05s.15.62.36,1.58c.66,3.26,1.34,6.94,1.55,9.09l0,.48,0,.41s-.07,4.61.43,10.42a162.69,162.69,0,0,0,2.27,17.48h0L167,321.3v8.34a24.09,24.09,0,0,0,2,4.19,18.32,18.32,0,0,0,1.73,2.49l.46.54c2.44,2.72,6,4.69,10.79,2.61,0,0,4.17-1.89,1.35-8.61,0,0-2.45-4.46-4-7.76l-1.1-2.74-1.43-1.75c-.24-3.16-.67-9.68-.62-15.05,0-2.82-.32-5,.06-6.5,0,0,.36-5.62.29-12.19,0-2.48-.11-5.1-.31-7.61,1.73,0,3.48-.12,5.18-.27,1-.09,1.94-.2,2.86-.33h0a12.66,12.66,0,0,0,1.63-.26c.59,6.46.92,12.16.62,15.07,0,0,8.39-24.69,8.09-34,0,0-1.06-4.93-2.65-12.36.78,0,.92-1.85.92-1.85,1-1.85-.21-4.43-.21-4.43a7.3,7.3,0,0,0-.5-1.48,70.66,70.66,0,0,0,7.64-2.48v0h0a27.81,27.81,0,0,0,4.58-2.08c-.18-.67-.43-1.52-.75-2.5a13.69,13.69,0,0,0,2.27-1.18h0c-1.06-4.1-4.95-16.31-8.36-26.83a1.6,1.6,0,0,0,1.75-1c2,0,1.64-1.52,1.64-1.52-.27-1.84-1.13-1.45-1.13-1.45-.45-1-.68-1.45-.68-1.45a1.31,1.31,0,0,0,.5-1.48c-.84-1.68-2.71-1.71-4.4-1.31-.25-1.28-.51-2.54-.79-3.77a4,4,0,0,0,.14-2.64l-.81-.26c-4.81-19.81-12.37-32.47-12.37-32.47a4.89,4.89,0,0,0-1.81-2.15l1.11-.86.31-.24s3.06-5.83,3.13-7.31a4.37,4.37,0,0,0-1.5-.41h0a4.38,4.38,0,0,1,1.51.41l-.27-.71a11.23,11.23,0,0,0,8.11-7.85l0,0a19.33,19.33,0,0,0,5.26-17.86.06.06,0,0,1,0,0s7,6.4,2.89,14.47c.34-.44,9.39-12-2.89-21.7,0,0-1-1.26-2-5.44,14.24-.64,24.59-1.69,24.59-1.69C245.43,101.27,240.92,93.29,240.92,93.29Zm-117,119.24c.18-.83.36-1.63.52-2.37a22.37,22.37,0,0,1,.75-2.11c.17-.41.37-.83.58-1.26v.41S125,209.21,123.91,212.53Zm18.91,110.92Zm0,0Zm35.8,1.24Zm0,0Z" transform="translate(-0.36 0.4)"/><path class="cls-33" d="M240.92,93.29c-5.83-8.4-20.65-12.82-28.62-14.65a13.86,13.86,0,0,0-3.52-.74h0c-1.11-.21-1.76-.31-1.76-.31l-1.53-.13C195.8,76.1,186,74,182.55,73.2a126.81,126.81,0,0,0-6.22-14.15c-.48-.92-1-1.87-1.51-2.82h0c-10.1-18.4-29-41.61-61.3-46,0,0-14.23-2-25.86,2.24h0C81,14.84,75.19,19.26,73.41,27.23a15.61,15.61,0,0,0,2.43,10.35c4.86,5,4.65,3,4.65,3a12.26,12.26,0,0,1-1.49-3,13.5,13.5,0,0,1,2.89-14.39l0,0c.16-.18.32-.35.5-.53l.13-.11a9.94,9.94,0,0,1,3.05-1.88h0a13.17,13.17,0,0,1,6.31-.77,16,16,0,0,1,4.35.69l.29.09a18.43,18.43,0,0,1,4.29,1.93A17.84,17.84,0,0,1,107,29.82c1,4.1,3.45,16.38,3.51,36.84-24.14,1.79-35.09,6.66-35.09,6.66-13.06,5.7-8.6,15-8.6,15,6.68,14.36,38.57,15.7,44.9,15.82,0,.11,0,.22,0,.34a38,38,0,0,0-.1,6.88s-.23,1.24-2.64,3.94c0,0-8.89,13.82,1.08,27.62-.26-.49-3.38-6.78.47-15.16a16.92,16.92,0,0,0,0,3.69c.6,8.72,6,10.75,6,10.75h0a18.63,18.63,0,0,0,7.9,3c-.56-.14-5.2-1.54-4.65-10.35a.69.69,0,0,0,0,.13,2.05,2.05,0,0,0,.08.19c2,5.42,7.25,6.57,10,6.78,0,.13,0,.27,0,.44-.08,1.2-.5,4.55.35,5.66,0,0,.86,1.16,2.27,2.85a13.09,13.09,0,0,0-2.5,3.61,11.3,11.3,0,0,0-.7,2,12.2,12.2,0,0,0-.34,1.48,3.72,3.72,0,0,0-.37,1.36s-.33,2.33-.76,6.43c-.82,1.36-1.9,3.14-3.08,5s-2.57,4-3.85,5.74a27.68,27.68,0,0,1-3.68,4.39,48.63,48.63,0,0,0-3.78,4.52,55.68,55.68,0,0,0-3.58,5.43,33.61,33.61,0,0,0-4.69,13.84l0,.39s-.3,3.49-.26,6.88a26,26,0,0,0,.3,4.09l0-.27.12.74a21.82,21.82,0,0,1-.3,3.73s-1.69,5.41-.15,8.75a4.16,4.16,0,0,0,.24.47,13,13,0,0,0,6.81,1.74l.61.16a25.2,25.2,0,0,1,4.73,1.75c-3.5,11.09-7,23.27-8.45,31.15-.6,2.52-.87,4.45-.63,5.51,0,0,17.71,13.55,31,21.77-.48,1.65-1,3.7-1.56,6a160.42,160.42,0,0,0-3.28,17.32h0l-1.44,1.74-2.59,7.93a23.24,23.24,0,0,0,.57,4.59,18.22,18.22,0,0,0,.88,2.92c.09.21.17.44.26.65,1.48,3.34,4.26,6.33,9.45,5.84,0,0,4.55-.51,4-7.77,0,0-.94-5-1.37-8.61l-.2-2.95-.81-2.11c.75-3.07,2.38-9.4,4.09-14.49a58.86,58.86,0,0,1,1.85-5.73,16.1,16.1,0,0,0,2,.68s-.08-2-.16-5.47c.72-2,1.58-4.46,2.43-7.14.76-2.42,1.5-5,2.11-7.49,1.23.27,2.49.54,3.73.76s2.69.45,3.93.59c.06.27.12.56.18.86a.08.08,0,0,0,0,.05s.15.62.36,1.58c.66,3.26,1.34,6.94,1.55,9.09l0,.48,0,.41s-.07,4.61.43,10.42a162.69,162.69,0,0,0,2.27,17.48h0L167,321.3v8.34a24.09,24.09,0,0,0,2,4.19,18.32,18.32,0,0,0,1.73,2.49l.46.54c2.44,2.72,6,4.69,10.79,2.61,0,0,4.17-1.89,1.35-8.61,0,0-2.45-4.46-4-7.76l-1.1-2.74-1.43-1.75c-.24-3.16-.67-9.68-.62-15.05,0-2.82-.32-5,.06-6.5,0,0,.36-5.62.29-12.19,0-2.48-.11-5.1-.31-7.61,1.73,0,3.48-.12,5.18-.27,1-.09,1.94-.2,2.86-.33h0a12.66,12.66,0,0,0,1.63-.26c.59,6.46.92,12.16.62,15.07,0,0,8.39-24.69,8.09-34,0,0-1.06-4.93-2.65-12.36.78,0,.92-1.85.92-1.85,1-1.85-.21-4.43-.21-4.43a7.3,7.3,0,0,0-.5-1.48,70.66,70.66,0,0,0,7.64-2.48v0h0a27.81,27.81,0,0,0,4.58-2.08c-.18-.67-.43-1.52-.75-2.5a13.69,13.69,0,0,0,2.27-1.18h0c-1.06-4.1-4.95-16.31-8.36-26.83a1.6,1.6,0,0,0,1.75-1c2,0,1.64-1.52,1.64-1.52-.27-1.84-1.13-1.45-1.13-1.45-.45-1-.68-1.45-.68-1.45a1.31,1.31,0,0,0,.5-1.48c-.84-1.68-2.71-1.71-4.4-1.31-.25-1.28-.51-2.54-.79-3.77a4,4,0,0,0,.14-2.64l-.81-.26c-4.81-19.81-12.37-32.47-12.37-32.47a4.89,4.89,0,0,0-1.81-2.15l1.11-.86.31-.24s3.06-5.83,3.13-7.31a4.37,4.37,0,0,0-1.5-.41h0a4.38,4.38,0,0,1,1.51.41l-.27-.71a11.23,11.23,0,0,0,8.11-7.85l0,0a19.33,19.33,0,0,0,5.26-17.86.06.06,0,0,1,0,0s7,6.4,2.89,14.47c.34-.44,9.39-12-2.89-21.7,0,0-1-1.26-2-5.44,14.24-.64,24.59-1.69,24.59-1.69C245.43,101.27,240.92,93.29,240.92,93.29Zm-117,119.24c.18-.83.36-1.63.52-2.37a22.37,22.37,0,0,1,.75-2.11c.17-.41.37-.83.58-1.26v.41S125,209.21,123.91,212.53Zm18.91,110.92Zm0,0Zm35.8,1.24Zm0,0Z" transform="translate(-0.36 0.4)"/><rect class="cls-34" height="30"/><rect class="cls-34" x="758" y="302" height="39"/></g></g></svg>