<svg xmlns="http://www.w3.org/2000/svg" xmlns:xlink="http://www.w3.org/1999/xlink" viewBox="0 0 758 341"><defs><style>.cls-1{isolation:isolate;}.cls-2{fill:#90654c;}.cls-3{fill:#8a5330;}.cls-4{fill:#f9d9b5;}.cls-5{fill:#e29f54;}.cls-6{fill:#e5af6e;}.cls-7{fill:#cf6335;}.cls-8{fill:#9d4b31;}.cls-9{fill:#b7a238;}.cls-10{fill:#a18046;}.cls-11{fill:#e69e1d;}.cls-12{fill:#d5772a;}.cls-13{fill:#9b4934;}.cls-14{fill:#7f3526;}.cls-15{fill:#e39b1d;}.cls-16{fill:#d2772a;}.cls-17{fill:none;}.cls-18{fill:#913a30;}.cls-19{mix-blend-mode:overlay;fill:url(#linear-gradient);}.cls-20{opacity:0.4;mix-blend-mode:multiply;fill:url(#linear-gradient-2);}.cls-21{fill:#fff;}</style><linearGradient id="linear-gradient" x1="475.2" y1="172.6" x2="657.82" y2="172.6" gradientUnits="userSpaceOnUse"><stop offset="0" stop-color="#f2deb6" stop-opacity="0"/><stop offset="0.99" stop-color="#f4e9d7" stop-opacity="0.6"/><stop offset="1" stop-color="#c7e1b7" stop-opacity="0.8"/></linearGradient><linearGradient id="linear-gradient-2" x1="422.56" y1="206.27" x2="529.9" y2="177.47" gradientUnits="userSpaceOnUse"><stop offset="0" stop-color="#564339"/><stop offset="0.22" stop-color="#564339" stop-opacity="0.87"/><stop offset="0.61" stop-color="#564339" stop-opacity="0.52"/><stop offset="1" stop-color="#564339" stop-opacity="0.1"/></linearGradient></defs><title>character9_11</title><g class="cls-1"><g id="Layer_1" data-name="Layer 1"><path class="cls-2" d="M557.18,338h0a21.06,21.06,0,0,1-7.43,1.32,21.39,21.39,0,0,1-9.19-2.56,7.34,7.34,0,0,1-2.33-2,4.19,4.19,0,0,1-.71-1.16,6.91,6.91,0,0,1-.08-4.48l2.26-4.28,1.5-1.16.32-.1c.31-.11.26.24.58.16a11.49,11.49,0,0,1,1.95-.31l.37,0a16.45,16.45,0,0,1,1.72,0,27,27,0,0,1,8.11,1.76h0c.31.06,6.11,2.46,6.83,6.37C561.73,335,559.69,336.89,557.18,338Z" transform="translate(-0.36 0.4)"/><path class="cls-3" d="M557.17,338a21.06,21.06,0,0,1-7.43,1.32,21.39,21.39,0,0,1-9.19-2.56,7.34,7.34,0,0,1-2.33-2,4.19,4.19,0,0,1-.71-1.16,6.91,6.91,0,0,1-.08-4.48l2.26-4.28,1.5-1.16.32-.1c.31-.11.26.24.58.16a11.49,11.49,0,0,1,1.95-.31l4.11,5.78S551.83,337.37,557.17,338Z" transform="translate(-0.36 0.4)"/><path class="cls-4" d="M555.43,327.59a4,4,0,0,0-2.19-2h0a11,11,0,0,0-3.17-1.17c-.85-.19-1.61-.33-2.31-.44l-2.46-.72.13.49c-2.89-.12-3.83.6-3.83.6a10.69,10.69,0,0,0,5.16,4.52h0c.32.12.67.23,1,.33h0s4.15,1.33,6.5-.22A2.25,2.25,0,0,0,555.43,327.59Z" transform="translate(-0.36 0.4)"/><path class="cls-3" d="M551.58,324.64s2.21,3.21,1.24,6l1.25-.49s-.09-4.16-1.85-5.5Z" transform="translate(-0.36 0.4)"/><path class="cls-4" d="M556.48,293.67c-.1.46-.21.93-.31,1.37-.28,1.22-.55,2.34-.78,3.31-.58,2.34-1,3.82-1,3.82-2.12,4.42-3.58,18.11-4,22.32l-.11,1.24a4.9,4.9,0,0,1-4.87,1.1,9.61,9.61,0,0,1-3.87-2.51c0-.21-.1-.43-.14-.66-1.12-6.3,1.14-21.43,2-27.34,0-.09,0-.17,0-.25.16-1.08.25-1.71.25-1.71s0-.27.06-.41c.09-.58.16-1.24.23-1.93A77.66,77.66,0,0,0,556.48,293.67Z" transform="translate(-0.36 0.4)"/><path class="cls-5" d="M558.72,280.57c-.32,3.11-.88,6.47-1.5,9.59-.25,1.23-.5,2.39-.74,3.51A77.66,77.66,0,0,1,544,292c.4-4.12.47-9.47.47-9.47C546,280.23,559.72,271,558.72,280.57Z" transform="translate(-0.36 0.4)"/><path class="cls-4" d="M541.52,322.86l-.33,2.78s.88,2.28,6.56,3.54Z" transform="translate(-0.36 0.4)"/><path class="cls-6" d="M544.47,282.55s-.07,5.35-.47,9.47c-.07.69-.14,1.35-.23,1.93,0,.14,0,.28-.06.41s-.09.63-.25,1.71c0,.08,0,.16,0,.25,2.68.59,6.89,1.41,12,2,.23-1,.5-2.09.78-3.31.1-.44.21-.91.31-1.37.24-1.12.49-2.28.74-3.51.62-3.12,1.18-6.48,1.5-9.59C559.72,271,546,280.23,544.47,282.55Z" transform="translate(-0.36 0.4)"/><path class="cls-2" d="M593.45,335.1l0,0a8.06,8.06,0,0,0,2.29-3.42h0l.08-.25a5.15,5.15,0,0,0-.28-1.37c-.63-1.93-2.64-4.68-9.57-6.2a24.91,24.91,0,0,0-7.9.43,15.6,15.6,0,0,0-1.61.48l3.31,3.08S585.78,335.3,593.45,335.1Z" transform="translate(-0.36 0.4)"/><path class="cls-3" d="M573.83,325.66l-.53-1.17L572.1,326,571,332.09a4.28,4.28,0,0,0,.7,3.5c1.52,2.29,3.46,2.8,5.39,3.18a24.24,24.24,0,0,0,3.65.46h.21c6.77.36,10.46-2.23,12.52-4.14-7.67.2-13.63-7.29-13.63-7.29l-3.31-3.08a14.1,14.1,0,0,0-2.11.93C574.12,325.82,574.1,325.48,573.83,325.66Z" transform="translate(-0.36 0.4)"/><path class="cls-4" d="M588,326.05a4,4,0,0,0-2.58-1.48h0a11.1,11.1,0,0,0-3.35-.43c-.87,0-1.64,0-2.34.08l-2.57-.17.24.46c-2.84.52-3.6,1.43-3.6,1.43a10.7,10.7,0,0,0,6,3.27h0a9.07,9.07,0,0,0,1.07.09h0s4.34.38,6.29-1.65A2.21,2.21,0,0,0,588,326.05Z" transform="translate(-0.36 0.4)"/><path class="cls-3" d="M583.63,324s2.86,2.64,2.54,5.62l1.12-.76s-1-4-3-5Z" transform="translate(-0.36 0.4)"/><path class="cls-4" d="M582.62,325.37c-3.29,4.51-8.83.55-8.83.55-2.55-5.1-3.77-20-4.3-26.73,0-.45-.07-.86-.1-1.23-.08-1.09-.12-1.73-.12-1.73s0-.27,0-.41c0-.59-.12-1.24-.2-1.93a77.27,77.27,0,0,0,12.53-1.15c0,.47,0,.95,0,1.4,0,1.56,0,3-.06,4.12,0,2-.1,3.22-.1,3.22C580.12,307.16,582.62,325.37,582.62,325.37Z" transform="translate(-0.36 0.4)"/><path class="cls-4" d="M573.43,324.51l.29,2.79s1.36,2,7.18,2" transform="translate(-0.36 0.4)"/><path class="cls-6" d="M581.4,292.77h0l.16,0c0-.21,0-.44,0-.65l0-.07,0,0c0-.92,0-1.86,0-2.84-.09-3.18-.28-6.58-.65-9.69-1.16-9.61-12.5,2.48-13.46,5.08,0,0,1.1,5.23,1.63,9.35h0c.08.68.16,1.33.2,1.92,0,.14,0,.28,0,.41s0,.64.12,1.73c0,.37.06.78.1,1.23a81.94,81.94,0,0,0,12-.93c0-1.15,0-2.56.06-4.12,0-.45,0-.93,0-1.4Z" transform="translate(-0.36 0.4)"/><path class="cls-2" d="M593.74,283.13c-1.79,1.81-7.21,3.83-8.38,4.19-9.39,2.89-20.05,2.17-20.05,2.17-1.5-.12-3-.27-4.4-.45-1.13-.13-2.23-.29-3.33-.48a100.52,100.52,0,0,1-25.35-7.25C512.46,272.62,503,260.48,503,260.48A80.45,80.45,0,0,1,509,248.21h0l1.25-2.11c.43-.74.87-1.47,1.31-2.2l1.06-1.76c.92-1.51,1.83-3,2.71-4.46s1.86-3.09,2.69-4.57c.1-.16.18-.32.27-.48h0c1.29-2.29,2.59-4.55,3.89-6.75h0l.21-.35c.47-.78.94-1.57,1.42-2.35.18-.3.36-.61.55-.91l.17-.28c.16-.27.33-.54.5-.81.06-.11.13-.22.19-.34q1.62-2.61,3.21-5.09h0l0-.07c1-1.57,2-3.09,2.93-4.53.28-.45.58-.9.86-1.31l1-1.6c1-1.45,1.9-2.8,2.77-4.07l2.14-8.32,2.58-10,1.59-6.17c-.33-.4.19-9.74-.06-10.19,0,0,1.42,1.41,1.44,1.41-1.35-2.46-2.76-3.35-3.81-3.64a2.86,2.86,0,0,0-1.59,0l6.39-10.5,0-.08.06-.08,2.76-4.55,4.25-7,.44-.72,1.09-1.77s3.06-.81,7.28-1.85l3.27-.79c7.1-1.7,15.8-3.61,19.37-3.7,1.63-.05,7.47,5.21,8.7,5.59l-5.72.19-4,.13a25.76,25.76,0,0,1-7,7.57c3.91,4.15,8.93.44,13.46,3.91-.08.84-.19,2.45-.28,4.36a89.48,89.48,0,0,0,0,11.52c.16,4,3.87,6.22,4.88,10.18-.7-.82-4.1.26-4.19.09,1.33,4.38,3.49.76,4.31,8.49l.16,12.42C597,232.44,593.74,283.13,593.74,283.13Z" transform="translate(-0.36 0.4)"/><path class="cls-4" d="M628.32,189.22c1.5-1.93.34-3.24.34-3.24-2.91-1.55-6.55.06-8.53,1.22a13.87,13.87,0,0,1,5.83,6.15,5.76,5.76,0,0,0,1.33-2.08A3.37,3.37,0,0,0,628.32,189.22Z" transform="translate(-0.36 0.4)"/><path class="cls-6" d="M620.13,187.2l0,0h0l-2.87,2.29,4.19,5.67a7.11,7.11,0,0,0,2.68-.55,6,6,0,0,0,1.87-1.28A13.87,13.87,0,0,0,620.13,187.2Z" transform="translate(-0.36 0.4)"/><path class="cls-7" d="M611.27,138.64c5.54-13.52-.79-18.14-.79-18.14,1.78,10.89-10.82,19.46-10.82,19.46l-57.34-6.49c-5.28.47-8.46-3.33-10.21-6.65a21.52,21.52,0,0,1-1.83-4.71,16.56,16.56,0,0,0-1.62,4.44,14,14,0,0,0-.29,4.42,20.13,20.13,0,0,1-.92-4.53c-.81-8.71,3.29-17.64,3.29-17.64s75.32-14.33,75.72-10,7.34,14,7.34,14c.33.44.64.87.93,1.31C624.53,128.74,611.27,138.64,611.27,138.64Z" transform="translate(-0.36 0.4)"/><path class="cls-8" d="M614.73,114.18C596,123,536.27,127.11,532.11,126.82a21.52,21.52,0,0,1-1.83-4.71,16.56,16.56,0,0,0-1.62,4.44l-1.21-.11c-.81-8.71,3.29-17.64,3.29-17.64s75.32-14.33,75.72-10,7.34,14,7.34,14C614.13,113.31,614.44,113.74,614.73,114.18Z" transform="translate(-0.36 0.4)"/><path class="cls-2" d="M482.41,30.64C489.73-3.11,534.62,7.5,534.62,7.5c35.54,7.48,52.74,24.76,61.07,39.74,0,0-17.64,22.56-67.32,14.62h0c-2.31-8.63-4.56-16.48-4.56-16.48-5-16.87-12.5-23.14-18.3-25.33-1-.34-9.34-2.76-18.12,6.12A16.46,16.46,0,0,0,483.91,34c-.06,1.32-1.28.41-1.28.41A10.15,10.15,0,0,1,482.41,30.64Z" transform="translate(-0.36 0.4)"/><path class="cls-9" d="M530.67,70.72c-.71-2.86-1.51-5.9-2.3-8.86h0c3.5.56,6.83,1,10,1.24.71,1.89,1.36,3.79,2,5.66C537.19,69.24,533.9,69.93,530.67,70.72Z" transform="translate(-0.36 0.4)"/><path class="cls-9" d="M575.18,62.08c-.38-.69-.77-1.38-1.17-2.09,15.45-4.79,21.68-12.75,21.68-12.75a65.57,65.57,0,0,1,4.21,9.16c-1.62.12-2.69.18-2.69.18S587.06,59.27,575.18,62.08Z" transform="translate(-0.36 0.4)"/><path class="cls-9" d="M542.57,86.19a24.88,24.88,0,0,1-2.59-.46h0a34.07,34.07,0,0,1-6.69-2.26c0-1.73-1.12-6.83-2.6-12.75,3.23-.79,6.52-1.48,9.66-2C542.41,75.46,543.54,81.76,542.57,86.19Z" transform="translate(-0.36 0.4)"/><path class="cls-9" d="M594.2,78.9h0s-1.21.66-3.48,1.59a65.44,65.44,0,0,1-6.31,2.28,128.88,128.88,0,0,0-9.24-20.69c11.88-2.81,22-5.5,22-5.5s1.07-.06,2.69-.18a54.23,54.23,0,0,1,3.61,16.93A68.28,68.28,0,0,1,594.2,78.9Z" transform="translate(-0.36 0.4)"/><path class="cls-3" d="M524.66,34c-13.41-18,3.88-15,3.88-15,25.78,4.51,35.7,23.94,45.47,41-8.74,2.72-20.44,4.42-35.63,3.11A226.13,226.13,0,0,0,524.66,34Z" transform="translate(-0.36 0.4)"/><path class="cls-10" d="M540.33,68.76c-.59-1.87-1.24-3.77-2-5.66,15.19,1.31,26.89-.39,35.63-3.11.4.71.79,1.4,1.17,2.09a128.88,128.88,0,0,1,9.24,20.69c-1.62.5-3.21.93-4.75,1.27a103.49,103.49,0,0,1-33.91,2.36,22.4,22.4,0,0,1-3.19-.21C543.54,81.76,542.41,75.46,540.33,68.76Z" transform="translate(-0.36 0.4)"/><path class="cls-2" d="M657.82,61.5c0,6.7-4.11,19.14-29.52,32-16.88,9.07-37.55,13.21-38.88,13.47-.17,0-.34.09-.51.12-24.09,6-49.9,6.66-49.9,6.66-31,1.1-49.12-3.86-56.44-6.51-2.16-.79-3.38-1.37-3.71-1.53l-.06,0,0,0a6.34,6.34,0,0,1-3.13-3s-6.7-10.75,33-25.29a223.35,223.35,0,0,1,22-6.73c1.48,5.93,2.61,11,2.6,12.76,0,0,.71.35,1.91.8A35.49,35.49,0,0,0,540,85.73h0c.82.19,1.69.34,2.59.46a24,24,0,0,0,3.19.2A103.5,103.5,0,0,0,579.67,84c1.54-.35,3.13-.78,4.75-1.27a65.44,65.44,0,0,0,6.31-2.28c2.27-.93,3.48-1.59,3.48-1.59h0a66.31,66.31,0,0,0,9.31-5.57A54.15,54.15,0,0,0,599.9,56.4c3.88-.28,10.93-.84,14.17-1.48,0,0,33.62-5.24,42.81,1.48l-.49.39a.64.64,0,0,1,.1.13l.39-.52A12.36,12.36,0,0,1,657.82,61.5Z" transform="translate(-0.36 0.4)"/><path class="cls-3" d="M588.91,107.12c-24.09,6-49.9,6.66-49.9,6.66-31,1.1-49.12-3.86-56.44-6.51l50.7-23.8s.71.35,1.91.8A35.49,35.49,0,0,0,540,85.73h0c.82.19,1.69.34,2.59.46a24,24,0,0,0,3.19.2A103.5,103.5,0,0,0,579.67,84c1.54-.35,3.13-.78,4.75-1.27Z" transform="translate(-0.36 0.4)"/><path class="cls-8" d="M533.65,125.82s1.86,6.52,5.69,7.44c0,0-5.39-.75-7.73-7.44" transform="translate(-0.36 0.4)"/><path class="cls-8" d="M610.48,120.5s-2.88-3.12-3.46-5.3c0,0,3.31,8.71.75,16.36C607.77,131.56,612.4,126.55,610.48,120.5Z" transform="translate(-0.36 0.4)"/><path class="cls-8" d="M602,117.82s1.24,15.38-7.56,20.92-.58-5.26-.58-5.26S601.78,131.05,602,117.82Z" transform="translate(-0.36 0.4)"/><path class="cls-8" d="M538.2,125.33s-1.2,5.54,7.19,7-7.54.37-5.39-8.16" transform="translate(-0.36 0.4)"/><path class="cls-2" d="M589.58,155.78s7.56,4.09,9.93,6.6l15,22.79s13.56,2.1,12.08,21.75c0,0-8.06,12.77-20.68,10.28,0,0-8.86,1.73-18.22-19.08a79.94,79.94,0,0,1-4.46-35.42Z" transform="translate(-0.36 0.4)"/><path class="cls-3" d="M614.49,185.17s7.25,13,3.18,17.4Z" transform="translate(-0.36 0.4)"/><path class="cls-3" d="M583.52,159.72s-6.19,14-1,26.21c0,0-6.53-8.28-2.06-23.51S583.52,159.72,583.52,159.72Z" transform="translate(-0.36 0.4)"/><path class="cls-3" d="M582.5,185.93s5.64,16.81,12,24c0,0,.21,2.4.38,7.56C594.85,217.52,588.3,208.37,582.5,185.93Z" transform="translate(-0.36 0.4)"/><path class="cls-3" d="M581.3,164.65s6.36-9.26,12.69-6.3l-5.28-3.44-4.2,1.25-2,.1" transform="translate(-0.36 0.4)"/><path class="cls-3" d="M581.6,184s-6-4.49-7.77-9.59c0,0-1.6,3.79,0,5.39C573.83,179.79,578.71,184,581.6,184Z" transform="translate(-0.36 0.4)"/><path class="cls-3" d="M588.83,153.5c-.08.84-.19,2.45-.28,4.36l-8.11,4.56s-9.32.2-12.94-1.08c0,0-18.21,23.09-18.15,44.49,0,0-18,24.5-37.74,38.06,1.26-2.1,2.55-4.19,3.77-6.22,1-1.56,1.86-3.09,2.69-4.57.1-.16.18-.32.27-.48h0c1.29-2.29,2.59-4.55,3.89-6.75h0c.54-.9,1.08-1.8,1.63-2.7.18-.3.36-.61.55-.91l.17-.28c.16-.27.33-.54.5-.81.06-.11.13-.22.19-.34q1.62-2.61,3.21-5.09h0l0-.07c1-1.57,2-3.09,2.93-4.53.28-.45.58-.9.86-1.31l1-1.6c1-1.45,1.9-2.8,2.77-4.07l2.14-8.32,2.58-10,1.59-6.17c-.33-.4.19-9.74-.06-10.19,0,0,1.42,1.41,1.44,1.41-2.48-4.54-5.19-3.74-5.4-3.68l6.39-10.5,0-.08.06-.08,2.76-4.55,4.25-7,.44-.72,5.81-2.29,2.56-1.33,1.79-.93,1.48.14,22.35,2.08-4,.13a25.76,25.76,0,0,1-7,7.57C579.28,153.74,584.3,150,588.83,153.5Z" transform="translate(-0.36 0.4)"/><path class="cls-3" d="M550.52,248.71c-6.2-.76-20.75-.55-20.75-.55-10.48,3-11.24-2.88-11.24-2.88h0c-1.13-1.18-4.21-2.5-5.53-3l-.32-.13c.92-1.51,1.83-3,2.71-4.46s1.86-3.09,2.69-4.57c.1-.16.18-.32.27-.48h0c1.29-2.29,2.59-4.55,3.89-6.75h0l.21-.35a12,12,0,0,0,4.25,1.94,16.94,16.94,0,0,0-.07,3.73,3.13,3.13,0,0,0,.52,2,8.43,8.43,0,0,0,2.33,2.27,24.92,24.92,0,0,0,3.95,2.18C541.4,241.25,550.52,248.71,550.52,248.71Z" transform="translate(-0.36 0.4)"/><path class="cls-11" d="M545.11,148.36l.17.21.11-.08Z" transform="translate(-0.36 0.4)"/><path class="cls-12" d="M574.62,154c-5-.34-17.57-1.12-21-2a77.94,77.94,0,0,1-8.28-3.5l-.11.08c.89,1.05,7.4,7.29,20.62,9.91.53-.38,3.27-1.5,3.7-1.77A47.31,47.31,0,0,1,574.62,154Z" transform="translate(-0.36 0.4)"/><path class="cls-12" d="M543.83,153.36a8.61,8.61,0,0,1-.78,2.33c3,1.91,10.9,4.8,18.45,6.42,2-1.7,2.76-2.43,4.4-3.63-13.22-2.62-19.73-8.86-20.62-9.91a15.43,15.43,0,0,0-5,5,17.86,17.86,0,0,0,1.56,1.29C543.13,152.83,543.83,153.36,543.83,153.36Z" transform="translate(-0.36 0.4)"/><path class="cls-11" d="M506.55,211.69a28.54,28.54,0,0,0-.17,4.4c.1,1.45.7,7.93,3.09,9.29a1.85,1.85,0,0,1-.29,2.83s-2.11,3.7-2.79-11.62a24.05,24.05,0,0,1-.76,3.94s-2.46,5.55-1.23,9.29c3.3,1.22,10.44,2.39,22.42-2.54a8.61,8.61,0,0,0-.39-3.11h0a3.09,3.09,0,0,1-.52-2,19.28,19.28,0,0,1,.55-6.45l-.09,0S513.09,216.13,506.55,211.69Z" transform="translate(-0.36 0.4)"/><path class="cls-11" d="M523.45,180.13a51.65,51.65,0,0,0-4.57,4.35c2.73,2.11,10.82,5.66,20.35,7.6a73.36,73.36,0,0,1,5-11c-3.87-.68-12.37-2.6-16.31-5.18A29,29,0,0,1,523.45,180.13Z" transform="translate(-0.36 0.4)"/><path class="cls-11" d="M538.2,161.1a6.43,6.43,0,0,0,.31,1.64l.36-1.11C538.64,161.46,538.42,161.28,538.2,161.1Z" transform="translate(-0.36 0.4)"/><path class="cls-11" d="M556.35,166.65c-4-.74-13.43-2.17-17.16-4.79l-.68.88s-2.63,3.57-5.83,7.53c2.74,1.56,9.48,3.81,15.1,5.15a27.23,27.23,0,0,1,4-4.32S554.9,168,556.35,166.65Z" transform="translate(-0.36 0.4)"/><path class="cls-12" d="M526.82,227.28c.59-.24,1.19-.5,1.81-.77l.13-.06a8.45,8.45,0,0,1-2.33-2.28h0A8.61,8.61,0,0,1,526.82,227.28Z" transform="translate(-0.36 0.4)"/><path class="cls-12" d="M526.21,233.83a60.31,60.31,0,0,1-8.41,2.46h0s.76,5.9,11.24,2.88c0,0,14.55-.21,20.75.55,0,0-9.12-7.46-17.09-11.1C529.8,231.17,526.21,233.83,526.21,233.83Z" transform="translate(-0.36 0.4)"/><path class="cls-12" d="M543.83,153.36s-.7-.53-2,1.48c.37.27.79.56,1.24.85A8.61,8.61,0,0,0,543.83,153.36Z" transform="translate(-0.36 0.4)"/><path class="cls-12" d="M538.87,161.63l-.36,1.11.68-.88Z" transform="translate(-0.36 0.4)"/><path class="cls-12" d="M506.38,216.09c0-.19,0-.3,0-.3,0,.28,0,.53,0,.8v-.09C506.39,216.37,506.38,216.23,506.38,216.09Z" transform="translate(-0.36 0.4)"/><path class="cls-12" d="M509.18,228.21a1.85,1.85,0,0,0,.29-2.83c-2.39-1.36-3-7.84-3.09-9.29,0,.14,0,.28,0,.41v.09C507.07,231.91,509.18,228.21,509.18,228.21Z" transform="translate(-0.36 0.4)"/><path class="cls-12" d="M530.64,201c-1.76,2.24-2.79,5.82-3.38,8.87l1.15.09C533.37,195.18,530.64,201,530.64,201Z" transform="translate(-0.36 0.4)"/><path class="cls-12" d="M532.57,197l-.38-.05a14.36,14.36,0,0,0-.78,2.91A11.77,11.77,0,0,1,532.57,197Z" transform="translate(-0.36 0.4)"/><path class="cls-13" d="M541.81,154.84a17.86,17.86,0,0,1-1.56-1.29,12.09,12.09,0,0,0-1,2.08,13.56,13.56,0,0,0-1,5.47c.22.18.44.36.67.53A30.13,30.13,0,0,1,541.81,154.84Z" transform="translate(-0.36 0.4)"/><path class="cls-13" d="M539.19,161.86c3.73,2.62,13.18,4,17.16,4.79,1.56-1.4,3-2.69,5.15-4.54-7.55-1.62-15.5-4.51-18.45-6.42A39.78,39.78,0,0,1,539.19,161.86Z" transform="translate(-0.36 0.4)"/><path class="cls-14" d="M541.81,154.84a30.13,30.13,0,0,0-2.94,6.79l.32.23a39.78,39.78,0,0,0,3.86-6.17C542.6,155.4,542.18,155.11,541.81,154.84Z" transform="translate(-0.36 0.4)"/><path class="cls-13" d="M527.9,175.9c3.94,2.58,12.44,4.5,16.31,5.18a57.16,57.16,0,0,1,3.57-5.66c-5.62-1.34-12.36-3.59-15.1-5.15C531.14,172.18,529.47,174.17,527.9,175.9Z" transform="translate(-0.36 0.4)"/><path class="cls-13" d="M514.41,189.83c3.93,4.54,13.28,6.45,17.78,7.12.36-.88.85-1.65,1.52-1.82a21.43,21.43,0,0,0-1.14,1.87c1.16.17,3.66.72,3.81.74.38-1.39,2-3.31,2.85-5.66-9.53-1.94-17.62-5.49-20.35-7.6A59.4,59.4,0,0,0,514.41,189.83Z" transform="translate(-0.36 0.4)"/><path class="cls-14" d="M533.71,195.13c-.67.17-1.16.94-1.52,1.82l.38.05A21.43,21.43,0,0,1,533.71,195.13Z" transform="translate(-0.36 0.4)"/><path class="cls-14" d="M527.68,212.11c.3-.7.65-1.42,1.05-2.15l-.32,0C528.19,210.62,527.94,211.34,527.68,212.11Z" transform="translate(-0.36 0.4)"/><path class="cls-13" d="M526.5,215.54a47.8,47.8,0,0,1,.76-5.69c-11.41-1-17.17-4.14-19.51-5.86l-.09.42s-.74,3.68-1.11,7.28c6.54,4.44,19.82,4.07,19.82,4.07l.09,0c0-.07,0-.14,0-.21Z" transform="translate(-0.36 0.4)"/><path class="cls-14" d="M527.68,212.11a22.39,22.39,0,0,0-1.17,3.42C526.93,214.29,527.32,213.16,527.68,212.11Z" transform="translate(-0.36 0.4)"/><path class="cls-14" d="M526.5,215.54h0a22.39,22.39,0,0,1,1.17-3.42c.26-.77.51-1.49.73-2.17l-1.15-.09A47.8,47.8,0,0,0,526.5,215.54Z" transform="translate(-0.36 0.4)"/><path class="cls-13" d="M511.64,233l.63.24c11.93,1.52,14.33-2.79,14.55-6-12,4.93-19.12,3.76-22.42,2.54.06.18.12.36.2.54A14,14,0,0,0,511.64,233Z" transform="translate(-0.36 0.4)"/><path class="cls-14" d="M526.82,227.28c-.22,3.2-2.62,7.51-14.55,6,1.32.53,4.41,1.85,5.53,3a60.31,60.31,0,0,0,8.41-2.46s3.59-2.66,6.5-5.2a24.92,24.92,0,0,1-4-2.18l-.13.06C528,226.78,527.41,227,526.82,227.28Z" transform="translate(-0.36 0.4)"/><path class="cls-11" d="M536.38,197.74c-.15,0-2.65-.57-3.81-.74a11.77,11.77,0,0,0-1.16,2.86,14.36,14.36,0,0,1,.78-2.91c-4.5-.67-13.85-2.58-17.78-7.12A35.93,35.93,0,0,0,507.75,204c2.34,1.72,8.1,4.89,19.51,5.86.59-3,1.62-6.63,3.38-8.87,0,0,2.73-5.8-2.23,9l.32,0a25.57,25.57,0,0,1,1.61-2.5h0Z" transform="translate(-0.36 0.4)"/><path class="cls-15" d="M597,149.52l-.21.19-.1-.09Z" transform="translate(-0.36 0.4)"/><path class="cls-16" d="M571.54,151.29c5.18.48,12.64,1,16.21.62a78.36,78.36,0,0,0,9-2.29l.1.09c-1.07,1-6.55,5.13-20.4,5.69-.47-.49-.91-.92-1.3-1.28A29.2,29.2,0,0,0,571.54,151.29Z" transform="translate(-0.36 0.4)"/><path class="cls-17" d="M542,139.3l0-.26h0A2.28,2.28,0,0,1,542,139.3Z" transform="translate(-0.36 0.4)"/><path class="cls-17" d="M541.54,146.18c.06.27.12.5.18.71C541.66,146.68,541.6,146.44,541.54,146.18Z" transform="translate(-0.36 0.4)"/><path class="cls-17" d="M541.16,143.5a6.35,6.35,0,0,0,.12.7A6.35,6.35,0,0,1,541.16,143.5Z" transform="translate(-0.36 0.4)"/><path class="cls-17" d="M542.19,137.72c0-.2,0-.39.1-.59C542.24,137.33,542.22,137.52,542.19,137.72Z" transform="translate(-0.36 0.4)"/><path class="cls-17" d="M542.56,134.78c.05-.19.08-.36.13-.55C542.64,134.42,542.61,134.59,542.56,134.78Z" transform="translate(-0.36 0.4)"/><path class="cls-17" d="M541.05,141.22c0,.22,0,.42,0,.63C541.05,141.64,541,141.44,541.05,141.22Z" transform="translate(-0.36 0.4)"/><path class="cls-17" d="M541.06,142.45c0,.24,0,.45.06.67C541.1,142.9,541.07,142.69,541.06,142.45Z" transform="translate(-0.36 0.4)"/><path class="cls-13" d="M600.45,144.22c0-.6,0-1,0-1a6.25,6.25,0,0,0,.23-1.85c-.15-3.51-4.33-3-4.33-3a36.75,36.75,0,0,1-.5,11.59,62.56,62.56,0,0,1,4.6-6.76,11.08,11.08,0,0,1-4.79,7.67c-.14.59,0,2.65-.18,3.26,2.3-2.08,3.75-3.59,3.75-3.59C600.36,149.41,600.37,145.58,600.45,144.22Z" transform="translate(-0.36 0.4)"/><polygon class="cls-12" points="538.88 138.69 538.88 138.69 538.88 138.69 538.88 138.69"/><path class="cls-12" d="M542,139h0c0-.12,0-.22,0-.34Z" transform="translate(-0.36 0.4)"/><path class="cls-14" d="M600.47,143.2a62.56,62.56,0,0,0-4.6,6.76c-.06.3-.13.6-.19.91A11.08,11.08,0,0,0,600.47,143.2Z" transform="translate(-0.36 0.4)"/><path class="cls-11" d="M561.66,150a16.55,16.55,0,0,0-10.79,3.86c2.91,2,9.58,1.89,14.75,4C563.3,154.51,561.74,152.55,561.66,150Z" transform="translate(-0.36 0.4)"/><path class="cls-12" d="M561.68,147.89l-1.73.42a29.09,29.09,0,0,0-9.08,5.51A16.55,16.55,0,0,1,561.66,150C561.62,148.71,561.68,147.89,561.68,147.89Z" transform="translate(-0.36 0.4)"/><path class="cls-11" d="M567.83,146c.06.23.11.47.19.69l-.16,0,.32,0c0-.28,0-.56,0-.81Z" transform="translate(-0.36 0.4)"/><path class="cls-14" d="M567.86,146.73c-.64.09-3.16.46-6.18,1.16,0,0-.06.82,0,2.07a31.91,31.91,0,0,1,7.1.64,15.87,15.87,0,0,1-.58-3.89Z" transform="translate(-0.36 0.4)"/><path class="cls-12" d="M581.12,150.79l-2.19-1.42a22.56,22.56,0,0,0-10.75-2.66,15.87,15.87,0,0,0,.58,3.89,42.69,42.69,0,0,1,8.3,2.54c3.13,1.5,4.81,1.63,5.73,1.28A19.71,19.71,0,0,0,581.12,150.79Z" transform="translate(-0.36 0.4)"/><path class="cls-13" d="M581.12,150.79c.41.21.79.42,1.16.63a29,29,0,0,0-3.35-2l2.19,1.42Z" transform="translate(-0.36 0.4)"/><path class="cls-13" d="M587.94,136.53a55.47,55.47,0,0,1-7-.34c-.25,5.29-.84,10.95-2.25,13.05l.21.13a29,29,0,0,1,3.35,2c1.86,1,3.36,2,4.47,2.66.25-1.72,1-7.35,1.47-13.17a5.3,5.3,0,0,1-1.06-.73S586.42,137.6,587.94,136.53Z" transform="translate(-0.36 0.4)"/><path class="cls-14" d="M587.94,136.53c-1.52,1.07-.78,3.65-.78,3.65a5.3,5.3,0,0,0,1.06.73c.11-1.48.19-3,.23-4.39Z" transform="translate(-0.36 0.4)"/><path class="cls-14" d="M582.79,154.42a1.71,1.71,0,0,0,1.07-1.82c-.89-.6-1.87-1.25-2.74-1.81A19.71,19.71,0,0,1,582.79,154.42Z" transform="translate(-0.36 0.4)"/><path class="cls-13" d="M586.75,154.08c0,.35-.08.54-.08.54a26.35,26.35,0,0,0-2.81-2,1.71,1.71,0,0,1-1.07,1.82,9,9,0,0,1,.73,5.3c1.88-1.09,3.89-.71,5.62-2l-.14-2.08S588.22,155,586.75,154.08Z" transform="translate(-0.36 0.4)"/><path class="cls-13" d="M582.28,151.42c-.37-.21-.75-.42-1.16-.63h0c.87.56,1.85,1.21,2.74,1.81h0C583.33,152.17,582.81,151.79,582.28,151.42Z" transform="translate(-0.36 0.4)"/><path class="cls-12" d="M550.68,130.92l2-.16-2.25.16Z" transform="translate(-0.36 0.4)"/><path class="cls-11" d="M546.27,151.42h0c1.38,1.27,3.46,1.56,4.6,2.4,0,0-2-3-4.37-6.41C546.57,148.43,546,150.4,546.27,151.42Z" transform="translate(-0.36 0.4)"/><path class="cls-11" d="M559.9,148.33a57.11,57.11,0,0,1,2.3-17.28c-1.7-.3-3.45-.53-5.13-.7-1.61.17-3.11.3-4.38.41h0l-2,.16h0a34,34,0,0,0-4.14,13,3,3,0,0,1,.49.93s4.3,7,3.84,8.94a29.09,29.09,0,0,1,9.08-5.51Z" transform="translate(-0.36 0.4)"/><path class="cls-12" d="M547,144.88a3,3,0,0,0-.49-.93,24.88,24.88,0,0,0,0,3.46c2.37,3.38,4.37,6.41,4.37,6.41C551.33,151.91,547,144.88,547,144.88Z" transform="translate(-0.36 0.4)"/><path class="cls-11" d="M541.72,146.89c-.06-.21-.12-.44-.18-.71,0-.06-.25-1.92-.26-2a6.35,6.35,0,0,1-.12-.7c0-.12,0-.26,0-.38s0-.43-.06-.67,0-.4,0-.6,0-.41,0-.63.91-1.65.93-1.92a2.28,2.28,0,0,0,0-.26c-.82-1-2.36-.55-2.76-.76-.13,1.67,2.47,8.71,2.47,8.71v-.1Z" transform="translate(-0.36 0.4)"/><path class="cls-12" d="M542,138.7c0-.11,0-.22.05-.32a3.7,3.7,0,0,0-2.84-.1h0c.4.21,1.94-.22,2.76.76Z" transform="translate(-0.36 0.4)"/><polygon class="cls-13" points="552.33 131.16 552.33 131.16 552.31 131.16 552.33 131.16"/><path class="cls-13" d="M550.43,130.92l-1.65.13,1.9-.13Z" transform="translate(-0.36 0.4)"/><path class="cls-13" d="M548.79,131v.07l0-.07Z" transform="translate(-0.36 0.4)"/><path class="cls-13" d="M548.82,131l0,.07.16-.07Z" transform="translate(-0.36 0.4)"/><path class="cls-13" d="M548.94,131l-.16.07,1.65-.13Z" transform="translate(-0.36 0.4)"/><path class="cls-13" d="M583.86,152.6h0a26.35,26.35,0,0,1,2.81,2s0-.19.08-.54c-1.11-.71-2.61-1.63-4.47-2.66C582.81,151.79,583.33,152.17,583.86,152.6Z" transform="translate(-0.36 0.4)"/><path class="cls-13" d="M561.66,150c.08,2.59,1.64,4.55,4,7.81h0c1.67.66,3.3,1.29,4.77,1.85,1.91.72,3.39-.3,4.54.11-1.23-2.48-4.94-4.31-6.17-9.13A31.91,31.91,0,0,0,561.66,150Z" transform="translate(-0.36 0.4)"/><polygon class="cls-13" points="565.26 158.17 565.26 158.17 565.26 158.17 565.26 158.17"/><path class="cls-13" d="M564.33,147.08a25.72,25.72,0,0,0-4.38,1.23l1.73-.42h0Z" transform="translate(-0.36 0.4)"/><path class="cls-18" d="M567.83,146l-3.5,1.06a23.59,23.59,0,0,1,3.53-.35l.16,0C567.94,146.49,567.89,146.25,567.83,146Z" transform="translate(-0.36 0.4)"/><path class="cls-18" d="M564.33,147.08l-2.65.81h0c3-.7,5.54-1.07,6.18-1.16A23.59,23.59,0,0,0,564.33,147.08Z" transform="translate(-0.36 0.4)"/><path class="cls-13" d="M567.83,146c-.9-3.5.22-9,1.35-13a30.53,30.53,0,0,0-7-1.95,57.11,57.11,0,0,0-2.3,17.28l.05,0a25.72,25.72,0,0,1,4.38-1.23Z" transform="translate(-0.36 0.4)"/><path class="cls-11" d="M595.42,151a5.6,5.6,0,0,1,.45-1.06,36.75,36.75,0,0,0,.5-11.59s-4.2,4.64-8.15,2.54c-.42,5.82-1.22,11.45-1.47,13.17,1.47.95,2.25,1.55,2.25,1.55l.14,2.08c1-.73,2.25-1.21,3.12-1.93,1.22-1,2.28-.77,3.24-1.65.17-.61,0-2.67.18-3.26Z" transform="translate(-0.36 0.4)"/><path class="cls-12" d="M588.45,136.52c0,1.43-.12,2.91-.23,4.39,3.95,2.1,8.15-2.54,8.15-2.54a21.45,21.45,0,0,0-5.3-2.12A19.76,19.76,0,0,1,588.45,136.52Z" transform="translate(-0.36 0.4)"/><path class="cls-12" d="M595.68,150.87c.06-.31.13-.61.19-.91a5.6,5.6,0,0,0-.45,1.06Z" transform="translate(-0.36 0.4)"/><path class="cls-13" d="M546.5,147.41c-1.82-2.61-3-6.55-4.49-8.37l0,.26c0,.27-.92,1.67-.93,1.92s0,.42,0,.63,0,.41,0,.6,0,.45.06.67,0,.26,0,.38a6.35,6.35,0,0,0,.12.7c0,.06.25,1.92.26,2,.06.26.05.29.11.5l0,.15,0,.16.31.31c.77.78,2,2.08,4.25,4.12h0C546,150.4,546.57,148.43,546.5,147.41Z" transform="translate(-0.36 0.4)"/><path class="cls-14" d="M542,138.7c0,.12,0,.22,0,.34,1.51,1.82,2.67,5.76,4.49,8.37a24.88,24.88,0,0,1,0-3.46c-1.08-1.51-2.68-4.41-4.46-5.57C542.07,138.48,542,138.6,542,138.7Z" transform="translate(-0.36 0.4)"/><path class="cls-13" d="M541.12,143.12c0,.12,0,.26,0,.38C541.14,143.38,541.13,143.24,541.12,143.12Z" transform="translate(-0.36 0.4)"/><path class="cls-13" d="M542.19,137.72c0,.22-.08.45-.11.66h0C542.11,138.17,542.15,137.94,542.19,137.72Z" transform="translate(-0.36 0.4)"/><path class="cls-13" d="M541.05,141.85c0,.2,0,.41,0,.6C541.05,142.26,541.05,142.05,541.05,141.85Z" transform="translate(-0.36 0.4)"/><path class="cls-13" d="M541.71,147" transform="translate(-0.36 0.4)"/><path class="cls-13" d="M541.28,144.2c0,.06.25,1.92.26,2S541.29,144.26,541.28,144.2Z" transform="translate(-0.36 0.4)"/><path class="cls-13" d="M542.29,137.13c.07-.38.16-1.95.27-2.35C542.45,135.18,542.36,136.75,542.29,137.13Z" transform="translate(-0.36 0.4)"/><path class="cls-13" d="M542,139.3c0,.27-.92,1.67-.93,1.92C541.06,141,542,139.57,542,139.3Z" transform="translate(-0.36 0.4)"/><path class="cls-13" d="M542.08,138.38c0,.1,0,.21-.05.32,0-.1,0-.22.05-.32Z" transform="translate(-0.36 0.4)"/><path class="cls-11" d="M581,136.19l-1.76-.2a51.13,51.13,0,0,1-8.48-2.18h0a11.89,11.89,0,0,0-1.55-.82c-1.13,4-2.25,9.52-1.35,13l.39-.12c0,.25,0,.53,0,.81a22.56,22.56,0,0,1,10.75,2.66l-.21-.13C580.13,147.14,580.72,141.48,581,136.19Z" transform="translate(-0.36 0.4)"/><path class="cls-11" d="M583.52,159.72a9,9,0,0,0-.73-5.3c-.92.35-2.6.22-5.73-1.28a42.69,42.69,0,0,0-8.3-2.54c1.23,4.82,4.94,6.65,6.17,9.13a1.12,1.12,0,0,0,.54.06C577,160,581.14,160.3,583.52,159.72Z" transform="translate(-0.36 0.4)"/><path class="cls-13" d="M541.53,146.13a7.45,7.45,0,0,0,.18.86l.14-.12Z" transform="translate(-0.36 0.4)"/><path class="cls-13" d="M550.67,130.92a.48.48,0,0,1-.12,0h-.13a13.6,13.6,0,0,0-5.9.67,1.66,1.66,0,0,1-.27.11v0a4.09,4.09,0,0,0-.9.61c-.25.63-.44,1.23-.62,1.81a.69.69,0,0,0,0,.08c-.05.18-.09.36-.14.55-.11.41-.19,2-.26,2.34,0,.22-.06.4-.09.6s-.08.44-.12.66c1.78,1.15,3.38,4.05,4.46,5.56A34.1,34.1,0,0,1,550.67,130.92Z" transform="translate(-0.36 0.4)"/><path class="cls-11" d="M541.6,134.37a32.12,32.12,0,0,0-2.37,3.91,3.68,3.68,0,0,1,2.85.1c0-.22.07-.44.12-.66s0-.38.09-.6c.07-.38.15-1.93.26-2.34.05-.19.09-.37.14-.55a.69.69,0,0,1,0-.08c.18-.58.37-1.18.62-1.81A13.17,13.17,0,0,0,541.6,134.37Z" transform="translate(-0.36 0.4)"/><path class="cls-19" d="M657.82,61.5a12.36,12.36,0,0,0-.94-5.1l-.39.52a.64.64,0,0,0-.1-.13l.49-.39c-9.19-6.72-42.81-1.48-42.81-1.48-3.2.63-10.11,1.19-14,1.47l-1.91-4.27c0-.09-.08-.17-.11-.26l0,0h0c-.68-1.49-1.45-3-2.31-4.57h0c-8.33-15-25.53-32.26-61.07-39.74,0,0-44.89-10.61-52.21,23.14a10.15,10.15,0,0,0,.22,3.78s1.22.91,1.28-.41a16.46,16.46,0,0,1,3.48-7.84c8.78-8.88,17.1-6.46,18.12-6.12,5.8,2.19,13.25,8.46,18.3,25.33,0,0,2.25,7.85,4.56,16.48.79,3,3.08,12,2.3,8.85a223.35,223.35,0,0,0-22,6.73c-39.72,14.54-33,25.29-33,25.29a6.34,6.34,0,0,0,3.13,3l0,0,.06,0c.33.16,1.55.74,3.71,1.53,6.48,2.35,21.46,6.51,46.34,6.66a35,35,0,0,0-1.46,12.51,20.13,20.13,0,0,0,.92,4.53,14,14,0,0,1,.29-4.42,16.56,16.56,0,0,1,1.62-4.44,20.94,20.94,0,0,0,1.33,3.71h0c2.34,6.69,7.73,7.44,7.73,7.44l-.06,0a8.94,8.94,0,0,0,3,.23q-.36.43-.69.9a32.12,32.12,0,0,0-2.37,3.91h0c-.13,1.67,2.47,8.71,2.47,8.71l.31.31c.47.48,1.13,1.16,2.09,2.09a14.77,14.77,0,0,0-3.86,4.16,12.09,12.09,0,0,0-1,2.08,13.56,13.56,0,0,0-1,5.47,6.43,6.43,0,0,0,.31,1.64s-2.63,3.57-5.83,7.53c-1.54,1.91-3.21,3.9-4.78,5.63a29,29,0,0,1-4.45,4.23,51.65,51.65,0,0,0-4.57,4.35,59.4,59.4,0,0,0-4.47,5.35A35.93,35.93,0,0,0,507.75,204l-.09.42s-.74,3.68-1.11,7.28a28.54,28.54,0,0,0-.17,4.4c0-.19,0-.3,0-.3,0,.28,0,.53,0,.8a24.05,24.05,0,0,1-.76,3.94s-2.46,5.55-1.23,9.29c.06.18.12.36.2.54a14,14,0,0,0,7,2.67l.63.24a29.8,29.8,0,0,1,4.45,2.18c-.44.73-.88,1.47-1.34,2.22-.88,1.46-1.79,3-2.71,4.46l-1.06,1.76c-.44.73-.88,1.46-1.31,2.2l-1.25,2.11h0A80.45,80.45,0,0,0,503,260.48s9.49,12.14,29.26,20.83a96,96,0,0,0,12.16,4.37c-.07,1.87-.19,4.26-.39,6.34-.07.69-.14,1.35-.23,1.93,0,.14,0,.28-.06.41s-.09.63-.25,1.71c0,.08,0,.16,0,.25-.86,5.89-3.1,20.92-2,27.26l-.22.07-1.5,1.16-2.26,4.28a6.91,6.91,0,0,0,.08,4.48,4.19,4.19,0,0,0,.71,1.16,7.34,7.34,0,0,0,2.33,2,21.39,21.39,0,0,0,9.19,2.56,21.06,21.06,0,0,0,7.43-1.32h0c2.51-1.06,4.55-3,3.91-6.47-.72-3.91-6.52-6.31-6.83-6.37h0a27,27,0,0,0-3.78-1.15c.47-4.71,1.9-17.52,3.94-21.78,0,0,.41-1.48,1-3.82.23-1,.5-2.09.78-3.31.1-.44.21-.91.31-1.37.24-1.12.49-2.28.74-3.51l.3-1.61h.06c1.1.19,2.2.35,3.33.48,1.44.18,2.9.33,4.4.45,0,0,1.16.08,3.05.08.24,1.41.49,2.93.67,4.33h0c0,.13,0,.25,0,.37s0,.43.07.63.07.63.09.92c0,.14,0,.28,0,.41s0,.64.12,1.73c0,.37.06.78.1,1.23.49,6.24,1.57,19.39,3.74,25.39L572.1,326,571,332.09a4.28,4.28,0,0,0,.7,3.5c1.52,2.29,3.46,2.8,5.39,3.18a24.24,24.24,0,0,0,3.65.46h.21c6.77.36,10.46-2.23,12.52-4.14l0,0a8.06,8.06,0,0,0,2.29-3.42h0l.08-.25a5.15,5.15,0,0,0-.28-1.37c-.63-1.93-2.64-4.68-9.57-6.2a24.11,24.11,0,0,0-3.62-.12c-.58-4.63-2-17.59-1-22.22,0,0,.06-1.23.1-3.22,0-1.15,0-2.56.06-4.12,0-.45,0-.93,0-1.4l-.16,0,.16,0c0-.21,0-.44,0-.65l0-.07,0,0c0-.92,0-1.86,0-2.84l0-.85c1.29-.27,2.6-.59,3.88-1s6.59-2.38,8.38-4.19c0,0,2.29-35.38,1.1-65.61h0c-.17-5.16-.38-7.56-.38-7.56h0v-.08c6.44,8.31,11.43,7.33,11.43,7.33,12.62,2.49,20.68-10.28,20.68-10.28a26.9,26.9,0,0,0-1.67-12.73,6.65,6.65,0,0,0,1.06-.84,5.76,5.76,0,0,0,1.33-2.08,3.37,3.37,0,0,0,1-2.05c1.5-1.93.34-3.24.34-3.24-2.91-1.55-6.55.06-8.53,1.22l0,0h0l-.4.31a13.38,13.38,0,0,0-5.2-2.36l-15-22.79a31.15,31.15,0,0,0-5.52-4h0l-2.83-1.85a7.2,7.2,0,0,0,1.1-.72c1.22-1,2.28-.77,3.24-1.65,2.3-2.08,3.75-3.59,3.75-3.59,1.11-1.13,1.12-5,1.2-6.32,0-.6,0-1,0-1a6.25,6.25,0,0,0,.23-1.85,3.09,3.09,0,0,0-.57-1.73,32.37,32.37,0,0,0,7.64-8.07h0s4.63-5,2.71-11.06c0,0,6.33,4.62.79,18.14,0,0,13.26-9.9,3.46-24.46-.29-.44-.6-.87-.93-1.31a72.33,72.33,0,0,1-6.33-10.68,128.66,128.66,0,0,0,20.83-8.66C653.71,80.64,657.82,68.2,657.82,61.5ZM538.29,195.81l-2.14,8.32c-.87,1.27-1.79,2.62-2.77,4.07l-1,1.6c-.28.41-.58.86-.86,1.31-1,1.44-1.94,3-2.93,4.53l0,.07h0q-1.31,2-2.63,4.17a21.48,21.48,0,0,1,.6-4.15c0-.07,0-.14,0-.21.42-1.24.81-2.37,1.17-3.42.3-.7.65-1.42,1.05-2.15l-.32,0,.32,0a25.57,25.57,0,0,1,1.61-2.5h0l6-9.72h0c.38-1.39,2-3.31,2.85-5.66a1.55,1.55,0,0,1,.08-.23Z" transform="translate(-0.36 0.4)"/><path class="cls-20" d="M657.82,61.5a12.36,12.36,0,0,0-.94-5.1l-.39.52a.64.64,0,0,0-.1-.13l.49-.39c-9.19-6.72-42.81-1.48-42.81-1.48-3.2.63-10.11,1.19-14,1.47l-1.91-4.27c0-.09-.08-.17-.11-.26l0,0h0c-.68-1.49-1.45-3-2.31-4.57h0c-8.33-15-25.53-32.26-61.07-39.74,0,0-44.89-10.61-52.21,23.14a10.15,10.15,0,0,0,.22,3.78s1.22.91,1.28-.41a16.46,16.46,0,0,1,3.48-7.84c8.78-8.88,17.1-6.46,18.12-6.12,5.8,2.19,13.25,8.46,18.3,25.33,0,0,2.25,7.85,4.56,16.48.79,3,3.08,12,2.3,8.85a223.35,223.35,0,0,0-22,6.73c-39.72,14.54-33,25.29-33,25.29a6.34,6.34,0,0,0,3.13,3l0,0,.06,0c.33.16,1.55.74,3.71,1.53,6.48,2.35,21.46,6.51,46.34,6.66a35,35,0,0,0-1.46,12.51,20.13,20.13,0,0,0,.92,4.53,14,14,0,0,1,.29-4.42,16.56,16.56,0,0,1,1.62-4.44,20.94,20.94,0,0,0,1.33,3.71h0c2.34,6.69,7.73,7.44,7.73,7.44l-.06,0a8.94,8.94,0,0,0,3,.23q-.36.43-.69.9a32.12,32.12,0,0,0-2.37,3.91h0c-.13,1.67,2.47,8.71,2.47,8.71l.31.31c.47.48,1.13,1.16,2.09,2.09a14.77,14.77,0,0,0-3.86,4.16,12.09,12.09,0,0,0-1,2.08,13.56,13.56,0,0,0-1,5.47,6.43,6.43,0,0,0,.31,1.64s-2.63,3.57-5.83,7.53c-1.54,1.91-3.21,3.9-4.78,5.63a29,29,0,0,1-4.45,4.23,51.65,51.65,0,0,0-4.57,4.35,59.4,59.4,0,0,0-4.47,5.35A35.93,35.93,0,0,0,507.75,204l-.09.42s-.74,3.68-1.11,7.28a28.54,28.54,0,0,0-.17,4.4c0-.19,0-.3,0-.3,0,.28,0,.53,0,.8a24.05,24.05,0,0,1-.76,3.94s-2.46,5.55-1.23,9.29c.06.18.12.36.2.54a14,14,0,0,0,7,2.67l.63.24a29.8,29.8,0,0,1,4.45,2.18c-.44.73-.88,1.47-1.34,2.22-.88,1.46-1.79,3-2.71,4.46l-1.06,1.76c-.44.73-.88,1.46-1.31,2.2l-1.25,2.11h0A80.45,80.45,0,0,0,503,260.48s9.49,12.14,29.26,20.83a96,96,0,0,0,12.16,4.37c-.07,1.87-.19,4.26-.39,6.34-.07.69-.14,1.35-.23,1.93,0,.14,0,.28-.06.41s-.09.63-.25,1.71c0,.08,0,.16,0,.25-.86,5.89-3.1,20.92-2,27.26l-.22.07-1.5,1.16-2.26,4.28a6.91,6.91,0,0,0,.08,4.48,4.19,4.19,0,0,0,.71,1.16,7.34,7.34,0,0,0,2.33,2,21.39,21.39,0,0,0,9.19,2.56,21.06,21.06,0,0,0,7.43-1.32h0c2.51-1.06,4.55-3,3.91-6.47-.72-3.91-6.52-6.31-6.83-6.37h0a27,27,0,0,0-3.78-1.15c.47-4.71,1.9-17.52,3.94-21.78,0,0,.41-1.48,1-3.82.23-1,.5-2.09.78-3.31.1-.44.21-.91.31-1.37.24-1.12.49-2.28.74-3.51l.3-1.61h.06c1.1.19,2.2.35,3.33.48,1.44.18,2.9.33,4.4.45,0,0,1.16.08,3.05.08.24,1.41.49,2.93.67,4.33h0c0,.13,0,.25,0,.37s0,.43.07.63.07.63.09.92c0,.14,0,.28,0,.41s0,.64.12,1.73c0,.37.06.78.1,1.23.49,6.24,1.57,19.39,3.74,25.39L572.1,326,571,332.09a4.28,4.28,0,0,0,.7,3.5c1.52,2.29,3.46,2.8,5.39,3.18a24.24,24.24,0,0,0,3.65.46h.21c6.77.36,10.46-2.23,12.52-4.14l0,0a8.06,8.06,0,0,0,2.29-3.42h0l.08-.25a5.15,5.15,0,0,0-.28-1.37c-.63-1.93-2.64-4.68-9.57-6.2a24.11,24.11,0,0,0-3.62-.12c-.58-4.63-2-17.59-1-22.22,0,0,.06-1.23.1-3.22,0-1.15,0-2.56.06-4.12,0-.45,0-.93,0-1.4l-.16,0,.16,0c0-.21,0-.44,0-.65l0-.07,0,0c0-.92,0-1.86,0-2.84l0-.85c1.29-.27,2.6-.59,3.88-1s6.59-2.38,8.38-4.19c0,0,2.29-35.38,1.1-65.61h0c-.17-5.16-.38-7.56-.38-7.56h0v-.08c6.44,8.31,11.43,7.33,11.43,7.33,12.62,2.49,20.68-10.28,20.68-10.28a26.9,26.9,0,0,0-1.67-12.73,6.65,6.65,0,0,0,1.06-.84,5.76,5.76,0,0,0,1.33-2.08,3.37,3.37,0,0,0,1-2.05c1.5-1.93.34-3.24.34-3.24-2.91-1.55-6.55.06-8.53,1.22l0,0h0l-.4.31a13.38,13.38,0,0,0-5.2-2.36l-15-22.79a31.15,31.15,0,0,0-5.52-4h0l-2.83-1.85a7.2,7.2,0,0,0,1.1-.72c1.22-1,2.28-.77,3.24-1.65,2.3-2.08,3.75-3.59,3.75-3.59,1.11-1.13,1.12-5,1.2-6.32,0-.6,0-1,0-1a6.25,6.25,0,0,0,.23-1.85,3.09,3.09,0,0,0-.57-1.73,32.37,32.37,0,0,0,7.64-8.07h0s4.63-5,2.71-11.06c0,0,6.33,4.62.79,18.14,0,0,13.26-9.9,3.46-24.46-.29-.44-.6-.87-.93-1.31a72.33,72.33,0,0,1-6.33-10.68,128.66,128.66,0,0,0,20.83-8.66C653.71,80.64,657.82,68.2,657.82,61.5ZM538.29,195.81l-2.14,8.32c-.87,1.27-1.79,2.62-2.77,4.07l-1,1.6c-.28.41-.58.86-.86,1.31-1,1.44-1.94,3-2.93,4.53l0,.07h0q-1.31,2-2.63,4.17a21.48,21.48,0,0,1,.6-4.15c0-.07,0-.14,0-.21.42-1.24.81-2.37,1.17-3.42.3-.7.65-1.42,1.05-2.15l-.32,0,.32,0a25.57,25.57,0,0,1,1.61-2.5h0l6-9.72h0c.38-1.39,2-3.31,2.85-5.66a1.55,1.55,0,0,1,.08-.23Z" transform="translate(-0.36 0.4)"/><rect class="cls-21" height="30"/><rect class="cls-21" x="758" y="302" height="39"/></g></g></svg>