<svg xmlns="http://www.w3.org/2000/svg" xmlns:xlink="http://www.w3.org/1999/xlink" viewBox="0 0 758.36 341"><defs><style>.cls-1{isolation:isolate;}.cls-2{fill:none;}.cls-3{fill:#8a5330;}.cls-4{fill:#f6d6b2;}.cls-5{fill:#704126;}.cls-6{fill:#59321e;}.cls-7{fill:#e2ac6e;}.cls-8{fill:#cc6335;}.cls-9{fill:#9d4b31;}.cls-10{fill:#90654c;}.cls-11{fill:#e39b1d;}.cls-12{fill:#d2772a;}.cls-13{fill:#984934;}.cls-14{fill:#7f3526;}.cls-15{fill:#a18046;}.cls-16{fill:#b7a238;}.cls-17{fill:#f9d9b5;}.cls-18{fill:#e5af6e;}.cls-19{fill:#f9dab6;}.cls-20{fill:#7f492b;}.cls-21{fill:#6b3822;}.cls-22{fill:#9e3089;}.cls-23{fill:#bc40a1;}.cls-24{fill:#d860c1;}.cls-25{fill:url(#linear-gradient);}.cls-26{fill:#9b4934;}.cls-27{fill:#d5772a;}.cls-28{fill:#e69e1d;}.cls-29{fill:#913a30;}.cls-30{fill:#cf6335;}.cls-31{fill:#6b3c22;}.cls-32{mix-blend-mode:overlay;fill:url(#linear-gradient-2);}.cls-33{fill:#564339;opacity:0.5;mix-blend-mode:multiply;}.cls-34{fill:#fff;}</style><linearGradient id="linear-gradient" x1="-25.11" y1="60.73" x2="107.19" y2="29.88" gradientTransform="translate(27.24 45.84) rotate(7.02)" gradientUnits="userSpaceOnUse"><stop offset="0" stop-color="#90654c"/><stop offset="0.67" stop-color="#8a5330"/><stop offset="1" stop-color="#6d4530"/></linearGradient><linearGradient id="linear-gradient-2" x1="28.48" y1="113.34" x2="148.92" y2="203.66" gradientUnits="userSpaceOnUse"><stop offset="0" stop-color="#f2deb6" stop-opacity="0"/><stop offset="0.99" stop-color="#f4e9d7" stop-opacity="0.6"/><stop offset="1" stop-color="#c7e1b7" stop-opacity="0.8"/></linearGradient></defs><title>character9_3</title><g class="cls-1"><g id="Layer_1" data-name="Layer 1"><path class="cls-2" d="M73.59,319.68a9.48,9.48,0,0,1-1.86,1.47l2.47.6C74,321.11,73.83,320.43,73.59,319.68Z" transform="translate(0 0.4)"/><path class="cls-2" d="M70.32,321.84a7.59,7.59,0,0,1-4.83.21,13.89,13.89,0,0,0,1,3Z" transform="translate(0 0.4)"/><path class="cls-3" d="M75.44,322.06a20.61,20.61,0,0,1-.56-2.33l-1.18-1.94c-.07,1.18-.11,1.89-.11,1.89.24.75.43,1.43.61,2.07Z" transform="translate(0 0.4)"/><path class="cls-3" d="M66.46,325.07s0,.33-.1.93c-.18,1.58-.57,4.95-1.1,8.51a18.23,18.23,0,0,1-1.38-2.71,23.52,23.52,0,0,1-1.38-4.41l1.13-8.27,1.1-2a22.85,22.85,0,0,0,.76,4.9A14.16,14.16,0,0,0,66.46,325.07Z" transform="translate(0 0.4)"/><path class="cls-4" d="M79.41,274.48c-.1,3.1-.43,6.45-.83,9.57-.83,6.51-2,12-2,12a34.4,34.4,0,0,0-1.49,6.72c-.77,5.32-1.24,11.84-1.44,15-.08,1.18-.11,1.89-.11,1.89.06.21.14.41.19.62.15.47.28.93.4,1.35a.36.36,0,0,0,0,.1c0,.18.1.36.14.55s.11.44.16.65l0,0a6.11,6.11,0,0,1,.2,1v0h0v.06a3.75,3.75,0,0,0-.69-.29,7,7,0,0,0-2.61-.41,9,9,0,0,0-3.1.7c-.23.09-.46.18-.66.28h0c-.41.2-.73.39-1,.51l-.15.1-.09.05a6.05,6.05,0,0,1-.26-.6,12.36,12.36,0,0,1-.7-2.27c0-.09,0-.14,0-.14a22.86,22.86,0,0,1-.76-4.91,163.23,163.23,0,0,1,.14-17.62,24.39,24.39,0,0,1,2.77-10.09c0-.13,0-.27,0-.41.29-4.11-2.19-11.61-2.19-11.61C66.83,275,79.73,264.92,79.41,274.48Z" transform="translate(0 0.4)"/><path class="cls-4" d="M67.1,326.29a9.62,9.62,0,0,0,5.68,4.7s2.88.26,2.16-5.58A9,9,0,0,0,67.1,326.29Z" transform="translate(0 0.4)"/><path class="cls-5" d="M74,323.77l.17,1.41a9.15,9.15,0,0,0-7.12,1.11c-.23-.42-.45-.83-.63-1.22C67,324.71,70.47,322.54,74,323.77Z" transform="translate(0 0.4)"/><path class="cls-5" d="M75,325.43l-.22-1.38a.35.35,0,0,1,.13.05C74.94,324.57,74.9,325,75,325.43Z" transform="translate(0 0.4)"/><path class="cls-5" d="M78.48,330.82s-1.82-4.75-2.88-8.23l-.72-2.86c0,1.49-.7,1.92-.7,1.92.23.85.42,1.76.56,2.46.09.47.16.92.21,1.32.72,5.85-2.17,5.56-2.17,5.56a9.65,9.65,0,0,1-5.69-4.7c-.23-.42-.45-.83-.63-1.22,0,0-.06.33-.13.93,0,0-.91,4.72-2.45,5.8a18.23,18.23,0,0,0,1.38,2.71l.37.6c2.06,3,5.33,5.47,10.34,4.06C76,339.17,80.36,337.86,78.48,330.82Z" transform="translate(0 0.4)"/><path class="cls-6" d="M75,325.43a5.59,5.59,0,0,0-.74-.25L74,323.77a3.94,3.94,0,0,1,.69.27h0Z" transform="translate(0 0.4)"/><path class="cls-6" d="M66.46,325.07s.52,1,.63,1.22l.1-.06L66.56,325Z" transform="translate(0 0.4)"/><path class="cls-7" d="M79.41,274.48c-.1,3.1-.43,6.45-.83,9.57-.83,6.51-2,12-2,12a34.4,34.4,0,0,0-1.49,6.72,44.71,44.71,0,0,1-10.27-3.28,24.39,24.39,0,0,1,2.77-10.09c0-.13,0-.27,0-.41.29-4.11-2.19-11.61-2.19-11.61C66.83,275,79.73,264.92,79.41,274.48Z" transform="translate(0 0.4)"/><path class="cls-8" d="M81.87,240.39a126.33,126.33,0,0,0,20.4,0l-2.4-24-17.63-1.25H67.54l-3.16,22.56h0l-5.16,36.89s4.65,1.43,10,2.65c1.48.34,3,.66,4.51.93a31.33,31.33,0,0,0,8.34.69Zm-13.36-1.77" transform="translate(0 0.4)"/><path class="cls-9" d="M80.75,224.66s9.39,1.22,14.62-.63.67-3.82.67-3.82l-6.21-.44" transform="translate(0 0.4)"/><path class="cls-2" d="M94.08,319.8a9.44,9.44,0,0,0,2,1.29l-2.41.82C93.77,321.26,93.91,320.56,94.08,319.8Z" transform="translate(0 0.4)"/><path class="cls-2" d="M97.53,321.65a7.58,7.58,0,0,0,4.83-.22,13.88,13.88,0,0,1-.71,3.09Z" transform="translate(0 0.4)"/><path class="cls-3" d="M92.45,322.33A19.22,19.22,0,0,0,92.8,320l1-2c.18,1.17.28,1.88.28,1.88-.17.76-.31,1.46-.42,2.11Z" transform="translate(0 0.4)"/><path class="cls-3" d="M101.66,324.53s.07.33.18.91c.33,1.56,1,4.88,1.86,8.39a18.33,18.33,0,0,0,1.13-2.83,23.33,23.33,0,0,0,1-4.52L104,318.35l-1.28-1.87a22.19,22.19,0,0,1-.31,4.95A14.18,14.18,0,0,1,101.66,324.53Z" transform="translate(0 0.4)"/><path class="cls-4" d="M101.1,299.91a153.17,153.17,0,0,1,1.57,16.57,33,33,0,0,1-.08,3.41c0,.39-.08.75-.13,1.08,0,.16-.06.32-.1.46s0,.05,0,.14a12.16,12.16,0,0,1-.49,2.32c-.06.2-.13.42-.2.63l-.1,0-.16-.08-.69-.31-.32-.12c-.21-.07-.43-.16-.67-.23a9.5,9.5,0,0,0-3.15-.42A7.14,7.14,0,0,0,94,324a4.63,4.63,0,0,0-.65.36v-.06h0a4.49,4.49,0,0,1,.1-1.07l0,0c0-.21.06-.44.1-.66s.06-.37.1-.56c0,0,0-.07,0-.1.06-.35.13-.71.21-1.1s.12-.6.19-.92l-.27-1.87c-.47-3.06-1.49-9.34-2.71-14.51A35.57,35.57,0,0,0,89,296.56s-1.62-5.4-3-11.81c-.67-3.07-1.3-6.38-1.68-9.46-1.17-9.49,12.15-3,13.69-.72,0,0-.85,10.2-.18,14.27,0,.14,0,.28.07.4A34.44,34.44,0,0,1,101.1,299.91Z" transform="translate(0 0.4)"/><path class="cls-4" d="M101.14,325.8A9.62,9.62,0,0,1,95.9,331s-2.85.52-2.66-5.35A9,9,0,0,1,101.14,325.8Z" transform="translate(0 0.4)"/><path class="cls-5" d="M94,323.9l0,1.43a9.12,9.12,0,0,1,7.19.46c.19-.43.38-.86.52-1.26C101.11,324.21,97.44,322.36,94,323.9Z" transform="translate(0 0.4)"/><path class="cls-5" d="M93.24,325.64l.09-1.39s-.08,0-.12.06C93.17,324.78,93.25,325.24,93.24,325.64Z" transform="translate(0 0.4)"/><path class="cls-5" d="M90.2,331.32s1.39-4.89,2.14-8.45L92.8,320c.12,1.49.87,1.86.87,1.86-.16.87-.27,1.78-.34,2.5,0,.47-.08.93-.09,1.33C93,331.53,95.9,331,95.9,331a9.65,9.65,0,0,0,5.24-5.2c.19-.43.38-.86.52-1.26,0,0,.09.32.21.91,0,0,1.34,4.62,3,5.56a18.33,18.33,0,0,1-1.13,2.83c-.11.2-.21.42-.32.62-1.78,3.2-4.81,5.92-9.93,5C93.45,339.42,89,338.5,90.2,331.32Z" transform="translate(0 0.4)"/><path class="cls-6" d="M93.24,325.64a4.81,4.81,0,0,1,.71-.31l0-1.43a4.62,4.62,0,0,0-.67.33v0Z" transform="translate(0 0.4)"/><path class="cls-6" d="M101.66,324.53s-.43,1.08-.52,1.26l-.1,0,.52-1.28Z" transform="translate(0 0.4)"/><path class="cls-7" d="M97.83,289.24a34.44,34.44,0,0,1,3.27,10.67,49.57,49.57,0,0,1-10,3.5A35.57,35.57,0,0,0,89,296.56s-1.62-5.4-3-11.81c-.67-3.07-1.3-6.38-1.68-9.46-1.17-9.49,12.45-6,14-3.68,0,0-1.15,13.16-.48,17.23C97.79,289,97.8,289.12,97.83,289.24Z" transform="translate(0 0.4)"/><path class="cls-8" d="M105.71,274.67a15.39,15.39,0,0,1-4.54,1.61c-8.94,1.92-23.6.55-23.6.55l2.77-36.57a128.54,128.54,0,0,0,21.93.17l1,10.36Z" transform="translate(0 0.4)"/><path class="cls-9" d="M105.71,274.67a15.39,15.39,0,0,1-4.54,1.61c-.52-10.17-3.9-30.91-3.9-30.91l2.62,1.45,3.42,4Z" transform="translate(0 0.4)"/><path class="cls-10" d="M131.09,272.29C125,280.82,103,297.76,103,297.76c1-9.87-1-29.65-3.63-48.79,0-.24-.07-.47-.1-.71s-.09-.65-.14-1l-.12-.9c-1.31-9.41-2.75-18.57-4-26.18-.77-4.66-1.47-8.74-2-12h0l.69-1.45,1.42-3,.06-.48-.06.06.07-.16.18-1.49,1.06.31,11.82,3.44a69.91,69.91,0,0,1,7.37,13h0a160.35,160.35,0,0,1,6.28,16.63A313.54,313.54,0,0,1,131.09,272.29Z" transform="translate(0 0.4)"/><path class="cls-3" d="M122.31,241.14c-.06-1.3-.22-3.42-.44-6a160.35,160.35,0,0,0-6.28-16.63h0a69.91,69.91,0,0,0-7.37-13L96.4,202l-.06.23-.54.06-.57,9.37L95,220.21c1.24,7.61,2.68,16.77,4,26.18l.45,0,.31,0,0,0h.14l-.73.85L98,248.64a2.18,2.18,0,0,0,1.39.33,3.61,3.61,0,0,0,1-.2.85.85,0,0,1,.49,0c.24,0,.44.35.44.35a1.34,1.34,0,0,1,.17.53,5.89,5.89,0,0,0,2.1,3.27,14.24,14.24,0,0,0,.82,2c.53.13,1-.69,1.16-1.18.84.63,1.46-1.51,1.46-1.51,1.31-1.6.69-4.33.69-4.33a6,6,0,0,0-.2-1.53,66.63,66.63,0,0,0,7.81-.9h0a26.84,26.84,0,0,0,4.78-1.11c0-.68-.1-1.56-.2-2.56a14.25,14.25,0,0,0,2.4-.7Z" transform="translate(0 0.4)"/><path class="cls-9" d="M99,246.39c-1-.06-2.1-.15-3.19-.27l0-2.87-1.41-.14h0L95,220.21C96.24,227.82,97.68,237,99,246.39Z" transform="translate(0 0.4)"/><path class="cls-9" d="M73.38,242.75l.31-17.26s11.79.35,15.45-2.48-14.52-7.79-14.52-7.79l-4.31.71-2.53,13,1.09,18.14,2.61-1.74" transform="translate(0 0.4)"/><path class="cls-11" d="M106.36,147.44a2.37,2.37,0,0,1-.17.2l-.1-.07Z" transform="translate(0 0.4)"/><path class="cls-12" d="M83.6,152c4.72-.19,11.49-.58,14.67-1.35a74.23,74.23,0,0,0,7.82-3l.1.07c-.86,1-5.32,5.23-17.73,7.33q-.72-.56-1.32-1A26.41,26.41,0,0,0,83.6,152Z" transform="translate(0 0.4)"/><path class="cls-11" d="M107.42,152.15a8.21,8.21,0,0,0,.66,2.19c-2.79,1.71-7.36,3.72-14.45,5-1.82-1.64-3.67-3.24-5.17-4.4,12.41-2.1,16.87-6.37,17.73-7.33a14.31,14.31,0,0,1,4.56,4.78,15.42,15.42,0,0,1-1.49,1.16C108.09,151.67,107.42,152.15,107.42,152.15Z" transform="translate(0 0.4)"/><path class="cls-11" d="M116.78,193.17a11,11,0,0,1,1,2.7,13.52,13.52,0,0,0-.64-2.74c4.21-.51,13-2,16.77-6.18a33.71,33.71,0,0,1,5.85,13.4c-2.24,1.54-7.69,4.34-18.36,5-.48-2.86-1.34-6.23-2.92-8.37,0,0-2.41-5.48,1.83,8.42H120a23.28,23.28,0,0,0-3.16-4.58s-1.29-1.5-1.59-5.41c0,0-.13-.74-.44-2C115,193.35,115.69,193.3,116.78,193.17Z" transform="translate(0 0.4)"/><path class="cls-11" d="M140.67,207.57a27.15,27.15,0,0,1,.05,4.1c-.14,1.36-.87,7.38-3.13,8.59a1.72,1.72,0,0,0,.2,2.65s1.87,3.51,2.9-10.77a21.61,21.61,0,0,0,.61,3.69s2.14,5.25.9,8.71c-3.11,1.05-9.81,2-20.85-3a7.78,7.78,0,0,1,.44-2.89h0a2.91,2.91,0,0,0,.54-1.84,17.92,17.92,0,0,0-.34-6h.08S134.45,211.53,140.67,207.57Z" transform="translate(0 0.4)"/><path class="cls-11" d="M125.73,177.66a47.6,47.6,0,0,1,4.15,4.19c-2.6,1.89-7.65,4.57-16.59,6.13a70.06,70.06,0,0,0-4.36-10.4c3.62-.53,9-1.67,12.76-4A26.37,26.37,0,0,0,125.73,177.66Z" transform="translate(0 0.4)"/><path class="cls-11" d="M112.47,159.52a5.59,5.59,0,0,1-.34,1.52q-.15-.54-.3-1C112.05,159.84,112.26,159.68,112.47,159.52Z" transform="translate(0 0.4)"/><path class="cls-11" d="M99,164.34c3.73-.59,9-1.79,12.55-4.14.36.52.6.84.6.84s2.37,3.41,5.24,7.18a43.43,43.43,0,0,1-11.62,4,45.2,45.2,0,0,0-4.58-5.76S100.3,165.6,99,164.34Z" transform="translate(0 0.4)"/><path class="cls-12" d="M121.35,221.58c-.55-.24-1.1-.5-1.67-.77l-.12-.06a7.75,7.75,0,0,0,2.23-2.06h0A7.78,7.78,0,0,0,121.35,221.58Z" transform="translate(0 0.4)"/><path class="cls-12" d="M121.74,227.7a57.93,57.93,0,0,0,7.78,2.53h0s-5.15,5.07-14.85,2c0,0-12-5-17.78-4.5,0,0,11.39-1.84,18.93-5C118.46,225.13,121.74,227.7,121.74,227.7Z" transform="translate(0 0.4)"/><path class="cls-12" d="M107.42,152.15s.67-.48,1.84,1.43c-.35.24-.74.5-1.18.76A8.21,8.21,0,0,1,107.42,152.15Z" transform="translate(0 0.4)"/><path class="cls-12" d="M111.83,160q.15.51.3,1s-.24-.32-.6-.84Z" transform="translate(0 0.4)"/><path class="cls-12" d="M140.72,211.67c0-.17,0-.28,0-.28l-.06.75v-.09C140.7,211.93,140.71,211.8,140.72,211.67Z" transform="translate(0 0.4)"/><path class="cls-12" d="M137.79,222.91a1.72,1.72,0,0,1-.2-2.65c2.26-1.21,3-7.23,3.13-8.59,0,.13,0,.26,0,.38v.09C139.66,226.42,137.79,222.91,137.79,222.91Z" transform="translate(0 0.4)"/><path class="cls-12" d="M118.48,196.93c1.58,2.14,2.44,5.51,2.92,8.37l-1.09,0C116.07,191.45,118.48,196.93,118.48,196.93Z" transform="translate(0 0.4)"/><path class="cls-12" d="M116.78,193.17l.36,0a13.52,13.52,0,0,1,.64,2.74A11,11,0,0,0,116.78,193.17Z" transform="translate(0 0.4)"/><path class="cls-13" d="M109.26,153.58a15.42,15.42,0,0,0,1.49-1.16,11.16,11.16,0,0,1,.88,2,12.65,12.65,0,0,1,.84,5.14c-.21.16-.42.32-.64.47A28.26,28.26,0,0,0,109.26,153.58Z" transform="translate(0 0.4)"/><path class="cls-13" d="M111.53,160.2c-3.56,2.35-8.82,3.55-12.55,4.14-1.42-1.36-3.37-3.18-5.35-5,7.09-1.31,11.66-3.32,14.45-5A35.88,35.88,0,0,0,111.53,160.2Z" transform="translate(0 0.4)"/><path class="cls-14" d="M109.26,153.58a28.26,28.26,0,0,1,2.57,6.41l-.3.21a35.88,35.88,0,0,1-3.45-5.86C108.52,154.08,108.91,153.82,109.26,153.58Z" transform="translate(0 0.4)"/><path class="cls-13" d="M121.69,173.6c-3.75,2.31-9.14,3.45-12.76,4a55.54,55.54,0,0,0-3.18-5.37,43.43,43.43,0,0,0,11.62-4C118.76,170,120.27,172,121.69,173.6Z" transform="translate(0 0.4)"/><path class="cls-13" d="M133.91,187c-3.78,4.14-12.56,5.67-16.77,6.18-.32-.83-.76-1.56-1.38-1.73a18.47,18.47,0,0,1,1,1.77c-1.09.13-1.81.18-2,.19-.31-1.31-.81-3.17-1.54-5.38,8.94-1.56,14-4.24,16.59-6.13A54.82,54.82,0,0,1,133.91,187Z" transform="translate(0 0.4)"/><path class="cls-14" d="M115.76,191.4c.62.17,1.06.9,1.38,1.73l-.36,0A18.47,18.47,0,0,0,115.76,191.4Z" transform="translate(0 0.4)"/><path class="cls-14" d="M120.94,207.4a21.18,21.18,0,0,0-.92-2h.29C120.51,206,120.72,206.67,120.94,207.4Z" transform="translate(0 0.4)"/><path class="cls-13" d="M122,210.63a44.88,44.88,0,0,0-.55-5.33c10.67-.61,16.12-3.41,18.36-5,0,.13.05.26.06.39s.6,3.45.85,6.83c-6.22,4-18.6,3.26-18.6,3.26H122a1.42,1.42,0,0,1,0-.2Z" transform="translate(0 0.4)"/><path class="cls-14" d="M120.94,207.4a22.19,22.19,0,0,1,1,3.22C121.58,209.46,121.25,208.39,120.94,207.4Z" transform="translate(0 0.4)"/><path class="cls-14" d="M122,210.63h0a22.19,22.19,0,0,0-1-3.22c-.22-.73-.43-1.41-.63-2.05l1.09,0A44.88,44.88,0,0,1,122,210.63Z" transform="translate(0 0.4)"/><path class="cls-13" d="M135.36,227.34l-.59.21c-11.18,1.1-13.3-3-13.42-6,11,4.91,17.74,4,20.85,3a5,5,0,0,1-.2.49A13,13,0,0,1,135.36,227.34Z" transform="translate(0 0.4)"/><path class="cls-14" d="M121.35,221.58c.12,3,2.24,7.07,13.42,6-1.25.46-4.16,1.6-5.25,2.68a57.93,57.93,0,0,1-7.78-2.53s-3.28-2.57-5.92-5a24.08,24.08,0,0,0,3.74-1.93l.12.06C120.25,221.08,120.8,221.34,121.35,221.58Z" transform="translate(0 0.4)"/><path class="cls-9" d="M82,277.13s-.37-49.56,0-55.77,1.33.25,1.33.25v55.58Z" transform="translate(0 0.4)"/><path class="cls-9" d="M73.69,278.25c-1.5-.27-3-.59-4.51-.93l-4.8-23.08,1.44-6.18,7.56-5.31S72.58,263,73.69,278.25Z" transform="translate(0 0.4)"/><path class="cls-10" d="M68.91,203.18l0-.36,4.09-1A71.92,71.92,0,0,0,71.9,210l-1.5-3.2-1.42-3-.06-.48.06.06Z" transform="translate(0 0.4)"/><path class="cls-10" d="M91.63,200.61l3.71,1.08-.18,1.49-.07.16.06-.06-.06.48-1.42,3L93,208.24C92.16,203.47,91.63,200.61,91.63,200.61Z" transform="translate(0 0.4)"/><path class="cls-3" d="M65.87,174.07h0c-.41-1.22,2.8-5.71,2.8-5.71a6.41,6.41,0,0,1,0-1.86c-1.08.07-1.32,1.86-1.32,1.86-.42,3.48-2.38,3.86-2.38,3.86l.89,1.84Z" transform="translate(0 0.4)"/><path class="cls-10" d="M68.41,203.67l-.09-.71.56-.14,0,.36.07.16-.06-.06.06.48.07.15C68.8,203.8,68.57,203.72,68.41,203.67Z" transform="translate(0 0.4)"/><path class="cls-15" d="M70.92,221.55s4.39,2.54,11.52.89c0,0,5.61.37,6.7.57S93,211.18,93,211.18l.54-7.15-3-.73-19.1,6.32" transform="translate(0 0.4)"/><path class="cls-16" d="M79.79,171.38l.42-.74,2.93,1,2.92-1s.49.83,1.24,2.16c-.86-5-1.69-9.34-2.38-12.24l.64-.09L84,156.82l-3,3.28,1.38,0C81.72,163,80.79,166.93,79.79,171.38Z" transform="translate(0 0.4)"/><path class="cls-16" d="M90.52,193.57l-3.07,1.27s-2.29-16.09-4.31-21.5c-2,5.41-4.32,21.5-4.32,21.5l-3.67-1.52c-1.05,5.52-1.87,10.48-2.16,13.87a12.14,12.14,0,0,1-.28,1.64l.78.53L82,215.22l10-3.69.94-.35a7.82,7.82,0,0,1-.63-2.51C92,205,91.36,199.58,90.52,193.57Z" transform="translate(0 0.4)"/><path class="cls-15" d="M76.91,192.84s10.15,4.52,15.91,4.58-12.2,15.74-12.2,15.74l-11.44-4.73,4.38-12.09" transform="translate(0 0.4)"/><path class="cls-15" d="M93.53,211l-1.5.56c-3.71-21.66-7.11-39.07-7.11-39.07-2.19.77-2.88,0-2.88,0-1.24,1.06-6.72,27.77-8.55,36.9-.38,1.89-.62,3-.62,3l-.66-3.89-2.93-17.16L65.14,167,77,155.12h4.56L85.15,154l3.47,12.8s0,.43.13,1.22C89.38,173.43,91.92,195.46,93.53,211Z" transform="translate(0 0.4)"/><path class="cls-10" d="M82.39,160.12l-1.38,0c-13.86-.24-17.76-5.76-17.76-5.76l8-.53-12.06-1.74L56,153.79l2.11,53.7,1.75,4.9s10.22,7.17,12.88-3.56a12.14,12.14,0,0,0,.28-1.64c.29-3.39,1.11-8.35,2.16-13.87l-5-2.06c.64-4.17,7.77-16.72,9.6-19.88C80.79,166.93,81.72,163,82.39,160.12Z" transform="translate(0 0.4)"/><path class="cls-10" d="M111.79,158.5l-6.27,1.83-2.74-7.81c-4.18,3.67-13.65,7.41-17.22,7.95l-.64.09c.69,2.9,1.52,7.26,2.38,12.24,2.56,4.5,8.22,14.76,8.79,18.46l-5.57,2.31c.84,6,1.5,11.46,1.82,15.1a7.82,7.82,0,0,0,.63,2.51c4.06,9.19,11.52,2.2,11.52,2.2l4.5-5.67Z" transform="translate(0 0.4)"/><path class="cls-3" d="M84,156.82s.34,1.4.9,3.74c2.83-.41,15.19-.27,17.86-7.1Z" transform="translate(0 0.4)"/><path class="cls-3" d="M71.22,153.79,59.83,154s7.74,6.33,22.52,6.3c.69-2.94,1.18-5,1.18-5Z" transform="translate(0 0.4)"/><path class="cls-15" d="M83.14,171.61l-2.93-1-.42.74c-1.55,6.83-3.29,14.85-4.64,21.94l3.67,1.52s2.3-16.09,4.32-21.5a5.77,5.77,0,0,0-.75-1.49Z" transform="translate(0 0.4)"/><path class="cls-3" d="M70.19,191.26l5,2.06c1.35-7.09,3.09-15.11,4.64-21.94C78,174.54,70.83,187.09,70.19,191.26Z" transform="translate(0 0.4)"/><path class="cls-15" d="M83.14,171.61l.74.24a5.5,5.5,0,0,0-.74,1.49c2,5.41,4.31,21.5,4.31,21.5l3.07-1.27c-.94-6.8-2.1-14.31-3.22-20.77-.75-1.33-1.24-2.16-1.24-2.16Z" transform="translate(0 0.4)"/><path class="cls-3" d="M96.09,191.26c-.57-3.7-6.23-14-8.79-18.46,1.12,6.46,2.28,14,3.22,20.77Z" transform="translate(0 0.4)"/><path class="cls-15" d="M83.14,171.61l-.75.24a5.77,5.77,0,0,1,.75,1.49,5.5,5.5,0,0,1,.74-1.49Z" transform="translate(0 0.4)"/><path class="cls-3" d="M64.49,167s3.68,4.9,2.37,21.49C66.86,188.53,66.69,168.36,64.49,167Z" transform="translate(0 0.4)"/><polygon class="cls-3" points="69.19 188.72 67 186.9 66.66 189.73 67.86 195.24 72.77 208.76 73.17 205.84 75.4 192.44 69.19 188.72"/><polygon class="cls-3" points="95.48 191.91 94.61 199 91.96 204.65 91.52 201.56 93.96 197.18 95.34 191.47 95.48 191.91"/><path class="cls-10" d="M72.56,297.59c-9.7-2.37-34.48-25.3-34.48-25.3-1.19-5.37,6.24-34.11,11-51.7a.65.65,0,0,1,0-.13c.24-.88.47-1.73.7-2.55a9.18,9.18,0,0,0,4.33,1.3A121.6,121.6,0,0,0,71.51,216c-.27,5.16-.41,11.07-.46,17.28,0,4.24,0,8.63,0,13C71.3,271.78,72.56,297.59,72.56,297.59Z" transform="translate(0 0.4)"/><path class="cls-3" d="M71.91,210c-.16,1.85-.29,3.86-.4,6a121.6,121.6,0,0,1-17.32,3.22,9.18,9.18,0,0,1-4.33-1.3C51.7,211.25,53,206.74,53,206.74L68.32,203l.09.71c.16.05.39.13.65.24l1.35,2.88Z" transform="translate(0 0.4)"/><polyline class="cls-14" points="55.02 130.15 53.22 139.11 58.86 140.83 103.12 143.4 110.85 132.22 106.2 125.45"/><path class="cls-3" d="M98.69,167.05S95,172,96.32,188.53C96.32,188.53,96.49,168.37,98.69,167.05Z" transform="translate(0 0.4)"/><path class="cls-10" d="M117.7,202.6c2-26.2-3.65-44.62-3.65-44.62,0-2.43-7.66-8.55-7.66-8.55-5.38,3.77-8,18.39-8,18.39L97.67,174l-2.3,25.13" transform="translate(0 0.4)"/><path class="cls-3" d="M98.69,167.05s-.42-6.74,3-8.12l-.46,2.41S98.67,165.32,98.69,167.05Z" transform="translate(0 0.4)"/><path class="cls-3" d="M98.69,167.05s-2-.38-2.37-3.85c0,0-.24-1.79-1.32-1.86a6.35,6.35,0,0,1,0,1.86s3.2,4.48,2.8,5.7Z" transform="translate(0 0.4)"/><path class="cls-3" d="M91.52,201.16l1,8.55a57.31,57.31,0,0,0,1.92,7l1-18.16.11-3.72.61-3.58-.75-.19-.78,4.8Z" transform="translate(0 0.4)"/><path class="cls-15" d="M89.14,223s5.55,1.3,7.75-2.88l-.8-7-3.12-2-3.14,4.57" transform="translate(0 0.4)"/><path class="cls-10" d="M118.12,190.05s4.2,38.53,4.55,46.58a24.22,24.22,0,0,0-2.62-.73c-4.59-1.07-14.56-2.46-24.6,2-.47.21-1,.44-1.44.69l.88-32.26.59-9.61L109.63,195Z" transform="translate(0 0.4)"/><path class="cls-3" d="M122.67,236.63a75.83,75.83,0,0,1-28.66,2A35.58,35.58,0,0,1,122.67,236.63Z" transform="translate(0 0.4)"/><path class="cls-10" d="M121.28,236.16,117,237.93a32.3,32.3,0,0,0,5.68-1.3l-1-.92Z" transform="translate(0 0.4)"/><polyline class="cls-10" points="94.78 237.37 94.01 239.04 98.67 239.43 95.11 238.45"/><path class="cls-10" d="M95.48,241.73c.34-.18.69-.34,1-.49,9.64-4.44,19.26-2.56,22.64-1.65.42.11.75.21,1,.28l.31.1-.88-.78-.33.37a31.21,31.21,0,0,0-22.76,1.66h0l-.3-.95Z" transform="translate(0 0.4)"/><path class="cls-15" d="M99.53,242.06h0a70.85,70.85,0,0,0,16-.93h0a41.2,41.2,0,0,0,4.91-1.14l-.31-.1-.9-.31a31.21,31.21,0,0,0-22.76,1.66c-.64.31-1,.51-1,.51,1.28.14,2.52.24,3.74.31Z" transform="translate(0 0.4)"/><path class="cls-17" d="M97.7,244.32a3,3,0,0,0,2.44.13.92.92,0,0,1,.51.05c.24,0,.45.36.45.36a1.33,1.33,0,0,1,.18.54,6,6,0,0,0,2.15,3.36,14.46,14.46,0,0,0,.84,2.05c.55.13,1-.71,1.19-1.21.86.64,1.49-1.55,1.49-1.55,1.35-1.65.72-4.45.72-4.45a6.83,6.83,0,0,0-.3-1.95,5.12,5.12,0,0,0-.27-.74,2.1,2.1,0,0,0-.33-.59l0-.06v0a5.46,5.46,0,0,0-4.19-1.14,10.6,10.6,0,0,0-1.32,1.09,6.14,6.14,0,0,0-.66.79h0Z" transform="translate(0 0.4)"/><path class="cls-18" d="M105.46,249.6s1.16-2,.82-2.91A17.94,17.94,0,0,0,105.46,249.6Z" transform="translate(0 0.4)"/><path class="cls-18" d="M107,248.05s.83-2.48.52-3.14Z" transform="translate(0 0.4)"/><path class="cls-16" d="M99.53,242.06l-4-.33,0-3.78c10-4.51,20-3.12,24.6-2,.2,1.66.33,3.07.37,4.07a26.94,26.94,0,0,1-4.91,1.14h0l3.66-1.52.06,0a30.79,30.79,0,0,0-12.33-1.26,35.42,35.42,0,0,0-4.21.71h0a29.74,29.74,0,0,0-6.21,2.2l.06,0Z" transform="translate(0 0.4)"/><path class="cls-18" d="M101.21,240.19a10.39,10.39,0,0,1,6.16,1.46,5.12,5.12,0,0,0-.27-.74,2.1,2.1,0,0,0-.33-.59l0-.08h0l.15-1.93a35.42,35.42,0,0,0-4.21.71h0l-.13.08A10.6,10.6,0,0,0,101.21,240.19Z" transform="translate(0 0.4)"/><path class="cls-3" d="M109.78,197.92s-8.72-6.87-13.53-2l-.88,3.23,2.07-2.73A24.34,24.34,0,0,1,109.78,197.92Z" transform="translate(0 0.4)"/><path class="cls-19" d="M83.2,170.38a10.9,10.9,0,0,0-1.32,3.32c-1.77,6.3-3.55,18.76-3.55,18.76L70.05,189c.5-3.39,5.47-12.5,8.06-17.09.94-1.66,1.57-2.72,1.57-2.72Z" transform="translate(0 0.4)"/><path class="cls-19" d="M96.4,189l-8.28,3.42s-1.77-12.31-3.52-18.65a11.42,11.42,0,0,0-1.35-3.43l3.52-1.15s.68,1.17,1.69,3C91.08,176.83,95.9,185.71,96.4,189Z" transform="translate(0 0.4)"/><path class="cls-18" d="M83.2,170.38a10.9,10.9,0,0,0-1.32,3.32A9.3,9.3,0,0,1,78.11,172c.94-1.66,1.57-2.72,1.57-2.72Z" transform="translate(0 0.4)"/><path class="cls-18" d="M88.46,172.18a8.1,8.1,0,0,1-3.86,1.63,11.42,11.42,0,0,0-1.35-3.43l3.52-1.15S87.45,170.4,88.46,172.18Z" transform="translate(0 0.4)"/><path class="cls-20" d="M88.62,165.32c0,3.25-2.27,5.87-5.1,5.87s-5.08-2.62-5.08-5.87,2.27-5.86,5.08-5.86S88.62,162.08,88.62,165.32Z" transform="translate(0 0.4)"/><path class="cls-21" d="M88.62,165.32c0,3.25-2.27,5.87-5.1,5.87V159.46C86.35,159.46,88.62,162.08,88.62,165.32Z" transform="translate(0 0.4)"/><path class="cls-22" d="M83.53,161.07c-2,0-3.53,1.9-3.53,4.25s1.58,4.25,3.53,4.25,3.52-1.91,3.52-4.25S85.47,161.07,83.53,161.07Zm0,7.27a3.59,3.59,0,0,1,0-7.06c1.62,0,2.93,1.58,2.93,3.53S85.15,168.34,83.53,168.34Z" transform="translate(0 0.4)"/><ellipse class="cls-23" cx="83.53" cy="165.21" rx="2.93" ry="3.53"/><path class="cls-24" d="M83.53,162.19a1.33,1.33,0,1,0,1.09,1.31A1.22,1.22,0,0,0,83.53,162.19Z" transform="translate(0 0.4)"/><path class="cls-10" d="M67.06,184.87,65.71,174l-.7-5.74-.06-.45s-3.61-14.26-9-18c0,0-6.63,5.76-6.63,8.19a157.65,157.65,0,0,0-3.5,46.92Z" transform="translate(0 0.4)"/><path class="cls-3" d="M45.73,203.35s.56-11.54,8-15.91l12.85-6.59.5,4-5.5,10.72-6.55,7-4.21,1.94" transform="translate(0 0.4)"/><path class="cls-3" d="M52.48,185.88s7.39-8.27,13-4.33L67,184.37l-2.65-2.12A24.31,24.31,0,0,0,52.48,185.88Z" transform="translate(0 0.4)"/><path class="cls-3" d="M72.69,181.59s1.85-.83.22-1l-1.64-.13s-4.61,2.29-4.21,2.89,0,.54,0,.54Z" transform="translate(0 0.4)"/><polygon class="cls-3" points="81.03 203.75 73.58 207.46 73.94 208.61 78.58 208.01 80.22 205.77 81.03 203.75"/><path class="cls-10" d="M79.91,204.81a4.85,4.85,0,0,1-4.52,1.94,7.48,7.48,0,0,1-3.65-1.86s-3.58-2.51-5.23-9c-1.39-6.68.42-10.57,2.3-12.71a8.77,8.77,0,0,1,3.08-2.3,4.35,4.35,0,0,1,.55.13,8.85,8.85,0,0,1,2.24,1h0a8.51,8.51,0,0,1,1.7,1.44,10.41,10.41,0,0,0-.83-1.21,10.82,10.82,0,0,0-1.46-1.54c-1.4-1.18-3.31-2-5.42-.76L52.4,189.77s-6.44,9.3-6.56,15.12c0,0,.74,8.9,9,9.4,0,0,16.73-1.83,22.11-5.17,0,0,3.92-1,5-6.33a12.77,12.77,0,0,0,.26-2.18A13.29,13.29,0,0,1,79.91,204.81Z" transform="translate(0 0.4)"/><path class="cls-15" d="M78.41,184.05a20.1,20.1,0,0,1,4.82,14.21L82,202.79l-5,1.74-5.6-1.67-3.6-10.58,3.53-10.07,2.32-.88,2.84.41Z" transform="translate(0 0.4)"/><polyline class="cls-18" points="75.94 194.72 67.72 198.77 67.02 193.14 74.79 190.45"/><path class="cls-16" d="M83.23,198.26A9,9,0,0,1,82,202.79a6,6,0,0,1-2,2,4,4,0,0,1-1,.47,15.5,15.5,0,0,1-3.51,1.47,7.48,7.48,0,0,1-3.65-1.86s-3.58-2.51-5.23-9c-1.39-6.68.42-10.57,2.3-12.71l3.24-2a2.4,2.4,0,0,1,.39-.2,3.18,3.18,0,0,1,1.66-.32c2.42.22,4.2,3.22,4.31,3.41a6.77,6.77,0,0,0-2.85-1.87,5.83,5.83,0,0,0-.86-.24h0c-.41.16-6.42,2.76-4.41,12.37,1.36,5.4,4.31,7.48,4.31,7.48C80.59,206.84,83.23,198.26,83.23,198.26Z" transform="translate(0 0.4)"/><path class="cls-17" d="M77.42,183.45a2.94,2.94,0,0,1,1.17,2.14.94.94,0,0,0,.26.44c.12.21.52.25.52.25a1.36,1.36,0,0,0,.56-.07,6,6,0,0,1,4,.5,14,14,0,0,1,2.21-.13c.36.44-.2,1.2-.57,1.6,1,.5-.76,2-.76,2-.91,1.93-3.71,2.56-3.71,2.56a6.57,6.57,0,0,1-1.89.57,4.88,4.88,0,0,1-.79.07,1.86,1.86,0,0,1-.67,0l-.08,0h0a5.47,5.47,0,0,1-2.83-3.3,10.28,10.28,0,0,1,.42-1.66,7.92,7.92,0,0,1,.42-.94h0Z" transform="translate(0 0.4)"/><path class="cls-18" d="M85.53,188.18s-1.35,1.92-2.28,2A18.37,18.37,0,0,1,85.53,188.18Z" transform="translate(0 0.4)"/><path class="cls-18" d="M84.77,190.19S82.88,192,82.16,192Z" transform="translate(0 0.4)"/><path class="cls-18" d="M75.21,188.39a10.31,10.31,0,0,0,4,4.93,4.88,4.88,0,0,1-.79.07,1.86,1.86,0,0,1-.67,0h-.1l-1.67,1a33,33,0,0,1-1.17-4.11h0s0-.09,0-.15A10.28,10.28,0,0,1,75.21,188.39Z" transform="translate(0 0.4)"/><path class="cls-16" d="M118.56,88.92c-.19,2.81-.4,5.42-.63,7.86.22.17.45.36.67.51l4.17.14c1.9-5.51,4-22.75,4-22.75.4-2.59.81-5,1.24-7.39q-3.11-2.27-6.24-4.2A217.68,217.68,0,0,0,118.56,88.92Z" transform="translate(0 0.4)"/><path class="cls-16" d="M80.18,71A137.33,137.33,0,0,1,92.83,51a107.44,107.44,0,0,0-26.62-3.18A113.86,113.86,0,0,0,54.55,66.63L87,84.28l2.9,1c-.77-2.83-1.21-4.61-1.21-4.61Z" transform="translate(0 0.4)"/><path class="cls-10" d="M159.66,17.19c-10.44-6.14-24.46-6.67-24.46-6.67-33.47-1.3-56.38,20.45-69,37.25,12.59-.12,38.06,2.16,61.77,19.52,3.7-20.56,8.31-32.41,10-36.33a17.64,17.64,0,0,1,7.17-6,17.37,17.37,0,0,1,4.45-1.16l.3,0a15.58,15.58,0,0,1,4.31.07,12.58,12.58,0,0,1,5.92,1.85h0S165.05,23.09,159.66,17.19Z" transform="translate(0 0.4)"/><path class="cls-3" d="M92.83,51a101.15,101.15,0,0,1,28.91,12.14c8.72-45.46,29.42-42.46,37.07-39.1C130.42,9.86,106.53,32.86,92.83,51Z" transform="translate(0 0.4)"/><path class="cls-15" d="M80.18,71l8.51,9.72s.44,1.78,1.21,4.61c5.06,1.78,15.71,5.42,23.41,7.36a50.7,50.7,0,0,0,4.62,4.11c.23-2.44.44-5,.63-7.86a217.68,217.68,0,0,1,3.18-25.83A101.15,101.15,0,0,0,92.83,51,137.33,137.33,0,0,0,80.18,71Z" transform="translate(0 0.4)"/><path class="cls-3" d="M170.73,34.22c-.3-8.16-5.11-13.51-11.07-17,5.4,5.89.51,8.46.51,8.46h0a9.84,9.84,0,0,1,2.6,2.37l.1.14c.14.21.27.4.4.61l0,0a13.72,13.72,0,0,1,.24,14.66,12.35,12.35,0,0,1-2,2.65s-.55,1.93,5-2.16A16,16,0,0,0,170.73,34.22Z" transform="translate(0 0.4)"/><path class="cls-17" d="M99.8,123.2a8.48,8.48,0,0,0,.51-2.4,26.09,26.09,0,0,1-4.82-1.6,26.12,26.12,0,0,1-7.5,1.93c-12.3,1.21-20.47-7.88-22.5-10.43-.33-.41-.5-.65-.5-.65,2.16,12.42,8.58,13.86,9.71,14l.18,0-.18,0c-16.32-1.42-17.23-14.45-17.11-18.54,0,.28,0,.55,0,.83l0,.13v.39c0-.12,0-.24-.05-.36-1.33,24,8.44,26.76,8.44,26.76a11.51,11.51,0,0,1-8.07-5.58c1.92,5.83,7.4,14.16,23.1,15,0,0,12.46-.09,19.4-8.07C98.4,130,99.8,123.2,99.8,123.2Z" transform="translate(0 0.4)"/><path class="cls-25" d="M43,101.32S4.52,93.92.2,76.81c0,0-2.65-10,11.47-13.07,0,0,33.35-3.81,66.75,4,0,0,22.59,4.73,40.47,18.44a190,190,0,0,0,23.64,8.38s26.76,8.29,32.62,21.42c0,0,3,8.7-23,5.89,0,0-42.09-4.12-72.39-12.9" transform="translate(0 0.4)"/><path class="cls-18" d="M109,109.62l-20-8.4L56,99.53l-2.27,1.29L56.88,122a19.58,19.58,0,0,0,1,5.72A11.51,11.51,0,0,0,66,133.28s-9.77-2.73-8.44-26.76c0,.12,0,.24.05.36v-.39l0-.13c0-.28,0-.55,0-.83-.12,4.09.79,17.12,17.11,18.54-1.13-.16-7.55-1.6-9.71-14,0,0,.17.24.5.65,2,2.55,10.2,11.64,22.5,10.43a26.12,26.12,0,0,0,7.5-1.93,26.09,26.09,0,0,0,4.82,1.6,8.48,8.48,0,0,1-.51,2.4s-1.4,6.75.61,11.48a17.66,17.66,0,0,0,2.85-4.49C108.69,117.73,109,109.62,109,109.62Z" transform="translate(0 0.4)"/><path class="cls-2" d="M55.59,144.93c0-.07,0-.14,0-.22h0C55.58,144.79,55.59,144.86,55.59,144.93Z" transform="translate(0 0.4)"/><path class="cls-2" d="M56,151q.12.33.24.6Q56.1,151.32,56,151Z" transform="translate(0 0.4)"/><path class="cls-2" d="M55.33,148.7c.06.22.12.41.18.6C55.45,149.11,55.39,148.92,55.33,148.7Z" transform="translate(0 0.4)"/><path class="cls-2" d="M55.59,143.53c0-.18,0-.34,0-.53C55.6,143.19,55.6,143.35,55.59,143.53Z" transform="translate(0 0.4)"/><path class="cls-2" d="M55.59,140.92c0-.16,0-.32.06-.49C55.62,140.6,55.61,140.76,55.59,140.92Z" transform="translate(0 0.4)"/><path class="cls-2" d="M55,146.72c0,.19.05.36.07.55C55,147.08,55,146.91,55,146.72Z" transform="translate(0 0.4)"/><path class="cls-2" d="M55.12,147.79c0,.21.08.39.13.58C55.2,148.18,55.16,148,55.12,147.79Z" transform="translate(0 0.4)"/><path class="cls-26" d="M108.83,142.42c0-.52-.09-.89-.09-.89a5.55,5.55,0,0,0,0-1.64c-.54-3-4.24-2.1-4.24-2.1a31.31,31.31,0,0,1,.87,10.17,55.85,55.85,0,0,1,3.38-6.43,9.72,9.72,0,0,1-3.45,7.25c-.05.53.3,2.31.22,2.87,1.83-2.08,3-3.57,3-3.57C109.35,147,108.92,143.61,108.83,142.42Z" transform="translate(0 0.4)"/><polygon class="cls-27" points="53 144.77 53 144.77 53 144.77 53 144.77"/><path class="cls-27" d="M55.58,144.71h0c0-.11,0-.2,0-.31C55.57,144.51,55.58,144.6,55.58,144.71Z" transform="translate(0 0.4)"/><path class="cls-14" d="M108.74,141.53a55.85,55.85,0,0,0-3.38,6.43c0,.27,0,.54-.07.82A9.72,9.72,0,0,0,108.74,141.53Z" transform="translate(0 0.4)"/><path class="cls-28" d="M74.54,152a15.26,15.26,0,0,0-9.28,4.62c2.84,1.37,8.85.53,13.74,1.73C76.53,155.73,74.9,154.2,74.54,152Z" transform="translate(0 0.4)"/><path class="cls-27" d="M74.32,150.14l-1.51.57a26.54,26.54,0,0,0-7.55,5.86A15.26,15.26,0,0,1,74.54,152C74.36,150.86,74.32,150.14,74.32,150.14Z" transform="translate(0 0.4)"/><path class="cls-28" d="M79.65,147.79c.08.19.15.4.24.58l-.14,0,.29-.05a4.47,4.47,0,0,1-.05-.71Z" transform="translate(0 0.4)"/><path class="cls-14" d="M79.75,148.4c-.57.16-2.79.77-5.43,1.74,0,0,0,.72.22,1.81a29.68,29.68,0,0,1,6.47-.27,13.58,13.58,0,0,1-1-3.33Z" transform="translate(0 0.4)"/><path class="cls-27" d="M92.17,150.4l-2.13-1a21.14,21.14,0,0,0-10-1.07,13.58,13.58,0,0,0,1,3.33,39,39,0,0,1,7.77,1.25c3,.94,4.52.86,5.31.45A17.79,17.79,0,0,0,92.17,150.4Z" transform="translate(0 0.4)"/><path class="cls-26" d="M92.17,150.4l1.11.42a24.77,24.77,0,0,0-3.24-1.4l2.13,1Z" transform="translate(0 0.4)"/><path class="cls-26" d="M96.68,137.17a53.19,53.19,0,0,1-6.32.51c.38,4.65.49,9.66-.53,11.65l.21.09a24.77,24.77,0,0,1,3.24,1.4c1.8.68,3.26,1.31,4.33,1.81,0-1.54.11-6.55-.17-11.67a5.06,5.06,0,0,1-1-.51S95.43,138.28,96.68,137.17Z" transform="translate(0 0.4)"/><path class="cls-14" d="M96.68,137.17c-1.25,1.11-.29,3.28-.29,3.28a5.06,5.06,0,0,0,1,.51c-.08-1.3-.17-2.6-.3-3.86Z" transform="translate(0 0.4)"/><path class="cls-14" d="M94.09,153.38a1.52,1.52,0,0,0,.76-1.72l-2.68-1.26A17.79,17.79,0,0,1,94.09,153.38Z" transform="translate(0 0.4)"/><path class="cls-26" d="M97.61,152.63c0,.3,0,.48,0,.48a21.74,21.74,0,0,0-2.75-1.45,1.52,1.52,0,0,1-.76,1.72,7.64,7.64,0,0,1,1.26,4.54c1.57-1.17,3.43-1.08,4.84-2.41l-.37-1.8S99.05,153.28,97.61,152.63Z" transform="translate(0 0.4)"/><path class="cls-26" d="M93.28,150.82l-1.11-.42h0l2.68,1.26h0C94.32,151.35,93.8,151.08,93.28,150.82Z" transform="translate(0 0.4)"/><path class="cls-27" d="M62.47,136.61l1.78-.37-2,.4Z" transform="translate(0 0.4)"/><path class="cls-28" d="M60.84,155h0c1.39,1,3.29,1,4.42,1.56,0,0-2.15-2.41-4.67-5.09C60.77,152.37,60.51,154.15,60.84,155Z" transform="translate(0 0.4)"/><path class="cls-28" d="M72.76,150.73a48.82,48.82,0,0,1,.1-15.35c-1.56-.06-3.16-.06-4.7,0-1.43.33-2.77.63-3.9.87h0l-1.78.37h0a29.21,29.21,0,0,0-2.24,11.85,2.73,2.73,0,0,1,.55.76s4.67,5.63,4.48,7.35a26.54,26.54,0,0,1,7.55-5.86Z" transform="translate(0 0.4)"/><path class="cls-27" d="M60.78,149.22a2.73,2.73,0,0,0-.55-.76,19.58,19.58,0,0,0,.36,3c2.52,2.68,4.67,5.09,4.67,5.09C65.45,154.85,60.78,149.22,60.78,149.22Z" transform="translate(0 0.4)"/><path class="cls-28" d="M56.22,151.59q-.12-.27-.24-.6c0-.05-.45-1.64-.47-1.69s-.12-.38-.18-.6a3.18,3.18,0,0,1-.08-.33c0-.19-.09-.37-.13-.58s0-.35-.08-.52,0-.36-.07-.55.63-1.55.62-1.79c0-.07,0-.14,0-.22-.85-.76-2.2-.21-2.58-.34.07,1.47,3.22,7.3,3.22,7.3v-.08Z" transform="translate(0 0.4)"/><path class="cls-27" d="M55.56,144.4c0-.09,0-.19,0-.28a3.43,3.43,0,0,0-2.57.25h0c.38.13,1.73-.42,2.58.34C55.58,144.6,55.57,144.51,55.56,144.4Z" transform="translate(0 0.4)"/><polygon class="cls-26" points="64.26 136.64 64.26 136.64 64.25 136.64 64.26 136.64"/><path class="cls-26" d="M62.25,136.64l-1.48.3,1.7-.33Z" transform="translate(0 0.4)"/><path class="cls-26" d="M60.77,136.88v.06l0-.06Z" transform="translate(0 0.4)"/><path class="cls-26" d="M60.8,136.88l0,.06.13-.08Z" transform="translate(0 0.4)"/><path class="cls-26" d="M60.9,136.86l-.13.08,1.48-.3Z" transform="translate(0 0.4)"/><path class="cls-26" d="M94.85,151.66h0a21.74,21.74,0,0,1,2.75,1.45s0-.18,0-.48c-1.07-.5-2.53-1.13-4.33-1.81C93.8,151.08,94.32,151.35,94.85,151.66Z" transform="translate(0 0.4)"/><path class="cls-26" d="M74.54,152c.36,2.25,2,3.78,4.46,6.35h0c1.58.39,3.12.74,4.51,1.06,1.81.4,3-.66,4.1-.43-1.39-2-4.94-3.19-6.6-7.25A29.68,29.68,0,0,0,74.54,152Z" transform="translate(0 0.4)"/><polygon class="cls-26" points="79 158.7 79 158.7 79 158.7 79 158.7"/><path class="cls-26" d="M76.62,149.12a24.48,24.48,0,0,0-3.81,1.59l1.51-.57h0Z" transform="translate(0 0.4)"/><path class="cls-29" d="M79.65,147.79l-3,1.33a21.67,21.67,0,0,1,3.13-.72l.14,0C79.8,148.19,79.73,148,79.65,147.79Z" transform="translate(0 0.4)"/><path class="cls-29" d="M76.62,149.12l-2.3,1h0c2.64-1,4.86-1.58,5.43-1.74A21.67,21.67,0,0,0,76.62,149.12Z" transform="translate(0 0.4)"/><path class="cls-26" d="M79.65,147.79c-1.21-2.95-.83-7.87-.28-11.52a28.92,28.92,0,0,0-6.51-.89,48.82,48.82,0,0,0-.1,15.35l0,0a24.48,24.48,0,0,1,3.81-1.59Z" transform="translate(0 0.4)"/><path class="cls-28" d="M105.08,148.94a5.08,5.08,0,0,1,.28-1,31.31,31.31,0,0,0-.87-10.17s-3.26,4.54-7,3.17c.28,5.12.21,10.13.17,11.67,1.44.65,2.21,1.08,2.21,1.08l.37,1.8c.79-.75,1.88-1.32,2.59-2,1-1,2-.94,2.73-1.81.08-.56-.27-2.34-.22-2.87Z" transform="translate(0 0.4)"/><path class="cls-27" d="M97.14,137.1c.13,1.26.22,2.56.3,3.86,3.79,1.37,7-3.17,7-3.17a20.08,20.08,0,0,0-5-1.23A20.14,20.14,0,0,1,97.14,137.1Z" transform="translate(0 0.4)"/><path class="cls-27" d="M105.29,148.78c0-.28,0-.55.07-.82a5.08,5.08,0,0,0-.28,1Z" transform="translate(0 0.4)"/><path class="cls-26" d="M60.59,151.48c-1.94-2.06-3.43-5.36-5-6.77,0,.08,0,.15,0,.22,0,.24-.64,1.57-.62,1.79s.05.36.07.55.05.36.08.52.08.39.13.58a3.18,3.18,0,0,0,.08.33c.06.22.12.41.18.6S56,150.94,56,151c.08.22.07.25.15.43l.06.12,0,.13.32.24c.78.6,2.05,1.58,4.3,3.1h0C60.51,154.15,60.77,152.37,60.59,151.48Z" transform="translate(0 0.4)"/><path class="cls-14" d="M55.56,144.4c0,.11,0,.2,0,.31,1.58,1.41,3.07,4.71,5,6.77a19.58,19.58,0,0,1-.36-3c-1.15-1.19-2.93-3.54-4.66-4.34C55.57,144.21,55.56,144.31,55.56,144.4Z" transform="translate(0 0.4)"/><path class="cls-26" d="M55.25,148.37a3.18,3.18,0,0,0,.08.33A3.18,3.18,0,0,1,55.25,148.37Z" transform="translate(0 0.4)"/><path class="cls-26" d="M55.59,143.53c0,.2,0,.4,0,.59h0C55.58,143.93,55.59,143.73,55.59,143.53Z" transform="translate(0 0.4)"/><path class="cls-26" d="M55,147.27c0,.17.05.36.08.52C55.09,147.63,55.07,147.44,55,147.27Z" transform="translate(0 0.4)"/><path class="cls-26" d="M56.22,151.67" transform="translate(0 0.4)"/><path class="cls-26" d="M55.51,149.3S56,150.94,56,151,55.53,149.35,55.51,149.3Z" transform="translate(0 0.4)"/><path class="cls-26" d="M55.62,143c0-.34-.08-1.71,0-2.08C55.54,141.29,55.64,142.66,55.62,143Z" transform="translate(0 0.4)"/><path class="cls-26" d="M55.59,144.93c0,.24-.64,1.57-.62,1.79C55,146.5,55.6,145.17,55.59,144.93Z" transform="translate(0 0.4)"/><path class="cls-26" d="M55.57,144.12c0,.09,0,.19,0,.28,0-.09,0-.19,0-.28Z" transform="translate(0 0.4)"/><path class="cls-28" d="M90.36,137.68l-1.6,0a48.32,48.32,0,0,1-7.89-.92h0a11.44,11.44,0,0,0-1.5-.53c-.55,3.65-.93,8.57.28,11.52l.34-.15a4.47,4.47,0,0,0,.05.71,21.14,21.14,0,0,1,10,1.07l-.21-.09C90.85,147.34,90.74,142.33,90.36,137.68Z" transform="translate(0 0.4)"/><path class="cls-28" d="M95.35,157.92a7.64,7.64,0,0,0-1.26-4.54c-.79.41-2.32.49-5.31-.45A39,39,0,0,0,81,151.68c1.66,4.06,5.21,5.23,6.6,7.25a1.4,1.4,0,0,0,.5,0A27.93,27.93,0,0,0,95.35,157.92Z" transform="translate(0 0.4)"/><path class="cls-26" d="M56,151a5.26,5.26,0,0,0,.25.72l.12-.11Z" transform="translate(0 0.4)"/><path class="cls-26" d="M62.46,136.61l-.11,0-.11,0A12.62,12.62,0,0,0,57,137.92l-.23.13v0a3.05,3.05,0,0,0-.74.64,16.15,16.15,0,0,0-.35,1.64.25.25,0,0,0,0,.07c0,.18,0,.33-.06.5-.06.37,0,1.74,0,2.08,0,.19,0,.35,0,.53a5.82,5.82,0,0,0,0,.59c1.73.8,3.5,3.14,4.65,4.34A29.3,29.3,0,0,1,62.46,136.61Z" transform="translate(0 0.4)"/><path class="cls-28" d="M54.68,140.67a28.63,28.63,0,0,0-1.68,3.7,3.45,3.45,0,0,1,2.58-.25,5.82,5.82,0,0,1,0-.59c0-.18,0-.34,0-.53,0-.34-.08-1.71,0-2.08,0-.17,0-.32.06-.5a.25.25,0,0,1,0-.07,16.15,16.15,0,0,1,.35-1.64A11.81,11.81,0,0,0,54.68,140.67Z" transform="translate(0 0.4)"/><path class="cls-30" d="M126.45,108.79h0l-.09-.07c-.19-.16-.36-.32-.56-.47l-.14,0c-.39-.28-.76-.58-1.13-.88h0c-6.31-2.18-18.16-5.77-18.16-5.77-41-8.7-60.86-1.72-65.48.33-1,2.78-1.68,4.88-1.82,5.33-.17,1.55-.31,3.15-.38,4.89a6.26,6.26,0,0,1-1.78,4.06s-8.11,7-5.74,17.1c0,0,.69,7.62,8.11,10.09,0,0-8.7-6.33-3.56-16.71,0,0-1.78,18.29,15.23,19a10.4,10.4,0,0,1-6-4.66h0v0a8.12,8.12,0,0,1-.88-4.2s-.89-3.26,1.48-9.39c0,0-1.66,13.91,8.07,17.31a17.31,17.31,0,0,0,6.66.29s-3.66-.79-3-5.24c0,0,3.57-4.92,2.85-9h0a.59.59,0,0,1,0-.13,3.91,3.91,0,0,0-.19-.7.08.08,0,0,0,0,0h0a19.64,19.64,0,0,0-1.85-3.39A15.21,15.21,0,0,1,56.88,122a11.57,11.57,0,0,0,9.1,7.91s-10.05-2.79-8.39-27.75c-.12,4.08.79,17.12,17.11,18.54-1.13-.16-7.55-1.6-9.71-14A38.68,38.68,0,0,1,65,98s4.56,18.78,23,19.79a26.12,26.12,0,0,0,7.5-1.93,26.09,26.09,0,0,0,4.82,1.6,8.48,8.48,0,0,1-.51,2.4s-3.12,15,6.57,16c0,0,2.57,7.12-2.77,9.7,0,0,5.94,1.38,10.48-4.95a25.72,25.72,0,0,0,6.23-5.05c6.31-10.61-.63-23.62-2-26-.07-.13-.16-.26-.22-.38l.22.38c1.9,3.11,7,7.21,7,7.21s9.39,6.53,4.64,17C130,133.7,140.19,120.43,126.45,108.79Z" transform="translate(0 0.4)"/><path class="cls-18" d="M74.7,124.07l.18,0Z" transform="translate(0 0.4)"/><path class="cls-9" d="M74.7,120.68l.18,0Z" transform="translate(0 0.4)"/><path class="cls-9" d="M57.58,103.09S55,95.38,58.66,88.86s0,2.86,0,2.86a22.1,22.1,0,0,0-1.07,11.77" transform="translate(0 0.4)"/><path class="cls-30" d="M65.49,107.31l-.5-.66S65.16,106.9,65.49,107.31Z" transform="translate(0 0.4)"/><path class="cls-9" d="M65,98a38.68,38.68,0,0,0,0,8.7l.5.66c2,2.55,10.2,11.64,22.5,10.43C69.55,116.73,65,98,65,98Z" transform="translate(0 0.4)"/><path class="cls-9" d="M57.28,139.68s-1.53-8.21,1.21-9.29c0,0,.82.59,0,3.36A10.34,10.34,0,0,0,57.28,139.68Z" transform="translate(0 0.4)"/><path class="cls-9" d="M35.72,126.63s.49-5.14,4.65-7.71A22.89,22.89,0,0,0,35.72,126.63Z" transform="translate(0 0.4)"/><path class="cls-9" d="M106.37,135.77s-1-7-3.91-10.72c0,0-1.87.89.5,4.45A24.21,24.21,0,0,1,106.37,135.77Z" transform="translate(0 0.4)"/><path class="cls-9" d="M95.49,115.81s-12.11-5-12.9-13.21c0,0,1.12-1.42,2.87,3.26C85.46,105.86,86.73,111.71,95.49,115.81Z" transform="translate(0 0.4)"/><path class="cls-9" d="M100.31,117.41A51.35,51.35,0,0,0,97.82,98S103.88,105.63,100.31,117.41Z" transform="translate(0 0.4)"/><path class="cls-2" d="M44.91,140.91l-.88-4.2A8.12,8.12,0,0,0,44.91,140.91Z" transform="translate(0 0.4)"/><path class="cls-9" d="M44.92,140.94h0s0,0,0,0Z" transform="translate(0 0.4)"/><path class="cls-9" d="M45.51,127.32c-2.37,6.13-1.48,9.39-1.48,9.39a14.52,14.52,0,0,0,9.55,7.92C43.85,141.23,45.51,127.32,45.51,127.32Z" transform="translate(0 0.4)"/><path class="cls-9" d="M118.31,109.48l-.22-.38C118.15,109.22,118.24,109.35,118.31,109.48Z" transform="translate(0 0.4)"/><path class="cls-9" d="M118.31,109.48c1.37,2.37,8.31,15.38,2,26a20.17,20.17,0,0,0,5-18.78S120.21,112.59,118.31,109.48Z" transform="translate(0 0.4)"/><path class="cls-9" d="M114.08,140.52s4.6-6.77,2-12.71C116.11,127.81,121.75,132,114.08,140.52Z" transform="translate(0 0.4)"/><path class="cls-2" d="M118.31,109.48l-.22-.38C118.15,109.22,118.24,109.35,118.31,109.48Z" transform="translate(0 0.4)"/><path class="cls-9" d="M51.58,84.64c-1.36.23-2.72.47-4.09.75,0,0-6.64,5.87-8.42,21.81C39.48,105.83,44.35,89.7,51.58,84.64Z" transform="translate(0 0.4)"/><path class="cls-9" d="M56.88,122s-5.37-8.44-2.76-14.67c0,0-1.21,3.76,2.92,15.17" transform="translate(0 0.4)"/><path class="cls-9" d="M118.09,109.1s-5-7.1-6.13-13.18a5.82,5.82,0,0,0-2.18-2.32s1.94,6.35,8.53,15.88" transform="translate(0 0.4)"/><path class="cls-2" d="M118.31,109.48l-.22-.38C118.15,109.22,118.24,109.35,118.31,109.48Z" transform="translate(0 0.4)"/><path class="cls-9" d="M106.37,101.54s11.85,3.59,18.16,5.77h0a46.71,46.71,0,0,1-8.94-10.07h0c-1-1.69,1.15.52-1-1.69,0,0-31.31-16.11-63.06-10.92C46.76,88,43,96.31,40.89,101.87,45.51,99.82,65.37,92.84,106.37,101.54Z" transform="translate(0 0.4)"/><path class="cls-31" d="M63.3,117s5.81-1.17,9.23.43c0,0,1,1.13,1,1.6L62,118.72Z" transform="translate(0 0.4)"/><ellipse class="cls-31" cx="68.37" cy="121.69" rx="3.1" ry="4.4"/><path class="cls-31" d="M99.49,117s-5.81-1.17-9.23.43c0,0-1,1.13-1,1.6l11.57-.3Z" transform="translate(0 0.4)"/><ellipse class="cls-31" cx="94.42" cy="121.69" rx="3.1" ry="4.4"/><path class="cls-3" d="M64.49,167s.42-6.74-3-8.12l.45,2.41S64.51,165.31,64.49,167Z" transform="translate(0 0.4)"/><path class="cls-3" d="M64.49,167s2-.38,2.37-3.85c0,0,.24-1.79,1.32-1.86a6.35,6.35,0,0,0,0,1.86s-3.21,4.48-2.8,5.71Z" transform="translate(0 0.4)"/><path class="cls-32" d="M175.15,116c-5.86-13.13-32.62-21.42-32.62-21.42a179.78,179.78,0,0,1-17.81-6c1.14-6.63,2-13.94,2-13.94.4-2.59.81-5,1.24-7.39,3.7-20.56,8.31-32.41,10-36.33a17.64,17.64,0,0,1,7.17-6,17.37,17.37,0,0,1,4.45-1.16l.3,0a15.58,15.58,0,0,1,4.31.07,12.58,12.58,0,0,1,5.92,1.85h0a9.84,9.84,0,0,1,2.6,2.37l.1.14c.14.21.27.4.4.61l0,0a13.72,13.72,0,0,1,.24,14.66,12.35,12.35,0,0,1-2,2.65s-.55,1.93,5-2.16a16,16,0,0,0,4.16-9.76c-.3-8.16-5.1-13.51-11.06-17h0c-10.44-6.14-24.46-6.67-24.46-6.67-33.47-1.3-56.38,20.45-69,37.25A121.39,121.39,0,0,0,55.85,64a225.8,225.8,0,0,0-44.18-.3C-2.45,66.78.2,76.81.2,76.81c3.6,14.26,31,21.78,40,23.89a57.78,57.78,0,0,0-1.09,6.5c-.17,1.55-.31,3.15-.38,4.89a6.26,6.26,0,0,1-1.78,4.06s-8.11,7-5.74,17.1c0,0,.69,7.62,8.11,10.09,0,0-8.7-6.33-3.56-16.71,0,0-1.78,18.29,15.23,19a10.4,10.4,0,0,1-6-4.66s0,0,0,0l-.88-4.2a14.59,14.59,0,0,0,9,7.75c.12,1.07,1.54,4,2.45,5.77-1.52,1.38-6.13,5.72-6.13,7.74a157.72,157.72,0,0,0-3.6,45.35v0h0c0,.52.06,1,.1,1.54h0s.51,6,5.3,8.43c-.39,1.37-.82,2.91-1.28,4.59-.23.82-.46,1.67-.7,2.55a.65.65,0,0,0,0,.13c-4.8,17.59-12.23,46.33-11,51.7,0,0,16.3,15.08,27.64,22a24.24,24.24,0,0,0-.85,5.18,163.23,163.23,0,0,0-.14,17.62h0l-1.1,2-1.13,8.27a23.52,23.52,0,0,0,1.38,4.41,18.23,18.23,0,0,0,1.38,2.71l.37.6c2.06,3,5.33,5.47,10.34,4.06,0,0,4.39-1.31,2.51-8.35,0,0-1.82-4.75-2.88-8.23l-.72-2.86-1.18-1.94c.2-3.15.67-9.67,1.44-15a34.4,34.4,0,0,1,1.49-6.72s1.12-5.52,2-12c.21-1.65.4-3.37.55-5.08a16.18,16.18,0,0,0,2.9,0v-1.81l2.49.11c.38,2.5.88,5.07,1.41,7.51,1.4,6.41,3,11.81,3,11.81a35.57,35.57,0,0,1,2.14,6.85c1.22,5.17,2.24,11.45,2.71,14.51,0,.16,0,.3.06.44l-.06-.44-1,2-.46,2.92c-.75,3.56-2.14,8.45-2.14,8.45-1.24,7.18,3.25,8.1,3.25,8.1,5.12.95,8.15-1.77,9.93-5,.11-.2.21-.42.32-.62a18.33,18.33,0,0,0,1.13-2.83,23.33,23.33,0,0,0,1-4.52L104,318.35l-1.28-1.87c0,.19,0,.37,0,.55,0-.18,0-.36,0-.55a153.17,153.17,0,0,0-1.57-16.57,34.44,34.44,0,0,0-3.27-10.67c0-.12,0-.26-.07-.4-.39-2.38-.16-7.87.1-12,1.16-.15,2.27-.32,3.31-.55.45-.09.88-.2,1.29-.31.76,8.94,1.05,16.69.52,21.79,0,0,22-16.94,28.11-25.47a314.55,314.55,0,0,0-8.7-35.55l.28-.11h0c0-.85-.12-2.06-.23-3.51a12.49,12.49,0,0,0,7.08-2.89h0c1.09-1.08,4-2.22,5.25-2.68l.59-.21A13,13,0,0,0,142,225a5,5,0,0,0,.2-.49c1.24-3.46-.9-8.71-.9-8.71a21.61,21.61,0,0,1-.61-3.69l.06-.75s0,.11,0,.28a27.15,27.15,0,0,0-.05-4.1c-.25-3.38-.85-6.83-.85-6.83s0-.26-.06-.39a33.71,33.71,0,0,0-5.85-13.4,54.82,54.82,0,0,0-4-5.1,47.6,47.6,0,0,0-4.15-4.19,26.83,26.83,0,0,1-4-4.06c-1.42-1.65-2.93-3.56-4.32-5.38l-1.45-1.93a82.69,82.69,0,0,0-1.87-8.31c0-.93-1.14-2.41-2.53-3.88a11.67,11.67,0,0,0-.77-1.68,13.12,13.12,0,0,0-2.93-3.51l.65-.83c.51-.64.57-2,.52-3.32a12.08,12.08,0,0,0,5.09-4.24,25.72,25.72,0,0,0,6.23-5.05,20.15,20.15,0,0,0,5.38-17l2,.3A13.14,13.14,0,0,1,130,133.7s4.86-6.33,3.34-14.09c11.15,1.55,18.82,2.3,18.82,2.3C178.11,124.72,175.15,116,175.15,116ZM39.27,106.55c.28-.91.83-2.6,1.61-4.66C40.1,104,39.55,105.64,39.27,106.55Zm1.62-4.69c.11-.3.23-.6.35-.92h0Zm24.6,220.19a11.73,11.73,0,0,1-.33-1.38,11.73,11.73,0,0,0,.33,1.38v0Zm35.91,2.34.16.08.07,0h0c.06-.17.11-.35.16-.51,0,.17-.1.34-.16.52l-.1-.06h0l-.17-.08Zm18.62-119a21.18,21.18,0,0,1,.92,2c.31,1,.64,2.06,1,3.22a1.42,1.42,0,0,0,0,.2,17.92,17.92,0,0,1,.34,6,2.91,2.91,0,0,1-.54,1.84,4.46,4.46,0,0,1-.61.73c-.48-4.86-1-10-1.49-14.65ZM73.68,318.13c-.06,1-.09,1.55-.09,1.55h0S73.62,319.1,73.68,318.13ZM57,145.08a25.51,25.51,0,0,1,2.24,2.3h0a24.35,24.35,0,0,0-2.25-2.3ZM66.56,325h0l-.1.06-.08-.2.09.2h0l.08-.05h0Zm8.17-1Zm0,0Zm-.52-2.27a1.6,1.6,0,0,0,.05.21l-.06-.21Zm.73,3.67h0c.72,5.85-2.17,5.56-2.17,5.56a9.65,9.65,0,0,1-5.69-4.7,2.12,2.12,0,0,1,.21-.11l-.2.11a9.62,9.62,0,0,0,5.68,4.7S75.66,331.25,74.94,325.43Zm18.71-3.51h0c0,.18-.07.36-.1.55l0,.18Zm-.31,2.26v.05h0Zm7.8,1.62-.22-.1a2,2,0,0,0,.22.09A9.65,9.65,0,0,1,95.9,331s-2.86.54-2.66-5.35h0C93.05,331.5,95.9,331,95.9,331A9.62,9.62,0,0,0,101.14,325.8Zm5.6-188,.08-.12,0,.15Z" transform="translate(0 0.4)"/><path class="cls-33" d="M175.15,116c-5.86-13.13-32.62-21.42-32.62-21.42a179.78,179.78,0,0,1-17.81-6c1.14-6.63,2-13.94,2-13.94.4-2.59.81-5,1.24-7.39,3.7-20.56,8.31-32.41,10-36.33a17.64,17.64,0,0,1,7.17-6,17.37,17.37,0,0,1,4.45-1.16l.3,0a15.58,15.58,0,0,1,4.31.07,12.58,12.58,0,0,1,5.92,1.85h0a9.84,9.84,0,0,1,2.6,2.37l.1.14c.14.21.27.4.4.61l0,0a13.72,13.72,0,0,1,.24,14.66,12.35,12.35,0,0,1-2,2.65s-.55,1.93,5-2.16a16,16,0,0,0,4.16-9.76c-.3-8.16-5.1-13.51-11.06-17h0c-10.44-6.14-24.46-6.67-24.46-6.67-33.47-1.3-56.38,20.45-69,37.25A121.39,121.39,0,0,0,55.85,64a225.8,225.8,0,0,0-44.18-.3C-2.45,66.78.2,76.81.2,76.81c3.6,14.26,31,21.78,40,23.89a57.78,57.78,0,0,0-1.09,6.5c-.17,1.55-.31,3.15-.38,4.89a6.26,6.26,0,0,1-1.78,4.06s-8.11,7-5.74,17.1c0,0,.69,7.62,8.11,10.09,0,0-8.7-6.33-3.56-16.71,0,0-1.78,18.29,15.23,19a10.4,10.4,0,0,1-6-4.66s0,0,0,0l-.88-4.2a14.59,14.59,0,0,0,9,7.75c.12,1.07,1.54,4,2.45,5.77-1.52,1.38-6.13,5.72-6.13,7.74a157.72,157.72,0,0,0-3.6,45.35v0h0c0,.52.06,1,.1,1.54h0s.51,6,5.3,8.43c-.39,1.37-.82,2.91-1.28,4.59-.23.82-.46,1.67-.7,2.55a.65.65,0,0,0,0,.13c-4.8,17.59-12.23,46.33-11,51.7,0,0,16.3,15.08,27.64,22a24.24,24.24,0,0,0-.85,5.18,163.23,163.23,0,0,0-.14,17.62h0l-1.1,2-1.13,8.27a23.52,23.52,0,0,0,1.38,4.41,18.23,18.23,0,0,0,1.38,2.71l.37.6c2.06,3,5.33,5.47,10.34,4.06,0,0,4.39-1.31,2.51-8.35,0,0-1.82-4.75-2.88-8.23l-.72-2.86-1.18-1.94c.2-3.15.67-9.67,1.44-15a34.4,34.4,0,0,1,1.49-6.72s1.12-5.52,2-12c.21-1.65.4-3.37.55-5.08a16.18,16.18,0,0,0,2.9,0v-1.81l2.49.11c.38,2.5.88,5.07,1.41,7.51,1.4,6.41,3,11.81,3,11.81a35.57,35.57,0,0,1,2.14,6.85c1.22,5.17,2.24,11.45,2.71,14.51,0,.16,0,.3.06.44l-.06-.44-1,2-.46,2.92c-.75,3.56-2.14,8.45-2.14,8.45-1.24,7.18,3.25,8.1,3.25,8.1,5.12.95,8.15-1.77,9.93-5,.11-.2.21-.42.32-.62a18.33,18.33,0,0,0,1.13-2.83,23.33,23.33,0,0,0,1-4.52L104,318.35l-1.28-1.87c0,.19,0,.37,0,.55,0-.18,0-.36,0-.55a153.17,153.17,0,0,0-1.57-16.57,34.44,34.44,0,0,0-3.27-10.67c0-.12,0-.26-.07-.4-.39-2.38-.16-7.87.1-12,1.16-.15,2.27-.32,3.31-.55.45-.09.88-.2,1.29-.31.76,8.94,1.05,16.69.52,21.79,0,0,22-16.94,28.11-25.47a314.55,314.55,0,0,0-8.7-35.55l.28-.11h0c0-.85-.12-2.06-.23-3.51a12.49,12.49,0,0,0,7.08-2.89h0c1.09-1.08,4-2.22,5.25-2.68l.59-.21A13,13,0,0,0,142,225a5,5,0,0,0,.2-.49c1.24-3.46-.9-8.71-.9-8.71a21.61,21.61,0,0,1-.61-3.69l.06-.75s0,.11,0,.28a27.15,27.15,0,0,0-.05-4.1c-.25-3.38-.85-6.83-.85-6.83s0-.26-.06-.39a33.71,33.71,0,0,0-5.85-13.4,54.82,54.82,0,0,0-4-5.1,47.6,47.6,0,0,0-4.15-4.19,26.83,26.83,0,0,1-4-4.06c-1.42-1.65-2.93-3.56-4.32-5.38l-1.45-1.93a82.69,82.69,0,0,0-1.87-8.31c0-.93-1.14-2.41-2.53-3.88a11.67,11.67,0,0,0-.77-1.68,13.12,13.12,0,0,0-2.93-3.51l.65-.83c.51-.64.57-2,.52-3.32a12.08,12.08,0,0,0,5.09-4.24,25.72,25.72,0,0,0,6.23-5.05,20.15,20.15,0,0,0,5.38-17l2,.3A13.14,13.14,0,0,1,130,133.7s4.86-6.33,3.34-14.09c11.15,1.55,18.82,2.3,18.82,2.3C178.11,124.72,175.15,116,175.15,116ZM39.27,106.55c.28-.91.83-2.6,1.61-4.66C40.1,104,39.55,105.64,39.27,106.55Zm1.62-4.69c.11-.3.23-.6.35-.92h0Zm24.6,220.19a11.73,11.73,0,0,1-.33-1.38,11.73,11.73,0,0,0,.33,1.38v0Zm35.91,2.34.16.08.07,0h0c.06-.17.11-.35.16-.51,0,.17-.1.34-.16.52l-.1-.06h0l-.17-.08Zm18.62-119a21.18,21.18,0,0,1,.92,2c.31,1,.64,2.06,1,3.22a1.42,1.42,0,0,0,0,.2,17.92,17.92,0,0,1,.34,6,2.91,2.91,0,0,1-.54,1.84,4.46,4.46,0,0,1-.61.73c-.48-4.86-1-10-1.49-14.65ZM73.68,318.13c-.06,1-.09,1.55-.09,1.55h0S73.62,319.1,73.68,318.13ZM57,145.08a25.51,25.51,0,0,1,2.24,2.3h0a24.35,24.35,0,0,0-2.25-2.3ZM66.56,325h0l-.1.06-.08-.2.09.2h0l.08-.05h0Zm8.17-1Zm0,0Zm-.52-2.27a1.6,1.6,0,0,0,.05.21l-.06-.21Zm.73,3.67h0c.72,5.85-2.17,5.56-2.17,5.56a9.65,9.65,0,0,1-5.69-4.7,2.12,2.12,0,0,1,.21-.11l-.2.11a9.62,9.62,0,0,0,5.68,4.7S75.66,331.25,74.94,325.43Zm18.71-3.51h0c0,.18-.07.36-.1.55l0,.18Zm-.31,2.26v.05h0Zm7.8,1.62-.22-.1a2,2,0,0,0,.22.09A9.65,9.65,0,0,1,95.9,331s-2.86.54-2.66-5.35h0C93.05,331.5,95.9,331,95.9,331A9.62,9.62,0,0,0,101.14,325.8Zm5.6-188,.08-.12,0,.15Z" transform="translate(0 0.4)"/><rect class="cls-34" x="0.36" height="30"/><rect class="cls-34" x="758.36" y="302" height="39"/></g></g></svg>