<svg xmlns="http://www.w3.org/2000/svg" xmlns:xlink="http://www.w3.org/1999/xlink" viewBox="0 0 758 341"><defs><style>.cls-1{isolation:isolate;}.cls-2{fill:#e39b1d;}.cls-3{fill:#d2772a;}.cls-4{fill:#984934;}.cls-5{fill:#7f3526;}.cls-6{fill:none;}.cls-7{fill:#8a5330;}.cls-8{fill:#f6d6b2;}.cls-9{fill:#704126;}.cls-10{fill:#59321e;}.cls-11{fill:#e2ac6e;}.cls-12{fill:#cc6335;}.cls-13{fill:#9d4b31;}.cls-14{fill:#a18046;}.cls-15{fill:#b7a238;}.cls-16{fill:#90654c;}.cls-17{fill:#f9d9b5;}.cls-18{fill:#e5af6e;}.cls-19{fill:url(#linear-gradient);}.cls-20{fill:#6b3c22;}.cls-21{fill:#9b4934;}.cls-22{fill:#d5772a;}.cls-23{fill:#e69e1d;}.cls-24{fill:#913a30;}.cls-25{fill:#cf6335;}.cls-26{fill:#f9dab6;}.cls-27{fill:#7f492b;}.cls-28{fill:#6b3822;}.cls-29{fill:#9e3089;}.cls-30{fill:#bc40a1;}.cls-31{fill:#d860c1;}.cls-32{mix-blend-mode:overlay;fill:url(#linear-gradient-2);}.cls-33{fill:#564339;opacity:0.5;mix-blend-mode:multiply;}.cls-34{fill:#fff;}</style><linearGradient id="linear-gradient" x1="13.98" y1="107.85" x2="142.15" y2="77.96" gradientUnits="userSpaceOnUse"><stop offset="0" stop-color="#90654c"/><stop offset="0.67" stop-color="#8a5330"/><stop offset="1" stop-color="#6d4530"/></linearGradient><linearGradient id="linear-gradient-2" x1="12.98" y1="137.26" x2="159.6" y2="217.55" gradientUnits="userSpaceOnUse"><stop offset="0" stop-color="#f2deb6" stop-opacity="0"/><stop offset="0.99" stop-color="#f4e9d7" stop-opacity="0.6"/><stop offset="1" stop-color="#c7e1b7" stop-opacity="0.8"/></linearGradient></defs><title>character9_6</title><g class="cls-1"><g id="Layer_1" data-name="Layer 1"><path class="cls-2" d="M75,149.18l.18.18.1-.08Z" transform="translate(-0.36 0.4)"/><path class="cls-3" d="M98.09,151.74c-4.73.22-11.51.4-14.74-.09a73.5,73.5,0,0,1-8-2.37l-.1.08c.94.88,5.75,4.76,18.29,5.8.45-.41.87-.77,1.24-1.07A25.71,25.71,0,0,1,98.09,151.74Z" transform="translate(-0.36 0.4)"/><path class="cls-2" d="M74.37,154a8.54,8.54,0,0,1-.48,2.24c2.93,1.46,7.65,3.08,14.83,3.78,1.67-1.79,3.38-3.54,4.77-4.82-12.54-1-17.35-4.92-18.29-5.8a14.54,14.54,0,0,0-4.14,5.15,17.91,17.91,0,0,0,1.59,1C73.66,153.54,74.37,154,74.37,154Z" transform="translate(-0.36 0.4)"/><path class="cls-2" d="M68.52,195.63a10.77,10.77,0,0,0-.77,2.77,13.74,13.74,0,0,1,.41-2.78c-4.24-.15-13.12-.93-17.24-4.73a33.74,33.74,0,0,0-4.68,13.84c2.35,1.34,8,3.67,18.71,3.37.23-2.89.81-6.32,2.2-8.58,0,0,1.93-5.67-1.11,8.54h.29a23.39,23.39,0,0,1,2.76-4.84s1.16-1.6,1.12-5.52c0,0,.07-.75.27-2C70.34,195.65,69.62,195.66,68.52,195.63Z" transform="translate(-0.36 0.4)"/><path class="cls-2" d="M45.94,212a27.27,27.27,0,0,0,.3,4.09c.25,1.34,1.49,7.28,3.85,8.3a1.72,1.72,0,0,1,0,2.65s-1.57,3.66-3.81-10.48a20.83,20.83,0,0,1-.3,3.73s-1.68,5.41-.15,8.75c3.19.78,9.94,1.11,20.52-4.72a7.78,7.78,0,0,0-.69-2.84h0a2.94,2.94,0,0,1-.7-1.79,17.93,17.93,0,0,1-.17-6l-.08,0S52.48,215.42,45.94,212Z" transform="translate(-0.36 0.4)"/><path class="cls-2" d="M58.28,180.94a47.77,47.77,0,0,0-3.77,4.52c2.75,1.66,8,3.9,17.05,4.69A69.81,69.81,0,0,1,75,179.42c-3.66-.22-9.12-.9-13-2.87A27.64,27.64,0,0,1,58.28,180.94Z" transform="translate(-0.36 0.4)"/><path class="cls-2" d="M70,161.73a6.43,6.43,0,0,0,.46,1.49c.07-.37.15-.73.22-1.07Z" transform="translate(-0.36 0.4)"/><path class="cls-2" d="M83.81,165.38c-3.77-.27-9.11-1-12.86-3-.32.55-.53.89-.53.89s-2.07,3.59-4.61,7.59a43.06,43.06,0,0,0,11.92,3,44.92,44.92,0,0,1,4.08-6.12S82.6,166.75,83.81,165.38Z" transform="translate(-0.36 0.4)"/><path class="cls-3" d="M66.38,224.32c.53-.29,1.06-.59,1.6-.91l.12-.07a7.69,7.69,0,0,1-2.4-1.86h0A7.78,7.78,0,0,1,66.38,224.32Z" transform="translate(-0.36 0.4)"/><path class="cls-3" d="M66.52,230.45A56.92,56.92,0,0,1,59,233.63h0s5.56,4.61,15,.71c0,0,11.51-6,17.34-6,0,0-11.51-.87-19.29-3.4C69.56,227.61,66.52,230.45,66.52,230.45Z" transform="translate(-0.36 0.4)"/><path class="cls-3" d="M74.37,154s-.71-.42-1.72,1.58c.37.21.78.43,1.24.66A8.54,8.54,0,0,0,74.37,154Z" transform="translate(-0.36 0.4)"/><path class="cls-3" d="M70.64,162.15c-.07.34-.15.7-.22,1.07,0,0,.21-.34.53-.89Z" transform="translate(-0.36 0.4)"/><path class="cls-3" d="M46.24,216.09l-.05-.27.12.74v-.09C46.28,216.35,46.26,216.22,46.24,216.09Z" transform="translate(-0.36 0.4)"/><path class="cls-3" d="M50.12,227a1.72,1.72,0,0,0,0-2.65c-2.36-1-3.6-7-3.85-8.3,0,.13,0,.26.07.38v.09C48.55,230.7,50.12,227,50.12,227Z" transform="translate(-0.36 0.4)"/><path class="cls-3" d="M67.15,199.52c-1.39,2.26-2,5.69-2.2,8.58l1.09,0C69.08,193.85,67.15,199.52,67.15,199.52Z" transform="translate(-0.36 0.4)"/><path class="cls-3" d="M68.52,195.63h-.36a13.74,13.74,0,0,0-.41,2.78A10.77,10.77,0,0,1,68.52,195.63Z" transform="translate(-0.36 0.4)"/><path class="cls-4" d="M72.65,155.54a17.91,17.91,0,0,1-1.59-1,11.3,11.3,0,0,0-.7,2,12.7,12.7,0,0,0-.4,5.19l.68.42A27.76,27.76,0,0,1,72.65,155.54Z" transform="translate(-0.36 0.4)"/><path class="cls-4" d="M71,162.33c3.75,2,9.09,2.78,12.86,3,1.3-1.47,3.08-3.45,4.91-5.4-7.18-.7-11.9-2.32-14.83-3.78A36.41,36.41,0,0,1,71,162.33Z" transform="translate(-0.36 0.4)"/><path class="cls-5" d="M72.65,155.54a27.76,27.76,0,0,0-2,6.61l.31.18a36.41,36.41,0,0,0,2.94-6.13C73.43,156,73,155.75,72.65,155.54Z" transform="translate(-0.36 0.4)"/><path class="cls-4" d="M62,176.55c3.93,2,9.39,2.65,13,2.87a56.49,56.49,0,0,1,2.71-5.62,43.06,43.06,0,0,1-11.92-3C64.58,172.75,63.24,174.78,62,176.55Z" transform="translate(-0.36 0.4)"/><path class="cls-4" d="M50.92,190.89c4.12,3.8,13,4.58,17.24,4.73a2.67,2.67,0,0,1,1.22-1.85s-.43.8-.86,1.86c1.1,0,1.82,0,2,0,.2-1.33.54-3.23,1.08-5.5-9-.79-14.3-3-17.05-4.69A53.87,53.87,0,0,0,50.92,190.89Z" transform="translate(-0.36 0.4)"/><path class="cls-5" d="M69.38,193.77a2.67,2.67,0,0,0-1.22,1.85h.36C69,194.57,69.38,193.77,69.38,193.77Z" transform="translate(-0.36 0.4)"/><path class="cls-5" d="M65.58,210.16a22.37,22.37,0,0,1,.75-2.11H66C65.9,208.72,65.75,209.41,65.58,210.16Z" transform="translate(-0.36 0.4)"/><path class="cls-4" d="M64.85,213.46a45.43,45.43,0,0,1,.1-5.36c-10.68.3-16.36-2-18.71-3.37,0,.13,0,.26,0,.39s-.3,3.49-.26,6.88c6.54,3.42,18.81,1.68,18.81,1.68l.08,0,0-.2Z" transform="translate(-0.36 0.4)"/><path class="cls-5" d="M65.58,210.16a20.44,20.44,0,0,0-.72,3.29Z" transform="translate(-0.36 0.4)"/><path class="cls-5" d="M64.85,213.46h0a20.44,20.44,0,0,1,.72-3.29c.17-.75.32-1.44.46-2.1l-1.09,0A45.43,45.43,0,0,0,64.85,213.46Z" transform="translate(-0.36 0.4)"/><path class="cls-4" d="M52.92,231.25l.6.16c11.23.14,13-4.1,12.86-7.09-10.58,5.83-17.33,5.5-20.52,4.72.08.16.15.32.24.47A13,13,0,0,0,52.92,231.25Z" transform="translate(-0.36 0.4)"/><path class="cls-5" d="M66.38,224.32c.14,3-1.63,7.23-12.86,7.09,1.29.35,4.28,1.24,5.45,2.22a56.92,56.92,0,0,0,7.55-3.18s3-2.84,5.47-5.5a23.75,23.75,0,0,1-3.89-1.61l-.12.07C67.44,223.73,66.91,224,66.38,224.32Z" transform="translate(-0.36 0.4)"/><path class="cls-6" d="M122.81,320a9.32,9.32,0,0,1-1.65,1.71l2.53.26C123.43,321.34,123.15,320.69,122.81,320Z" transform="translate(-0.36 0.4)"/><path class="cls-6" d="M119.86,322.57a7.51,7.51,0,0,1-4.76.86,14.17,14.17,0,0,0,1.39,2.86Z" transform="translate(-0.36 0.4)"/><path class="cls-7" d="M125,322.09a17.78,17.78,0,0,1-.88-2.24l-1.43-1.76c.09,1.18.15,1.89.15,1.89.34.71.62,1.36.88,2Z" transform="translate(-0.36 0.4)"/><path class="cls-7" d="M116.48,326.3s0,.33,0,.93c0,1.59.11,5,.07,8.58a17.81,17.81,0,0,1-1.74-2.49,23.56,23.56,0,0,1-2-4.19v-8.34l.82-2.11a23.31,23.31,0,0,0,1.41,4.76A14.72,14.72,0,0,0,116.48,326.3Z" transform="translate(-0.36 0.4)"/><path class="cls-8" d="M121.92,274.77c.32,3.08.44,6.45.48,9.59.07,6.57-.29,12.19-.29,12.19-.39,1.54,0,3.68-.06,6.5,0,5.37.38,11.89.61,15.05.09,1.17.15,1.88.15,1.88.09.2.19.39.27.59.22.45.4.88.58,1.28a.42.42,0,0,0,0,.1c.06.17.14.35.21.52l.25.63,0,0a6.22,6.22,0,0,1,.34,1v0h0v0a5.25,5.25,0,0,0-.73-.19,7,7,0,0,0-2.65,0,9.43,9.43,0,0,0-3,1.11c-.22.13-.43.25-.61.38h0c-.38.25-.68.48-.87.63l-.14.12a.3.3,0,0,0-.08.07c-.12-.19-.25-.39-.34-.57a12.13,12.13,0,0,1-1-2.15,1.11,1.11,0,0,0-.05-.13,23.63,23.63,0,0,1-1.42-4.76,162.78,162.78,0,0,1-2.26-17.48c-.51-5.81-.44-10.42-.44-10.42s0-.27,0-.41A89.21,89.21,0,0,0,109,279.22C110,276.66,120.93,265.26,121.92,274.77Z" transform="translate(-0.36 0.4)"/><path class="cls-8" d="M117.28,327.42a9.62,9.62,0,0,0,6.27,3.87s2.89-.13,1.38-5.81A9,9,0,0,0,117.28,327.42Z" transform="translate(-0.36 0.4)"/><path class="cls-9" d="M123.81,324l.36,1.38a9.11,9.11,0,0,0-6.9,2.06c-.28-.38-.56-.76-.79-1.11C117,325.87,120.1,323.24,123.81,324Z" transform="translate(-0.36 0.4)"/><path class="cls-9" d="M124.93,325.49l-.4-1.33s.09,0,.14,0A13,13,0,0,1,124.93,325.49Z" transform="translate(-0.36 0.4)"/><path class="cls-9" d="M129.17,330.35s-2.45-4.46-4-7.76l-1.1-2.74c.22,1.48-.43,2-.43,2,.35.82.66,1.68.89,2.36.15.46.29.9.38,1.28,1.52,5.7-1.38,5.81-1.38,5.81a9.6,9.6,0,0,1-6.28-3.89c-.28-.38-.56-.76-.79-1.11,0,0,0,.33,0,.93,0,0-.26,4.8-1.64,6.09a17.81,17.81,0,0,0,1.74,2.49l.45.54c2.45,2.72,6,4.69,10.8,2.62C127.83,339,132,337.07,129.17,330.35Z" transform="translate(-0.36 0.4)"/><path class="cls-10" d="M124.93,325.49a5.93,5.93,0,0,0-.76-.14l-.36-1.38a4.69,4.69,0,0,1,.72.17v0Z" transform="translate(-0.36 0.4)"/><path class="cls-10" d="M116.48,326.3s.66,1,.79,1.11l.09-.07-.79-1.12Z" transform="translate(-0.36 0.4)"/><path class="cls-11" d="M121.92,274.77c.32,3.08.44,6.45.48,9.59.07,6.57-.29,12.19-.29,12.19-.39,1.54,0,3.68-.06,6.5a45.17,45.17,0,0,1-10.63-1.85c-.51-5.81-.44-10.42-.44-10.42s0-.27,0-.41c-.27-4.12-3-16.15-3-16.15C109,271.67,120.93,265.26,121.92,274.77Z" transform="translate(-0.36 0.4)"/><path class="cls-6" d="M94.25,320.5a9.38,9.38,0,0,1-2,1.34l2.43.77C94.59,322,94.44,321.26,94.25,320.5Z" transform="translate(-0.36 0.4)"/><path class="cls-6" d="M90.85,322.43a7.57,7.57,0,0,1-4.84-.12,14,14,0,0,0,.77,3.08Z" transform="translate(-0.36 0.4)"/><path class="cls-7" d="M95.94,323a17,17,0,0,1-.4-2.36l-1.05-2-.24,1.88c.19.76.34,1.45.47,2.11Z" transform="translate(-0.36 0.4)"/><path class="cls-7" d="M86.78,325.4l-.17.92c-.29,1.56-.9,4.89-1.66,8.42a17.6,17.6,0,0,1-1.2-2.8,23.36,23.36,0,0,1-1.08-4.5l1.68-8.17,1.23-1.9a23.51,23.51,0,0,0,.43,4.95A14.16,14.16,0,0,0,86.78,325.4Z" transform="translate(-0.36 0.4)"/><path class="cls-8" d="M102.54,276c-.31,3.08-.87,6.41-1.47,9.49-1.26,6.45-2.76,11.87-2.76,11.87-.68,1.43-.77,3.61-1.37,6.36-1.14,5.25-2,11.72-2.45,14.86-.16,1.17-.24,1.87-.24,1.87,0,.22.11.43.15.63q.18.74.3,1.38a.36.36,0,0,1,0,.1c0,.19.08.37.11.56s.07.45.11.66c0,0,0,0,0,0a7,7,0,0,1,.13,1v0h0V325a7,7,0,0,0-.67-.34,7,7,0,0,0-2.59-.58,9,9,0,0,0-3.13.49,6,6,0,0,0-.68.24h0c-.42.17-.76.34-1,.44l-.16.09-.1.05c-.08-.21-.15-.43-.21-.63a12.27,12.27,0,0,1-.55-2.3c0-.09,0-.14,0-.14a23.58,23.58,0,0,1-.43-4.95,163.5,163.5,0,0,1,1.32-17.58c.69-5.79,1.69-10.29,1.69-10.29l.06-.4A89.41,89.41,0,0,0,89,277.78C90.5,275.48,103.5,266.53,102.54,276Z" transform="translate(-0.36 0.4)"/><path class="cls-8" d="M87.33,326.66a9.64,9.64,0,0,0,5.35,5.06s2.86.46,2.54-5.41A9,9,0,0,0,87.33,326.66Z" transform="translate(-0.36 0.4)"/><path class="cls-9" d="M94.43,324.6,94.5,326a9.1,9.1,0,0,0-7.17.62c-.21-.43-.4-.86-.55-1.25C87.33,325.07,90.94,323.14,94.43,324.6Z" transform="translate(-0.36 0.4)"/><path class="cls-9" d="M95.22,326.32l-.12-1.39.12.06C95.28,325.46,95.2,325.92,95.22,326.32Z" transform="translate(-0.36 0.4)"/><path class="cls-9" d="M98.38,331.94s-1.49-4.86-2.32-8.4l-.52-2.91c-.09,1.48-.83,1.87-.83,1.87.17.87.3,1.78.39,2.49.06.48.1.93.12,1.33.33,5.89-2.54,5.41-2.54,5.41a9.63,9.63,0,0,1-5.35-5.08c-.21-.43-.4-.86-.55-1.25,0,0-.09.32-.19.91,0,0-1.23,4.65-2.84,5.63a17.6,17.6,0,0,0,1.2,2.8l.33.62c1.85,3.15,4.94,5.81,10,4.74C95.32,340.1,99.78,339.09,98.38,331.94Z" transform="translate(-0.36 0.4)"/><path class="cls-10" d="M95.22,326.32a5.48,5.48,0,0,0-.72-.29l-.07-1.43a4.51,4.51,0,0,1,.67.32h0Z" transform="translate(-0.36 0.4)"/><path class="cls-10" d="M86.78,325.4s.45,1.07.55,1.25l.1,0-.55-1.26Z" transform="translate(-0.36 0.4)"/><path class="cls-11" d="M102.54,276c-.31,3.08-.87,6.41-1.47,9.49-1.26,6.45-2.76,11.87-2.76,11.87-.68,1.43-.77,3.61-1.37,6.36a44.71,44.71,0,0,1-10-4c.69-5.79,1.69-10.29,1.69-10.29l.06-.4c.57-4.09.34-16.42.34-16.42C90.49,270.38,103.5,266.53,102.54,276Z" transform="translate(-0.36 0.4)"/><path class="cls-12" d="M127.2,250.77s-.9-3.48-1.33-6.41a11.12,11.12,0,0,1-.13-3.41c.07-.33.21-.52.42-.54l-.74-7.33V233l-1.66-16.54-4.8-.34-12.82-.91H91.42l-3.15,22.56-5.16,36.9s4.63,1.42,9.93,2.64h0c1.48.34,3,.66,4.51.93a31.33,31.33,0,0,0,8.34.69v-1.81a105.28,105.28,0,0,0,14-.12,42.1,42.1,0,0,0,5.14-.73,21.19,21.19,0,0,0,2.06-.55,11.15,11.15,0,0,0,2.48-1.06Z" transform="translate(-0.36 0.4)"/><path class="cls-13" d="M105.92,277.11s-.37-49.56,0-55.77,1.34.24,1.34.24v55.59Z" transform="translate(-0.36 0.4)"/><path class="cls-13" d="M127.12,275.71a21.19,21.19,0,0,1-2.06.55,42.1,42.1,0,0,1-5.14.73,272.9,272.9,0,0,0-5.25-51.87c-.55-.76-2.8-.49-2.8-.49-5.82,1.39-14.22.49-14.22.49-2.78,8.49-4.21,41.6-4.61,52.17-5.3-1.22-9.93-2.64-9.93-2.64l5.16-36.9,3.15-22.56h14.71l12.82.91L125.41,233v.1l.32,7.87.13,3.41Z" transform="translate(-0.36 0.4)"/><path class="cls-14" d="M120.79,213.13l-3.11-2,.54-7.16-3-.73-19.1,6.32-1.64,12a21.54,21.54,0,0,0,12.66.86s5.57-.15,6.65,0c0,0,5.56,1.31,7.75-2.87Z" transform="translate(-0.36 0.4)"/><path class="cls-15" d="M115.23,193.55s-5.66-47-7.68-52.36c-2,5.41-7.69,52.11-7.69,52.11-1,5.52-1.87,10.47-2.17,13.87a9.65,9.65,0,0,1-.28,1.64l.79.52,8.55,5.86,10-3.68.94-.35a7.89,7.89,0,0,1-.63-2.51C116.73,205,116.07,199.56,115.23,193.55Z" transform="translate(-0.36 0.4)"/><path class="cls-14" d="M101.62,192.82s10.15,4.52,15.91,4.58-12.2,15.74-12.2,15.74l-11.44-4.73,4.38-12.09" transform="translate(-0.36 0.4)"/><path class="cls-16" d="M146.05,195.61c-6.7-24.42-18.14-40-18.14-40-.72-2.29-9.84-5.81-9.84-5.81-4,5.13-2.19,19.64-2.19,19.64l1.1,6.05,5.21,24.31Z" transform="translate(-0.36 0.4)"/><path class="cls-16" d="M141.24,184.6s15.37,35,18.08,42.5a26.17,26.17,0,0,0-2.72.09c-4.7.33-14.64,1.94-22.89,9.12-.4.34-.8.7-1.18,1.07l-8.66-30.62-2.27-9.22,13-5.78Z" transform="translate(-0.36 0.4)"/><path class="cls-7" d="M159.32,227.11s-10.47,7.19-26.8,10.27A35.88,35.88,0,0,1,159.32,227.11Z" transform="translate(-0.36 0.4)"/><path class="cls-16" d="M157.85,227.07,154.27,230a32.76,32.76,0,0,0,5-2.89l-1.23-.57Z" transform="translate(-0.36 0.4)"/><polygon class="cls-16" points="132.41 235.98 132.16 237.78 136.74 236.78 133.05 236.9 132.41 235.98"/><path class="cls-16" d="M134.84,239.86c.28-.27.56-.52.85-.77,7.9-7,17.64-8,21.14-8.16.44,0,.78,0,1,0h.33l-1.08-.48-.2.45a31.47,31.47,0,0,0-21.26,8.22h0l-.56-.81Z" transform="translate(-0.36 0.4)"/><path class="cls-14" d="M138.81,239h-.05a71.94,71.94,0,0,0,15-5.55v0h0a42.72,42.72,0,0,0,4.36-2.51h-.33l-1,0a31.47,31.47,0,0,0-21.26,8.22c-.52.47-.78.76-.78.76,1.27-.24,2.48-.51,3.66-.8Z" transform="translate(-0.36 0.4)"/><path class="cls-17" d="M137.72,241.64a3,3,0,0,0,2.38-.58,1,1,0,0,1,.5-.11c.24,0,.54.21.54.21a1.37,1.37,0,0,1,.32.45,6,6,0,0,0,3,2.54,14.62,14.62,0,0,0,1.4,1.68c.57,0,.74-1,.79-1.49,1,.36,1-1.89,1-1.89.8-1.94-.63-4.39-.63-4.39a6.33,6.33,0,0,0-.86-1.75,4.33,4.33,0,0,0-.48-.62,2.08,2.08,0,0,0-.48-.46l-.07,0v0a5.56,5.56,0,0,0-4.35.15,10.21,10.21,0,0,0-.94,1.42,7.17,7.17,0,0,0-.4.94h0Z" transform="translate(-0.36 0.4)"/><path class="cls-18" d="M146.7,244.35s.5-2.27-.07-3A17.69,17.69,0,0,0,146.7,244.35Z" transform="translate(-0.36 0.4)"/><path class="cls-18" d="M147.67,242.46s.05-2.58-.44-3.11Z" transform="translate(-0.36 0.4)"/><path class="cls-15" d="M138.81,239l-4,.87-1.13-3.55c8.25-7.18,18.19-8.79,22.89-9.12.69,1.51,1.22,2.79,1.56,3.72a27.68,27.68,0,0,1-4.36,2.51h0l3.05-2.49,0-.05a31.29,31.29,0,0,0-12.16,2.42,35.58,35.58,0,0,0-3.81,1.9h0a29.39,29.39,0,0,0-5.28,3.89h.07Z" transform="translate(-0.36 0.4)"/><path class="cls-18" d="M139.86,236.74a10.5,10.5,0,0,1,6.32-.43,4.33,4.33,0,0,0-.48-.62,2.08,2.08,0,0,0-.48-.46l-.07-.06h0l-.43-1.86a35.58,35.58,0,0,0-3.81,1.9h0l-.1.11A10.21,10.21,0,0,0,139.86,236.74Z" transform="translate(-0.36 0.4)"/><path class="cls-7" d="M135.6,194.44s-10.35-3.91-13.53,2.07l.12,3.29,1.17-3.17A24.67,24.67,0,0,1,135.6,194.44Z" transform="translate(-0.36 0.4)"/><path class="cls-16" d="M147.63,272.43C141.52,281,122,297.57,122,297.57c1-9.87-.25-34.38-2.87-53.52,0-.24-.07-.47-.1-.71s-.09-.65-.14-1l-.12-.9c-1.31-9.41-2.75-18.57-4-26.18-.77-4.66-1.33-13.42-1.33-13.42s-1.82-26.48-3.23-41.55c-.23-2.43-.45-4.56-.65-6.23s-.35-2.76-.5-3.4c-.65-2.89,3.79-1.52,8.2.46,4,1.81,8.06,4.14,8.06,4.14s1.48,19.38,1.71,36.08c0,0,.18.69.48,1.89.11.43.24.93.38,1.49,0,.09.05.19.08.29.26,1,.57,2.24.92,3.59,2.6,10.16,7.22,28.1,8.93,34.45a.83.83,0,0,0,0,.15c.27,1,.47,1.73.56,2s.16.49.23.74.12.38.18.56a.61.61,0,0,1,0,.11c.16.47.3.94.44,1.41.08.25.16.5.22.74.24.75.46,1.49.68,2.23.58,2,1.12,3.91,1.64,5.81C145.62,260.88,147.63,272.43,147.63,272.43Z" transform="translate(-0.36 0.4)"/><path class="cls-16" d="M109.05,150.69l-2.71,3.56,0,.07s-.47,2.49-1.24,6.77c-.73,4-1.71,9.58-2.79,16.16-1.32,8-2.81,17.47-4.18,27.38-2.11,15.26-6,31.55-6.56,45.07-1.22,27.58-.39,47.87-.39,47.87C81.43,295.2,56,272.27,56,272.27c-1.19-5.37,8.9-34.11,13.7-51.7a.65.65,0,0,1,0-.13c.24-.88.47-1.73.7-2.55.34-1.23.66-2.39,1-3.45,1.32-4.72,2.18-7.72,2.18-7.72l3-.73.08-19.77.15-34.6Z" transform="translate(-0.36 0.4)"/><path class="cls-7" d="M76.59,193.47l0,12.52-3,.73s-.86,3-2.18,7.72c5,1.88,11.71-1,11.71-1l14.3-4.64c1-7,2.31-15.75,3.48-23.14C92.8,188.3,84.7,190.92,76.59,193.47Z" transform="translate(-0.36 0.4)"/><path class="cls-16" d="M86.68,184.85,85.33,174l-.7-5.75-.06-.44s-3.61-14.26-9-18c0,0-6.63,5.76-6.63,8.19,0,0-5.51,17.51-3.55,43.71Z" transform="translate(-0.36 0.4)"/><path class="cls-7" d="M84.39,167.94s.93-6.69-2.4-8.32l.28,2.43S84.55,166.21,84.39,167.94Z" transform="translate(-0.36 0.4)"/><path class="cls-7" d="M124.23,167.09s.12-6.75-1.22-8.12l.19,2.41A34.61,34.61,0,0,1,124.23,167.09Z" transform="translate(-0.36 0.4)"/><path class="cls-7" d="M84.39,167.94s2-.23,2.66-3.66c0,0,.37-1.77,1.46-1.76a6.06,6.06,0,0,0-.14,1.85s-3.54,4.24-3.22,5.49Z" transform="translate(-0.36 0.4)"/><path class="cls-7" d="M124.4,167.94s1.16-.29,1.66-3.74c0,0,.27-1.77.9-1.8a11.27,11.27,0,0,0-.13,1.86s-2.2,4.33-2,5.57Z" transform="translate(-0.36 0.4)"/><path class="cls-14" d="M110.2,160.32a37.89,37.89,0,0,1-4.9.73l-.25,0c.77-4.28,1.24-6.77,1.24-6.77l0-.07,3.21-.16C109.75,155.76,110,157.89,110.2,160.32Z" transform="translate(-0.36 0.4)"/><path class="cls-7" d="M82,155.49l24.32-1.24,0,.07s-.47,2.49-1.24,6.77C90.8,163.42,82,155.49,82,155.49Z" transform="translate(-0.36 0.4)"/><path class="cls-7" d="M121.6,153.48c-1,2.39-3.37,4-6,5.17a30.66,30.66,0,0,1-5.39,1.67c-.23-2.43-.45-4.56-.65-6.23l6.77-.34Z" transform="translate(-0.36 0.4)"/><polyline class="cls-5" points="129.54 127.01 111.8 142.26 123.23 146.48 132.29 140.81 133.29 127.7"/><path class="cls-15" d="M66.18,90.3c-.31,2.79-.57,5.4-.78,7.85l-.77.38-4.23-.6c-.92-5.76.12-23.09.12-23.09.07-2.62.09-5.1.09-7.5,2.36-1.12,4.71-2.12,7-3A209.83,209.83,0,0,1,66.18,90.3Z" transform="translate(-0.36 0.4)"/><path class="cls-15" d="M108.13,79.43a134.88,134.88,0,0,0-9.13-22,113.12,113.12,0,0,1,27.42,1.57,112.38,112.38,0,0,1,8.34,20.63L98.84,91.31s-1.18.2-3.11.5c1.29-2.65,2.06-4.32,2.06-4.32Z" transform="translate(-0.36 0.4)"/><path class="cls-16" d="M37.75,12.43c11.63-4.2,25.87-2.24,25.87-2.24,34,4.65,53.12,30.1,62.8,48.86-12.68-2.34-38.77-4.6-65.81,8.29,0-20.88-2.52-33.37-3.52-37.52A17.74,17.74,0,0,0,51,22.63a18.43,18.43,0,0,0-4.29-1.93l-.29-.09A16,16,0,0,0,42,19.92a13.17,13.17,0,0,0-6.31.77h0S31.23,17.28,37.75,12.43Z" transform="translate(-0.36 0.4)"/><path class="cls-7" d="M99,57.48a105.84,105.84,0,0,0-31.34,6.83c-.56-46.28-22-47-30.29-45C68.54,10.39,88.46,37.25,99,57.48Z" transform="translate(-0.36 0.4)"/><path class="cls-14" d="M108.13,79.43,97.79,87.49s-.77,1.67-2.06,4.32c-5.43.86-16.82,2.56-24.93,3.11a54.24,54.24,0,0,1-5.4,3.23c.21-2.45.47-5.06.78-7.85a209.83,209.83,0,0,0,1.48-26A105.84,105.84,0,0,1,99,57.48,134.88,134.88,0,0,1,108.13,79.43Z" transform="translate(-0.36 0.4)"/><path class="cls-7" d="M25.93,37.58c4.86,5,4.65,3,4.65,3a12.26,12.26,0,0,1-1.49-3A13.5,13.5,0,0,1,32,23.25l.05,0c.16-.18.32-.35.5-.53l.13-.11a9.94,9.94,0,0,1,3.05-1.88v0s-4.47-3.38,2-8.23c-6.65,2.4-12.46,6.81-14.24,14.79A15.61,15.61,0,0,0,25.93,37.58Z" transform="translate(-0.36 0.4)"/><path class="cls-19" d="M188.12,96c-5.47-8.58-19.93-13.46-27.73-15.54a14.22,14.22,0,0,0-3.44-.85h0c-1.09-.24-1.72-.36-1.72-.36l-1.51-.17c-11.73-2-23.67-5.3-23.67-5.3h0C110,64.6,73.68,65.15,73.68,65.15c-33-.43-47.89,5.76-47.89,5.76-13,5.29-8.92,14.75-8.92,14.75,6.81,16.18,44.8,17.25,44.8,17.25L98,104.54c30.35,3.75,69.06,1,69.06,1C192.32,104.11,188.12,96,188.12,96Z" transform="translate(-0.36 0.4)"/><path class="cls-17" d="M113.43,98.57l-33-1.81-2.27,1.38,3.16,22.77a22.54,22.54,0,0,0,1,6.15,21.79,21.79,0,0,0,6.43,10.13h0c3.58,3.11,8.86,5.57,16.67,6.05,0,0,12.46-.09,19.4-8.68a19,19,0,0,0,2.85-4.83c.19-.47.37-.93.56-1.39,4.9-12.62,5.17-20.74,5.17-20.74Z" transform="translate(-0.36 0.4)"/><path class="cls-18" d="M133.4,107.61s-.27,8.12-5.17,20.74a4.11,4.11,0,0,1-3.07,1.22,10,10,0,0,0,3.07-7.45,11.8,11.8,0,0,0-.46-3.35s-19.34,5.21-32-12h0c1.29,8.69,7.19,12.17,7.19,12.17-11.42-1.14-15.06-15.5-15.06-15.5-1.59,3.55-1.85,9-1.85,9,.69,17,11.67,17.56,11.67,17.56-4.87,1.09-9.62-2.18-9.62-2.18a21,21,0,0,1,.63,9.38,21.79,21.79,0,0,1-6.43-10.13,22.54,22.54,0,0,1-1-6.15L78.13,98.14l2.27-1.38,33,1.81Z" transform="translate(-0.36 0.4)"/><path class="cls-20" d="M92.86,116s5.92.13,8.91,2.44c0,0,.76,1.33.65,1.79l-11.23-2.82Z" transform="translate(-0.36 0.4)"/><ellipse class="cls-20" cx="97.15" cy="121.67" rx="3.1" ry="4.4"/><path class="cls-20" d="M126.78,116s-5.25.13-7.89,2.44a4.9,4.9,0,0,0-.58,1.79l9.95-2.82Z" transform="translate(-0.36 0.4)"/><ellipse class="cls-20" cx="122.3" cy="121.67" rx="2.74" ry="4.4"/><path class="cls-6" d="M126.05,144.91c0-.08,0-.15,0-.23h0C126.06,144.76,126.05,144.83,126.05,144.91Z" transform="translate(-0.36 0.4)"/><path class="cls-6" d="M125.67,151c-.08.22-.16.42-.24.59C125.51,151.39,125.59,151.19,125.67,151Z" transform="translate(-0.36 0.4)"/><path class="cls-6" d="M126.31,148.67c-.06.22-.12.41-.18.6Q126.22,149,126.31,148.67Z" transform="translate(-0.36 0.4)"/><path class="cls-6" d="M126.05,143.51c0-.18,0-.35,0-.53C126,143.16,126,143.33,126.05,143.51Z" transform="translate(-0.36 0.4)"/><path class="cls-6" d="M126.05,140.9c0-.17,0-.32-.06-.5C126,140.58,126,140.73,126.05,140.9Z" transform="translate(-0.36 0.4)"/><path class="cls-6" d="M126.67,146.69c0,.2,0,.37-.08.55C126.62,147.06,126.65,146.89,126.67,146.69Z" transform="translate(-0.36 0.4)"/><path class="cls-6" d="M126.52,147.77c0,.2-.08.38-.13.57C126.44,148.16,126.48,148,126.52,147.77Z" transform="translate(-0.36 0.4)"/><path class="cls-21" d="M73.49,142.4c0-.53.09-.89.09-.89a5.55,5.55,0,0,1,0-1.64c.53-3.05,4.18-2.1,4.18-2.1a31.78,31.78,0,0,0-.86,10.17,56.62,56.62,0,0,0-3.33-6.43,9.73,9.73,0,0,0,3.4,7.25c0,.53-.3,2.31-.22,2.86-1.8-2.08-2.92-3.57-2.92-3.57C73,146.94,73.4,143.59,73.49,142.4Z" transform="translate(-0.36 0.4)"/><polygon class="cls-22" points="128.25 144.75 128.25 144.75 128.25 144.75 128.25 144.75"/><path class="cls-22" d="M126.06,144.68h0a2.83,2.83,0,0,0,0-.3C126.08,144.48,126.07,144.58,126.06,144.68Z" transform="translate(-0.36 0.4)"/><path class="cls-5" d="M73.58,141.51a56.62,56.62,0,0,1,3.33,6.43c0,.27,0,.54.07.82A9.73,9.73,0,0,1,73.58,141.51Z" transform="translate(-0.36 0.4)"/><path class="cls-23" d="M107.35,151.92a15,15,0,0,1,9.16,4.63c-2.81,1.37-8.74.53-13.57,1.72C105.37,155.7,107,154.17,107.35,151.92Z" transform="translate(-0.36 0.4)"/><path class="cls-22" d="M107.56,150.12c.49.17,1,.36,1.49.57a26.15,26.15,0,0,1,7.46,5.86,15,15,0,0,0-9.16-4.63C107.52,150.83,107.56,150.12,107.56,150.12Z" transform="translate(-0.36 0.4)"/><path class="cls-23" d="M102.3,147.76c-.08.2-.15.41-.24.58l.14,0-.29,0a4.59,4.59,0,0,0,0-.72Z" transform="translate(-0.36 0.4)"/><path class="cls-5" d="M102.2,148.38c.56.15,2.75.77,5.36,1.74,0,0,0,.71-.21,1.8a29.05,29.05,0,0,0-6.4-.26,13.76,13.76,0,0,0,1-3.33Z" transform="translate(-0.36 0.4)"/><path class="cls-22" d="M89.93,150.38l2.11-1a20.61,20.61,0,0,1,9.87-1.07,13.76,13.76,0,0,1-1,3.33,38.58,38.58,0,0,0-7.67,1.24c-3,.95-4.46.86-5.24.46A18.17,18.17,0,0,1,89.93,150.38Z" transform="translate(-0.36 0.4)"/><path class="cls-21" d="M89.93,150.38l-1.1.42A25.67,25.67,0,0,1,92,149.4l-2.11,1Z" transform="translate(-0.36 0.4)"/><path class="cls-21" d="M85.48,137.14a50,50,0,0,0,6.24.52c-.38,4.64-.49,9.65.52,11.65l-.2.09a25.67,25.67,0,0,0-3.21,1.4c-1.77.68-3.2,1.31-4.27,1.8,0-1.53-.1-6.54.18-11.67a4.69,4.69,0,0,0,1-.51S86.72,138.25,85.48,137.14Z" transform="translate(-0.36 0.4)"/><path class="cls-5" d="M85.48,137.14c1.24,1.11.29,3.28.29,3.28a4.69,4.69,0,0,1-1,.51c.07-1.3.16-2.6.29-3.86Z" transform="translate(-0.36 0.4)"/><path class="cls-5" d="M88,153.36a1.53,1.53,0,0,1-.75-1.72l2.64-1.26A18.17,18.17,0,0,0,88,153.36Z" transform="translate(-0.36 0.4)"/><path class="cls-21" d="M84.56,152.6c0,.31,0,.48,0,.48a22.54,22.54,0,0,1,2.72-1.44,1.53,1.53,0,0,0,.75,1.72,7.76,7.76,0,0,0-1.25,4.54c-1.54-1.17-3.38-1.08-4.77-2.42l.36-1.8S83.14,153.26,84.56,152.6Z" transform="translate(-0.36 0.4)"/><path class="cls-21" d="M88.83,150.8l1.1-.42h0l-2.64,1.26h0C87.81,151.33,88.32,151.06,88.83,150.8Z" transform="translate(-0.36 0.4)"/><path class="cls-22" d="M119.26,136.58c-.5-.1-1.09-.22-1.75-.37l2,.41Z" transform="translate(-0.36 0.4)"/><path class="cls-23" d="M120.87,155h0c-1.37.95-3.25,1-4.36,1.56,0,0,2.12-2.41,4.61-5.09C120.94,152.34,121.2,154.12,120.87,155Z" transform="translate(-0.36 0.4)"/><path class="cls-23" d="M109.09,150.7a49.29,49.29,0,0,0-.09-15.34c1.54-.07,3.12-.06,4.64,0,1.41.33,2.74.62,3.86.86h0c.66.15,1.25.27,1.75.37h0a29.49,29.49,0,0,1,2.21,11.86,2.55,2.55,0,0,0-.54.76s-4.62,5.62-4.42,7.35a26.15,26.15,0,0,0-7.46-5.86Z" transform="translate(-0.36 0.4)"/><path class="cls-22" d="M120.93,149.2a2.55,2.55,0,0,1,.54-.76,19.84,19.84,0,0,1-.35,3c-2.49,2.68-4.61,5.09-4.61,5.09C116.31,154.82,120.93,149.2,120.93,149.2Z" transform="translate(-0.36 0.4)"/><path class="cls-23" d="M125.43,151.56c.08-.17.16-.37.24-.59,0-.05.44-1.65.46-1.7s.12-.38.18-.6,0-.22.08-.33.09-.37.13-.57,0-.35.07-.53.06-.35.08-.55-.63-1.54-.62-1.78c0-.08,0-.15,0-.23.84-.76,2.17-.2,2.55-.34-.07,1.48-3.18,7.31-3.18,7.31v-.08Z" transform="translate(-0.36 0.4)"/><path class="cls-22" d="M126.08,144.38c0-.09,0-.19,0-.28a3.37,3.37,0,0,1,2.54.24h0c-.38.14-1.71-.42-2.55.34C126.07,144.58,126.08,144.48,126.08,144.38Z" transform="translate(-0.36 0.4)"/><polygon class="cls-21" points="117.14 136.61 117.14 136.61 117.14 136.62 117.14 136.61"/><path class="cls-21" d="M119.48,136.62l1.46.3-1.68-.34Z" transform="translate(-0.36 0.4)"/><path class="cls-21" d="M120.94,136.86v.06l0-.07Z" transform="translate(-0.36 0.4)"/><path class="cls-21" d="M120.91,136.85l0,.07-.13-.08Z" transform="translate(-0.36 0.4)"/><path class="cls-21" d="M120.81,136.84l.13.08-1.46-.3Z" transform="translate(-0.36 0.4)"/><path class="cls-21" d="M87.29,151.64h0a22.54,22.54,0,0,0-2.72,1.44s0-.17,0-.48c1.07-.49,2.5-1.12,4.27-1.8C88.32,151.06,87.81,151.33,87.29,151.64Z" transform="translate(-0.36 0.4)"/><path class="cls-21" d="M107.35,151.92c-.37,2.25-2,3.78-4.41,6.35h0c-1.56.39-3.08.75-4.46,1.06-1.78.41-3-.65-4-.42,1.38-2,4.89-3.2,6.52-7.25A29.05,29.05,0,0,1,107.35,151.92Z" transform="translate(-0.36 0.4)"/><polygon class="cls-21" points="102.58 158.68 102.58 158.68 102.58 158.68 102.58 158.68"/><path class="cls-21" d="M105.29,149.1a22.47,22.47,0,0,1,3.76,1.59c-.51-.21-1-.4-1.49-.57h0Z" transform="translate(-0.36 0.4)"/><path class="cls-24" d="M102.3,147.76l3,1.34a21.12,21.12,0,0,0-3.09-.72l-.14,0C102.15,148.17,102.22,148,102.3,147.76Z" transform="translate(-0.36 0.4)"/><path class="cls-24" d="M105.29,149.1l2.27,1h0c-2.61-1-4.8-1.59-5.36-1.74A21.12,21.12,0,0,1,105.29,149.1Z" transform="translate(-0.36 0.4)"/><path class="cls-21" d="M102.3,147.76c1.2-2.94.82-7.86.27-11.52a28.29,28.29,0,0,1,6.43-.88,49.29,49.29,0,0,1,.09,15.34h0a22.47,22.47,0,0,0-3.76-1.59Z" transform="translate(-0.36 0.4)"/><path class="cls-23" d="M77.19,148.92a4.72,4.72,0,0,0-.28-1,31.78,31.78,0,0,1,.86-10.17s3.22,4.53,7,3.16c-.28,5.13-.21,10.14-.18,11.67-1.42.66-2.18,1.08-2.18,1.08l-.36,1.8c-.78-.74-1.86-1.31-2.56-2-1-1-1.93-.94-2.7-1.82-.08-.55.27-2.33.22-2.86Z" transform="translate(-0.36 0.4)"/><path class="cls-22" d="M85,137.07c-.13,1.26-.22,2.56-.29,3.86-3.75,1.37-7-3.16-7-3.16a19.81,19.81,0,0,1,5-1.24A16.4,16.4,0,0,0,85,137.07Z" transform="translate(-0.36 0.4)"/><path class="cls-22" d="M77,148.76c0-.28,0-.55-.07-.82a4.72,4.72,0,0,1,.28,1Z" transform="translate(-0.36 0.4)"/><path class="cls-21" d="M121.12,151.46c1.91-2.06,3.39-5.36,4.94-6.78,0,.08,0,.15,0,.23,0,.24.64,1.56.62,1.78s0,.37-.08.55,0,.36-.07.53-.08.39-.13.57,0,.23-.08.33-.12.42-.18.6-.44,1.65-.46,1.7a3.92,3.92,0,0,1-.15.42.75.75,0,0,0-.06.13l0,.13-.31.24c-.78.59-2,1.58-4.25,3.1h0C121.2,154.12,120.94,152.34,121.12,151.46Z" transform="translate(-0.36 0.4)"/><path class="cls-5" d="M126.08,144.38a2.83,2.83,0,0,1,0,.3c-1.55,1.42-3,4.72-4.94,6.78a19.84,19.84,0,0,0,.35-3c1.14-1.2,2.89-3.54,4.6-4.34C126.07,144.19,126.08,144.29,126.08,144.38Z" transform="translate(-0.36 0.4)"/><path class="cls-21" d="M126.39,148.34c0,.11,0,.23-.08.33C126.34,148.57,126.36,148.45,126.39,148.34Z" transform="translate(-0.36 0.4)"/><path class="cls-21" d="M126.05,143.51c0,.19,0,.4,0,.59h0C126.07,143.91,126.06,143.71,126.05,143.51Z" transform="translate(-0.36 0.4)"/><path class="cls-21" d="M126.59,147.24c0,.18,0,.36-.07.53C126.55,147.6,126.57,147.42,126.59,147.24Z" transform="translate(-0.36 0.4)"/><path class="cls-21" d="M125.43,151.65" transform="translate(-0.36 0.4)"/><path class="cls-21" d="M126.13,149.27s-.44,1.65-.46,1.7S126.11,149.32,126.13,149.27Z" transform="translate(-0.36 0.4)"/><path class="cls-21" d="M126,143c0-.34.07-1.72,0-2.08C126.1,141.26,126,142.64,126,143Z" transform="translate(-0.36 0.4)"/><path class="cls-21" d="M126.05,144.91c0,.24.64,1.56.62,1.78C126.69,146.47,126,145.15,126.05,144.91Z" transform="translate(-0.36 0.4)"/><path class="cls-21" d="M126.07,144.1c0,.09,0,.19,0,.28,0-.09,0-.19,0-.28Z" transform="translate(-0.36 0.4)"/><path class="cls-23" d="M91.72,137.66l1.59,0a46.7,46.7,0,0,0,7.79-.91h0a13.44,13.44,0,0,1,1.48-.54c.55,3.66.93,8.58-.27,11.52l-.34-.15a4.59,4.59,0,0,1,0,.72A20.61,20.61,0,0,0,92,149.4l.2-.09C91.23,147.31,91.34,142.3,91.72,137.66Z" transform="translate(-0.36 0.4)"/><path class="cls-23" d="M86.79,157.9A7.76,7.76,0,0,1,88,153.36c.78.4,2.29.49,5.24-.46a38.58,38.58,0,0,1,7.67-1.24c-1.63,4.05-5.14,5.22-6.52,7.25a1.16,1.16,0,0,1-.49,0A26.84,26.84,0,0,1,86.79,157.9Z" transform="translate(-0.36 0.4)"/><path class="cls-21" d="M125.68,150.92a5.26,5.26,0,0,1-.25.73l-.12-.12Z" transform="translate(-0.36 0.4)"/><path class="cls-21" d="M119.27,136.59h.11l.11,0a12.42,12.42,0,0,1,5.17,1.28c.12,0,.19.12.23.13h0a3.8,3.8,0,0,1,.73.64c.15.58.25,1.13.35,1.65a.19.19,0,0,0,0,.07c0,.17,0,.33.06.5,0,.37,0,1.74,0,2.07s0,.36,0,.54,0,.39,0,.58c-1.71.81-3.46,3.15-4.6,4.34A29.49,29.49,0,0,0,119.27,136.59Z" transform="translate(-0.36 0.4)"/><path class="cls-23" d="M127,140.65a28.72,28.72,0,0,1,1.66,3.69,3.36,3.36,0,0,0-2.54-.25c0-.19,0-.38,0-.58s0-.34,0-.54.08-1.7,0-2.07c0-.17,0-.33-.06-.5a.19.19,0,0,1,0-.07c-.1-.52-.2-1.07-.35-1.65A11.45,11.45,0,0,1,127,140.65Z" transform="translate(-0.36 0.4)"/><path class="cls-25" d="M148,132.32c4.05-8.07-2.85-14.47-2.85-14.47a21.28,21.28,0,0,1-5.21,17.93c-2.72,8.4-13.39,8.19-13.39,8.19,4.85-3.43,2.36-6.36,2.36-6.36-3.06-5.54.23-13.5.55-14.25-1.71,3.07-4.25,2.77-4.25,2.77,4.67-4.43,2.61-10.8,2.61-10.8-18.7,3.73-32-12-32-12C97.08,112,103,115.48,103,115.48,91.56,114.34,87.91,100,87.91,100c-1.58,3.55-1.84,9-1.84,9,.68,17,11.67,17.56,11.67,17.56-4.87,1.09-9.63-2.18-9.63-2.18,1.69,4.8.45,10.47.45,10.47.13,5.81,6.83,10.07,6.83,10.07-9.37,1.72-12.22-2.19-13.23-3a5.85,5.85,0,0,0,1.74,2.53c-2.31-.08-6.47-2.41-6.47-2.41-9.56-.32-11.75-7.14-11.75-7.14-.54,8.82,4,10.22,4.59,10.36-15.48-2.46-13.77-16.63-13.67-17.41-3.79,8.38-.72,14.67-.47,15.16-9.82-13.8-1.06-27.62-1.06-27.62,2.38-2.7,2.61-3.94,2.61-3.94a38.08,38.08,0,0,1,.09-6.88c1.14-10.8,6.62-16.89,6.62-16.89,26.79-9.68,70.43,2.88,70.43,2.88,4,2.07,8,13.43,8,13.43.08.37.16.72.25,1,1,4.35,2,5.64,2,5.64C157.21,120.36,148.29,131.88,148,132.32Z" transform="translate(-0.36 0.4)"/><path class="cls-13" d="M57.88,110.92s2.76-8.45,4-11C61.91,99.88,64.72,100.78,57.88,110.92Z" transform="translate(-0.36 0.4)"/><path class="cls-13" d="M56.61,127.76a32.54,32.54,0,0,1,3.45-7.11s-4.81,14.17,2.42,21.58C62.48,142.23,55.71,139.66,56.61,127.76Z" transform="translate(-0.36 0.4)"/><path class="cls-13" d="M65.67,134.84a16.16,16.16,0,0,1,1.56-6.79s.41,11,10.21,13.93C77.44,142,68.28,142.72,65.67,134.84Z" transform="translate(-0.36 0.4)"/><path class="cls-13" d="M82.16,141.86s-4.79-4.65-4-9.3A46.23,46.23,0,0,0,82.16,141.86Z" transform="translate(-0.36 0.4)"/><path class="cls-13" d="M88.56,134.84s-2.53-6.55-1.63-8.24A20.51,20.51,0,0,1,88.56,134.84Z" transform="translate(-0.36 0.4)"/><path class="cls-13" d="M88.11,124.37s-3-2.6-3.88-8.59C84.23,115.78,86,121.63,88.11,124.37Z" transform="translate(-0.36 0.4)"/><path class="cls-13" d="M87.92,100s-.29-6.77,1.25-11.13C89.17,88.85,87.68,99.15,87.92,100Z" transform="translate(-0.36 0.4)"/><path class="cls-13" d="M95.79,103.31s-.13-2.56,0-5.38c0,0,13.28,19.67,32,17.4C127.76,115.33,108.43,120.54,95.79,103.31Z" transform="translate(-0.36 0.4)"/><path class="cls-13" d="M129.44,123.29s2.89-4.13,2.89-5.9A18.87,18.87,0,0,0,129.44,123.29Z" transform="translate(-0.36 0.4)"/><path class="cls-13" d="M129.44,140.4s4.4-6.39,2.89-11.33a7.73,7.73,0,0,0-1.89,5.67S130.78,138.21,129.44,140.4Z" transform="translate(-0.36 0.4)"/><path class="cls-13" d="M145.1,117.85a10.51,10.51,0,0,0-1.74-3s3.33,8.92-3.47,20.9A19.44,19.44,0,0,0,145.1,117.85Z" transform="translate(-0.36 0.4)"/><path class="cls-13" d="M127.76,115.33s-10.46-5.14-14.09-13.81C113.67,101.52,117.76,108.58,127.76,115.33Z" transform="translate(-0.36 0.4)"/><path class="cls-13" d="M127.76,115.33s.34-11.79-5.1-21.75C122.66,93.58,130.9,103.56,127.76,115.33Z" transform="translate(-0.36 0.4)"/><path class="cls-13" d="M143.09,105c-56.27-12.42-80.76-2.68-85.32-.47,1.14-10.8,6.62-16.89,6.62-16.89,26.79-9.68,70.43,2.88,70.43,2.88,4,2.07,8,13.43,8,13.43C142.92,104.3,143,104.65,143.09,105Z" transform="translate(-0.36 0.4)"/><path class="cls-13" d="M139.89,135.77s2.26-8.38.6-13.32Z" transform="translate(-0.36 0.4)"/><path class="cls-7" d="M123.07,160.5s3.13,18.74,4.43,32.76l10.35,40,1.31-1-10.55-39.41A233.52,233.52,0,0,0,123.07,160.5Z" transform="translate(-0.36 0.4)"/><path class="cls-7" d="M84.63,168.24s1.13,8.89.84,12.64l1-.23s-.6-9.19-1.44-12.39Z" transform="translate(-0.36 0.4)"/><path class="cls-26" d="M107.46,170.31a11.56,11.56,0,0,0-1,3.35c-1.34,6.34-2.5,18.85-2.5,18.85l-7.28-3.21c.34-3.39,4.36-12.63,6.47-17.29.76-1.69,1.27-2.76,1.27-2.76Z" transform="translate(-0.36 0.4)"/><path class="cls-26" d="M119.47,188.61l-7.07,3.64s-1.9-12.27-3.62-18.55a12.33,12.33,0,0,0-1.27-3.39l3-1.25s.62,1.15,1.55,2.9C114.49,176.54,118.94,185.29,119.47,188.61Z" transform="translate(-0.36 0.4)"/><path class="cls-18" d="M107.46,170.31a11.56,11.56,0,0,0-1,3.35,7.78,7.78,0,0,1-3.31-1.65c.76-1.69,1.27-2.76,1.27-2.76Z" transform="translate(-0.36 0.4)"/><path class="cls-18" d="M112.08,172a6.53,6.53,0,0,1-3.3,1.74,12.33,12.33,0,0,0-1.27-3.39l3-1.25S111.15,170.21,112.08,172Z" transform="translate(-0.36 0.4)"/><path class="cls-27" d="M112,165.1c.1,3.25-1.79,5.93-4.24,6s-4.49-2.49-4.59-5.74,1.79-5.92,4.23-6S111.91,161.87,112,165.1Z" transform="translate(-0.36 0.4)"/><path class="cls-28" d="M112,165.1c.1,3.25-1.79,5.93-4.24,6l-.36-11.73C109.86,159.3,111.91,161.87,112,165.1Z" transform="translate(-0.36 0.4)"/><path class="cls-29" d="M107.47,161c-1.69.06-3,2-2.93,4.34s1.5,4.2,3.19,4.15,3-2,2.92-4.33S109.15,160.94,107.47,161Zm.22,7.27c-1.41.05-2.59-1.5-2.65-3.45s1-3.57,2.43-3.61,2.59,1.5,2.65,3.45S109.09,168.22,107.69,168.26Z" transform="translate(-0.36 0.4)"/><ellipse class="cls-30" cx="107.58" cy="164.73" rx="2.54" ry="3.53" transform="translate(-5.34 3.76) rotate(-1.75)"/><path class="cls-31" d="M107.5,162.11c-.52,0-.93.62-.9,1.34s.46,1.3,1,1.28.93-.61.9-1.34S108,162.09,107.5,162.11Z" transform="translate(-0.36 0.4)"/><path class="cls-7" d="M68.85,192.17S75.72,184,96.23,175c0,0,1.13-.74,3.2.82l-20,24.37-12.57-4.59Z" transform="translate(-0.36 0.4)"/><path class="cls-16" d="M103.61,201.33c.12-.28.25-.55.36-.79,0,0,.59-1.31.74-1.8a14.51,14.51,0,0,1-2.32,2.93,3.06,3.06,0,0,1-.49.36l-.41.21c-.15-.06-.31-.12-.45-.19-6.87-2.91-8.06-11.9-8.06-11.9-.9-6.73,2.16-10.28,4.23-11.87a8.7,8.7,0,0,1,1.71-1.05,1.76,1.76,0,0,1,.94-.13,5.63,5.63,0,0,1,2.46,1.15c.26.19.42.33.42.33l-.31-.4A8.23,8.23,0,0,0,101,176.7a4.94,4.94,0,0,0-2-1,2.08,2.08,0,0,0-1,0h0c-1.7.2-5.34,1.48-14.86,7-14,8.14-16.11,12.9-16.11,12.9a10.44,10.44,0,0,0,.46,11.78c4,5.68,13.21,3.13,13.21,3.13l21.13-6A14.1,14.1,0,0,0,103.61,201.33Z" transform="translate(-0.36 0.4)"/><path class="cls-14" d="M106.94,179.13s5.52,8.32,1.14,17.14l-2.65,3.21s-7.66-.21-7.79-.71.51-13.26.51-13.26l.28-4.48,2.2-2.9,3-.9,1.07-.27Z" transform="translate(-0.36 0.4)"/><polyline class="cls-18" points="104.65 190.02 95.94 192.87 96.05 187.19 104.12 185.63"/><path class="cls-15" d="M105.7,200.73l-2.09.6-1.22.34-1.35.38c-6.87-2.91-8.06-11.9-8.06-11.9-.9-6.73,2.16-10.28,4.23-11.87,1.05-.52,1.93-.9,2.65-1.18.41-.17.78-.3,1.1-.4a7.77,7.77,0,0,1,1.5-.36h0a1.77,1.77,0,0,1,.88,0,5.38,5.38,0,0,1,3.21,2.39c-.23-.2-2-1.68-3.2-1.12a6.45,6.45,0,0,0-.94.53.41.41,0,0,0-.11.07c-1.7,1.16-4.83,4.18-4,10.34,0,0,1.12,7.64,7.27,9.92l.35-.16a10.14,10.14,0,0,0,2.31-2.48c-.12.41-.63,1.51-.63,1.51A13.66,13.66,0,0,1,105.7,200.73Z" transform="translate(-0.36 0.4)"/><path class="cls-17" d="M112.94,187.14a5.26,5.26,0,0,1-1.75,1.32,4.92,4.92,0,0,1-2.82.7,5.87,5.87,0,0,1-1.58-.25l-1.8.71a2,2,0,0,0-.09-.41s0,0,0-.06a19.52,19.52,0,0,1-.43-3.91,15.66,15.66,0,0,1,.69-1.47c1-1.8,2.86-4.49,5.25-3.44a1.34,1.34,0,0,1,.57,1.47s.47.2,1.45.68c0,0,.41-.86,1.79.39,0,0,1.23.94-.3,2.22C113.91,185.09,114.43,186.21,112.94,187.14Z" transform="translate(-0.36 0.4)"/><path class="cls-18" d="M108.37,189.16a5.87,5.87,0,0,1-1.58-.25s-1.86.77-1.88.74-.84-.11-.87-.24-1-.55-1-.57c-.16-.79,1.34-2.16,1.37-3.6a15.66,15.66,0,0,1,.69-1.47A11.62,11.62,0,0,0,108.37,189.16Z" transform="translate(-0.36 0.4)"/><path class="cls-18" d="M113.91,185.09a10.18,10.18,0,0,1-1.48,1.13A2.12,2.12,0,0,0,113.91,185.09Z" transform="translate(-0.36 0.4)"/><path class="cls-18" d="M112.94,187.14a7.77,7.77,0,0,1-1.66,1.05A7,7,0,0,1,112.94,187.14Z" transform="translate(-0.36 0.4)"/><path class="cls-18" d="M112.42,182.48a6,6,0,0,1,1,.68S113.75,182.86,112.42,182.48Z" transform="translate(-0.36 0.4)"/><path class="cls-18" d="M111,181.8a2.29,2.29,0,0,0-1.46-.32A2.57,2.57,0,0,0,111,181.8Z" transform="translate(-0.36 0.4)"/><path class="cls-32" d="M188.12,96c-5.47-8.58-19.93-13.46-27.73-15.54a14.22,14.22,0,0,0-3.44-.85h0c-1.09-.24-1.72-.36-1.72-.36l-1.51-.17c-8.09-1.42-16.28-3.4-20.58-4.49a125.35,125.35,0,0,0-6.72-15.54c-.78-1.5-1.62-3-2.52-4.63h0c-10.33-18.08-29-39.95-60.28-44.22,0,0-14.23-2-25.86,2.24h0c-6.64,2.4-12.45,6.82-14.23,14.79a15.61,15.61,0,0,0,2.43,10.35c4.86,5,4.65,3,4.65,3a12.26,12.26,0,0,1-1.49-3A13.5,13.5,0,0,1,32,23.25l.05,0c.16-.18.32-.35.5-.53l.13-.11a9.94,9.94,0,0,1,3.05-1.88h0A13.17,13.17,0,0,1,42,19.92a16,16,0,0,1,4.35.69l.29.09A18.43,18.43,0,0,1,51,22.63a17.74,17.74,0,0,1,6.14,7.19c1,4,3.34,15.85,3.5,35.52-23.85,1-34.8,5.57-34.8,5.57-13,5.29-8.92,14.75-8.92,14.75,5.52,13.1,31.46,16.3,41.14,17-.09.59-.17,1.19-.24,1.81a38.08,38.08,0,0,0-.09,6.88s-.23,1.24-2.61,3.94c0,0-8.76,13.82,1.06,27.62-.25-.49-3.32-6.78.47-15.16a16.92,16.92,0,0,0,0,3.69c.59,8.72,5.89,10.75,5.89,10.75h0a18.27,18.27,0,0,0,7.8,3c-.55-.14-5.13-1.54-4.59-10.35a.69.69,0,0,0,0,.13,2.05,2.05,0,0,0,.08.19,10.18,10.18,0,0,0,7.75,6.46c0,.15,0,.42-.07.77-.09,1.19-.51,4.54.35,5.65,0,0,.42.57,1.17,1.48a14.69,14.69,0,0,0-3.62,4.38C70.07,155.4,69,157,69,158a85.32,85.32,0,0,0-2.47,11.79c-.22.35-.44.71-.67,1.06-1.23,1.94-2.57,4-3.84,5.74a27.64,27.64,0,0,1-3.69,4.39,47.77,47.77,0,0,0-3.77,4.52,53.87,53.87,0,0,0-3.59,5.43,33.74,33.74,0,0,0-4.68,13.84c0,.13,0,.26,0,.39s-.3,3.49-.26,6.88a27.27,27.27,0,0,0,.3,4.09l-.05-.27.12.74a20.83,20.83,0,0,1-.3,3.73s-1.68,5.41-.15,8.75c.08.16.15.32.24.47a13,13,0,0,0,6.82,1.74l.6.16c1.29.35,4.28,1.24,5.45,2.22h0a12.17,12.17,0,0,0,6.22,2.21c-4.77,15.6-10.09,32.43-9.2,36.42,0,0,20.13,18.15,31.4,23.82-.17,1.14-.34,2.39-.5,3.7a163.5,163.5,0,0,0-1.32,17.58h0l-1.23,1.89-1.68,8.17a23.36,23.36,0,0,0,1.08,4.5,17.6,17.6,0,0,0,1.2,2.8l.33.62c1.85,3.15,4.94,5.81,10,4.74,0,0,4.46-1,3.06-8.16,0,0-1.49-4.86-2.32-8.4l-.52-2.91-1.05-2c.41-3.14,1.31-9.61,2.45-14.86.6-2.75.69-4.93,1.37-6.36,0,0,1.5-5.42,2.76-11.87.42-2.15.81-4.42,1.12-6.64a18.72,18.72,0,0,0,3.73,0v-1.81l2.71.11c.13.59.27,1.25.42,1.95l0,.05s.15.62.36,1.58c.66,3.26,1.35,6.94,1.55,9.09,0,.16,0,.33,0,.48s0,.28,0,.41-.07,4.61.44,10.42a162.78,162.78,0,0,0,2.26,17.48h0l-.82,2.11v8.34a23.56,23.56,0,0,0,2,4.19,18.5,18.5,0,0,0,1.74,2.5l.45.53c2.45,2.72,6,4.69,10.8,2.62,0,0,4.16-1.9,1.34-8.62,0,0-2.45-4.46-4-7.76l-1.1-2.74-1.43-1.75c-.23-3.16-.66-9.68-.61-15.05,0-2.26-.18-4.06-.07-5.49.18-.15,19.56-16.64,25.65-25.13,0,0-2-11.55-5.8-25.59-.52-1.9-1.06-3.84-1.64-5.81h0a1,1,0,0,1,.42-.08c.24,0,.54.21.54.21a1.37,1.37,0,0,1,.32.45,6,6,0,0,0,3,2.54,14.62,14.62,0,0,0,1.4,1.68c.57,0,.74-1,.79-1.48h0c1,.36,1-1.89,1-1.89.8-1.94-.63-4.39-.63-4.39a6.08,6.08,0,0,0-.65-1.42,70.73,70.73,0,0,0,7.38-3.2v0h0a27.68,27.68,0,0,0,4.36-2.51c-.24-.64-.57-1.47-1-2.41a14.78,14.78,0,0,0,2.14-1.39h0c-1.71-4.73-8.52-20.55-13.27-31.49h0c-6.7-24.42-18.14-40-18.14-40-.29-.91-1.9-2-3.73-3l.94-.72.31-.24s3.11-5.83,3.18-7.31a4.24,4.24,0,0,0-1.32-.39h0a4.65,4.65,0,0,1,1.3.4l-.19-.49c3.21-.38,9.47-1.91,11.47-8.07l0,0a19.46,19.46,0,0,0,5.19-17.86.06.06,0,0,1,0,0s6.9,6.4,2.85,14.47c.34-.44,9.26-12-2.85-21.7a13.91,13.91,0,0,1-1.63-4.17c13.7-.21,23.59-.91,23.59-.91C192.32,104.11,188.12,96,188.12,96ZM71.4,214.44c-.3,1.06-.62,2.22-1,3.45-.23.82-.46,1.67-.7,2.55a.65.65,0,0,0,0,.13c-.28,1-.57,2.06-.88,3.13l-.72-.36a7.69,7.69,0,0,1-2.4-1.86,2.94,2.94,0,0,1-.7-1.79,17.93,17.93,0,0,1-.17-6l0-.2.72-3.29a22.37,22.37,0,0,1,.75-2.11q.27-.65.6-1.29c.25.38.42.6.42.6a8.48,8.48,0,0,0,5.11,3.3C72.15,211.74,71.79,213,71.4,214.44ZM86,322.32a12.3,12.3,0,0,1-.25-1.5,12.64,12.64,0,0,0,.25,1.5v.07A.32.32,0,0,1,86,322.32Zm.87,3h0l-.1.06q-.24-.66-.39-1.23c0,.19.11.39.18.59s.09.27.13.4l.08.23h0l.08,0h0Zm7.57-6.4c-.13,1-.2,1.56-.2,1.56h0S94.32,319.92,94.45,318.94Zm.65,6Zm0,0Zm-.36-2.31,0,.2,0-.2Zm.49,3.71h0c.33,5.89-2.54,5.41-2.54,5.41a9.63,9.63,0,0,1-5.35-5.08l.21-.1-.21.11a9.64,9.64,0,0,0,5.35,5.06S95.54,332.18,95.22,326.32Zm19.88-2.88a13.32,13.32,0,0,1-.55-1.44,13.32,13.32,0,0,0,.55,1.44l0,.07Zm1.47,2.78h0l-.09.08c0-.07-.06-.13-.1-.19a1.74,1.74,0,0,0,.11.18h0s0,0,.07-.06h0Zm8-2.06Zm0,0ZM123.7,322c0,.06,0,.13.08.19a1.54,1.54,0,0,1-.08-.19Zm-.89-2h0s0-.57-.12-1.54C122.76,319.41,122.81,320,122.81,320Zm.74,11.31s2.88-.13,1.38-5.8h0c1.52,5.7-1.38,5.81-1.38,5.81a9.6,9.6,0,0,1-6.28-3.89l.2-.13a1.33,1.33,0,0,0-.19.14A9.62,9.62,0,0,0,123.55,331.29Z" transform="translate(-0.36 0.4)"/><path class="cls-33" d="M188.12,96c-5.47-8.58-19.93-13.46-27.73-15.54a14.22,14.22,0,0,0-3.44-.85h0c-1.09-.24-1.72-.36-1.72-.36l-1.51-.17c-8.09-1.42-16.28-3.4-20.58-4.49a125.35,125.35,0,0,0-6.72-15.54c-.78-1.5-1.62-3-2.52-4.63h0c-10.33-18.08-29-39.95-60.28-44.22,0,0-14.23-2-25.86,2.24h0c-6.64,2.4-12.45,6.82-14.23,14.79a15.61,15.61,0,0,0,2.43,10.35c4.86,5,4.65,3,4.65,3a12.26,12.26,0,0,1-1.49-3A13.5,13.5,0,0,1,32,23.25l.05,0c.16-.18.32-.35.5-.53l.13-.11a9.94,9.94,0,0,1,3.05-1.88h0A13.17,13.17,0,0,1,42,19.92a16,16,0,0,1,4.35.69l.29.09A18.43,18.43,0,0,1,51,22.63a17.74,17.74,0,0,1,6.14,7.19c1,4,3.34,15.85,3.5,35.52-23.85,1-34.8,5.57-34.8,5.57-13,5.29-8.92,14.75-8.92,14.75,5.52,13.1,31.46,16.3,41.14,17-.09.59-.17,1.19-.24,1.81a38.08,38.08,0,0,0-.09,6.88s-.23,1.24-2.61,3.94c0,0-8.76,13.82,1.06,27.62-.25-.49-3.32-6.78.47-15.16a16.92,16.92,0,0,0,0,3.69c.59,8.72,5.89,10.75,5.89,10.75h0a18.27,18.27,0,0,0,7.8,3c-.55-.14-5.13-1.54-4.59-10.35a.69.69,0,0,0,0,.13,2.05,2.05,0,0,0,.08.19,10.18,10.18,0,0,0,7.75,6.46c0,.15,0,.42-.07.77-.09,1.19-.51,4.54.35,5.65,0,0,.42.57,1.17,1.48a14.69,14.69,0,0,0-3.62,4.38C70.07,155.4,69,157,69,158a85.32,85.32,0,0,0-2.47,11.79c-.22.35-.44.71-.67,1.06-1.23,1.94-2.57,4-3.84,5.74a27.64,27.64,0,0,1-3.69,4.39,47.77,47.77,0,0,0-3.77,4.52,53.87,53.87,0,0,0-3.59,5.43,33.74,33.74,0,0,0-4.68,13.84c0,.13,0,.26,0,.39s-.3,3.49-.26,6.88a27.27,27.27,0,0,0,.3,4.09l-.05-.27.12.74a20.83,20.83,0,0,1-.3,3.73s-1.68,5.41-.15,8.75c.08.16.15.32.24.47a13,13,0,0,0,6.82,1.74l.6.16c1.29.35,4.28,1.24,5.45,2.22h0a12.17,12.17,0,0,0,6.22,2.21c-4.77,15.6-10.09,32.43-9.2,36.42,0,0,20.13,18.15,31.4,23.82-.17,1.14-.34,2.39-.5,3.7a163.5,163.5,0,0,0-1.32,17.58h0l-1.23,1.89-1.68,8.17a23.36,23.36,0,0,0,1.08,4.5,17.6,17.6,0,0,0,1.2,2.8l.33.62c1.85,3.15,4.94,5.81,10,4.74,0,0,4.46-1,3.06-8.16,0,0-1.49-4.86-2.32-8.4l-.52-2.91-1.05-2c.41-3.14,1.31-9.61,2.45-14.86.6-2.75.69-4.93,1.37-6.36,0,0,1.5-5.42,2.76-11.87.42-2.15.81-4.42,1.12-6.64a18.72,18.72,0,0,0,3.73,0v-1.81l2.71.11c.13.59.27,1.25.42,1.95l0,.05s.15.62.36,1.58c.66,3.26,1.35,6.94,1.55,9.09,0,.16,0,.33,0,.48s0,.28,0,.41-.07,4.61.44,10.42a162.78,162.78,0,0,0,2.26,17.48h0l-.82,2.11v8.34a23.56,23.56,0,0,0,2,4.19,18.5,18.5,0,0,0,1.74,2.5l.45.53c2.45,2.72,6,4.69,10.8,2.62,0,0,4.16-1.9,1.34-8.62,0,0-2.45-4.46-4-7.76l-1.1-2.74-1.43-1.75c-.23-3.16-.66-9.68-.61-15.05,0-2.26-.18-4.06-.07-5.49.18-.15,19.56-16.64,25.65-25.13,0,0-2-11.55-5.8-25.59-.52-1.9-1.06-3.84-1.64-5.81h0a1,1,0,0,1,.42-.08c.24,0,.54.21.54.21a1.37,1.37,0,0,1,.32.45,6,6,0,0,0,3,2.54,14.62,14.62,0,0,0,1.4,1.68c.57,0,.74-1,.79-1.48h0c1,.36,1-1.89,1-1.89.8-1.94-.63-4.39-.63-4.39a6.08,6.08,0,0,0-.65-1.42,70.73,70.73,0,0,0,7.38-3.2v0h0a27.68,27.68,0,0,0,4.36-2.51c-.24-.64-.57-1.47-1-2.41a14.78,14.78,0,0,0,2.14-1.39h0c-1.71-4.73-8.52-20.55-13.27-31.49h0c-6.7-24.42-18.14-40-18.14-40-.29-.91-1.9-2-3.73-3l.94-.72.31-.24s3.11-5.83,3.18-7.31a4.24,4.24,0,0,0-1.32-.39h0a4.65,4.65,0,0,1,1.3.4l-.19-.49c3.21-.38,9.47-1.91,11.47-8.07l0,0a19.46,19.46,0,0,0,5.19-17.86.06.06,0,0,1,0,0s6.9,6.4,2.85,14.47c.34-.44,9.26-12-2.85-21.7a13.91,13.91,0,0,1-1.63-4.17c13.7-.21,23.59-.91,23.59-.91C192.32,104.11,188.12,96,188.12,96ZM71.4,214.44c-.3,1.06-.62,2.22-1,3.45-.23.82-.46,1.67-.7,2.55a.65.65,0,0,0,0,.13c-.28,1-.57,2.06-.88,3.13l-.72-.36a7.69,7.69,0,0,1-2.4-1.86,2.94,2.94,0,0,1-.7-1.79,17.93,17.93,0,0,1-.17-6l0-.2.72-3.29a22.37,22.37,0,0,1,.75-2.11q.27-.65.6-1.29c.25.38.42.6.42.6a8.48,8.48,0,0,0,5.11,3.3C72.15,211.74,71.79,213,71.4,214.44ZM86,322.32a12.3,12.3,0,0,1-.25-1.5,12.64,12.64,0,0,0,.25,1.5v.07A.32.32,0,0,1,86,322.32Zm.87,3h0l-.1.06q-.24-.66-.39-1.23c0,.19.11.39.18.59s.09.27.13.4l.08.23h0l.08,0h0Zm7.57-6.4c-.13,1-.2,1.56-.2,1.56h0S94.32,319.92,94.45,318.94Zm.65,6Zm0,0Zm-.36-2.31,0,.2,0-.2Zm.49,3.71h0c.33,5.89-2.54,5.41-2.54,5.41a9.63,9.63,0,0,1-5.35-5.08l.21-.1-.21.11a9.64,9.64,0,0,0,5.35,5.06S95.54,332.18,95.22,326.32Zm19.88-2.88a13.32,13.32,0,0,1-.55-1.44,13.32,13.32,0,0,0,.55,1.44l0,.07Zm1.47,2.78h0l-.09.08c0-.07-.06-.13-.1-.19a1.74,1.74,0,0,0,.11.18h0s0,0,.07-.06h0Zm8-2.06Zm0,0ZM123.7,322c0,.06,0,.13.08.19a1.54,1.54,0,0,1-.08-.19Zm-.89-2h0s0-.57-.12-1.54C122.76,319.41,122.81,320,122.81,320Zm.74,11.31s2.88-.13,1.38-5.8h0c1.52,5.7-1.38,5.81-1.38,5.81a9.6,9.6,0,0,1-6.28-3.89l.2-.13a1.33,1.33,0,0,0-.19.14A9.62,9.62,0,0,0,123.55,331.29Z" transform="translate(-0.36 0.4)"/><rect class="cls-34" height="30"/><rect class="cls-34" x="758" y="302" height="39"/></g></g></svg>