<svg xmlns="http://www.w3.org/2000/svg" xmlns:xlink="http://www.w3.org/1999/xlink" viewBox="0 0 758 341"><defs><style>.cls-1{isolation:isolate;}.cls-2{fill:#90654c;}.cls-3{fill:#8a5330;}.cls-4{fill:#f9d9b5;}.cls-5{fill:#e5af6e;}.cls-6{fill:#7c4124;}.cls-7{fill:#b7a238;}.cls-8{fill:#e69e1d;}.cls-9{fill:#d5772a;}.cls-10{fill:#9b4934;}.cls-11{fill:#7f3526;}.cls-12{fill:#cf6335;}.cls-13{fill:#9d4b31;}.cls-14{fill:#e39b1d;}.cls-15{fill:#d2772a;}.cls-16{fill:none;}.cls-17{fill:#913a30;}.cls-18{fill:#a18046;}.cls-19{mix-blend-mode:overlay;fill:url(#linear-gradient);}.cls-20{opacity:0.4;mix-blend-mode:multiply;fill:url(#linear-gradient-2);}.cls-21{fill:#fff;}</style><linearGradient id="linear-gradient" x1="288.51" y1="170.75" x2="468.42" y2="170.75" gradientUnits="userSpaceOnUse"><stop offset="0" stop-color="#f2deb6" stop-opacity="0"/><stop offset="0.99" stop-color="#f4e9d7" stop-opacity="0.6"/><stop offset="1" stop-color="#c7e1b7" stop-opacity="0.8"/></linearGradient><linearGradient id="linear-gradient-2" x1="263.24" y1="189.12" x2="436.04" y2="155.96" gradientUnits="userSpaceOnUse"><stop offset="0" stop-color="#564339"/><stop offset="0.22" stop-color="#564339" stop-opacity="0.87"/><stop offset="0.61" stop-color="#564339" stop-opacity="0.52"/><stop offset="1" stop-color="#564339" stop-opacity="0.1"/></linearGradient></defs><title>character9_9</title><g class="cls-1"><g id="Layer_1" data-name="Layer 1"><path class="cls-2" d="M349.67,334.28h.07a7.51,7.51,0,0,0,3.89-1.62h0l.19-.17a4.8,4.8,0,0,0,.41-1.37c.34-2.07-.26-5.69-6.2-11.19a31.36,31.36,0,0,0-7.81-4.37c-.59-.21-1.19-.39-1.8-.55l1.68,4.7S342.19,329.85,349.67,334.28Z" transform="translate(-0.36 0.4)"/><path class="cls-3" d="M335.39,314.21l.06-1.35-1.89.61-4.08,4.67s-1.21.93-1,3.5c.35,2.91,2,4.53,3.64,6a32.23,32.23,0,0,0,3.3,2.6h0l.18.12c6.34,4.38,11.17,4.33,14.09,3.89-7.48-4.43-9.57-14.58-9.57-14.58l-1.68-4.7a15,15,0,0,0-2.48-.44C335.59,314.53,335.74,314.21,335.39,314.21Z" transform="translate(-0.36 0.4)"/><path class="cls-4" d="M347.23,321.64a4.05,4.05,0,0,0-1.46-2.6l0,0a10.91,10.91,0,0,0-2.67-2.08c-.74-.44-1.42-.82-2.05-1.13l-2.12-1.45,0,.51c-2.71-1-3.83-.6-3.83-.6a10.7,10.7,0,0,0,3.53,5.89h0a9.7,9.7,0,0,0,.87.63h0s3.54,2.53,6.25,1.78A2.25,2.25,0,0,0,347.23,321.64Z" transform="translate(-0.36 0.4)"/><path class="cls-3" d="M344.48,317.65s1.11,3.73-.68,6.13l1.34-.08s1.19-4-.06-5.81Z" transform="translate(-0.36 0.4)"/><path class="cls-4" d="M346.47,286.05c-.07.12-.13.25-.19.37l-.77,1.55c-2.64,5.38-10,20.23-10.47,26.3,0,0,2.75,6.22,7.89,4,0,0,7.12-16.94,11.13-21.16,0,0,1.69-2.57,3.87-6.24l.71-1.21a77,77,0,0,1-11.37-5.4C347,284.92,346.73,285.52,346.47,286.05Z" transform="translate(-0.36 0.4)"/><path class="cls-5" d="M364.8,277.9c3.9-8.85-12-4.24-14.17-2.48,0,0-1.71,5.06-3.36,8.86a77,77,0,0,0,11.37,5.4c.58-1,1.18-2,1.78-3.11C362,283.79,363.54,280.77,364.8,277.9Z" transform="translate(-0.36 0.4)"/><path class="cls-4" d="M335.45,312.86l-1.17,2.55s.14,2.44,5.16,5.39" transform="translate(-0.36 0.4)"/><path class="cls-2" d="M395.75,336.6l.06,0a7.59,7.59,0,0,0,2.92-3h0a2.52,2.52,0,0,0,.1-.24,4.6,4.6,0,0,0-.17-1.41c-.51-2-2.5-5.12-10.14-7.8a31.56,31.56,0,0,0-8.91-.89q-.93.06-1.86.21l3.41,3.64S387.12,335.52,395.75,336.6Z" transform="translate(-0.36 0.4)"/><path class="cls-3" d="M374.65,323.88l-.48-1.26-1.49,1.32-1.88,5.9s-.74,1.34.44,3.62c1.47,2.54,3.61,3.37,5.74,4.08A30.33,30.33,0,0,0,381,338.6h0l.21,0c7.56,1.49,12-.48,14.48-2-8.63-1.08-14.59-9.56-14.59-9.56l-3.41-3.64a15.72,15.72,0,0,0-2.46.58C375,324.09,375,323.75,374.65,323.88Z" transform="translate(-0.36 0.4)"/><path class="cls-4" d="M388.47,326a4,4,0,0,0-2.37-1.8h0a11.06,11.06,0,0,0-3.27-.85q-1.29-.17-2.34-.21l-2.52-.48.17.47c-2.88.17-3.75,1-3.75,1a10.68,10.68,0,0,0,5.59,4h0c.33.09.69.16,1.05.22h0s4.26.91,6.44-.86A2.19,2.19,0,0,0,388.47,326Z" transform="translate(-0.36 0.4)"/><path class="cls-3" d="M384.36,323.42s2.51,3,1.82,5.89l1.2-.61s-.5-4.14-2.38-5.3Z" transform="translate(-0.36 0.4)"/><path class="cls-4" d="M373.58,293.64c0,.14,0,.28,0,.41s0,.64-.09,1.73c-.29,6-1.15,22.56.87,28.3,0,0,5,4.61,8.84.54,0,0-.22-18.37,1.77-23.84,0,0,.53-3,1.07-7.27.06-.44.11-.92.17-1.39a77.88,77.88,0,0,1-12.58-.42C373.62,292.39,373.61,293.05,373.58,293.64Z" transform="translate(-0.36 0.4)"/><path class="cls-5" d="M387.15,278.86c.05-9.67-12.7.9-14,3.37,0,0,.45,5.32.46,9.47a77.88,77.88,0,0,0,12.58.42c.14-1.14.27-2.32.39-3.57C386.9,285.39,387.14,282,387.15,278.86Z" transform="translate(-0.36 0.4)"/><path class="cls-4" d="M374.17,322.62l-.06,2.81s1.1,2.18,6.88,2.88" transform="translate(-0.36 0.4)"/><path class="cls-2" d="M403.36,180.08c-.6-.89-4.16-.23-4.22-.41.79,4.46,3.41,1.16,3.28,8.86l-1.35,12.23c-.55,31.74-2.1,77.13-2.1,77.13-2,1.56-7.45,4.08-11.91,5.72a33.75,33.75,0,0,1-5,1.48c-9.79,1.73-20.43-.26-20.43-.26-1.48-.29-2.93-.61-4.36-1-1.12-.26-2.2-.55-3.29-.86a103.07,103.07,0,0,1-24.59-10.15c-18.8-10.88-26.86-24-26.86-24,3.54-6.77,9.82-14.12,15.28-21,1.26-1.57,2.47-3.11,3.59-4.61h0c1.58-2.09,3.16-4.16,4.74-6.17h0c.65-.83,1.3-1.64,2-2.46l.67-.84.2-.25.6-.74.24-.3c1.3-1.59,2.58-3.14,3.84-4.63h0l.06-.07c1.19-1.42,2.37-2.8,3.5-4.11.34-.4.69-.8,1-1.18q2.42-2.77,4.53-5.12l3.17-7.92,6.18-15.42c-.29-.43,1.37-9.55,1.18-10,0,0,1.25,1.56,1.27,1.56-2-4.95-5-4.25-5-4.25l11.16-13.87,5.14-6.39,1.84-2.28s24.29-3.28,30.85-2.68c1.64.15,6.87,6,8.06,6.54l-9.81-.85a26,26,0,0,1-8,6.62c3.43,4.54,8.92,1.49,13.05,5.43-.58,2.56-2.32,12.56-2.24,15.59C399.37,173.43,402.83,176.07,403.36,180.08Z" transform="translate(-0.36 0.4)"/><path class="cls-3" d="M392.35,155s-8.66,1.28-15.25,0c0,0-19.29,11.82-23,26,0,0-4.22,18,12.3,27.64,0,0-10.12,11.11-31.38,7.23l-5.44-3c1.38-1.7,2.74-3.35,4.08-4.93h0l.06-.07c1.19-1.42,2.37-2.8,3.5-4.11.34-.4.69-.8,1-1.18q2.42-2.77,4.53-5.12l9.35-23.34c-.29-.43,1.37-9.55,1.18-10,0,0,1.25,1.56,1.27,1.56-2-4.95-5-4.25-5-4.25l16.3-20.26,6.29-1.05,1.93-.67Z" transform="translate(-0.36 0.4)"/><path class="cls-4" d="M427.75,250.22c1.83,1.63,3.22.56,3.22.56,1.74-2.81.37-6.54-.65-8.6a13.85,13.85,0,0,1-6.53,5.4,5.73,5.73,0,0,0,2,1.47A3.39,3.39,0,0,0,427.75,250.22Z" transform="translate(-0.36 0.4)"/><path class="cls-5" d="M430.32,242.18l0,0h0l-5.31-.07-2.72.86a7.12,7.12,0,0,0,.37,2.7,5.78,5.78,0,0,0,1.15,2A13.85,13.85,0,0,0,430.32,242.18Z" transform="translate(-0.36 0.4)"/><path class="cls-6" d="M362.28,161.36l-.3.25Z" transform="translate(-0.36 0.4)"/><path class="cls-6" d="M361.24,161c-.63.53-1.25,1.07-1.85,1.63C360,162,360.62,161.49,361.24,161Z" transform="translate(-0.36 0.4)"/><path class="cls-6" d="M354,168.23a1,1,0,0,1-.13.16S353.93,168.29,354,168.23Z" transform="translate(-0.36 0.4)"/><path class="cls-6" d="M358.87,163.07l-.63.6Z" transform="translate(-0.36 0.4)"/><path class="cls-6" d="M357.58,164.32l-.51.51Z" transform="translate(-0.36 0.4)"/><path class="cls-3" d="M332.79,221.44a8.39,8.39,0,0,1-2-2.58,3.06,3.06,0,0,1-.24-2,17.1,17.1,0,0,1,.63-3.89l-.24.3-.6.74-.2.25-.67.84c-.66.82-1.31,1.63-2,2.46h0c-1.58,2-3.16,4.08-4.74,6.17h0c-1.12,1.5-2.33,3-3.59,4.61a7.81,7.81,0,0,1,1.39,1.34h0s4.53,6.28,15.33,4.75c0,0,13.51-3.18,19.55-1.58-.7-.24-11.89-4.13-19.06-8.69A26.36,26.36,0,0,1,332.79,221.44Z" transform="translate(-0.36 0.4)"/><path class="cls-6" d="M356.33,165.6l-.39.41Z" transform="translate(-0.36 0.4)"/><path class="cls-6" d="M355.12,166.9l-.26.3Z" transform="translate(-0.36 0.4)"/><path class="cls-6" d="M341.51,197" transform="translate(-0.36 0.4)"/><path class="cls-2" d="M439.08,232.05c-.45.6-.92,1.16-1.42,1.71-8.77,9.86-22.5,11.55-27.28,11.84-1.09.06-1.72.06-1.72.06l-23.22-66c1-32.37,23.94-28.34,23.94-28.34Z" transform="translate(-0.36 0.4)"/><path class="cls-7" d="M438.21,235.25c-9.4,12.38-27.19,12.17-27.19,12.17l-.64-1.82c4.78-.29,18.51-2,27.28-11.84Z" transform="translate(-0.36 0.4)"/><path class="cls-3" d="M396.52,153.32s-10.56,4.6-11.08,26.32c0,0-3.23-16.27,7-26.4l1.26-.38Z" transform="translate(-0.36 0.4)"/><polygon class="cls-3" points="385.08 180.05 399.74 239.72 400.29 223.28 385.08 180.05"/><path class="cls-8" d="M361.1,141.45a2.44,2.44,0,0,0,.14.23l.12-.06Z" transform="translate(-0.36 0.4)"/><path class="cls-9" d="M389.54,151.17c-5-1-17.25-3.55-20.47-4.93a78.76,78.76,0,0,1-7.71-4.62l-.12.06c.73,1.16,6.31,8.25,19,12.69.57-.31,3.44-1,3.91-1.25A48.73,48.73,0,0,1,389.54,151.17Z" transform="translate(-0.36 0.4)"/><path class="cls-9" d="M359.14,146.23a8.78,8.78,0,0,1-1.1,2.19c2.65,2.3,10.12,6.28,17.38,8.92,2.21-1.4,3.07-2,4.86-3-12.73-4.44-18.31-11.53-19-12.69a15.31,15.31,0,0,0-5.67,4.24,17.89,17.89,0,0,0,1.36,1.48C358.52,145.6,359.14,146.23,359.14,146.23Z" transform="translate(-0.36 0.4)"/><path class="cls-8" d="M314.1,198.8a27.94,27.94,0,0,0-.78,4.33c-.1,1.45-.41,8,1.77,9.63a1.84,1.84,0,0,1-.69,2.76s-2.6,3.37-1.14-11.89a23.13,23.13,0,0,1-1.3,3.79s-3.21,5.16-2.51,9c3.1,1.66,10,3.82,22.55.61a8.54,8.54,0,0,0,.05-3.13h0a3.13,3.13,0,0,1-.24-2,19,19,0,0,1,1.44-6.31h-.09S320,204.1,314.1,198.8Z" transform="translate(-0.36 0.4)"/><path class="cls-8" d="M335.23,169.89a52.87,52.87,0,0,0-5.13,3.68c2.41,2.46,9.93,7.11,19.09,10.35a74.46,74.46,0,0,1,6.46-10.2c-3.73-1.21-11.88-4.29-15.42-7.39A28.87,28.87,0,0,1,335.23,169.89Z" transform="translate(-0.36 0.4)"/><path class="cls-8" d="M352.49,153.1a6.64,6.64,0,0,0,.07,1.67l.52-1.05C352.87,153.52,352.68,153.31,352.49,153.1Z" transform="translate(-0.36 0.4)"/><path class="cls-8" d="M369.69,161.13c-3.85-1.29-13-4-16.33-7.14-.48.49-.8.78-.8.78s-3.1,3.17-6.81,6.64c2.49,1.94,8.85,5.1,14.22,7.21a28.12,28.12,0,0,1,4.6-3.72S368.06,162.22,369.69,161.13Z" transform="translate(-0.36 0.4)"/><path class="cls-9" d="M332,217.06c.62-.16,1.25-.33,1.9-.52l.14,0a8.24,8.24,0,0,1-2-2.57h0A8.54,8.54,0,0,1,332,217.06Z" transform="translate(-0.36 0.4)"/><path class="cls-9" d="M330.49,223.46a61.9,61.9,0,0,1-8.67,1.27h0s4.52,6.27,15.32,4.74c0,0,13.55-3.18,19.59-1.56,0,0-11.7-4-19.09-8.71C334.41,221.33,330.49,223.46,330.49,223.46Z" transform="translate(-0.36 0.4)"/><path class="cls-9" d="M359.14,146.23s-.62-.63-2.21,1.17q.49.49,1.11,1A8.78,8.78,0,0,0,359.14,146.23Z" transform="translate(-0.36 0.4)"/><path class="cls-9" d="M353.08,153.72l-.52,1.05s.32-.29.8-.78Z" transform="translate(-0.36 0.4)"/><path class="cls-9" d="M313.32,203.13c0-.19,0-.3,0-.3,0,.27,0,.53-.08.8l0-.1C313.29,203.41,313.31,203.26,313.32,203.13Z" transform="translate(-0.36 0.4)"/><path class="cls-9" d="M314.4,215.52a1.84,1.84,0,0,0,.69-2.76c-2.18-1.68-1.87-8.18-1.77-9.63,0,.13,0,.28,0,.4l0,.1C311.8,218.89,314.4,215.52,314.4,215.52Z" transform="translate(-0.36 0.4)"/><path class="cls-9" d="M339.44,191.54c-2.05,2-3.57,5.38-4.58,8.32l1.14.25C343,186.18,339.44,191.54,339.44,191.54Z" transform="translate(-0.36 0.4)"/><path class="cls-9" d="M341.91,187.87l-.37-.1a14.16,14.16,0,0,0-1.17,2.77A11.87,11.87,0,0,1,341.91,187.87Z" transform="translate(-0.36 0.4)"/><path class="cls-10" d="M356.93,147.4a17.89,17.89,0,0,1-1.36-1.48,11.57,11.57,0,0,0-1.28,1.91,13.41,13.41,0,0,0-1.8,5.27c.19.21.38.42.59.62A30.17,30.17,0,0,1,356.93,147.4Z" transform="translate(-0.36 0.4)"/><path class="cls-10" d="M353.36,154c3.33,3.12,12.48,5.85,16.33,7.14,1.74-1.18,3.31-2.25,5.73-3.79-7.26-2.64-14.73-6.62-17.38-8.92A39,39,0,0,1,353.36,154Z" transform="translate(-0.36 0.4)"/><path class="cls-11" d="M356.93,147.4a30.17,30.17,0,0,0-3.85,6.32l.28.27a39,39,0,0,0,4.68-5.57Q357.42,147.89,356.93,147.4Z" transform="translate(-0.36 0.4)"/><path class="cls-10" d="M340.23,166.33c3.54,3.1,11.69,6.18,15.42,7.39a62.82,62.82,0,0,1,4.32-5.1c-5.37-2.11-11.73-5.27-14.22-7.21C344,163.09,342,164.84,340.23,166.33Z" transform="translate(-0.36 0.4)"/><path class="cls-10" d="M324.93,178.24c3.25,5,12.25,8.23,16.61,9.53.48-.82,1.08-1.52,1.76-1.59a19.88,19.88,0,0,0-1.39,1.69c1.13.33,3.52,1.22,3.67,1.26.57-1.32,2.44-3,3.61-5.21-9.16-3.24-16.68-7.89-19.09-10.35A58.74,58.74,0,0,0,324.93,178.24Z" transform="translate(-0.36 0.4)"/><path class="cls-11" d="M343.3,186.18c-.68.07-1.28.77-1.76,1.59l.37.1A19.88,19.88,0,0,1,343.3,186.18Z" transform="translate(-0.36 0.4)"/><path class="cls-11" d="M335,202.15a21.61,21.61,0,0,1,1.34-2l-.31-.06Z" transform="translate(-0.36 0.4)"/><path class="cls-10" d="M333.32,205.39a49.27,49.27,0,0,1,1.54-5.53c-11.16-2.56-16.42-6.49-18.5-8.52-.05.13-.1.26-.14.4s-1.25,3.54-2.12,7.06c5.86,5.3,19.06,6.78,19.06,6.78h.09c0-.07.05-.14.08-.2Z" transform="translate(-0.36 0.4)"/><path class="cls-11" d="M335,202.15a22.37,22.37,0,0,0-1.64,3.23Z" transform="translate(-0.36 0.4)"/><path class="cls-11" d="M333.32,205.39h0a22.37,22.37,0,0,1,1.64-3.23l1-2-1.14-.25A49.27,49.27,0,0,0,333.32,205.39Z" transform="translate(-0.36 0.4)"/><path class="cls-10" d="M316.17,220.64l.59.33c11.61,3.15,14.58-.78,15.24-3.91-12.54,3.21-19.45,1.05-22.55-.61a5.05,5.05,0,0,0,.12.56A13.94,13.94,0,0,0,316.17,220.64Z" transform="translate(-0.36 0.4)"/><path class="cls-11" d="M332,217.06c-.66,3.13-3.63,7.06-15.24,3.91,1.24.7,4.11,2.43,5.06,3.76a61.9,61.9,0,0,0,8.67-1.27s3.92-2.13,7.16-4.25A24.41,24.41,0,0,1,334,216.5l-.14,0C333.25,216.73,332.62,216.9,332,217.06Z" transform="translate(-0.36 0.4)"/><path class="cls-8" d="M345.58,189.13c-.15,0-2.54-.93-3.67-1.26a11.87,11.87,0,0,0-1.54,2.67,14.16,14.16,0,0,1,1.17-2.77c-4.36-1.3-13.36-4.49-16.61-9.53a36,36,0,0,0-8.57,13.1c2.08,2,7.34,6,18.5,8.52,1-2.94,2.53-6.34,4.58-8.32,0,0,3.52-5.36-3.44,8.57l.31.06a24.5,24.5,0,0,1,1.94-2.25h0Z" transform="translate(-0.36 0.4)"/><path class="cls-4" d="M427.1,109.41c0,.13,0,.26,0,.39-.44,4.09-1.74,8.4-4.82,11.6a15.29,15.29,0,0,1-6.21,3.84l-1.79-8-.74-3.27-3.93-17.6,4.14-2.93a31.4,31.4,0,0,0,7.22,18.27C423.05,111,425.11,110.23,427.1,109.41Z" transform="translate(-0.36 0.4)"/><path class="cls-12" d="M417.24,134.82l-5-3.89-47.57,2.61a24.46,24.46,0,0,1-7-1c-6.53-2.29-7.58-7.85-7.59-11.18a14.13,14.13,0,0,1,.23-2.67,16.52,16.52,0,0,0,1.26,14.83c-5.64-3.78-5.92-8.73-5.2-12.16a14.46,14.46,0,0,1,1.51-4.06c2.85-4.55,1-12.27,1-12.27s64.22-25.58,64.78-12.49c0,.3,0,.59.06.88a31.4,31.4,0,0,0,7.22,18.27c.63.71,1,1.07,1,1.07a5.06,5.06,0,0,1-2.92-.44,11.58,11.58,0,0,1-3.56-2.54,8.3,8.3,0,0,0,1.89,3.06,15,15,0,0,0,1.06,1.08,13.68,13.68,0,0,1,3.83,7.46C423.35,128.75,417.24,134.82,417.24,134.82Z" transform="translate(-0.36 0.4)"/><path class="cls-5" d="M427.1,109.41c-2,.82-4.05,1.59-6.16,2.3-2-2.37-12.43-9.21-13.09-18.86l5.08-10.18,8,.93,5.3,13.59A40.28,40.28,0,0,1,427.1,109.41Z" transform="translate(-0.36 0.4)"/><path class="cls-13" d="M420.94,111.71l-1.91.63-1.67.52c-1.27.39-2.55.76-3.85,1.11-22.56,6.16-48.54,7.32-63.44,7.41a14.13,14.13,0,0,1,.23-2.67,15.87,15.87,0,0,0-.82,2.67q-1.67,0-3.12,0a14.46,14.46,0,0,1,1.51-4.06c2.85-4.55,1-12.27,1-12.27s64.22-30.91,64.78-17.82c0,.3,0,5.92.06,6.21A31.4,31.4,0,0,0,420.94,111.71Z" transform="translate(-0.36 0.4)"/><path class="cls-13" d="M415.47,131.76s6.71-9.56-2.91-18.07c0,0,10.09,9.63-3,18.07" transform="translate(-0.36 0.4)"/><path class="cls-13" d="M350.2,121.38a10.38,10.38,0,0,0,7.85,11.18s-8.48-2-5.53-13.47Z" transform="translate(-0.36 0.4)"/><path class="cls-13" d="M357.5,119.09s-4.22,8.25,3.2,10c0,0-6.26-.77,0-10" transform="translate(-0.36 0.4)"/><path class="cls-13" d="M401.57,116.1s6.8,6.09,3.54,11.71c0,0,4.41-3.47-1.32-14.12S401.57,116.1,401.57,116.1Z" transform="translate(-0.36 0.4)"/><path class="cls-14" d="M416,142.9l-.19.22-.12-.09Z" transform="translate(-0.36 0.4)"/><path class="cls-15" d="M390.8,147.08c5.2,0,12.67-.18,16.2-.92a77,77,0,0,0,8.7-3.13l.12.09c-1,1-6.05,5.72-19.78,7.58-.51-.44-1-.82-1.42-1.14A29.43,29.43,0,0,0,390.8,147.08Z" transform="translate(-0.36 0.4)"/><path class="cls-16" d="M360.24,137.93c0-.08,0-.16,0-.25h0C360.23,137.77,360.24,137.85,360.24,137.93Z" transform="translate(-0.36 0.4)"/><path class="cls-16" d="M360.45,144.83c.08.26.16.48.24.69C360.61,145.32,360.53,145.08,360.45,144.83Z" transform="translate(-0.36 0.4)"/><path class="cls-16" d="M359.81,142.2c.06.25.12.47.19.68C359.93,142.67,359.87,142.45,359.81,142.2Z" transform="translate(-0.36 0.4)"/><path class="cls-16" d="M360.29,136.34c0-.2,0-.39,0-.6C360.31,136,360.31,136.14,360.29,136.34Z" transform="translate(-0.36 0.4)"/><path class="cls-16" d="M360.38,133.38c0-.19.05-.36.09-.56C360.43,133,360.41,133.19,360.38,133.38Z" transform="translate(-0.36 0.4)"/><path class="cls-16" d="M359.49,139.94c0,.22,0,.41.06.62C359.53,140.35,359.5,140.16,359.49,139.94Z" transform="translate(-0.36 0.4)"/><path class="cls-16" d="M359.62,141.16a6.45,6.45,0,0,0,.12.66C359.69,141.6,359.65,141.39,359.62,141.16Z" transform="translate(-0.36 0.4)"/><path class="cls-10" d="M418.9,137.3c0-.59-.07-1-.07-1a6.25,6.25,0,0,0,.05-1.86c-.48-3.49-4.58-2.56-4.58-2.56a36.76,36.76,0,0,1,.59,11.58,64.62,64.62,0,0,1,3.94-7.16,11.05,11.05,0,0,1-4.05,8.09c-.07.6.25,2.63.14,3.26,2.09-2.29,3.39-3.93,3.39-3.93C419.31,142.48,419,138.66,418.9,137.3Z" transform="translate(-0.36 0.4)"/><polygon class="cls-9" points="357.05 137.59 357.05 137.59 357.05 137.59 357.05 137.59"/><path class="cls-9" d="M360.23,137.68h0v0Z" transform="translate(-0.36 0.4)"/><path class="cls-11" d="M418.83,136.29a64.62,64.62,0,0,0-3.94,7.16c0,.3-.07.61-.11.93A11.05,11.05,0,0,0,418.83,136.29Z" transform="translate(-0.36 0.4)"/><path class="cls-8" d="M380.83,146.69a16.54,16.54,0,0,0-10.37,4.86c3.08,1.68,9.71,1,15.05,2.54C382.89,151.07,381.15,149.26,380.83,146.69Z" transform="translate(-0.36 0.4)"/><path class="cls-9" d="M380.65,144.63c-.54.18-1.1.37-1.67.58a29.17,29.17,0,0,0-8.52,6.34,16.54,16.54,0,0,1,10.37-4.86C380.67,145.44,380.65,144.63,380.65,144.63Z" transform="translate(-0.36 0.4)"/><path class="cls-8" d="M386.6,142.18c.08.23.16.46.25.67l-.15,0,.32,0a7.88,7.88,0,0,1,0-.82Z" transform="translate(-0.36 0.4)"/><path class="cls-11" d="M386.7,142.88c-.63.15-3.1.76-6.05,1.75,0,0,0,.81.18,2.06a32.13,32.13,0,0,1,7.13,0,15.71,15.71,0,0,1-.94-3.81Z" transform="translate(-0.36 0.4)"/><path class="cls-9" d="M400.29,145.67l-2.31-1.2a22.47,22.47,0,0,0-11-1.63,15.71,15.71,0,0,0,.94,3.81,42.72,42.72,0,0,1,8.51,1.75c3.25,1.19,4.94,1.16,5.83.73A20.37,20.37,0,0,0,400.29,145.67Z" transform="translate(-0.36 0.4)"/><path class="cls-10" d="M400.29,145.67l1.21.52a29.13,29.13,0,0,0-3.52-1.72l2.31,1.2Z" transform="translate(-0.36 0.4)"/><path class="cls-10" d="M405.73,130.83a58.64,58.64,0,0,1-7,.33c.26,5.28.2,11-1,13.2l.23.11a29.13,29.13,0,0,1,3.52,1.72c1.95.85,3.53,1.62,4.7,2.23.09-1.74.35-7.42.22-13.25a6.05,6.05,0,0,1-1.13-.62S404.31,132,405.73,130.83Z" transform="translate(-0.36 0.4)"/><path class="cls-11" d="M405.73,130.83c-1.42,1.21-.44,3.72-.44,3.72a6.05,6.05,0,0,0,1.13.62c0-1.48-.09-3-.18-4.4Z" transform="translate(-0.36 0.4)"/><path class="cls-11" d="M402.3,149.13a1.73,1.73,0,0,0,.89-1.92l-2.9-1.54A20.37,20.37,0,0,1,402.3,149.13Z" transform="translate(-0.36 0.4)"/><path class="cls-10" d="M406.2,148.42c0,.35,0,.55,0,.55a25.39,25.39,0,0,0-3-1.76,1.73,1.73,0,0,1-.89,1.92,9,9,0,0,1,1.22,5.21c1.77-1.26,3.81-1.08,5.41-2.54l-.34-2.06S407.75,149.23,406.2,148.42Z" transform="translate(-0.36 0.4)"/><path class="cls-10" d="M401.5,146.19l-1.21-.52h0l2.9,1.54h0C402.62,146.84,402.06,146.51,401.5,146.19Z" transform="translate(-0.36 0.4)"/><path class="cls-9" d="M368.1,128.77l2-.35-2.21.38Z" transform="translate(-0.36 0.4)"/><path class="cls-8" d="M365.65,149.6h0c1.49,1.13,3.59,1.23,4.81,2,0,0-2.28-2.82-5-6C365.67,146.59,365.32,148.6,365.65,149.6Z" transform="translate(-0.36 0.4)"/><path class="cls-8" d="M378.93,145.23a56.68,56.68,0,0,1,.66-17.42c-1.73-.14-3.49-.2-5.18-.21-1.58.32-3.07.6-4.33.82h0l-2,.35h0a33.87,33.87,0,0,0-2.88,13.36,3.38,3.38,0,0,1,.57.89s4.94,6.58,4.67,8.53a29.17,29.17,0,0,1,8.52-6.34Z" transform="translate(-0.36 0.4)"/><path class="cls-9" d="M365.79,143a3.38,3.38,0,0,0-.57-.89,23.83,23.83,0,0,0,.28,3.45c2.68,3.15,5,6,5,6C370.73,149.6,365.79,143,365.79,143Z" transform="translate(-0.36 0.4)"/><path class="cls-8" d="M360.69,145.52c-.08-.21-.16-.43-.24-.69,0-.06-.43-1.89-.45-2-.07-.21-.13-.43-.19-.68s-.05-.26-.07-.38a6.45,6.45,0,0,1-.12-.66c0-.19-.05-.4-.07-.6s-.05-.4-.06-.62.75-1.73.75-2c0-.08,0-.16,0-.25-.91-.9-2.41-.33-2.82-.5,0,1.68,3.28,8.43,3.28,8.43v-.09Z" transform="translate(-0.36 0.4)"/><path class="cls-9" d="M360.23,137.33c0-.1,0-.21,0-.32a3.71,3.71,0,0,0-2.84.17h0c.41.17,1.91-.4,2.82.5Z" transform="translate(-0.36 0.4)"/><polygon class="cls-10" points="369.72 128.82 369.72 128.82 369.71 128.83 369.72 128.82"/><path class="cls-10" d="M367.86,128.8l-1.63.28,1.87-.31Z" transform="translate(-0.36 0.4)"/><path class="cls-10" d="M366.22,129v.07l0-.07Z" transform="translate(-0.36 0.4)"/><path class="cls-10" d="M366.26,129l0,.07.14-.09Z" transform="translate(-0.36 0.4)"/><path class="cls-10" d="M366.37,129l-.14.09,1.63-.28Z" transform="translate(-0.36 0.4)"/><path class="cls-10" d="M403.19,147.21h0a25.39,25.39,0,0,1,3,1.76s0-.2,0-.55c-1.17-.61-2.75-1.38-4.7-2.23C402.06,146.51,402.62,146.84,403.19,147.21Z" transform="translate(-0.36 0.4)"/><path class="cls-10" d="M380.83,146.69c.32,2.57,2.06,4.38,4.68,7.4h0c1.73.5,3.41,1,4.93,1.39,2,.53,3.34-.62,4.53-.32-1.46-2.35-5.33-3.83-7-8.51A32.13,32.13,0,0,0,380.83,146.69Z" transform="translate(-0.36 0.4)"/><polygon class="cls-10" points="385.15 154.49 385.15 154.49 385.15 154.49 385.15 154.49"/><path class="cls-10" d="M383.22,143.57a26.51,26.51,0,0,0-4.24,1.64c.57-.21,1.13-.4,1.67-.58h0Z" transform="translate(-0.36 0.4)"/><path class="cls-17" d="M386.6,142.18l-3.38,1.39a23.55,23.55,0,0,1,3.48-.69l.15,0C386.76,142.64,386.68,142.41,386.6,142.18Z" transform="translate(-0.36 0.4)"/><path class="cls-17" d="M383.22,143.57l-2.57,1.06h0c3-1,5.42-1.6,6.05-1.75A23.55,23.55,0,0,0,383.22,143.57Z" transform="translate(-0.36 0.4)"/><path class="cls-10" d="M386.6,142.18c-1.22-3.39-.62-9,.11-13.09a30.89,30.89,0,0,0-7.12-1.28,56.68,56.68,0,0,0-.66,17.42l.05,0a26.51,26.51,0,0,1,4.24-1.64Z" transform="translate(-0.36 0.4)"/><path class="cls-8" d="M414.54,144.55a6.12,6.12,0,0,1,.35-1.1,36.76,36.76,0,0,0-.59-11.58s-3.75,5-7.88,3.3c.13,5.83-.13,11.51-.22,13.25,1.55.81,2.39,1.32,2.39,1.32l.34,2.06c.89-.81,2.12-1.41,2.92-2.21,1.12-1.12,2.19-1,3.07-2,.11-.63-.21-2.66-.14-3.26A2.59,2.59,0,0,1,414.54,144.55Z" transform="translate(-0.36 0.4)"/><path class="cls-9" d="M406.24,130.77c.09,1.44.15,2.92.18,4.4,4.13,1.71,7.88-3.3,7.88-3.3a21,21,0,0,0-5.48-1.61A20.67,20.67,0,0,1,406.24,130.77Z" transform="translate(-0.36 0.4)"/><path class="cls-9" d="M414.78,144.38c0-.32.08-.63.11-.93a6.12,6.12,0,0,0-.35,1.1A2.59,2.59,0,0,0,414.78,144.38Z" transform="translate(-0.36 0.4)"/><path class="cls-10" d="M365.5,145.58c-2.06-2.42-3.58-6.23-5.27-7.9,0,.09,0,.17,0,.25,0,.27-.77,1.76-.75,2s0,.41.06.62,0,.41.07.6.07.44.12.66,0,.26.07.38.12.47.19.68c0,.06.43,1.89.45,2,.08.25.07.29.15.49l.06.14,0,.15.34.29c.84.71,2.21,1.88,4.62,3.7h0C365.32,148.6,365.67,146.59,365.5,145.58Z" transform="translate(-0.36 0.4)"/><path class="cls-11" d="M360.23,137.33v.35c1.69,1.67,3.21,5.48,5.27,7.9a23.83,23.83,0,0,1-.28-3.45c-1.23-1.4-3.1-4.13-5-5.12C360.25,137.12,360.23,137.23,360.23,137.33Z" transform="translate(-0.36 0.4)"/><path class="cls-10" d="M359.74,141.82c0,.12,0,.26.07.38C359.78,142.08,359.76,141.94,359.74,141.82Z" transform="translate(-0.36 0.4)"/><path class="cls-10" d="M360.29,136.34c0,.23,0,.46,0,.67h0C360.26,136.8,360.28,136.57,360.29,136.34Z" transform="translate(-0.36 0.4)"/><path class="cls-10" d="M359.55,140.56c0,.2,0,.41.07.6C359.59,141,359.57,140.76,359.55,140.56Z" transform="translate(-0.36 0.4)"/><path class="cls-10" d="M360.69,145.61" transform="translate(-0.36 0.4)"/><path class="cls-10" d="M360,142.88c0,.06.43,1.89.45,2S360,142.94,360,142.88Z" transform="translate(-0.36 0.4)"/><path class="cls-10" d="M360.33,135.74c.05-.38,0-2,.05-2.36C360.31,133.79,360.38,135.36,360.33,135.74Z" transform="translate(-0.36 0.4)"/><path class="cls-10" d="M360.24,137.93c0,.28-.77,1.76-.75,2C359.47,139.69,360.24,138.2,360.24,137.93Z" transform="translate(-0.36 0.4)"/><path class="cls-10" d="M360.25,137c0,.11,0,.22,0,.32,0-.1,0-.21,0-.32Z" transform="translate(-0.36 0.4)"/><path class="cls-8" d="M398.75,131.16l-1.76,0a51.22,51.22,0,0,1-8.65-1.37h0a12.87,12.87,0,0,0-1.63-.67c-.73,4.13-1.33,9.7-.11,13.09L387,142a7.88,7.88,0,0,0,0,.82,22.47,22.47,0,0,1,11,1.63l-.23-.11C399,142.14,399,136.44,398.75,131.16Z" transform="translate(-0.36 0.4)"/><path class="cls-8" d="M403.52,154.34a9,9,0,0,0-1.22-5.21c-.89.43-2.58.46-5.83-.73a42.72,42.72,0,0,0-8.51-1.75c1.68,4.68,5.55,6.16,7,8.51a1.28,1.28,0,0,0,.55,0C397,155.18,401.21,155.14,403.52,154.34Z" transform="translate(-0.36 0.4)"/><path class="cls-10" d="M360.44,144.78a6.84,6.84,0,0,0,.25.83l.14-.12Z" transform="translate(-0.36 0.4)"/><path class="cls-10" d="M368.1,128.77l-.13,0h-.12A13.73,13.73,0,0,0,362,130c-.13.06-.22.13-.26.14v0a3.65,3.65,0,0,0-.84.69c-.19.65-.32,1.27-.44,1.86l0,.08c0,.19,0,.37-.08.56-.07.42,0,2-.05,2.36,0,.22,0,.4,0,.61s0,.44-.05.66c1.88,1,3.74,3.71,5,5.12A34,34,0,0,1,368.1,128.77Z" transform="translate(-0.36 0.4)"/><path class="cls-8" d="M359.39,133.06a32.75,32.75,0,0,0-2,4.12,3.69,3.69,0,0,1,2.85-.17c0-.22,0-.44.05-.66s0-.39,0-.61c0-.38,0-1.94.05-2.36,0-.19.05-.37.08-.56l0-.08c.12-.59.25-1.21.44-1.86A13.33,13.33,0,0,0,359.39,133.06Z" transform="translate(-0.36 0.4)"/><path class="cls-2" d="M435.86,47.84s-52.91,10-63.8,13.72l-17.7,5.14s-1.41.39-3.74,1.08L374.3,84.15l-11.21,19.2c19.63-4,94.47-19.53,105.27-50.78C468.36,52.57,471.24,41.72,435.86,47.84Z" transform="translate(-0.36 0.4)"/><path class="cls-3" d="M350.62,67.78C341.31,70.53,317,78.14,306.06,85.6c0,0-11.93,5.55-9.88,12.61,0,0,9.13,13.94,62.18,6.05,0,0,1.73-.3,4.73-.91L377,83.05Z" transform="translate(-0.36 0.4)"/><path class="cls-2" d="M416,66.31s-2.37,2.44-8.38,5.45a81.73,81.73,0,0,1-27.5,10.56c-1.77.41-3.55.76-5.34,1.07a193.28,193.28,0,0,0-7.63-24.86C341.85-6.71,300,21.88,298.83,22.69l0,0A21.25,21.25,0,0,0,297,24.16a15.3,15.3,0,0,0-3,3.6,20.45,20.45,0,0,0-2.67,10.42c.31,5-1.83,2.35-1.83,2.35a22.66,22.66,0,0,1-1-5.63,1.61,1.61,0,0,1,0-.22,19.4,19.4,0,0,1,.13-3.11A23.72,23.72,0,0,1,290,25.79a28.05,28.05,0,0,1,10.3-12.88c.23-.22,8.18-7.1,25-9.7,11.49-1.92,28-1.4,48.06,8.17a87.48,87.48,0,0,1,11.78,8.43A103,103,0,0,1,404.39,41c.86,1.28,1.72,2.6,2.54,4,.54.89,1.07,1.81,1.58,2.74h0A80,80,0,0,1,416,66.31Z" transform="translate(-0.36 0.4)"/><path class="cls-7" d="M416,66.31s-2.37,2.44-8.38,5.45a81.73,81.73,0,0,1-27.5,10.56c-1.77.41-3.55.76-5.34,1.07a193.28,193.28,0,0,0-7.63-24.86c13.15-3.07,27.31-8.38,37.23-17.57.86,1.28,1.72,2.6,2.54,4,.54.89,1.07,1.81,1.58,2.74h0A80,80,0,0,1,416,66.31Z" transform="translate(-0.36 0.4)"/><path class="cls-3" d="M367.16,58.53a169.84,169.84,0,0,1-27.51,3.93c-.54-2.26-1.07-4.36-1.54-6.21a84.11,84.11,0,0,0-6-15.93c-2.21-4.31-3.94-7.34-4.06-7.53-10.83-17-24.31-12.58-29.22-10.1C300,21.88,341.85-6.71,367.16,58.53Z" transform="translate(-0.36 0.4)"/><path class="cls-18" d="M374.79,83.39a174.38,174.38,0,0,1-30.67,2.17l-.25-1.87c-1-6.84-2.66-14.67-4.22-21.23a169.84,169.84,0,0,0,27.51-3.93A193.28,193.28,0,0,1,374.79,83.39Z" transform="translate(-0.36 0.4)"/><path class="cls-19" d="M435.86,47.84s-11.45,2.16-24.8,4.85q-1.2-2.58-2.55-5h0c-.51-.93-1-1.85-1.58-2.74-.82-1.37-1.68-2.69-2.54-4a103,103,0,0,0-19.28-21.15,87.48,87.48,0,0,0-11.78-8.43c-20.11-9.57-36.57-10.09-48.06-8.17-16.8,2.6-24.75,9.48-25,9.7A28.05,28.05,0,0,0,290,25.79a23.72,23.72,0,0,0-1.34,5.78,19.4,19.4,0,0,0-.13,3.11,1.61,1.61,0,0,0,0,.22,22.66,22.66,0,0,0,1,5.63s2.14,2.69,1.83-2.35A20.45,20.45,0,0,1,294,27.76a15.3,15.3,0,0,1,3-3.6,21.25,21.25,0,0,1,1.81-1.45l0,0c4.91-2.48,18.39-7,29.22,10.1.12.19,1.85,3.22,4.06,7.53a84.11,84.11,0,0,1,6,15.93c.47,1.85,1,4,1.54,6.21.61,2.57,1.24,5.32,1.84,8.14-11.31,3.65-27.21,9.37-35.43,15,0,0-11.93,5.55-9.88,12.61,0,0,8.35,12.74,55.46,7a4,4,0,0,1-2.76-.13s1.84,7.72-1,12.27a14.46,14.46,0,0,0-1.51,4.06c-.72,3.43-.44,8.38,5.2,12.16a16.52,16.52,0,0,1-1.26-14.83,14.13,14.13,0,0,0-.23,2.67,13.89,13.89,0,0,0,.13,2,10.09,10.09,0,0,0,3.41,6.87,11.51,11.51,0,0,0,4.05,2.35s.69.21,1.76.44l0,.06a32.75,32.75,0,0,0-2,4.12h0a23.85,23.85,0,0,0,1.94,5.51,14,14,0,0,0-3.78,3.23,11.57,11.57,0,0,0-1.28,1.91,13.41,13.41,0,0,0-1.8,5.27,6.64,6.64,0,0,0,.07,1.67s-3.1,3.17-6.81,6.64c-1.8,1.68-3.73,3.43-5.52,4.92a28.87,28.87,0,0,1-5,3.56,52.87,52.87,0,0,0-5.13,3.68,58.74,58.74,0,0,0-5.17,4.67h0a36,36,0,0,0-8.57,13.1c-.05.13-.1.26-.14.4s-1.25,3.54-2.12,7.06a27.94,27.94,0,0,0-.78,4.33c0-.19,0-.3,0-.3,0,.27,0,.53-.08.8a23.13,23.13,0,0,1-1.3,3.79s-3.21,5.16-2.51,9a5.05,5.05,0,0,0,.12.56,13.94,13.94,0,0,0,6.6,3.63l.59.33a27.48,27.48,0,0,1,4.25,2.91q-1.51,2-3.18,4.07c-5.46,6.84-11.74,14.19-15.28,21,0,0,8.06,13.07,26.86,24a101.59,101.59,0,0,0,19.06,8.48c-.38,1-.79,2-1.2,2.94-.27.64-.54,1.24-.8,1.77-.07.12-.13.25-.19.37l-.77,1.55c-2.47,5-9.07,18.29-10.29,25l-1.66.53-4.08,4.67s-1.21.93-1,3.5c.35,2.91,2,4.53,3.64,6a32.23,32.23,0,0,0,3.3,2.6h0l.18.12c6.34,4.38,11.17,4.33,14.09,3.89h.07a7.51,7.51,0,0,0,3.89-1.62h0l.19-.17a4.8,4.8,0,0,0,.41-1.37c.34-2.07-.26-5.69-6.2-11.19a30.29,30.29,0,0,0-2.93-2s0,0,0,0l-.13-.05c-.45-.27-.95-.55-1.48-.82,1.75-4,7.25-16.37,10.59-19.89,0,0,1.69-2.57,3.87-6.24l.71-1.21c.58-1,1.18-2,1.78-3.11.33-.59.66-1.19,1-1.79l.25.05a70.81,70.81,0,0,0,11.76,1c.11,1.78.21,4,.21,5.9,0,.69,0,1.35,0,1.94,0,.14,0,.28,0,.41s0,.64-.09,1.73c-.27,5.59-1,20.39.51,27l-1.31,1.15-1.88,5.9s-.74,1.34.44,3.62c1.47,2.54,3.61,3.37,5.74,4.08A30.33,30.33,0,0,0,381,338.6h0l.21,0c7.56,1.49,12-.48,14.48-2l.06,0a7.59,7.59,0,0,0,2.92-3h0a2.52,2.52,0,0,0,.1-.24,4.6,4.6,0,0,0-.17-1.41c-.51-2-2.5-5.12-10.14-7.8a30.26,30.26,0,0,0-3.48-.66l0,0h-.13c-.53-.07-1.1-.12-1.69-.17,0-4.37.12-17.89,1.78-22.45,0,0,.53-3,1.07-7.27.06-.44.11-.92.17-1.39.14-1.14.27-2.32.39-3.57.16-1.6.3-3.26.4-4.91l.07,0c4.46-1.64,9.89-4.16,11.91-5.72,0,0,.78-22.89,1.43-47.52l.25-7.49,8,22.78s.63,0,1.72-.06l.64,1.82a42.18,42.18,0,0,0,11.59-1.88l0,.09a5.94,5.94,0,0,0,3.14,3.42,3.39,3.39,0,0,0,2,1.17c1.83,1.62,3.22.56,3.22.56,1.74-2.81.37-6.54-.65-8.6a26.91,26.91,0,0,0,7.89-6.93l-.55-1.49c.5-.55,1-1.11,1.42-1.71l-29.66-80.64a27,27,0,0,0,2.43-1.82c1.12-1.12,2.19-1,3.07-2,2.09-2.29,3.39-3.93,3.39-3.93,1-1.23.65-5.05.59-6.41,0-.59-.07-1-.07-1a6.25,6.25,0,0,0,.05-1.86,3.42,3.42,0,0,0-.34-1.13c1.72-2.25,4.48-6.75,3.71-11.9,3.08-3.2,4.38-7.51,4.82-11.6,0-.13,0-.26,0-.39a40.28,40.28,0,0,0-.86-12.22l-4-10.22c21.31-8.2,41-19.52,46.11-34.4C468.36,52.57,471.24,41.72,435.86,47.84ZM346,189.52l-3.17,7.92q-2.12,2.34-4.53,5.12c-.34.38-.69.78-1,1.18-1.13,1.31-2.31,2.69-3.5,4.11l-.06.07h0l-1.65,2a21.41,21.41,0,0,1,1.22-4.33c0-.07.05-.14.08-.2l1.64-3.23a21.61,21.61,0,0,1,1.34-2,24.5,24.5,0,0,1,1.94-2.25h0l7.33-8.79h0a9.53,9.53,0,0,1,1.33-1.95Z" transform="translate(-0.36 0.4)"/><path class="cls-20" d="M435.86,47.84s-11.45,2.16-24.8,4.85q-1.2-2.58-2.55-5h0c-.51-.93-1-1.85-1.58-2.74-.82-1.37-1.68-2.69-2.54-4a103,103,0,0,0-19.28-21.15,87.48,87.48,0,0,0-11.78-8.43c-20.11-9.57-36.57-10.09-48.06-8.17-16.8,2.6-24.75,9.48-25,9.7A28.05,28.05,0,0,0,290,25.79a23.72,23.72,0,0,0-1.34,5.78,19.4,19.4,0,0,0-.13,3.11,1.61,1.61,0,0,0,0,.22,22.66,22.66,0,0,0,1,5.63s2.14,2.69,1.83-2.35A20.45,20.45,0,0,1,294,27.76a15.3,15.3,0,0,1,3-3.6,21.25,21.25,0,0,1,1.81-1.45l0,0c4.91-2.48,18.39-7,29.22,10.1.12.19,1.85,3.22,4.06,7.53a84.11,84.11,0,0,1,6,15.93c.47,1.85,1,4,1.54,6.21.61,2.57,1.24,5.32,1.84,8.14-11.31,3.65-27.21,9.37-35.43,15,0,0-11.93,5.55-9.88,12.61,0,0,8.35,12.74,55.46,7a4,4,0,0,1-2.76-.13s1.84,7.72-1,12.27a14.46,14.46,0,0,0-1.51,4.06c-.72,3.43-.44,8.38,5.2,12.16a16.52,16.52,0,0,1-1.26-14.83,14.13,14.13,0,0,0-.23,2.67,13.89,13.89,0,0,0,.13,2,10.09,10.09,0,0,0,3.41,6.87,11.51,11.51,0,0,0,4.05,2.35s.69.21,1.76.44l0,.06a32.75,32.75,0,0,0-2,4.12h0a23.85,23.85,0,0,0,1.94,5.51,14,14,0,0,0-3.78,3.23,11.57,11.57,0,0,0-1.28,1.91,13.41,13.41,0,0,0-1.8,5.27,6.64,6.64,0,0,0,.07,1.67s-3.1,3.17-6.81,6.64c-1.8,1.68-3.73,3.43-5.52,4.92a28.87,28.87,0,0,1-5,3.56,52.87,52.87,0,0,0-5.13,3.68,58.74,58.74,0,0,0-5.17,4.67h0a36,36,0,0,0-8.57,13.1c-.05.13-.1.26-.14.4s-1.25,3.54-2.12,7.06a27.94,27.94,0,0,0-.78,4.33c0-.19,0-.3,0-.3,0,.27,0,.53-.08.8a23.13,23.13,0,0,1-1.3,3.79s-3.21,5.16-2.51,9a5.05,5.05,0,0,0,.12.56,13.94,13.94,0,0,0,6.6,3.63l.59.33a27.48,27.48,0,0,1,4.25,2.91q-1.51,2-3.18,4.07c-5.46,6.84-11.74,14.19-15.28,21,0,0,8.06,13.07,26.86,24a101.59,101.59,0,0,0,19.06,8.48c-.38,1-.79,2-1.2,2.94-.27.64-.54,1.24-.8,1.77-.07.12-.13.25-.19.37l-.77,1.55c-2.47,5-9.07,18.29-10.29,25l-1.66.53-4.08,4.67s-1.21.93-1,3.5c.35,2.91,2,4.53,3.64,6a32.23,32.23,0,0,0,3.3,2.6h0l.18.12c6.34,4.38,11.17,4.33,14.09,3.89h.07a7.51,7.51,0,0,0,3.89-1.62h0l.19-.17a4.8,4.8,0,0,0,.41-1.37c.34-2.07-.26-5.69-6.2-11.19a30.29,30.29,0,0,0-2.93-2s0,0,0,0l-.13-.05c-.45-.27-.95-.55-1.48-.82,1.75-4,7.25-16.37,10.59-19.89,0,0,1.69-2.57,3.87-6.24l.71-1.21c.58-1,1.18-2,1.78-3.11.33-.59.66-1.19,1-1.79l.25.05a70.81,70.81,0,0,0,11.76,1c.11,1.78.21,4,.21,5.9,0,.69,0,1.35,0,1.94,0,.14,0,.28,0,.41s0,.64-.09,1.73c-.27,5.59-1,20.39.51,27l-1.31,1.15-1.88,5.9s-.74,1.34.44,3.62c1.47,2.54,3.61,3.37,5.74,4.08A30.33,30.33,0,0,0,381,338.6h0l.21,0c7.56,1.49,12-.48,14.48-2l.06,0a7.59,7.59,0,0,0,2.92-3h0a2.52,2.52,0,0,0,.1-.24,4.6,4.6,0,0,0-.17-1.41c-.51-2-2.5-5.12-10.14-7.8a30.26,30.26,0,0,0-3.48-.66l0,0h-.13c-.53-.07-1.1-.12-1.69-.17,0-4.37.12-17.89,1.78-22.45,0,0,.53-3,1.07-7.27.06-.44.11-.92.17-1.39.14-1.14.27-2.32.39-3.57.16-1.6.3-3.26.4-4.91l.07,0c4.46-1.64,9.89-4.16,11.91-5.72,0,0,.78-22.89,1.43-47.52l.25-7.49,8,22.78s.63,0,1.72-.06l.64,1.82a42.18,42.18,0,0,0,11.59-1.88l0,.09a5.94,5.94,0,0,0,3.14,3.42,3.39,3.39,0,0,0,2,1.17c1.83,1.62,3.22.56,3.22.56,1.74-2.81.37-6.54-.65-8.6a26.91,26.91,0,0,0,7.89-6.93l-.55-1.49c.5-.55,1-1.11,1.42-1.71l-29.66-80.64a27,27,0,0,0,2.43-1.82c1.12-1.12,2.19-1,3.07-2,2.09-2.29,3.39-3.93,3.39-3.93,1-1.23.65-5.05.59-6.41,0-.59-.07-1-.07-1a6.25,6.25,0,0,0,.05-1.86,3.42,3.42,0,0,0-.34-1.13c1.72-2.25,4.48-6.75,3.71-11.9,3.08-3.2,4.38-7.51,4.82-11.6,0-.13,0-.26,0-.39a40.28,40.28,0,0,0-.86-12.22l-4-10.22c21.31-8.2,41-19.52,46.11-34.4C468.36,52.57,471.24,41.72,435.86,47.84ZM346,189.52l-3.17,7.92q-2.12,2.34-4.53,5.12c-.34.38-.69.78-1,1.18-1.13,1.31-2.31,2.69-3.5,4.11l-.06.07h0l-1.65,2a21.41,21.41,0,0,1,1.22-4.33c0-.07.05-.14.08-.2l1.64-3.23a21.61,21.61,0,0,1,1.34-2,24.5,24.5,0,0,1,1.94-2.25h0l7.33-8.79h0a9.53,9.53,0,0,1,1.33-1.95Z" transform="translate(-0.36 0.4)"/><rect class="cls-21" height="30"/><rect class="cls-21" x="758" y="302" height="39"/></g></g></svg>