<svg id="Layer_1" data-name="Layer 1" xmlns="http://www.w3.org/2000/svg" xmlns:xlink="http://www.w3.org/1999/xlink" viewBox="0 0 347.34 929.78"><defs><style>.cls-1{fill:url(#linear-gradient);}.cls-2{fill:#ce5236;}.cls-3{fill:#9b3c32;}.cls-4{fill:#9d4b31;}.cls-5{fill:url(#linear-gradient-2);}</style><linearGradient id="linear-gradient" x1="261.01" y1="910.49" x2="47.68" y2="112.5" gradientUnits="userSpaceOnUse"><stop offset="0" stop-color="#6b2b28"/><stop offset="1" stop-color="#9b3c32"/></linearGradient><linearGradient id="linear-gradient-2" x1="-105.39" y1="259.69" x2="519.49" y2="753.65" gradientUnits="userSpaceOnUse"><stop offset="0" stop-color="#c8e2b8" stop-opacity="0"/><stop offset="1" stop-color="#c8e2b8" stop-opacity="0.3"/></linearGradient></defs><polygon class="cls-1" points="0 823.29 0 0 255.3 0 291.47 257.22 192.89 749.02 163.29 855.33 65.98 867.32 0 823.29"/><path class="cls-2" d="M283.44,870.75a43.32,43.32,0,0,1-29.18,15.44,42.85,42.85,0,0,1-4.3.21h-.75S217.72,942,121.77,925.87a291.61,291.61,0,0,1-48.35-12.79S40.71,934.52,0,928.81V823.29s22.7.61,52.77,12.21q5.23,2,10.73,4.48s46,22.6,75.6,7.7a21.24,21.24,0,0,0,5.67-6,20.33,20.33,0,0,0,3.22-9.79s-7.78-70.19,46.91-81.14l45.23,6.49s50.23,31.31,51.33,78.79C291.71,846.86,289.42,858.47,283.44,870.75Z"/><path class="cls-2" d="M341.11,508.56s-2.32,207.78-108.2,227.87l-.15.37c-.75,1.74-4.9,9.11-20.7,8.93L197,739.39s-1.3-1.4-3.46-4.24c-13.8-18.06-62.69-94.29-33-235.75a800.83,800.83,0,0,1,43.23-112.58s44.66-83.78,53.6-170.18a239,239,0,0,0-.75-64.15S232.08,100.16,240.59,0h66.57s34.24,123.69,10.42,225.8c0,0,1.42,52.36,11.87,81.16C329.45,307,360.17,410.38,341.11,508.56Z"/><path class="cls-3" d="M334,509.44c-3,27-21.77,72.22-42.38,115.25l-5.86,12.1c-26,53.06-52.81,99.64-52.81,99.64a37.9,37.9,0,0,0,8.41-6.22c39.64-15,50.33-47,52.7-69.36h0c2.29-12-.15-26.19-1.55-32.67,9-17.76,16.18-31.48,16.18-31.48C333,565.29,334,509.44,334,509.44ZM293.61,656.66a120.88,120.88,0,0,1-10.17,32.53c-2.1,4.16-7.26,9.45-13.22,14.67l-17.15,11,2.62-8.73c.24-.75.36-1.19.36-1.19l0-.13.26-.85c3-9.39,17.83-39.57,30.94-65.53C292.42,644.46,293.59,656.41,293.61,656.66Z"/><path class="cls-3" d="M213.37,739.4s39.2-112.58,39.7-169.75c0,0,3-55.41,0-70.69,0,0,1-32.72,6.45-35.34,0,0,9.43,0,7,76.38a109.55,109.55,0,0,1-10.42,48.85l-11.7,49.57S242.65,715,213.37,739.4Z"/><path class="cls-3" d="M208.9,661.13c10.59-45.09,6-91.34,6-91.34-12.57,5.53-15.22,48.87-15.22,48.87,3.64,11.64,5.62,27.93,5.62,27.93.77,16.28-7.42,49.24-11.28,63.75-2.71-4.48-.46-27.73-.46-27.73-4.21,8.44-6,32.19-6,32.24-6.55-31.42-27.42-146.2-7.92-253.41,0,0-29.15,145.68,9.75,261.78-.75,7.65,7.53,15.38,7.53,15.38-1.32-3.91-1.21-10-1.21-10C195.67,704.19,208.9,661.13,208.9,661.13Z"/><path class="cls-3" d="M193.92,746.45s-7.7,6.1,0,12.4c0,0,15.48,12.55,42.44,4.55,0,0,10.18-3,3.77-11.31Z"/><path class="cls-2" d="M242.64,753.11c-6.27,5.43-26.78,4.74-26.78,4.74-22.8-1.76-26.05-14.71-26.05-14.71-1.07-4.61,2.7-7.37,3.68-8,2.16,2.84,3.46,4.24,3.46,4.24l15.11,6.34c15.8.18,19.95-7.19,20.7-8.93C246.68,746.45,242.64,753.11,242.64,753.11Z"/><path class="cls-4" d="M196.06,734.86a27.93,27.93,0,0,0,17.31,7s14.1,2.51,21.94-9.65l-2.55,4.58s-3.51,10.72-21,9.71c0,0-12.07-2.84-17.58-10.51"/><path class="cls-3" d="M249.21,886.39s23.27-65.1-10-108.88c0,0-10.44-12-9.7,18.6,0,0,19.2,24.19,23.62,44.17C253.12,840.28,255.21,878.43,249.21,886.39Z"/><path class="cls-3" d="M283.44,870.75A43.39,43.39,0,0,1,250,886.4,185,185,0,0,0,254,867.78c26.27-4.71,37.43-31.71,37.43-31.71C291.71,846.86,289.42,858.47,283.44,870.75Z"/><path class="cls-3" d="M141.89,846.7S55.06,893.51,4,865.11c0,0,13.4-7.19,21.34-3,0,0,1.49,6.54,40.69,5.17C66,867.32,123.69,860.73,141.89,846.7Z"/><path class="cls-3" d="M73.42,913.08S29.26,891.25,8.66,888.42c0,0,24.56,21.38,32.38,22.47,0,0,14.77-3.27,18.74-2C59.78,908.93,70.46,912.05,73.42,913.08Z"/><path class="cls-4" d="M134.88,871.65a124.11,124.11,0,0,1-19,4.5A57.82,57.82,0,0,0,134.88,871.65Z"/><path class="cls-4" d="M190.5,768.43s-16.57,1.84-15.71,21c0,0,1.12,53.81-11.5,62.38a87,87,0,0,1-28.41,19.8c14.8-4.71,33.91-13.81,40.76-30.41,0,0,4.9-27.71,5.57-42.37a42.88,42.88,0,0,1,8.41-21.36S194.07,768.74,190.5,768.43Z"/><path class="cls-3" d="M56.8,895.54s12.24,26.55,98.67,6.88c0,0-46.81,10.65-70.13,3.45C85.34,905.87,64.74,894.59,56.8,895.54Z"/><path class="cls-4" d="M146.81,904.29s35.14-13.91,38.07-21.54c0,0-10.91,20.93-42.2,22.35"/><path class="cls-3" d="M229.5,796.11s-.25,19.3,1.24,25.59c0,0,8.46,23,22.71,30.15l1.85-5.05s-17.61-8.48-22.82-25.1c0,0,1.73-21.61,4.46-22.83s-.49-8.2-.49-8.2Z"/><path class="cls-3" d="M254.26,886.19a42.85,42.85,0,0,1-4.3.21h-.75S217.72,942,121.77,925.87C204.92,929.94,224,886.4,224,886.4c15.64-9.22,29.42-29.83,29.42-29.83Z"/><path class="cls-3" d="M106,861.46c-7.54-.11-40.84-18.85-53.21-26q5.23,2,10.73,4.48s46,22.6,75.6,7.7a21.24,21.24,0,0,0,5.67-6C147,850.83,106,861.46,106,861.46Z"/><path class="cls-4" d="M256.54,152.49s14.06-86.4,5.54-123.71c0,0-5.54,3.27-5.54,19C256.54,47.76,261.75,138.74,256.54,152.49Z"/><path class="cls-4" d="M317.58,225.8s-18.67-98.8-5.21-96.22a126,126,0,0,1,5.21,28.8Z"/><path class="cls-5" d="M341.11,508.56C360.17,410.38,329.45,307,329.45,307c-10.45-28.8-11.87-81.16-11.87-81.16C341.4,123.69,307.16,0,307.16,0H0V928.81c40.71,5.71,73.42-15.73,73.42-15.73a291.61,291.61,0,0,0,48.35,12.79c96,16.15,127.44-39.48,127.44-39.48H250c.71,0,1.42,0,2.11,0l.43,0a43.14,43.14,0,0,0,9.84-1.69l.27-.08c.38-.11.76-.24,1.14-.36l.41-.14,1-.37.47-.17.94-.38.49-.21c.3-.12.59-.25.88-.39l.49-.22.83-.4.48-.24.79-.41L271,881l.75-.42.44-.26c.24-.14.48-.28.71-.43l.42-.26.68-.44.37-.25.67-.45.31-.22.66-.48.1-.08c.79-.58,1.51-1.16,2.17-1.72l.27-.23c.16-.13.3-.26.45-.4l.29-.25.4-.37.29-.26.35-.34.27-.26.32-.31.24-.25.28-.29.23-.24.23-.25.2-.22.21-.23.17-.19c.06-.07.12-.13.17-.2l.15-.17.13-.16a1.58,1.58,0,0,0,.12-.15l.1-.11.1-.13.05-.07.07-.08,0,0,0,0c6-12.28,8.27-23.89,8-34.68-1-41.91-40.22-71.22-49.41-77.52a6,6,0,0,0-.68-4.53,8.24,8.24,0,0,0,1.27-.91s4-6.66-9.88-16.31l.21-.38C338.79,716.25,341.11,508.56,341.11,508.56Z"/></svg>