<svg xmlns="http://www.w3.org/2000/svg" xmlns:xlink="http://www.w3.org/1999/xlink" viewBox="0 0 1354.19 346.97"><defs><style>.cls-1{isolation:isolate;}.cls-2{fill:url(#linear-gradient);}.cls-3{fill:#074744;}.cls-4{fill:#a9e6d2;}.cls-5{fill:#aa8243;}.cls-6{fill:#446961;}.cls-7{fill:#cfa75e;}.cls-8{fill:#b49f38;}.cls-9{fill:#98956a;}.cls-10{fill:#e2d8b3;}.cls-11{fill:#d9bf7c;}.cls-12{fill:#ebd060;}.cls-13{fill:#f9f8e1;}.cls-14{fill:#fc9b24;}.cls-15{fill:#facf30;}.cls-16,.cls-19,.cls-20,.cls-22{mix-blend-mode:overlay;}.cls-16{fill:url(#linear-gradient-2);}.cls-17{fill:url(#linear-gradient-3);}.cls-18{fill:#9d4b31;}.cls-19{fill:url(#linear-gradient-4);}.cls-20{fill:url(#linear-gradient-5);}.cls-21{fill:url(#linear-gradient-6);}.cls-22{fill:url(#linear-gradient-7);}</style><linearGradient id="linear-gradient" x1="140.98" y1="270.76" x2="93.85" y2="126.76" gradientUnits="userSpaceOnUse"><stop offset="0" stop-color="#265648"/><stop offset="1" stop-color="#265648" stop-opacity="0"/></linearGradient><linearGradient id="linear-gradient-2" x1="723.44" y1="309.84" x2="703.8" y2="67.66" gradientUnits="userSpaceOnUse"><stop offset="0" stop-color="#f2deb6" stop-opacity="0"/><stop offset="1" stop-color="#c7e1b7" stop-opacity="0.8"/></linearGradient><linearGradient id="linear-gradient-3" x1="240.69" y1="125.99" x2="1520.11" y2="253.41" gradientUnits="userSpaceOnUse"><stop offset="0.22" stop-color="#c8e2b8" stop-opacity="0"/><stop offset="1" stop-color="#00c1b3"/></linearGradient><linearGradient id="linear-gradient-4" x1="697.02" y1="251.85" x2="651.64" y2="110.47" gradientUnits="userSpaceOnUse"><stop offset="0" stop-color="#f2deb6" stop-opacity="0"/><stop offset="0.99" stop-color="#f4e9d7" stop-opacity="0.6"/><stop offset="1" stop-color="#c7e1b7" stop-opacity="0.8"/></linearGradient><linearGradient id="linear-gradient-5" x1="884.92" y1="294.82" x2="795.9" y2="101.07" xlink:href="#linear-gradient-4"/><linearGradient id="linear-gradient-6" x1="959.47" y1="-85.01" x2="773.58" y2="130.99" gradientUnits="userSpaceOnUse"><stop offset="0" stop-color="#c8e2b8" stop-opacity="0"/><stop offset="1" stop-color="#5e542e" stop-opacity="0.8"/></linearGradient><linearGradient id="linear-gradient-7" x1="371.45" y1="160.62" x2="322.58" y2="22.73" xlink:href="#linear-gradient-4"/></defs><g class="cls-1"><g id="Layer_1" data-name="Layer 1"><polygon class="cls-2" points="229.34 79.2 0 75.32 0 301.55 279.1 301.55 229.34 79.2"/><path class="cls-3" d="M1354.19,172.38c-.18,23-16.57,45.37-48.72,66.56l-1.35.88-1.21.78c-32.52,20.83-78.87,39.5-137.78,55.5q-19.31,5.25-40,10l-2.68.6c-48.59,11-102.64,20-161.29,26.67-35.65,4.08-72.23,7.24-109.53,9.49l-3.41.2C803.38,345.69,757.51,347,711,347c-56,0-111-2-164.4-5.85l-3.37-.25q-41.84-3.09-82.2-7.71c-67.17-7.69-128.24-18.25-181.9-31.45l-2.57-.63q-9.61-2.38-18.89-4.88c-58.66-15.77-104.7-34.13-136.9-54.58q-6-3.85-11.37-7.74l-1.2-.88C83,214.31,70.4,194.74,70.57,174.68a50.77,50.77,0,0,1,5.38-22c.14-.31.3-.62.46-.93,7.67-15.15,22.86-29.95,45.43-44.21C139.42,96.44,161,85.93,186.47,76.09l2-.77c21.14-8.09,44.91-15.72,71.15-22.84C306,39.89,358.29,29.36,415.73,21.06l3.12-.45q21.88-3.13,44.75-5.83C542.58,5.45,626.17.5,712.05.08h3.49c85.87-.3,169.39,4,248.22,12.72q35.82,4,69.24,9.06l3,.47c47.75,7.36,91.65,16.4,131.13,27,32.79,8.83,61.65,18.51,86.35,29l1.87.8A331.69,331.69,0,0,1,1304,104.34c26,16.74,42,34.28,47.74,52.32.1.32.2.63.29,1A49.68,49.68,0,0,1,1354.19,172.38Z"/><polygon class="cls-4" points="715.54 0.07 715.39 18.94 711.9 18.96 712.05 0.08 715.54 0.07"/><path class="cls-5" d="M450.94,37.16l-3.1.45L415.73,21.06l3.12-.45Z"/><path class="cls-5" d="M245.58,85.89l-2,.77L186.47,76.09l2-.77Z"/><path class="cls-5" d="M145.7,154.06l-.46.93L76,152.69c.14-.31.3-.62.46-.93Z"/><path class="cls-5" d="M175.07,227.4l-65.7,6.48-1.2-.88,65.71-6.48Z"/><path class="cls-5" d="M326.32,287.89,279.1,301.71l-2.57-.63,47.21-13.82Z"/><path class="cls-5" d="M564.81,322.91l-18.24,18.21-3.37-.25,18.25-18.2Z"/><path class="cls-5" d="M851.63,342.85l-3.41.2-15-18.48,3.41-.21Z"/><path class="cls-5" d="M1125.13,306.09l-2.68.6-44.72-14.51,2.68-.61Z"/><path class="cls-5" d="M1305.47,238.94l-1.35.88-64.46-7.22,1.34-.87Z"/><path class="cls-5" d="M1352.05,157.61l-69.62,1.8-.29-.95,69.62-1.8C1351.86,157,1352,157.29,1352.05,157.61Z"/><path class="cls-5" d="M1255.36,79.08l-59,10.38-1.87-.8,59-10.38Z"/><path class="cls-5" d="M1036,22.32l-35,16.54-3-.47,35-16.54Z"/><path class="cls-6" d="M1298.85,209.92c-18.22,21-50.72,40.41-96.65,57.84l-1.92.72-1.71.64c-46,17.07-102.91,31.37-169.18,42.5q-21.72,3.64-44.32,6.76l-2.92.4c-53,7.2-109.29,12.2-168,14.9q-53.6,2.47-107.36,2.3h-3.27c-43-.19-85.83-1.65-128.24-4.35-51-3.25-99.65-8.2-145.25-14.78l-2.88-.41q-35.69-5.22-68.81-11.74c-55.12-10.84-102.37-24-140.76-39.05l-1.83-.72q-6.87-2.73-13.33-5.53c-40.87-17.73-68.16-37.11-81.14-57.62a62.72,62.72,0,0,1-4.18-7.71c-.13-.29-.26-.58-.38-.87-8-18.51-3.8-37.12,12.39-55.46a132.19,132.19,0,0,1,22.47-19.82l1.16-.82C171.78,103.66,197.42,91,229.34,79.2A773.34,773.34,0,0,1,313.2,54.07l2.44-.59q38.52-9.31,82.88-16.86c52.12-8.88,108.05-15.52,166.83-19.83l3.18-.23Q590.9,15,613.81,13.8a2183.26,2183.26,0,0,1,237.29.93l3.18.19c78.2,4.73,150.66,13.52,215.34,26.15q29.39,5.74,55.74,12.36l2.36.6c37.57,9.54,70.32,20.4,97.83,32.43q34.28,15,55.69,31.57l1.07.83q16,12.61,24.37,26c10.48,16.82,11.25,33.78,2.31,50.6-.16.29-.31.59-.48.88A79.12,79.12,0,0,1,1298.85,209.92Z"/><polygon class="cls-7" points="854.28 14.92 839.18 32.22 836 32.03 851.1 14.73 854.28 14.92"/><path class="cls-7" d="M584.52,33.59l-3.18.24-16-17,3.18-.23Z"/><path class="cls-7" d="M359.11,66.44l-2.46.59-43.45-13,2.44-.59Z"/><path class="cls-7" d="M213.88,123.14l-1.16.83-61.19-6.06,1.16-.82Z"/><path class="cls-7" d="M182.05,191.88l-65,2.18c-.13-.29-.26-.58-.38-.87l65-2.18Z"/><path class="cls-7" d="M271.57,255.73l-54,9.91-1.83-.72,54-9.92Z"/><path class="cls-7" d="M461.06,301.31,430,316.84l-2.88-.41,31.09-15.54Z"/><path class="cls-7" d="M706.74,336h-3.27l1-17.69h3.28Z"/><path class="cls-7" d="M985.07,318.38l-2.92.4L952.84,303l2.92-.4Z"/><path class="cls-7" d="M1202.2,267.76l-1.92.72-53-10.35,1.92-.72Z"/><path class="cls-7" d="M1308.51,196.31l-64.75-2.45.48-.88,64.75,2.45C1308.83,195.72,1308.68,196,1308.51,196.31Z"/><path class="cls-7" d="M1282.31,118.86l-61.77,6-1.07-.84,61.77-6Z"/><path class="cls-7" d="M1127.72,54l-44.88,13.1-2.38-.6,44.9-13.1Z"/><path class="cls-8" d="M712.38,173.46c1,0,2.07.08,3.15.13C714.45,173.54,713.4,173.49,712.38,173.46Z"/><path class="cls-9" d="M1265.34,172.21c0,19.72-13.92,38.94-41.4,57.14l-1.15.76-1,.67c-27.8,17.89-67.49,34-118,47.72q-16.55,4.51-34.29,8.6l-2.3.53c-41.67,9.49-88,17.21-138.38,23q-45.9,5.28-94,8.23l-2.93.18c-38.5,2.29-77.9,3.46-117.88,3.47-48.12,0-95.4-1.63-141.28-4.9l-2.9-.21q-36-2.61-70.67-6.56c-57.76-6.56-110.3-15.59-156.49-26.9l-2.21-.54q-8.28-2-16.27-4.19c-50.5-13.51-90.19-29.27-118-46.84q-5.22-3.31-9.83-6.65l-1-.76c-21.73-16.06-32.72-32.89-32.72-50.15A43.52,43.52,0,0,1,167,155.92c.12-.27.25-.53.39-.8,6.48-13,19.43-25.77,38.72-38,15-9.57,33.51-18.62,55.3-27.08l1.72-.67a639.12,639.12,0,0,1,61-19.66c39.71-10.83,84.6-19.9,133.89-27.06l2.67-.38q18.78-2.7,38.41-5A1903.58,1903.58,0,0,1,712.46,24.52h3A1887,1887,0,0,1,928.8,35.37q30.8,3.41,59.55,7.77l2.59.39a1065.69,1065.69,0,0,1,112.84,23.15c28.24,7.57,53.1,15.87,74.39,24.82l1.61.68a287.47,287.47,0,0,1,42,21.67c22.45,14.35,36.31,29.39,41.38,44.87.09.27.18.54.26.81A43,43,0,0,1,1265.34,172.21Z"/><polygon class="cls-4" points="715.46 24.51 715.46 40.72 712.46 40.73 712.46 24.52 715.46 24.51"/><path class="cls-10" d="M488.39,56.45l-2.66.38L458,42.61l2.67-.38Z"/><path class="cls-10" d="M312.3,98.4l-1.73.67L261.45,90l1.72-.67Z"/><path class="cls-10" d="M227,157.06l-.39.8L167,155.92c.12-.27.25-.53.39-.8Z"/><path class="cls-10" d="M252.72,220.13l-56.4,5.61-1-.76,56.4-5.61Z"/><path class="cls-10" d="M383.09,272,342.62,284l-2.21-.54,40.46-11.92Z"/><path class="cls-10" d="M588.22,302l-15.54,15.66-2.9-.21,15.55-15.66Z"/><path class="cls-10" d="M834.77,318.88l-2.93.18-13-15.87,2.93-.18Z"/><path class="cls-10" d="M1069.48,287.1l-2.3.53-38.52-12.43,2.3-.53Z"/><path class="cls-10" d="M1223.94,229.35l-1.15.76L1167.36,224l1.15-.75Z"/><path class="cls-10" d="M1263.4,159.53l-59.8,1.58-.26-.81,59.8-1.58C1263.23,159,1263.32,159.26,1263.4,159.53Z"/><path class="cls-10" d="M1179.78,92.18l-50.59,8.94-1.61-.68,50.59-8.94Z"/><path class="cls-10" d="M990.94,43.53,961,57.75l-2.6-.4,30-14.21Z"/><path class="cls-11" d="M714,306.32A1699.2,1699.2,0,0,1,522.52,296c-58.48-6.63-110.95-16.11-156-28.18S286.17,241.68,261.39,226c-25.76-16.28-38.82-33.54-38.82-51.32s13.06-35.1,38.82-51.5c24.78-15.79,60.16-30,105.17-42.27s97.48-22,156-28.92a1752.06,1752.06,0,0,1,382.87-1.56c58.48,6.48,111,15.88,156,27.93s80.39,26.2,105.17,42c25.76,16.46,38.82,33.94,38.82,52s-13.06,35.57-38.82,52.15c-24.78,15.94-60.16,30.24-105.17,42.52s-97.48,21.91-156,28.67A1686.21,1686.21,0,0,1,714,306.32Z"/><polygon class="cls-7" points="819.99 126.33 708.67 40.73 708.67 40.73 708.67 40.73 708.67 40.73 708.67 40.73 597.35 127 708.67 118.48 708.67 118.48 819.99 126.33"/><polygon class="cls-7" points="620.42 124.19 289.69 107.92 289.69 107.92 289.69 107.92 289.69 107.92 289.69 107.92 508.1 176.34 538.12 146.24 538.12 146.24 620.42 124.19"/><polygon class="cls-7" points="502.97 170.81 280.57 239.35 280.57 239.35 280.57 239.35 280.57 239.35 280.57 239.35 612.26 222.9 531.24 200.9 531.24 200.9 502.97 170.81"/><polygon class="cls-7" points="594.64 220.1 700.95 306.3 700.95 306.3 700.95 306.3 700.95 306.3 700.95 306.3 817.25 220.66 705.47 228.56 705.47 228.56 594.64 220.1"/><polygon class="cls-7" points="799.31 223.37 1128.98 241.71 1128.98 241.71 1128.98 241.71 1128.98 241.71 1128.98 241.71 914.64 171.57 882.87 201.69 882.87 201.69 799.31 223.37"/><polygon class="cls-7" points="914.16 177.12 1140.51 108.75 1140.51 108.75 1140.51 108.75 1140.51 108.75 1140.51 108.75 807.93 124.42 887.65 146.77 887.65 146.77 914.16 177.12"/><polygon class="cls-10" points="713.96 40.73 539.12 68.38 521.12 52.26 497.82 72.22 497.91 72.29 497.77 72.22 422.38 67.92 465.17 80.1 289.69 107.92 490.67 95.99 451.71 115.84 537.1 107.19 607.12 123.54 590.44 98.75 659.59 82.9 577.48 82.25 713.96 40.73"/><polygon class="cls-10" points="706.24 306.3 532.68 278.9 514.01 294.97 491.57 275.12 491.66 275.05 491.52 275.11 416.5 279.48 459.29 267.28 285.85 239.35 485.54 251.36 447.52 231.56 532.51 240.1 604.08 223.57 585.46 248.47 654.46 264.29 571.71 264.98 706.24 306.3"/><polygon class="cls-10" points="289.73 107.94 287.31 162.19 226.38 158.38 278.24 173.64 278.5 173.65 278.24 173.65 225.45 188.94 286.61 185.1 285.85 239.35 350.7 187.09 394.25 205.99 410.51 181.9 499.3 173.61 411.01 165.35 396.22 141.26 351.51 160.18 289.73 107.94"/><polygon class="cls-10" points="713.96 40.73 897.42 67.59 917.56 51.81 938.69 71.55 938.59 71.61 938.73 71.55 1014.93 67.42 970.72 79.61 1145.79 108.75 942.98 95.73 980.84 116.54 894.66 107.02 822.25 124 841.79 98.33 767.66 82 856.92 81.61 713.96 40.73"/><polygon class="cls-10" points="706.24 306.3 884.11 279.9 901.27 296.16 925.62 276.34 925.53 276.27 925.66 276.33 1000.45 281.14 958.71 268.63 1134.27 241.71 934.14 252.47 974.23 232.72 888.36 240.93 817.86 224.11 834.55 249.07 762.98 264.55 846.56 265.71 706.24 306.3"/><polygon class="cls-10" points="1145.79 108.75 1141.71 163.66 1203.26 159.97 1149.46 175.27 1149.19 175.29 1149.46 175.29 1200.54 191.11 1139.76 186.83 1134.27 241.71 1075.46 188.59 1029.73 207.48 1016.26 183.11 928.63 174.35 1017.67 166.42 1035.24 142.18 1077.75 161.41 1145.79 108.75"/><path class="cls-12" d="M714,230.65c-116.55.18-211.38-25.22-211.38-56.62S597.4,116.77,714,116.4s211.39,25,211.39,56.62S830.51,230.46,714,230.65Z"/><polygon class="cls-13" points="713.96 116.4 699.18 135.97 713.96 135.31 728.73 135.89 713.96 116.4"/><polygon class="cls-13" points="670 117.78 670.58 137.71 684.56 136.23 699.49 135.96 670 117.78"/><polygon class="cls-13" points="627.98 121.6 643.88 141 656.45 138.78 670.88 137.68 627.98 121.6"/><polygon class="cls-13" points="589.71 127.68 620.24 145.72 630.85 142.84 644.14 140.96 589.71 127.68"/><polygon class="cls-13" points="556.86 135.75 600.69 151.64 608.88 148.24 620.47 145.66 556.86 135.75"/><polygon class="cls-13" points="530.89 145.47 586.1 158.51 591.51 154.74 600.88 151.57 530.89 145.47"/><polygon class="cls-13" points="512.91 156.4 577.09 166.04 579.49 162.06 586.23 158.44 512.91 156.4"/><polygon class="cls-13" points="503.73 168.07 574.07 173.9 573.34 169.87 577.16 165.96 503.73 168.07"/><polygon class="cls-13" points="503.73 179.98 577.16 181.73 573.34 177.84 574.07 173.81 503.73 179.98"/><polygon class="cls-13" points="512.91 191.6 586.23 189.21 579.49 185.63 577.09 181.65 512.91 191.6"/><polygon class="cls-13" points="530.89 202.45 600.88 196.01 591.51 192.89 586.1 189.14 530.89 202.45"/><polygon class="cls-13" points="556.86 212.04 620.47 201.83 608.88 199.3 600.69 195.94 556.86 212.04"/><polygon class="cls-13" points="589.71 219.96 644.15 206.42 630.85 204.6 620.24 201.77 589.71 219.96"/><polygon class="cls-13" points="627.98 225.85 670.88 209.57 656.45 208.54 643.88 206.38 627.98 225.85"/><polygon class="cls-13" points="670 229.47 699.49 211.15 684.56 210.95 670.58 209.54 670 229.47"/><polygon class="cls-13" points="713.96 230.65 728.73 211.09 713.96 211.73 699.18 211.14 713.96 230.65"/><polygon class="cls-13" points="757.9 229.33 757.33 209.38 743.35 210.84 728.42 211.1 757.9 229.33"/><polygon class="cls-13" points="799.93 225.57 784.03 206.1 771.46 208.32 757.03 209.41 799.93 225.57"/><polygon class="cls-13" points="838.21 219.52 807.67 201.4 797.06 204.27 783.76 206.15 838.21 219.52"/><polygon class="cls-13" points="871.05 211.46 827.22 195.47 819.03 198.88 807.44 201.46 871.05 211.46"/><polygon class="cls-13" points="897.02 201.72 841.81 188.58 836.4 192.37 827.03 195.54 897.02 201.72"/><polygon class="cls-13" points="915 190.75 850.82 181.03 848.42 185.03 841.68 188.66 915 190.75"/><polygon class="cls-13" points="924.18 179.01 853.84 173.15 854.57 177.19 850.75 181.11 924.18 179.01"/><polygon class="cls-13" points="924.18 167.03 850.75 165.28 854.57 169.19 853.84 173.23 924.18 167.03"/><polygon class="cls-13" points="915 155.34 841.68 157.78 848.42 161.37 850.82 165.36 915 155.34"/><polygon class="cls-13" points="897.02 144.45 827.03 150.96 836.4 154.09 841.81 157.85 897.02 144.45"/><polygon class="cls-13" points="871.05 134.84 807.44 145.14 819.02 147.67 827.22 151.03 871.05 134.84"/><polygon class="cls-13" points="838.21 126.93 783.76 140.56 797.06 142.38 807.67 145.2 838.21 126.93"/><polygon class="cls-13" points="799.93 121.07 757.03 137.43 771.46 138.45 784.03 140.61 799.93 121.07"/><polygon class="cls-13" points="757.9 117.51 728.42 135.88 743.35 136.06 757.33 137.46 757.9 117.51"/><path class="cls-14" d="M714,211.73c-78,.15-141.38-16.84-141.38-37.87S636,135.54,714,135.31s141.39,16.77,141.39,37.88S791.92,211.59,714,211.73Z"/><polygon class="cls-13" points="713.96 148.11 747.31 149.07 713.96 135.31 713.96 135.31 713.96 135.31 713.96 135.31 713.96 135.31 680.6 149.25 713.96 148.11"/><polygon class="cls-13" points="653.51 154.22 681.56 149.15 623.07 144.5 623.07 144.5 623.07 144.5 623.07 144.5 623.07 144.5 630.46 160.87 653.51 154.22"/><polygon class="cls-13" points="621.35 169.34 630.97 160.63 574.72 167.23 574.72 167.23 574.72 167.23 574.72 167.23 574.72 167.23 619.39 178.39 621.35 169.34"/><polygon class="cls-13" points="632.52 186.41 619.21 178.12 591.51 192.89 591.51 192.89 591.51 192.89 591.51 192.89 591.51 192.89 652.56 193.64 632.52 186.41"/><polygon class="cls-13" points="681.79 197.47 651.78 193.46 665.6 209.52 665.6 209.52 665.6 209.52 665.6 209.52 665.6 209.52 714.46 199.5 681.79 197.47"/><polygon class="cls-13" points="746.12 197.33 713.45 199.5 762.31 209.34 762.31 209.34 762.31 209.34 762.31 209.34 762.31 209.34 776.13 193.2 746.12 197.33"/><polygon class="cls-13" points="795.39 186.05 775.35 193.38 836.4 192.37 836.4 192.37 836.4 192.37 836.4 192.37 836.4 192.37 808.7 177.68 795.39 186.05"/><polygon class="cls-13" points="806.56 168.88 808.52 177.95 853.19 166.54 853.19 166.54 853.19 166.54 853.19 166.54 853.19 166.54 796.94 160.2 806.56 168.88"/><polygon class="cls-13" points="774.4 153.9 797.45 160.44 804.84 144 804.84 144 804.84 144 804.84 144 804.84 144 746.35 148.98 774.4 153.9"/><path class="cls-15" d="M810.34,173.29c0,14.41-43.15,26.17-96.39,26.28s-96.38-11.45-96.38-25.82,43.15-26.13,96.38-26.28S810.34,158.89,810.34,173.29Z"/><polygon class="cls-13" points="713.96 147.47 742.27 162.91 805.58 165.24 759.76 177.42 770.58 194.45 713.96 186.53 657.33 194.69 668.14 177.64 622.33 165.69 685.64 163.05 713.96 147.47"/><path class="cls-16" d="M1354.19,172.38c-.18,23-16.57,45.37-48.72,66.56l-1.35.88-1.2.78c-32.53,20.83-78.88,39.5-137.79,55.5q-19.31,5.25-40,10l-2.68.6c-48.59,11-102.64,20-161.29,26.67-35.65,4.08-72.23,7.24-109.53,9.49l-3.41.2C803.38,345.69,757.51,347,711,347c-53.47,0-106-1.83-157.12-5.34q-3.65-.24-7.28-.51l-3.37-.25q-41.36-3.06-81.26-7.61h0l-.93-.1c-40.59-4.65-78.94-10.34-114.79-17Q311,309.55,279.1,301.71l-2.57-.63q-9.61-2.38-18.89-4.89a711,711,0,0,1-78.42-25.55q-34.28-13.65-58.48-29-6-3.85-11.37-7.74l-1.2-.88C89,218.71,77.05,203.91,72.58,188.77a48,48,0,0,1-2-14.09,50.77,50.77,0,0,1,5.38-22c.14-.31.3-.62.46-.93,7.67-15.15,22.86-29.95,45.43-44.21C139.42,96.44,161,85.93,186.47,76.09l2-.77c21.14-8.09,44.91-15.72,71.15-22.84C306,39.89,358.29,29.36,415.73,21.06l3.12-.45q21.88-3.13,44.75-5.83C515.35,8.67,569.07,4.43,624.12,2.12q43.46-1.81,87.93-2h3.49c85.87-.3,169.39,4,248.22,12.72q30.68,3.41,59.58,7.63,4.86.69,9.66,1.43l3,.47c42.84,6.6,82.58,14.56,118.81,23.79q6.23,1.59,12.32,3.22,13.44,3.63,26,7.43h0q14.11,4.27,27.09,8.79,17.71,6.15,33.27,12.73l1.87.79A332.65,332.65,0,0,1,1304,104.34c26,16.74,42,34.28,47.74,52.32.1.32.2.63.29,1A49.68,49.68,0,0,1,1354.19,172.38Z"/><path class="cls-17" d="M1354.19,172.32c-.18,23-16.57,45.37-48.72,66.56l-1.35.88-1.2.78C1270.39,261.37,1224,280,1165.13,296q-19.31,5.25-40,10l-2.68.6c-48.59,11-102.64,20-161.29,26.67-35.65,4.08-72.23,7.24-109.53,9.49l-3.41.2c-44.84,2.64-90.71,3.95-137.25,3.92-53.47,0-106-1.83-157.12-5.34q-3.65-.24-7.28-.51l-3.37-.25q-41.36-3.06-81.26-7.61h0l-.93-.1c-40.59-4.65-78.94-10.34-114.79-17Q311,309.49,279.1,301.65l-2.57-.63q-9.61-2.38-18.89-4.89a711,711,0,0,1-78.42-25.55q-34.28-13.65-58.48-29-6-3.85-11.37-7.74l-1.2-.88C89,218.65,77.05,203.85,72.58,188.71a48,48,0,0,1-2-14.09,50.77,50.77,0,0,1,5.38-22c.14-.31.3-.62.46-.93,7.67-15.15,22.86-29.95,45.43-44.21C139.42,96.38,161,85.87,186.47,76l2-.77c21.14-8.09,44.91-15.72,71.15-22.84C306,39.83,358.29,29.3,415.73,21l3.12-.45q21.88-3.14,44.75-5.83C515.35,8.61,569.07,4.37,624.12,2.06Q667.58.25,712.05,0h3.49c85.87-.3,169.39,4,248.22,12.72q30.68,3.4,59.58,7.63,4.86.69,9.66,1.43l3,.47c42.84,6.6,82.58,14.56,118.81,23.79q6.23,1.59,12.32,3.22,13.44,3.63,26,7.43h0q14.11,4.27,27.09,8.79,17.71,6.15,33.27,12.73l1.87.79A332.65,332.65,0,0,1,1304,104.28c26,16.74,42,34.28,47.74,52.32.1.32.2.63.29,1A49.68,49.68,0,0,1,1354.19,172.32Z"/><path class="cls-18" d="M733,161.67l-.11.05.19,0Z"/><path class="cls-19" d="M1154.82,46.11l-808.61,270Q311,309.55,279.1,301.71l-2.57-.63q-9.61-2.38-18.89-4.89a711,711,0,0,1-78.42-25.55L1023.34,20.42q4.86.69,9.66,1.43l3,.47C1078.85,28.92,1118.59,36.88,1154.82,46.11Z"/><path class="cls-20" d="M1220.22,65.55,553.85,341.63q-3.65-.24-7.28-.51l-3.37-.25q-41.36-3.06-81.26-7.61l731.18-276.5h0Q1207.24,61,1220.22,65.55Z"/><path class="cls-21" d="M733.75,177.32l.09,0-.19,0Z"/><path class="cls-22" d="M624.12,2.12,72.58,188.77a48,48,0,0,1-2-14.09,50.77,50.77,0,0,1,5.38-22c.14-.31.3-.62.46-.93,7.67-15.15,22.86-29.95,45.43-44.21C139.42,96.44,161,85.93,186.47,76.09l2-.77c21.14-8.09,44.91-15.72,71.15-22.84C306,39.89,358.29,29.36,415.73,21.06l3.12-.45q21.88-3.13,44.75-5.83C515.35,8.67,569.07,4.43,624.12,2.12Z"/></g></g></svg>