<svg xmlns="http://www.w3.org/2000/svg" xmlns:xlink="http://www.w3.org/1999/xlink" viewBox="0 0 805.03 549.47"><defs><style>.cls-1{isolation:isolate;}.cls-2{fill:#351b11;}.cls-3{fill:#542d1d;}.cls-4{fill:#90654c;}.cls-5{fill:#704126;}.cls-6{fill:#5e341e;}.cls-7{fill:#72a08a;}.cls-8{fill:#c66539;}.cls-9{fill:#996e7a;}.cls-10{fill:#69677a;}.cls-11{fill:#aa922d;}.cls-12{fill:#e59b1a;}.cls-13{fill:#dd8b48;}.cls-14{fill:#e8c9aa;}.cls-15{fill:#ddc0a2;}.cls-16{opacity:0.6;}.cls-16,.cls-17{mix-blend-mode:multiply;}.cls-18{fill:url(#linear-gradient);}.cls-19{fill:url(#linear-gradient-2);}.cls-20{mix-blend-mode:overlay;}.cls-21{fill:#877380;}</style><linearGradient id="linear-gradient" x1="165.97" y1="-42.2" x2="162.47" y2="575.69" gradientUnits="userSpaceOnUse"><stop offset="0" stop-color="#89898b" stop-opacity="0.6"/><stop offset="0.55" stop-color="#514c49"/><stop offset="1" stop-opacity="0.9"/></linearGradient><linearGradient id="linear-gradient-2" x1="639.51" y1="-39.53" x2="636.02" y2="578.36" xlink:href="#linear-gradient"/></defs><g class="cls-1"><g id="Layer_1" data-name="Layer 1"><rect class="cls-2" x="40.87" y="64" width="249.72" height="485.47"/><rect class="cls-3" x="40.87" y="64" width="4.81" height="485.47"/><rect class="cls-3" x="285.78" y="64" width="4.81" height="485.47"/><polygon class="cls-4" points="13.02 15.46 0 0 168.73 0 168.73 15.46 13.02 15.46"/><polygon class="cls-5" points="19.2 15.46 23.56 20.07 168.73 20.07 168.73 15.46 19.2 15.46"/><polygon class="cls-4" points="23.56 20.05 21.53 20.05 32.22 29.72 168.73 29.72 168.73 20.05 23.56 20.05"/><polygon class="cls-6" points="21.53 20.05 22.57 19.03 168.73 19.03 168.73 20.05 21.53 20.05"/><polygon class="cls-4" points="32.22 29.72 22.25 29.72 34.18 43.2 168.73 43.2 168.73 29.72 32.22 29.72"/><polygon class="cls-5" points="31.16 28.76 168.73 28.76 168.73 29.72 32.22 29.72 31.16 28.76"/><rect class="cls-6" x="34.18" y="43.2" width="134.55" height="7.27"/><path class="cls-4" d="M34.18,50.47S30.4,50.91,30.4,54H168.73V50.47Z"/><polygon class="cls-4" points="318.44 15.46 331.45 0 162.73 0 162.73 15.46 318.44 15.46"/><polygon class="cls-5" points="312.25 15.46 307.89 20.07 162.73 20.07 162.73 15.46 312.25 15.46"/><polygon class="cls-4" points="307.89 20.05 309.93 20.05 299.24 29.72 162.73 29.72 162.73 20.05 307.89 20.05"/><polygon class="cls-6" points="309.93 20.05 308.88 19.03 162.73 19.03 162.73 20.05 309.93 20.05"/><polygon class="cls-4" points="299.24 29.72 309.2 29.72 297.27 43.2 162.73 43.2 162.73 29.72 299.24 29.72"/><polygon class="cls-5" points="300.29 28.76 162.73 28.76 162.73 29.72 299.24 29.72 300.29 28.76"/><rect class="cls-6" x="162.73" y="43.2" width="134.55" height="7.27"/><path class="cls-4" d="M297.27,50.47s3.78.44,3.78,3.49H162.73V50.47Z"/><polygon class="cls-5" points="29.12 37.47 302.34 37.47 297.27 43.2 34.18 43.2 29.12 37.47"/><polygon class="cls-5" points="301.06 53.96 30.4 53.96 30.4 549.47 40.87 549.47 40.87 64 290.59 64 290.59 549.47 301.06 549.47 301.06 53.96"/><polygon class="cls-4" points="301.06 53.96 290.59 64 290.59 549.47 301.06 549.47 301.06 53.96"/><polygon class="cls-4" points="30.4 53.96 40.87 64 40.87 549.47 30.4 549.47 30.4 53.96"/><rect class="cls-5" x="40.87" y="124.42" width="249.72" height="7.85"/><rect class="cls-5" x="40.87" y="192.69" width="249.72" height="7.85"/><rect class="cls-5" x="40.87" y="260.96" width="249.72" height="7.85"/><rect class="cls-5" x="40.87" y="329.24" width="249.72" height="7.85"/><rect class="cls-5" x="40.87" y="397.51" width="249.72" height="7.85"/><rect class="cls-5" x="40.87" y="465.78" width="249.72" height="7.85"/><rect class="cls-5" x="40.87" y="534.05" width="249.72" height="7.85"/><rect class="cls-5" x="40.69" y="397.62" width="249.72" height="7.85"/><rect class="cls-7" x="271.38" y="68.47" width="13.94" height="56.05"/><rect class="cls-8" x="257.44" y="72.84" width="13.94" height="51.69"/><rect class="cls-8" x="123.24" y="141.11" width="15.93" height="51.69"/><rect class="cls-9" x="209.69" y="141.11" width="15.93" height="51.69"/><rect class="cls-8" x="266.13" y="211.02" width="15.93" height="50.05"/><rect class="cls-10" x="67.85" y="279.29" width="15.93" height="50.05"/><rect class="cls-11" x="83.84" y="274.73" width="15.93" height="54.62"/><rect class="cls-7" x="159.73" y="273.07" width="15.93" height="56.27"/><rect class="cls-12" x="175.46" y="279.29" width="15.93" height="50.05"/><rect class="cls-9" x="242.93" y="273.07" width="21.37" height="56.27"/><rect class="cls-7" x="264.41" y="279.29" width="15.93" height="50.05"/><rect class="cls-8" x="206.18" y="287.67" width="13.43" height="41.67"/><rect class="cls-11" x="222.87" y="281.79" width="13.43" height="46.76" transform="translate(-47.56 42.44) rotate(-9.58)"/><rect class="cls-9" x="108.18" y="285.2" width="20.46" height="44.15"/><rect class="cls-13" x="138.39" y="280.95" width="14.28" height="47.35" transform="translate(101.66 -30.11) rotate(18.07)"/><rect class="cls-13" x="237.49" y="205.2" width="19.95" height="55.87"/><rect class="cls-11" x="168.55" y="206.65" width="14.87" height="54.42"/><rect class="cls-8" x="150.5" y="218.58" width="17.94" height="42.49"/><rect class="cls-10" x="133.25" y="209.27" width="14.21" height="51.8"/><rect class="cls-11" x="59.64" y="217.43" width="10.41" height="43.64"/><rect class="cls-12" x="100.13" y="211.02" width="16.01" height="50.05"/><rect class="cls-7" x="77.51" y="209.13" width="16.22" height="50.7" transform="translate(66.04 -14.37) rotate(15.56)"/><rect class="cls-7" x="220.04" y="217.51" width="15.55" height="43.57"/><rect class="cls-9" x="194.26" y="215.14" width="12.15" height="45.98" transform="translate(-92.22 132.07) rotate(-30)"/><rect class="cls-7" x="235.78" y="146.65" width="10.29" height="46.15"/><rect class="cls-10" x="248.5" y="137.64" width="18.96" height="55.16"/><rect class="cls-8" x="192.4" y="149.32" width="11.72" height="42.69" transform="translate(53.05 -46.93) rotate(15.56)"/><rect class="cls-11" x="143.73" y="149.64" width="13.54" height="43.16"/><rect class="cls-12" x="157.27" y="137.64" width="19.2" height="55.16"/><rect class="cls-8" x="47.69" y="138.87" width="13.94" height="53.93"/><rect class="cls-10" x="91.68" y="147.02" width="13.94" height="45.78"/><rect class="cls-7" x="105.63" y="135.09" width="11.43" height="57.71"/><rect class="cls-11" x="66.48" y="144.61" width="20.49" height="46.43" transform="translate(-34.94 20.92) rotate(-12.67)"/><rect class="cls-9" x="52.67" y="82.22" width="11.93" height="42.31"/><rect class="cls-8" x="173.45" y="72.84" width="13.94" height="51.69"/><rect class="cls-9" x="134.04" y="72.84" width="13.94" height="51.69"/><rect class="cls-7" x="67.6" y="75.89" width="16.43" height="48.64"/><rect class="cls-11" x="123.24" y="82.22" width="10.8" height="42.31"/><rect class="cls-12" x="108.62" y="69.56" width="14.62" height="54.96"/><rect class="cls-13" x="89" y="70.41" width="14.62" height="53.28" transform="translate(20.57 -16.79) rotate(11.15)"/><rect class="cls-7" x="155.23" y="72.62" width="11.54" height="51.3" transform="translate(32.27 -39.59) rotate(15.56)"/><rect class="cls-10" x="192.2" y="65.56" width="13.94" height="58.96"/><rect class="cls-11" x="206.15" y="78.95" width="17.89" height="45.58"/><rect class="cls-12" x="233.8" y="77.17" width="13.94" height="46.7" transform="translate(-19.55 118.1) rotate(-26.52)"/><rect class="cls-7" x="271.38" y="340.84" width="13.94" height="56.05"/><rect class="cls-8" x="257.44" y="345.2" width="13.94" height="51.69"/><rect class="cls-8" x="123.24" y="413.47" width="15.93" height="51.69"/><rect class="cls-9" x="209.69" y="413.47" width="15.93" height="51.69"/><rect class="cls-8" x="266.13" y="483.38" width="15.93" height="50.05"/><rect class="cls-13" x="237.49" y="477.56" width="19.95" height="55.87"/><rect class="cls-11" x="168.55" y="479.02" width="14.87" height="54.42"/><rect class="cls-8" x="150.5" y="490.95" width="17.94" height="42.49"/><rect class="cls-10" x="133.25" y="481.64" width="14.21" height="51.8"/><rect class="cls-11" x="59.64" y="489.8" width="10.41" height="43.64"/><rect class="cls-12" x="100.13" y="483.38" width="16.01" height="50.05"/><rect class="cls-7" x="77.51" y="481.49" width="16.22" height="50.7" transform="translate(139.11 -4.39) rotate(15.56)"/><rect class="cls-7" x="220.04" y="489.87" width="15.55" height="43.57"/><rect class="cls-9" x="194.26" y="487.5" width="12.15" height="45.98" transform="translate(-228.41 168.56) rotate(-30)"/><rect class="cls-7" x="235.78" y="419.01" width="10.29" height="46.15"/><rect class="cls-10" x="248.5" y="410" width="18.96" height="55.16"/><rect class="cls-8" x="192.4" y="421.68" width="11.72" height="42.69" transform="translate(126.12 -36.95) rotate(15.56)"/><rect class="cls-11" x="143.73" y="422" width="13.54" height="43.16"/><rect class="cls-12" x="157.27" y="410" width="19.2" height="55.16"/><rect class="cls-10" x="91.68" y="419.38" width="13.94" height="45.78"/><rect class="cls-7" x="105.63" y="407.45" width="11.43" height="57.71"/><rect class="cls-11" x="66.48" y="416.97" width="20.49" height="46.43" transform="translate(-94.69 27.55) rotate(-12.67)"/><rect class="cls-9" x="52.67" y="354.58" width="11.93" height="42.31"/><rect class="cls-8" x="173.45" y="345.2" width="13.94" height="51.69"/><rect class="cls-9" x="134.04" y="345.2" width="13.94" height="51.69"/><rect class="cls-7" x="67.6" y="348.25" width="16.43" height="48.64"/><rect class="cls-11" x="123.24" y="354.58" width="10.8" height="42.31"/><rect class="cls-12" x="108.62" y="341.93" width="14.62" height="54.96"/><rect class="cls-13" x="89" y="342.77" width="14.62" height="53.28" transform="translate(73.22 -11.65) rotate(11.15)"/><rect class="cls-7" x="155.23" y="344.99" width="11.54" height="51.3" transform="translate(105.33 -29.61) rotate(15.56)"/><rect class="cls-10" x="192.2" y="337.93" width="13.94" height="58.96"/><rect class="cls-11" x="206.15" y="351.31" width="17.89" height="45.58"/><rect class="cls-12" x="233.8" y="349.53" width="13.94" height="46.7" transform="translate(-141.18 146.77) rotate(-26.52)"/><rect class="cls-14" x="108.62" y="88.98" width="14.62" height="6.11"/><rect class="cls-14" x="108.62" y="100.18" width="14.62" height="6.11"/><rect class="cls-14" x="271.38" y="80.47" width="13.94" height="7.34"/><rect class="cls-14" x="271.38" y="77.64" width="13.94" height="1.36"/><rect class="cls-14" x="271.38" y="89.28" width="13.94" height="1.36"/><ellipse class="cls-14" cx="180.42" cy="86.14" rx="4.52" ry="6.36"/><ellipse class="cls-14" cx="118.41" cy="307.27" rx="7.37" ry="10.39"/><ellipse class="cls-14" cx="175.65" cy="246.19" rx="2.87" ry="4.04"/><path class="cls-14" d="M175.65,252.69c-2.7,0-4.9-2.92-4.9-6.5s2.2-6.5,4.9-6.5,4.91,2.92,4.91,6.5S178.36,252.69,175.65,252.69Zm0-12.25c-2.29,0-4.15,2.58-4.15,5.75s1.86,5.75,4.15,5.75,4.16-2.58,4.16-5.75S177.94,240.44,175.65,240.44Z"/><ellipse class="cls-14" cx="237.49" cy="93.94" rx="4.52" ry="6.36" transform="translate(-16.96 115.94) rotate(-26.52)"/><path class="cls-15" d="M98.72,175.36c-2.25,0-4.08-2.49-4.08-5.54s1.83-5.54,4.08-5.54,4.07,2.49,4.07,5.54S101,175.36,98.72,175.36Zm0-10.08c-1.7,0-3.08,2-3.08,4.54s1.38,4.54,3.08,4.54,3.07-2,3.07-4.54S100.41,165.28,98.72,165.28Z"/><path class="cls-15" d="M247.47,228.14c-3.49,0-6.33-3.9-6.33-8.7s2.84-8.71,6.33-8.71,6.32,3.9,6.32,8.71S251,228.14,247.47,228.14Zm0-16.41c-2.94,0-5.33,3.46-5.33,7.71s2.39,7.7,5.33,7.7,5.32-3.46,5.32-7.7S250.4,211.73,247.47,211.73Z"/><path class="cls-15" d="M247.47,225.9c-2.45,0-4.43-2.93-4.43-6.54s2-6.53,4.43-6.53,4.42,2.93,4.42,6.53S249.91,225.9,247.47,225.9Zm0-12.57c-2.17,0-3.93,2.71-3.93,6s1.76,6,3.93,6,3.92-2.71,3.92-6S249.63,213.33,247.47,213.33Z"/><rect class="cls-14" x="206.15" y="111.35" width="17.89" height="4.69"/><rect class="cls-15" x="70.05" y="75.89" width="2.5" height="48.64"/><rect class="cls-14" x="241.57" y="114.8" width="13.94" height="2.59" transform="translate(-25.68 123.21) rotate(-26.52)"/><rect class="cls-14" x="240.16" y="112.52" width="13.94" height="1.46" transform="translate(-24.56 122.28) rotate(-26.52)"/><rect class="cls-15" x="220.04" y="141.11" width="1.45" height="51.69"/><rect class="cls-15" x="157.27" y="142.36" width="19.2" height="4.29"/><rect class="cls-15" x="50.36" y="174.86" width="8.27" height="12.74"/><rect class="cls-15" x="259.18" y="141.36" width="8.27" height="8.27"/><rect class="cls-14" x="143.73" y="176.94" width="13.54" height="0.47"/><rect class="cls-14" x="143.73" y="184.12" width="13.54" height="0.95"/><rect class="cls-14" x="143.73" y="178.22" width="13.54" height="5.11"/><rect class="cls-15" x="150.5" y="223.82" width="17.94" height="7.56"/><rect class="cls-15" x="150.5" y="234.35" width="17.94" height="1.7"/><rect class="cls-14" x="75.67" y="239.1" width="16.22" height="3.95" transform="translate(67.75 -13.64) rotate(15.56)"/><rect class="cls-14" x="74.08" y="244.81" width="16.22" height="3.95" transform="translate(69.22 -13) rotate(15.56)"/><rect class="cls-15" x="227.81" y="232.47" width="7.78" height="13.65"/><rect class="cls-15" x="67.85" y="295.96" width="15.93" height="6.07"/><rect class="cls-15" x="67.85" y="304.63" width="15.93" height="1.69"/><rect class="cls-14" x="186" y="279.29" width="1.39" height="50.05"/><rect class="cls-14" x="188.18" y="279.29" width="0.69" height="50.05"/><rect class="cls-14" x="206.18" y="296.25" width="13.43" height="5.46"/><rect class="cls-14" x="206.18" y="314.93" width="13.43" height="5.46"/><rect class="cls-14" x="264.41" y="319.39" width="15.93" height="8.38"/><rect class="cls-14" x="264.41" y="289.11" width="15.93" height="0.76"/><rect class="cls-14" x="264.41" y="287.29" width="15.93" height="0.76"/><g class="cls-16"><rect class="cls-4" x="40.87" y="397.62" width="249.72" height="7.85"/><polygon class="cls-4" points="271.56 124.53 285.51 124.53 285.51 90.65 285.51 89.28 285.51 87.81 285.51 80.47 285.51 79 285.51 77.64 285.51 68.47 271.56 68.47 271.56 72.84 257.62 72.84 257.62 118.3 257.62 124.53 271.56 124.53"/><rect class="cls-4" x="123.42" y="141.11" width="15.93" height="51.69"/><rect class="cls-4" x="266.31" y="211.02" width="15.93" height="50.05"/><polygon class="cls-4" points="68.03 295.96 68.03 302.04 68.03 304.63 68.03 306.31 68.03 329.35 83.96 329.35 83.96 306.31 83.96 304.63 83.96 302.04 83.96 295.96 83.96 279.29 68.03 279.29 68.03 295.96"/><rect class="cls-4" x="84.02" y="274.73" width="15.93" height="54.62"/><polygon class="cls-4" points="188.36 329.35 189.06 329.35 191.56 329.35 191.56 279.29 189.06 279.29 188.36 279.29 187.57 279.29 186.18 279.29 175.84 279.29 175.84 273.07 159.91 273.07 159.91 329.35 175.64 329.35 175.84 329.35 186.18 329.35 187.57 329.35 188.36 329.35"/><rect class="cls-4" x="243.11" y="273.07" width="21.37" height="56.27"/><polygon class="cls-4" points="264.59 287.29 264.59 288.06 264.59 289.11 264.59 289.87 264.59 319.39 264.59 327.77 264.59 329.35 280.52 329.35 280.52 327.77 280.52 319.39 280.52 289.87 280.52 289.11 280.52 288.06 280.52 287.29 280.52 279.29 264.59 279.29 264.59 287.29"/><polygon class="cls-4" points="206.36 296.25 206.36 301.72 206.36 314.93 206.36 320.39 206.36 329.35 219.8 329.35 219.8 320.39 219.8 314.93 219.8 301.72 219.8 296.25 219.8 287.67 206.36 287.67 206.36 296.25"/><rect class="cls-4" x="223.05" y="281.79" width="13.43" height="46.76" transform="translate(-47.56 42.47) rotate(-9.58)"/><rect class="cls-4" x="108.36" y="285.2" width="20.46" height="44.15"/><rect class="cls-4" x="122.04" y="297.48" width="47.35" height="14.28" transform="matrix(0.31, -0.95, 0.95, 0.31, -189.08, 348.67)"/><rect class="cls-4" x="237.67" y="205.2" width="19.95" height="55.87"/><rect class="cls-4" x="168.73" y="206.65" width="14.87" height="54.42"/><polygon class="cls-4" points="150.68 223.82 150.68 231.38 150.68 234.35 150.68 236.04 150.68 261.07 168.62 261.07 168.62 236.04 168.62 234.35 168.62 231.38 168.62 223.82 168.62 218.58 150.68 218.58 150.68 223.82"/><rect class="cls-4" x="133.44" y="209.27" width="14.21" height="51.8"/><rect class="cls-4" x="59.82" y="217.43" width="10.41" height="43.64"/><polygon class="cls-4" points="86.81 261.07 100.31 212.59 100.31 261.07 116.33 261.07 116.33 211.02 100.31 211.02 100.31 212.2 84.79 207.88 76.34 238.22 75.62 240.81 75.62 240.81 75.01 243.01 74.03 246.51 74.03 246.51 71.19 256.72 86.81 261.07"/><polygon class="cls-4" points="220.22 261.07 235.77 261.07 235.77 246.11 235.77 232.47 235.77 217.51 220.22 217.51 220.22 261.07"/><rect class="cls-4" x="194.44" y="215.14" width="12.15" height="45.98" transform="translate(-92.2 132.16) rotate(-30)"/><rect class="cls-4" x="235.96" y="146.65" width="10.29" height="46.15"/><polygon class="cls-4" points="248.68 192.8 267.64 192.8 267.64 149.64 267.64 141.36 267.64 137.64 248.68 137.64 248.68 192.8"/><rect class="cls-4" x="177.09" y="164.8" width="42.69" height="11.72" transform="translate(-19.21 316.04) rotate(-74.44)"/><polygon class="cls-4" points="157.46 142.36 157.46 146.65 157.46 149.64 143.91 149.64 143.91 176.94 143.91 177.41 143.91 178.22 143.91 183.32 143.91 184.12 143.91 185.07 143.91 192.8 157.46 192.8 176.65 192.8 176.65 146.65 176.65 142.36 176.65 137.64 157.46 137.64 157.46 142.36"/><polygon class="cls-4" points="61.82 147.43 72 192.72 91.86 188.25 91.86 192.8 105.81 192.8 117.24 192.8 117.24 135.09 105.81 135.09 105.81 147.02 91.86 147.02 91.86 187.67 81.81 142.93 61.82 147.42 61.82 138.87 47.88 138.87 47.88 192.8 61.82 192.8 61.82 147.43"/><rect class="cls-4" x="52.85" y="82.22" width="11.93" height="42.31"/><polygon class="cls-4" points="187.57 124.53 187.57 72.84 173.63 72.84 173.63 75.11 173.63 124.53 187.57 124.53"/><rect class="cls-4" x="135.54" y="92.5" width="51.3" height="11.54" transform="translate(23.28 227.19) rotate(-74.44)"/><polygon class="cls-4" points="224.22 124.53 224.22 116.04 224.22 111.35 224.22 78.94 206.33 78.94 206.33 65.56 192.38 65.56 192.38 124.53 206.33 124.53 224.22 124.53"/><polygon class="cls-4" points="271.56 396.89 285.51 396.89 285.51 340.84 271.56 340.84 271.56 345.2 257.62 345.2 257.62 390.66 257.62 396.89 271.56 396.89"/><rect class="cls-4" x="123.42" y="413.47" width="15.93" height="51.69"/><rect class="cls-4" x="209.87" y="413.47" width="15.93" height="51.69"/><rect class="cls-4" x="266.31" y="483.38" width="15.93" height="50.05"/><rect class="cls-4" x="237.67" y="477.56" width="19.95" height="55.87"/><rect class="cls-4" x="168.73" y="479.02" width="14.87" height="54.42"/><rect class="cls-4" x="150.68" y="490.95" width="17.94" height="42.49"/><rect class="cls-4" x="133.44" y="481.64" width="14.21" height="51.8"/><rect class="cls-4" x="59.82" y="489.8" width="10.41" height="43.64"/><polygon class="cls-4" points="100.31 484.57 84.79 480.24 71.19 529.09 86.81 533.44 100.31 484.95 100.31 533.44 116.33 533.44 116.33 483.38 100.31 483.38 100.31 484.57"/><rect class="cls-4" x="220.22" y="489.87" width="15.55" height="43.57"/><rect class="cls-4" x="194.44" y="487.5" width="12.15" height="45.98" transform="translate(-228.38 168.65) rotate(-30)"/><rect class="cls-4" x="235.96" y="419.01" width="10.29" height="46.15"/><rect class="cls-4" x="248.68" y="410" width="18.96" height="55.16"/><rect class="cls-4" x="177.09" y="437.17" width="42.69" height="11.72" transform="translate(-281.59 515.34) rotate(-74.44)"/><polygon class="cls-4" points="176.65 465.16 176.65 410 157.46 410 157.46 422 143.91 422 143.91 465.16 157.46 465.16 176.65 465.16"/><polygon class="cls-4" points="105.81 419.38 91.86 419.38 91.86 460.04 81.81 415.29 61.81 419.78 72 465.08 91.86 460.61 91.86 465.16 105.81 465.16 117.24 465.16 117.24 407.45 105.81 407.45 105.81 419.38"/><rect class="cls-4" x="52.85" y="354.58" width="11.93" height="42.31"/><polygon class="cls-4" points="187.57 396.89 187.57 345.2 173.63 345.2 173.63 347.48 173.63 396.89 187.57 396.89"/><polygon class="cls-4" points="123.42 396.89 134.22 396.89 148.17 396.89 148.17 345.2 134.22 345.2 134.22 354.58 123.42 354.58 123.42 341.93 108.8 341.93 108.8 344.68 94.47 341.86 84.21 393.95 84.21 348.25 67.78 348.25 67.78 396.89 84.21 396.89 84.21 394.14 98.52 396.96 108.8 344.75 108.8 396.89 123.42 396.89"/><rect class="cls-4" x="135.54" y="364.86" width="51.3" height="11.54" transform="translate(-239.1 426.48) rotate(-74.44)"/><polygon class="cls-4" points="224.22 396.89 224.22 351.31 206.33 351.31 206.33 337.93 192.38 337.93 192.38 396.89 206.33 396.89 224.22 396.89"/><rect class="cls-4" x="233.98" y="349.53" width="13.94" height="46.7" transform="translate(-141.16 146.85) rotate(-26.52)"/><polygon class="cls-4" points="72.73 124.53 84.21 124.53 84.21 121.78 98.52 124.59 108.8 72.39 108.8 88.98 108.8 95.09 108.8 100.18 108.8 106.29 108.8 124.53 123.42 124.53 134.22 124.53 148.17 124.53 148.17 72.84 134.22 72.84 134.22 82.22 123.42 82.22 123.42 69.56 108.8 69.56 108.8 72.32 94.47 69.5 84.21 121.59 84.21 75.89 72.73 75.89 70.23 75.89 67.78 75.89 67.78 124.53 70.23 124.53 72.73 124.53"/><polygon class="cls-4" points="240.75 115.71 241.4 117.02 241.4 117.02 242.15 118.53 243.07 120.36 243.07 120.36 245.15 124.53 257.62 118.3 255.54 114.14 255.54 114.14 254.39 111.82 254.39 111.82 253.87 110.79 253.87 110.79 253.24 109.52 236.76 76.51 224.29 82.74 240.75 115.71 240.75 115.71"/><polygon class="cls-4" points="220.22 141.11 209.87 141.11 209.87 192.8 220.22 192.8 221.67 192.8 225.8 192.8 225.8 141.11 221.67 141.11 220.22 141.11"/></g><rect class="cls-2" x="514.43" y="64" width="249.72" height="485.47"/><rect class="cls-3" x="759.34" y="64" width="4.81" height="485.47"/><rect class="cls-3" x="514.43" y="64" width="4.81" height="485.47"/><polygon class="cls-4" points="792 15.46 805.02 0 636.29 0 636.29 15.46 792 15.46"/><polygon class="cls-5" points="785.82 15.46 781.45 20.07 636.29 20.07 636.29 15.46 785.82 15.46"/><polygon class="cls-4" points="781.45 20.05 783.49 20.05 772.8 29.72 636.29 29.72 636.29 20.05 781.45 20.05"/><polygon class="cls-6" points="783.49 20.05 782.44 19.03 636.29 19.03 636.29 20.05 783.49 20.05"/><polygon class="cls-4" points="772.8 29.72 782.76 29.72 770.83 43.2 636.29 43.2 636.29 29.72 772.8 29.72"/><polygon class="cls-5" points="773.86 28.76 636.29 28.76 636.29 29.72 772.8 29.72 773.86 28.76"/><rect class="cls-6" x="636.29" y="43.2" width="134.55" height="7.27"/><path class="cls-4" d="M770.83,50.47s3.79.44,3.79,3.49H636.29V50.47Z"/><polygon class="cls-4" points="486.58 15.46 473.56 0 642.29 0 642.29 15.46 486.58 15.46"/><polygon class="cls-5" points="492.76 15.46 497.13 20.07 642.29 20.07 642.29 15.46 492.76 15.46"/><polygon class="cls-4" points="497.13 20.05 495.09 20.05 505.78 29.72 642.29 29.72 642.29 20.05 497.13 20.05"/><polygon class="cls-6" points="495.09 20.05 496.14 19.03 642.29 19.03 642.29 20.05 495.09 20.05"/><polygon class="cls-4" points="505.78 29.72 495.82 29.72 507.74 43.2 642.29 43.2 642.29 29.72 505.78 29.72"/><polygon class="cls-5" points="504.72 28.76 642.29 28.76 642.29 29.72 505.78 29.72 504.72 28.76"/><rect class="cls-6" x="507.74" y="43.2" width="134.55" height="7.27"/><path class="cls-4" d="M507.74,50.47S504,50.91,504,54H642.29V50.47Z"/><polygon class="cls-5" points="775.9 37.47 502.68 37.47 507.74 43.2 770.83 43.2 775.9 37.47"/><polygon class="cls-5" points="503.96 53.96 774.62 53.96 774.62 549.47 764.15 549.47 764.15 64 514.43 64 514.43 549.47 503.96 549.47 503.96 53.96"/><polygon class="cls-4" points="503.96 53.96 514.43 64 514.43 549.47 503.96 549.47 503.96 53.96"/><polygon class="cls-4" points="774.62 53.96 764.15 64 764.15 549.47 774.62 549.47 774.62 53.96"/><rect class="cls-5" x="514.43" y="124.42" width="249.72" height="7.85" transform="translate(1278.58 256.69) rotate(-180)"/><rect class="cls-5" x="514.43" y="192.69" width="249.72" height="7.85" transform="translate(1278.58 393.24) rotate(-180)"/><rect class="cls-5" x="514.43" y="260.96" width="249.72" height="7.85" transform="translate(1278.58 529.78) rotate(-180)"/><rect class="cls-5" x="514.43" y="329.24" width="249.72" height="7.85" transform="translate(1278.58 666.33) rotate(-180)"/><rect class="cls-5" x="514.43" y="397.51" width="249.72" height="7.85" transform="translate(1278.58 802.87) rotate(-180)"/><rect class="cls-5" x="514.43" y="465.78" width="249.72" height="7.85" transform="translate(1278.58 939.42) rotate(-180)"/><rect class="cls-5" x="514.43" y="534.05" width="249.72" height="7.85" transform="translate(1278.58 1075.96) rotate(-180)"/><rect class="cls-5" x="514.61" y="397.62" width="249.72" height="7.85" transform="translate(1278.94 803.09) rotate(-180)"/><rect class="cls-7" x="519.69" y="68.47" width="13.94" height="56.05" transform="translate(1053.33 193) rotate(-180)"/><rect class="cls-8" x="533.63" y="72.84" width="13.94" height="51.69" transform="translate(1081.21 197.36) rotate(-180)"/><rect class="cls-8" x="665.85" y="141.11" width="15.93" height="51.69" transform="translate(1347.63 333.91) rotate(-180)"/><rect class="cls-9" x="579.4" y="141.11" width="15.93" height="51.69" transform="translate(1174.73 333.91) rotate(-180)"/><rect class="cls-8" x="522.96" y="211.02" width="15.93" height="50.05" transform="translate(1061.85 472.09) rotate(-180)"/><rect class="cls-10" x="721.24" y="279.29" width="15.93" height="50.05" transform="translate(1458.41 608.64) rotate(-180)"/><rect class="cls-11" x="705.25" y="274.73" width="15.93" height="54.62" transform="translate(1426.43 604.07) rotate(-180)"/><rect class="cls-7" x="629.36" y="273.07" width="15.93" height="56.27" transform="translate(1274.65 602.42) rotate(-180)"/><rect class="cls-12" x="613.63" y="279.29" width="15.93" height="50.05" transform="translate(1243.19 608.64) rotate(-180)"/><rect class="cls-9" x="540.71" y="273.07" width="21.37" height="56.27" transform="translate(1102.8 602.42) rotate(-180)"/><rect class="cls-7" x="524.68" y="279.29" width="15.93" height="50.05" transform="translate(1065.29 608.64) rotate(-180)"/><rect class="cls-8" x="585.4" y="287.67" width="13.43" height="41.67" transform="translate(1184.23 617.02) rotate(-180)"/><rect class="cls-11" x="568.71" y="281.79" width="13.43" height="46.76" transform="translate(1092.07 701.81) rotate(-170.42)"/><rect class="cls-9" x="676.38" y="285.2" width="20.46" height="44.15" transform="translate(1373.21 614.55) rotate(-180)"/><rect class="cls-13" x="652.34" y="280.95" width="14.28" height="47.35" transform="translate(1380.93 389.69) rotate(161.93)"/><rect class="cls-13" x="547.58" y="205.2" width="19.95" height="55.87" transform="translate(1115.1 466.27) rotate(-180)"/><rect class="cls-11" x="621.6" y="206.65" width="14.87" height="54.42" transform="translate(1258.07 467.73) rotate(-180)"/><rect class="cls-8" x="636.57" y="218.58" width="17.94" height="42.49" transform="translate(1291.09 479.65) rotate(-180)"/><rect class="cls-10" x="657.56" y="209.27" width="14.21" height="51.8" transform="translate(1329.32 470.35) rotate(-180)"/><rect class="cls-11" x="734.97" y="217.43" width="10.41" height="43.64" transform="translate(1480.35 478.51) rotate(-180)"/><rect class="cls-12" x="688.87" y="211.02" width="16.01" height="50.05" transform="translate(1393.75 472.09) rotate(-180)"/><rect class="cls-7" x="711.29" y="209.13" width="16.22" height="50.7" transform="translate(1475.33 267.36) rotate(164.44)"/><rect class="cls-7" x="569.43" y="217.51" width="15.55" height="43.57" transform="translate(1154.41 478.58) rotate(-180)"/><rect class="cls-9" x="598.61" y="215.14" width="12.15" height="45.98" transform="translate(1009.29 746.69) rotate(-150)"/><rect class="cls-7" x="558.94" y="146.65" width="10.29" height="46.15" transform="translate(1128.18 339.45) rotate(-180)"/><rect class="cls-10" x="537.56" y="137.64" width="18.96" height="55.16" transform="translate(1094.08 330.44) rotate(-180)"/><rect class="cls-8" x="600.9" y="149.32" width="11.72" height="42.69" transform="translate(1237.06 172.29) rotate(164.44)"/><rect class="cls-11" x="647.74" y="149.64" width="13.54" height="43.16" transform="translate(1309.03 342.44) rotate(-180)"/><rect class="cls-12" x="628.54" y="137.64" width="19.2" height="55.16" transform="translate(1276.29 330.44) rotate(-180)"/><rect class="cls-8" x="743.38" y="138.87" width="13.94" height="53.93" transform="translate(1500.7 331.67) rotate(-180)"/><rect class="cls-10" x="699.39" y="147.02" width="13.94" height="45.78" transform="translate(1412.72 339.82) rotate(-180)"/><rect class="cls-7" x="687.96" y="135.09" width="11.43" height="57.71" transform="translate(1387.35 327.89) rotate(-180)"/><rect class="cls-11" x="718.05" y="144.61" width="20.49" height="46.43" transform="translate(1402.04 491.31) rotate(-167.33)"/><rect class="cls-9" x="740.42" y="82.22" width="11.93" height="42.31" transform="translate(1492.76 206.75) rotate(-180)"/><rect class="cls-8" x="617.63" y="72.84" width="13.94" height="51.69" transform="translate(1249.2 197.36) rotate(-180)"/><rect class="cls-9" x="657.03" y="72.84" width="13.94" height="51.69" transform="translate(1328.01 197.36) rotate(-180)"/><rect class="cls-7" x="720.99" y="75.89" width="16.43" height="48.64" transform="translate(1458.41 200.42) rotate(-180)"/><rect class="cls-11" x="670.97" y="82.22" width="10.8" height="42.31" transform="translate(1352.75 206.75) rotate(-180)"/><rect class="cls-12" x="681.78" y="69.56" width="14.62" height="54.96" transform="translate(1378.18 194.09) rotate(-180)"/><rect class="cls-13" x="701.4" y="70.41" width="14.62" height="53.28" transform="translate(1422.8 55.27) rotate(168.85)"/><rect class="cls-7" x="638.24" y="72.62" width="11.54" height="51.3" transform="translate(1290.78 20.17) rotate(164.44)"/><rect class="cls-10" x="598.87" y="65.56" width="13.94" height="58.96" transform="translate(1211.68 190.09) rotate(-180)"/><rect class="cls-11" x="580.98" y="78.95" width="17.89" height="45.58" transform="translate(1179.85 203.47) rotate(-180)"/><rect class="cls-12" x="557.27" y="77.17" width="13.94" height="46.7" transform="translate(1024.21 442.44) rotate(-153.48)"/><rect class="cls-7" x="519.69" y="340.84" width="13.94" height="56.05" transform="translate(1053.33 737.73) rotate(-180)"/><rect class="cls-8" x="533.63" y="345.2" width="13.94" height="51.69" transform="translate(1081.21 742.09) rotate(-180)"/><rect class="cls-8" x="665.85" y="413.47" width="15.93" height="51.69" transform="translate(1347.63 878.64) rotate(-180)"/><rect class="cls-9" x="579.4" y="413.47" width="15.93" height="51.69" transform="translate(1174.73 878.64) rotate(-180)"/><rect class="cls-8" x="522.96" y="483.38" width="15.93" height="50.05" transform="translate(1061.85 1016.82) rotate(-180)"/><rect class="cls-13" x="547.58" y="477.56" width="19.95" height="55.87" transform="translate(1115.1 1011) rotate(-180)"/><rect class="cls-11" x="621.6" y="479.02" width="14.87" height="54.42" transform="translate(1258.07 1012.45) rotate(-180)"/><rect class="cls-8" x="636.57" y="490.95" width="17.94" height="42.49" transform="translate(1291.09 1024.38) rotate(-180)"/><rect class="cls-10" x="657.56" y="481.64" width="14.21" height="51.8" transform="translate(1329.32 1015.07) rotate(-180)"/><rect class="cls-11" x="734.97" y="489.8" width="10.41" height="43.64" transform="translate(1480.35 1023.23) rotate(-180)"/><rect class="cls-12" x="688.87" y="483.38" width="16.01" height="50.05" transform="translate(1393.75 1016.82) rotate(-180)"/><rect class="cls-7" x="711.29" y="481.49" width="16.22" height="50.7" transform="translate(1548.4 802.1) rotate(164.44)"/><rect class="cls-7" x="569.43" y="489.87" width="15.55" height="43.57" transform="translate(1154.41 1023.31) rotate(-180)"/><rect class="cls-9" x="598.61" y="487.5" width="12.15" height="45.98" transform="translate(873.11 1254.93) rotate(-150)"/><rect class="cls-7" x="558.94" y="419.01" width="10.29" height="46.15" transform="translate(1128.18 884.18) rotate(-180)"/><rect class="cls-10" x="537.56" y="410" width="18.96" height="55.16" transform="translate(1094.08 875.16) rotate(-180)"/><rect class="cls-8" x="600.9" y="421.68" width="11.72" height="42.69" transform="translate(1310.13 707.04) rotate(164.44)"/><rect class="cls-11" x="647.74" y="422" width="13.54" height="43.16" transform="translate(1309.03 887.16) rotate(-180)"/><rect class="cls-12" x="628.54" y="410" width="19.2" height="55.16" transform="translate(1276.29 875.16) rotate(-180)"/><rect class="cls-10" x="699.39" y="419.38" width="13.94" height="45.78" transform="translate(1412.72 884.55) rotate(-180)"/><rect class="cls-7" x="687.96" y="407.45" width="11.43" height="57.71" transform="translate(1387.35 872.62) rotate(-180)"/><rect class="cls-11" x="718.05" y="416.97" width="20.49" height="46.43" transform="translate(1342.3 1029.4) rotate(-167.33)"/><rect class="cls-9" x="740.42" y="354.58" width="11.93" height="42.31" transform="translate(1492.76 751.47) rotate(-180)"/><rect class="cls-8" x="617.63" y="345.2" width="13.94" height="51.69" transform="translate(1249.2 742.09) rotate(-180)"/><rect class="cls-9" x="657.03" y="345.2" width="13.94" height="51.69" transform="translate(1328.01 742.09) rotate(-180)"/><rect class="cls-7" x="720.99" y="348.25" width="16.43" height="48.64" transform="translate(1458.41 745.15) rotate(-180)"/><rect class="cls-11" x="670.97" y="354.58" width="10.8" height="42.31" transform="translate(1352.75 751.47) rotate(-180)"/><rect class="cls-12" x="681.78" y="341.93" width="14.62" height="54.96" transform="translate(1378.18 738.82) rotate(-180)"/><rect class="cls-13" x="701.4" y="342.77" width="14.62" height="53.28" transform="translate(1475.45 594.86) rotate(168.85)"/><rect class="cls-7" x="638.24" y="344.99" width="11.54" height="51.3" transform="translate(1363.85 554.91) rotate(164.44)"/><rect class="cls-10" x="598.87" y="337.93" width="13.94" height="58.96" transform="translate(1211.68 734.82) rotate(-180)"/><rect class="cls-11" x="580.98" y="351.31" width="17.89" height="45.58" transform="translate(1179.85 748.2) rotate(-180)"/><rect class="cls-12" x="557.27" y="349.53" width="13.94" height="46.7" transform="translate(902.58 958.5) rotate(-153.48)"/><rect class="cls-14" x="681.78" y="88.98" width="14.62" height="6.11" transform="translate(1378.18 184.07) rotate(-180)"/><rect class="cls-14" x="681.78" y="100.18" width="14.62" height="6.11" transform="translate(1378.18 206.47) rotate(-180)"/><rect class="cls-14" x="519.69" y="80.47" width="13.94" height="7.34" transform="translate(1053.33 168.28) rotate(-180)"/><rect class="cls-14" x="519.69" y="77.64" width="13.94" height="1.36" transform="translate(1053.33 156.64) rotate(-180)"/><rect class="cls-14" x="519.69" y="89.28" width="13.94" height="1.36" transform="translate(1053.33 179.93) rotate(-180)"/><ellipse class="cls-14" cx="624.6" cy="86.14" rx="4.52" ry="6.36"/><ellipse class="cls-14" cx="686.61" cy="307.27" rx="7.37" ry="10.39"/><ellipse class="cls-14" cx="629.36" cy="246.19" rx="2.87" ry="4.04"/><path class="cls-14" d="M624.46,246.19c0-3.58,2.2-6.5,4.9-6.5s4.91,2.92,4.91,6.5-2.2,6.5-4.91,6.5S624.46,249.77,624.46,246.19Zm.75,0c0,3.17,1.86,5.75,4.15,5.75s4.16-2.58,4.16-5.75-1.87-5.75-4.16-5.75S625.21,243,625.21,246.19Z"/><ellipse class="cls-14" cx="567.53" cy="93.94" rx="6.36" ry="4.52" transform="translate(230.03 559.78) rotate(-63.48)"/><path class="cls-15" d="M702.23,169.82c0-3,1.82-5.54,4.07-5.54s4.07,2.49,4.07,5.54-1.82,5.54-4.07,5.54S702.23,172.87,702.23,169.82Zm1,0c0,2.5,1.37,4.54,3.07,4.54s3.07-2,3.07-4.54-1.38-4.54-3.07-4.54S703.23,167.32,703.23,169.82Z"/><path class="cls-15" d="M551.23,219.44c0-4.81,2.83-8.71,6.32-8.71s6.32,3.9,6.32,8.71-2.83,8.7-6.32,8.7S551.23,224.24,551.23,219.44Zm1,0c0,4.24,2.39,7.7,5.32,7.7s5.32-3.46,5.32-7.7-2.38-7.71-5.32-7.71S552.23,215.19,552.23,219.44Z"/><path class="cls-15" d="M553.12,219.36c0-3.6,2-6.53,4.43-6.53s4.43,2.93,4.43,6.53-2,6.54-4.43,6.54S553.12,223,553.12,219.36Zm.5,0c0,3.33,1.77,6,3.93,6s3.93-2.71,3.93-6-1.76-6-3.93-6S553.62,216,553.62,219.36Z"/><rect class="cls-14" x="580.98" y="111.35" width="17.89" height="4.69" transform="translate(1179.85 227.38) rotate(-180)"/><rect class="cls-15" x="732.47" y="75.89" width="2.5" height="48.64" transform="translate(1467.44 200.42) rotate(-180)"/><rect class="cls-14" x="549.5" y="114.8" width="13.94" height="2.59" transform="translate(1002.53 468.47) rotate(-153.48)"/><rect class="cls-14" x="550.92" y="112.52" width="13.94" height="1.46" transform="translate(1006.48 463.72) rotate(-153.48)"/><rect class="cls-15" x="583.53" y="141.11" width="1.45" height="51.69" transform="translate(1168.51 333.91) rotate(-180)"/><rect class="cls-15" x="628.54" y="142.36" width="19.2" height="4.29" transform="translate(1276.29 289.01) rotate(-180)"/><rect class="cls-15" x="746.38" y="174.86" width="8.27" height="12.74" transform="translate(1501.03 362.46) rotate(-180)"/><rect class="cls-15" x="537.56" y="141.36" width="8.27" height="8.27" transform="translate(1083.4 291) rotate(-180)"/><rect class="cls-14" x="647.74" y="176.94" width="13.54" height="0.47" transform="translate(1309.03 354.35) rotate(-180)"/><rect class="cls-14" x="647.74" y="184.12" width="13.54" height="0.95" transform="translate(1309.03 369.19) rotate(-180)"/><rect class="cls-14" x="647.74" y="178.22" width="13.54" height="5.11" transform="translate(1309.03 361.54) rotate(-180)"/><rect class="cls-15" x="636.57" y="223.82" width="17.94" height="7.56" transform="translate(1291.09 455.2) rotate(-180)"/><rect class="cls-15" x="636.57" y="234.35" width="17.94" height="1.7" transform="translate(1291.09 470.39) rotate(-180)"/><rect class="cls-14" x="713.13" y="239.1" width="16.22" height="3.95" transform="translate(1480.71 279.83) rotate(164.44)"/><rect class="cls-14" x="714.71" y="244.81" width="16.22" height="3.95" transform="translate(1485.36 290.6) rotate(164.44)"/><rect class="cls-15" x="569.43" y="232.47" width="7.78" height="13.65" transform="translate(1146.63 478.58) rotate(-180)"/><rect class="cls-15" x="721.24" y="295.96" width="15.93" height="6.07" transform="translate(1458.41 598) rotate(-180)"/><rect class="cls-15" x="721.24" y="304.63" width="15.93" height="1.69" transform="translate(1458.41 610.94) rotate(-180)"/><rect class="cls-14" x="617.63" y="279.29" width="1.39" height="50.05" transform="translate(1236.64 608.64) rotate(-180)"/><rect class="cls-14" x="616.14" y="279.29" width="0.69" height="50.05" transform="translate(1232.97 608.64) rotate(-180)"/><rect class="cls-14" x="585.4" y="296.25" width="13.43" height="5.46" transform="translate(1184.23 597.97) rotate(-180)"/><rect class="cls-14" x="585.4" y="314.93" width="13.43" height="5.46" transform="translate(1184.23 635.32) rotate(-180)"/><rect class="cls-14" x="524.68" y="319.39" width="15.93" height="8.38" transform="translate(1065.29 647.15) rotate(-180)"/><rect class="cls-14" x="524.68" y="289.11" width="15.93" height="0.76" transform="translate(1065.29 578.98) rotate(-180)"/><rect class="cls-14" x="524.68" y="287.29" width="15.93" height="0.76" transform="translate(1065.29 575.35) rotate(-180)"/><g class="cls-16"><rect class="cls-4" x="514.43" y="397.62" width="249.72" height="7.85"/><polygon class="cls-4" points="533.45 124.53 519.51 124.53 519.51 90.65 519.51 89.28 519.51 87.81 519.51 80.47 519.51 79 519.51 77.64 519.51 68.47 533.45 68.47 533.45 72.84 547.4 72.84 547.4 118.3 547.4 124.53 533.45 124.53"/><rect class="cls-4" x="665.67" y="141.11" width="15.93" height="51.69"/><rect class="cls-4" x="522.78" y="211.02" width="15.93" height="50.05"/><polygon class="cls-4" points="736.98 295.96 736.98 302.04 736.98 304.63 736.98 306.31 736.98 329.35 721.06 329.35 721.06 306.31 721.06 304.63 721.06 302.04 721.06 295.96 721.06 279.29 736.98 279.29 736.98 295.96"/><rect class="cls-4" x="705.07" y="274.73" width="15.93" height="54.62"/><polygon class="cls-4" points="616.65 329.35 615.96 329.35 613.45 329.35 613.45 279.29 615.96 279.29 616.65 279.29 617.45 279.29 618.83 279.29 629.18 279.29 629.18 273.07 645.11 273.07 645.11 329.35 629.38 329.35 629.18 329.35 618.83 329.35 617.45 329.35 616.65 329.35"/><rect class="cls-4" x="540.53" y="273.07" width="21.37" height="56.27"/><polygon class="cls-4" points="540.42 287.29 540.42 288.06 540.42 289.11 540.42 289.87 540.42 319.39 540.42 327.77 540.42 329.35 524.5 329.35 524.5 327.77 524.5 319.39 524.5 289.87 524.5 289.11 524.5 288.06 524.5 287.29 524.5 279.29 540.42 279.29 540.42 287.29"/><polygon class="cls-4" points="598.65 296.25 598.65 301.72 598.65 314.93 598.65 320.39 598.65 329.35 585.22 329.35 585.22 320.39 585.22 314.93 585.22 301.72 585.22 296.25 585.22 287.67 598.65 287.67 598.65 296.25"/><rect class="cls-4" x="551.86" y="298.45" width="46.76" height="13.43" transform="translate(178.64 821.64) rotate(-80.42)"/><rect class="cls-4" x="676.2" y="285.2" width="20.46" height="44.15"/><rect class="cls-4" x="652.16" y="280.95" width="14.28" height="47.35" transform="translate(-61.97 219.51) rotate(-18.07)"/><rect class="cls-4" x="547.4" y="205.2" width="19.95" height="55.87"/><rect class="cls-4" x="621.42" y="206.65" width="14.87" height="54.42"/><polygon class="cls-4" points="654.33 223.82 654.33 231.38 654.33 234.35 654.33 236.04 654.33 261.07 636.39 261.07 636.39 236.04 636.39 234.35 636.39 231.38 636.39 223.82 636.39 218.58 654.33 218.58 654.33 223.82"/><rect class="cls-4" x="657.37" y="209.27" width="14.21" height="51.8"/><rect class="cls-4" x="734.79" y="217.43" width="10.41" height="43.64"/><polygon class="cls-4" points="718.2 261.07 704.7 212.59 704.7 261.07 688.69 261.07 688.69 211.02 704.7 211.02 704.7 212.2 720.23 207.88 728.68 238.22 729.4 240.81 729.4 240.81 730.01 243.01 730.99 246.51 730.99 246.51 733.83 256.72 718.2 261.07"/><polygon class="cls-4" points="584.8 261.07 569.24 261.07 569.24 246.11 569.24 232.47 569.24 217.51 584.8 217.51 584.8 261.07"/><rect class="cls-4" x="581.51" y="232.05" width="45.98" height="12.15" transform="translate(96.03 642.58) rotate(-60)"/><rect class="cls-4" x="558.76" y="146.65" width="10.29" height="46.15"/><polygon class="cls-4" points="556.34 192.8 537.38 192.8 537.38 149.64 537.38 141.36 537.38 137.64 556.34 137.64 556.34 192.8"/><rect class="cls-4" x="600.72" y="149.32" width="11.72" height="42.69" transform="translate(-23.55 168.99) rotate(-15.56)"/><polygon class="cls-4" points="647.56 142.36 647.56 146.65 647.56 149.64 661.1 149.64 661.1 176.94 661.1 177.41 661.1 178.22 661.1 183.32 661.1 184.12 661.1 185.07 661.1 192.8 647.56 192.8 628.36 192.8 628.36 146.65 628.36 142.36 628.36 137.64 647.56 137.64 647.56 142.36"/><polygon class="cls-4" points="743.2 147.43 733.02 192.72 713.15 188.25 713.15 192.8 699.21 192.8 687.78 192.8 687.78 135.09 699.21 135.09 699.21 147.02 713.15 147.02 713.15 187.67 723.21 142.93 743.2 147.42 743.2 138.87 757.14 138.87 757.14 192.8 743.2 192.8 743.2 147.43"/><rect class="cls-4" x="740.23" y="82.22" width="11.93" height="42.31"/><polygon class="cls-4" points="617.45 124.53 617.45 72.84 631.39 72.84 631.39 75.11 631.39 124.53 617.45 124.53"/><rect class="cls-4" x="638.06" y="72.62" width="11.54" height="51.3" transform="translate(-2.76 176.33) rotate(-15.56)"/><polygon class="cls-4" points="580.8 124.53 580.8 116.04 580.8 111.35 580.8 78.94 598.69 78.94 598.69 65.56 612.63 65.56 612.63 124.53 598.69 124.53 580.8 124.53"/><polygon class="cls-4" points="533.45 396.89 519.51 396.89 519.51 340.84 533.45 340.84 533.45 345.2 547.4 345.2 547.4 390.66 547.4 396.89 533.45 396.89"/><rect class="cls-4" x="665.67" y="413.47" width="15.93" height="51.69"/><rect class="cls-4" x="579.22" y="413.47" width="15.93" height="51.69"/><rect class="cls-4" x="522.78" y="483.38" width="15.93" height="50.05"/><rect class="cls-4" x="547.4" y="477.56" width="19.95" height="55.87"/><rect class="cls-4" x="621.42" y="479.02" width="14.87" height="54.42"/><rect class="cls-4" x="636.39" y="490.95" width="17.94" height="42.49"/><rect class="cls-4" x="657.37" y="481.64" width="14.21" height="51.8"/><rect class="cls-4" x="734.79" y="489.8" width="10.41" height="43.64"/><polygon class="cls-4" points="704.7 484.57 720.23 480.24 733.83 529.09 718.2 533.44 704.7 484.95 704.7 533.44 688.69 533.44 688.69 483.38 704.7 483.38 704.7 484.57"/><rect class="cls-4" x="569.24" y="489.87" width="15.55" height="43.57"/><rect class="cls-4" x="581.51" y="504.42" width="45.98" height="12.15" transform="translate(-139.85 778.76) rotate(-60)"/><rect class="cls-4" x="558.76" y="419.01" width="10.29" height="46.15"/><rect class="cls-4" x="537.38" y="410" width="18.96" height="55.16"/><rect class="cls-4" x="600.72" y="421.68" width="11.72" height="42.69" transform="translate(-96.62 178.97) rotate(-15.56)"/><polygon class="cls-4" points="628.36 465.16 628.36 410 647.56 410 647.56 422 661.1 422 661.1 465.16 647.56 465.16 628.36 465.16"/><polygon class="cls-4" points="699.21 419.38 713.15 419.38 713.15 460.04 723.21 415.29 743.2 419.78 733.02 465.08 713.15 460.61 713.15 465.16 699.21 465.16 687.78 465.16 687.78 407.45 699.21 407.45 699.21 419.38"/><rect class="cls-4" x="740.23" y="354.58" width="11.93" height="42.31"/><polygon class="cls-4" points="617.45 396.89 617.45 345.2 631.39 345.2 631.39 347.48 631.39 396.89 617.45 396.89"/><polygon class="cls-4" points="681.6 396.89 670.79 396.89 656.85 396.89 656.85 345.2 670.79 345.2 670.79 354.58 681.6 354.58 681.6 341.93 696.22 341.93 696.22 344.68 710.55 341.86 720.81 393.95 720.81 348.25 737.23 348.25 737.23 396.89 720.81 396.89 720.81 394.14 706.5 396.96 696.22 344.75 696.22 396.89 681.6 396.89"/><rect class="cls-4" x="638.06" y="344.99" width="11.54" height="51.3" transform="translate(-75.83 186.31) rotate(-15.56)"/><polygon class="cls-4" points="580.8 396.89 580.8 351.31 598.69 351.31 598.69 337.93 612.63 337.93 612.63 396.89 598.69 396.89 580.8 396.89"/><rect class="cls-4" x="540.71" y="365.91" width="46.7" height="13.94" transform="translate(-21.47 711.06) rotate(-63.48)"/><polygon class="cls-4" points="732.29 124.53 720.81 124.53 720.81 121.78 706.5 124.59 696.22 72.39 696.22 88.98 696.22 95.09 696.22 100.18 696.22 106.29 696.22 124.53 681.6 124.53 670.79 124.53 656.85 124.53 656.85 72.84 670.79 72.84 670.79 82.22 681.6 82.22 681.6 69.56 696.22 69.56 696.22 72.32 710.55 69.5 720.81 121.59 720.81 75.89 732.29 75.89 734.79 75.89 737.23 75.89 737.23 124.53 734.79 124.53 732.29 124.53"/><polygon class="cls-4" points="564.27 115.71 563.62 117.02 563.62 117.02 562.86 118.53 561.95 120.36 561.95 120.36 559.87 124.53 547.4 118.3 549.47 114.14 549.47 114.14 550.63 111.82 550.63 111.82 551.14 110.79 551.14 110.79 551.78 109.52 568.25 76.51 580.73 82.74 564.27 115.71 564.27 115.71"/><polygon class="cls-4" points="584.8 141.11 595.14 141.11 595.14 192.8 584.8 192.8 583.34 192.8 579.22 192.8 579.22 141.11 583.34 141.11 584.8 141.11"/></g><g class="cls-17"><path class="cls-18" d="M162.73,0H0L13,15.45H19.2L22.58,19l-1,1,9.63,8.71h0l1.06,1h-10l6.87,7.75h0l5.06,5.73v7.27S30.4,50.91,30.4,54h0V549.47H301.05V54h0c0-3.05-3.78-3.49-3.78-3.49V43.2l5.07-5.73h0l6.86-7.75h-10l1.05-1h0l9.64-8.71-1.05-1,3.37-3.58h6.19L331.45,0H162.73Z"/><path class="cls-19" d="M642.29,0H473.56l13,15.45h6.18L496.14,19l-1.05,1,9.63,8.71h0l1.06,1h-10l6.86,7.75h0l5.06,5.73v7.27S504,50.91,504,54V549.47H774.62V54c0-3.05-3.79-3.49-3.79-3.49V43.2l5.07-5.73h0l6.86-7.75h-10l1.05-1h0l9.64-8.71-1-1,3.38-3.58H792L805,0Z"/></g><g class="cls-20"><path class="cls-21" d="M162.74,0H0L13,15.45h6.18L22.59,19l-1.05,1,9.64,8.71h0l1,1h-10l6.86,7.75h0L34.2,43.2v7.27s-3.79.44-3.79,3.49h0V549.47H301.07V54h0c0-3.05-3.78-3.49-3.78-3.49V43.2l5.06-5.73h0l6.86-7.75h-10l1.06-1h0l9.63-8.71-1.05-1,3.38-3.58h6.18L331.47,0H162.74Z"/><path class="cls-21" d="M642.3,0H473.58l13,15.45h6.19L496.15,19l-1,1,9.64,8.71h0l1.05,1h-10l6.86,7.75h0l5.07,5.73v7.27S504,50.91,504,54V549.47H774.63V54c0-3.05-3.78-3.49-3.78-3.49V43.2l5.06-5.73h0l6.87-7.75h-10l1.06-1h0l9.63-8.71-1-1,3.37-3.58H792L805,0Z"/></g></g></g></svg>