<?xml version="1.0" encoding="utf-8"?>
<!-- Generator: Adobe Illustrator 24.1.1, SVG Export Plug-In . SVG Version: 6.00 Build 0)  -->
<svg version="1.1" id="Layer_1" xmlns="http://www.w3.org/2000/svg" xmlns:xlink="http://www.w3.org/1999/xlink" x="0px" y="0px"
	 viewBox="0 0 460.87 865.11" style="enable-background:new 0 0 460.87 865.11;" xml:space="preserve">
<style type="text/css">
	.st0{fill:url(#SVGID_1_);}
	.st1{opacity:0.18;fill:url(#SVGID_2_);}
	.st2{opacity:0.07;fill:url(#SVGID_3_);}
	.st3{opacity:0.1;fill:url(#SVGID_4_);}
	.st4{opacity:0.05;fill:url(#SVGID_5_);}
	.st5{opacity:0.07;fill:url(#SVGID_6_);}
	.st6{fill:url(#SVGID_7_);}
	.st7{fill:url(#SVGID_8_);}
	.st8{fill:url(#SVGID_9_);}
	.st9{fill:url(#SVGID_10_);}
</style>
<linearGradient id="SVGID_1_" gradientUnits="userSpaceOnUse" x1="230.7274" y1="365.8112" x2="228.9819" y2="76.0658">
	<stop  offset="0" style="stop-color:#A98D66"/>
	<stop  offset="1" style="stop-color:#612D32"/>
</linearGradient>
<path class="st0" d="M-0.29,302.3l135.02-38.99l11.74-4.66l39.61-9.31l43.79-22.04l4.68,2.85l-4.37-3l14.62,9.69h7.05l7.79,1.72
	l-10.18-1.72l13.05,6.44l57.79,14.91l6.99,1.86l77.83,30.5l55.38,11.78v-72.17l0.02-0.01l-0.02-1.49c-0.13-0.5,0.14-1,0-1.5
	c-9.39-35.48-24.67-65.87-42.47-91.79c-0.57-0.83-1.14-1.65-1.71-2.47c-19.52-27.81-42.36-50.38-65.23-68.47
	c-0.82-0.65-1.64-1.29-2.46-1.93c-23.61-18.35-47.11-31.97-66.89-41.73c-1.22-0.6-2.43-1.19-3.62-1.76c-0.01,0-0.01,0-0.01,0
	C249.88,5.43,230.1,0,230.1,0s-19.82,5.44-48.08,19.04c-1.19,0.58-2.4,1.16-3.62,1.77c-5.13,2.53-10.52,5.33-16.09,8.4
	c-11.72,6.45-24.27,14.13-37.07,23.17c-4.56,3.22-9.15,6.62-13.74,10.19c-0.81,0.63-1.63,1.27-2.45,1.93
	c-22.87,18.09-45.7,40.65-65.2,68.47c-0.58,0.82-1.15,1.64-1.72,2.47c-17.77,25.9-33.04,56.27-42.42,91.72c-0.14,0.5,0.13,1,0,1.5
	l-0.02,1.48l0.02,0.02V302.3z"/>
<linearGradient id="SVGID_2_" gradientUnits="userSpaceOnUse" x1="276.9145" y1="229.34" x2="455.6353" y2="229.34">
	<stop  offset="0" style="stop-color:#FFFFFF"/>
	<stop  offset="1" style="stop-color:#000000"/>
</linearGradient>
<path class="st1" d="M344.62,217.28c0,0,7.68-1.44,12.37,3.72c0,0,3.84,4.56,1.68,9.84c0,0,5.76-1.2,9.84,2.4
	c0,0,3.96,3.96,3.96,7.56c0,0,11.05-3.6,17.53,7.68H279.43c0,0,2.64-12.25,14.29-13.09c0,0,0.12-9.12,7.92-9.72
	c0,0,5.04-0.72,9,1.92c0,0-1.2-9,5.16-11.41c0,0,4.68-2.4,9.84,1.68c0,0,3.84-9.96,12.37-7.2
	C338.01,210.67,343.06,212.11,344.62,217.28z"/>
<linearGradient id="SVGID_3_" gradientUnits="userSpaceOnUse" x1="258.8565" y1="69.7465" x2="353.8761" y2="69.7465">
	<stop  offset="0" style="stop-color:#FFFFFF"/>
	<stop  offset="1" style="stop-color:#000000"/>
</linearGradient>
<path class="st2" d="M310.36,79.96c-1.6-11.82-11.93-8.44-11.93-8.44c0.18-4.58-3.47-7.57-3.47-7.57
	c-6.8-4.16-11.67,3.74-11.67,3.74c0.59-13.02-9.44-13.02-9.44-13.02c-5.7,0.24-7.84,9.03-7.84,9.03c-2.61-4.47-6.59-3.25-6.59-3.25
	c-6.23,1.69-4.45,11.57-4.45,11.57c-1.96-4.34-6.95-2.28-6.95-2.28c-4.93,2.66-4.81,8.55-4.81,8.55
	c-6.59-4.82-12.11,6.53-12.11,6.53h42.75h45.78C316.6,83.88,310.36,79.96,310.36,79.96z"/>
<linearGradient id="SVGID_4_" gradientUnits="userSpaceOnUse" x1="19.7194" y1="164.0667" x2="295.2862" y2="164.0667">
	<stop  offset="0" style="stop-color:#FFFFFF"/>
	<stop  offset="1" style="stop-color:#000000"/>
</linearGradient>
<path class="st3" d="M134.37,144.43c0,0,12.5-2.34,20.12,6.06c0,0,6.25,7.42,2.74,16.02c0,0,9.38-1.95,16.02,3.91
	c0,0,6.45,6.45,6.45,12.31c0,0,17.98-5.86,28.53,12.5H28.28c0,0,4.3-19.93,23.25-21.3c0,0,0.2-14.85,12.9-15.83
	c0,0,8.21-1.17,14.65,3.13c0,0-1.95-14.65,8.4-18.56c0,0,7.62-3.91,16.02,2.74c0,0,6.25-16.22,20.12-11.72
	C123.63,133.69,131.83,136.03,134.37,144.43z"/>
<linearGradient id="SVGID_5_" gradientUnits="userSpaceOnUse" x1="122.1576" y1="40.795" x2="221.3432" y2="40.795">
	<stop  offset="0" style="stop-color:#FFFFFF"/>
	<stop  offset="1" style="stop-color:#000000"/>
</linearGradient>
<path class="st4" d="M190.01,52.38h-64.77c12.8-9.04,25.35-16.72,37.07-23.17c0.29,0.23,0.57,0.5,0.84,0.8c0,0,3.13,3.71,1.37,8.01
	c0,0,4.69-0.98,8.01,1.96c0,0,3.22,3.22,3.22,6.15C175.75,46.13,184.74,43.2,190.01,52.38z"/>
<linearGradient id="SVGID_6_" gradientUnits="userSpaceOnUse" x1="309.9793" y1="102.8353" x2="401.2726" y2="102.8353">
	<stop  offset="0" style="stop-color:#FFFFFF"/>
	<stop  offset="1" style="stop-color:#000000"/>
</linearGradient>
<path class="st5" d="M347.96,96.33c0,0,4.14-0.78,6.67,2.01c0,0,2.07,2.46,0.91,5.31c0,0,3.11-0.65,5.31,1.29
	c0,0,2.14,2.14,2.14,4.08c0,0,5.96-1.94,9.45,4.14h-59.62c0,0,1.42-6.6,7.7-7.06c0,0,0.06-4.92,4.27-5.24c0,0,2.72-0.39,4.85,1.04
	c0,0-0.65-4.85,2.78-6.15c0,0,2.52-1.29,5.31,0.91c0,0,2.07-5.37,6.67-3.88C344.4,92.77,347.12,93.55,347.96,96.33z"/>
<linearGradient id="SVGID_7_" gradientUnits="userSpaceOnUse" x1="461.2701" y1="364.4224" x2="459.5246" y2="74.677">
	<stop  offset="0" style="stop-color:#572B2F"/>
	<stop  offset="1" style="stop-color:#1E222F"/>
</linearGradient>
<polygon class="st6" points="460.49,302.33 460.49,302.33 461.3,302.62 461.3,302.62 "/>
<linearGradient id="SVGID_8_" gradientUnits="userSpaceOnUse" x1="460.8969" y1="859.6366" x2="460.8969" y2="221.466">
	<stop  offset="0" style="stop-color:#000000"/>
	<stop  offset="0.6122" style="stop-color:#331E20"/>
	<stop  offset="0.9938" style="stop-color:#241D1D"/>
</linearGradient>
<polygon class="st7" points="460.49,302.33 460.49,302.33 461.3,302.62 461.3,302.62 "/>
<linearGradient id="SVGID_9_" gradientUnits="userSpaceOnUse" x1="460.8969" y1="892.6404" x2="460.8969" y2="165.9002">
	<stop  offset="0" style="stop-color:#000000"/>
	<stop  offset="0.6122" style="stop-color:#331E20"/>
	<stop  offset="0.9938" style="stop-color:#241D1D"/>
</linearGradient>
<polygon class="st8" points="460.49,302.33 460.49,302.33 461.3,302.62 461.3,302.62 "/>
<linearGradient id="SVGID_10_" gradientUnits="userSpaceOnUse" x1="230.0989" y1="859.6366" x2="230.0989" y2="221.466">
	<stop  offset="0.1235" style="stop-color:#1B141A"/>
	<stop  offset="0.6122" style="stop-color:#39262A"/>
	<stop  offset="0.9938" style="stop-color:#753B3E"/>
</linearGradient>
<polygon class="st9" points="394.64,278.77 230.18,219.93 229.94,219.93 210.07,227.04 209.73,227.16 206.73,228.23 206.72,228.23 
	201.35,230.16 182.67,236.84 181.3,237.33 -0.29,302.3 -0.29,865.11 230.1,865.11 460.49,865.11 460.49,302.33 "/>
<g>
	<g>
		<rect x="-0.29" y="227.16" width="460.79" height="3"/>
	</g>
	<g>
		<path d="M137.56,227.97l-2.67,1.37c-0.05-0.1-0.1-0.2-0.16-0.3c-0.32-0.63-0.65-1.26-0.99-1.88
			c-27.63-51.92-77.58-83.57-91.61-91.72c0.57-0.83,1.14-1.65,1.72-2.47c14.42,8.42,63.48,39.72,91.48,90.83
			c0.62,1.11,1.22,2.23,1.8,3.36C137.28,227.43,137.42,227.7,137.56,227.97z"/>
	</g>
	<g>
		<path d="M253.76,228.02l-0.41,0.19h-0.01l-2.29,1.08c-0.33-0.71-0.67-1.42-1.02-2.13c-0.02-0.05-0.04-0.11-0.08-0.16
			c-5.96-12.43-12.7-24.33-19.93-35.64c-0.59-0.94-1.19-1.86-1.79-2.79c-17.1-26.27-36.71-49.28-55.18-68.22
			c-0.74-0.77-1.48-1.52-2.22-2.27c-27.82-28.2-52.67-47-61.78-53.58c0.82-0.66,1.64-1.3,2.45-1.93
			c8.49,6.15,28.15,21.06,50.91,42.87c3.2,3.07,6.55,6.35,10,9.84c0.73,0.74,1.47,1.5,2.21,2.26c17.63,18.06,37.67,41.24,55.4,68.29
			c0.6,0.91,1.19,1.83,1.78,2.75c7.81,12.14,15.13,25.04,21.55,38.58C253.49,227.45,253.63,227.73,253.76,228.02z"/>
	</g>
	<g>
		<path d="M418.02,135.37c-13.89,8.06-64.04,39.75-91.73,91.79c-0.33,0.62-0.66,1.24-0.98,1.87c-0.05,0.1-0.11,0.21-0.16,0.31
			l-2.67-1.37c0.14-0.27,0.28-0.54,0.43-0.81c0.58-1.13,1.18-2.25,1.8-3.36v-0.01c28.08-51.25,77.33-82.58,91.6-90.89
			C416.88,133.72,417.45,134.54,418.02,135.37z"/>
	</g>
	<g>
		<path d="M351.08,64.43c-9.03,6.52-33.96,25.36-61.87,53.66c-0.74,0.75-1.48,1.5-2.22,2.26c-18.48,18.94-38.09,41.96-55.19,68.23
			c-0.6,0.92-1.2,1.85-1.78,2.78c-7.24,11.32-13.99,23.24-19.95,35.68c-0.03,0.04-0.05,0.08-0.06,0.12
			c-0.35,0.71-0.69,1.42-1.02,2.13l-2.26-1.06h-0.01l-0.45-0.21c0.13-0.29,0.27-0.57,0.41-0.86c6.42-13.55,13.74-26.45,21.55-38.59
			c0.59-0.92,1.19-1.83,1.79-2.74v-0.01c17.73-27.04,37.77-50.23,55.39-68.28c0.75-0.76,1.49-1.52,2.22-2.26
			c3.45-3.49,6.8-6.77,10-9.84c22.84-21.88,42.56-36.83,50.99-42.94C349.44,63.14,350.26,63.78,351.08,64.43z"/>
	</g>
	<g>
		<path d="M281.73,20.77c-18.78,7.47-35.09,17.22-49.24,28.31c-0.83,0.65-1.66,1.3-2.47,1.97c-24.65,19.92-42.55,43.85-55.4,66.49
			c-0.54,0.94-1.06,1.88-1.57,2.81c-4.3,7.78-8,15.38-11.18,22.59c-17.78,40.33-22.98,76.25-23.96,84.22
			c-0.11,0.85-0.16,1.39-0.18,1.57v636.38h-3v-636.6c0-0.04,0.05-0.5,0.15-1.35c0.1-0.79,0.24-1.92,0.45-3.36
			c1.7-11.96,7.54-45.16,23.76-81.98c3.62-8.23,7.54-16.15,11.74-23.74c0.52-0.94,1.05-1.87,1.58-2.8
			c9.22-16.21,19.76-30.87,31.49-43.8c7.4-8.16,15.29-15.63,23.64-22.4c0.82-0.67,1.64-1.33,2.48-1.97
			c14.69-11.55,30.77-20.95,48.08-28.1c0,0,0,0,0.01,0C279.3,19.58,280.51,20.17,281.73,20.77z"/>
	</g>
	<g>
		<path d="M325.31,228.51V865h-3V228.73c-0.02-0.18-0.07-0.72-0.18-1.57c-0.98-7.97-6.19-43.89-23.96-84.22
			c-3.18-7.21-6.88-14.81-11.18-22.59c-0.52-0.93-1.04-1.87-1.58-2.81c-12.84-22.64-30.74-46.57-55.39-66.49
			c-0.82-0.66-1.64-1.32-2.48-1.97c-14.12-11.07-30.4-20.8-49.14-28.27c1.22-0.61,2.43-1.19,3.62-1.77
			c17.28,7.15,33.33,16.54,48,28.07c0.83,0.65,1.65,1.31,2.47,1.97c8.35,6.77,16.24,14.24,23.64,22.4
			c11.73,12.93,22.27,27.59,31.5,43.8c0.53,0.93,1.06,1.87,1.58,2.81c4.2,7.59,8.12,15.5,11.74,23.73
			c16.21,36.82,22.06,70.02,23.76,81.98c0.21,1.44,0.35,2.57,0.45,3.36C325.26,228.01,325.31,228.47,325.31,228.51z"/>
	</g>
</g>
</svg>
