<svg xmlns="http://www.w3.org/2000/svg" xmlns:xlink="http://www.w3.org/1999/xlink" viewBox="0 0 147.02 147.02"><defs><style>.cls-1{isolation:isolate;}.cls-2{fill:#332f2f;}.cls-3{fill:#eee797;}.cls-4{fill:url(#New_Gradient_Swatch_5);}.cls-5{fill:url(#linear-gradient);}.cls-6{fill:url(#linear-gradient-2);}.cls-7{fill:url(#linear-gradient-3);}.cls-8{fill:url(#New_Gradient_Swatch_5-2);}.cls-9{fill:url(#linear-gradient-4);}.cls-10{fill:url(#New_Gradient_Swatch_5-3);}.cls-11{fill:url(#linear-gradient-5);}.cls-12{fill:url(#linear-gradient-6);}.cls-13{fill:#664868;opacity:0.3;mix-blend-mode:multiply;}.cls-14{fill:url(#linear-gradient-7);}.cls-15{fill:url(#linear-gradient-8);}.cls-16{opacity:0.23;fill:url(#New_Gradient_Swatch_5-4);}.cls-17{fill:#f2f1c2;stroke:#f2f1c2;stroke-miterlimit:10;stroke-width:0.5px;}</style><linearGradient id="New_Gradient_Swatch_5" x1="-42.28" y1="232.16" x2="191.01" y2="232.16" gradientTransform="translate(-55.15 -100.59) rotate(-14.02)" gradientUnits="userSpaceOnUse"><stop offset="0" stop-color="#fbb03b"/><stop offset="1" stop-color="#fb6659"/></linearGradient><linearGradient id="linear-gradient" x1="146.2" y1="222.62" x2="18.37" y2="250.88" xlink:href="#New_Gradient_Swatch_5"/><linearGradient id="linear-gradient-2" x1="122.55" y1="295.63" x2="91.22" y2="227.77" xlink:href="#New_Gradient_Swatch_5"/><linearGradient id="linear-gradient-3" x1="-42.28" y1="197.88" x2="170.1" y2="197.88" xlink:href="#New_Gradient_Swatch_5"/><linearGradient id="New_Gradient_Swatch_5-2" x1="-42.28" y1="199.47" x2="191.01" y2="199.47" xlink:href="#New_Gradient_Swatch_5"/><linearGradient id="linear-gradient-4" x1="18.11" y1="223.93" x2="133.72" y2="172.95" xlink:href="#New_Gradient_Swatch_5"/><linearGradient id="New_Gradient_Swatch_5-3" x1="-46.84" y1="224.43" x2="205.24" y2="224.43" xlink:href="#New_Gradient_Swatch_5"/><linearGradient id="linear-gradient-5" x1="34.59" y1="225.08" x2="150.19" y2="174.1" xlink:href="#New_Gradient_Swatch_5"/><linearGradient id="linear-gradient-6" x1="-3190.49" y1="-17" x2="-3269.85" y2="-17" gradientTransform="matrix(-0.83, 0.13, 0.14, 0.91, -2651.53, 471.47)" gradientUnits="userSpaceOnUse"><stop offset="0" stop-color="#fbb03b"/><stop offset="0.63" stop-color="#fb6659"/></linearGradient><linearGradient id="linear-gradient-7" x1="-3190.49" y1="-10.43" x2="-3269.85" y2="-10.43" gradientTransform="matrix(-0.83, 0.13, 0.14, 0.91, -2651.53, 471.47)" gradientUnits="userSpaceOnUse"><stop offset="0" stop-color="#bbfcac"/><stop offset="0.66" stop-color="#1489ed"/></linearGradient><linearGradient id="linear-gradient-8" x1="45.2" y1="239.26" x2="136.33" y2="239.7" gradientTransform="translate(-61.26 -168.27) rotate(-6.09)" xlink:href="#New_Gradient_Swatch_5"/><linearGradient id="New_Gradient_Swatch_5-4" x1="41.01" y1="9.71" x2="110.14" y2="149.28" gradientTransform="translate(-3.42 22.19) rotate(-9.41)" xlink:href="#New_Gradient_Swatch_5"/></defs><title>ai</title><g class="cls-1"><g id="Layer_1" data-name="Layer 1"><path class="cls-2" d="M32.76,35.11a82.59,82.59,0,0,1,20,3.89c1.46.61,2.88,1.16,4.27,1.66l0,0h0a68.32,68.32,0,0,0,10.05,2.79,62.81,62.81,0,0,0,6.42-5.82c.44-.53.92-1.07,1.42-1.6h0a31.58,31.58,0,0,1,9.48-6.93c8.44-3.71,27.69-5,33.32-.09A63.11,63.11,0,0,0,23.2,35.71,48.61,48.61,0,0,1,32.76,35.11Z" transform="translate(0.1 -0.25)"/><path class="cls-3" d="M66.31,57.87l0,0h0Z" transform="translate(0.1 -0.25)"/><path class="cls-2" d="M92.08,40.56A92.68,92.68,0,0,0,66.31,57.87c1.4-1.18,2.8-2.44,4.22-3.78A110.07,110.07,0,0,1,92.08,40.56Z" transform="translate(0.1 -0.25)"/><path class="cls-2" d="M88.7,135.14A63.11,63.11,0,0,0,117.79,29c-10.37-1.1-20.25,1.42-28.69,5.13A111.14,111.14,0,0,0,67.4,47.79c-1.42,1.35-2.84,2.61-4.24,3.8l0,0h0C39.48,71.71,19.44,70.34,10.55,68.24a63.15,63.15,0,0,0,78.15,66.9Z" transform="translate(0.1 -0.25)"/><path class="cls-4" d="M62.35,136.06a63.09,63.09,0,0,0,73-74.22c-10.92-1-21.32,1.69-30.23,5.61A119.63,119.63,0,0,0,81.69,82.16c-1.55,1.46-3.07,2.82-4.59,4.11l0,0h0c-25.56,21.71-47.21,20.24-56.82,18-.1,1.11-.17,2.22-.22,3.33A63.3,63.3,0,0,0,62.35,136.06Z" transform="translate(0.1 -0.25)"/><path class="cls-5" d="M105.05,67.14A120.21,120.21,0,0,0,81.61,81.86C80.06,83.31,78.54,84.68,77,86c0,0,0,0,0,0h0q-3.67,3.12-7.23,5.62c-10,13.12-27.23,29.71-46.33,20.63A63.14,63.14,0,0,0,135.25,85.91a62.69,62.69,0,0,0,0-24.38C124.35,60.56,114,63.23,105.05,67.14Z" transform="translate(0.1 -0.25)"/><path class="cls-6" d="M135.32,86.21a63.18,63.18,0,0,1-73,49.85C58.76,130.54,55,121,63,112c0,0,13.6-10.12,36.06-6.31C99,105.69,127.58,107.16,135.32,86.21Z" transform="translate(0.1 -0.25)"/><path class="cls-7" d="M78.73,78.24a109.73,109.73,0,0,1-8.9,13.68q3.56-2.51,7.24-5.62h0l0,0c1.52-1.29,3-2.65,4.59-4.11a119.63,119.63,0,0,1,23.43-14.71c8.91-3.92,19.31-6.59,30.23-5.61-.21-1.07-.44-2.14-.71-3.21a62.7,62.7,0,0,0-7.83-18.37C115.08,39.22,94.05,43.1,78.73,78.24Z" transform="translate(0.1 -0.25)"/><path class="cls-8" d="M73.62,65C52.33,89.43,27.14,93.59,13.53,93.82A62.81,62.81,0,0,0,20,107.59c0-1.12.12-2.22.22-3.33,8.69,2.06,27.22,3.46,49.58-12.34a109.73,109.73,0,0,0,8.9-13.68c15.32-35.14,36.35-39,48.08-38l-.18-.29C93.33,34.51,73.62,65,73.62,65Z" transform="translate(0.1 -0.25)"/><path class="cls-9" d="M73.62,65C52.33,89.43,27.14,93.59,13.53,93.82A62.81,62.81,0,0,0,20,107.59c0-1.12.12-2.22.22-3.33,8.69,2.06,27.22,3.46,49.58-12.34a109.73,109.73,0,0,0,8.9-13.68c15.32-35.14,36.35-39,48.08-38l-.18-.29C93.33,34.51,73.62,65,73.62,65Z" transform="translate(0.1 -0.25)"/><path class="cls-10" d="M69.83,91.92c-22.36,15.8-40.89,14.4-49.58,12.34-.1,1.11-.17,2.21-.22,3.33,1.09,1.72,2.25,3.37,3.48,5C42.61,121.64,59.87,105.05,69.83,91.92Z" transform="translate(0.1 -0.25)"/><path class="cls-11" d="M69.83,91.92c-22.36,15.8-40.89,14.4-49.58,12.34-.1,1.11-.17,2.21-.22,3.33,1.09,1.72,2.25,3.37,3.48,5C42.61,121.64,59.87,105.05,69.83,91.92Z" transform="translate(0.1 -0.25)"/><path class="cls-2" d="M19.22,52c12.35,7,29.75,1.8,29.75,1.8A66.79,66.79,0,0,0,67.15,43.47,68.32,68.32,0,0,1,57.1,40.68h0l0,0c-1.39-.5-2.81-1-4.27-1.66a82.59,82.59,0,0,0-20-3.89,48.61,48.61,0,0,0-9.56.6A62.69,62.69,0,0,0,15.88,48,17.46,17.46,0,0,0,19.22,52Z" transform="translate(0.1 -0.25)"/><path class="cls-12" d="M19.22,52c12.35,7,29.75,1.8,29.75,1.8A66.79,66.79,0,0,0,67.15,43.47,68.32,68.32,0,0,1,57.1,40.68h0l0,0c-1.39-.5-2.81-1-4.27-1.66a82.59,82.59,0,0,0-20-3.89,48.61,48.61,0,0,0-9.56.6A62.69,62.69,0,0,0,15.88,48,17.46,17.46,0,0,0,19.22,52Z" transform="translate(0.1 -0.25)"/><path class="cls-13" d="M19.22,52c12.35,7,29.75,1.8,29.75,1.8A66.79,66.79,0,0,0,67.15,43.47,68.32,68.32,0,0,1,57.1,40.68h0l0,0c-1.39-.5-2.81-1-4.27-1.66a82.59,82.59,0,0,0-20-3.89,48.61,48.61,0,0,0-9.56.6A62.69,62.69,0,0,0,15.88,48,17.46,17.46,0,0,0,19.22,52Z" transform="translate(0.1 -0.25)"/><path class="cls-2" d="M40.77,67.52l-.5-1.93A75.93,75.93,0,0,0,59,54.93q2-1.55,4.12-3.31h0l0,0c1.4-1.19,2.82-2.45,4.24-3.8A111.14,111.14,0,0,1,89.1,34.17c8.44-3.71,18.32-6.23,28.69-5.13h0c-5.63-4.91-24.88-3.62-33.32.09A31.58,31.58,0,0,0,75,36.05h0c-.5.53-1,1.07-1.42,1.6a62.81,62.81,0,0,1-6.42,5.82c1.11.21,2.19.39,3.25.54-26.23,17.58-46.77,13.57-56.08,10,.23-1.44.5-2.87.8-4.28-.54,1.3-1,2.61-1.49,3.95a62.78,62.78,0,0,0-3.08,14.52,52.15,52.15,0,0,0-.25,5.64l29.57.74Z" transform="translate(0.1 -0.25)"/><path class="cls-2" d="M19.22,52A17.46,17.46,0,0,1,15.88,48c-.27.58-.52,1.16-.76,1.75-.3,1.41-.57,2.84-.8,4.28,9.31,3.53,29.85,7.54,56.08-10-1.06-.15-2.14-.33-3.25-.54A66.79,66.79,0,0,1,49,53.76S31.57,58.93,19.22,52Z" transform="translate(0.1 -0.25)"/><path class="cls-14" d="M19.22,52A17.46,17.46,0,0,1,15.88,48c-.27.58-.52,1.16-.76,1.75-.3,1.41-.57,2.84-.8,4.28,9.31,3.53,29.85,7.54,56.08-10-1.06-.15-2.14-.33-3.25-.54A66.79,66.79,0,0,1,49,53.76S31.57,58.93,19.22,52Z" transform="translate(0.1 -0.25)"/><path class="cls-13" d="M19.22,52A17.46,17.46,0,0,1,15.88,48c-.27.58-.52,1.16-.76,1.75-.3,1.41-.57,2.84-.8,4.28,9.31,3.53,29.85,7.54,56.08-10-1.06-.15-2.14-.33-3.25-.54A66.79,66.79,0,0,1,49,53.76S31.57,58.93,19.22,52Z" transform="translate(0.1 -0.25)"/><path class="cls-15" d="M117.79,29h0c-5.28-4.6-22.53-3.76-31.62-.58h0a29.13,29.13,0,0,0-8.67,4.66h0c-2.08,1.47-8.71,7.16-8.91,7.34C53.79,51.5,42.44,55,34.14,55.15a32.42,32.42,0,0,1-10.06-1.62A19.28,19.28,0,0,1,15.88,48c-.27.58-.52,1.16-.76,1.75-.54,1.3-1,2.61-1.49,3.95a62.78,62.78,0,0,0-3.08,14.52,52.15,52.15,0,0,0-.25,5.64A63.17,63.17,0,0,0,12.19,89.2c.39,1.57.83,3.11,1.34,4.62,13.61-.23,38.8-4.39,60.09-28.85,0,0,19.71-30.46,53-25A62.47,62.47,0,0,0,117.79,29Z" transform="translate(0.1 -0.25)"/><circle class="cls-16" cx="73.51" cy="73.51" r="73.5"/><path class="cls-17" d="M69,66.28l7.3,18.81a1.81,1.81,0,0,1-1.17,2.56,2,2,0,0,1-2.76-1.16l-1.88-5.2H62.34l-1.91,5.33a1.83,1.83,0,0,1-2.59,1,1.7,1.7,0,0,1-1.14-2.4l7.3-19a2.46,2.46,0,0,1,2.5-1.92A2.49,2.49,0,0,1,69,66.28ZM65.3,73.15l-1.72,4.71h5.71L67.6,73.15c-.55-1.52-.84-2.46-1.17-3.6C66.08,70.85,65.82,71.66,65.3,73.15Z" transform="translate(0.1 -0.25)"/><path class="cls-17" d="M84.51,66.15V86c0,1.23-1,1.79-2.08,1.79s-2.08-.56-2.08-1.79V66.15c0-1.24,1-1.79,2.08-1.79S84.51,64.91,84.51,66.15Z" transform="translate(0.1 -0.25)"/></g></g></svg>