<svg xmlns="http://www.w3.org/2000/svg" xmlns:xlink="http://www.w3.org/1999/xlink" viewBox="0 0 147.02 147.02"><defs><style>.cls-1{isolation:isolate;}.cls-2{fill:#eee797;}.cls-3{fill:#332f2f;}.cls-4{fill:url(#linear-gradient);}.cls-5{fill:#664868;opacity:0.3;mix-blend-mode:multiply;}.cls-6{fill:url(#New_Gradient_Swatch_5);}.cls-7{fill:url(#linear-gradient-2);}.cls-8{fill:url(#linear-gradient-3);}.cls-9{fill:url(#linear-gradient-4);}.cls-10{fill:url(#linear-gradient-5);}.cls-11{fill:url(#New_Gradient_Swatch_5-2);}.cls-12{fill:url(#linear-gradient-6);}.cls-13{fill:url(#New_Gradient_Swatch_5-3);}.cls-14{fill:url(#linear-gradient-7);}.cls-15{fill:#ed1c24;opacity:0.24;mix-blend-mode:overlay;}.cls-16{opacity:0.23;fill:url(#linear-gradient-8);}.cls-17{fill:#f2f1c2;stroke:#f2f1c2;stroke-miterlimit:10;stroke-width:0.5px;}</style><linearGradient id="linear-gradient" x1="-1804.48" y1="-156.82" x2="-1863.33" y2="-156.82" gradientTransform="translate(1915.68 463.68) rotate(7.93)" gradientUnits="userSpaceOnUse"><stop offset="0" stop-color="#ffae98"/><stop offset="0.66" stop-color="#db5980"/></linearGradient><linearGradient id="New_Gradient_Swatch_5" x1="-1115.3" y1="-100.13" x2="-882.01" y2="-100.13" gradientTransform="matrix(-0.99, -0.14, -0.14, 0.99, -926.07, 67.95)" gradientUnits="userSpaceOnUse"><stop offset="0" stop-color="#fbb03b"/><stop offset="1" stop-color="#fb6659"/></linearGradient><linearGradient id="linear-gradient-2" x1="-926.81" y1="-109.66" x2="-1054.65" y2="-81.4" gradientTransform="matrix(-0.99, -0.14, -0.14, 0.99, -926.07, 67.95)" gradientUnits="userSpaceOnUse"><stop offset="0" stop-color="#ffae98"/><stop offset="1" stop-color="#db5980"/></linearGradient><linearGradient id="linear-gradient-3" x1="-950.47" y1="-36.66" x2="-981.8" y2="-104.52" gradientTransform="matrix(-0.99, -0.14, -0.14, 0.99, -926.07, 67.95)" gradientUnits="userSpaceOnUse"><stop offset="0" stop-color="#ffae98"/><stop offset="1" stop-color="#db597d"/></linearGradient><linearGradient id="linear-gradient-4" x1="-1115.3" y1="-134.4" x2="-902.92" y2="-134.4" xlink:href="#linear-gradient-2"/><linearGradient id="linear-gradient-5" x1="-1042.32" y1="-137.46" x2="-931.45" y2="-168.33" xlink:href="#linear-gradient-2"/><linearGradient id="New_Gradient_Swatch_5-2" x1="-1115.3" y1="-132.81" x2="-882.01" y2="-132.81" xlink:href="#New_Gradient_Swatch_5"/><linearGradient id="linear-gradient-6" x1="-1054.91" y1="-108.35" x2="-939.3" y2="-159.34" xlink:href="#linear-gradient-2"/><linearGradient id="New_Gradient_Swatch_5-3" x1="-1119.86" y1="-107.86" x2="-867.78" y2="-107.86" xlink:href="#New_Gradient_Swatch_5"/><linearGradient id="linear-gradient-7" x1="-1038.43" y1="-107.21" x2="-922.82" y2="-158.19" xlink:href="#linear-gradient-2"/><linearGradient id="linear-gradient-8" x1="-1017.04" y1="-185.4" x2="-947.9" y2="-45.83" gradientTransform="matrix(-0.99, -0.14, -0.14, 0.99, -925.76, 67.54)" gradientUnits="userSpaceOnUse"><stop offset="0" stop-color="#ff9e87"/><stop offset="1" stop-color="#e24867"/></linearGradient></defs><title>css</title><g class="cls-1"><g id="Layer_1" data-name="Layer 1"><path class="cls-2" d="M78.56,57.28l0,0h0Z" transform="translate(0.31 -0.41)"/><path class="cls-3" d="M51.1,42.81A92.93,92.93,0,0,1,78.56,57.28c-1.52-1-3-2.12-4.6-3.3A109.68,109.68,0,0,0,51.1,42.81Z" transform="translate(0.31 -0.41)"/><path class="cls-3" d="M118.45,46.38a76.88,76.88,0,0,0-17.55,3.15c-1.27.5-2.51.94-3.73,1.35h0a61.45,61.45,0,0,1-11.64,2.7q-2.2-1.34-4.45-2.86h0l0,0q-2.28-1.55-4.62-3.33a111.18,111.18,0,0,0-23-11.24c-8.78-2.79-18.88-4.24-29.07-2.06A63.11,63.11,0,0,1,130.5,47.57,44.35,44.35,0,0,0,118.45,46.38Z" transform="translate(0.31 -0.41)"/><path class="cls-3" d="M85.51,53.59a61.45,61.45,0,0,0,11.64-2.7h0c1.22-.41,2.46-.85,3.73-1.35a76.88,76.88,0,0,1,17.55-3.15,44.35,44.35,0,0,1,12,1.19,62.32,62.32,0,0,1,4.6,14.11C127,64.54,109,67.79,85.51,53.59Z" transform="translate(0.31 -0.41)"/><path class="cls-4" d="M85.51,53.59a61.45,61.45,0,0,0,11.64-2.7h0c1.22-.41,2.46-.85,3.73-1.35a76.88,76.88,0,0,1,17.55-3.15,44.35,44.35,0,0,1,12,1.19,62.32,62.32,0,0,1,4.6,14.11C127,64.54,109,67.79,85.51,53.59Z" transform="translate(0.31 -0.41)"/><path class="cls-5" d="M85.51,53.59a61.45,61.45,0,0,0,11.64-2.7h0c1.22-.41,2.46-.85,3.73-1.35a76.88,76.88,0,0,1,17.55-3.15,44.35,44.35,0,0,1,12,1.19,62.32,62.32,0,0,1,4.6,14.11C127,64.54,109,67.79,85.51,53.59Z" transform="translate(0.31 -0.41)"/><path class="cls-3" d="M64.49,136.49A63.11,63.11,0,0,1,24.31,34.07c10.19-2.18,20.29-.73,29.07,2.06a111.18,111.18,0,0,1,23,11.24Q78.74,49.16,81,50.7l0,0h0c25.65,17.47,45.42,14,54,11a63.13,63.13,0,0,1-70.61,74.81Z" transform="translate(0.31 -0.41)"/><path class="cls-6" d="M90.78,134.61A63.07,63.07,0,0,1,10.33,68.55C21.09,66.42,31.71,68,41,70.92A119.74,119.74,0,0,1,65.84,83.07c1.7,1.29,3.36,2.48,5,3.6l0,0h0c27.71,18.87,49.08,15.11,58.4,11.83.22,1.09.4,2.18.57,3.28A63.3,63.3,0,0,1,90.78,134.61Z" transform="translate(0.31 -0.41)"/><path class="cls-7" d="M41,70.61A120,120,0,0,1,65.89,82.76q2.53,1.92,5,3.6l0,0h0q4,2.72,7.79,4.83c11.3,12,30.22,26.66,48.25,15.6A63.1,63.1,0,0,1,10.37,68.24C21.13,66.11,31.75,67.67,41,70.61Z" transform="translate(0.31 -0.41)"/><path class="cls-8" d="M12.94,92.79a63.17,63.17,0,0,0,77.84,41.82c3-5.86,5.76-15.73-3.15-23.86,0,0-14.6-8.61-36.53-2.45C51.1,108.3,22.86,112.79,12.94,92.79Z" transform="translate(0.31 -0.41)"/><path class="cls-9" d="M68.37,78.86a109.17,109.17,0,0,0,10.3,12.66q-3.81-2.11-7.79-4.82h0l0,0c-1.64-1.12-3.3-2.32-5-3.6A120.06,120.06,0,0,0,41,70.92c-9.27-2.94-19.9-4.5-30.65-2.37.09-1.08.21-2.17.36-3.26a62.84,62.84,0,0,1,5.84-19.1C28.08,43.91,49.41,45.54,68.37,78.86Z" transform="translate(0.31 -0.41)"/><path class="cls-10" d="M72,65.12S49.21,36.92,16.68,45.88a62.61,62.61,0,0,1,7.63-11.81c10.2-2.18,20.29-.73,29.08,2.06a111.26,111.26,0,0,1,23,11.24Q78.74,49.16,81,50.7l0,0h0c25.65,17.47,45.42,14,54,11a63.09,63.09,0,0,1,.6,21c-.22,1.6-.5,3.17-.85,4.73C121.29,88.65,95.81,87.18,72,65.12Z" transform="translate(0.31 -0.41)"/><path class="cls-11" d="M72,65.12c23.77,22.06,49.25,23.53,62.81,22.31a63.07,63.07,0,0,1-5,14.38c-.17-1.1-.36-2.19-.57-3.28-8.42,3-26.7,6.32-50.61-7a109.17,109.17,0,0,1-10.3-12.66c-19-33.32-40.29-34.95-51.84-32.67l.15-.31C49.21,36.92,72,65.12,72,65.12Z" transform="translate(0.31 -0.41)"/><path class="cls-12" d="M72,65.12c23.77,22.06,49.25,23.53,62.81,22.31a63.07,63.07,0,0,1-5,14.38c-.17-1.1-.36-2.19-.57-3.28-8.42,3-26.7,6.32-50.61-7a109.17,109.17,0,0,1-10.3-12.66c-19-33.32-40.29-34.95-51.84-32.67l.15-.31C49.21,36.92,72,65.12,72,65.12Z" transform="translate(0.31 -0.41)"/><path class="cls-13" d="M78.67,91.52c23.91,13.33,42.19,10,50.61,7,.21,1.09.4,2.18.57,3.28q-1.35,2.75-2.93,5.31C108.89,118.18,90,103.51,78.67,91.52Z" transform="translate(0.31 -0.41)"/><path class="cls-14" d="M78.67,91.52c23.91,13.33,42.19,10,50.61,7,.21,1.09.4,2.18.57,3.28q-1.35,2.75-2.93,5.31C108.89,118.18,90,103.51,78.67,91.52Z" transform="translate(0.31 -0.41)"/><path class="cls-15" d="M27.4,117.53c.45.48.9,1,1.37,1.41h0l1.46,1.4.3.27,1.35,1.21L32,122c.51.44,1,.87,1.56,1.3l.26.21,1.41,1.09.25.19c.54.4,1.09.8,1.65,1.19l.19.13c.5.35,1,.69,1.53,1l.3.2c.58.37,1.17.73,1.77,1.09h0c.58.35,1.17.68,1.76,1l.33.18c1.21.65,2.44,1.27,3.7,1.85l.33.15c.6.28,1.2.54,1.81.79l.09,0q1,.41,2,.78l.29.11,1.8.63.24.09q1,.33,2,.63l.23.07c.61.18,1.23.34,1.85.5l.34.09c.7.18,1.4.34,2.11.5h.08l2,.4.4.07c.7.12,1.42.24,2.13.34,1.13.15,2.25.28,3.37.37l.25,0c.47,0,.94.08,1.41.1l.37,0,1.28.06h.44l1.21,0h2.11l1.18,0,.46,0,1.18-.08.45,0,1.18-.1.43-.05,1.2-.13.4-.06,1.22-.17.37-.05,1.26-.21.31-.06,1.31-.26.26,0,1.38-.3.17,0,1.49-.37.06,0A62.57,62.57,0,0,0,97,132.59l.16-.07,1.31-.55.27-.12,1.18-.54.32-.15,1.13-.55.33-.17c.37-.18.74-.37,1.1-.57l.32-.17,1.11-.61.28-.16,1.14-.67.23-.14c.41-.24.81-.5,1.22-.75l.12-.08a63,63,0,0,0,26.72-36v0c.54-1.92,1-3.88,1.36-5.88,0-.15.05-.3.08-.44.12-.72.24-1.44.34-2.16a63.1,63.1,0,0,0-.6-21,62.32,62.32,0,0,0-4.6-14.11,44.35,44.35,0,0,0-12-1.19,77.52,77.52,0,0,0-17.55,3.15c-1.27.5-2.51,1-3.73,1.35h0a60.69,60.69,0,0,1-11.64,2.7c-1.46-.88-3-1.83-4.45-2.86h0l0,0c-1.52-1-3.06-2.14-4.62-3.33a110.91,110.91,0,0,0-23-11.25c-1.91-.6-3.88-1.14-5.9-1.6a61,61,0,0,0-9.95-1.42,49.17,49.17,0,0,0-13.22,1h0c-.42.51-.83,1-1.24,1.56l-.26.35c-.31.41-.61.82-.91,1.24l-.33.46c-.28.39-.55.79-.81,1.18l-.33.49c-.27.41-.53.83-.79,1.24l-.29.45c-.31.52-.62,1-.92,1.57-.08.13-.15.26-.22.39-.26.46-.52.93-.77,1.4s-.34.65-.5,1c-.09.17-.18.33-.26.5l-.15.3h0q-1.07,2.16-2,4.41c-.07.17-.13.34-.19.51-.22.54-.42,1.1-.62,1.65l-.29.83c-.15.46-.31.93-.45,1.39s-.19.62-.28.93-.27.9-.39,1.36-.17.62-.25.94-.24.94-.35,1.42l-.21.9c-.11.53-.22,1.07-.32,1.61-.05.25-.1.49-.14.74-.14.8-.27,1.59-.39,2.4a63.42,63.42,0,0,0-.39,13.94c0,.08,0,.16,0,.24,0,.37.07.75.11,1.12,0,.15,0,.29,0,.43l.12,1c0,.19.05.37.07.56s.09.58.13.87.07.45.1.67.09.53.14.79.08.49.13.73.09.49.14.74.11.51.16.77.1.47.16.71.11.52.18.78.11.47.17.7.13.52.2.77.13.48.19.72l.21.74c.07.25.15.5.23.75s.09.32.14.48a.88.88,0,0,1,.05.15c.2.64.41,1.26.63,1.89l.09.26c.2.55.4,1.09.61,1.62,0,.15.11.3.17.45.24.62.49,1.23.76,1.83l0,0c.25.59.52,1.17.79,1.75l.21.45c.26.54.53,1.08.8,1.61a1.19,1.19,0,0,1,.08.16c.3.58.62,1.16.94,1.73.07.14.15.27.23.41l.84,1.44.18.29c.34.56.69,1.11,1.05,1.66l.23.34c.3.46.61.91.93,1.36l.23.34c.38.54.77,1.06,1.17,1.59l.18.23,1.06,1.35c.1.11.19.23.28.34.43.52.85,1,1.29,1.52l0,.05c.42.48.86.95,1.29,1.42C27.19,117.32,27.29,117.43,27.4,117.53ZM87.84,55.08c.43.25.86.48,1.29.71C88.7,55.56,88.27,55.33,87.84,55.08Zm2.21,1.21,1.26.64Zm2.18,1.11,1.23.58Zm2.14,1c.4.19.8.36,1.2.54C95.17,58.76,94.77,58.59,94.37,58.4Zm4.16,1.74,1.16.44Zm4,1.39,1.13.35Zm1.94.58,1.11.3Zm1.88.49,1.11.27Zm1.83.43,1.11.23Zm1.78.35,1.12.2Zm6.13.79,1,0Zm-4.46-.51c1.46.22,2.87.38,4.23.49C114.49,64,113.08,63.88,111.62,63.66Zm9.14.63.81,0Zm1.47-.05.76,0Zm1.41-.08.72-.06ZM125,64l.68-.07Zm1.31-.15.64-.09ZM131,63l.49-.11Zm-1.09.25.53-.11Zm-1.15.23.57-.11Zm-1.2.21.61-.1Zm-42-9.93c.45.27.89.53,1.34.78C86.48,54.3,86,54,85.59,53.77Zm12.06,6-1.18-.48Zm4,1.47-1.14-.39Zm16.92,3-.92,0Zm1.5,0h0Zm14.18-2.21-.29.09Zm-1.81.55-.43.11Zm.93-.28-.37.11Z" transform="translate(0.31 -0.41)"/><circle class="cls-16" cx="73.51" cy="73.51" r="73.5"/><path class="cls-17" d="M60.62,64.21A1.81,1.81,0,0,1,61,66.87a1.79,1.79,0,0,1-2.47.59,8.39,8.39,0,0,0-4.73-1.17c-3.57,0-5.62,2.14-5.62,7.72v.68c0,5.42,1.85,7.69,5.65,7.69a8.72,8.72,0,0,0,5.19-1.49,1.77,1.77,0,0,1,2.56.45,2,2,0,0,1-.48,2.85,12.53,12.53,0,0,1-7.37,2C47.67,86.24,44,82.9,44,75V73.68c0-7.88,3.63-11.22,9.89-11.22A11.58,11.58,0,0,1,60.62,64.21Z" transform="translate(0.31 -0.41)"/><path class="cls-17" d="M79.92,63.66a1.76,1.76,0,0,1,.72,2.5,1.68,1.68,0,0,1-2.31.81,9.6,9.6,0,0,0-4.21-.81c-2.83,0-4.32,1.46-4.32,2.82v.19c0,1.63.91,2.37,4.87,3.18,5.41,1.11,7.56,3.28,7.56,6.75v.29c0,4.42-3,6.85-8.6,6.85a14.32,14.32,0,0,1-7.11-1.82A1.83,1.83,0,0,1,66,81.73a1.72,1.72,0,0,1,2.49-.62,10.73,10.73,0,0,0,5.32,1.4c3,0,4.25-1.2,4.25-2.79v-.23c0-1.82-1.33-2.72-4.44-3.34-5.45-1.07-7.95-2.56-7.95-6.88V69c0-3.63,2.92-6.58,8.37-6.58A12.79,12.79,0,0,1,79.92,63.66Z" transform="translate(0.31 -0.41)"/><path class="cls-17" d="M100.23,63.66a1.76,1.76,0,0,1,.72,2.5,1.68,1.68,0,0,1-2.31.81,9.57,9.57,0,0,0-4.21-.81c-2.82,0-4.32,1.46-4.32,2.82v.19c0,1.63.91,2.37,4.87,3.18,5.42,1.11,7.56,3.28,7.56,6.75v.29c0,4.42-3,6.85-8.6,6.85a14.28,14.28,0,0,1-7.1-1.82,1.83,1.83,0,0,1-.52-2.69,1.73,1.73,0,0,1,2.5-.62,10.68,10.68,0,0,0,5.32,1.4c3,0,4.24-1.2,4.24-2.79v-.23c0-1.82-1.33-2.72-4.44-3.34-5.45-1.07-8-2.56-8-6.88V69c0-3.63,2.92-6.58,8.37-6.58A12.79,12.79,0,0,1,100.23,63.66Z" transform="translate(0.31 -0.41)"/></g></g></svg>