<svg xmlns="http://www.w3.org/2000/svg" xmlns:xlink="http://www.w3.org/1999/xlink" viewBox="0 0 147.02 147.02"><defs><style>.cls-1{isolation:isolate;}.cls-2{fill:#eee797;}.cls-3{fill:#332f2f;}.cls-4{fill:url(#linear-gradient);}.cls-5{fill:#664868;opacity:0.3;mix-blend-mode:multiply;}.cls-6{fill:url(#New_Gradient_Swatch_5);}.cls-7{fill:url(#linear-gradient-2);}.cls-8{fill:url(#linear-gradient-3);}.cls-9{fill:url(#linear-gradient-4);}.cls-10{fill:url(#linear-gradient-5);}.cls-11{fill:url(#New_Gradient_Swatch_5-2);}.cls-12{fill:url(#linear-gradient-6);}.cls-13{fill:url(#New_Gradient_Swatch_5-3);}.cls-14{fill:url(#linear-gradient-7);}.cls-15{opacity:0.23;fill:url(#linear-gradient-8);}.cls-16{fill:#f2f1c2;stroke:#f2f1c2;stroke-miterlimit:10;stroke-width:0.5px;}</style><linearGradient id="linear-gradient" x1="-2867.96" y1="-7.76" x2="-2926.8" y2="-7.76" gradientTransform="matrix(-0.99, 0.14, 0.14, 0.99, -2842.85, 463.68)" gradientUnits="userSpaceOnUse"><stop offset="0" stop-color="#98bbef"/><stop offset="0.68" stop-color="#932df5"/></linearGradient><linearGradient id="New_Gradient_Swatch_5" x1="-51.82" y1="48.93" x2="181.47" y2="48.93" gradientTransform="translate(-1.1 67.95) rotate(-7.93)" gradientUnits="userSpaceOnUse"><stop offset="0" stop-color="#fbb03b"/><stop offset="1" stop-color="#fb6659"/></linearGradient><linearGradient id="linear-gradient-2" x1="136.66" y1="39.39" x2="8.83" y2="67.65" gradientTransform="translate(-1.1 67.95) rotate(-7.93)" gradientUnits="userSpaceOnUse"><stop offset="0" stop-color="#98bbef"/><stop offset="1" stop-color="#932df5"/></linearGradient><linearGradient id="linear-gradient-3" x1="113.01" y1="112.4" x2="81.68" y2="44.54" xlink:href="#linear-gradient-2"/><linearGradient id="linear-gradient-4" x1="-51.82" y1="14.65" x2="160.56" y2="14.65" xlink:href="#linear-gradient-2"/><linearGradient id="linear-gradient-5" x1="21.15" y1="11.6" x2="132.02" y2="-19.27" xlink:href="#linear-gradient-2"/><linearGradient id="New_Gradient_Swatch_5-2" x1="-51.82" y1="16.24" x2="181.47" y2="16.24" xlink:href="#New_Gradient_Swatch_5"/><linearGradient id="linear-gradient-6" x1="8.56" y1="40.7" x2="124.17" y2="-10.28" xlink:href="#linear-gradient-2"/><linearGradient id="New_Gradient_Swatch_5-3" x1="-56.38" y1="41.2" x2="195.7" y2="41.2" xlink:href="#New_Gradient_Swatch_5"/><linearGradient id="linear-gradient-7" x1="25.04" y1="41.85" x2="140.65" y2="-9.13" gradientTransform="translate(-1.1 67.95) rotate(-7.93)" gradientUnits="userSpaceOnUse"><stop offset="0" stop-color="#9796f1"/><stop offset="1" stop-color="#932df5"/></linearGradient><linearGradient id="linear-gradient-8" x1="46.57" y1="-37.29" x2="115.7" y2="102.28" gradientTransform="translate(-1.09 67.54) rotate(-7.93)" xlink:href="#linear-gradient-2"/></defs><title>html</title><g class="cls-1"><g id="Layer_1" data-name="Layer 1"><path class="cls-2" d="M68.14,58.24l0,0h0Z" transform="translate(0.01 -0.41)"/><path class="cls-3" d="M95.6,43.76A92.83,92.83,0,0,0,68.14,58.24q2.28-1.55,4.6-3.31A110.26,110.26,0,0,1,95.6,43.76Z" transform="translate(0.01 -0.41)"/><path class="cls-3" d="M28.25,47.33A77.52,77.52,0,0,1,45.8,50.48c1.27.5,2.51,1,3.73,1.35h0a60.69,60.69,0,0,0,11.64,2.7c1.47-.89,3-1.83,4.45-2.86h0l0,0c1.52-1,3.06-2.14,4.62-3.33a110.91,110.91,0,0,1,23-11.25c8.78-2.79,18.88-4.24,29.07-2A63.11,63.11,0,0,0,16.2,48.52,44.35,44.35,0,0,1,28.25,47.33Z" transform="translate(0.01 -0.41)"/><path class="cls-3" d="M61.19,54.54a60.69,60.69,0,0,1-11.64-2.7h0c-1.22-.4-2.46-.85-3.73-1.35a77.52,77.52,0,0,0-17.55-3.15,44.35,44.35,0,0,0-12,1.19,62.32,62.32,0,0,0-4.6,14.11C19.71,65.49,37.71,68.74,61.19,54.54Z" transform="translate(0.01 -0.41)"/><path class="cls-4" d="M61.19,54.54a60.69,60.69,0,0,1-11.64-2.7h0c-1.22-.4-2.46-.85-3.73-1.35a77.52,77.52,0,0,0-17.55-3.15,44.35,44.35,0,0,0-12,1.19,62.32,62.32,0,0,0-4.6,14.11C19.71,65.49,37.71,68.74,61.19,54.54Z" transform="translate(0.01 -0.41)"/><path class="cls-5" d="M61.19,54.54a60.69,60.69,0,0,1-11.64-2.7h0c-1.22-.4-2.46-.85-3.73-1.35a77.52,77.52,0,0,0-17.55-3.15,44.35,44.35,0,0,0-12,1.19,62.32,62.32,0,0,0-4.6,14.11C19.71,65.49,37.71,68.74,61.19,54.54Z" transform="translate(0.01 -0.41)"/><path class="cls-3" d="M82.21,137.44A63.1,63.1,0,0,0,122.39,35c-10.19-2.19-20.29-.74-29.07,2a110.91,110.91,0,0,0-23,11.25c-1.56,1.19-3.1,2.29-4.62,3.33l0,0h0c-25.65,17.47-45.42,14-54,11a63.13,63.13,0,0,0,70.61,74.81Z" transform="translate(0.01 -0.41)"/><path class="cls-6" d="M55.92,135.56A63.07,63.07,0,0,0,136.37,69.5c-10.76-2.13-21.38-.57-30.65,2.37A119.74,119.74,0,0,0,80.86,84c-1.7,1.29-3.36,2.48-5,3.6l0,0h0c-27.71,18.88-49.08,15.11-58.4,11.83-.22,1.09-.4,2.18-.57,3.29A63.32,63.32,0,0,0,55.92,135.56Z" transform="translate(0.01 -0.41)"/><path class="cls-7" d="M105.68,71.56A120,120,0,0,0,80.81,83.71c-1.69,1.29-3.35,2.48-5,3.6l0,0h0q-4,2.72-7.79,4.82c-11.3,12-30.22,26.66-48.25,15.6A63.1,63.1,0,0,0,136.33,69.19C125.57,67.06,115,68.62,105.68,71.56Z" transform="translate(0.01 -0.41)"/><path class="cls-8" d="M133.76,93.74a63.17,63.17,0,0,1-77.84,41.82c-3-5.86-5.76-15.73,3.15-23.85,0,0,14.6-8.62,36.53-2.45C95.6,109.26,123.84,113.74,133.76,93.74Z" transform="translate(0.01 -0.41)"/><path class="cls-9" d="M78.33,79.81A108.19,108.19,0,0,1,68,92.47q3.81-2.11,7.79-4.82h0l0,0c1.64-1.12,3.3-2.31,5-3.6a119.75,119.75,0,0,1,24.86-12.14c9.27-2.95,19.9-4.51,30.65-2.38-.09-1.08-.21-2.17-.36-3.26a62.84,62.84,0,0,0-5.84-19.1C118.62,44.86,97.29,46.49,78.33,79.81Z" transform="translate(0.01 -0.41)"/><path class="cls-10" d="M74.66,66.07S97.49,37.88,130,46.84A62,62,0,0,0,122.39,35c-10.2-2.19-20.29-.74-29.08,2a111,111,0,0,0-23,11.25c-1.56,1.19-3.1,2.29-4.62,3.33l0,0h0c-25.65,17.47-45.42,14-54,11a63.09,63.09,0,0,0-.6,21c.22,1.6.5,3.18.85,4.73C25.41,89.6,50.89,88.13,74.66,66.07Z" transform="translate(0.01 -0.41)"/><path class="cls-11" d="M74.66,66.07C50.89,88.13,25.41,89.6,11.85,88.38a63.15,63.15,0,0,0,5,14.39c.17-1.11.36-2.2.57-3.29,8.42,3,26.7,6.33,50.61-7a108.19,108.19,0,0,0,10.3-12.66c19-33.32,40.29-34.95,51.84-32.67q-.07-.16-.15-.3C97.49,37.88,74.66,66.07,74.66,66.07Z" transform="translate(0.01 -0.41)"/><path class="cls-12" d="M74.66,66.07C50.89,88.13,25.41,89.6,11.85,88.38a63.15,63.15,0,0,0,5,14.39c.17-1.11.36-2.2.57-3.29,8.42,3,26.7,6.33,50.61-7a108.19,108.19,0,0,0,10.3-12.66c19-33.32,40.29-34.95,51.84-32.67q-.07-.16-.15-.3C97.49,37.88,74.66,66.07,74.66,66.07Z" transform="translate(0.01 -0.41)"/><path class="cls-13" d="M68,92.47c-23.91,13.34-42.19,10-50.61,7-.21,1.09-.4,2.18-.57,3.29q1.35,2.73,2.93,5.3C37.81,119.13,56.74,104.47,68,92.47Z" transform="translate(0.01 -0.41)"/><path class="cls-14" d="M68,92.47c-23.91,13.34-42.19,10-50.61,7-.21,1.09-.4,2.18-.57,3.29q1.35,2.73,2.93,5.3C37.81,119.13,56.74,104.47,68,92.47Z" transform="translate(0.01 -0.41)"/><circle class="cls-15" cx="73.51" cy="73.51" r="73.5"/><path class="cls-16" d="M36.5,64.41v7.72h9.7V64.41c0-1.24,1-1.79,2.08-1.79s2.07.55,2.07,1.79V84.29c0,1.23-1,1.79-2.07,1.79s-2.08-.56-2.08-1.79V75.56H36.5v8.73c0,1.23-1,1.79-2.08,1.79s-2.07-.56-2.07-1.79V64.41c0-1.24,1-1.79,2.07-1.79S36.5,63.17,36.5,64.41Z" transform="translate(0.01 -0.41)"/><path class="cls-16" d="M69.92,62.82c1,0,1.46.81,1.46,1.75s-.46,1.75-1.46,1.75H64.34v18c0,1.23-1,1.79-2.08,1.79s-2.07-.56-2.07-1.79v-18H54.57c-1,0-1.46-.81-1.46-1.75s.46-1.75,1.46-1.75Z" transform="translate(0.01 -0.41)"/><path class="cls-16" d="M77.58,62.75c1.91,0,2.59.39,3.76,3.31l4.45,11.09L90,66.09c1.07-2.82,1.88-3.34,3.79-3.34h.68c2.08,0,2.76.65,2.76,2.69v19c0,1.17-.91,1.69-2,1.69a1.73,1.73,0,0,1-2-1.69v-18a23.14,23.14,0,0,1-1.07,3.51L88,80.43c-.55,1.36-1.1,1.72-2.2,1.72-1.33,0-1.89-.39-2.44-1.82L79.17,69.89A30.39,30.39,0,0,1,78,66.38v18c0,1.17-.94,1.69-2,1.69a1.71,1.71,0,0,1-1.91-1.69v-19c0-2,.68-2.69,2.76-2.69Z" transform="translate(0.01 -0.41)"/><path class="cls-16" d="M106.68,64.41v18h9.41c1,0,1.46.81,1.46,1.75s-.45,1.75-1.46,1.75h-10.8c-2.08,0-2.76-.65-2.76-2.69V64.41c0-1.24,1-1.79,2.08-1.79S106.68,63.17,106.68,64.41Z" transform="translate(0.01 -0.41)"/></g></g></svg>