<svg xmlns="http://www.w3.org/2000/svg" xmlns:xlink="http://www.w3.org/1999/xlink" viewBox="0 0 147.02 147.02"><defs><style>.cls-1{isolation:isolate;}.cls-2{fill:#eee797;}.cls-3{fill:#332f2f;}.cls-4{fill:url(#linear-gradient);}.cls-5{fill:#664868;opacity:0.3;mix-blend-mode:multiply;}.cls-6{fill:url(#New_Gradient_Swatch_5);}.cls-7{fill:url(#linear-gradient-2);}.cls-8{fill:url(#linear-gradient-3);}.cls-9{fill:url(#linear-gradient-4);}.cls-10{fill:url(#linear-gradient-5);}.cls-11{fill:url(#New_Gradient_Swatch_5-2);}.cls-12{fill:url(#linear-gradient-6);}.cls-13{fill:url(#New_Gradient_Swatch_5-3);}.cls-14{fill:url(#linear-gradient-7);}.cls-15{fill:#39b54a;mix-blend-mode:overlay;}.cls-16{opacity:0.23;fill:url(#linear-gradient-8);}.cls-17{fill:#f2f1c2;stroke:#f2f1c2;stroke-miterlimit:10;stroke-width:0.5px;}</style><linearGradient id="linear-gradient" x1="-1804.6" y1="-156.55" x2="-1863.45" y2="-156.55" gradientTransform="translate(1915.68 463.68) rotate(7.93)" gradientUnits="userSpaceOnUse"><stop offset="0" stop-color="#ffae98"/><stop offset="0.66" stop-color="#db5980"/></linearGradient><linearGradient id="New_Gradient_Swatch_5" x1="-1115.18" y1="-99.87" x2="-881.89" y2="-99.87" gradientTransform="matrix(-0.99, -0.14, -0.14, 0.99, -926.07, 67.95)" gradientUnits="userSpaceOnUse"><stop offset="0" stop-color="#fbb03b"/><stop offset="1" stop-color="#fb6659"/></linearGradient><linearGradient id="linear-gradient-2" x1="-926.69" y1="-109.4" x2="-1054.53" y2="-81.14" gradientTransform="matrix(-0.99, -0.14, -0.14, 0.99, -926.07, 67.95)" gradientUnits="userSpaceOnUse"><stop offset="0" stop-color="#ffae98"/><stop offset="1" stop-color="#db5980"/></linearGradient><linearGradient id="linear-gradient-3" x1="-950.35" y1="-36.4" x2="-981.68" y2="-104.26" gradientTransform="matrix(-0.99, -0.14, -0.14, 0.99, -926.07, 67.95)" gradientUnits="userSpaceOnUse"><stop offset="0" stop-color="#ffae98"/><stop offset="1" stop-color="#db597d"/></linearGradient><linearGradient id="linear-gradient-4" x1="-1115.18" y1="-134.14" x2="-902.8" y2="-134.14" xlink:href="#linear-gradient-2"/><linearGradient id="linear-gradient-5" x1="-1042.2" y1="-137.19" x2="-931.33" y2="-168.07" xlink:href="#linear-gradient-2"/><linearGradient id="New_Gradient_Swatch_5-2" x1="-1115.18" y1="-132.55" x2="-881.89" y2="-132.55" xlink:href="#New_Gradient_Swatch_5"/><linearGradient id="linear-gradient-6" x1="-1054.79" y1="-108.09" x2="-939.18" y2="-159.08" xlink:href="#linear-gradient-2"/><linearGradient id="New_Gradient_Swatch_5-3" x1="-1119.74" y1="-107.6" x2="-867.66" y2="-107.6" xlink:href="#New_Gradient_Swatch_5"/><linearGradient id="linear-gradient-7" x1="-1038.31" y1="-106.95" x2="-922.7" y2="-157.93" xlink:href="#linear-gradient-2"/><linearGradient id="linear-gradient-8" x1="-1016.79" y1="-186.09" x2="-947.65" y2="-46.52" gradientTransform="matrix(-0.99, -0.14, -0.14, 0.99, -925.6, 68.25)" gradientUnits="userSpaceOnUse"><stop offset="0" stop-color="#fcce6c"/><stop offset="1" stop-color="#c87e48"/></linearGradient></defs><title>jq</title><g class="cls-1"><g id="Layer_1" data-name="Layer 1"><path class="cls-2" d="M78.4,57.53l0,0h0Z" transform="translate(0.47 0.3)"/><path class="cls-3" d="M51,43.05A92.71,92.71,0,0,1,78.4,57.53Q76.13,56,73.81,54.22A110.26,110.26,0,0,0,51,43.05Z" transform="translate(0.47 0.3)"/><path class="cls-3" d="M118.3,46.62a77.37,77.37,0,0,0-17.55,3.15c-1.27.5-2.51.95-3.73,1.35h0a60.52,60.52,0,0,1-11.64,2.7C83.89,52.94,82.41,52,80.9,51h0l0,0c-1.52-1-3.06-2.14-4.63-3.33a110.67,110.67,0,0,0-23-11.25c-8.79-2.79-18.88-4.24-29.08-2a63.11,63.11,0,0,1,106.2,13.49A44.35,44.35,0,0,0,118.3,46.62Z" transform="translate(0.47 0.3)"/><path class="cls-3" d="M85.35,53.83A60.52,60.52,0,0,0,97,51.13h0c1.22-.4,2.46-.85,3.73-1.35a77.37,77.37,0,0,1,17.55-3.15,44.35,44.35,0,0,1,12,1.19A62.82,62.82,0,0,1,135,61.92C126.83,64.78,108.83,68,85.35,53.83Z" transform="translate(0.47 0.3)"/><path class="cls-4" d="M85.35,53.83A60.52,60.52,0,0,0,97,51.13h0c1.22-.4,2.46-.85,3.73-1.35a77.37,77.37,0,0,1,17.55-3.15,44.35,44.35,0,0,1,12,1.19A62.82,62.82,0,0,1,135,61.92C126.83,64.78,108.83,68,85.35,53.83Z" transform="translate(0.47 0.3)"/><path class="cls-5" d="M85.35,53.83A60.52,60.52,0,0,0,97,51.13h0c1.22-.4,2.46-.85,3.73-1.35a77.37,77.37,0,0,1,17.55-3.15,44.35,44.35,0,0,1,12,1.19A62.82,62.82,0,0,1,135,61.92C126.83,64.78,108.83,68,85.35,53.83Z" transform="translate(0.47 0.3)"/><path class="cls-3" d="M64.34,136.73A63.12,63.12,0,0,1,24.15,34.32c10.2-2.19,20.29-.74,29.08,2a110.67,110.67,0,0,1,23,11.25c1.57,1.19,3.11,2.29,4.63,3.33l0,0h0c25.65,17.47,45.43,14,54,11a63.13,63.13,0,0,1-70.61,74.81Z" transform="translate(0.47 0.3)"/><path class="cls-6" d="M90.63,134.85A63.1,63.1,0,0,1,10.17,68.79c10.76-2.13,21.38-.57,30.65,2.37A120,120,0,0,1,65.69,83.31c1.69,1.29,3.35,2.48,5,3.6l0,0h0c27.72,18.88,49.09,15.11,58.4,11.83.22,1.09.41,2.18.57,3.29A63.28,63.28,0,0,1,90.63,134.85Z" transform="translate(0.47 0.3)"/><path class="cls-7" d="M40.87,70.85A120.06,120.06,0,0,1,65.73,83c1.69,1.28,3.35,2.48,5,3.6l0,0h0q4,2.7,7.78,4.82c11.3,12,30.23,26.66,48.25,15.6a63.12,63.12,0,0,1-114-14.33,62.61,62.61,0,0,1-2.61-24.24C21,66.35,31.6,67.91,40.87,70.85Z" transform="translate(0.47 0.3)"/><path class="cls-8" d="M12.79,93a63.17,63.17,0,0,0,77.84,41.82c3-5.86,5.76-15.73-3.15-23.85,0,0-14.6-8.62-36.53-2.45C51,108.55,22.71,113,12.79,93Z" transform="translate(0.47 0.3)"/><path class="cls-9" d="M68.22,79.1A108.66,108.66,0,0,0,78.51,91.76q-3.8-2.12-7.79-4.82h0l0,0c-1.65-1.12-3.31-2.31-5-3.6A119.75,119.75,0,0,0,40.83,71.17c-9.28-3-19.9-4.51-30.65-2.38.09-1.08.21-2.17.36-3.26a62.84,62.84,0,0,1,5.84-19.1C27.93,44.15,49.25,45.78,68.22,79.1Z" transform="translate(0.47 0.3)"/><path class="cls-10" d="M71.89,65.36S49.06,37.17,16.53,46.13a61.93,61.93,0,0,1,7.62-11.81c10.2-2.19,20.3-.74,29.08,2a111,111,0,0,1,23,11.25c1.57,1.19,3.1,2.29,4.62,3.33l0,0h0c25.65,17.47,45.43,14,54,11a62.83,62.83,0,0,1,.59,21c-.22,1.6-.5,3.18-.84,4.73C121.14,88.89,95.65,87.42,71.89,65.36Z" transform="translate(0.47 0.3)"/><path class="cls-11" d="M71.89,65.36c23.76,22.06,49.25,23.53,62.81,22.31a62.69,62.69,0,0,1-5,14.39c-.16-1.11-.35-2.2-.57-3.29-8.42,3-26.69,6.33-50.61-7A108.66,108.66,0,0,1,68.22,79.1c-19-33.32-40.29-34.95-51.84-32.67a1.4,1.4,0,0,1,.15-.3C49.06,37.17,71.89,65.36,71.89,65.36Z" transform="translate(0.47 0.3)"/><path class="cls-12" d="M71.89,65.36c23.76,22.06,49.25,23.53,62.81,22.31a62.69,62.69,0,0,1-5,14.39c-.16-1.11-.35-2.2-.57-3.29-8.42,3-26.69,6.33-50.61-7A108.66,108.66,0,0,1,68.22,79.1c-19-33.32-40.29-34.95-51.84-32.67a1.4,1.4,0,0,1,.15-.3C49.06,37.17,71.89,65.36,71.89,65.36Z" transform="translate(0.47 0.3)"/><path class="cls-13" d="M78.51,91.76c23.92,13.34,42.19,10,50.61,7,.22,1.09.41,2.18.57,3.29a60.56,60.56,0,0,1-2.93,5.3C108.73,118.42,89.81,103.76,78.51,91.76Z" transform="translate(0.47 0.3)"/><path class="cls-14" d="M78.51,91.76c23.92,13.34,42.19,10,50.61,7,.22,1.09.41,2.18.57,3.29a60.56,60.56,0,0,1-2.93,5.3C108.73,118.42,89.81,103.76,78.51,91.76Z" transform="translate(0.47 0.3)"/><path class="cls-15" d="M27.24,117.77c.45.48.91,1,1.37,1.42h0c.48.47,1,.94,1.46,1.4l.3.28c.44.4.89.81,1.35,1.2l.16.14c.51.44,1,.87,1.55,1.3l.27.21c.46.37.93.73,1.41,1.09l.24.19c.55.4,1.1.8,1.66,1.19l.18.13c.51.35,1,.69,1.54,1l.3.2c.58.37,1.17.74,1.76,1.09h0c.58.35,1.17.68,1.76,1l.32.18c1.21.66,2.45,1.28,3.7,1.86l.33.14c.6.28,1.21.54,1.82.8l.09,0c.65.27,1.31.52,2,.77l.3.11,1.79.64.25.08c.67.22,1.35.43,2,.63l.24.07c.61.18,1.23.35,1.85.51l.34.08c.7.18,1.4.34,2.11.5h.07c.67.15,1.34.28,2,.4l.4.07c.71.12,1.42.24,2.14.34,1.13.15,2.25.28,3.37.38H68c.48,0,1,.08,1.42.1l.37,0c.42,0,.85.05,1.28.06h.43l1.22,0h2.11l1.18,0,.46,0,1.17-.07.45,0,1.18-.1.43-.05,1.2-.13.4-.05,1.23-.18.36-.05,1.26-.21.32-.06,1.31-.25.25-.06c.47-.09.93-.2,1.39-.3l.17,0,1.48-.37.06,0a62.71,62.71,0,0,0,7.74-2.58l.15-.06,1.31-.56.27-.12,1.19-.54.32-.15,1.12-.55.33-.17,1.11-.57.31-.17,1.11-.61.29-.16,1.14-.67.22-.13c.41-.25.82-.5,1.22-.76l.12-.08a63,63,0,0,0,26.73-36v0q.81-2.88,1.35-5.88c0-.15.06-.29.08-.44.13-.72.24-1.44.35-2.16a62.81,62.81,0,0,0-5.2-35.13,44.35,44.35,0,0,0-12-1.19,77.37,77.37,0,0,0-17.55,3.15c-1.27.5-2.51,1-3.73,1.35l0,0h0A59.86,59.86,0,0,1,85.36,54c-1.47-.88-3-1.83-4.46-2.86h0l0,0c-1.52-1-3.06-2.14-4.63-3.33a110.36,110.36,0,0,0-23-11.24c-1.91-.61-3.88-1.15-5.9-1.6a59.93,59.93,0,0,0-9.95-1.43,49.24,49.24,0,0,0-13.23,1h0q-.63.77-1.23,1.56c-.09.12-.18.23-.26.35-.31.41-.62.82-.92,1.24l-.33.46-.81,1.19-.33.49c-.26.41-.53.82-.79,1.24l-.28.45q-.48.76-.93,1.56c-.07.13-.14.26-.22.39-.26.46-.52.93-.77,1.4s-.33.66-.5,1l-.25.5a2.1,2.1,0,0,0-.15.3h0c-.7,1.44-1.36,2.91-2,4.41l-.2.51c-.21.55-.42,1.1-.62,1.65-.09.28-.19.56-.28.83-.16.46-.31.93-.46,1.39s-.19.62-.28.93l-.39,1.36c-.08.31-.17.62-.25.94s-.23.95-.34,1.42c-.07.3-.15.6-.21.9-.12.53-.22,1.07-.32,1.61l-.15.75c-.14.79-.27,1.59-.38,2.39a63.43,63.43,0,0,0-.4,13.94,1.94,1.94,0,0,1,0,.24c0,.38.07.75.11,1.12,0,.15,0,.29.05.44,0,.32.07.65.12,1s0,.38.07.56.08.58.13.87.06.45.1.67.09.53.13.79.09.49.13.73l.15.74.15.77c.06.24.11.47.16.71l.18.78.18.71.19.76c.07.25.13.49.2.73l.21.73c.07.25.15.5.22.76l.15.47a1.42,1.42,0,0,0,.05.16c.2.63.4,1.26.62,1.88,0,.09.07.17.1.26q.28.83.6,1.62l.18.45c.24.62.49,1.23.75,1.84l0,0c.26.58.52,1.16.79,1.74l.22.45c.26.54.52,1.08.8,1.61,0,.06,0,.11.08.16.3.58.61,1.16.93,1.73l.24.41c.27.48.55,1,.84,1.44l.17.29c.34.56.69,1.11,1.05,1.66l.23.34c.31.46.61.91.93,1.36l.24.34c.38.54.77,1.07,1.16,1.59l.18.23L24,114.12l.28.35c.42.51.85,1,1.29,1.51l0,0c.42.48.85,1,1.29,1.42ZM87.69,55.33,89,56Zm2.21,1.2c.42.23.84.44,1.25.65C90.74,57,90.32,56.76,89.9,56.53Zm2.17,1.11,1.23.58Zm2.14,1,1.21.53Zm4.16,1.73,1.16.44Zm4,1.39,1.12.35Zm1.93.58,1.11.3Zm1.89.49,1.1.27Zm1.83.43,1.1.23Zm1.77.35,1.12.2Zm6.13.79,1,.06Zm-4.45-.51c1.46.22,2.87.39,4.23.49C114.34,64.29,112.93,64.12,111.47,63.9Zm9.14.63.8,0Zm1.46,0,.76,0Zm1.41-.08.72-.06Zm1.36-.12.69-.08Zm1.31-.16.64-.09Zm4.7-.86.48-.12Zm-1.1.24.53-.11Zm-1.14.23.56-.11Zm-1.2.21.6-.1ZM85.44,54l1.33.79Zm12,6-1.18-.48Zm4,1.47-1.14-.39Zm16.93,3-.93,0Zm1.49,0h0Zm14.18-2.21-.28.09Zm-1.81.55-.43.11Zm.94-.27-.38.11Z" transform="translate(0.47 0.3)"/><circle class="cls-16" cx="73.51" cy="73.51" r="73.5"/><path class="cls-17" d="M66.49,66.38V81.2c0,5-2.63,7-7.27,7a8.92,8.92,0,0,1-4.61-1.27,1.79,1.79,0,0,1-.39-2.5,1.69,1.69,0,0,1,2.37-.68,5.54,5.54,0,0,0,2.63.65c2.14,0,3.11-1.07,3.11-4.21V66.38c0-1.24,1-1.79,2.08-1.79S66.49,65.14,66.49,66.38Z" transform="translate(0.47 0.3)"/><path class="cls-17" d="M90.69,75.65V77c0,3.57-.75,6.2-2.14,8l1.88,1.84A1.72,1.72,0,0,1,88,89.25l-2.11-2.08a11.68,11.68,0,0,1-5.16,1c-6.29,0-9.92-3.34-9.92-11.23V75.65c0-7.88,3.63-11.22,9.92-11.22S90.69,67.77,90.69,75.65ZM75,76v.68c0,5.87,2,7.75,5.74,7.75a7.67,7.67,0,0,0,2.11-.26L81,82.24A1.48,1.48,0,0,1,81.12,80a1.5,1.5,0,0,1,2.24-.19L85.53,82a11.55,11.55,0,0,0,1-5.35V76c0-5.87-1.94-7.76-5.74-7.76S75,70.11,75,76Z" transform="translate(0.47 0.3)"/></g></g></svg>