<svg xmlns="http://www.w3.org/2000/svg" xmlns:xlink="http://www.w3.org/1999/xlink" viewBox="0 0 147.02 147.02"><defs><style>.cls-1{isolation:isolate;}.cls-2{fill:#eee797;}.cls-3{fill:#332f2f;}.cls-4{fill:url(#linear-gradient);}.cls-5{fill:url(#linear-gradient-2);}.cls-6{fill:url(#linear-gradient-3);}.cls-7{fill:url(#New_Gradient_Swatch_5);}.cls-8{fill:url(#linear-gradient-4);}.cls-9{fill:url(#New_Gradient_Swatch_5-2);}.cls-10{fill:url(#linear-gradient-5);}.cls-11{fill:url(#linear-gradient-6);}.cls-12{fill:#664868;opacity:0.3;mix-blend-mode:multiply;}.cls-13{opacity:0.23;fill:url(#linear-gradient-7);}.cls-14{fill:#f2f1c2;stroke:#f2f1c2;stroke-miterlimit:10;stroke-width:0.5px;}</style><linearGradient id="linear-gradient" x1="-1115.3" y1="-100.8" x2="-882.01" y2="-100.8" gradientTransform="matrix(-0.99, -0.14, -0.14, 0.99, -926.07, 67.95)" gradientUnits="userSpaceOnUse"><stop offset="0" stop-color="#c5cc98"/><stop offset="1" stop-color="#06a573"/></linearGradient><linearGradient id="linear-gradient-2" x1="-950.47" y1="-37.32" x2="-981.8" y2="-105.19" gradientTransform="matrix(-0.99, -0.14, -0.14, 0.99, -926.07, 67.95)" gradientUnits="userSpaceOnUse"><stop offset="0" stop-color="#c5cc98"/><stop offset="1" stop-color="#00a472"/></linearGradient><linearGradient id="linear-gradient-3" x1="-1015.35" y1="-135.07" x2="-891.48" y2="-135.07" xlink:href="#linear-gradient"/><linearGradient id="New_Gradient_Swatch_5" x1="-1115.3" y1="-133.48" x2="-882.01" y2="-133.48" gradientTransform="matrix(-0.99, -0.14, -0.14, 0.99, -926.07, 67.95)" gradientUnits="userSpaceOnUse"><stop offset="0" stop-color="#fbb03b"/><stop offset="1" stop-color="#fb6659"/></linearGradient><linearGradient id="linear-gradient-4" x1="-1054.91" y1="-109.02" x2="-939.3" y2="-160" xlink:href="#linear-gradient"/><linearGradient id="New_Gradient_Swatch_5-2" x1="-1119.86" y1="-108.52" x2="-867.78" y2="-108.52" xlink:href="#New_Gradient_Swatch_5"/><linearGradient id="linear-gradient-5" x1="-1038.44" y1="-107.87" x2="-922.83" y2="-158.86" xlink:href="#linear-gradient"/><linearGradient id="linear-gradient-6" x1="-989.77" y1="73.76" x2="-1056.83" y2="73.76" gradientTransform="matrix(-1, 0, 0, 1, -927.17, 0)" gradientUnits="userSpaceOnUse"><stop offset="0" stop-color="#c5cc98"/><stop offset="0.64" stop-color="#06a573"/></linearGradient><linearGradient id="linear-gradient-7" x1="-1017.11" y1="-185.58" x2="-947.97" y2="-46.01" gradientTransform="matrix(-0.99, -0.14, -0.14, 0.99, -925.85, 67.7)" xlink:href="#linear-gradient"/></defs><title>js</title><g class="cls-1"><g id="Layer_1" data-name="Layer 1"><path class="cls-2" d="M78.65,56.62l0,0h0Z" transform="translate(0.22 -0.25)"/><path class="cls-3" d="M51.2,42.15A92.8,92.8,0,0,1,78.65,56.62c-1.51-1-3-2.12-4.59-3.3A110.58,110.58,0,0,0,51.2,42.15Z" transform="translate(0.22 -0.25)"/><path class="cls-3" d="M85.6,52.93a61.28,61.28,0,0,0,11.64-2.7h0c1.21-.41,2.46-.85,3.73-1.35a76.71,76.71,0,0,1,17.54-3.15,44.38,44.38,0,0,1,12.06,1.19A63.33,63.33,0,0,1,135.2,61C127.08,63.88,109.08,67.13,85.6,52.93Z" transform="translate(0.22 -0.25)"/><path class="cls-3" d="M64.59,135.83A63.13,63.13,0,0,1,24.4,33.41c10.2-2.18,20.29-.73,29.08,2.06a111,111,0,0,1,23,11.25q2.34,1.77,4.63,3.32l0,0h0c25.65,17.47,45.43,14,54,11a63.15,63.15,0,0,1-70.61,74.81Z" transform="translate(0.22 -0.25)"/><path class="cls-4" d="M90.88,134A63.1,63.1,0,0,1,10.42,67.89c10.76-2.13,21.38-.57,30.65,2.37A120,120,0,0,1,65.94,82.41c1.69,1.29,3.35,2.48,5,3.6l0,0h0c27.72,18.87,49.09,15.11,58.4,11.83.22,1.09.41,2.18.57,3.28A63.29,63.29,0,0,1,90.88,134Z" transform="translate(0.22 -0.25)"/><path class="cls-5" d="M13,92.13A63.17,63.17,0,0,0,90.88,134c3-5.86,5.75-15.73-3.15-23.85,0,0-14.6-8.62-36.53-2.46C51.2,107.64,23,112.13,13,92.13Z" transform="translate(0.22 -0.25)"/><path class="cls-6" d="M68.47,78.2A109.65,109.65,0,0,0,78.76,90.86Q74.95,88.75,71,86h0l0,0c-1.64-1.12-3.3-2.31-5-3.6A120,120,0,0,0,41.07,70.26c-9.27-2.94-19.89-4.5-30.65-2.37.09-1.08.22-2.17.37-3.26a62.56,62.56,0,0,1,5.84-19.1C28.18,43.25,49.5,44.88,68.47,78.2Z" transform="translate(0.22 -0.25)"/><path class="cls-7" d="M72.13,64.46C95.9,86.52,121.39,88,135,86.77a62.69,62.69,0,0,1-5,14.39c-.16-1.11-.35-2.2-.57-3.29-8.42,3-26.69,6.32-50.61-7A109.65,109.65,0,0,1,68.47,78.2c-19-33.32-40.29-34.95-51.84-32.67a2.09,2.09,0,0,1,.14-.3C49.31,36.26,72.13,64.46,72.13,64.46Z" transform="translate(0.22 -0.25)"/><path class="cls-8" d="M72.13,64.46C95.9,86.52,121.39,88,135,86.77a62.69,62.69,0,0,1-5,14.39c-.16-1.11-.35-2.2-.57-3.29-8.42,3-26.69,6.32-50.61-7A109.65,109.65,0,0,1,68.47,78.2c-19-33.32-40.29-34.95-51.84-32.67a2.09,2.09,0,0,1,.14-.3C49.31,36.26,72.13,64.46,72.13,64.46Z" transform="translate(0.22 -0.25)"/><path class="cls-9" d="M78.76,90.86c23.92,13.33,42.19,10,50.61,7,.22,1.09.41,2.18.57,3.29-.9,1.82-1.87,3.59-2.93,5.3C109,117.52,90.06,102.85,78.76,90.86Z" transform="translate(0.22 -0.25)"/><path class="cls-10" d="M78.76,90.86c23.92,13.33,42.19,10,50.61,7,.22,1.09.41,2.18.57,3.29-.9,1.82-1.87,3.59-2.93,5.3C109,117.52,90.06,102.85,78.76,90.86Z" transform="translate(0.22 -0.25)"/><path class="cls-3" d="M16.78,45.23c32.53-9,55.35,19.24,55.35,19.24,2.33,2.15,4.68,4.12,7,5.9A79.92,79.92,0,0,0,135,86.77c.34-1.55.62-3.13.85-4.73a65.17,65.17,0,0,0,.6-8.77,63.19,63.19,0,0,0-.76-9.76v0c-.12-.78-.26-1.56-.41-2.34l0-.1A63.2,63.2,0,0,0,82,10.83a63.74,63.74,0,0,0-8.78-.61A63.08,63.08,0,0,0,27.06,30.37h0c-.92,1-1.8,2-2.66,3.05A61.93,61.93,0,0,0,16.78,45.23Z" transform="translate(0.22 -0.25)"/><path class="cls-11" d="M79.15,70.37A79.92,79.92,0,0,0,135,86.77c.34-1.55.62-3.13.85-4.73a65.17,65.17,0,0,0,.6-8.77,63.19,63.19,0,0,0-.76-9.76v0c-.12-.78-.26-1.56-.41-2.34a73.29,73.29,0,0,0-12.55-.64,122,122,0,0,0-27.68,5q-3,1.18-5.88,2.13l0,0h0A101.29,101.29,0,0,1,79.15,70.37Z" transform="translate(0.22 -0.25)"/><path class="cls-12" d="M79.15,70.37A79.92,79.92,0,0,0,135,86.77c.34-1.55.62-3.13.85-4.73a65.17,65.17,0,0,0,.6-8.77,63.19,63.19,0,0,0-.76-9.76v0c-.12-.78-.26-1.56-.41-2.34a73.29,73.29,0,0,0-12.55-.64,122,122,0,0,0-27.68,5q-3,1.18-5.88,2.13l0,0h0A101.29,101.29,0,0,1,79.15,70.37Z" transform="translate(0.22 -0.25)"/><circle class="cls-13" cx="73.51" cy="73.51" r="73.5"/><path class="cls-14" d="M69.12,63.38V78.2c0,5-2.62,7-7.26,7a8.92,8.92,0,0,1-4.61-1.27,1.78,1.78,0,0,1-.39-2.49,1.69,1.69,0,0,1,2.37-.69,5.42,5.42,0,0,0,2.63.65C64,81.41,65,80.34,65,77.2V63.38c0-1.24,1-1.79,2.08-1.79S69.12,62.14,69.12,63.38Z" transform="translate(0.22 -0.25)"/><path class="cls-14" d="M88,62.63a1.76,1.76,0,0,1,.71,2.5,1.67,1.67,0,0,1-2.3.81,9.79,9.79,0,0,0-4.22-.81c-2.82,0-4.31,1.46-4.31,2.82v.19c0,1.63.9,2.37,4.86,3.18,5.42,1.11,7.56,3.28,7.56,6.75v.29c0,4.42-3,6.85-8.6,6.85a14.28,14.28,0,0,1-7.1-1.82,1.83,1.83,0,0,1-.52-2.69,1.73,1.73,0,0,1,2.5-.62,10.68,10.68,0,0,0,5.32,1.4c3,0,4.25-1.2,4.25-2.79v-.23c0-1.82-1.33-2.72-4.45-3.34-5.45-1.07-7.94-2.56-7.94-6.88V68c0-3.64,2.91-6.59,8.36-6.59A12.84,12.84,0,0,1,88,62.63Z" transform="translate(0.22 -0.25)"/></g></g></svg>