<svg xmlns="http://www.w3.org/2000/svg" xmlns:xlink="http://www.w3.org/1999/xlink" viewBox="0 0 147.02 147.02"><defs><style>.cls-1{isolation:isolate;}.cls-2{fill:#332f2f;}.cls-3{fill:#eee797;}.cls-4{fill:url(#New_Gradient_Swatch_5);}.cls-5{fill:url(#linear-gradient);}.cls-6{fill:url(#linear-gradient-2);}.cls-7{fill:url(#linear-gradient-3);}.cls-8{fill:url(#New_Gradient_Swatch_5-2);}.cls-9{fill:url(#linear-gradient-4);}.cls-10{fill:url(#New_Gradient_Swatch_5-3);}.cls-11{fill:url(#linear-gradient-5);}.cls-12{fill:url(#linear-gradient-6);}.cls-13{fill:#664868;opacity:0.3;mix-blend-mode:multiply;}.cls-14{fill:url(#linear-gradient-7);}.cls-15{fill:url(#linear-gradient-8);}.cls-16{fill:#29abe2;mix-blend-mode:overlay;}.cls-17{opacity:0.23;fill:url(#linear-gradient-9);}.cls-18{fill:#f2f1c2;stroke:#f2f1c2;stroke-miterlimit:10;stroke-width:0.5px;}</style><linearGradient id="New_Gradient_Swatch_5" x1="-43.29" y1="231.28" x2="190" y2="231.28" gradientTransform="translate(-55.15 -100.59) rotate(-14.02)" gradientUnits="userSpaceOnUse"><stop offset="0" stop-color="#fbb03b"/><stop offset="1" stop-color="#fb6659"/></linearGradient><linearGradient id="linear-gradient" x1="145.19" y1="221.74" x2="17.36" y2="250" gradientTransform="translate(-55.15 -100.59) rotate(-14.02)" gradientUnits="userSpaceOnUse"><stop offset="0" stop-color="#bbfcac"/><stop offset="1" stop-color="#1489ed"/></linearGradient><linearGradient id="linear-gradient-2" x1="121.54" y1="294.75" x2="90.21" y2="226.89" gradientTransform="translate(-55.15 -100.59) rotate(-14.02)" gradientUnits="userSpaceOnUse"><stop offset="0" stop-color="#bbfcac"/><stop offset="1" stop-color="#1489ed"/></linearGradient><linearGradient id="linear-gradient-3" x1="-43.29" y1="197.01" x2="169.09" y2="197.01" xlink:href="#linear-gradient"/><linearGradient id="New_Gradient_Swatch_5-2" x1="-43.29" y1="198.59" x2="190" y2="198.59" xlink:href="#New_Gradient_Swatch_5"/><linearGradient id="linear-gradient-4" x1="17.1" y1="223.05" x2="132.71" y2="172.07" xlink:href="#linear-gradient"/><linearGradient id="New_Gradient_Swatch_5-3" x1="-47.85" y1="223.55" x2="204.23" y2="223.55" xlink:href="#New_Gradient_Swatch_5"/><linearGradient id="linear-gradient-5" x1="33.58" y1="224.2" x2="149.18" y2="173.22" xlink:href="#linear-gradient"/><linearGradient id="linear-gradient-6" x1="-3189.19" y1="-17.85" x2="-3268.55" y2="-17.85" gradientTransform="matrix(-0.83, 0.13, 0.14, 0.91, -2651.53, 471.47)" gradientUnits="userSpaceOnUse"><stop offset="0" stop-color="#bbfcac"/><stop offset="0.66" stop-color="#1489ed"/></linearGradient><linearGradient id="linear-gradient-7" x1="-3189.19" y1="-11.28" x2="-3268.55" y2="-11.28" xlink:href="#linear-gradient-6"/><linearGradient id="linear-gradient-8" x1="44.08" y1="238.53" x2="135.21" y2="238.97" gradientTransform="translate(-61.26 -168.27) rotate(-6.09)" xlink:href="#linear-gradient"/><linearGradient id="linear-gradient-9" x1="40.37" y1="8.98" x2="109.5" y2="148.55" gradientTransform="translate(-2.66 22.81) rotate(-9.41)" xlink:href="#linear-gradient"/></defs><title>ps</title><g class="cls-1"><g id="Layer_1" data-name="Layer 1"><path class="cls-2" d="M31.57,34.5a82.72,82.72,0,0,1,20,3.89c1.46.61,2.88,1.16,4.27,1.66l0,0h0A68.43,68.43,0,0,0,66,42.86,62.46,62.46,0,0,0,72.37,37c.45-.53.93-1.07,1.43-1.6h0a31.75,31.75,0,0,1,9.48-6.93c8.44-3.71,27.69-5,33.31-.09A63.09,63.09,0,0,0,22,35.1,48.61,48.61,0,0,1,31.57,34.5Z" transform="translate(0.85 0.37)"/><path class="cls-3" d="M65.12,57.26l0,0h0Z" transform="translate(0.85 0.37)"/><path class="cls-2" d="M90.88,40A92.73,92.73,0,0,0,65.12,57.26c1.39-1.18,2.8-2.44,4.21-3.78A110.45,110.45,0,0,1,90.88,40Z" transform="translate(0.85 0.37)"/><path class="cls-2" d="M87.5,134.53a63.11,63.11,0,0,0,29.1-106.1c-10.37-1.09-20.25,1.42-28.7,5.13A111.25,111.25,0,0,0,66.21,47.18C64.79,48.53,63.37,49.79,62,51l0,0h0C38.28,71.1,18.25,69.74,9.36,67.63a63.12,63.12,0,0,0,78.14,66.9Z" transform="translate(0.85 0.37)"/><path class="cls-4" d="M61.16,135.45a63.09,63.09,0,0,0,73-74.22c-10.93-1-21.32,1.69-30.23,5.61A120.45,120.45,0,0,0,80.49,81.55C79,83,77.42,84.37,75.91,85.66l0,0h0c-25.55,21.71-47.2,20.24-56.81,18-.1,1.1-.17,2.21-.22,3.32A63.3,63.3,0,0,0,61.16,135.45Z" transform="translate(0.85 0.37)"/><path class="cls-5" d="M103.85,66.53A119.94,119.94,0,0,0,80.42,81.25c-1.55,1.46-3.07,2.82-4.59,4.11l0,0h0Q72.13,88.51,68.56,91c-10,13.13-27.22,29.71-46.32,20.63A63.12,63.12,0,0,0,134.05,85.3a62.69,62.69,0,0,0,0-24.38C123.16,60,112.76,62.62,103.85,66.53Z" transform="translate(0.85 0.37)"/><path class="cls-6" d="M134.13,85.6a63.18,63.18,0,0,1-73,49.85c-3.59-5.51-7.39-15,.61-24.06,0,0,13.6-10.11,36.06-6.31C97.83,105.08,126.39,106.55,134.13,85.6Z" transform="translate(0.85 0.37)"/><path class="cls-7" d="M77.53,77.63a108.87,108.87,0,0,1-8.89,13.68c2.37-1.67,4.79-3.54,7.23-5.62h0l0,0c1.51-1.29,3-2.65,4.59-4.1a119.94,119.94,0,0,1,23.43-14.72c8.91-3.92,19.31-6.59,30.22-5.61-.2-1.07-.44-2.14-.7-3.21a62.84,62.84,0,0,0-7.84-18.37C113.89,38.61,92.86,42.49,77.53,77.63Z" transform="translate(0.85 0.37)"/><path class="cls-8" d="M72.43,64.36C51.13,88.82,26,93,12.34,93.21A62.81,62.81,0,0,0,18.84,107c.05-1.11.12-2.22.22-3.32,8.69,2,27.21,3.45,49.58-12.35a108.87,108.87,0,0,0,8.89-13.68c15.33-35.14,36.36-39,48.08-38a2.75,2.75,0,0,0-.17-.29C92.14,33.9,72.43,64.36,72.43,64.36Z" transform="translate(0.85 0.37)"/><path class="cls-9" d="M72.43,64.36C51.13,88.82,26,93,12.34,93.21A62.81,62.81,0,0,0,18.84,107c.05-1.11.12-2.22.22-3.32,8.69,2,27.21,3.45,49.58-12.35a108.87,108.87,0,0,0,8.89-13.68c15.33-35.14,36.36-39,48.08-38a2.75,2.75,0,0,0-.17-.29C92.14,33.9,72.43,64.36,72.43,64.36Z" transform="translate(0.85 0.37)"/><path class="cls-10" d="M68.64,91.31c-22.37,15.8-40.89,14.4-49.58,12.35-.1,1.1-.17,2.21-.22,3.32,1.09,1.72,2.24,3.37,3.48,5C41.42,121,58.68,104.44,68.64,91.31Z" transform="translate(0.85 0.37)"/><path class="cls-11" d="M68.64,91.31c-22.37,15.8-40.89,14.4-49.58,12.35-.1,1.1-.17,2.21-.22,3.32,1.09,1.72,2.24,3.37,3.48,5C41.42,121,58.68,104.44,68.64,91.31Z" transform="translate(0.85 0.37)"/><path class="cls-2" d="M18,51.35c12.34,7,29.75,1.8,29.75,1.8A66.53,66.53,0,0,0,66,42.86,68.43,68.43,0,0,1,55.9,40.07h0l0,0c-1.39-.5-2.81-1-4.27-1.66a82.72,82.72,0,0,0-20-3.89,48.61,48.61,0,0,0-9.56.6,63.23,63.23,0,0,0-7.33,12.31A17.65,17.65,0,0,0,18,51.35Z" transform="translate(0.85 0.37)"/><path class="cls-12" d="M18,51.35c12.34,7,29.75,1.8,29.75,1.8A66.53,66.53,0,0,0,66,42.86,68.43,68.43,0,0,1,55.9,40.07h0l0,0c-1.39-.5-2.81-1-4.27-1.66a82.72,82.72,0,0,0-20-3.89,48.61,48.61,0,0,0-9.56.6,63.23,63.23,0,0,0-7.33,12.31A17.65,17.65,0,0,0,18,51.35Z" transform="translate(0.85 0.37)"/><path class="cls-13" d="M18,51.35c12.34,7,29.75,1.8,29.75,1.8A66.53,66.53,0,0,0,66,42.86,68.43,68.43,0,0,1,55.9,40.07h0l0,0c-1.39-.5-2.81-1-4.27-1.66a82.72,82.72,0,0,0-20-3.89,48.61,48.61,0,0,0-9.56.6,63.23,63.23,0,0,0-7.33,12.31A17.65,17.65,0,0,0,18,51.35Z" transform="translate(0.85 0.37)"/><path class="cls-2" d="M39.58,66.91,39.07,65A75.58,75.58,0,0,0,57.81,54.32c1.37-1,2.74-2.13,4.13-3.31h0l0,0c1.4-1.19,2.82-2.45,4.24-3.8A111.25,111.25,0,0,1,87.9,33.56c8.45-3.71,18.33-6.22,28.7-5.13h0c-5.62-4.91-24.87-3.62-33.31.09a31.75,31.75,0,0,0-9.48,6.93h0c-.5.53-1,1.07-1.43,1.6A62.46,62.46,0,0,1,66,42.86c1.11.22,2.19.39,3.25.54C43,61,22.44,57,13.13,53.44c.23-1.44.49-2.87.8-4.28-.54,1.3-1,2.61-1.5,4A62.77,62.77,0,0,0,9.36,67.63a52.15,52.15,0,0,0-.25,5.64L38.68,74Z" transform="translate(0.85 0.37)"/><path class="cls-2" d="M18,51.35a17.65,17.65,0,0,1-3.35-3.94c-.26.58-.51,1.16-.75,1.75-.31,1.41-.57,2.84-.8,4.28C22.44,57,43,61,69.21,43.4c-1.06-.15-2.14-.32-3.25-.54A66.53,66.53,0,0,1,47.78,53.15S30.37,58.32,18,51.35Z" transform="translate(0.85 0.37)"/><path class="cls-14" d="M18,51.35a17.65,17.65,0,0,1-3.35-3.94c-.26.58-.51,1.16-.75,1.75-.31,1.41-.57,2.84-.8,4.28C22.44,57,43,61,69.21,43.4c-1.06-.15-2.14-.32-3.25-.54A66.53,66.53,0,0,1,47.78,53.15S30.37,58.32,18,51.35Z" transform="translate(0.85 0.37)"/><path class="cls-13" d="M18,51.35a17.65,17.65,0,0,1-3.35-3.94c-.26.58-.51,1.16-.75,1.75-.31,1.41-.57,2.84-.8,4.28C22.44,57,43,61,69.21,43.4c-1.06-.15-2.14-.32-3.25-.54A66.53,66.53,0,0,1,47.78,53.15S30.37,58.32,18,51.35Z" transform="translate(0.85 0.37)"/><path class="cls-15" d="M116.6,28.43h0c-5.27-4.6-22.52-3.76-31.61-.58h0A29.31,29.31,0,0,0,76.3,32.5h0c-2.07,1.47-8.7,7.16-8.91,7.34-14.78,11-26.12,14.52-34.43,14.69a32.35,32.35,0,0,1-10-1.62,19.26,19.26,0,0,1-8.21-5.51c-.26.58-.51,1.16-.75,1.75-.54,1.3-1,2.61-1.5,4A62.77,62.77,0,0,0,9.36,67.63a52.15,52.15,0,0,0-.25,5.64A63.16,63.16,0,0,0,11,88.59c.4,1.57.84,3.11,1.35,4.62C26,93,51.13,88.82,72.43,64.36c0,0,19.71-30.46,53-25A62.47,62.47,0,0,0,116.6,28.43Z" transform="translate(0.85 0.37)"/><path class="cls-16" d="M122.63,111.26c.38-.51.76-1,1.13-1.55l0,0,1.12-1.65.24-.37c.31-.49.62-1,.92-1.46l.15-.25c.34-.56.67-1.13,1-1.7l.2-.36c.27-.48.53-1,.78-1.46.07-.12.13-.24.19-.36.3-.58.59-1.17.87-1.76l.14-.3q.36-.76.69-1.53c.06-.14.12-.29.19-.43.25-.61.5-1.21.74-1.82l.06-.16c.22-.56.43-1.13.63-1.7.06-.15.11-.31.16-.46.21-.61.42-1.21.61-1.82V92c.2-.63.38-1.26.56-1.9,0-.15.08-.31.13-.46q.23-.84.42-1.68c0-.09.05-.18.07-.27.15-.64.29-1.29.42-1.94,0-.05,0-.1,0-.16l.09-.49c.05-.25.1-.51.14-.77s.09-.5.13-.75l.12-.74c0-.26.08-.52.11-.79s.07-.48.1-.72.07-.53.1-.79.05-.48.08-.73.05-.52.07-.78.05-.5.07-.75,0-.49.05-.74,0-.53.05-.8l0-.67c0-.29,0-.59,0-.88s0-.38,0-.57,0-.66,0-1c0-.14,0-.29,0-.43,0-.38,0-.76,0-1.13a1.93,1.93,0,0,0,0-.24A62.9,62.9,0,0,0,133.44,58c-.19-.79-.41-1.57-.63-2.34-.07-.25-.15-.49-.22-.73-.16-.52-.32-1.05-.5-1.57-.09-.29-.2-.58-.3-.87-.16-.46-.32-.92-.49-1.38-.12-.3-.23-.6-.35-.91s-.35-.87-.53-1.31c-.13-.29-.25-.59-.38-.88-.19-.45-.4-.9-.6-1.34-.12-.27-.25-.53-.37-.79-.26-.54-.52-1.06-.79-1.58-.09-.16-.16-.33-.25-.49-.75-1.43-1.56-2.82-2.41-4.18h0a1.75,1.75,0,0,0-.18-.29h0l-.31-.47c-.2-.31-.39-.61-.6-.92s-.61-.89-.93-1.33l-.23-.33c-.36-.5-.73-1-1.1-1.47l-.32-.42L121,33.27l-.37-.45c-.31-.37-.62-.73-.94-1.09l-.37-.43c-.35-.38-.69-.76-1-1.14l-.29-.31c-.46-.48-.92-1-1.39-1.42h0A6.17,6.17,0,0,0,116,28l-.21-.13-.41-.26-.27-.15-.42-.22-.31-.14L114,26.9l-.35-.13-.46-.17-.38-.12-.48-.15-.41-.11-.51-.12L111,26l-.53-.11L110,25.8l-.56-.09-.46-.07-.59-.08-.47-.06-.61-.06-.48-.05-.64-.05-.47,0-.7,0-.44,0-.79,0h-.38c-.78,0-1.57,0-2.37,0h-.38l-.81,0-.48,0-.73,0-.5,0-.7.06-.52,0-.68.07-.53.05-.65.08-.54.06-.64.09-.53.08-.64.09-.51.09-.63.1-.5.1-.62.12-.48.09-.61.14-.47.1-.59.15-.44.1-.6.16-.4.11-.63.19-.33.1-.9.3h0A28.84,28.84,0,0,0,76.3,32.5h0c-2.08,1.47-8.7,7.16-8.91,7.34-1.21.9-2.39,1.75-3.56,2.55a70.85,70.85,0,0,1-7.91-2.33h0l0,0c-1.4-.5-2.82-1-4.28-1.66a82.57,82.57,0,0,0-20-3.89,48.71,48.71,0,0,0-9.57.6,63.69,63.69,0,0,0-7.32,12.31c-.26.58-.51,1.16-.76,1.75-.54,1.3-1,2.61-1.49,4A62.78,62.78,0,0,0,9.35,67.63h0a50.22,50.22,0,0,0-.25,5.06c0,1.28,0,2.55.1,3.84,0,.27,0,.54,0,.82,0,.44.06.88.1,1.32s.07.73.11,1.09.07.76.12,1.14c.08.7.18,1.4.29,2.1l.15.9c.09.51.19,1,.29,1.55,0,.27.1.55.16.82.16.73.32,1.46.5,2.18l0,.14c.18.71.37,1.41.57,2.11l.12.43q.87,2.93,2,5.71h0a63,63,0,0,0,30.39,32.92l.13.07,1.29.62.24.11,1.2.55.3.13,1.17.49.33.13c.39.16.77.31,1.16.45l.35.14,1.17.42.34.12,1.23.41.28.09,1.37.41.16.05a62.69,62.69,0,0,0,8,1.75h.06l1.52.21.17,0,1.41.16.26,0,1.33.11.32,0,1.28.07.36,0,1.24,0h2l1.19,0h.45l1.17,0,.47,0,1.17-.08.47,0q.59,0,1.17-.12l.46,0,1.21-.16.43-.05,1.26-.19.37-.06,1.4-.25.24-.05c1.1-.21,2.21-.46,3.31-.73l2.09-.56.39-.12c.66-.19,1.31-.39,2-.6l.08,0c.69-.23,1.37-.46,2-.71l.33-.13c.6-.22,1.2-.45,1.79-.69l.22-.1c.66-.27,1.32-.55,2-.84l.24-.11,1.71-.82.29-.14,1.88-1,.08,0c.58-.32,1.16-.65,1.72-1l.31-.19c1.19-.71,2.35-1.45,3.49-2.23l.3-.22c.56-.39,1.11-.78,1.65-1.19h0c.56-.41,1.1-.84,1.64-1.27l.28-.23c.48-.38,1-.78,1.41-1.18l.17-.14c.52-.45,1-.91,1.53-1.37l.22-.21c.43-.4.86-.82,1.28-1.23l.25-.24,1.41-1.46.14-.15c.41-.44.81-.89,1.21-1.35l.27-.3c.44-.51.88-1,1.3-1.55h0c.41-.5.82-1,1.21-1.54Z" transform="translate(0.85 0.37)"/><circle class="cls-17" cx="73.51" cy="73.51" r="73.5"/><path class="cls-18" d="M61.83,62.82c5.61,0,8,2.85,8,6.68V70c0,3.8-2.59,7-8,7H57.16v7.3c0,1.23-1,1.78-2.08,1.78S53,85.52,53,84.29V65.51c0-2.05.68-2.69,2.75-2.69ZM57.16,73.49h4.12c2.72,0,4.38-.88,4.38-3.6v-.36c0-2.56-1.66-3.24-4-3.24H57.16Z" transform="translate(0.85 0.37)"/><path class="cls-18" d="M87.3,63.66a1.76,1.76,0,0,1,.71,2.5,1.67,1.67,0,0,1-2.3.81,9.61,9.61,0,0,0-4.22-.81c-2.82,0-4.31,1.46-4.31,2.82v.19c0,1.62.91,2.37,4.86,3.18,5.42,1.11,7.56,3.28,7.56,6.75v.29c0,4.41-2.95,6.85-8.59,6.85a14.32,14.32,0,0,1-7.11-1.82,1.83,1.83,0,0,1-.52-2.69,1.73,1.73,0,0,1,2.5-.62,10.7,10.7,0,0,0,5.32,1.4c3,0,4.25-1.2,4.25-2.79v-.23c0-1.82-1.33-2.73-4.44-3.34-5.45-1.07-8-2.57-8-6.88V69c0-3.63,2.92-6.58,8.37-6.58A12.82,12.82,0,0,1,87.3,63.66Z" transform="translate(0.85 0.37)"/></g></g></svg>