<svg id="Layer_1" data-name="Layer 1" xmlns="http://www.w3.org/2000/svg" viewBox="0 0 176.44 176.51"><defs><style>.cls-1{fill:#d8d5ab;}</style></defs><title>spaceMove_2</title><path class="cls-1" d="M87.17,176.51c-2.92,0-5.87-.15-8.76-.44l.07-.67a87.66,87.66,0,0,0,35.45-3.76l.2.64A87.39,87.39,0,0,1,87.17,176.51Zm-15-1.29c-.9-.15-1.78-.32-2.67-.5l.14-.66c.87.18,1.76.34,2.64.5Zm47.1-4.76-.24-.63c1.66-.66,3.32-1.37,4.94-2.12l.28.61C122.59,169.08,120.92,169.8,119.24,170.46Zm-96.31-22c-1.22-1.32-2.43-2.7-3.57-4.09l.53-.43c1.13,1.38,2.32,2.75,3.54,4.06Zm-6.88-8.38A86.93,86.93,0,0,1,1.44,107.31l.66-.14a86.12,86.12,0,0,0,14.5,32.56Zm147.41-8-.59-.34c.45-.78.88-1.56,1.3-2.36l.6.31C164.35,130.5,163.91,131.29,163.46,132.08Zm4.06-8.09-.62-.27a86.43,86.43,0,0,0,7.28-34.9h.68A87.06,87.06,0,0,1,167.52,124ZM.33,101.07C.21,100.18.1,99.28,0,98.38l.67-.07c.1.89.21,1.79.33,2.67Zm173.73-16.9c-.09-1.79-.24-3.59-.45-5.37l.67-.08c.21,1.79.36,3.61.46,5.41ZM11.2,46.37,10.61,46c.88-1.57,1.83-3.14,2.8-4.66l.57.37C13,43.25,12.08,44.81,11.2,46.37ZM17,37.31l-.55-.4a87.57,87.57,0,0,1,26.74-24l.34.58A86.85,86.85,0,0,0,17,37.31Zm134.73-6.79c-.61-.67-1.22-1.32-1.84-2l.49-.47c.62.65,1.24,1.32,1.85,2Zm-6.35-6.34a86.32,86.32,0,0,0-30.8-17.95l.21-.65a87.06,87.06,0,0,1,31,18.1ZM49.11,10.55l-.29-.6c.81-.4,1.62-.78,2.45-1.15l.27.61Q50.33,10,49.11,10.55Zm60.35-5.86c-1.73-.46-3.49-.87-5.25-1.21l.13-.67c1.77.35,3.55.77,5.29,1.23Z"/><path class="cls-1" d="M9.76,50.86a2.75,2.75,0,1,1,2.75-2.75A2.75,2.75,0,0,1,9.76,50.86Zm0-4.82a2.08,2.08,0,1,0,2.07,2.07A2.07,2.07,0,0,0,9.76,46Z"/><path class="cls-1" d="M25.17,152.76A2.75,2.75,0,1,1,27.92,150,2.75,2.75,0,0,1,25.17,152.76Zm0-4.82A2.08,2.08,0,1,0,27.24,150,2.07,2.07,0,0,0,25.17,147.94Z"/><path class="cls-1" d="M125.47,170.17a2.75,2.75,0,1,1,2.75-2.74A2.75,2.75,0,0,1,125.47,170.17Zm0-4.82a2.08,2.08,0,1,0,2.07,2.08A2.08,2.08,0,0,0,125.47,165.35Z"/><path class="cls-1" d="M173.7,79.35a2.75,2.75,0,1,1,2.74-2.75A2.75,2.75,0,0,1,173.7,79.35Zm0-4.82a2.07,2.07,0,1,0,2.07,2.07A2.08,2.08,0,0,0,173.7,74.53Z"/><path class="cls-1" d="M102.18,5.49a2.75,2.75,0,1,1,2.74-2.74A2.75,2.75,0,0,1,102.18,5.49Zm0-4.81a2.07,2.07,0,1,0,2.07,2.07A2.07,2.07,0,0,0,102.18.68Z"/></svg>