<svg id="Layer_1" data-name="Layer 1" xmlns="http://www.w3.org/2000/svg" viewBox="0 0 153.07 153.07"><defs><style>.cls-1{fill:#9b997c;}</style></defs><title>spaceMove_1</title><path class="cls-1" d="M76.53,153.07c-1.54,0-3.11,0-4.65-.14l0-.67c1.53.09,3.08.13,4.61.13h.77v.68Zm6.2-.25,0-.67c1.78-.14,3.58-.35,5.34-.62l.1.67C86.34,152.47,84.53,152.68,82.73,152.82Zm-16.25-.41c-1.79-.23-3.59-.53-5.36-.89l.14-.66c1.75.35,3.53.65,5.31.88Zm27-1.22-.15-.66c1.74-.39,3.5-.85,5.2-1.37l.2.65C97,150.33,95.22,150.79,93.46,151.19Zm-37.61-.95c-1.74-.49-3.48-1-5.18-1.65l.23-.64c1.68.61,3.4,1.16,5.13,1.64Zm48-2.19-.24-.63c1.67-.64,3.33-1.34,5-2.09l.29.61C107.21,146.7,105.53,147.41,103.84,148.05Zm-58.21-1.48c-1.65-.72-3.29-1.52-4.89-2.37l.31-.6c1.59.84,3.22,1.63,4.85,2.35Zm68-3.1-.33-.59c1.56-.87,3.11-1.8,4.61-2.78l.37.57C116.81,141.65,115.24,142.6,113.67,143.47Zm-77.64-2c-1.53-1-3-2-4.5-3l.4-.55c1.44,1,2.94,2.07,4.46,3Zm86.72-4-.41-.54c1.43-1.07,2.83-2.22,4.17-3.4l.45.51C125.6,135.3,124.19,136.46,122.75,137.54Zm-95.49-2.45c-1.38-1.15-2.73-2.38-4-3.64l.47-.48c1.29,1.25,2.63,2.46,4,3.61Zm103.65-4.7-.48-.47c1.26-1.28,2.49-2.61,3.65-4l.51.44C133.42,127.77,132.18,129.11,130.91,130.39ZM19.47,127.54c-1.21-1.35-2.37-2.75-3.48-4.18l.54-.41c1.09,1.41,2.25,2.8,3.44,4.13ZM138,122.16l-.54-.4c1.06-1.44,2.09-2.93,3.05-4.43l.57.36C140.1,119.21,139.07,120.71,138,122.16ZM12.83,119c-1-1.5-2-3-2.85-4.62l.58-.33c.89,1.55,1.84,3.09,2.83,4.57Zm131-5.95-.59-.32c.85-1.57,1.66-3.2,2.4-4.82l.62.28C145.51,109.79,144.7,111.42,143.83,113ZM7.46,109.53c-.78-1.62-1.5-3.29-2.16-5l.62-.25c.66,1.67,1.38,3.32,2.15,4.93Zm140.86-6.41-.63-.23c.62-1.68,1.19-3.4,1.69-5.11L150,98C149.52,99.69,149,101.43,148.32,103.12ZM3.49,99.44C3,97.72,2.46,96,2.05,94.21l.66-.16c.41,1.74.89,3.48,1.42,5.19ZM151.36,92.7l-.66-.14c.37-1.75.69-3.53.94-5.3l.67.1C152.06,89.14,151.74,90.94,151.36,92.7ZM1,88.88C.7,87.1.47,85.29.31,83.5L1,83.44c.16,1.77.38,3.57.67,5.33ZM152.88,82l-.67,0c.12-1.77.18-3.58.18-5.38,0-1,0-2-.06-3l.68,0c0,1,.06,2.06.06,3.08C153.07,78.34,153,80.17,152.88,82ZM0,78.08c0-.52,0-1,0-1.54,0-1.3,0-2.6.1-3.89l.67,0C.71,74,.68,75.25.68,76.53c0,.52,0,1,0,1.53Zm151.91-10c-.19-1.77-.46-3.56-.78-5.32l.67-.12c.32,1.78.59,3.59.78,5.37ZM1.23,67.32l-.67-.08c.22-1.79.5-3.59.84-5.36l.67.13C1.73,63.76,1.45,65.55,1.23,67.32ZM150,57.53c-.44-1.72-1-3.46-1.52-5.15l.64-.22c.57,1.71,1.09,3.47,1.54,5.21ZM3.28,56.76l-.66-.17c.47-1.74,1-3.49,1.6-5.19l.64.22C4.28,53.31,3.74,55,3.28,56.76Zm143.29-9.41c-.69-1.65-1.44-3.3-2.24-4.89l.6-.3c.81,1.6,1.57,3.26,2.27,4.92ZM6.81,46.6l-.62-.27C6.9,44.68,7.68,43,8.51,41.42l.6.31C8.29,43.32,7.52,45,6.81,46.6Zm134.93-8.85c-.91-1.54-1.9-3.06-2.92-4.52l.56-.39c1,1.48,2,3,2.94,4.56ZM11.76,37l-.58-.35c.94-1.54,2-3.07,3-4.54l.55.4C13.69,34,12.69,35.51,11.76,37ZM135.6,28.93q-1.69-2.1-3.53-4.07l.5-.46c1.22,1.32,2.42,2.7,3.55,4.1ZM18,28.28l-.52-.43c1.15-1.4,2.36-2.76,3.6-4.07l.49.47C20.34,25.54,19.14,26.9,18,28.28Zm110.27-7.23c-1.31-1.22-2.68-2.4-4.07-3.53l.43-.52c1.4,1.13,2.78,2.33,4.1,3.56ZM25.42,20.48,25,20c1.33-1.21,2.72-2.39,4.14-3.51l.42.53C28.12,18.11,26.74,19.28,25.42,20.48Zm94.48-6.19c-1.46-1-3-2-4.52-2.93l.35-.58c1.55.93,3.08,1.92,4.56,3Zm-86.05-.48-.38-.56c1.49-1,3-2,4.59-2.89l.34.58C36.86,11.84,35.33,12.81,33.85,13.81Zm76.81-5c-1.59-.81-3.24-1.57-4.89-2.26l.26-.62c1.67.7,3.33,1.46,4.94,2.27ZM43.14,8.4l-.3-.6c1.63-.8,3.29-1.55,4.95-2.22l.26.63C46.4,6.87,44.75,7.61,43.14,8.4Zm57.59-3.78C99,4.05,97.3,3.53,95.57,3.08l.17-.65c1.74.45,3.49,1,5.2,1.54ZM53.1,4.36l-.21-.64c1.72-.56,3.47-1.06,5.22-1.49l.17.66C56.54,3.32,54.8,3.81,53.1,4.36ZM90.31,1.92c-1.75-.32-3.54-.58-5.32-.78l.08-.67c1.79.2,3.6.46,5.37.79ZM63.54,1.78l-.11-.66C65.2.81,67,.57,68.81.39l.06.67C67.09,1.24,65.3,1.48,63.54,1.78Zm16.09-1C77.85.67,76,.66,74.24.71l0-.68c1.8,0,3.64,0,5.43,0Z"/></svg>