<svg xmlns="http://www.w3.org/2000/svg" xmlns:xlink="http://www.w3.org/1999/xlink" viewBox="0 0 587.62 425.02"><defs><style>.cls-1{isolation:isolate;}.cls-2{fill:#e5b555;}.cls-3{fill:#e5e3cc;}.cls-4{fill:#fc9b24;}.cls-5{fill:#f9f8e1;}.cls-6{fill:#facf30;}.cls-10,.cls-11,.cls-12,.cls-48,.cls-49,.cls-7,.cls-8{mix-blend-mode:overlay;}.cls-7{fill:url(#linear-gradient);}.cls-8{fill:#996039;}.cls-9{fill:url(#linear-gradient-2);}.cls-10{fill:url(#linear-gradient-3);}.cls-11{fill:url(#linear-gradient-4);}.cls-12{fill:url(#linear-gradient-5);}.cls-13{fill:#b49f38;}.cls-14{fill:url(#linear-gradient-6);}.cls-15{fill:#e39b1d;}.cls-16{fill:#d2772a;}.cls-17{fill:#984934;}.cls-18{fill:#7f3526;}.cls-19{fill:#704126;}.cls-20{fill:#d39a62;}.cls-21{fill:none;}.cls-22{fill:#8a5330;}.cls-23{fill:#f6d6b2;}.cls-24{fill:#59321e;}.cls-25{fill:#e2ac6e;}.cls-26{fill:#9d4b31;}.cls-27{fill:#cc6335;}.cls-28{fill:#7f5049;}.cls-29{fill:#683a2f;}.cls-30{fill:#e5af6e;}.cls-31{fill:#b7a238;}.cls-32{fill:#a18046;}.cls-33{fill:#90654c;}.cls-34{fill:#f9dab6;}.cls-35{fill:#7f492b;}.cls-36{fill:#6b3822;}.cls-37{fill:#9e3089;}.cls-38{fill:#bc40a1;}.cls-39{fill:#d860c1;}.cls-40{fill:#99763f;}.cls-41{fill:#f9d9b5;}.cls-42{fill:#cf6335;}.cls-43{fill:#9b4934;}.cls-44{fill:#d5772a;}.cls-45{fill:#e69e1d;}.cls-46{fill:#913a30;}.cls-47{fill:url(#linear-gradient-7);}.cls-48,.cls-49{opacity:0.5;}.cls-48{fill:url(#linear-gradient-8);}.cls-49{fill:url(#linear-gradient-9);}</style><linearGradient id="linear-gradient" y1="345.61" x2="587.62" y2="345.61" gradientUnits="userSpaceOnUse"><stop offset="0" stop-color="#f2deb6" stop-opacity="0"/><stop offset="1" stop-color="#c7e1b7" stop-opacity="0.8"/></linearGradient><linearGradient id="linear-gradient-2" x1="293.81" y1="460.67" x2="293.81" y2="130.78" gradientUnits="userSpaceOnUse"><stop offset="0" stop-color="#729f7c" stop-opacity="0"/><stop offset="1" stop-color="#729f7c" stop-opacity="0.8"/></linearGradient><linearGradient id="linear-gradient-3" x1="325.9" y1="415.71" x2="269.17" y2="311.86" gradientUnits="userSpaceOnUse"><stop offset="0" stop-color="#f2deb6" stop-opacity="0"/><stop offset="1" stop-color="#f4e9d7" stop-opacity="0.8"/></linearGradient><linearGradient id="linear-gradient-4" x1="401.97" y1="396.97" x2="374.05" y2="350.72" xlink:href="#linear-gradient-3"/><linearGradient id="linear-gradient-5" x1="169.56" y1="338.79" x2="98.87" y2="290.79" xlink:href="#linear-gradient-3"/><linearGradient id="linear-gradient-6" x1="599.55" y1="-15.57" x2="341.18" y2="284.66" gradientUnits="userSpaceOnUse"><stop offset="0" stop-color="#c8e2b8" stop-opacity="0"/><stop offset="1" stop-color="#5e542e" stop-opacity="0.8"/></linearGradient><linearGradient id="linear-gradient-7" x1="284.79" y1="101.43" x2="347.19" y2="246.3" gradientUnits="userSpaceOnUse"><stop offset="0" stop-color="#90654c"/><stop offset="0.67" stop-color="#8a5330"/><stop offset="1" stop-color="#6d4530"/></linearGradient><linearGradient id="linear-gradient-8" x1="208.38" y1="172.22" x2="408.13" y2="172.22" gradientUnits="userSpaceOnUse"><stop offset="0" stop-color="#fff" stop-opacity="0"/><stop offset="0.23" stop-color="#b7b8b5" stop-opacity="0.38"/><stop offset="0.51" stop-color="#757772" stop-opacity="0.72"/><stop offset="0.77" stop-color="#4e5049" stop-opacity="0.93"/><stop offset="1" stop-color="#40433b"/></linearGradient><linearGradient id="linear-gradient-9" x1="292.01" y1="-8.15" x2="310.33" y2="206.54" gradientUnits="userSpaceOnUse"><stop offset="0" stop-color="#b8f9a9" stop-opacity="0.8"/><stop offset="0.1" stop-color="#bcf9ae" stop-opacity="0.76"/><stop offset="0.29" stop-color="#c7fabb" stop-opacity="0.63"/><stop offset="0.54" stop-color="#d8fcd0" stop-opacity="0.44"/><stop offset="0.83" stop-color="#f0feec" stop-opacity="0.17"/><stop offset="1" stop-color="#fff" stop-opacity="0"/></linearGradient></defs><title>charater10</title><g class="cls-1"><g id="Layer_1" data-name="Layer 1"><path class="cls-2" d="M587.62,344.91c0,.31,0,.62,0,.93,0,.12,0,.23,0,.35s0,.51-.06.77-.06.62-.11.93-.1.68-.16,1-.09.48-.14.72-.16.69-.26,1c-.05.2-.1.41-.17.62-.15.52-.33,1-.52,1.57-.07.2-.14.39-.22.59-.14.35-.29.7-.44,1.05l-.33.71c-.13.27-.27.55-.41.82a28.16,28.16,0,0,1-1.8,3l-.52.76c-.35.51-.72,1-1.13,1.53s-.79,1-1.23,1.51h0c-.42.5-.86,1-1.34,1.49s-1.18,1.24-1.81,1.87h0c-.64.62-1.3,1.23-2,1.84l-.84.73c-.28.25-.57.49-.86.73q-1.8,1.5-3.82,3l-1.36,1-1.41,1c-.48.33-1,.65-1.46,1l-1.5,1-1.55,1-1.59.95c-1.62.95-3.3,1.88-5,2.81-1.1.59-2.24,1.17-3.4,1.76s-2.58,1.26-3.92,1.89c0,0,0,0,0,0l-2,.9c-.44.21-.89.41-1.35.61s-1.13.5-1.7.75c-1.69.74-3.42,1.46-5.19,2.18l-2,.82-.55.22q-3,1.19-6.2,2.34l-2.76,1-2,.7q-4.14,1.43-8.51,2.8l-2.33.72-1.52.46H512q-2.57.78-5.21,1.53-11.89,3.42-25.19,6.44l-3,.67q-3,.66-6,1.3l-.86.18-3.92.8-1.37.28h-.07q-4.14.83-8.4,1.61c-.71.14-1.42.27-2.14.39l-2.06.37c-1.07.2-2.14.38-3.22.57-2.16.38-4.34.74-6.53,1.1q-8.11,1.33-16.56,2.52-7,1-14.16,1.86h0l-6.89.82-3.48.39-3.53.38q-3.5.38-7,.72l-7.16.68-.65.06-6.58.56c-3.63.3-7.3.59-11,.85l-7.42.5-3.74.23-.9.05-7.08.4-7.15.35-7.66.32q-6.42.24-12.91.41l-.86,0-2.86.07h-.6l-5.52.11-9.54.12q-3.45,0-6.91,0-6.57,0-13.06-.06l-2.72,0-4.74-.07-4.89-.1-2.12-.05h-1.11l-2.55-.07h-.43l-5.45-.16c-3.86-.13-7.7-.27-11.52-.44l-4.86-.22-3.65-.18-3.5-.19-1-.05c-3.23-.18-6.43-.38-9.62-.59l-5.54-.38-3.26-.23-2.6-.21c-1.53-.11-3.05-.23-4.57-.36l-1.89-.16-4.05-.35-5.37-.49-.34,0-5-.49c-3.46-.34-6.89-.71-10.29-1.09l-5.76-.67-4.73-.58-.59-.07-4.48-.58q-5-.66-10-1.37l-4.57-.67c-1.68-.25-3.34-.51-5-.78l-5-.8q-7-1.15-13.8-2.42l-.19,0-4.58-.86h0l-3-.59-.79-.16q-2.73-.56-5.4-1.12l-3-.64-4.42-1c-1.46-.33-2.92-.66-4.35-1L97.33,405q-4.27-1-8.38-2.1l-.89-.23q-5-1.32-9.79-2.7l-.13,0-2.59-.76h0l-2.66-.81q-2.46-.75-4.86-1.52c-1.63-.53-3.25-1.06-4.83-1.6l-2.36-.81-2.32-.82L56.93,393h0c-1.72-.63-3.39-1.26-5-1.89L49.2,390q-3-1.2-5.83-2.44l0,0c-1.33-.59-2.64-1.18-3.92-1.77h0l-2-.94-.55-.26-2-1c-.74-.37-1.47-.74-2.19-1.12s-1.42-.74-2.12-1.12l-.14-.07-1.92-1.07-2-1.14c-.66-.39-1.3-.77-1.93-1.16-1.22-.74-2.4-1.5-3.53-2.26l-.2-.14c-.56-.37-1.11-.75-1.64-1.13l-1.43-1-.3-.22c-.49-.37-1-.73-1.44-1.1s-1.07-.84-1.58-1.26l-1-.83-.87-.76c-.26-.22-.52-.46-.78-.7Q9.9,366.79,8.32,365c-.29-.31-.57-.63-.84-1a41,41,0,0,1-2.54-3.29l-.43-.64c-.15-.22-.28-.43-.42-.65l-.36-.58c-.31-.53-.61-1.07-.89-1.61-.15-.27-.29-.55-.42-.83,0-.09-.09-.18-.13-.28-.14-.28-.26-.57-.38-.86s-.29-.69-.42-1-.22-.61-.32-.91-.16-.49-.23-.73l-.09-.29c-.06-.24-.13-.48-.18-.71s-.1-.38-.14-.57c-.11-.51-.21-1-.29-1.54l-.06-.49a.17.17,0,0,1,0-.07c-.07-.5-.11-1-.14-1.51,0-.13,0-.25,0-.38s0-.53,0-.8,0-.54,0-.81,0-.24,0-.37c0-.63.1-1.25.19-1.88,0-.22.06-.44.11-.66s.07-.45.12-.68.08-.39.13-.59c.16-.7.36-1.4.59-2.1.1-.31.21-.61.32-.92.25-.66.52-1.31.83-2L2.5,336q.17-.36.36-.72c.17-.33.35-.66.53-1s.38-.66.58-1l.54-.85a.77.77,0,0,1,.09-.13l.65-1c.26-.36.53-.73.81-1.09s.44-.57.68-.86l.12-.15c.46-.57.94-1.13,1.45-1.69l.19-.21c.25-.28.5-.55.77-.82s.61-.64.92-.95l.2-.19c.39-.39.79-.78,1.21-1.16s.89-.82,1.36-1.23,1.14-1,1.73-1.46c.39-.33.78-.64,1.18-1a93.62,93.62,0,0,1,8.67-6c.63-.39,1.27-.78,1.92-1.16l1.7-1,.86-.49c1-.58,2.09-1.15,3.17-1.73,2.29-1.2,4.69-2.4,7.2-3.57h0c2.58-1.21,5.27-2.39,8.07-3.56l2.12-.87c.71-.29,1.43-.58,2.16-.86l2.21-.86c2.13-.82,4.32-1.62,6.57-2.42q2.56-.92,5.24-1.81L68,295.5l3.79-1.22,2.28-.7,1.46-.45h0l2.59-.77,2.63-.76q6.62-1.9,13.66-3.68l2.84-.71,3-.73,2.75-.65q4.38-1,8.91-2,3-.66,6.09-1.29l3.1-.62h0l4.58-.9,4.64-.87,5.17-.93c3-.52,6-1,9.05-1.54h.09q4.53-.73,9.17-1.43l1-.14,4.71-.69c3.37-.47,6.77-.93,10.22-1.39l5.13-.64q7.79-1,15.82-1.8l5.37-.54.19,0,5.23-.5c3.63-.34,7.29-.65,11-.95l1-.08,4.58-.36,5.6-.4c1.8-.13,3.6-.25,5.42-.36,1.21-.08,2.44-.14,3.66-.21h0c2.65-.16,5.28-.33,8-.47l5.76-.29,6.4-.28h0q5.43-.23,10.94-.39l2.24-.07,3.82-.1c1.66-.05,3.33-.08,5-.12l7.6-.13,5.31-.05,6,0c5.36,0,10.7,0,16,.06l2.76,0q9.56.13,18.93.43,6.86.22,13.61.52l5,.24,4.84.26c1.48.08,3,.15,4.44.24l1.67.1q6.8.41,13.47.91l4.43.34,7,.58,7,.63,3.45.33q6.87.67,13.59,1.44l3.34.39h0q4,.46,7.88,1l7.75,1,5.09.72q6.54.93,12.87,2c3.33.54,6.62,1.11,9.87,1.69l.75.13,3.35.61c1.86.34,3.69.69,5.51,1.05h.08c1.55.3,3.09.6,4.62.92l3,.62c1.51.32,3,.63,4.5,1l3,.65,3.08.69q2.85.66,5.62,1.33,3,.72,6,1.47l2.45.63,2.74.73q4.06,1.08,8,2.22l.46.13,2.13.63h.07l3.38,1q3,.93,5.91,1.89l.66.22,3.58,1.21c1.18.4,2.35.82,3.5,1.23l2.28.83q2.26.84,4.45,1.68l.58.22c1.22.48,2.42,1,3.6,1.45,2.14.89,4.21,1.78,6.22,2.69l2,.89h0s0,0,0,0h0l1.77.83.71.34,3.07,1.53,1.61.83c2.38,1.26,4.64,2.52,6.78,3.81l3.39,2.13c.38.24.75.49,1.12.74,1,.64,1.88,1.28,2.77,1.94q2,1.47,3.82,3c.58.48,1.15,1,1.7,1.45.82.73,1.61,1.47,2.36,2.21l.73.74.71.74c.7.74,1.36,1.49,2,2.25.34.43.68.85,1,1.28a2,2,0,0,0,.17.23c.57.76,1.09,1.52,1.56,2.29.16.26.32.51.47.77.32.51.6,1,.86,1.54.14.26.26.52.39.78l.36.78.33.78.15.41a23.58,23.58,0,0,1,.94,3c0,.17.09.34.13.51q.18.81.3,1.65c0,.2.06.4.08.6s0,.22,0,.32l.06.64c0,.24,0,.47,0,.71S587.62,344.6,587.62,344.91Z"/><polygon class="cls-3" points="293.81 266.21 273.27 293.42 293.81 292.5 314.35 293.3 293.81 266.21"/><polygon class="cls-3" points="273.7 293.4 273.28 293.41 252.95 293.78 233.9 295.78 233.52 295.82 233.51 295.63 233.5 295.23 232.89 273.86 232.72 268.14 232.72 268.13 232.73 268.14 232.74 268.14 238.78 271.86 272.83 292.86 273.42 293.23 273.7 293.4"/><polygon class="cls-3" points="174.31 273.44 196.41 300.41 213.88 297.32 233.93 295.79 174.31 273.44"/><polygon class="cls-3" points="196.77 300.35 196.63 300.37 196.4 300.4 178.72 302.9 178.3 302.96 177.97 303.05 169.26 305.41 167.74 305.82 163.85 306.88 163.73 306.91 163.55 306.96 163.54 306.95 163.25 306.78 162.67 306.44 153.18 300.83 121.14 281.91 121.11 281.89 121.16 281.9 121.17 281.9 172.27 294.37 195.17 299.96 196.26 300.22 196.77 300.35"/><polygon class="cls-3" points="163.85 306.88 163.73 306.91 163.54 306.95 148.07 310.4 147.77 310.47 147.55 310.56 136.6 315.1 136.41 315.18 136.38 315.19 135.97 315.04 135.11 314.73 124 310.7 75.52 293.13 75.46 293.11 75.54 293.12 75.55 293.12 144.31 303.83 162.03 306.59 163.25 306.78 163.85 306.88"/><polygon class="cls-3" points="136.64 315.1 136.41 315.18 136.38 315.19 123.74 319.46 123.62 319.5 123.56 319.54 116.26 324.64 116.22 324.67 116.1 324.75 116.08 324.74 115.55 324.62 114.46 324.36 96.32 320.07 39.39 306.62 39.36 306.61 39.4 306.61 116.27 313.32 134.6 314.92 135.97 315.04 136.6 315.1 136.64 315.1"/><polygon class="cls-3" points="14.38 321.81 103.58 335.21 106.91 329.67 116.27 324.64 14.38 321.81"/><polygon class="cls-3" points="1.61 338.03 99.38 346.13 98.37 340.53 103.67 335.1 1.61 338.03"/><polygon class="cls-3" points="1.61 354.58 103.67 357.02 98.37 351.62 99.38 346.01 1.61 354.58"/><polygon class="cls-3" points="14.38 370.74 116.27 367.42 106.91 362.44 103.58 356.91 14.38 370.74"/><polygon class="cls-3" points="39.36 385.82 136.64 376.87 123.62 372.52 116.1 367.31 39.36 385.82"/><polygon class="cls-3" points="163.86 384.95 163.25 385.05 162.05 385.24 75.55 399.13 75.53 399.13 75.46 399.14 75.51 399.12 75.52 399.12 135.12 377.23 135.97 376.92 136.38 376.77 136.42 376.79 136.61 376.86 147.48 381.32 147.77 381.44 148.17 381.53 163.54 384.88 163.76 384.93 163.86 384.95"/><polygon class="cls-3" points="121.12 410.13 121.13 410.13 121.13 410.14 121.11 410.14 121.12 410.13"/><polygon class="cls-3" points="196.77 391.33 196.25 391.46 195.18 391.73 121.17 410.13 121.14 410.13 162.67 385.39 163.25 385.05 163.54 384.88 163.55 384.87 163.76 384.93 163.86 384.95 177.99 388.72 178.3 388.8 178.68 388.85 196.4 391.28 196.68 391.32 196.77 391.33"/><polygon class="cls-3" points="174.31 418.35 233.93 395.71 213.88 394.28 196.41 391.27 174.31 418.35"/><polygon class="cls-3" points="232.72 423.37 273.7 397.91 252.95 397.63 233.52 395.68 232.72 423.37"/><polygon class="cls-3" points="293.81 425.01 314.35 397.82 293.81 398.72 273.27 397.9 293.81 425.01"/><polygon class="cls-3" points="354.9 423.18 354.1 395.45 334.67 397.48 313.92 397.83 354.9 423.18"/><polygon class="cls-3" points="413.31 417.95 391.21 390.9 373.74 393.97 353.69 395.49 413.31 417.95"/><polygon class="cls-3" points="466.51 409.54 424.07 384.36 409.32 388.35 390.84 390.96 466.51 409.54"/><polygon class="cls-3" points="512.16 398.33 451.24 376.12 439.85 380.85 423.75 384.44 512.16 398.33"/><polygon class="cls-3" points="548.26 384.8 471.52 366.54 464 371.8 450.98 376.21 548.26 384.8"/><polygon class="cls-3" points="573.24 369.55 484.04 356.04 480.71 361.61 471.35 366.65 573.24 369.55"/><polygon class="cls-3" points="586.01 353.24 488.24 345.09 489.25 350.71 483.95 356.16 586.01 353.24"/><polygon class="cls-3" points="586.01 336.59 483.95 334.15 489.25 339.58 488.24 345.2 586.01 336.59"/><polygon class="cls-3" points="573.24 320.34 471.35 323.72 480.71 328.72 484.04 334.27 573.24 320.34"/><polygon class="cls-3" points="548.26 305.2 450.98 314.25 464 318.61 471.52 323.83 548.26 305.2"/><polygon class="cls-3" points="512.16 291.84 512.05 291.88 512.04 291.89 452.49 313.89 451.7 314.18 451.69 314.18 451.63 314.21 451.26 314.34 451.24 314.35 451.22 314.34 451.07 314.28 450.99 314.25 440.31 309.86 439.85 309.67 439.24 309.54 424.08 306.23 423.86 306.18 423.76 306.16 424.37 306.06 425.52 305.87 511.98 291.87 512 291.87 512.16 291.84"/><polygon class="cls-3" points="466.51 280.85 466.45 280.89 466.43 280.89 424.92 305.73 424.37 306.06 424.08 306.23 424.07 306.24 423.86 306.18 423.76 306.16 419.88 305.13 418.35 304.72 409.79 302.44 409.32 302.32 408.82 302.25 391.21 299.85 390.84 299.8 390.87 299.79 391.36 299.67 392.4 299.41 466.37 280.88 466.4 280.88 466.51 280.85"/><polygon class="cls-3" points="413.31 272.7 353.69 295.45 373.74 296.87 391.21 299.86 413.31 272.7"/><polygon class="cls-3" points="354.9 267.75 313.92 293.29 334.67 293.54 354.1 295.48 354.9 267.75"/><path class="cls-4" d="M293.81,398.72c-108.36.2-196.52-23.42-196.52-52.64s88.16-53.27,196.52-53.58,196.52,23.3,196.52,52.64S402.17,398.51,293.81,398.72Z"/><polygon class="cls-5" points="293.81 310.29 340.17 311.62 293.81 292.5 293.81 292.5 293.81 292.5 293.81 292.5 293.81 292.5 247.45 311.87 293.81 310.29"/><polygon class="cls-5" points="209.8 318.77 248.78 311.74 167.49 305.28 167.49 305.28 167.49 305.28 167.49 305.28 167.49 305.28 177.76 328.02 209.8 318.77"/><polygon class="cls-5" points="165.1 339.79 178.47 327.69 100.28 336.86 100.28 336.86 100.28 336.86 100.28 336.86 100.28 336.86 162.37 352.37 165.1 339.79"/><polygon class="cls-5" points="180.63 363.52 162.12 351.99 123.62 372.52 123.62 372.52 123.62 372.52 123.62 372.52 123.62 372.52 208.48 373.57 180.63 363.52"/><polygon class="cls-5" points="249.11 378.89 207.39 373.32 226.6 395.64 226.6 395.64 226.6 395.64 226.6 395.64 226.6 395.64 294.52 381.71 249.11 378.89"/><polygon class="cls-5" points="338.51 378.7 293.1 381.71 361.02 395.38 361.02 395.38 361.02 395.38 361.02 395.38 361.02 395.38 380.23 372.96 338.51 378.7"/><polygon class="cls-5" points="407 363.02 379.14 373.21 464 371.8 464 371.8 464 371.8 464 371.8 464 371.8 425.5 351.38 407 363.02"/><polygon class="cls-5" points="422.52 339.16 425.25 351.76 487.34 335.91 487.34 335.91 487.34 335.91 487.34 335.91 487.34 335.91 409.15 327.1 422.52 339.16"/><polygon class="cls-5" points="377.82 318.33 409.86 327.43 420.13 304.57 420.13 304.57 420.13 304.57 420.13 304.57 420.13 304.57 338.84 311.49 377.82 318.33"/><path class="cls-6" d="M427.78,345.29c0,20-60,36.37-134,36.52s-134-15.92-134-35.88,60-36.33,134-36.53S427.78,325.27,427.78,345.29Z"/><polygon class="cls-5" points="293.81 309.4 333.16 330.85 421.16 334.09 357.48 351.03 372.51 374.7 293.81 363.68 215.11 375.03 230.14 351.33 166.46 334.72 254.46 331.05 293.81 309.4"/><path class="cls-7" d="M587.62,344.91c0,.31,0,.62,0,.93,0,.12,0,.23,0,.35s0,.51-.06.77-.06.62-.11.93-.1.68-.16,1-.09.48-.14.72-.16.69-.26,1c-.05.2-.1.41-.17.62-.15.52-.33,1-.52,1.57-.07.2-.14.39-.22.59-.14.35-.29.7-.44,1.05l-.33.71c-.13.27-.27.55-.41.82-.27.5-.54,1-.84,1.5s-.62,1-1,1.54l-.52.76c-.36.51-.74,1-1.13,1.53s-.81,1-1.23,1.51h0c-.44.5-.88,1-1.34,1.49s-1.18,1.24-1.81,1.87h0c-.64.62-1.3,1.23-2,1.84l-.84.73c-.28.25-.57.49-.86.73q-1.8,1.5-3.82,3l-1.36,1-1.41,1c-.48.33-1,.65-1.46,1l-1.5,1-1.55,1-1.59.95c-1.62.95-3.3,1.88-5,2.81-1.1.59-2.24,1.17-3.4,1.76s-2.58,1.26-3.92,1.89l.07,0h-.09l-2,.9c-.44.21-.89.41-1.35.61s-1.13.5-1.7.75c-1.69.74-3.42,1.46-5.19,2.18l-2,.82-.55.22q-3,1.19-6.2,2.34l-2.76,1-2,.7q-4.14,1.43-8.51,2.8l-2.33.72-1.51.47.11,0-.18,0q-2.57.78-5.21,1.53-11.89,3.42-25.19,6.44l-3,.67q-3,.66-6,1.3l-.86.18-3.92.8-1.37.28.07,0-.12,0h0q-4.14.83-8.4,1.61c-.71.14-1.42.27-2.14.39l-2.06.37c-1.07.2-2.14.38-3.22.57-2.16.38-4.34.74-6.53,1.1q-8.11,1.33-16.56,2.52-7,1-14.16,1.86h0l-6.89.82-3.48.39-3.53.38q-3.5.38-7,.72l-7.16.68-.65.06-6.58.56c-3.63.3-7.3.59-11,.85l-7.42.5-3.74.23-.9.05-7.08.4-7.15.35-7.66.32q-6.42.24-12.91.41l-.86,0-2.86.07h-.6l-5.52.11-9.54.12q-3.45,0-6.91,0-6.57,0-13.06-.06l-2.72,0-4.74-.07-4.89-.1-2.12-.05h-.54l-.54,0h0c-.86,0-1.71,0-2.57-.06h-.43l-5.45-.16c-3.86-.13-7.7-.27-11.52-.44l-4.86-.22-3.65-.18-3.5-.19-1-.05c-3.23-.18-6.43-.38-9.62-.59l-5.54-.38c-1.08-.07-2.16-.15-3.23-.24h0l-2.62-.2c-1.53-.11-3.05-.23-4.57-.36l-1.89-.16-4.05-.35-5.37-.49-.34,0-5-.49c-3.46-.34-6.89-.71-10.29-1.09l-5.76-.67-4.73-.58-.59-.07-4.48-.58q-5-.66-10-1.37l-4.55-.68-5-.77-5-.8q-7-1.17-13.8-2.42l-.19,0-4.54-.87h0l-3-.59-.79-.16q-2.73-.56-5.4-1.12l-3-.64-4.42-1c-1.46-.33-2.92-.66-4.35-1L97.33,405q-4.27-1-8.38-2.1l-.89-.23q-5-1.32-9.79-2.7l-.13,0-2.59-.76h-.09l.05,0-2.66-.81q-2.46-.75-4.86-1.52c-1.63-.53-3.25-1.06-4.83-1.6l-2.36-.81-2.32-.82L56.93,393h0c-1.72-.63-3.39-1.26-5-1.89L49.2,390q-3-1.21-5.83-2.44l0,0c-1.33-.59-2.64-1.18-3.92-1.77h0l-2-.94-.55-.26-2-1c-.74-.37-1.47-.74-2.19-1.12s-1.42-.74-2.12-1.12l-.14-.07-1.92-1.07-2-1.14c-.66-.39-1.3-.77-1.93-1.16-1.22-.75-2.4-1.5-3.53-2.26l-.2-.14c-.56-.37-1.11-.75-1.64-1.13l-1.43-1-.3-.22c-.49-.37-1-.73-1.44-1.1s-1.07-.84-1.58-1.26l-1-.83-.87-.76c-.26-.22-.52-.46-.78-.7Q9.9,366.79,8.32,365c-.29-.31-.57-.63-.84-1a41,41,0,0,1-2.54-3.29l-.43-.64c-.15-.22-.28-.43-.42-.65l-.36-.58c-.31-.53-.61-1.07-.89-1.61-.15-.27-.29-.55-.42-.83,0-.09-.09-.18-.13-.28-.14-.28-.26-.57-.38-.86s-.29-.69-.42-1-.22-.61-.32-.91-.16-.49-.23-.73-.06-.19-.08-.29h0c-.06-.24-.13-.48-.18-.71s-.1-.38-.14-.57c-.11-.51-.21-1-.29-1.54l-.06-.49a.17.17,0,0,1,0-.07c-.07-.5-.11-1-.14-1.51,0-.13,0-.25,0-.38s0-.53,0-.8,0-.54,0-.81,0-.24,0-.37c0-.63.1-1.25.19-1.88,0-.22.06-.44.11-.66s.07-.45.12-.68.08-.39.13-.59c.16-.7.36-1.4.59-2.1.1-.31.21-.61.32-.92.25-.66.52-1.31.83-2L2.5,336q.17-.36.36-.72c.17-.33.35-.66.53-1s.38-.66.58-1l.54-.85a.77.77,0,0,1,.09-.13l.65-1c.26-.36.53-.73.81-1.09s.44-.57.68-.86l.12-.15c.46-.57.94-1.13,1.45-1.69l.19-.21c.25-.28.5-.55.77-.82s.61-.64.92-.95l.2-.19c.39-.39.79-.78,1.21-1.16s.89-.82,1.36-1.23,1.14-1,1.73-1.46c.39-.33.78-.64,1.18-1a93.62,93.62,0,0,1,8.67-6c.63-.39,1.27-.78,1.92-1.16l1.7-1,.86-.49c1-.58,2.09-1.15,3.17-1.73,2.29-1.2,4.69-2.4,7.2-3.57h0c2.58-1.21,5.27-2.39,8.07-3.56l2.12-.87c.71-.29,1.43-.58,2.16-.86l2.21-.86c2.13-.82,4.32-1.62,6.57-2.42q2.56-.92,5.24-1.81L68,295.5l3.79-1.22,2.28-.7,1.46-.45-.06,0h.09l2.59-.77,2.63-.76q6.62-1.9,13.66-3.68l2.84-.71,3-.73,2.75-.65q4.38-1,8.91-2,3-.66,6.09-1.29l3.1-.62,0,0h.06l4.58-.9,4.64-.87,5.17-.93c3-.52,6-1,9.05-1.54h.09q4.53-.73,9.17-1.43l1-.14,4.71-.69c3.37-.47,6.77-.93,10.22-1.39l5.13-.64q7.79-1,15.82-1.8l5.37-.54.19,0,5.23-.5c3.63-.34,7.29-.65,11-.95l1-.08,4.58-.36,5.6-.4c1.8-.13,3.6-.25,5.42-.36,1.21-.08,2.44-.14,3.66-.21h0c2.65-.16,5.28-.33,8-.47l5.76-.29,6.4-.28h0q5.43-.23,10.94-.39l2.24-.07,3.82-.1c1.66-.05,3.33-.08,5-.12l7.6-.13,5.31-.05,6,0c5.36,0,10.7,0,16,.06l2.76,0q9.56.13,18.93.43,6.86.22,13.61.52l5,.24,4.84.26c1.48.08,3,.15,4.44.24l1.67.1q6.8.42,13.47.91l4.43.34,7,.58,7,.63,3.45.33q6.87.67,13.59,1.44l3.34.39h0q4,.46,7.88,1l7.75,1,5.09.72q6.53.94,12.85,2c3.34.55,6.63,1.11,9.89,1.68l.75.13,3.35.61c1.86.34,3.69.69,5.51,1.05h0l.11,0-.06,0c1.55.3,3.09.6,4.62.92l3,.62c1.51.32,3,.63,4.5,1l3,.65,3.08.69q2.85.66,5.62,1.33,3,.72,6,1.47l2.45.63,2.74.73q4.06,1.08,8,2.22l.46.13,2.13.63h0l.16,0-.11,0h0l3.37,1q3,.93,5.93,1.88l.66.22,3.58,1.21,3.5,1.23,2.28.83q2.26.84,4.45,1.68l.57.23,3.61,1.44c2.14.89,4.21,1.78,6.22,2.69l2,.89h.09l-.06,0,1.77.83.71.34,3.07,1.53,1.61.83c2.38,1.26,4.64,2.52,6.78,3.81l3.39,2.13c.38.24.75.49,1.12.74,1,.64,1.88,1.29,2.77,1.94q2,1.47,3.82,3c.58.48,1.15,1,1.7,1.45.82.73,1.61,1.47,2.36,2.21l.73.74.71.74c.69.75,1.35,1.5,2,2.25.34.43.68.85,1,1.28a2,2,0,0,0,.17.23c.56.76,1.08,1.53,1.56,2.29.16.26.32.51.47.77.3.51.59,1,.86,1.54.14.26.26.52.39.78l.36.78.33.78.15.41a23.58,23.58,0,0,1,.94,3c0,.17.09.34.13.51q.18.81.3,1.65c0,.2.06.4.08.6s0,.22,0,.32l.06.64c0,.24,0,.47,0,.71S587.62,344.6,587.62,344.91Z"/><path class="cls-8" d="M587.62,344.91c0,.31,0,.62,0,.93,0,.12,0,.23,0,.35s0,.51-.06.77-.06.62-.11.93-.1.68-.16,1-.09.48-.14.72-.16.69-.26,1c-.05.2-.1.41-.17.62-.15.52-.33,1-.52,1.57-.07.2-.14.39-.22.59-.14.35-.29.7-.44,1.05l-.33.71c-.13.27-.27.55-.41.82-.27.5-.54,1-.84,1.5s-.62,1-1,1.54l-.52.76c-.36.51-.74,1-1.13,1.53s-.81,1-1.23,1.51h0c-.44.5-.88,1-1.34,1.49s-1.18,1.24-1.81,1.87h0c-.64.62-1.3,1.23-2,1.84l-.84.73c-.28.25-.57.49-.86.73q-1.8,1.5-3.82,3l-1.36,1-1.41,1c-.48.33-1,.65-1.46,1l-1.5,1-1.55,1-1.59.95c-1.62.95-3.3,1.88-5,2.81-1.1.59-2.24,1.17-3.4,1.76s-2.58,1.26-3.92,1.89l.07,0h-.09l-2,.9c-.44.21-.89.41-1.35.61s-1.13.5-1.7.75c-1.69.74-3.42,1.46-5.19,2.18l-2,.82-.55.22q-3,1.19-6.2,2.34l-2.76,1-2,.7q-4.14,1.43-8.51,2.8l-2.33.72-1.51.47.11,0-.18,0q-2.57.78-5.21,1.53-11.89,3.42-25.19,6.44l-3,.67q-3,.66-6,1.3l-.86.18-3.92.8-1.37.28.07,0-.12,0h0q-4.14.83-8.4,1.61c-.71.14-1.42.27-2.14.39l-2.06.37c-1.07.2-2.14.38-3.22.57-2.16.38-4.34.74-6.53,1.1q-8.11,1.33-16.56,2.52-7,1-14.16,1.86h0l-6.89.82-3.48.39-3.53.38q-3.5.38-7,.72l-7.16.68-.65.06-6.58.56c-3.63.3-7.3.59-11,.85l-7.42.5-3.74.23-.9.05-7.08.4-7.15.35-7.66.32q-6.42.24-12.91.41l-.86,0-2.86.07h-.6l-5.52.11-9.54.12q-3.45,0-6.91,0-6.57,0-13.06-.06l-2.72,0-4.74-.07-4.89-.1-2.12-.05h-.54l-.54,0h0c-.86,0-1.71,0-2.57-.06h-.43l-5.45-.16c-3.86-.13-7.7-.27-11.52-.44l-4.86-.22-3.65-.18-3.5-.19-1-.05c-3.23-.18-6.43-.38-9.62-.59l-5.54-.38c-1.08-.07-2.16-.15-3.23-.24h0l-2.62-.2c-1.53-.11-3.05-.23-4.57-.36l-1.89-.16-4.05-.35-5.37-.49-.34,0-5-.49c-3.46-.34-6.89-.71-10.29-1.09l-5.76-.67-4.73-.58-.59-.07-4.48-.58q-5-.66-10-1.37l-4.55-.68-5-.77-5-.8q-7-1.17-13.8-2.42l-.19,0-4.54-.87h0l-3-.59-.79-.16q-2.73-.56-5.4-1.12l-3-.64-4.42-1c-1.46-.33-2.92-.66-4.35-1L97.33,405q-4.27-1-8.38-2.1l-.89-.23q-5-1.32-9.79-2.7l-.13,0-2.59-.76h-.09l.05,0-2.66-.81q-2.46-.75-4.86-1.52c-1.63-.53-3.25-1.06-4.83-1.6l-2.36-.81-2.32-.82L56.93,393h0c-1.72-.63-3.39-1.26-5-1.89L49.2,390q-3-1.21-5.83-2.44l0,0c-1.33-.59-2.64-1.18-3.92-1.77h0l-2-.94-.55-.26-2-1c-.74-.37-1.47-.74-2.19-1.12s-1.42-.74-2.12-1.12l-.14-.07-1.92-1.07-2-1.14c-.66-.39-1.3-.77-1.93-1.16-1.22-.75-2.4-1.5-3.53-2.26l-.2-.14c-.56-.37-1.11-.75-1.64-1.13l-1.43-1-.3-.22c-.49-.37-1-.73-1.44-1.1s-1.07-.84-1.58-1.26l-1-.83-.87-.76c-.26-.22-.52-.46-.78-.7Q9.9,366.79,8.32,365c-.29-.31-.57-.63-.84-1a41,41,0,0,1-2.54-3.29l-.43-.64c-.15-.22-.28-.43-.42-.65l-.36-.58c-.31-.53-.61-1.07-.89-1.61-.15-.27-.29-.55-.42-.83,0-.09-.09-.18-.13-.28-.14-.28-.26-.57-.38-.86s-.29-.69-.42-1-.22-.61-.32-.91-.16-.49-.23-.73-.06-.19-.08-.29h0c-.06-.24-.13-.48-.18-.71s-.1-.38-.14-.57c-.11-.51-.21-1-.29-1.54l-.06-.49a.17.17,0,0,1,0-.07c-.07-.5-.11-1-.14-1.51,0-.13,0-.25,0-.38s0-.53,0-.8,0-.54,0-.81,0-.24,0-.37c0-.63.1-1.25.19-1.88,0-.22.06-.44.11-.66s.07-.45.12-.68.08-.39.13-.59c.16-.7.36-1.4.59-2.1.1-.31.21-.61.32-.92.25-.66.52-1.31.83-2L2.5,336q.17-.36.36-.72c.17-.33.35-.66.53-1s.38-.66.58-1l.54-.85a.77.77,0,0,1,.09-.13l.65-1c.26-.36.53-.73.81-1.09s.44-.57.68-.86l.12-.15c.46-.57.94-1.13,1.45-1.69l.19-.21c.25-.28.5-.55.77-.82s.61-.64.92-.95l.2-.19c.39-.39.79-.78,1.21-1.16s.89-.82,1.36-1.23,1.14-1,1.73-1.46c.39-.33.78-.64,1.18-1a93.62,93.62,0,0,1,8.67-6c.63-.39,1.27-.78,1.92-1.16l1.7-1,.86-.49c1-.58,2.09-1.15,3.17-1.73,2.29-1.2,4.69-2.4,7.2-3.57h0c2.58-1.21,5.27-2.39,8.07-3.56l2.12-.87c.71-.29,1.43-.58,2.16-.86l2.21-.86c2.13-.82,4.32-1.62,6.57-2.42q2.56-.92,5.24-1.81L68,295.5l3.79-1.22,2.28-.7,1.46-.45-.06,0h.09l2.59-.77,2.63-.76q6.62-1.9,13.66-3.68l2.84-.71,3-.73,2.75-.65q4.38-1,8.91-2,3-.66,6.09-1.29l3.1-.62,0,0h.06l4.58-.9,4.64-.87,5.17-.93c3-.52,6-1,9.05-1.54h.09q4.53-.73,9.17-1.43l1-.14,4.71-.69c3.37-.47,6.77-.93,10.22-1.39l5.13-.64q7.79-1,15.82-1.8l5.37-.54.19,0,5.23-.5c3.63-.34,7.29-.65,11-.95l1-.08,4.58-.36,5.6-.4c1.8-.13,3.6-.25,5.42-.36,1.21-.08,2.44-.14,3.66-.21h0c2.65-.16,5.28-.33,8-.47l5.76-.29,6.4-.28h0q5.43-.23,10.94-.39l2.24-.07,3.82-.1c1.66-.05,3.33-.08,5-.12l7.6-.13,5.31-.05,6,0c5.36,0,10.7,0,16,.06l2.76,0q9.56.13,18.93.43,6.86.22,13.61.52l5,.24,4.84.26c1.48.08,3,.15,4.44.24l1.67.1q6.8.42,13.47.91l4.43.34,7,.58,7,.63,3.45.33q6.87.67,13.59,1.44l3.34.39h0q4,.46,7.88,1l7.75,1,5.09.72q6.53.94,12.85,2c3.34.55,6.63,1.11,9.89,1.68l.75.13,3.35.61c1.86.34,3.69.69,5.51,1.05h0l.11,0-.06,0c1.55.3,3.09.6,4.62.92l3,.62c1.51.32,3,.63,4.5,1l3,.65,3.08.69q2.85.66,5.62,1.33,3,.72,6,1.47l2.45.63,2.74.73q4.06,1.08,8,2.22l.46.13,2.13.63h0l.16,0-.11,0h0l3.37,1q3,.93,5.93,1.88l.66.22,3.58,1.21,3.5,1.23,2.28.83q2.26.84,4.45,1.68l.57.23,3.61,1.44c2.14.89,4.21,1.78,6.22,2.69l2,.89h.09l-.06,0,1.77.83.71.34,3.07,1.53,1.61.83c2.38,1.26,4.64,2.52,6.78,3.81l3.39,2.13c.38.24.75.49,1.12.74,1,.64,1.88,1.29,2.77,1.94q2,1.47,3.82,3c.58.48,1.15,1,1.7,1.45.82.73,1.61,1.47,2.36,2.21l.73.74.71.74c.69.75,1.35,1.5,2,2.25.34.43.68.85,1,1.28a2,2,0,0,0,.17.23c.56.76,1.08,1.53,1.56,2.29.16.26.32.51.47.77.3.51.59,1,.86,1.54.14.26.26.52.39.78l.36.78.33.78.15.41a23.58,23.58,0,0,1,.94,3c0,.17.09.34.13.51q.18.81.3,1.65c0,.2.06.4.08.6s0,.22,0,.32l.06.64c0,.24,0,.47,0,.71S587.62,344.6,587.62,344.91Z"/><path class="cls-9" d="M587.62,344.91c0,.31,0,.62,0,.93,0,.12,0,.23,0,.35s0,.51-.06.77-.06.62-.11.93-.1.68-.16,1-.09.48-.14.72-.16.69-.26,1c-.05.2-.1.41-.17.62-.15.52-.33,1-.52,1.57-.07.2-.14.39-.22.59-.14.35-.29.7-.44,1.05l-.33.71c-.13.27-.27.55-.41.82-.27.5-.54,1-.84,1.5s-.62,1-1,1.54l-.52.76c-.36.51-.74,1-1.13,1.53s-.81,1-1.23,1.51h0c-.44.5-.88,1-1.34,1.49s-1.18,1.24-1.81,1.87h0c-.64.62-1.3,1.23-2,1.84l-.84.73c-.28.25-.57.49-.86.73q-1.8,1.5-3.82,3l-1.36,1-1.41,1c-.48.33-1,.65-1.46,1l-1.5,1-1.55,1-1.59.95c-1.62.95-3.3,1.88-5,2.81-1.1.59-2.24,1.17-3.4,1.76s-2.58,1.26-3.92,1.89l.07,0h-.09l-2,.9c-.44.21-.89.41-1.35.61s-1.13.5-1.7.75c-1.69.74-3.42,1.46-5.19,2.18l-2,.82-.55.22q-3,1.19-6.2,2.34l-2.76,1-2,.7q-4.14,1.43-8.51,2.8l-2.33.72-1.51.47.11,0-.18,0q-2.57.78-5.21,1.53-11.89,3.42-25.19,6.44l-3,.67q-3,.66-6,1.3l-.86.18-3.92.8-1.37.28.07,0-.12,0h0q-4.14.83-8.4,1.61c-.71.14-1.42.27-2.14.39l-2.06.37c-1.07.2-2.14.38-3.22.57-2.16.38-4.34.74-6.53,1.1q-8.11,1.33-16.56,2.52-7,1-14.16,1.86h0l-6.89.82-3.48.39-3.53.38q-3.5.38-7,.72l-7.16.68-.65.06-6.58.56c-3.63.3-7.3.59-11,.85l-7.42.5-3.74.23-.9.05-7.08.4-7.15.35-7.66.32q-6.42.24-12.91.41l-.86,0-2.86.07h-.6l-5.52.11-9.54.12q-3.45,0-6.91,0-6.57,0-13.06-.06l-2.72,0-4.74-.07-4.89-.1-2.12-.05h-.54l-.54,0h0c-.86,0-1.71,0-2.57-.06h-.43l-5.45-.16c-3.86-.13-7.7-.27-11.52-.44l-4.86-.22-3.65-.18-3.5-.19-1-.05c-3.23-.18-6.43-.38-9.62-.59l-5.54-.38c-1.08-.07-2.16-.15-3.23-.24h0l-2.62-.2c-1.53-.11-3.05-.23-4.57-.36l-1.89-.16-4.05-.35-5.37-.49-.34,0-5-.49c-3.46-.34-6.89-.71-10.29-1.09l-5.76-.67-4.73-.58-.59-.07-4.48-.58q-5-.66-10-1.37l-4.55-.68-5-.77-5-.8q-7-1.17-13.8-2.42l-.19,0-4.54-.87h0l-3-.59-.79-.16q-2.73-.56-5.4-1.12l-3-.64-4.42-1c-1.46-.33-2.92-.66-4.35-1L97.33,405q-4.27-1-8.38-2.1l-.89-.23q-5-1.32-9.79-2.7l-.13,0-2.59-.76h-.09l.05,0-2.66-.81q-2.46-.75-4.86-1.52c-1.63-.53-3.25-1.06-4.83-1.6l-2.36-.81-2.32-.82L56.93,393h0c-1.72-.63-3.39-1.26-5-1.89L49.2,390q-3-1.21-5.83-2.44l0,0c-1.33-.59-2.64-1.18-3.92-1.77h0l-2-.94-.55-.26-2-1c-.74-.37-1.47-.74-2.19-1.12s-1.42-.74-2.12-1.12l-.14-.07-1.92-1.07-2-1.14c-.66-.39-1.3-.77-1.93-1.16-1.22-.75-2.4-1.5-3.53-2.26l-.2-.14c-.56-.37-1.11-.75-1.64-1.13l-1.43-1-.3-.22c-.49-.37-1-.73-1.44-1.1s-1.07-.84-1.58-1.26l-1-.83-.87-.76c-.26-.22-.52-.46-.78-.7Q9.9,366.79,8.32,365c-.29-.31-.57-.63-.84-1a41,41,0,0,1-2.54-3.29l-.43-.64c-.15-.22-.28-.43-.42-.65l-.36-.58c-.31-.53-.61-1.07-.89-1.61-.15-.27-.29-.55-.42-.83,0-.09-.09-.18-.13-.28-.14-.28-.26-.57-.38-.86s-.29-.69-.42-1-.22-.61-.32-.91-.16-.49-.23-.73-.06-.19-.08-.29h0c-.06-.24-.13-.48-.18-.71s-.1-.38-.14-.57c-.11-.51-.21-1-.29-1.54l-.06-.49a.17.17,0,0,1,0-.07c-.07-.5-.11-1-.14-1.51,0-.13,0-.25,0-.38s0-.53,0-.8,0-.54,0-.81,0-.24,0-.37c0-.63.1-1.25.19-1.88,0-.22.06-.44.11-.66s.07-.45.12-.68.08-.39.13-.59c.16-.7.36-1.4.59-2.1.1-.31.21-.61.32-.92.25-.66.52-1.31.83-2L2.5,336q.17-.36.36-.72c.17-.33.35-.66.53-1s.38-.66.58-1l.54-.85a.77.77,0,0,1,.09-.13l.65-1c.26-.36.53-.73.81-1.09s.44-.57.68-.86l.12-.15c.46-.57.94-1.13,1.45-1.69l.19-.21c.25-.28.5-.55.77-.82s.61-.64.92-.95l.2-.19c.39-.39.79-.78,1.21-1.16s.89-.82,1.36-1.23,1.14-1,1.73-1.46c.39-.33.78-.64,1.18-1a93.62,93.62,0,0,1,8.67-6c.63-.39,1.27-.78,1.92-1.16l1.7-1,.86-.49c1-.58,2.09-1.15,3.17-1.73,2.29-1.2,4.69-2.4,7.2-3.57h0c2.58-1.21,5.27-2.39,8.07-3.56l2.12-.87c.71-.29,1.43-.58,2.16-.86l2.21-.86c2.13-.82,4.32-1.62,6.57-2.42q2.56-.92,5.24-1.81L68,295.5l3.79-1.22,2.28-.7,1.46-.45-.06,0h.09l2.59-.77,2.63-.76q6.62-1.9,13.66-3.68l2.84-.71,3-.73,2.75-.65q4.38-1,8.91-2,3-.66,6.09-1.29l3.1-.62,0,0h.06l4.58-.9,4.64-.87,5.17-.93c3-.52,6-1,9.05-1.54h.09q4.53-.73,9.17-1.43l1-.14,4.71-.69c3.37-.47,6.77-.93,10.22-1.39l5.13-.64q7.79-1,15.82-1.8l5.37-.54.19,0,5.23-.5c3.63-.34,7.29-.65,11-.95l1-.08,4.58-.36,5.6-.4c1.8-.13,3.6-.25,5.42-.36,1.21-.08,2.44-.14,3.66-.21h0c2.65-.16,5.28-.33,8-.47l5.76-.29,6.4-.28h0q5.43-.23,10.94-.39l2.24-.07,3.82-.1c1.66-.05,3.33-.08,5-.12l7.6-.13,5.31-.05,6,0c5.36,0,10.7,0,16,.06l2.76,0q9.56.13,18.93.43,6.86.22,13.61.52l5,.24,4.84.26c1.48.08,3,.15,4.44.24l1.67.1q6.8.42,13.47.91l4.43.34,7,.58,7,.63,3.45.33q6.87.67,13.59,1.44l3.34.39h0q4,.46,7.88,1l7.75,1,5.09.72q6.53.94,12.85,2c3.34.55,6.63,1.11,9.89,1.68l.75.13,3.35.61c1.86.34,3.69.69,5.51,1.05h0l.11,0-.06,0c1.55.3,3.09.6,4.62.92l3,.62c1.51.32,3,.63,4.5,1l3,.65,3.08.69q2.85.66,5.62,1.33,3,.72,6,1.47l2.45.63,2.74.73q4.06,1.08,8,2.22l.46.13,2.13.63h0l.16,0-.11,0h0l3.37,1q3,.93,5.93,1.88l.66.22,3.58,1.21,3.5,1.23,2.28.83q2.26.84,4.45,1.68l.57.23,3.61,1.44c2.14.89,4.21,1.78,6.22,2.69l2,.89h.09l-.06,0,1.77.83.71.34,3.07,1.53,1.61.83c2.38,1.26,4.64,2.52,6.78,3.81l3.39,2.13c.38.24.75.49,1.12.74,1,.64,1.88,1.29,2.77,1.94q2,1.47,3.82,3c.58.48,1.15,1,1.7,1.45.82.73,1.61,1.47,2.36,2.21l.73.74.71.74c.69.75,1.35,1.5,2,2.25.34.43.68.85,1,1.28a2,2,0,0,0,.17.23c.56.76,1.08,1.53,1.56,2.29.16.26.32.51.47.77.3.51.59,1,.86,1.54.14.26.26.52.39.78l.36.78.33.78.15.41a23.58,23.58,0,0,1,.94,3c0,.17.09.34.13.51q.18.81.3,1.65c0,.2.06.4.08.6s0,.22,0,.32l.06.64c0,.24,0,.47,0,.71S587.62,344.6,587.62,344.91Z"/><path class="cls-10" d="M515.43,293h0l-62.88,21h0l-.82.28h0l-.05,0-.37.13h0l-39.16,13.08-1,.34-.83.28L395,333.18h0l-94.36,31.5L256.54,379.4l-2.7.9-31.45,10.5-9.84,3.29-.16.06h0l-25.13,8.39-37.57,12.54h0c-1.68-.25-3.34-.51-5-.78l-5-.8q-7-1.15-13.8-2.42l-.19,0-4.58-.86h0l-3-.59-.79-.16q-2.73-.56-5.4-1.12l-3-.64-4.42-1c-1.46-.33-2.92-.66-4.35-1L97.33,405q-4.27-1-8.38-2.1l-.89-.23q-5-1.32-9.79-2.7l-.13,0-2.59-.76h-.09l.05,0-2.66-.81q-2.46-.75-4.86-1.52c-1.63-.53-3.25-1.06-4.83-1.6l-2.36-.81-2.32-.82-1.55-.56L100,380.28h0L124.57,373l.16-.05h0l1.17-.34h0l43.81-13,3.08-.91h0l40-11.85,96.92-28.73,22.51-6.68h0l1.53-.45h0l2.76-.82,42-12.44h0l.5-.16h0l18.56-5.5,49.29-14.61h0c3.33.54,6.62,1.11,9.87,1.69l.75.13,3.35.61c1.86.34,3.69.69,5.51,1.05h0l.11,0-.06,0c1.55.3,3.09.6,4.62.92l3,.62c1.51.32,3,.63,4.5,1l3,.65,3.08.69q2.85.66,5.62,1.33,3,.72,6,1.47l2.45.63,2.74.73q4.06,1.08,8,2.22l.46.13,2.13.63h0l.16,0-.11,0Z"/><path class="cls-11" d="M550.68,306.44l-38.55,16h0l-26.63,11-1.57.65-2.78,1.15L466.8,341.2h0l-34,14.09-42.92,17.78h0l-15,6.22L344.12,392h0l-13.44,5.57h0l-.41.17-9.89,4.09-13.14,5.45-20.44,8.47-21.58,8.94h0l-2.55-.07h-.43l-5.45-.16c-3.86-.13-7.7-.27-11.52-.44l-4.86-.22-3.65-.18-3.5-.19-1,0c-3.23-.18-6.43-.38-9.62-.59l-5.54-.38-3.26-.23h0L233,415l34.11-12.9,7.26-2.74,2-.76h0l1.24-.47,33.62-12.71,11.8-4.46h0l3.69-1.41h0l21.61-8.17,17.79-6.72L423.34,343l3.73-1.41L452.36,332l20.15-7.62,1.31-.5.6-.22h0L478,322.3h0l36.86-13.94h0l21.46-8.11,3.61,1.44c2.14.89,4.21,1.78,6.22,2.69l2,.89h.09l-.06,0,1.77.83Z"/><path class="cls-12" d="M252.86,267.15l-14.08,4.76-5.89,2-30.2,10.22-15.39,5.21-15,5.08-19.09,6.46-8.87,3L124,310.75l-7.73,2.62-20,6.75-10.95,3.71-17.79,6-20.46,6.92-12,4.08L.86,352.43h0c-.06-.24-.13-.48-.18-.71s-.1-.38-.14-.57c-.11-.51-.21-1-.29-1.54l-.06-.49a.17.17,0,0,1,0-.07c-.07-.5-.11-1-.14-1.51,0-.13,0-.25,0-.38s0-.53,0-.8,0-.54,0-.81,0-.24,0-.37c0-.63.1-1.25.19-1.88,0-.22.06-.44.11-.66s.07-.45.12-.68.08-.39.13-.59c.16-.7.36-1.4.59-2.1.1-.31.21-.61.32-.92.25-.66.52-1.31.83-2L2.5,336q.17-.36.36-.72c.17-.33.35-.66.53-1s.38-.66.58-1l.54-.85a.77.77,0,0,1,.09-.13l.65-1c.26-.36.53-.73.81-1.09s.44-.57.68-.86l.12-.15c.46-.57.94-1.13,1.45-1.69l.19-.21c.25-.28.5-.55.77-.82s.61-.64.92-.95l.2-.19c.39-.39.79-.78,1.21-1.16s.89-.82,1.36-1.23,1.14-1,1.73-1.46c.39-.33.78-.64,1.18-1a93.62,93.62,0,0,1,8.67-6c.63-.39,1.27-.78,1.92-1.16l1.7-1L29,312c1-.58,2.09-1.15,3.17-1.73,2.29-1.2,4.69-2.4,7.2-3.57h0c2.58-1.21,5.27-2.39,8.07-3.56l2.12-.87c.71-.29,1.43-.58,2.16-.86l2.21-.86c2.13-.82,4.32-1.62,6.57-2.42q2.56-.91,5.24-1.81l2.22-.73,3.79-1.22,2.28-.7,1.46-.45-.06,0h.09l2.59-.77,2.63-.76q6.62-1.9,13.66-3.68l2.84-.71,3-.73,2.75-.65q4.38-1,8.91-2,3-.66,6.09-1.29l3.1-.62,0,0h.06l4.58-.9,4.64-.87,5.17-.93c3-.52,6-1,9.05-1.54h.09q4.53-.74,9.17-1.43l1-.14,4.71-.69c3.37-.47,6.77-.93,10.22-1.39l5.13-.64q7.79-1,15.82-1.8l5.37-.54.19,0,5.23-.5c3.63-.34,7.29-.65,11-.95l1-.08,4.58-.36,5.6-.4c1.8-.13,3.6-.25,5.42-.36,1.21-.08,2.44-.14,3.66-.21h0c2.65-.16,5.28-.33,8-.47l5.76-.29Z"/><path class="cls-13" d="M283.62,343.69l4.38.18Z"/><path class="cls-14" d="M285.83,349.06l.11-.05-.26,0Z"/><path class="cls-15" d="M304.34,110.93s-.06.1-.19.28l-.15-.08Z"/><path class="cls-16" d="M274.85,120.2c6.22-.94,15.14-2.43,19.24-3.91a97.77,97.77,0,0,0,9.91-5.16l.15.08c-1,1.39-6.29,7.7-22.43,12.27-.68-.42-1.32-.78-1.88-1.08A35.14,35.14,0,0,0,274.85,120.2Z"/><path class="cls-15" d="M306.43,117a10.46,10.46,0,0,0,1.19,2.81c-3.45,2.66-9.21,6-18.42,8.75-2.64-1.91-5.32-3.76-7.48-5.08,16.14-4.57,21.43-10.88,22.43-12.27a19.17,19.17,0,0,1,6.73,5.67,22,22,0,0,1-1.8,1.75C307.24,116.27,306.43,117,306.43,117Z"/><path class="cls-15" d="M324.76,170a14.14,14.14,0,0,1,1.72,3.43,18.05,18.05,0,0,0-1.25-3.54c5.51-1.28,16.91-4.58,21.32-10.6,4,4.62,7.9,10.42,9.68,16.89-2.73,2.36-9.55,6.86-23.6,9.22-1-3.73-2.67-8.06-5.08-10.66,0,0-4-6.92,3.66,10.88l-.4.06a30.22,30.22,0,0,0-4.85-5.61s-1.91-1.8-2.87-6.94c0,0-.29-1-.88-2.6C322.4,170.47,323.34,170.3,324.76,170Z"/><path class="cls-15" d="M358.49,185.59a34.3,34.3,0,0,1,.65,5.43c0,1.81-.08,9.9-2.9,11.83,0,0-1.61,2.17.65,3.47,0,0,3,4.38,2.29-14.68a27.86,27.86,0,0,0,1.34,4.8s3.6,6.64,2.45,11.4c-4,1.84-12.71,4-28.05-.9a10.5,10.5,0,0,1,.18-3.89h0a3.87,3.87,0,0,0,.45-2.52,23.85,23.85,0,0,0-1.33-7.94l.12,0S350.82,191.74,358.49,185.59Z"/><path class="cls-15" d="M334.38,148.15a65,65,0,0,1,6.09,4.94c-3.17,2.88-9.47,7.16-21.08,10.52a92.06,92.06,0,0,0-7.28-13.14c4.72-1.24,11.69-3.52,16.32-7.12A36,36,0,0,0,334.38,148.15Z"/><path class="cls-15" d="M314.18,126a8,8,0,0,1-.22,2.07c-.19-.47-.38-.91-.56-1.34C313.67,126.52,313.93,126.28,314.18,126Z"/><path class="cls-15" d="M297,134.37c4.86-1.32,11.66-3.68,16-7.3.56.64.93,1,.93,1s3.62,4.16,8,8.74a57.86,57.86,0,0,1-14.82,7,59.72,59.72,0,0,0-6.91-7S298.94,135.85,297,134.37Z"/><path class="cls-16" d="M334.92,206.94c-.75-.24-1.53-.5-2.32-.78l-.17-.06a10.15,10.15,0,0,0,2.66-3h0A10.5,10.5,0,0,0,334.92,206.94Z"/><path class="cls-16" d="M336.33,215A76.29,76.29,0,0,0,347,217.21h0s-6.08,7.46-19.37,4.77c0,0-16.59-5-24.21-3.38,0,0,14.82-4.1,24.34-9.41C331.62,212.06,336.33,215,336.33,215Z"/><path class="cls-16" d="M306.43,117s.81-.73,2.65,1.63c-.43.37-.92.77-1.46,1.18A10.46,10.46,0,0,1,306.43,117Z"/><path class="cls-16" d="M313.4,126.76c.18.43.37.87.56,1.34,0,0-.37-.39-.93-1Z"/><path class="cls-16" d="M359.14,191v-.38c0,.35,0,.67,0,1l0-.12A4.21,4.21,0,0,0,359.14,191Z"/><path class="cls-16" d="M356.89,206.32c-2.26-1.3-.65-3.47-.65-3.47,2.82-1.93,2.92-10,2.9-11.83a4.21,4.21,0,0,1,0,.5l0,.12C359.87,210.7,356.89,206.32,356.89,206.32Z"/><path class="cls-16" d="M327.55,174.72c2.41,2.6,4,6.93,5.08,10.66l-1.42.22C323.58,167.8,327.55,174.72,327.55,174.72Z"/><path class="cls-16" d="M324.76,170l.47-.11a18.05,18.05,0,0,1,1.25,3.54A14.14,14.14,0,0,0,324.76,170Z"/><path class="cls-17" d="M309.08,118.63a22,22,0,0,0,1.8-1.75,14.69,14.69,0,0,1,1.45,2.47,16.92,16.92,0,0,1,1.85,6.68c-.25.25-.51.49-.78.73A37.79,37.79,0,0,0,309.08,118.63Z"/><path class="cls-17" d="M313,127.07c-4.36,3.62-11.16,6-16,7.3-2.08-1.59-4.92-3.73-7.81-5.81,9.21-2.76,15-6.09,18.42-8.75A48.63,48.63,0,0,0,313,127.07Z"/><path class="cls-18" d="M309.08,118.63a37.79,37.79,0,0,1,4.32,8.13l-.37.31a48.63,48.63,0,0,1-5.41-7.26C308.16,119.4,308.65,119,309.08,118.63Z"/><path class="cls-17" d="M328.43,143.35c-4.63,3.6-11.6,5.88-16.32,7.12a75.47,75.47,0,0,0-5-6.66,57.86,57.86,0,0,0,14.82-7C324,139.06,326.31,141.37,328.43,143.35Z"/><path class="cls-17" d="M346.55,159.27c-4.41,6-15.81,9.32-21.32,10.6-.54-1-1.23-2-2.07-2.09a24.36,24.36,0,0,1,1.6,2.2c-1.42.32-2.36.49-2.55.53-.61-1.68-1.54-4.08-2.82-6.9,11.61-3.36,17.91-7.64,21.08-10.52A70.36,70.36,0,0,1,346.55,159.27Z"/><path class="cls-18" d="M323.16,167.78c.84.14,1.53,1.05,2.07,2.09l-.47.11A24.36,24.36,0,0,0,323.16,167.78Z"/><path class="cls-18" d="M332.33,188.22a26.83,26.83,0,0,0-1.52-2.56l.4-.06Z"/><path class="cls-17" d="M334.14,192.36a58.65,58.65,0,0,0-1.51-7c14.05-2.36,20.87-6.86,23.6-9.22l.15.5s1.29,4.49,2.11,8.93c-7.67,6.15-24.16,7-24.16,7l-.12,0c0-.08,0-.16-.08-.25Z"/><path class="cls-18" d="M332.33,188.22a27.93,27.93,0,0,1,1.8,4.12C333.48,190.85,332.89,189.49,332.33,188.22Z"/><path class="cls-18" d="M334.14,192.36v0a27.93,27.93,0,0,0-1.8-4.12l-1.12-2.62,1.42-.22A58.65,58.65,0,0,1,334.14,192.36Z"/><path class="cls-17" d="M354.31,212.55l-.75.36c-14.64,3.07-18-2-18.64-6,15.34,4.91,24.08,2.74,28.05.9-.06.23-.11.46-.19.69A17.37,17.37,0,0,1,354.31,212.55Z"/><path class="cls-18" d="M334.92,206.94c.6,3.94,4,9,18.64,6-1.59.79-5.28,2.73-6.56,4.3A76.29,76.29,0,0,1,336.33,215s-4.71-2.94-8.58-5.8a30.14,30.14,0,0,0,4.68-3.1l.17.06C333.39,206.44,334.17,206.7,334.92,206.94Z"/><path class="cls-19" d="M314.25,299.32h0c-.73-2.5-8.09-3.27-8.09-3.27h-1.61s-2.59-3.69-3.12,9.64l0,.77C301,319.31,303,322.55,303,322.55c3.9,8.49,9.05-1.09,9.05-1.09C316,306.87,315.38,301.38,314.25,299.32Z"/><path class="cls-20" d="M260.25,262.88s1.65,17.26,2.29,20.9c0,0,.67,2.26,4.26,4.58,0,0,31.29,12.33,35.22,17.71,0,0,8.37-.79,3.62-9.3,0,0-16.21-15.42-29-19.06l1-12.47Z"/><path class="cls-20" d="M305.64,296.77s3.84.35,0,15.18c0,0-3.42,9-3.74-6.8"/><path class="cls-19" d="M301.34,309.17a13.24,13.24,0,0,0,6.89-1.31c2.9-1.69-.38,1.55-.38,1.55a8.42,8.42,0,0,1-7.3,1C296.67,308.89,301.34,309.17,301.34,309.17Z"/><path class="cls-21" d="M288.8,317.92a12.55,12.55,0,0,0,2.42,2l-3.32.7C288.16,319.81,288.45,318.91,288.8,317.92Z"/><path class="cls-21" d="M293.06,320.94a10,10,0,0,0,6.42.49,18.32,18.32,0,0,1-1.43,4Z"/><path class="cls-22" d="M286.23,321a23.75,23.75,0,0,0,.85-3.09l1.65-2.52c0,1.57.07,2.52.07,2.52-.35,1-.64,1.89-.9,2.74Z"/><path class="cls-22" d="M298.05,325.42s0,.44.1,1.24c.17,2.11.54,6.61,1.08,11.38a24,24,0,0,0,2-3.54,31.17,31.17,0,0,0,2-5.82l-1.15-11.06-1.37-2.68a30,30,0,0,1-1.23,6.5A18.52,18.52,0,0,1,298.05,325.42Z"/><path class="cls-23" d="M301.33,292.78a204,204,0,0,1-.63,22.16,42.36,42.36,0,0,1-.67,4.5c-.1.51-.22,1-.34,1.4l-.2.6a1.32,1.32,0,0,0,0,.18,16.84,16.84,0,0,1-1,3c-.1.25-.24.53-.37.8l-.12-.08-.2-.14c-.21-.13-.51-.32-.87-.52l-.4-.21c-.26-.13-.54-.28-.85-.41a12.49,12.49,0,0,0-4.09-1.07,9.1,9.1,0,0,0-3.52.43,6.24,6.24,0,0,0-.92.36v-.08h0a6.17,6.17,0,0,1,.3-1.4s0,0,0,0c.08-.28.16-.58.25-.87s.14-.48.22-.72a.65.65,0,0,1,0-.13c.13-.46.28-.92.45-1.41s.25-.78.4-1.19c0,0,0-.95-.05-2.52-.12-4.13-.44-12.59-1.22-19.64a47.18,47.18,0,0,0-1.71-9.4s-1.26-7.4-2.07-16.11c-.39-4.17-.68-8.65-.68-12.78,0-12.73,16.56-2,18.23,1.29,0,0-2.8,13.34-2.57,18.83,0,.19,0,.37,0,.55A45.88,45.88,0,0,1,301.33,292.78Z"/><path class="cls-23" d="M297.15,327a12.8,12.8,0,0,1-7.77,6s-3.85.23-2.64-7.51A12,12,0,0,1,297.15,327Z"/><path class="cls-19" d="M288,323.34l-.29,1.88a12.18,12.18,0,0,1,9.43,1.79c.33-.55.64-1.09.89-1.59C297.37,324.91,292.83,321.87,288,323.34Z"/><path class="cls-19" d="M286.74,325.51l.35-1.82a.64.64,0,0,0-.18.06C286.78,324.37,286.82,325,286.74,325.51Z"/><path class="cls-19" d="M281.79,332.54s2.63-6.25,4.21-10.83l1.08-3.79c-.08,2,.85,2.6.85,2.6-.35,1.12-.65,2.32-.86,3.25-.14.62-.25,1.22-.33,1.74-1.22,7.76,2.64,7.51,2.64,7.51a12.86,12.86,0,0,0,7.78-6c.33-.55.64-1.09.89-1.59,0,0,.07.44.13,1.24,0,0,1,6.32,3,7.84a24,24,0,0,1-2,3.54l-.52.78c-2.87,3.94-7.33,7-13.95,4.95C284.76,343.77,279,341.83,281.79,332.54Z"/><path class="cls-24" d="M286.74,325.51a8.9,8.9,0,0,1,1-.29l.29-1.88a6.9,6.9,0,0,0-.93.33v0Z"/><path class="cls-24" d="M298.05,325.42s-.74,1.36-.89,1.59l-.13-.08.9-1.6Z"/><path class="cls-25" d="M298.75,278.14a45.88,45.88,0,0,1,2.58,14.64,65.67,65.67,0,0,1-13.81,3,47.18,47.18,0,0,0-1.71-9.4s-1.26-7.4-2.07-16.11c-.39-4.17-.68-8.65-.68-12.78,0-12.73,17.44-5.84,19.1-2.59,0,0-3.67,17.22-3.44,22.71C298.73,277.78,298.73,278,298.75,278.14Z"/><path class="cls-26" d="M286.24,327.3l-.14.08.26,0Z"/><path class="cls-27" d="M279.8,269.23c-7.46.16-14.43-2.75-19.4-5.57a49.26,49.26,0,0,1-7.45-5.11l9.14-64.38.57-4,13.65-1.75c0,.16,0,.32,0,.48,0,.6,0,1.2-.05,1.8-.15,5.77-.17,11.61-.1,17.37.33,26.06,2.55,50.32,3.36,58.36,0,.15,0,.23,0,.23h0C279.7,268.33,279.8,269.23,279.8,269.23Z"/><path class="cls-27" d="M290.13,191.56s8.31,68.28,10.65,74.29c0,0-18.69,2.66-31.94-.75s.26-55,.26-55V195.3l10.7-6.88Z"/><path class="cls-27" d="M320.66,255.28c-.65.15-1.43.38-2.31.66-3,.94-7.15,2.5-10.92,4-2.3.89-4.45,1.76-6.11,2.43l-.57.24-.6.24-.12.05-2,.83-8.14-57.42-2.2-15.47-.09-.65,2.53-2.62.27-.72,3.2-8.44,4.07,8.67,14.81,31.51h0l7.81,16.62S326.48,253.88,320.66,255.28Z"/><path class="cls-26" d="M318.35,255.94c-3,.94-7.15,2.5-10.92,4-2.24-16.84-10.62-57.13-10.62-57.13a34.83,34.83,0,0,1-3.49,2c-.46.24-.93.46-1.39.67l-.06,0c-.67.29-1.33.56-2,.8a30.88,30.88,0,0,1-11.54,1.92c-.5,0-1,0-1.47-.08l-.73-.06a31.61,31.61,0,0,1-7-1.52,22.81,22.81,0,0,1-3.73-1.6c-1.33,3-4.05,44.26-5,58.71a49.26,49.26,0,0,1-7.45-5.11l9.14-64.38,14.21-5.27,6.24-2.32,7.86.25,7.27.23,9.9.31,4.91,31.2h0Z"/><path class="cls-26" d="M279.53,266.66s-3-40.31-2.63-67.37h1.31s.72,54.91,2.68,67.45Z"/><path class="cls-26" d="M300,262.88s-8.3-58.3-9.1-64.81,2.24,5.65,2.24,5.65l8.14,58.64Z"/><path class="cls-13" d="M387.1,207.6"/><path class="cls-28" d="M407.67,227.22c.06.05.21,0,.33-.17s.17-.31.1-.37h0v0l-7.43-6-23.6-20.29c-.24-.2-.82.1-1.29.68s-.64,1.21-.39,1.41h0l23.43,17.6,8.81,7.1h0S407.66,227.22,407.67,227.22Z"/><path class="cls-29" d="M376.8,201.91c.72-.91,1-1.89.61-2.2l-8.56-6.56c-.34-.28-1.13.14-1.76.93s-.88,1.65-.54,1.93l8.23,7C375.16,203.29,376.07,202.81,376.8,201.91Z"/><path class="cls-30" d="M368.07,186.58h0l-4.22,4.31-2.77,2.56a9.7,9.7,0,0,0,2,3,7.64,7.64,0,0,0,5.68,2.31,4.48,4.48,0,0,0,3,.27c3.11.91,4.16-1.15,4.16-1.15C376.41,193.54,370.45,188.45,368.07,186.58Z"/><path class="cls-31" d="M301.55,197.65a13.1,13.1,0,0,0-5,.91c-.33.11-.62.22-.87.32l-.85.35c-.61.4-1.23.78-1.84,1.13a26.85,26.85,0,0,1-5.67,2.35,30.36,30.36,0,0,1-18.31-1,1.15,1.15,0,0,0-.17-.06,30.56,30.56,0,0,1-5.37-2.47l-.11-9.61-.77-70,12.78-1.3,1.4-.15,1.81-.19,9.64,9.31,12.19,18.15S301.76,164,302.28,179C302.64,189.23,302.62,197.76,301.55,197.65Z"/><path class="cls-32" d="M302.28,179l-3.06-13.79-19-26.1s5,17.71,9.6,35.45c-5.59-.3-14.84-5.05-14.84-5.05l-2.54,2.21c2.77-21.21,6.16-44.48,6.16-44.48l2-1.38-.37-2-3.43-5.72-.7-1.16-.7,1.31-3.49,6.45-8.52,64.87.11,9.61a31.14,31.14,0,0,0,5.36,2.46h0a1.15,1.15,0,0,1,.17.06,30.36,30.36,0,0,0,18.31,1l3.39-1.22,5.53-2.82h0a13.75,13.75,0,0,1,5.3-1C302.62,197.76,302.64,189.23,302.28,179Z"/><path class="cls-33" d="M275.42,118.7s-16.66,87.1-18.8,172.78c0,0-32.85-22.44-37.86-32.24,0,0,17-78.5,23.8-85l6.89-60.11Z"/><path class="cls-33" d="M350,254.6c-3.7,10.36-33.36,36.88-33.36,36.88-7.09-45.37-18-97.77-26.6-127.34-1.83-6.28-3.55-12-5.11-17-4.8-15.49-8.06-24.61-8.06-24.61l25.16-7.93,14.63,58.71C322.48,180.7,350,254.6,350,254.6Z"/><path class="cls-32" d="M290.07,164.14l-4.82,2-3.8,1.58s-2.84-19.92-5.34-26.61c-2.5,6.69-5.34,26.61-5.34,26.61l-4.54-1.89-6.14-2.54c.79-5.17,9.62-20.7,11.88-24.61l.52-.9,5.45-4.56-.92,3.57,2.71,1s.6,1,1.54,2.67,2.3,4.07,3.69,6.68C286.52,152.16,288.24,157.86,290.07,164.14Z"/><path class="cls-22" d="M292.13,163.29l-2.06.85c-1.83-6.28-3.55-12-5.11-17C288.13,153,291.64,160.11,292.13,163.29Z"/><path class="cls-34" d="M276.18,137.45a13.11,13.11,0,0,0-1.63,4.11c-2.19,7.79-4.39,23.21-4.39,23.21l-10.25-4.24c.62-4.19,6.77-15.46,10-21.15,1.16-2,1.93-3.36,1.93-3.36Z"/><path class="cls-34" d="M292.52,160.53l-10.25,4.24s-2.19-15.24-4.36-23.08a14.17,14.17,0,0,0-1.66-4.24l4.36-1.43s.84,1.45,2.08,3.65C285.94,145.42,291.9,156.41,292.52,160.53Z"/><path class="cls-30" d="M276.18,137.45a13.11,13.11,0,0,0-1.63,4.11,11.56,11.56,0,0,1-4.66-2.18c1.16-2,1.93-3.36,1.93-3.36Z"/><path class="cls-30" d="M282.69,139.67a10,10,0,0,1-4.78,2,14.17,14.17,0,0,0-1.66-4.24l4.36-1.43S281.45,137.47,282.69,139.67Z"/><path class="cls-35" d="M282.89,131.18c0,4-2.81,7.27-6.31,7.27s-6.29-3.25-6.29-7.27,2.81-7.25,6.29-7.25S282.89,127.18,282.89,131.18Z"/><path class="cls-36" d="M282.89,131.18c0,4-2.81,7.27-6.31,7.27V123.93C280.08,123.93,282.89,127.18,282.89,131.18Z"/><path class="cls-37" d="M276.59,125.93c-2.41,0-4.36,2.35-4.36,5.25s1.95,5.26,4.36,5.26,4.36-2.36,4.36-5.26S279,125.93,276.59,125.93Zm0,9c-2,0-3.63-2-3.63-4.38s1.62-4.37,3.63-4.37,3.63,2,3.63,4.37S278.59,134.93,276.59,134.93Z"/><ellipse class="cls-38" cx="276.59" cy="130.55" rx="3.63" ry="4.37"/><path class="cls-39" d="M276.59,127.31a1.65,1.65,0,1,0,1.35,1.62A1.5,1.5,0,0,0,276.59,127.31Z"/><path class="cls-33" d="M246.41,108.64s-10.69,3.85-12.21,8.07c0,0-7.47,22.37-11.83,40.92,0,0-4.37,8.94-3.49,13.09,0,0,9-21.6,32.41-20.29l-1.13-2.19,1.13-12.87S255.18,111.15,246.41,108.64Z"/><path class="cls-22" d="M250.16,148.24s-7.72-9.38-13.18-10c0,0,6.82-3.2,10.09,2.4Z"/><path class="cls-33" d="M266.31,154c-4.39,8.45-2.89,22.29-2.18,27.17.17,1.12.29,1.77.29,1.77-44.79,5-45.54-12.21-45.54-12.21,9.38-24.66,32.41-20.29,32.41-20.29l15.82,2.18A15.52,15.52,0,0,0,266.31,154Z"/><path class="cls-22" d="M251.29,150.43s-21.52-4-30.79,16.56C220.5,167,238.11,146.5,251.29,150.43Z"/><path class="cls-22" d="M267.11,152.61s2.26,19.2-2.69,30.32C264.42,182.93,260.14,162.86,267.11,152.61Z"/><path class="cls-33" d="M268.2,180.7c-.23-1.12-3.47-17.57,2.34-26.13C265.09,163,268,179.59,268.2,180.7Z"/><path class="cls-40" d="M268.21,180.76a.28.28,0,0,0,0-.06c-.23-1.12-3.47-17.57,2.34-26.13C270.54,154.57,272.5,171.15,268.21,180.76Z"/><path class="cls-22" d="M247.84,145.66a123.79,123.79,0,0,0,3.45-14.22s.45-12.51-3.37-17.17l3.93-1.76s1.45,27.22-1.69,35.73Z"/><path class="cls-31" d="M269.4,156.6a14.32,14.32,0,0,1,1.14-2l-4.23-.58c-4.39,8.45-2.89,22.29-2.18,27.17,1.31-.11,2.67-.24,4.08-.4a.28.28,0,0,0,0-.06A60.83,60.83,0,0,1,267.15,167,27.62,27.62,0,0,1,269.4,156.6Z"/><path class="cls-33" d="M374.41,176.88S367,194.57,352.16,202.4L323.64,172,314,161.8l-7.7-13.55s-11.44-30-1.69-38.74l11.44,4.74,27.61,34Z"/><path class="cls-22" d="M298.77,117s.79,20.39,3.63,26.94c0,0-8-18.6-5.63-27.3S298.77,117,298.77,117Z"/><path class="cls-22" d="M302.4,143.93,314,161.8,316.37,172S304.34,152,302.4,143.93Z"/><path class="cls-22" d="M374.41,176.88s-.28.66-.83,1.78c-2.18,4.42-8.68,16-19.48,22.62-.63.4-1.28.77-1.94,1.12L323.64,172c20.34-2.9,20.06-23.77,20.06-23.77Z"/><path class="cls-32" d="M376.15,181.06s-6.59,15.71-19.76,22.66l-2.29-2.44c10.8-6.58,17.3-18.2,19.48-22.62Z"/><polygon class="cls-18" points="251.44 77.87 241.85 89.16 250.56 100.22 264.25 102.44 259.21 75.26 251.44 77.87"/><path class="cls-41" d="M302.23,86.86a17.28,17.28,0,0,1-7.15,8.4s0,0,0,0c-8.46,5.44-20.38,5.53-20.38,5.53-15.6.94-22.61-7.92-24.65-11.17a11.55,11.55,0,0,1-.66-1.16L248,84.2l-2.71-8.72-7.18-23V48.67l46.76,9.11S307.49,73.07,302.23,86.86Z"/><path class="cls-30" d="M302.23,86.86a17.28,17.28,0,0,1-7.15,8.4,17.31,17.31,0,0,1,2.64-2.6l-3.32-1.91c-26.43-.41-41.11-17.17-41.11-17.17,2.15,13.41,13.27,19.51,13.27,19.51-19-3.62-25.47-23.7-25.47-23.7-.67,3.48,3.58,2.85,4.24,6.09l-7.18-23V48.67l46.76,9.11S307.49,73.07,302.23,86.86Z"/><path class="cls-42" d="M249.69,86.23a13.71,13.71,0,0,1,1.55,4.39,10.83,10.83,0,0,1-.64-1.12l-1.3-4.12C249.54,85.93,249.69,86.23,249.69,86.23Z"/><path class="cls-15" d="M304.65,109.51a2.35,2.35,0,0,1-.2.22l-.12-.08Z"/><path class="cls-16" d="M277.2,114.64c5.69-.21,13.87-.66,17.7-1.53a90.49,90.49,0,0,0,9.43-3.46l.12.08c-1,1.09-6.42,6-21.39,8.33-.58-.42-1.11-.79-1.59-1.09A33.14,33.14,0,0,0,277.2,114.64Z"/><path class="cls-21" d="M243.42,106.66c0-.09,0-.17,0-.26h0A2.28,2.28,0,0,0,243.42,106.66Z"/><path class="cls-21" d="M243.89,113.54a5.56,5.56,0,0,0,.29.68A6.32,6.32,0,0,1,243.89,113.54Z"/><path class="cls-21" d="M243.1,110.94c.07.25.15.46.22.68C243.25,111.4,243.17,111.18,243.1,110.94Z"/><path class="cls-21" d="M243.42,105.07c0-.21,0-.39,0-.6C243.43,104.68,243.43,104.86,243.42,105.07Z"/><path class="cls-21" d="M243.41,102.1c0-.19,0-.36.08-.56C243.45,101.74,243.44,101.91,243.41,102.1Z"/><path class="cls-21" d="M242.66,108.69c0,.22.06.41.09.62C242.72,109.1,242.69,108.91,242.66,108.69Z"/><path class="cls-21" d="M242.85,109.9c0,.24.1.45.15.66C243,110.35,242.89,110.14,242.85,109.9Z"/><path class="cls-43" d="M307.63,103.8c-.05-.59-.11-1-.11-1a5.73,5.73,0,0,0,0-1.86c-.65-3.46-5.11-2.38-5.11-2.38a33.73,33.73,0,0,1,1.05,11.55,63.06,63.06,0,0,1,4.07-7.31,10.88,10.88,0,0,1-4.15,8.24c-.07.61.36,2.63.26,3.26,2.2-2.37,3.57-4.06,3.57-4.06C308.25,109,307.74,105.16,307.63,103.8Z"/><polygon class="cls-44" points="240.29 106.02 240.29 106.02 240.29 106.02 240.29 106.02"/><path class="cls-44" d="M243.4,106.4h0c0-.12,0-.22,0-.34C243.39,106.18,243.4,106.28,243.4,106.4Z"/><path class="cls-18" d="M307.52,102.79a63.06,63.06,0,0,0-4.07,7.31c0,.31-.05.62-.08.93A10.88,10.88,0,0,0,307.52,102.79Z"/><path class="cls-45" d="M266.27,114.63c-4.16.62-8.25,2.13-11.19,5.25,3.43,1.56,10.67.6,16.57,2C268.68,118.92,266.71,117.18,266.27,114.63Z"/><path class="cls-44" d="M266,112.57l-1.81.65a31.63,31.63,0,0,0-9.11,6.66c2.94-3.12,7-4.63,11.19-5.25A19.69,19.69,0,0,1,266,112.57Z"/><path class="cls-45" d="M272.43,109.9c.1.22.19.46.3.66l-.17,0c.12,0,.23,0,.35-.06a8.07,8.07,0,0,1-.07-.81Z"/><path class="cls-18" d="M272.56,110.6c-.68.18-3.36.88-6.56,2a19.69,19.69,0,0,0,.27,2.06,37.73,37.73,0,0,1,7.81-.31,14.35,14.35,0,0,1-1.17-3.78C272.79,110.56,272.68,110.59,272.56,110.6Z"/><path class="cls-44" d="M287.54,112.87,285,111.76a26.93,26.93,0,0,0-12-1.22,14.35,14.35,0,0,0,1.17,3.78,50.16,50.16,0,0,1,9.37,1.42c3.6,1.07,5.45,1,6.41.52A21.07,21.07,0,0,0,287.54,112.87Z"/><path class="cls-43" d="M287.54,112.87l1.34.48a30.71,30.71,0,0,0-3.92-1.59l2.58,1.11Z"/><path class="cls-43" d="M293,97.84a68.48,68.48,0,0,1-7.63.58c.47,5.28.6,11-.63,13.24l.24.1a30.71,30.71,0,0,1,3.92,1.59c2.17.77,3.92,1.49,5.23,2.05,0-1.74.12-7.44-.22-13.26a5.65,5.65,0,0,1-1.26-.58S291.47,99.1,293,97.84Z"/><path class="cls-18" d="M293,97.84c-1.51,1.26-.35,3.72-.35,3.72a5.65,5.65,0,0,0,1.26.58c-.09-1.47-.21-3-.36-4.38Z"/><path class="cls-18" d="M289.86,116.26a1.67,1.67,0,0,0,.91-2l-3.23-1.44A21.07,21.07,0,0,1,289.86,116.26Z"/><path class="cls-43" d="M294.11,115.4c0,.35,0,.54,0,.54a29.31,29.31,0,0,0-3.32-1.63,1.67,1.67,0,0,1-.91,2c1,1.83,1.54,2.64,1.52,5.15,1.89-1.32,4.13-1.22,5.83-2.74l-.44-2S295.84,116.15,294.11,115.4Z"/><path class="cls-43" d="M288.88,113.35l-1.34-.48h0l3.23,1.44h0C290.13,114,289.51,113.65,288.88,113.35Z"/><path class="cls-44" d="M251.71,97.2l2.15-.42-2.42.46Z"/><path class="cls-45" d="M249.74,118.11h0c1.68,1.08,4,1.09,5.34,1.77,0,0-2.59-2.74-5.63-5.78C249.66,115.1,249.35,117.12,249.74,118.11Z"/><path class="cls-45" d="M264.13,113.24a52.06,52.06,0,0,1,.12-17.43c-1.89-.07-3.82-.07-5.68,0-1.72.37-3.33.71-4.7,1h0l-2.15.42h0a31.71,31.71,0,0,0-2.7,13.47,2.87,2.87,0,0,1,.66.86s5.64,6.39,5.41,8.35a31.63,31.63,0,0,1,9.11-6.66Z"/><path class="cls-44" d="M249.67,111.53a2.87,2.87,0,0,0-.66-.86,20.39,20.39,0,0,0,.44,3.43c3,3,5.63,5.78,5.63,5.78C255.31,117.92,249.67,111.53,249.67,111.53Z"/><path class="cls-45" d="M244.18,114.22a5.56,5.56,0,0,1-.29-.68c0-.05-.54-1.87-.57-1.92-.07-.22-.15-.43-.22-.68s-.07-.26-.1-.38-.11-.42-.15-.66-.07-.39-.1-.59-.06-.4-.09-.62.77-1.76.76-2a2.28,2.28,0,0,1,0-.26c-1-.86-2.65-.23-3.11-.38.09,1.67,3.89,8.3,3.89,8.3v-.1Z"/><path class="cls-44" d="M243.39,106.06c0-.11,0-.22,0-.32a4.36,4.36,0,0,0-3.1.28h0c.46.15,2.09-.48,3.11.38C243.4,106.28,243.39,106.18,243.39,106.06Z"/><polygon class="cls-43" points="253.87 96.78 253.87 96.78 253.86 96.78 253.87 96.78"/><path class="cls-43" d="M251.44,97.24l-1.77.34,2-.38Z"/><path class="cls-43" d="M249.66,97.51v.07l0-.07Z"/><path class="cls-43" d="M249.7,97.51l0,.07.15-.09Z"/><path class="cls-43" d="M249.82,97.49l-.15.09,1.77-.34Z"/><path class="cls-43" d="M290.77,114.3h0a29.31,29.31,0,0,1,3.32,1.63s0-.19,0-.54c-1.31-.56-3.06-1.28-5.23-2.05C289.51,113.65,290.13,114,290.77,114.3Z"/><path class="cls-43" d="M266.27,114.63c.44,2.55,2.41,4.29,5.38,7.21h0c1.91.44,3.77.85,5.44,1.21,2.18.46,3.64-.75,5-.49-1.68-2.3-6-3.63-8-8.24A37.73,37.73,0,0,0,266.27,114.63Z"/><polygon class="cls-43" points="271.65 121.84 271.65 121.84 271.65 121.84 271.65 121.84"/><path class="cls-43" d="M268.78,111.42a29.84,29.84,0,0,0-4.59,1.8l1.81-.65h0Z"/><path class="cls-46" d="M272.43,109.9l-3.65,1.52a28.66,28.66,0,0,1,3.78-.82l.17,0C272.62,110.36,272.53,110.12,272.43,109.9Z"/><path class="cls-46" d="M268.78,111.42,266,112.57h0c3.2-1.09,5.88-1.79,6.56-2A28.66,28.66,0,0,0,268.78,111.42Z"/><path class="cls-43" d="M272.43,109.9c-1.46-3.34-1-8.93-.33-13.08a36.87,36.87,0,0,0-7.85-1,52.06,52.06,0,0,0-.12,17.43l.06,0a29.84,29.84,0,0,1,4.59-1.8Z"/><path class="cls-45" d="M303.11,111.21a5.1,5.1,0,0,1,.34-1.11,33.73,33.73,0,0,0-1.05-11.55s-3.93,5.15-8.51,3.59c.34,5.82.25,11.52.22,13.26,1.73.75,2.66,1.23,2.66,1.23l.44,2c1-.84,2.27-1.49,3.12-2.32,1.19-1.16,2.37-1.07,3.3-2.06.1-.63-.33-2.65-.26-3.26Z"/><path class="cls-44" d="M293.53,97.76c.15,1.43.27,2.91.36,4.38,4.58,1.56,8.51-3.59,8.51-3.59a24.67,24.67,0,0,0-6-1.4A25.52,25.52,0,0,1,293.53,97.76Z"/><path class="cls-44" d="M303.37,111c0-.31.06-.62.08-.93a5.1,5.1,0,0,0-.34,1.11Z"/><path class="cls-43" d="M249.45,114.1c-2.34-2.34-4.14-6.09-6-7.7,0,.09,0,.17,0,.26,0,.27-.78,1.78-.76,2s.06.41.09.62.06.41.1.59.1.45.15.66.06.26.1.38.15.46.22.68c0,0,.54,1.87.57,1.92a2.87,2.87,0,0,0,.18.48s.05.12.07.15l0,.15.38.27c.94.67,2.48,1.79,5.18,3.52h0C249.35,117.12,249.66,115.1,249.45,114.1Z"/><path class="cls-18" d="M243.39,106.06c0,.12,0,.22,0,.34,1.91,1.61,3.71,5.36,6,7.7a20.39,20.39,0,0,1-.44-3.43c-1.39-1.36-3.53-4-5.61-4.93C243.4,105.84,243.38,106,243.39,106.06Z"/><path class="cls-43" d="M243,110.56c0,.12.06.26.1.38C243.06,110.82,243,110.68,243,110.56Z"/><path class="cls-43" d="M243.42,105.07l0,.67h0C243.4,105.52,243.41,105.29,243.42,105.07Z"/><path class="cls-43" d="M242.75,109.31c0,.2.06.41.1.59C242.81,109.72,242.78,109.51,242.75,109.31Z"/><path class="cls-43" d="M244.18,114.32"/><path class="cls-43" d="M243.32,111.62s.54,1.87.57,1.92S243.35,111.67,243.32,111.62Z"/><path class="cls-43" d="M243.45,104.47c0-.39-.1-2,0-2.37C243.35,102.52,243.48,104.08,243.45,104.47Z"/><path class="cls-43" d="M243.42,106.66c0,.27-.78,1.78-.76,2C242.64,108.44,243.43,106.93,243.42,106.66Z"/><path class="cls-43" d="M243.39,105.74c0,.1,0,.21,0,.32,0-.11,0-.22,0-.32Z"/><path class="cls-45" d="M285.35,98.42l-1.93,0a61,61,0,0,1-9.52-1h0a14.22,14.22,0,0,0-1.81-.6c-.67,4.15-1.13,9.74.33,13.08l.41-.17a8.07,8.07,0,0,0,.07.81,26.93,26.93,0,0,1,12,1.22l-.24-.1C286,109.39,285.82,103.7,285.35,98.42Z"/><path class="cls-45" d="M291.38,121.41c0-2.51-.52-3.32-1.52-5.15-1,.46-2.81.55-6.41-.52a50.16,50.16,0,0,0-9.37-1.42c2,4.61,6.28,5.94,8,8.24a1.72,1.72,0,0,0,.6,0C284.28,122.5,288.87,122.3,291.38,121.41Z"/><path class="cls-43" d="M243.87,113.49a6.45,6.45,0,0,0,.31.83l.14-.14Z"/><path class="cls-43" d="M251.7,97.21h-.13a.68.68,0,0,1-.14,0,16.15,16.15,0,0,0-6.32,1.45c-.14.07-.23.14-.27.15v0a3.66,3.66,0,0,0-.9.73,18.69,18.69,0,0,0-.42,1.86s0,0,0,.09,0,.37-.07.56c-.06.42.06,2,0,2.36,0,.22,0,.4,0,.61s0,.44,0,.66c2.09.91,4.22,3.57,5.61,4.93A31.53,31.53,0,0,1,251.7,97.21Z"/><path class="cls-45" d="M242.32,101.82a31.17,31.17,0,0,0-2,4.19,4.38,4.38,0,0,1,3.11-.28q0-.33,0-.66c0-.21,0-.39,0-.61,0-.38-.09-1.94,0-2.36,0-.19.05-.37.07-.56s0-.05,0-.09a18.69,18.69,0,0,1,.42-1.86A13,13,0,0,0,242.32,101.82Z"/><path class="cls-22" d="M265.75,181l-.6,0-.73,1.86c-11.7,1.16-26.33,0-26.33,0l-.66,2.81c5.2,1.87,27.51,1.61,27.51,1.61l.79-6.19h0Z"/><path class="cls-42" d="M276.22.09S225.31-5,218.8,61.18c0,0-.26,6.84-3.23,10.72,0,0-17.09,15.37,1.43,34,0,0-5-7.88-.63-18.53,0,0,3,20.88,23.3,23.85A19.51,19.51,0,0,1,227.1,94.89s6.68,15.82,20.33,10.61c0,0,6.83,3.1,11.66-3,0,0-6.78.06-7.48-6.88,0,0,4.15-7,0-14.36,0,0-5.28-10.52-3.47-19.68,0,0,2.56,24,21.83,27.56,0,0-11.27-6-13.44-19.21,0,0,14.88,16.5,41.68,16.91l3.36,1.88s-6.57,4.8-4.5,9.82c0,0,2.44,5.77-1.51,7,0,0,24.77,5.78,29.45-18.29,0,0,5.44,6.54.38,15.3,0,0,16.18-13.39,12.19-30.69,0,0,14.43,10.79,16.45,20,0,0,1.29-14.44-7.91-24.14,0,0-14.81-12.78-16.72-30.91C329.4,36.77,323.82,4,276.22.09Z"/><path class="cls-26" d="M248.14,61.59s-.87-25.56,9.21-33.45C257.35,28.14,251.69,34.26,248.14,61.59Z"/><path class="cls-26" d="M301.57,88.73s-9.69,1.83-7.76-34.22C293.81,54.51,294,76.16,301.57,88.73Z"/><path class="cls-26" d="M301.57,88.73s6.51-11.65,4.83-17.27a30.55,30.55,0,0,0-2.81,6.08S304,81.53,301.57,88.73Z"/><path class="cls-26" d="M297.86,101.92s4.67-6.76,4-8.68c0,0-1.15,1.13-2.76,2.66Z"/><path class="cls-26" d="M325,87.25s4.3-11.31,2.21-18.45c0,0,2.82,18.38.27,27.3C327.49,96.1,328.09,91,325,87.25Z"/><path class="cls-26" d="M337.58,71.86S335.16,58,331.51,51.17C331.51,51.17,340.62,63.29,337.58,71.86Z"/><path class="cls-26" d="M216.37,87.37s3.74-13.15,6.93-16.6c0,0-6.23,16.11-2.21,28.53A26.8,26.8,0,0,1,216.37,87.37Z"/><path class="cls-26" d="M227.1,94.89s-.87-11.71,1.77-14C228.87,80.84,231.22,79,227.1,94.89Z"/><path class="cls-26" d="M251.61,95.63s-3-8.77-1.82-12.25C249.79,83.38,252.23,84,251.61,95.63Z"/><path class="cls-26" d="M247.43,105.5s-12.67-5.18-10.72-13.93c0,0-2.16,6.06-.94,8.34S242.06,104.79,247.43,105.5Z"/><path class="cls-26" d="M327.22,68.8s-5.37-16.08-3.66-19.95c0,0,1-.24,1.66,2.78C325.22,51.63,324.44,58.65,327.22,68.8Z"/><path class="cls-26" d="M294.9,42.49s.32-18.09-3.38-22.09C291.52,20.4,298.93,22.08,294.9,42.49Z"/><path class="cls-26" d="M256.53,69.94a29.15,29.15,0,0,1,1.21-17.67s1.54,25.4,32.82,34C290.56,86.28,268.46,84.19,256.53,69.94Z"/><path class="cls-22" d="M300.39,135.44s.51-10.43,3.94-12.28c0,0,1.47-.47-1.84,5C302.49,128.11,300.56,132.62,300.39,135.44Z"/><path class="cls-47" d="M337.75,54.72s-54.43-4.38-66.06,116.49c0,0-4.8,27.93-8,37.28,0,0-9.72,58.21,15.4,68.18,0,0,39.76,8.18,61.11-57.44C340.19,219.23,393.22,51.78,337.75,54.72Z"/><path class="cls-31" d="M351,135.25c-9.13.22-32.42,5-41.23,46.33a77.09,77.09,0,0,0-1.82,15.3A73.23,73.23,0,0,1,284.08,178a76.68,76.68,0,0,1,1.45-20.41c9.62-47.45,39.08-42.15,39.08-42.15C336.12,117.32,344.69,124.7,351,135.25Z"/><path class="cls-33" d="M367,263.39c0,.36-.06.71-.1,1.05-2.85,28-18.71,21.16-18.71,21.16-7.44-6.15-4.25-8.73-4.25-8.73,11.69,9.86,12.27-7.1,12.27-7.1a31.37,31.37,0,0,0-.49-5.41v0a37.63,37.63,0,0,0-3.58-10.52c-8.94-17.7-30.44-31.31-41.93-37.6a67,67,0,0,1-2.2-19.33,77.09,77.09,0,0,1,1.82-15.3c8.81-41.36,32.1-46.11,41.23-46.33C375.48,175.87,367,263.39,367,263.39Z"/><path class="cls-41" d="M280.85,160.48c-2.16-3.2-6.49-3.86-9.56-3.89,0,0-2.07,2.52-2.24,11a9.21,9.21,0,0,0,1.1.17A7.61,7.61,0,0,0,276,165.8a4.5,4.5,0,0,0,2.48-1.75C281.39,162.72,280.85,160.48,280.85,160.48Z"/><path class="cls-30" d="M270.07,156.61h-.67A27.62,27.62,0,0,0,267.15,167a9.46,9.46,0,0,0,1.9.61c.17-8.46,2.24-11,2.24-11C270.86,156.59,270.44,156.59,270.07,156.61Z"/><path class="cls-32" d="M310.18,216.21c-4.56-2.5-7.54-3.85-7.54-3.85C289,204.34,284.87,190,284.08,178A73.23,73.23,0,0,0,308,196.88,67,67,0,0,0,310.18,216.21Z"/><path class="cls-22" d="M355.69,264.29v0a37.63,37.63,0,0,0-3.58-10.52c-8.94-17.7-30.44-31.31-41.93-37.6a67,67,0,0,1-2.2-19.33,67.41,67.41,0,0,0,8.39,3.46S355.62,231.56,355.69,264.29Z"/><path class="cls-48" d="M408.1,226.68h0v0l-7.43-6-23.19-19.95c.16-.47.16-.86-.06-1l-1.8-1.39a2.26,2.26,0,0,0,.31-.42c.32-2.86-2.13-6-4.53-8.4a54.44,54.44,0,0,0,4.76-8.44l-2.57-2.4v0c.54-1.1.82-1.75.82-1.75l-12-11.17a134.72,134.72,0,0,0-4.89-16.64c8.38-45.47,10.89-96-19.79-94.35a15.7,15.7,0,0,0-2.08,0,44.61,44.61,0,0,1-6.27-18S323.82,4,276.22.09c0,0-50.91-5.14-57.42,61.09,0,0-.26,6.84-3.23,10.72,0,0-17.09,15.37,1.43,34,0,0-5-7.88-.63-18.53a26.8,26.8,0,0,0,4.72,11.93h0a25.8,25.8,0,0,0,18.58,11.92A19.51,19.51,0,0,1,227.1,94.89s4.37,10.35,13.27,11.55a23.72,23.72,0,0,0,1.74,4c-3.16,1.52-7,3.81-7.91,6.23,0,0-7.47,22.37-11.83,40.92,0,0-4.37,8.94-3.49,13.09a1.1,1.1,0,0,1,.07-.17,1.22,1.22,0,0,0-.07.17s.42,9.57,19.18,12.37l-.63,2.65h0c-7.82,23.51-18.67,73.5-18.67,73.5,5,9.8,37.86,32.24,37.86,32.24.24-9.81.68-19.63,1.26-29.34.75.48,1.56,1,2.44,1.47.32,3.34,1.66,17,2.22,20.17,0,0,.67,2.26,4.26,4.58,0,0,11.09,4.37,20.89,9,.65,6.68.94,14.19,1.05,18,0,.2,0,.4,0,.58,0-.19,0-.38,0-.58l-1.65,2.52L286,321.71c-1.58,4.58-4.21,10.83-4.21,10.83-2.81,9.29,3,11.23,3,11.23,6.62,2.09,11.08-1,13.95-4.95l.52-.78a24,24,0,0,0,2-3.54,31.17,31.17,0,0,0,2-5.82l-.8-7.76a7.45,7.45,0,0,0,.6,1.63c3.9,8.49,9.05-1.09,9.05-1.09,3.95-14.59,3.3-20.08,2.17-22.14h0c-.73-2.5-8.09-3.27-8.09-3.27h-1.29c-.74-.67-2-1.77-3.54-3.11v-.16a45.88,45.88,0,0,0-2.58-14.64c0-.18,0-.36,0-.55a28.37,28.37,0,0,1,.2-3.82,50.85,50.85,0,0,0,13.41-8.24c1.55,8.77,3,17.48,4.34,26,0,0,29.66-26.52,33.36-36.88,0,0-1.41-3.77-3.65-9.68a54.62,54.62,0,0,1,5.73,8.89,37.63,37.63,0,0,1,3.58,10.52v0a31.37,31.37,0,0,1,.49,5.41s-.58,17-12.27,7.1c0,0-3.19,2.58,4.25,8.73,0,0,15.86,6.82,18.71-21.16,0-.34.07-.69.1-1.05a412.9,412.9,0,0,0,.29-64.71,6.52,6.52,0,0,0,1.48.1,4,4,0,0,0,1.57.41l4.47,3.78c.22.18.6.1,1-.16l23,17.3,8.81,7.1h0s0,0,0,0,.21,0,.33-.17S408.17,226.74,408.1,226.68Zm-131.5,51,.18-2.14a18.75,18.75,0,0,0,2.3,1.1,25.15,25.15,0,0,0,5.39.31c.2,1.62.4,3.1.58,4.38A41,41,0,0,0,276.6,277.71Zm10.51,45.89s0,0,0,.07h0Zm14.16-18.33.17.15c0,.1,0,.18,0,.27l0,.77c0,1,0,1.85,0,2.71h-.22C301.19,307.89,301.24,306.59,301.27,305.27Zm-.57,9.67c.15-1.37.26-2.86.35-4.41l.3.09a61.17,61.17,0,0,0,.34,6.24l-1-1.92c-.09.81-.19,1.58-.29,2.3C300.52,316.52,300.62,315.75,300.7,314.94Z"/><path class="cls-49" d="M408.1,226.68h0v0l-7.43-6-23.19-19.95c.16-.47.16-.86-.06-1l-1.8-1.39a2.26,2.26,0,0,0,.31-.42c.32-2.86-2.13-6-4.53-8.4a54.44,54.44,0,0,0,4.76-8.44l-2.57-2.4v0c.54-1.1.82-1.75.82-1.75l-12-11.17a134.72,134.72,0,0,0-4.89-16.64c8.38-45.47,10.89-96-19.79-94.35a15.7,15.7,0,0,0-2.08,0,44.61,44.61,0,0,1-6.27-18S323.82,4,276.22.09c0,0-50.91-5.14-57.42,61.09,0,0-.26,6.84-3.23,10.72,0,0-17.09,15.37,1.43,34,0,0-5-7.88-.63-18.53a26.8,26.8,0,0,0,4.72,11.93h0a25.8,25.8,0,0,0,18.58,11.92A19.51,19.51,0,0,1,227.1,94.89s4.37,10.35,13.27,11.55a23.72,23.72,0,0,0,1.74,4c-3.16,1.52-7,3.81-7.91,6.23,0,0-7.47,22.37-11.83,40.92,0,0-4.37,8.94-3.49,13.09a1.1,1.1,0,0,1,.07-.17,1.22,1.22,0,0,0-.07.17s.42,9.57,19.18,12.37l-.63,2.65h0c-7.82,23.51-18.67,73.5-18.67,73.5,5,9.8,37.86,32.24,37.86,32.24.24-9.81.68-19.63,1.26-29.34.75.48,1.56,1,2.44,1.47.32,3.34,1.66,17,2.22,20.17,0,0,.67,2.26,4.26,4.58,0,0,11.09,4.37,20.89,9,.65,6.68.94,14.19,1.05,18,0,.2,0,.4,0,.58,0-.19,0-.38,0-.58l-1.65,2.52L286,321.71c-1.58,4.58-4.21,10.83-4.21,10.83-2.81,9.29,3,11.23,3,11.23,6.62,2.09,11.08-1,13.95-4.95l.52-.78a24,24,0,0,0,2-3.54,31.17,31.17,0,0,0,2-5.82l-.8-7.76a7.45,7.45,0,0,0,.6,1.63c3.9,8.49,9.05-1.09,9.05-1.09,3.95-14.59,3.3-20.08,2.17-22.14h0c-.73-2.5-8.09-3.27-8.09-3.27h-1.29c-.74-.67-2-1.77-3.54-3.11v-.16a45.88,45.88,0,0,0-2.58-14.64c0-.18,0-.36,0-.55a28.37,28.37,0,0,1,.2-3.82,50.85,50.85,0,0,0,13.41-8.24c1.55,8.77,3,17.48,4.34,26,0,0,29.66-26.52,33.36-36.88,0,0-1.41-3.77-3.65-9.68a54.62,54.62,0,0,1,5.73,8.89,37.63,37.63,0,0,1,3.58,10.52v0a31.37,31.37,0,0,1,.49,5.41s-.58,17-12.27,7.1c0,0-3.19,2.58,4.25,8.73,0,0,15.86,6.82,18.71-21.16,0-.34.07-.69.1-1.05a412.9,412.9,0,0,0,.29-64.71,6.52,6.52,0,0,0,1.48.1,4,4,0,0,0,1.57.41l4.47,3.78c.22.18.6.1,1-.16l23,17.3,8.81,7.1h0s0,0,0,0,.21,0,.33-.17S408.17,226.74,408.1,226.68Zm-131.5,51,.18-2.14a18.75,18.75,0,0,0,2.3,1.1,25.15,25.15,0,0,0,5.39.31c.2,1.62.4,3.1.58,4.38A41,41,0,0,0,276.6,277.71Zm10.51,45.89s0,0,0,.07h0Zm14.16-18.33.17.15c0,.1,0,.18,0,.27l0,.77c0,1,0,1.85,0,2.71h-.22C301.19,307.89,301.24,306.59,301.27,305.27Zm-.57,9.67c.15-1.37.26-2.86.35-4.41l.3.09a61.17,61.17,0,0,0,.34,6.24l-1-1.92c-.09.81-.19,1.58-.29,2.3C300.52,316.52,300.62,315.75,300.7,314.94Z"/><path class="cls-49" d="M408.1,226.68h0v0l-7.43-6-23.19-19.95c.16-.47.16-.86-.06-1l-1.8-1.39a2.26,2.26,0,0,0,.31-.42c.32-2.86-2.13-6-4.53-8.4a54.44,54.44,0,0,0,4.76-8.44l-2.57-2.4v0c.54-1.1.82-1.75.82-1.75l-12-11.17a134.72,134.72,0,0,0-4.89-16.64c8.38-45.47,10.89-96-19.79-94.35a15.7,15.7,0,0,0-2.08,0,44.61,44.61,0,0,1-6.27-18S323.82,4,276.22.09c0,0-50.91-5.14-57.42,61.09,0,0-.26,6.84-3.23,10.72,0,0-17.09,15.37,1.43,34,0,0-5-7.88-.63-18.53a26.8,26.8,0,0,0,4.72,11.93h0a25.8,25.8,0,0,0,18.58,11.92A19.51,19.51,0,0,1,227.1,94.89s4.37,10.35,13.27,11.55a23.72,23.72,0,0,0,1.74,4c-3.16,1.52-7,3.81-7.91,6.23,0,0-7.47,22.37-11.83,40.92,0,0-4.37,8.94-3.49,13.09a1.1,1.1,0,0,1,.07-.17,1.22,1.22,0,0,0-.07.17s.42,9.57,19.18,12.37l-.63,2.65h0c-7.82,23.51-18.67,73.5-18.67,73.5,5,9.8,37.86,32.24,37.86,32.24.24-9.81.68-19.63,1.26-29.34.75.48,1.56,1,2.44,1.47.32,3.34,1.66,17,2.22,20.17,0,0,.67,2.26,4.26,4.58,0,0,11.09,4.37,20.89,9,.65,6.68.94,14.19,1.05,18,0,.2,0,.4,0,.58,0-.19,0-.38,0-.58l-1.65,2.52L286,321.71c-1.58,4.58-4.21,10.83-4.21,10.83-2.81,9.29,3,11.23,3,11.23,6.62,2.09,11.08-1,13.95-4.95l.52-.78a24,24,0,0,0,2-3.54,31.17,31.17,0,0,0,2-5.82l-.8-7.76a7.45,7.45,0,0,0,.6,1.63c3.9,8.49,9.05-1.09,9.05-1.09,3.95-14.59,3.3-20.08,2.17-22.14h0c-.73-2.5-8.09-3.27-8.09-3.27h-1.29c-.74-.67-2-1.77-3.54-3.11v-.16a45.88,45.88,0,0,0-2.58-14.64c0-.18,0-.36,0-.55a28.37,28.37,0,0,1,.2-3.82,50.85,50.85,0,0,0,13.41-8.24c1.55,8.77,3,17.48,4.34,26,0,0,29.66-26.52,33.36-36.88,0,0-1.41-3.77-3.65-9.68a54.62,54.62,0,0,1,5.73,8.89,37.63,37.63,0,0,1,3.58,10.52v0a31.37,31.37,0,0,1,.49,5.41s-.58,17-12.27,7.1c0,0-3.19,2.58,4.25,8.73,0,0,15.86,6.82,18.71-21.16,0-.34.07-.69.1-1.05a412.9,412.9,0,0,0,.29-64.71,6.52,6.52,0,0,0,1.48.1,4,4,0,0,0,1.57.41l4.47,3.78c.22.18.6.1,1-.16l23,17.3,8.81,7.1h0s0,0,0,0,.21,0,.33-.17S408.17,226.74,408.1,226.68Zm-131.5,51,.18-2.14a18.75,18.75,0,0,0,2.3,1.1,25.15,25.15,0,0,0,5.39.31c.2,1.62.4,3.1.58,4.38A41,41,0,0,0,276.6,277.71Zm10.51,45.89s0,0,0,.07h0Zm14.16-18.33.17.15c0,.1,0,.18,0,.27l0,.77c0,1,0,1.85,0,2.71h-.22C301.19,307.89,301.24,306.59,301.27,305.27Zm-.57,9.67c.15-1.37.26-2.86.35-4.41l.3.09a61.17,61.17,0,0,0,.34,6.24l-1-1.92c-.09.81-.19,1.58-.29,2.3C300.52,316.52,300.62,315.75,300.7,314.94Z"/></g></g></svg>