<svg id="Layer_1" data-name="Layer 1" xmlns="http://www.w3.org/2000/svg" viewBox="0 0 1014.35 90.33"><defs><style>.cls-1{fill:#db703d;}.cls-2{fill:#dd8b48;}.cls-3{fill:#90654c;}.cls-4{fill:#948a4f;}.cls-5{fill:#7f743e;}.cls-6{fill:#7f533d;}.cls-7{fill:#e59b1a;}.cls-8{fill:#ce8817;}.cls-9{fill:#c66626;}.cls-10{fill:#a8531a;}</style></defs><path class="cls-1" d="M164.18,9.34s9.74-2.88,15.41,7.53c0,0,5.16,9.09,2.35,16.34,0,0-2.92,7.4-7.54,9S152.72,31,152.72,31Z"/><path class="cls-2" d="M174.39,34.71s-2-4.25-12.07-5.75c0,0-9.45-1.95-12.85,1.59,0,0,2.32,6.13,15,11.44,0,0,7.32,2.94,11.71-.31S174.39,34.71,174.39,34.71Z"/><path class="cls-2" d="M148.29,27.51s-2.51-6.08,7.49-16.14c0,0,5.4-3.28,8.48-2.34,0,0,6.46,4.06-1.53,13.31C162.73,22.34,153.78,33.64,148.29,27.51Z"/><circle class="cls-3" cx="168.29" cy="24.6" r="0.9"/><circle class="cls-3" cx="166.06" cy="21.67" r="0.9"/><circle class="cls-3" cx="167.78" cy="28.56" r="0.9"/><path class="cls-3" d="M165.84,21.5a12.35,12.35,0,0,0-3.74,4l1.32-.18s1.51-2.8,2.78-3.63S165.84,21.5,165.84,21.5Z"/><path class="cls-3" d="M167.47,28.71a12.52,12.52,0,0,1-5.09-2.09l1.27-.4s2.55,1.91,4,2.13S167.47,28.71,167.47,28.71Z"/><polygon class="cls-3" points="162.1 25.53 167.69 24.39 167.68 24.95 162.38 26.62 162.1 25.53"/><path class="cls-4" d="M149.61,28.58S101.88,39.11,93.92,40c0,0-1.35,1,.63,2.32,0,0,54.54-10.23,58.55-12.82Z"/><path class="cls-4" d="M152.22,7c1.83-3.18,1.08-3.32,1.08-3.32s-14.21,21.31-24.18,29.29C144.37,28.59,152.22,7,152.22,7Z"/><path class="cls-5" d="M127.79,33.3c.45-.09.88-.26,1.33-.38,10-8,24.18-29.29,24.18-29.29C133.33,9.92,127.79,33.3,127.79,33.3Z"/><path class="cls-4" d="M126.35,36a179.49,179.49,0,0,0,25.23,7.75l-.77,2.79a151.44,151.44,0,0,1-30.13-9.38l4.78-1.51Z"/><path class="cls-1" d="M150,44a9.93,9.93,0,0,1,10.72,2s1,1.42-.91.88c0,0,2.73,3-.4,2.34,0,0,2.26,5.68-10.16-3.35C149.28,45.88,147.34,44.72,150,44Z"/><path class="cls-1" d="M756.54,85.51s8.29,2.49,13.17-6.36c0,0,4.43-7.72,2.06-13.9,0,0-2.46-6.32-6.39-7.68s-18.51,9.48-18.51,9.48Z"/><path class="cls-2" d="M765.34,63.93s-1.71,3.62-10.3,4.86c0,0-8.06,1.62-10.94-1.41,0,0,2-5.21,12.82-9.68,0,0,6.26-2.48,10,.3S765.34,63.93,765.34,63.93Z"/><path class="cls-2" d="M743.08,70s-2.16,5.18,6.32,13.79c0,0,4.59,2.81,7.22,2,0,0,5.51-3.44-1.26-11.35C755.36,74.43,747.78,64.77,743.08,70Z"/><circle class="cls-3" cx="760.11" cy="72.53" r="0.77"/><circle class="cls-3" cx="758.2" cy="75.01" r="0.77"/><circle class="cls-3" cx="759.69" cy="69.15" r="0.77"/><path class="cls-3" d="M758,75.16a10.53,10.53,0,0,1-3.17-3.45l1.12.15A11.23,11.23,0,0,0,758.32,75C759.4,75.68,758,75.16,758,75.16Z"/><path class="cls-3" d="M759.43,69a10.48,10.48,0,0,0-4.34,1.77l1.08.34a11.12,11.12,0,0,1,3.45-1.8C760.9,69.14,759.43,69,759.43,69Z"/><polygon class="cls-3" points="754.84 71.71 759.6 72.7 759.59 72.23 755.08 70.78 754.84 71.71"/><path class="cls-4" d="M744.21,69.07s-40.62-9.17-47.4-9.93c0,0-1.15-.82.54-2,0,0,46.43,8.92,49.84,11.14Z"/><path class="cls-4" d="M746.35,87.5c1.55,2.72.91,2.83.91,2.83s-12-18.21-20.49-25C739.74,69,746.35,87.5,746.35,87.5Z"/><path class="cls-5" d="M725.64,65c.39.09.75.23,1.13.34,8.47,6.83,20.49,25,20.49,25C730.26,84.9,725.64,65,725.64,65Z"/><path class="cls-6" d="M223.9,51.48a1.86,1.86,0,0,0,1.52,1.75,35.11,35.11,0,0,0,7.11-5.45C229.85,48.89,227,50.13,223.9,51.48Z"/><path class="cls-3" d="M245,28.18c1.07-2.72,1.58-4.51,1.58-4.51s-2,1.85-4.84,4.62C235,34.92,223.55,46.86,223.9,51.48c3-1.35,5.95-2.59,8.63-3.7C239.06,41.38,243,33.19,245,28.18Z"/><path class="cls-7" d="M279.18,27.06c.71-.86,1-1.57.8-2-.62-1.13-4.75-.12-10.11,2.29-1.8.81-3.74,1.78-5.74,2.88s-3.94,2.29-5.63,3.41a46.26,46.26,0,0,1-4.21,6.78,25.2,25.2,0,0,1,5.57-1.17,77.08,77.08,0,0,0,7.3-3.54C272.85,32.58,277.37,29.25,279.18,27.06Z"/><path class="cls-8" d="M253.73,43a6.52,6.52,0,0,1-.14,1.49l-.82-.17a61.4,61.4,0,0,0,9.42,7.82c7.44,5.15,14.26,8.18,15.24,6.76s-4.24-6.75-11.67-11.9c-1.17-.81-2.31-1.54-3.43-2.24A29.07,29.07,0,0,1,253.73,43Z"/><path class="cls-9" d="M258.5,33.65c.75-1.42,1.5-2.92,2.22-4.54.23-.5.42-1,.63-1.47,3.25-7.62,4.7-14.09,3.22-14.75S258.72,18.3,255,26.55c-.2.45-.37.88-.56,1.32a61,61,0,0,0-3.4,9.91l.09-.09a7.06,7.06,0,0,1,1.08,1.1,7.29,7.29,0,0,1,.87,1.41,6.66,6.66,0,0,1,.26.67,4.8,4.8,0,0,1,.72-.37l.22-.07A46.26,46.26,0,0,0,258.5,33.65Z"/><path class="cls-10" d="M285.26,42.11c0-1.73-7.31-3.2-16.35-3.28a72.63,72.63,0,0,0-9.05.43,25.2,25.2,0,0,0-5.57,1.17l-.22.07a4.8,4.8,0,0,0-.72.37c0,.13.09.25.12.39a1,1,0,0,1,0,.1,6.44,6.44,0,0,1,.22,1.64,29.07,29.07,0,0,0,8.6,1.76c2,.19,4.2.3,6.52.32C277.89,45.17,285.24,43.84,285.26,42.11Z"/><path class="cls-3" d="M253.73,43a6.44,6.44,0,0,0-.22-1.64,1,1,0,0,0,0-.1c0-.14-.08-.26-.12-.39a6.66,6.66,0,0,0-.26-.67,7.29,7.29,0,0,0-.87-1.41,7.06,7.06,0,0,0-1.08-1.1l-.09.09a15.35,15.35,0,0,0-2.78,3.94c-3.08,1.08-14.86,5.32-28.66,11.71l-3.13,1.47a212.14,212.14,0,0,0-27.2,15.25.8.8,0,0,0-.21,1.1h0a.79.79,0,0,0,1.09.21A204.16,204.16,0,0,1,215.35,57.2c1-.51,2.08-1,3.11-1.49,14.43-6.8,27-11.35,30.28-12.49a30.16,30.16,0,0,0,4,1.1l.82.17A6.52,6.52,0,0,0,253.73,43Z"/><path class="cls-3" d="M222.48,52.14c17.64,1.3,31.76,17.68,31.76,17.68S215.77,57.88,222.48,52.14Z"/><path class="cls-6" d="M830.8,23.18c-.22.15-.41.32-.62.48-10.6,7.88-13.46,23.51-13.46,23.51s12.71-14,15-20.61a5.2,5.2,0,0,0,.35-1.78A1.46,1.46,0,0,0,830.8,23.18Z"/><path class="cls-1" d="M800.9,20.63a27.8,27.8,0,0,1-7.39-5.78c-.83-.15-1.67-.28-2.54-.39-9.3-1.15-17.15.45-17.54,3.57s6.84,6.58,16.14,7.73l.77.08c.63-.47,1.28-.94,2-1.39A28.07,28.07,0,0,1,800.9,20.63Z"/><path class="cls-2" d="M806.61,20.52A7.23,7.23,0,0,1,808,17.77c-.44-2.92-2.63-6.95-6.13-10.7-5.27-5.65-11.41-8.5-13.71-6.36s.11,8.47,5.38,14.13h0C800,16,805.06,18.22,806.61,20.52Z"/><path class="cls-2" d="M806.53,21c0-.17,0-.34.08-.52-1.55-2.3-6.63-4.53-13.1-5.67a27.8,27.8,0,0,0,7.39,5.78C803.38,20.07,805.39,20.18,806.53,21Z"/><path class="cls-2" d="M806.54,23.37c-1.93,2.25-8.49,3.31-16.2,2.47-5.27,4-8.21,8.64-6.69,11,1.71,2.64,8.36,1.37,14.85-2.83,4.3-2.78,7.41-6.15,8.55-8.87A7.17,7.17,0,0,1,806.54,23.37Z"/><path class="cls-2" d="M806.54,23.37a6.91,6.91,0,0,1-.1-1.75c-1.32.55-3.29.16-5.54-1a28.07,28.07,0,0,0-8.59,3.82c-.69.45-1.34.92-2,1.39C798.05,26.68,804.61,25.62,806.54,23.37Z"/><path class="cls-3" d="M830,23.31l-.17-.32c-9-.67-15.64-1.5-18-1.81a3.9,3.9,0,0,1,.66.89s-.36.3-.93.72c2.18.29,8.44,1.07,16.88,1.73A4.09,4.09,0,0,1,830,23.31Z"/><path class="cls-2" d="M800.9,20.63c2.25,1.15,4.22,1.54,5.54,1,0-.18.06-.38.09-.58C805.39,20.18,803.38,20.07,800.9,20.63Z"/><path class="cls-3" d="M811,21.06l.9.12A39.17,39.17,0,0,0,808,17.73s0,0,0,0a3.79,3.79,0,0,1-.75,3.42c-.06.06-.15.07-.21.12s0,.16.07.24.06,0,.09.08a3.8,3.8,0,0,1-.11,3.51v0a15.85,15.85,0,0,0,4.54-2.38l-.87-.12Z"/><path class="cls-3" d="M807.07,21.55c0-.08-.05-.16-.07-.24l-.11.06C806.94,21.44,807,21.48,807.07,21.55Z"/><path class="cls-3" d="M806.61,20.52a3.4,3.4,0,0,1,.39.79c.06,0,.15-.06.21-.12a3.79,3.79,0,0,0,.75-3.42A7.23,7.23,0,0,0,806.61,20.52Z"/><path class="cls-3" d="M806.61,20.52c0,.18-.05.35-.08.52a2.82,2.82,0,0,1,.36.33l.11-.06A3.4,3.4,0,0,0,806.61,20.52Z"/><path class="cls-3" d="M807.07,21.55a2,2,0,0,1,0,.64,2.19,2.19,0,0,1-.56,1.18,7.17,7.17,0,0,0,.51,1.77,3.8,3.8,0,0,0,.11-3.51S807.09,21.58,807.07,21.55Z"/><path class="cls-3" d="M806.44,21.62a6.91,6.91,0,0,0,.1,1.75,2.19,2.19,0,0,0,.56-1.18,2,2,0,0,0,0-.64c-.05-.07-.13-.11-.18-.18A2.46,2.46,0,0,1,806.44,21.62Z"/><path class="cls-3" d="M806.53,21c0,.2-.07.4-.09.58a2.46,2.46,0,0,0,.45-.25A2.82,2.82,0,0,0,806.53,21Z"/><path class="cls-3" d="M811.87,21.18l-.9-.12-.24,1.61.87.12c.57-.42.93-.72.93-.72A3.9,3.9,0,0,0,811.87,21.18Z"/><path class="cls-6" d="M853.51,24l-2,0c-7.89-.07-15.38-.46-21.74-.94l.36.67c.21-.16.4-.33.62-.48a1.46,1.46,0,0,1,1.3,1.6c6.43.44,13.8.78,21.54.8h2c7.91-.05,9.31.34,17.06-.65a.81.81,0,0,0,.7-.92h0a.8.8,0,0,0-.9-.7C864.09,24.37,862,24,853.51,24Z"/><path class="cls-3" d="M830.92,23.16a7.6,7.6,0,0,0-3.49.52c-15.29,5-10.71,23.49-10.71,23.49S819.8,30.87,830.92,23.16Z"/><path class="cls-2" d="M69,49.32s-3.71-2.89-13.36.33c0,0-9.32,2.55-10.74,7.24,0,0,4.84,4.42,18.55,3.41,0,0,7.87-.7,10.3-5.58S69,49.32,69,49.32Z"/><path class="cls-1" d="M208.37,17.35s2,2,7.95.72c0,0,5.7-.88,6.87-3.57,0,0-2.57-2.95-10.78-3.29,0,0-4.71-.12-6.49,2.61S208.37,17.35,208.37,17.35Z"/><path class="cls-1" d="M861.34,64.47s2.79,2.74,11.09,1c0,0,8-1.23,9.58-5,0,0-3.59-4.12-15-4.59,0,0-6.58-.18-9.06,3.63S861.34,64.47,861.34,64.47Z"/><path class="cls-1" d="M739.55,49.08s1.52,1.51,6.07.55c0,0,4.34-.67,5.23-2.72,0,0-2-2.25-8.22-2.51,0,0-3.59-.09-5,2S739.55,49.08,739.55,49.08Z"/><path class="cls-2" d="M963.49,43.15S961.11,40,952.65,40.6c0,0-8,.09-10.19,3.57,0,0,3,4.58,14.24,6.66,0,0,6.49,1.1,9.48-2.32S963.49,43.15,963.49,43.15Z"/><path class="cls-2" d="M1011.48,63.18s-1.92-2.52-8.75-2.06c0,0-6.5.07-8.22,2.88,0,0,2.39,3.7,11.49,5.38,0,0,5.23.88,7.65-1.88S1011.48,63.18,1011.48,63.18Z"/><path class="cls-1" d="M2.6,49.75s1.75,2.2,7.81,1.67c0,0,5.77-.18,7.25-2.71,0,0-2.2-3.24-10.3-4.56,0,0-4.67-.7-6.76,1.8S2.6,49.75,2.6,49.75Z"/></svg>