<svg id="Layer_1" data-name="Layer 1" xmlns="http://www.w3.org/2000/svg" viewBox="0 0 562.8 194.95"><defs><style>.cls-1{fill:#d8e1e5;}</style></defs><title>cloud_2</title><path class="cls-1" d="M331.81,36.07S370.92,28.74,394.75,55c0,0,19.56,23.22,8.56,50.11,0,0,29.33-6.11,50.11,12.22,0,0,20.16,20.17,20.16,38.5,0,0,56.22-18.33,89.22,39.11H0s13.44-62.33,72.72-66.61c0,0,.61-46.44,40.33-49.49,0,0,25.66-3.67,45.83,9.77,0,0-6.11-45.83,26.28-58,0,0,23.83-12.22,50.1,8.56,0,0,19.56-50.72,62.94-36.67C298.2,2.46,323.87,9.79,331.81,36.07Z"/></svg>