<svg id="Layer_1" data-name="Layer 1" xmlns="http://www.w3.org/2000/svg" viewBox="0 0 194.22 67.27"><defs><style>.cls-1{fill:#f5f4f1;opacity:0.6;}</style></defs><title>cloud_11</title><path class="cls-1" d="M79.71,12.45S66.21,9.92,58,19c0,0-6.75,8-3,17.3,0,0-10.12-2.11-17.29,4.21,0,0-7,7-7,13.29,0,0-19.4-6.33-30.79,13.49H194.22s-4.64-21.5-25.1-23c0,0-.21-16-13.92-17.08,0,0-8.85-1.27-15.81,3.37,0,0,2.11-15.81-9.07-20,0,0-8.22-4.22-17.29,2.95,0,0-6.75-17.5-21.72-12.65C91.31.85,82.45,3.38,79.71,12.45Z"/></svg>