<svg id="Layer_1" data-name="Layer 1" xmlns="http://www.w3.org/2000/svg" viewBox="0 0 271.3 93.98"><defs><style>.cls-1{fill:#f5f4f1;}</style></defs><title>cloud_4</title><path class="cls-1" d="M160,17.39s18.86-3.54,30.35,9.13c0,0,9.42,11.19,4.12,24.16,0,0,14.14-3,24.15,5.89,0,0,9.73,9.72,9.73,18.55,0,0,27.1-8.83,43,18.86H0S6.48,63.93,35.05,61.87c0,0,.3-22.39,19.45-23.86,0,0,12.37-1.77,22.09,4.71,0,0-3-22.09,12.67-28,0,0,11.48-5.89,24.15,4.12,0,0,9.43-24.45,30.34-17.67C143.75,1.19,156.12,4.72,160,17.39Z"/></svg>