<svg id="Layer_1" data-name="Layer 1" xmlns="http://www.w3.org/2000/svg" viewBox="0 0 133.81 46.35"><defs><style>.cls-1{fill:#d5dde0;opacity:0.5;}</style></defs><title>cloud_6</title><path class="cls-1" d="M78.89,8.58s9.3-1.75,15,4.5c0,0,4.65,5.52,2,11.91,0,0,7-1.45,11.91,2.91,0,0,4.79,4.79,4.79,9.15,0,0,13.37-4.36,21.22,9.3H0S3.2,31.53,17.29,30.51c0,0,.14-11,9.59-11.76,0,0,6.1-.88,10.89,2.32,0,0-1.45-10.9,6.25-13.8,0,0,5.67-2.91,11.91,2,0,0,4.65-12.06,15-8.71A12.55,12.55,0,0,1,78.89,8.58Z"/></svg>