<svg id="Layer_1" data-name="Layer 1" xmlns="http://www.w3.org/2000/svg" viewBox="0 0 165.31 56.31"><defs><style>.cls-1{fill:#f5f4f1;opacity:0.6;}</style></defs><title>cloud_5</title><path class="cls-1" d="M148,47.24c-3-22.07-22.29-15.76-22.29-15.76.33-8.56-6.48-14.14-6.48-14.14-12.7-7.78-21.79,7-21.79,7C98.57,0,79.83,0,79.83,0,69.19.45,65.19,16.87,65.19,16.87c-4.87-8.36-12.3-6.06-12.3-6.06C41.25,14,44.57,32.42,44.57,32.42c-3.66-8.1-13-4.26-13-4.26-9.2,5-9,16-9,16C10.31,35.12,0,56.31,0,56.31H165.31C159.66,54.54,148,47.24,148,47.24Z"/></svg>