<svg id="Layer_1" data-name="Layer 1" xmlns="http://www.w3.org/2000/svg" viewBox="0 0 280.63 95.6"><defs><style>.cls-1{fill:#f5f4f1;}</style></defs><title>cloud_8</title><path class="cls-1" d="M251.27,80.19c-5.08-37.46-37.83-26.76-37.83-26.76.56-14.52-11-24-11-24-21.55-13.2-37,11.85-37,11.85C167.32,0,135.52,0,135.52,0c-18.07.76-24.85,28.63-24.85,28.63-8.28-14.18-20.89-10.28-20.89-10.28C70,23.7,75.66,55,75.66,55c-6.21-13.76-22-7.24-22-7.24C38,56.24,38.4,74.91,38.4,74.91,17.5,59.62,0,95.6,0,95.6H280.63C271,92.58,251.27,80.19,251.27,80.19Z"/></svg>