<svg id="Layer_1" data-name="Layer 1" xmlns="http://www.w3.org/2000/svg" viewBox="0 0 88.53 30.16"><defs><style>.cls-1{fill:#f5f4f1;opacity:0.4;}</style></defs><title>cloud_10</title><path class="cls-1" d="M79.27,25.3c-1.6-11.82-11.94-8.44-11.94-8.44a10.12,10.12,0,0,0-3.47-7.57C57.06,5.12,52.19,13,52.19,13c.6-13-9.44-13-9.44-13-5.7.24-7.84,9-7.84,9-2.61-4.47-6.59-3.24-6.59-3.24-6.23,1.69-4.45,11.57-4.45,11.57-2-4.34-6.95-2.28-6.95-2.28-4.93,2.66-4.81,8.55-4.81,8.55C5.52,18.81,0,30.16,0,30.16H88.53C85.5,29.21,79.27,25.3,79.27,25.3Z"/></svg>