<svg id="Layer_1" data-name="Layer 1" xmlns="http://www.w3.org/2000/svg" viewBox="0 0 248.39 86.04"><defs><style>.cls-1{fill:#f5f4f1;}</style></defs><title>cloud_9</title><path class="cls-1" d="M146.44,15.92s17.26-3.24,27.78,8.36c0,0,8.63,10.25,3.78,22.11,0,0,12.94-2.69,22.11,5.4,0,0,8.9,8.9,8.9,17,0,0,24.81-8.09,39.38,17.26H0s5.93-27.51,32.09-29.4c0,0,.27-20.49,17.8-21.84,0,0,11.33-1.62,20.23,4.31,0,0-2.7-20.22,11.6-25.62,0,0,10.51-5.39,22.11,3.78,0,0,8.63-22.39,27.78-16.18C131.61,1.09,142.94,4.32,146.44,15.92Z"/></svg>