<svg id="Layer_1" data-name="Layer 1" xmlns="http://www.w3.org/2000/svg" viewBox="0 0 469.69 211.11"><defs><style>.cls-1{fill:#fff;}</style></defs><title>logo</title><path class="cls-1" d="M147,134.61a2,2,0,0,0-2,2,70.5,70.5,0,0,1-141,0v-45A70.6,70.6,0,0,1,53.07,24.47l6.12,6.11c-27,7.14-47.08,32.54-47.08,62.74V132.9c0,35.72,28,64.77,62.5,64.77,33.5,0,60.92-26.56,62.43-60.46a1,1,0,0,0-2-.09c-1.46,32.83-28,58.55-60.43,58.55-33.36,0-60.5-28.16-60.5-62.77V93.32c0-29.69,20-54.61,46.71-61.11L73.46,44.85a1.66,1.66,0,0,0,.3.24L59.39,60.81a.81.81,0,0,0,.6,1.35H89.22a.8.8,0,0,0,.6-1.35L75.45,45.09a1.38,1.38,0,0,0,.3-.24L88.39,32.21c25.86,6.22,45.4,29.57,46.65,58.25a1,1,0,0,0,2-.09,65.55,65.55,0,0,0-19.23-43.75,61.82,61.82,0,0,0-27.8-16l6.06-6.05A70.57,70.57,0,0,1,145,91.61a2,2,0,1,0,4,0A74.59,74.59,0,0,0,95.42,20.15L75.75.47a1.62,1.62,0,0,0-2.29,0L53.89,20A74.61,74.61,0,0,0,0,91.61v45a74.5,74.5,0,0,0,149,0A2,2,0,0,0,147,134.61ZM73.9,6.62a1,1,0,0,1,1.41,0L90,21.29a1,1,0,0,1,0,1.41L75.31,37.37a1,1,0,0,1-1.41,0L59.23,22.7a1,1,0,0,1-.2-.3c0-.16-.06-.31-.08-.47a1,1,0,0,1,.28-.64Z"/><path class="cls-1" d="M110.58,154.9a3.92,3.92,0,0,0,1.59-.34A3.85,3.85,0,0,0,114.5,151V75.33a2,2,0,1,0-4,0v75.45L77.06,120.12l6.46-6a3.91,3.91,0,0,0,0-5.57l-8-7.8a2,2,0,0,0-2.78,0l-8,7.71a4,4,0,0,0-1.29,2.89,3.9,3.9,0,0,0,1.27,2.9l6.47,5.93L38.5,150.58V75.33a2,2,0,0,0-4,0v75.46a3.91,3.91,0,0,0,6.61,2.83l33-30.76,33.83,31A3.86,3.86,0,0,0,110.58,154.9ZM74.1,117.41l-6.63-6.07,6.64-6.4,6.56,6.35Z"/><rect class="cls-1" x="68.95" y="155.01" width="11.31" height="11.31" rx="0.84" transform="translate(-91.75 99.81) rotate(-45)"/><path class="cls-1" d="M87.86,22,74.61,8.74,61.35,22,74.61,35.25ZM70,22.38a.87.87,0,0,1,0-1.23l4-4a.87.87,0,0,1,1.23,0l4,4a.87.87,0,0,1,0,1.23l-4,4a.87.87,0,0,1-1.23,0Z"/><path class="cls-1" d="M81.58,71.16A.67.67,0,0,0,82.07,70l-7-7.63a.67.67,0,0,0-1,0l-7,7.63a.67.67,0,0,0,.5,1.12Z"/><path class="cls-1" d="M201.9,94.53h9c4.74,0,8.41-1,10.92-2.94s4-5.11,4.41-9.35a2.94,2.94,0,0,0-.67-2.61,3.51,3.51,0,0,0-2.58-.9c-2,0-3.23,1.13-3.55,3.37s-1,3.68-2.26,4.45-3.4,1.18-6.27,1.18h-9a16.62,16.62,0,0,1-6.2-.94,5.62,5.62,0,0,1-3.11-3.11,16.62,16.62,0,0,1-.94-6.2V60.23a16.93,16.93,0,0,1,.94-6.26,5.56,5.56,0,0,1,3.09-3.11,16.12,16.12,0,0,1,6.15-.88h9.07c2.87,0,5,.39,6.27,1.16s2,2.26,2.26,4.47S220.94,59,223,59a3.51,3.51,0,0,0,2.58-.9,2.93,2.93,0,0,0,.67-2.6c-.41-4.23-1.89-7.37-4.41-9.34s-6.18-3-10.92-3h-9.37c-5.59,0-9.8,1.38-12.51,4.1s-4.17,7.13-4.17,12.95V77.48c0,5.77,1.41,10.1,4.18,12.87S196.14,94.53,201.9,94.53Z"/><path class="cls-1" d="M263.1,43.18h-9.3c-5.59,0-9.81,1.37-12.55,4.07s-4.2,7.09-4.2,12.9V77.48c0,5.77,1.41,10.1,4.18,12.87s7.11,4.18,12.87,4.18h9c5.8,0,10.13-1.41,12.89-4.18s4.16-7.1,4.16-12.87V60.23c0-5.79-1.4-10.13-4.16-12.89S268.9,43.18,263.1,43.18Zm-19.25,17a16.4,16.4,0,0,1,1-6.2,5.62,5.62,0,0,1,3.13-3.09,15.84,15.84,0,0,1,5.87-.88h9.29a16.45,16.45,0,0,1,6.21,1,5.72,5.72,0,0,1,3.11,3.13,16.54,16.54,0,0,1,.93,6.17V77.48a16.61,16.61,0,0,1-.93,6.2,5.62,5.62,0,0,1-3.11,3.11,16.68,16.68,0,0,1-6.21.94h-9a16.62,16.62,0,0,1-6.2-.94,5.62,5.62,0,0,1-3.11-3.11,16.62,16.62,0,0,1-.94-6.2Z"/><path class="cls-1" d="M317.22,64.78h-9.3c-2.92,0-4.9-.53-5.9-1.57s-1.5-3-1.5-5.91.49-4.79,1.46-5.8S304.93,50,307.84,50h8.93a12,12,0,0,1,5,.78,4.15,4.15,0,0,1,2.15,2.83,4.4,4.4,0,0,0,1,2.42,3.21,3.21,0,0,0,2.43.87A3.58,3.58,0,0,0,330,56a3,3,0,0,0,.66-2.67,11.42,11.42,0,0,0-4.39-7.63c-2.3-1.64-5.49-2.48-9.5-2.48h-8.93c-4.77,0-8.36,1.17-10.66,3.49s-3.46,5.89-3.46,10.63,1.18,8.39,3.5,10.74,5.92,3.54,10.7,3.54h9.3c3.06,0,5.2.57,6.35,1.71s1.72,3.3,1.72,6.44-.56,5.22-1.67,6.33-3.26,1.67-6.4,1.67h-10.8a12.72,12.72,0,0,1-5.57-.93,4.65,4.65,0,0,1-2.29-3.36A4.53,4.53,0,0,0,297.5,81a3.33,3.33,0,0,0-2.48-.83,3.53,3.53,0,0,0-2.58.9,3.26,3.26,0,0,0-.75,2.7c.61,3.65,2.16,6.39,4.59,8.14s5.83,2.64,10.14,2.64h10.8c5,0,8.76-1.22,11.2-3.62s3.67-6.16,3.67-11.18-1.24-8.84-3.69-11.28S322.19,64.78,317.22,64.78Z"/><path class="cls-1" d="M348.79,94.53a3,3,0,0,0,3.4-3.4v-34l13.42,19.74A4.06,4.06,0,0,0,368.89,79a4.63,4.63,0,0,0,4-2.13l13.35-19.63V91.13a3.4,3.4,0,1,0,6.8,0V46.58c0-2.81-1.53-3.4-2.8-3.4a4.47,4.47,0,0,0-4,2.14L369.34,70.73,352.45,45.31a4.35,4.35,0,0,0-3.66-2.13,3,3,0,0,0-3.4,3.4V91.13A3,3,0,0,0,348.79,94.53Z"/><path class="cls-1" d="M411.57,43.25a3.53,3.53,0,0,0-2.56.83,3.46,3.46,0,0,0-.84,2.57V91.13a3,3,0,0,0,3.4,3.4,3.46,3.46,0,0,0,2.57-.84,3.53,3.53,0,0,0,.82-2.56V46.65a3,3,0,0,0-3.39-3.4Z"/><path class="cls-1" d="M466.39,78.73c-2,0-3.23,1.13-3.55,3.37s-1,3.68-2.26,4.45-3.4,1.18-6.27,1.18h-9a16.62,16.62,0,0,1-6.2-.94A5.62,5.62,0,0,1,436,83.68a16.62,16.62,0,0,1-.94-6.2V60.23A16.93,16.93,0,0,1,436,54a5.56,5.56,0,0,1,3.09-3.11,16.08,16.08,0,0,1,6.15-.88h9.07c2.87,0,5,.39,6.27,1.16s2,2.26,2.26,4.47S464.35,59,466.39,59a3.51,3.51,0,0,0,2.58-.9,2.93,2.93,0,0,0,.67-2.6c-.41-4.23-1.89-7.37-4.41-9.34s-6.18-3-10.92-3h-9.37c-5.59,0-9.8,1.38-12.51,4.1s-4.17,7.13-4.17,12.95V77.48c0,5.77,1.41,10.1,4.18,12.87s7.11,4.18,12.87,4.18h9c4.74,0,8.41-1,10.92-2.94s4-5.11,4.41-9.35a2.94,2.94,0,0,0-.67-2.61A3.51,3.51,0,0,0,466.39,78.73Z"/><path class="cls-1" d="M223.06,153.9l-9-.07a3.4,3.4,0,0,0,0,6.8l5.6.07V164a15.16,15.16,0,0,1-.76,5.42,4.5,4.5,0,0,1-2.62,2.58,15.3,15.3,0,0,1-5.37.75h-9a16.62,16.62,0,0,1-6.2-.94,5.62,5.62,0,0,1-3.11-3.11,16.62,16.62,0,0,1-.94-6.2V145.23a16.93,16.93,0,0,1,.94-6.26,5.56,5.56,0,0,1,3.09-3.11,16.12,16.12,0,0,1,6.15-.88h9.07c2.87,0,5,.39,6.27,1.16s2,2.26,2.26,4.47S220.94,144,223,144a3.51,3.51,0,0,0,2.58-.9,2.93,2.93,0,0,0,.67-2.6c-.41-4.23-1.89-7.37-4.41-9.34s-6.18-3-10.92-3h-9.07c-5.71-.06-10.05,1.33-12.81,4.1s-4.17,7.13-4.17,12.95v17.25c0,5.77,1.41,10.1,4.18,12.87s7.11,4.18,12.87,4.18h9c5.3,0,9.26-1.26,11.77-3.73s3.78-6.45,3.78-11.82V157.3A3,3,0,0,0,223.06,153.9Z"/><path class="cls-1" d="M260,128.18H242.44a3,3,0,0,0-3.4,3.4v44.55a3.4,3.4,0,0,0,6.8,0V159.28H256l11.55,19.23a3.57,3.57,0,0,0,2.06,1.65,2.74,2.74,0,0,0,.7.09,3.42,3.42,0,0,0,1.86-.61c1.88-1.18,2.31-2.73,1.29-4.61L263.77,159a12.37,12.37,0,0,0,7.82-4.44c1.87-2.39,2.83-5.64,2.83-9.66V142.6c0-4.62-1.26-8.22-3.73-10.69S264.61,128.18,260,128.18Zm7.63,14.42v2.25c0,2.77-.58,4.76-1.73,5.9s-3.13,1.73-5.9,1.73H245.84V135H260c2.77,0,4.75.59,5.9,1.74S267.62,139.86,267.62,142.6Z"/><path class="cls-1" d="M310.17,128.18h-9.31c-5.59,0-9.81,1.37-12.54,4.07s-4.2,7.09-4.2,12.9v17.33c0,5.77,1.4,10.1,4.18,12.87s7.1,4.18,12.87,4.18h9c5.79,0,10.12-1.41,12.89-4.18s4.16-7.1,4.16-12.87V145.23c0-5.79-1.4-10.13-4.16-12.89S316,128.18,310.17,128.18Zm-19.25,17a16.43,16.43,0,0,1,.95-6.2,5.62,5.62,0,0,1,3.13-3.09,15.84,15.84,0,0,1,5.87-.88h9.3a16.43,16.43,0,0,1,6.2,1,5.72,5.72,0,0,1,3.11,3.13,16.52,16.52,0,0,1,.94,6.17v17.25a16.58,16.58,0,0,1-.94,6.2,5.62,5.62,0,0,1-3.11,3.11,16.62,16.62,0,0,1-6.2.94h-9a16.68,16.68,0,0,1-6.21-.94,5.62,5.62,0,0,1-3.11-3.11,16.64,16.64,0,0,1-.93-6.2Z"/><path class="cls-1" d="M393.6,128.18a3.08,3.08,0,0,0-1.81.59,3.66,3.66,0,0,0-1.27,1.91l-11.14,35.47L368.8,131.06a3.71,3.71,0,0,0-1.54-2.17,3.9,3.9,0,0,0-6,2.17l-10.58,35.09-11.14-35.47a3.57,3.57,0,0,0-1.29-2,3.26,3.26,0,0,0-1.87-.63,3.08,3.08,0,0,0-2.78,1.55,3.55,3.55,0,0,0-.46,3l13.88,44c.61,1.9,1.67,2.87,3.16,2.87a3.39,3.39,0,0,0,2.36-.74,4.48,4.48,0,0,0,1.18-2.14L364.8,141l11,35.64a3.49,3.49,0,0,0,3.54,2.88h.15c1.72,0,2.91-1,3.54-2.88l13.88-43.94a3.31,3.31,0,0,0-.49-3.16A3.4,3.4,0,0,0,393.6,128.18Z"/></svg>