<svg id="Layer_1" data-name="Layer 1" xmlns="http://www.w3.org/2000/svg" xmlns:xlink="http://www.w3.org/1999/xlink" viewBox="0 0 160.31 420.73"><defs><style>.cls-1{fill:url(#linear-gradient);}.cls-2{fill:url(#linear-gradient-2);}.cls-3{fill:url(#linear-gradient-3);}.cls-4{fill:url(#linear-gradient-4);}.cls-5{fill:url(#linear-gradient-5);}</style><linearGradient id="linear-gradient" x1="152.03" y1="4.12" x2="9.78" y2="374.54" gradientUnits="userSpaceOnUse"><stop offset="0" stop-color="#0c6c77"/><stop offset="0.26" stop-color="#e1a05d"/><stop offset="0.51" stop-color="#e6622f"/><stop offset="0.76" stop-color="#8b3d6c"/><stop offset="0.99" stop-color="#642727"/></linearGradient><linearGradient id="linear-gradient-2" x1="128.82" y1="-4.79" x2="-13.43" y2="365.62" xlink:href="#linear-gradient"/><linearGradient id="linear-gradient-3" x1="145.96" y1="1.79" x2="3.71" y2="372.21" gradientTransform="translate(145.74 -6.13) rotate(45)" xlink:href="#linear-gradient"/><linearGradient id="linear-gradient-4" x1="96.03" y1="-17.38" x2="-46.22" y2="353.03" xlink:href="#linear-gradient"/><linearGradient id="linear-gradient-5" x1="113.49" y1="-10.68" x2="-28.76" y2="359.74" xlink:href="#linear-gradient"/></defs><title>logo2</title><path class="cls-1" d="M160.31,147a2.16,2.16,0,0,0-4.31,0A75.85,75.85,0,1,1,4.3,147V98.56A76,76,0,0,1,57.1,26.32l6.58,6.58C34.6,40.58,13,67.91,13,100.4V143c0,38.42,30.16,69.68,67.24,69.68,36,0,65.55-28.57,67.17-65a1.08,1.08,0,0,0-2.15-.1c-1.57,35.33-30.13,63-65,63-35.89,0-65.09-30.3-65.09-67.53V100.4c0-31.94,21.49-58.76,50.26-65.74L79,48.26a1.85,1.85,0,0,0,.32.25L63.9,65.42a.87.87,0,0,0,.64,1.46H96a.87.87,0,0,0,.65-1.46L81.17,48.51a1.59,1.59,0,0,0,.33-.25l13.6-13.6c27.82,6.69,48.84,31.81,50.19,62.66a1.08,1.08,0,0,0,2.15-.09,70.48,70.48,0,0,0-20.69-47.07A66.52,66.52,0,0,0,96.84,32.91l6.51-6.51A75.93,75.93,0,0,1,156,98.56a2.16,2.16,0,1,0,4.31,0,80.26,80.26,0,0,0-57.64-76.88L81.5.51A1.74,1.74,0,0,0,79,.51L58,21.56a80.27,80.27,0,0,0-58,77V147a79.77,79.77,0,0,0,18.86,51.57.51.51,0,0,0,0,.13v83.38H16.09a2.13,2.13,0,0,0-1.83,1,2.16,2.16,0,0,0-.1,2.09l4.36,8.72h-6.9a2.23,2.23,0,0,0-1.85,1l-.65,1,9.63,23.83L9.67,340.56a2.47,2.47,0,0,0,0,2.59l9.31,19,.25.25a2.45,2.45,0,0,0,3.47,0l.26-.25,9.29-19a2.46,2.46,0,0,0,0-2.6l-9.08-20.83L32.44,297a2.2,2.2,0,0,0-.22-2.08l-.71-1h-8l4.36-8.72a2.16,2.16,0,0,0-.1-2.09,2.13,2.13,0,0,0-1.83-1H23.15V203.25a79.86,79.86,0,0,0,55,23.83V246.2L60.86,263.45a2.74,2.74,0,0,0,0,3.86l17.26,17.25v9.87l-6.3,6.3a1.74,1.74,0,0,0,0,2.46l6.3,6.3v75.85H69.59l-1.15,0-1.3,1.86,11,32,.56,1.49h1.53l1.58,0L93,388.25l.34-1.1-1.33-1.81H82.42V309.49l6.3-6.3a1.74,1.74,0,0,0,0-2.46l-6.3-6.3v-9.87l17.25-17.25a2.72,2.72,0,0,0,0-3.86L82.42,246.2V227.07a80,80,0,0,0,59.07-28.58V225h-2.75a2.15,2.15,0,0,0-1.91,3.14l4.26,8.27h-6.82a2.25,2.25,0,0,0-1.86,1l-.64,1,9.72,23.29V301l-6.65,13a2.31,2.31,0,0,0-.13,2.35l6.93,20.7.45.39a2.41,2.41,0,0,0,3.1,0l.46-.39,6.93-20.71a2.31,2.31,0,0,0-.13-2.35l-6.65-13V261.68l9.28-22.21a2.24,2.24,0,0,0-.2-2.1l-.71-1h-8l4.26-8.27a2.15,2.15,0,0,0-1.91-3.14H145.8V192.89A79.69,79.69,0,0,0,160.31,147ZM79.51,7.12a1.11,1.11,0,0,1,1.52,0L96.81,22.91a1.07,1.07,0,0,1,0,1.52L81,40.21a1.07,1.07,0,0,1-.76.31,1.06,1.06,0,0,1-.76-.31L63.73,24.43a1.12,1.12,0,0,1-.22-.33l-.09-.5a1,1,0,0,1,.31-.69ZM18.84,298.19v10.28l-4.15-10.28ZM21,356.46l-7.17-14.67,6.41-14.69a2.1,2.1,0,0,0,.76.14,2.18,2.18,0,0,0,.76-.14l6.4,14.69Zm2.15-48V298.19H27.3ZM80.27,412.09l-4.4-12.76h8.8Zm5-14.38-4.34-7.33a.72.72,0,0,0-1.25,0l-4.33,7.33-2.78-8.07H88ZM65,265.38l13.1-13.1v26.2Zm30.49,0-13.09,13.1v-26.2Zm41.87-24.7h4.11v9.85Zm6.27,88.81-4.71-14.07,3.9-7.64a2.11,2.11,0,0,0,1.61,0l3.9,7.64Zm2.15-79v-9.85h4.11Z"/><path class="cls-2" d="M119,166.66a4.18,4.18,0,0,0,1.71-.37,4.14,4.14,0,0,0,2.51-3.85V81a2.16,2.16,0,0,0-4.31,0v81.18l-36-33,6.95-6.48a4.2,4.2,0,0,0,0-6l-8.64-8.39a2.14,2.14,0,0,0-3,0l-8.61,8.29a4.21,4.21,0,0,0,0,6.23l7,6.37L41.42,162V81a2.15,2.15,0,1,0-4.3,0v81.19a4.2,4.2,0,0,0,7.1,3l35.53-33.09,36.39,33.36A4.14,4.14,0,0,0,119,166.66ZM79.72,126.32l-7.13-6.54,7.14-6.87,7.06,6.82Z"/><rect class="cls-3" x="74.18" y="166.77" width="12.17" height="12.17" rx="0.91" transform="translate(-98.72 107.39) rotate(-45)"/><path class="cls-4" d="M94.53,23.67,80.27,9.41,66,23.67,80.27,37.92Zm-19.23.41a.94.94,0,0,1,0-1.33l4.3-4.3a.94.94,0,0,1,1.33,0l4.3,4.3a.94.94,0,0,1,0,1.33l-4.3,4.3a.94.94,0,0,1-1.33,0Z"/><path class="cls-5" d="M87.77,76.56a.72.72,0,0,0,.53-1.21l-7.5-8.2a.72.72,0,0,0-1.07,0l-7.5,8.2a.73.73,0,0,0,.54,1.21Z"/></svg>