<svg id="Layer_1" data-name="Layer 1" xmlns="http://www.w3.org/2000/svg" xmlns:xlink="http://www.w3.org/1999/xlink" viewBox="0 0 436.91 503.83"><defs><style>.cls-1{fill:url(#linear-gradient);}.cls-2{fill:url(#linear-gradient-2);}.cls-3{fill:url(#linear-gradient-3);}.cls-4{fill:url(#linear-gradient-4);}.cls-5{fill:url(#linear-gradient-5);}.cls-6{fill:url(#linear-gradient-6);}.cls-7{fill:url(#linear-gradient-7);}.cls-8{fill:url(#linear-gradient-8);}.cls-9{fill:url(#linear-gradient-9);}.cls-10{fill:url(#linear-gradient-10);}.cls-11{fill:url(#linear-gradient-11);}.cls-12{fill:url(#linear-gradient-12);}.cls-13{fill:url(#linear-gradient-13);}.cls-14{fill:url(#linear-gradient-14);}.cls-15{fill:url(#linear-gradient-15);}</style><linearGradient id="linear-gradient" x1="290.34" y1="4.12" x2="148.09" y2="374.54" gradientUnits="userSpaceOnUse"><stop offset="0" stop-color="#0c6c77"/><stop offset="0.26" stop-color="#e1a05d"/><stop offset="0.51" stop-color="#e6622f"/><stop offset="0.76" stop-color="#8b3d6c"/><stop offset="0.99" stop-color="#642727"/></linearGradient><linearGradient id="linear-gradient-2" x1="267.13" y1="-4.79" x2="124.88" y2="365.62" xlink:href="#linear-gradient"/><linearGradient id="linear-gradient-3" x1="284.26" y1="1.79" x2="142.01" y2="372.21" gradientTransform="translate(186.24 -103.93) rotate(45)" xlink:href="#linear-gradient"/><linearGradient id="linear-gradient-4" x1="234.34" y1="-17.38" x2="92.08" y2="353.03" xlink:href="#linear-gradient"/><linearGradient id="linear-gradient-5" x1="251.8" y1="-10.68" x2="109.54" y2="359.74" xlink:href="#linear-gradient"/><linearGradient id="linear-gradient-6" x1="21.7" y1="482.42" x2="419.68" y2="500.68" xlink:href="#linear-gradient"/><linearGradient id="linear-gradient-7" x1="21.79" y1="480.45" x2="419.77" y2="498.72" xlink:href="#linear-gradient"/><linearGradient id="linear-gradient-8" x1="21.88" y1="478.45" x2="419.86" y2="496.72" xlink:href="#linear-gradient"/><linearGradient id="linear-gradient-9" x1="21.98" y1="476.27" x2="419.96" y2="494.54" xlink:href="#linear-gradient"/><linearGradient id="linear-gradient-10" x1="22.05" y1="474.72" x2="420.04" y2="492.98" xlink:href="#linear-gradient"/><linearGradient id="linear-gradient-11" x1="22.12" y1="473.25" x2="420.1" y2="491.51" xlink:href="#linear-gradient"/><linearGradient id="linear-gradient-12" x1="22.25" y1="470.39" x2="420.23" y2="488.66" xlink:href="#linear-gradient"/><linearGradient id="linear-gradient-13" x1="22.33" y1="468.69" x2="420.31" y2="486.96" xlink:href="#linear-gradient"/><linearGradient id="linear-gradient-14" x1="22.42" y1="466.65" x2="420.41" y2="484.92" xlink:href="#linear-gradient"/><linearGradient id="linear-gradient-15" x1="22.54" y1="464.15" x2="420.52" y2="482.42" xlink:href="#linear-gradient"/></defs><title>logo</title><path class="cls-1" d="M298.61,147a2.15,2.15,0,0,0-4.3,0,75.85,75.85,0,1,1-151.7,0V98.56A76,76,0,0,1,195.4,26.32L202,32.9c-29.08,7.68-50.66,35-50.66,67.5V143c0,38.42,30.16,69.68,67.24,69.68,36.05,0,65.55-28.57,67.17-65a1.08,1.08,0,0,0-2.15-.1c-1.57,35.33-30.13,63-65,63-35.89,0-65.09-30.3-65.09-67.53V100.4c0-31.94,21.49-58.76,50.26-65.74l13.6,13.6a1.85,1.85,0,0,0,.32.25L202.2,65.42a.87.87,0,0,0,.64,1.46H234.3a.87.87,0,0,0,.64-1.46L219.48,48.51a1.85,1.85,0,0,0,.32-.25l13.6-13.6c27.82,6.69,48.84,31.81,50.19,62.66a1.08,1.08,0,1,0,2.15-.09,70.48,70.48,0,0,0-20.69-47.07,66.49,66.49,0,0,0-29.9-17.25l6.51-6.51a75.94,75.94,0,0,1,52.65,72.16,2.15,2.15,0,1,0,4.3,0A80.26,80.26,0,0,0,241,21.68L219.8.51a1.74,1.74,0,0,0-2.46,0l-21.05,21a80.28,80.28,0,0,0-58,77V147a79.83,79.83,0,0,0,18.86,51.57s0,.08,0,.13v83.38h-2.76a2.15,2.15,0,0,0-1.92,3.11l4.36,8.72h-6.9a2.24,2.24,0,0,0-1.86,1l-.65,1,9.64,23.83L148,340.56a2.49,2.49,0,0,0,0,2.59l9.3,19,.25.25a2.46,2.46,0,0,0,3.48,0l.25-.25,9.3-19a2.48,2.48,0,0,0,0-2.6l-9.09-20.83L170.75,297a2.26,2.26,0,0,0-.22-2.08l-.71-1h-8l4.36-8.72a2.15,2.15,0,0,0-1.93-3.11h-2.75V203.25a79.9,79.9,0,0,0,55,23.83V246.2l-17.25,17.25a2.72,2.72,0,0,0,0,3.86l17.25,17.25v9.87l-6.3,6.3a1.74,1.74,0,0,0,0,2.46l6.3,6.3v75.85h-8.53l-1.14,0-1.31,1.86,11,32,.56,1.49h1.53l1.59,0,11.19-32.44.34-1.1-1.34-1.81h-9.63V309.49l6.3-6.3a1.74,1.74,0,0,0,0-2.46l-6.3-6.3v-9.87L238,267.31a2.74,2.74,0,0,0,0-3.86L220.72,246.2V227.07a80,80,0,0,0,59.08-28.58V225H277a2.16,2.16,0,0,0-1.91,3.14l4.27,8.27h-6.82a2.23,2.23,0,0,0-1.86,1l-.65,1,9.73,23.29V301l-6.66,13a2.31,2.31,0,0,0-.38,1.28,2.44,2.44,0,0,0,.25,1.07l6.93,20.7.45.39A2.38,2.38,0,0,0,282,338a2.44,2.44,0,0,0,1.55-.56l.46-.39,6.92-20.71a2.34,2.34,0,0,0-.12-2.35l-6.66-13V261.68l9.29-22.21a2.24,2.24,0,0,0-.21-2.1l-.71-1h-8l4.27-8.27a2.17,2.17,0,0,0-.08-2.11,2.14,2.14,0,0,0-1.84-1H284.1V192.89A79.69,79.69,0,0,0,298.61,147ZM217.81,7.12a1.11,1.11,0,0,1,1.52,0l15.78,15.79a1.07,1.07,0,0,1,0,1.52L219.33,40.21a1.06,1.06,0,0,1-.76.31,1.07,1.07,0,0,1-.76-.31L202,24.43a1.12,1.12,0,0,1-.22-.33c0-.17-.06-.33-.08-.5a1,1,0,0,1,.3-.69ZM157.15,298.19v10.28L153,298.19Zm2.15,58.27-7.17-14.67,6.41-14.69a2.13,2.13,0,0,0,1.52,0l6.41,14.69Zm2.15-48V298.19h4.16Zm57.12,103.62-4.4-12.76H223Zm5-14.38-4.33-7.33a.72.72,0,0,0-1.25,0l-4.34,7.33-2.78-8.07h15.48ZM203.32,265.38l13.1-13.1v26.2Zm30.5,0-13.1,13.1v-26.2Zm41.86-24.7h4.12v9.85ZM282,329.49l-4.71-14.07,3.9-7.64a2.17,2.17,0,0,0,.81.16,2.21,2.21,0,0,0,.81-.16l3.89,7.64Zm2.15-79v-9.85h4.12Z"/><path class="cls-2" d="M257.27,166.66a4.18,4.18,0,0,0,1.71-.37,4.14,4.14,0,0,0,2.51-3.85V81a2.15,2.15,0,0,0-4.3,0v81.18l-36-33,6.95-6.48a4.14,4.14,0,0,0,1.26-3,4.19,4.19,0,0,0-1.25-3l-8.64-8.39a2.14,2.14,0,0,0-3,0l-8.6,8.29a4.22,4.22,0,0,0,0,6.23l7,6.37L179.73,162V81a2.16,2.16,0,0,0-4.31,0v81.19a4.2,4.2,0,0,0,7.11,3l35.52-33.09,36.4,33.36A4.13,4.13,0,0,0,257.27,166.66ZM218,126.32l-7.13-6.54,7.13-6.87,7.07,6.82Z"/><rect class="cls-3" x="212.49" y="166.77" width="12.17" height="12.17" rx="0.91" transform="translate(-58.21 205.18) rotate(-45)"/><path class="cls-4" d="M232.83,23.67,218.57,9.41,204.31,23.67l14.26,14.25Zm-19.23.41a1,1,0,0,1,0-1.33l4.31-4.3a.94.94,0,0,1,1.33,0l4.3,4.3a.94.94,0,0,1,0,1.33l-4.3,4.3a.94.94,0,0,1-1.33,0Z"/><path class="cls-5" d="M226.07,76.56a.73.73,0,0,0,.54-1.21l-7.5-8.2a.72.72,0,0,0-1.07,0l-7.5,8.2a.72.72,0,0,0,.53,1.21Z"/><path class="cls-6" d="M6.15,469.94a4.68,4.68,0,0,1,2.6-2.62,13.25,13.25,0,0,1,4.86-.73h7.71a10.7,10.7,0,0,1,5.21,1c1.07.64,1.71,1.91,1.91,3.76s1.2,2.67,2.81,2.67a2.78,2.78,0,0,0,2-.7,2.3,2.3,0,0,0,.52-2.05c-.33-3.45-1.54-6-3.58-7.61s-5-2.41-8.91-2.41H13.61c-4.57,0-8,1.13-10.22,3.35S0,470.38,0,475.13v14.19c0,4.72,1.15,8.25,3.41,10.51s5.79,3.41,10.5,3.41h7.41c3.87,0,6.86-.81,8.91-2.4s3.25-4.16,3.58-7.62a2.29,2.29,0,0,0-.52-2.05,2.78,2.78,0,0,0-2-.71c-1.61,0-2.55.9-2.81,2.68s-.84,3.09-1.91,3.74a10.55,10.55,0,0,1-5.21,1H13.91a13.67,13.67,0,0,1-5.14-.78,4.72,4.72,0,0,1-2.62-2.62,13.73,13.73,0,0,1-.78-5.15V475.13A14,14,0,0,1,6.15,469.94Z"/><path class="cls-7" d="M64.26,461.22H56.61c-4.57,0-8,1.11-10.25,3.31s-3.42,5.79-3.42,10.54v14.25c0,4.72,1.14,8.25,3.4,10.51s5.8,3.41,10.51,3.41h7.41c4.73,0,8.27-1.15,10.52-3.41s3.39-5.79,3.39-10.51V475.13c0-4.73-1.14-8.27-3.39-10.52S69,461.22,64.26,461.22Zm-16,13.85a13.61,13.61,0,0,1,.79-5.14,4.76,4.76,0,0,1,2.64-2.61,13.35,13.35,0,0,1,4.87-.73h7.65a13.68,13.68,0,0,1,5.14.79A4.78,4.78,0,0,1,72,470a13.61,13.61,0,0,1,.78,5.11v14.19a13.73,13.73,0,0,1-.78,5.15,4.72,4.72,0,0,1-2.62,2.62,13.71,13.71,0,0,1-5.14.78H56.85a13.67,13.67,0,0,1-5.14-.78,4.72,4.72,0,0,1-2.62-2.62,13.73,13.73,0,0,1-.78-5.15Z"/><path class="cls-8" d="M108.77,479h-7.65c-2.43,0-4.09-.45-4.93-1.33s-1.27-2.54-1.27-4.93.42-4,1.24-4.86,2.47-1.28,4.9-1.28h7.34a10.08,10.08,0,0,1,4.12.65,3.54,3.54,0,0,1,1.83,2.42,3.52,3.52,0,0,0,.83,1.93,2.54,2.54,0,0,0,1.92.68,2.83,2.83,0,0,0,2.1-.73,2.38,2.38,0,0,0,.52-2.1,9.33,9.33,0,0,0-3.57-6.2,13.16,13.16,0,0,0-7.75-2h-7.34c-3.9,0-6.82.95-8.69,2.84s-2.82,4.8-2.82,8.67,1,6.84,2.85,8.75,4.82,2.88,8.72,2.88h7.65c2.55,0,4.34.48,5.3,1.44s1.45,2.76,1.45,5.37-.47,4.36-1.4,5.29-2.74,1.41-5.35,1.41H99.88a10.52,10.52,0,0,1-4.63-.78,4,4,0,0,1-1.94-2.85,3.64,3.64,0,0,0-.84-2,2.64,2.64,0,0,0-2-.64,2.76,2.76,0,0,0-2,.7,2.49,2.49,0,0,0-.58,2.12,9.74,9.74,0,0,0,3.72,6.63c2,1.42,4.75,2.15,8.27,2.15h8.89c4.08,0,7.15-1,9.13-2.95s3-5,3-9.12-1-7.21-3-9.19S112.83,479,108.77,479Z"/><path class="cls-9" d="M168.86,461.22a3.59,3.59,0,0,0-3.23,1.71l-14,21-14-21a3.46,3.46,0,0,0-2.92-1.71,2.38,2.38,0,0,0-2.68,2.69v36.64a2.69,2.69,0,1,0,5.37,0V472.22l11.24,16.54a3.26,3.26,0,0,0,2.6,1.71,3.73,3.73,0,0,0,3.23-1.71l11.18-16.45v28.24a2.69,2.69,0,1,0,5.37,0V463.91C171.05,462.12,170.31,461.22,168.86,461.22Z"/><path class="cls-10" d="M186.38,461.28a2.81,2.81,0,0,0-2,.65,2.77,2.77,0,0,0-.66,2v36.58a2.7,2.7,0,1,0,5.37,0V464a2.77,2.77,0,0,0-.64-2A2.81,2.81,0,0,0,186.38,461.28Z"/><path class="cls-11" d="M206.37,469.94a4.7,4.7,0,0,1,2.61-2.62,13.23,13.23,0,0,1,4.85-.73h7.71a10.68,10.68,0,0,1,5.21,1c1.07.64,1.72,1.91,1.92,3.76s1.2,2.67,2.81,2.67a2.78,2.78,0,0,0,2-.7,2.33,2.33,0,0,0,.52-2.05c-.33-3.45-1.54-6-3.59-7.61s-5-2.41-8.91-2.41h-7.46c-4.7,0-8.21,1.09-10.46,3.35s-3.39,5.81-3.39,10.56v14.19c0,4.72,1.14,8.25,3.4,10.51s5.8,3.41,10.51,3.41h7.4c3.87,0,6.87-.81,8.91-2.4s3.26-4.16,3.59-7.62a2.32,2.32,0,0,0-.52-2.05,2.78,2.78,0,0,0-2-.71c-1.61,0-2.56.9-2.81,2.68a4.68,4.68,0,0,1-1.92,3.74,10.53,10.53,0,0,1-5.21,1h-7.4a13.73,13.73,0,0,1-5.15-.78,4.78,4.78,0,0,1-2.62-2.62,14,14,0,0,1-.77-5.15V475.13A14.19,14.19,0,0,1,206.37,469.94Z"/><path class="cls-12" d="M293.85,482.38l-7.4-.06a2.69,2.69,0,0,0,0,5.37l4.72.06v2.81a12.45,12.45,0,0,1-.64,4.5,3.77,3.77,0,0,1-2.21,2.18,12.65,12.65,0,0,1-4.46.63h-7.4a13.73,13.73,0,0,1-5.15-.78,4.73,4.73,0,0,1-2.61-2.62,13.73,13.73,0,0,1-.78-5.15V475.13a14,14,0,0,1,.78-5.19,4.65,4.65,0,0,1,2.6-2.62,13.23,13.23,0,0,1,4.85-.73h7.71a10.65,10.65,0,0,1,5.21,1c1.07.64,1.72,1.91,1.92,3.76s1.2,2.67,2.81,2.67a2.78,2.78,0,0,0,2-.7,2.33,2.33,0,0,0,.52-2.05c-.33-3.45-1.54-6-3.59-7.61s-5-2.41-8.91-2.41h-7.71c-4.57,0-8,1.13-10.21,3.35s-3.39,5.81-3.39,10.56v14.19c0,4.72,1.14,8.25,3.4,10.51s5.8,3.41,10.51,3.41h7.4c4.33,0,7.56-1,9.6-3s3.08-5.26,3.08-9.64v-5.49A2.38,2.38,0,0,0,293.85,482.38Z"/><path class="cls-13" d="M324.23,461.22H309.8a2.38,2.38,0,0,0-2.69,2.69v36.64a2.69,2.69,0,1,0,5.37,0v-14H321l9.54,15.87a2.8,2.8,0,0,0,1.63,1.31,2.33,2.33,0,0,0,.53.07,2.75,2.75,0,0,0,1.48-.48,2.48,2.48,0,0,0,1-3.65l-8-13.36a10.12,10.12,0,0,0,6.52-3.64,12.47,12.47,0,0,0,2.31-7.87V473c0-3.77-1-6.7-3-8.71S328,461.22,324.23,461.22ZM330.62,473v1.86c0,2.3-.49,4-1.46,4.93s-2.62,1.45-4.93,1.45H312.48V466.59h11.75c2.31,0,4,.49,4.93,1.47S330.62,470.69,330.62,473Z"/><path class="cls-14" d="M365.5,461.22h-7.4c-4.7,0-8.22,1.07-10.49,3.31s-3.42,5.79-3.42,10.54v14.25c0,4.72,1.14,8.25,3.4,10.51s5.8,3.41,10.51,3.41h7.4c4.74,0,8.28-1.15,10.53-3.41s3.39-5.79,3.39-10.51V475.13c0-4.73-1.14-8.27-3.39-10.52S370.24,461.22,365.5,461.22Zm-15.94,13.85a13.61,13.61,0,0,1,.79-5.14,4.76,4.76,0,0,1,2.64-2.61,13.31,13.31,0,0,1,4.87-.73h7.64a13.7,13.7,0,0,1,5.15.79,4.78,4.78,0,0,1,2.62,2.64,13.61,13.61,0,0,1,.78,5.11v14.19a13.73,13.73,0,0,1-.78,5.15,4.72,4.72,0,0,1-2.62,2.62,13.73,13.73,0,0,1-5.15.78h-7.4a13.73,13.73,0,0,1-5.15-.78,4.73,4.73,0,0,1-2.61-2.62,13.73,13.73,0,0,1-.78-5.15Z"/><path class="cls-15" d="M436.37,462.31a2.68,2.68,0,0,0-2.23-1.09,2.45,2.45,0,0,0-1.43.47,2.87,2.87,0,0,0-1,1.51l-9.28,29.52-8.81-29.21a2.84,2.84,0,0,0-1.21-1.72,3.08,3.08,0,0,0-4.76,1.72l-8.81,29.21-9.28-29.52a2.8,2.8,0,0,0-1-1.55,2.59,2.59,0,0,0-1.47-.49,2.41,2.41,0,0,0-2.19,1.22,2.83,2.83,0,0,0-.37,2.42L395.92,501c.49,1.52,1.33,2.29,2.5,2.29a2.72,2.72,0,0,0,1.87-.58,3.62,3.62,0,0,0,.93-1.71l9.23-29.67L419.61,501a2.78,2.78,0,0,0,2.81,2.29h.12a2.87,2.87,0,0,0,2.81-2.29l11.41-36.15A2.56,2.56,0,0,0,436.37,462.31Z"/></svg>