<svg id="Layer_1" data-name="Layer 1" xmlns="http://www.w3.org/2000/svg" xmlns:xlink="http://www.w3.org/1999/xlink" viewBox="0 0 556.55 258.81"><defs><style>.cls-1{fill:url(#linear-gradient);}.cls-2{fill:url(#linear-gradient-2);}.cls-3{fill:url(#linear-gradient-3);}.cls-4{fill:url(#linear-gradient-4);}.cls-5{fill:url(#linear-gradient-5);}.cls-6{fill:url(#linear-gradient-6);}.cls-7{fill:url(#linear-gradient-7);}.cls-8{fill:url(#linear-gradient-8);}</style><linearGradient id="linear-gradient" x1="-536.38" y1="194.23" x2="-536.38" y2="65.24" gradientTransform="matrix(-1, 0, 0, 1, -24.2, 0)" gradientUnits="userSpaceOnUse"><stop offset="0" stop-color="#bed4de"/><stop offset="0.17" stop-color="#bdd0d3" stop-opacity="0.96"/><stop offset="0.51" stop-color="#bac4b8" stop-opacity="0.86"/><stop offset="0.68" stop-color="#b9bea9" stop-opacity="0.8"/></linearGradient><linearGradient id="linear-gradient-2" x1="-558.57" y1="269.77" x2="-558.57" y2="-74.98" gradientTransform="matrix(-1, 0, 0, 1, -24.2, 0)" gradientUnits="userSpaceOnUse"><stop offset="0.15" stop-color="#bed4de"/><stop offset="0.84" stop-color="#d1ede6"/></linearGradient><linearGradient id="linear-gradient-3" x1="-450.01" y1="157.55" x2="-450.01" y2="76.97" xlink:href="#linear-gradient"/><linearGradient id="linear-gradient-4" x1="-463.87" y1="204.75" x2="-463.87" y2="-10.63" xlink:href="#linear-gradient-2"/><linearGradient id="linear-gradient-5" x1="-269.38" y1="155.82" x2="-269.38" y2="-86.77" xlink:href="#linear-gradient"/><linearGradient id="linear-gradient-6" x1="-289.35" y1="172.94" x2="-289.35" y2="-24.89" xlink:href="#linear-gradient-2"/><linearGradient id="linear-gradient-7" x1="-91.83" y1="316.66" x2="-91.83" y2="-134.56" gradientTransform="matrix(-1, 0, 0, 1, -24.2, 0)" gradientUnits="userSpaceOnUse"><stop offset="0" stop-color="#bed4de"/><stop offset="0.12" stop-color="#bcccd0" stop-opacity="0.97"/><stop offset="0.36" stop-color="#b7b6aa" stop-opacity="0.9"/><stop offset="0.68" stop-color="#af9673" stop-opacity="0.8"/></linearGradient><linearGradient id="linear-gradient-8" x1="-125.64" y1="279.07" x2="-125.64" y2="-14.57" xlink:href="#linear-gradient-2"/></defs><title>mountain_2-2</title><polygon class="cls-1" points="512.18 26.84 556.55 182.24 467.81 182.24 512.18 26.84"/><polygon class="cls-2" points="512.18 26.84 512.18 182.24 556.55 182.24 512.18 26.84"/><polygon class="cls-3" points="425.81 52.98 453.53 150.06 398.09 150.06 425.81 52.98"/><polygon class="cls-4" points="425.81 52.98 425.81 150.06 453.53 150.06 425.81 52.98"/><polygon class="cls-5" points="245.18 0 285.13 139.91 205.23 139.91 245.18 0"/><polygon class="cls-6" points="245.18 0 245.18 139.91 285.13 139.91 245.18 0"/><polygon class="cls-7" points="67.63 21.96 135.26 258.81 0 258.81 67.63 21.96"/><polygon class="cls-8" points="67.63 21.96 67.63 258.81 135.26 258.81 67.63 21.96"/></svg>