<svg id="Layer_1" data-name="Layer 1" xmlns="http://www.w3.org/2000/svg" xmlns:xlink="http://www.w3.org/1999/xlink" viewBox="0 0 725.19 433.03"><defs><style>.cls-1{fill:url(#linear-gradient);}.cls-2{fill:url(#linear-gradient-2);}.cls-3{fill:url(#linear-gradient-3);}.cls-4{fill:url(#linear-gradient-4);}.cls-5{fill:url(#linear-gradient-5);}</style><linearGradient id="linear-gradient" x1="676.96" y1="220.97" x2="676.96" y2="-71.93" gradientUnits="userSpaceOnUse"><stop offset="0" stop-color="#bed4de"/><stop offset="0.12" stop-color="#bcccd0" stop-opacity="0.97"/><stop offset="0.36" stop-color="#b7b6aa" stop-opacity="0.9"/><stop offset="0.68" stop-color="#af9673" stop-opacity="0.8"/></linearGradient><linearGradient id="linear-gradient-2" x1="75.21" y1="321.09" x2="75.21" y2="50.52" gradientUnits="userSpaceOnUse"><stop offset="0" stop-color="#bed4de"/><stop offset="0.12" stop-color="#b9cad0" stop-opacity="0.97"/><stop offset="0.36" stop-color="#abaeaa" stop-opacity="0.9"/><stop offset="0.68" stop-color="#978673" stop-opacity="0.8"/></linearGradient><linearGradient id="linear-gradient-3" x1="303" y1="236.33" x2="303" y2="-81.64" xlink:href="#linear-gradient-2"/><linearGradient id="linear-gradient-4" x1="579.69" y1="423.19" x2="579.69" y2="-3.96" xlink:href="#linear-gradient-2"/><linearGradient id="linear-gradient-5" x1="133.34" y1="183.36" x2="133.34" y2="-137.13" gradientUnits="userSpaceOnUse"><stop offset="0" stop-color="#bed4de"/><stop offset="0.13" stop-color="#c0cfd0" stop-opacity="0.97"/><stop offset="0.39" stop-color="#c4c0ad" stop-opacity="0.89"/><stop offset="0.68" stop-color="#caaf81" stop-opacity="0.8"/></linearGradient></defs><title>mountain_1</title><polygon class="cls-1" points="676.96 32.84 628.72 201.77 725.2 201.77 676.96 32.84"/><polygon class="cls-2" points="75.21 40.27 0 303.67 150.42 303.67 75.21 40.27"/><polygon class="cls-3" points="303 0 237.34 229.95 368.66 229.95 303 0"/><polygon class="cls-4" points="579.69 13.14 442.97 433.03 716.41 433.03 579.69 13.14"/><polygon class="cls-5" points="133.34 62.68 109.15 147.38 157.52 147.38 133.34 62.68"/></svg>