<svg id="Layer_1" data-name="Layer 1" xmlns="http://www.w3.org/2000/svg" xmlns:xlink="http://www.w3.org/1999/xlink" viewBox="0 0 663.02 242.38"><defs><style>.cls-1{fill:url(#linear-gradient);}.cls-2{fill:url(#linear-gradient-2);}.cls-3{fill:url(#linear-gradient-3);}.cls-4{fill:url(#linear-gradient-4);}.cls-5{fill:url(#linear-gradient-5);}.cls-6{fill:url(#linear-gradient-6);}.cls-7{fill:url(#linear-gradient-7);}.cls-8{fill:url(#linear-gradient-8);}.cls-9{fill:url(#linear-gradient-9);}.cls-10{fill:url(#linear-gradient-10);}</style><linearGradient id="linear-gradient" x1="138.97" y1="141.43" x2="138.97" y2="49.8" gradientUnits="userSpaceOnUse"><stop offset="0" stop-color="#bed4de"/><stop offset="0.17" stop-color="#bdd0d3" stop-opacity="0.96"/><stop offset="0.51" stop-color="#bac4b8" stop-opacity="0.86"/><stop offset="0.68" stop-color="#b9bea9" stop-opacity="0.8"/></linearGradient><linearGradient id="linear-gradient-2" x1="359.02" y1="261.71" x2="359.02" y2="3.08" gradientUnits="userSpaceOnUse"><stop offset="0" stop-color="#bed4de"/><stop offset="0.13" stop-color="#c0cfd0" stop-opacity="0.97"/><stop offset="0.39" stop-color="#c4c0ad" stop-opacity="0.89"/><stop offset="0.68" stop-color="#caaf81" stop-opacity="0.8"/></linearGradient><linearGradient id="linear-gradient-3" x1="123.2" y1="195.11" x2="123.2" y2="-49.82" gradientUnits="userSpaceOnUse"><stop offset="0.15" stop-color="#bed4de"/><stop offset="0.84" stop-color="#d1ede6"/></linearGradient><linearGradient id="linear-gradient-4" x1="59.39" y1="226.64" x2="59.39" y2="34.64" xlink:href="#linear-gradient"/><linearGradient id="linear-gradient-5" x1="328.45" y1="282.84" x2="328.45" y2="-36.4" xlink:href="#linear-gradient-3"/><linearGradient id="linear-gradient-6" x1="248.66" y1="218.16" x2="248.66" y2="1.72" xlink:href="#linear-gradient"/><linearGradient id="linear-gradient-7" x1="232.59" y1="233.44" x2="232.59" y2="56.94" xlink:href="#linear-gradient-3"/><linearGradient id="linear-gradient-8" x1="606.5" y1="262.23" x2="606.5" y2="-114.89" xlink:href="#linear-gradient-2"/><linearGradient id="linear-gradient-9" x1="578.24" y1="230.81" x2="578.24" y2="-14.6" xlink:href="#linear-gradient-3"/><linearGradient id="linear-gradient-10" x1="29.69" y1="240.61" x2="29.69" y2="-85.96" xlink:href="#linear-gradient-3"/></defs><title>mountain_2</title><polygon class="cls-1" points="138.97 22.52 107.44 132.92 170.49 132.92 138.97 22.52"/><polygon class="cls-2" points="359.02 4.11 297.89 241.49 420.15 241.49 359.02 4.11"/><polygon class="cls-3" points="138.97 22.52 138.97 132.92 107.44 132.92 138.97 22.52"/><polygon class="cls-4" points="59.39 0 0 207.98 118.77 207.98 59.39 0"/><polygon class="cls-5" points="359.02 5.01 359.02 242.38 297.89 242.38 359.02 5.01"/><polygon class="cls-6" points="248.66 79.14 216.51 203.97 280.81 203.97 248.66 79.14"/><polygon class="cls-7" points="248.66 79.14 248.66 203.97 216.51 203.97 248.66 79.14"/><polygon class="cls-8" points="606.5 15.92 549.98 213.88 663.02 213.88 606.5 15.92"/><polygon class="cls-9" points="606.5 15.92 606.5 213.88 549.98 213.88 606.5 15.92"/><polygon class="cls-10" points="59.39 0 59.39 207.98 0 207.98 59.39 0"/></svg>