<svg id="Layer_1" data-name="Layer 1" xmlns="http://www.w3.org/2000/svg" xmlns:xlink="http://www.w3.org/1999/xlink" viewBox="0 0 943.03 485.52"><defs><style>.cls-1{fill:#000a21;}.cls-2{fill:url(#linear-gradient);}.cls-3{fill:url(#linear-gradient-2);}.cls-4{fill:url(#linear-gradient-3);}.cls-5{fill:url(#linear-gradient-4);}.cls-6{fill:#351b11;}.cls-7{fill:#c45933;}.cls-8{fill:#0e2a35;}.cls-9{fill:#825d59;}.cls-10{fill:#353c49;}.cls-11{fill:#634750;}.cls-12{fill:#77524f;}.cls-13{fill:#bc806f;}.cls-14{fill:#fffac8;}.cls-15{fill:url(#linear-gradient-5);}.cls-16{fill:url(#linear-gradient-6);}.cls-17{fill:url(#linear-gradient-7);}.cls-18{fill:#f37f3d;}</style><linearGradient id="linear-gradient" x1="913.74" y1="280.62" x2="624" y2="469.13" gradientUnits="userSpaceOnUse"><stop offset="0" stop-color="#4b343c"/><stop offset="1" stop-color="#48333b" stop-opacity="0"/></linearGradient><linearGradient id="linear-gradient-2" x1="78.76" y1="448.88" x2="345.26" y2="448.88" gradientUnits="userSpaceOnUse"><stop offset="0" stop-color="#0e2534"/><stop offset="1" stop-color="#001025"/></linearGradient><linearGradient id="linear-gradient-3" x1="405.35" y1="512.52" x2="534.95" y2="382.92" gradientUnits="userSpaceOnUse"><stop offset="0" stop-color="#0e2534"/><stop offset="1" stop-color="#0e2435"/></linearGradient><linearGradient id="linear-gradient-4" x1="605.84" y1="514.28" x2="626.79" y2="266.87" gradientUnits="userSpaceOnUse"><stop offset="0" stop-color="#3b3c52"/><stop offset="1" stop-color="#7c5b5a"/></linearGradient><linearGradient id="linear-gradient-5" x1="56.6" y1="412.24" x2="353.6" y2="412.24" gradientUnits="userSpaceOnUse"><stop offset="0" stop-color="#00172a"/><stop offset="1" stop-color="#001025"/></linearGradient><linearGradient id="linear-gradient-6" x1="600.93" y1="335.93" x2="303.76" y2="401.39" gradientUnits="userSpaceOnUse"><stop offset="0" stop-color="#213034"/><stop offset="1" stop-color="#0a2936"/></linearGradient><linearGradient id="linear-gradient-7" x1="610.56" y1="224.93" x2="690.42" y2="65.22" gradientUnits="userSpaceOnUse"><stop offset="0" stop-color="#353c49"/><stop offset="1" stop-color="#353c49"/></linearGradient></defs><polygon class="cls-1" points="159.4 123.31 56.6 370.44 57.53 386.83 25.39 427.62 78.76 485.52 798.05 485.52 653.07 214.96 656.51 136.17 671.32 42.98 391.56 0.01 159.4 123.31"/><polygon class="cls-1" points="653.07 214.96 794.88 317.42 806.56 390.88 918.28 467.83 943.03 485.52 656.51 485.52 653.07 214.96"/><polygon class="cls-2" points="794.88 317.42 694.91 423.32 806.56 390.88 794.88 317.42"/><polygon class="cls-1" points="140.44 227.37 104.94 329.63 27.27 423.32 0 485.52 117.16 485.52 140.44 227.37"/><polygon class="cls-3" points="78.76 412.24 78.76 485.52 345.26 485.52 345.26 432.05 78.76 412.24"/><polygon class="cls-4" points="572.92 333.43 572.92 485.52 345.26 485.52 345.26 432.05 572.92 333.43"/><polygon class="cls-5" points="572.92 333.43 656.51 115.26 656.51 485.52 572.92 485.52 572.92 333.43"/><polygon class="cls-6" points="352.95 400.86 352.96 400.85 352.96 400.85 352.95 400.86"/><polygon class="cls-6" points="588.42 275.05 588.42 275.03 588.37 275.06 588.42 275.05"/><polygon class="cls-7" points="588.42 275.05 588.42 275.05 588.43 275.05 588.42 275.05"/><polygon class="cls-7" points="588.37 275.06 471.76 337.13 471.75 337.15 588.41 275.06 588.42 275.05 588.42 275.05 588.37 275.06"/><polygon class="cls-7" points="352.96 400.85 352.96 400.85 471.75 337.15 471.73 337.15 352.96 400.85"/><polygon class="cls-7" points="471.73 337.15 471.75 337.15 471.76 337.13 471.73 337.15"/><polygon class="cls-1" points="159.39 123.31 159.38 123.32 159.38 123.34 56.6 370.44 220.77 140.2 159.39 123.31"/><polygon class="cls-1" points="56.6 370.44 352.92 400.85 352.94 400.86 352.95 400.86 364.8 345.41 56.6 370.44"/><polygon class="cls-8" points="220.77 140.2 56.6 370.44 265.8 152.39 220.77 140.2"/><polygon class="cls-8" points="373.48 304.82 56.6 370.44 364.8 345.41 373.48 304.82"/><polygon class="cls-9" points="332.08 187.13 332.08 187.13 353.53 175.7 353.53 175.69 265.8 152.39 56.6 370.44 332.08 187.13 332.08 187.13"/><polygon class="cls-9" points="390.06 227.39 389.34 226.39 367.84 237.86 367.84 237.86 367.84 237.86 56.6 370.44 373.48 304.82 390.06 227.39"/><polygon class="cls-10" points="238.34 115.26 159.4 123.31 159.39 123.31 220.77 140.2 238.34 115.26"/><polygon class="cls-11" points="307.7 108.34 238.34 115.26 220.77 140.2 265.8 152.39 307.7 108.35 307.7 108.34"/><polygon class="cls-1" points="276.54 60.85 159.4 123.31 238.34 115.26 276.54 60.85"/><polygon class="cls-10" points="364.8 345.41 352.95 400.86 352.96 400.85 398.14 342.81 364.8 345.41"/><polygon class="cls-11" points="437.45 292.01 373.48 304.82 364.8 345.41 398.14 342.81 437.46 292.03 437.45 292.01"/><polygon class="cls-1" points="398.14 342.81 352.96 400.85 471.73 337.15 398.14 342.81"/><polygon class="cls-12" points="314.71 231.34 56.6 370.44 367.84 237.86 314.71 231.34"/><polygon class="cls-13" points="332.08 187.13 56.6 370.44 314.71 231.34 332.08 187.13"/><polygon class="cls-1" points="671.32 42.98 391.59 0.01 391.57 0 391.56 0.01 379.45 55.86 671.32 42.98"/><polygon class="cls-1" points="588.42 275.03 671.32 42.98 524.7 260.03 588.42 275.03"/><polygon class="cls-8" points="524.7 260.03 671.32 42.98 478.26 248.91 524.7 260.03"/><polygon class="cls-8" points="370.62 96.64 671.32 42.98 379.45 55.86 370.62 96.64"/><polygon class="cls-7" points="410.8 214.96 410.8 214.96 427.49 171.26 410.8 214.96"/><polygon class="cls-9" points="353.54 175.7 374.93 164.32 374.93 164.32 374.93 164.32 671.32 42.98 370.62 96.64 353.54 175.7"/><polygon class="cls-7" points="374.93 164.32 427.49 171.26 374.93 164.32 374.93 164.32"/><polygon class="cls-9" points="478.26 248.91 671.32 42.98 410.8 214.97 410.8 214.97 410.79 214.97 389.34 226.39 390.06 227.39 390.06 227.37 478.26 248.91"/><polygon class="cls-7" points="353.53 175.69 353.53 175.7 353.54 175.7 353.53 175.69"/><polygon class="cls-7" points="374.93 164.32 374.93 164.32 374.93 164.32 374.93 164.32"/><polygon class="cls-7" points="410.8 214.97 410.8 214.97 410.79 214.97 410.8 214.97"/><polygon class="cls-14" points="410.8 214.96 410.8 214.96 427.49 171.26 374.93 164.32 374.93 164.32 374.93 164.32 353.54 175.7 353.53 175.7 332.08 187.13 332.08 187.13 332.08 187.13 314.71 231.34 367.84 237.86 367.84 237.86 367.84 237.86 389.34 226.39 410.79 214.97 410.8 214.96"/><polygon class="cls-10" points="391.56 0.01 347.25 57.39 379.45 55.86 391.56 0.01"/><polygon class="cls-7" points="307.71 108.34 307.7 108.34 307.7 108.35 307.71 108.34"/><polygon class="cls-11" points="379.45 55.86 347.25 57.39 307.71 108.34 370.62 96.64 379.45 55.86"/><polygon class="cls-10" points="307.71 108.34 307.7 108.35 265.8 152.39 353.53 175.69 353.54 175.7 370.62 96.64 307.71 108.34"/><polygon class="cls-1" points="391.56 0.01 391.56 0 391.55 0.01 276.54 60.85 347.25 57.39 391.56 0.01"/><polygon class="cls-8" points="276.54 60.85 238.34 115.26 307.7 108.34 307.71 108.34 347.25 57.39 276.54 60.85"/><polygon class="cls-10" points="508.31 283.97 588.37 275.06 588.42 275.03 524.7 260.03 508.31 283.97"/><polygon class="cls-7" points="437.46 292.03 437.49 292 437.45 292.01 437.46 292.03"/><polygon class="cls-11" points="478.26 248.91 437.49 292 508.31 283.97 524.7 260.03 478.26 248.91"/><polygon class="cls-10" points="390.06 227.37 390.06 227.39 373.48 304.82 437.45 292.01 437.49 292 478.26 248.91 390.06 227.37"/><polygon class="cls-1" points="471.76 337.13 588.37 275.06 508.31 283.97 471.76 337.13"/><polygon class="cls-8" points="437.49 292 437.46 292.03 398.14 342.81 471.73 337.15 471.76 337.13 508.31 283.97 437.49 292"/><polygon class="cls-12" points="374.93 164.32 427.49 171.26 671.32 42.98 374.93 164.32 374.93 164.32"/><polygon class="cls-7" points="374.93 164.32 374.93 164.32 374.93 164.32 374.93 164.32"/><polygon class="cls-13" points="410.8 214.96 410.8 214.97 671.32 42.98 427.49 171.26 410.8 214.96"/><polygon class="cls-7" points="410.79 214.97 410.8 214.97 410.8 214.96 410.79 214.97"/><polygon class="cls-15" points="353.6 454.04 59.44 420.71 56.6 370.44 352.68 400.85 353.6 454.04"/><polygon class="cls-16" points="588.43 329.63 353.6 454.04 352.68 400.85 588.43 275.06 588.43 329.63"/><polyline class="cls-17" points="671.32 88.06 671.32 42.98 588.43 275.06 588.43 329.63"/><path class="cls-18" d="M74.4,412.24"/></svg>