<svg xmlns="http://www.w3.org/2000/svg" xmlns:xlink="http://www.w3.org/1999/xlink" viewBox="0 0 526.67 631.63"><defs><style>.cls-1{isolation:isolate;}.cls-2{fill:#9d4b31;}.cls-3{fill:#824c2e;}.cls-4{fill:#e5af6e;}.cls-5{fill:#f9d9b5;}.cls-6{fill:#cc9a62;}.cls-7{fill:#cf6335;}.cls-8{fill:#e69e5b;}.cls-9{fill:#ce8757;}.cls-10{fill:url(#linear-gradient);}.cls-11{fill:#6b2b1a;}.cls-12{fill:#7f3526;}.cls-13{fill:#b7a238;}.cls-14{fill:#a18046;}.cls-15{fill:#90654c;}.cls-16{fill:#8a5330;}.cls-17{fill:#a08928;}.cls-18{fill:url(#linear-gradient-2);}.cls-19{fill:#e69e1d;}.cls-20{fill:#d5772a;}.cls-21{fill:#8e3d2d;}.cls-22{fill:#9b4934;}.cls-23{fill:none;}.cls-24{fill:#7f4437;}.cls-25{fill:#6d392c;}.cls-26{fill:#9b378d;}.cls-27{fill:#bf47a6;}.cls-28{fill:#dd66d4;}.cls-29{fill:#875d54;}.cls-30{fill:#5b3d37;}.cls-31{fill:#725049;}.cls-32,.cls-33,.cls-34{opacity:0.74;}.cls-32{mix-blend-mode:overlay;fill:url(#linear-gradient-3);}.cls-33{mix-blend-mode:screen;fill:url(#linear-gradient-4);}.cls-34{mix-blend-mode:multiply;fill:url(#linear-gradient-5);}</style><linearGradient id="linear-gradient" x1="9" y1="159.3" x2="360.45" y2="159.3" gradientUnits="userSpaceOnUse"><stop offset="0" stop-color="#dd855e"/><stop offset="1" stop-color="#90654c"/></linearGradient><linearGradient id="linear-gradient-2" x1="391.71" y1="379.99" x2="236.67" y2="379.99" gradientUnits="userSpaceOnUse"><stop offset="0" stop-color="#90654c"/><stop offset="1" stop-color="#824c2e"/></linearGradient><linearGradient id="linear-gradient-3" x1="-90.62" y1="412.3" x2="761.7" y2="8.06" gradientUnits="userSpaceOnUse"><stop offset="0" stop-color="#af7b6d"/><stop offset="1" stop-color="#0d111c"/></linearGradient><linearGradient id="linear-gradient-4" x1="-335.17" y1="202.99" x2="210.31" y2="329.62" gradientUnits="userSpaceOnUse"><stop offset="0" stop-color="#eab9b1" stop-opacity="0.7"/><stop offset="1" stop-color="#a9776a" stop-opacity="0"/></linearGradient><linearGradient id="linear-gradient-5" x1="546.51" y1="141.23" x2="57.85" y2="344.16" gradientUnits="userSpaceOnUse"><stop offset="0" stop-color="#1f1b26" stop-opacity="0.8"/><stop offset="1" stop-color="#a9776a" stop-opacity="0"/></linearGradient></defs><g class="cls-1"><g id="Layer_1" data-name="Layer 1"><path class="cls-2" d="M140.65,460.31s33.64,43.45,67.58,27.32S211,451.57,211,451.57H200l-44.91-7L144,448.05l-3.35.65-.91,1.64"/><path class="cls-3" d="M260.36,464.07c-.32-11.11-9.26-12.5-9.26-12.5-8.73,2.45-8.72,6.54-8.55,7.63l3.71-2.85a2.52,2.52,0,0,1,.68,0l.84-.75,4.14.38,2.83,1.47,1.47,12.64v.68c1.08-.47.62.34,0,1.19l-.13,8-4.69,5.18-3.75-1.64s-2.24-5.94,0-3.5l0,0a15.19,15.19,0,0,1-1.82-4.19,4.34,4.34,0,0,1-.77-.08c-2.61-.76.15-1.21.15-1.21l.26,0c-.28-1.05-.55-2.2-.82-3.57l.08-.63-.08.05-1.33,1.37c2,21.52,13.52,19.56,13.52,19.56C264.22,487,260.36,464.07,260.36,464.07Z"/><path class="cls-4" d="M251.86,466c-.11-1.11-.28-2-.45-2.88,0,0-6.16,6.78-6.66,7.12l-.08.63c.27,1.37.54,2.52.82,3.57a26.34,26.34,0,0,0,7-1.79A54.53,54.53,0,0,0,251.86,466Z"/><path class="cls-4" d="M251.51,479.38a11.47,11.47,0,0,0,1-5,20.86,20.86,0,0,1-6.64,1.45,15.19,15.19,0,0,0,1.82,4.19C249.92,482.35,251.51,479.38,251.51,479.38Z"/><path class="cls-3" d="M245.23,474.5s-2.76.45-.15,1.21a4.34,4.34,0,0,0,.77.08c-.13-.4-.24-.86-.36-1.32Z"/><path class="cls-3" d="M256.21,470.74l0,1.19C256.83,471.08,257.29,470.27,256.21,470.74Z"/><path class="cls-3" d="M252.49,474.34c0-.56,0-1.1,0-1.66a26.34,26.34,0,0,1-7,1.79c.12.46.23.92.36,1.32A20.86,20.86,0,0,0,252.49,474.34Z"/><path class="cls-3" d="M253.21,463.71l0-.07a57,57,0,0,1,.6,8.41c.38-.2.77-.39,1.15-.63a10.19,10.19,0,0,1,1.23-.68v-.68l-1.47-12.64L251.92,456l-4.14-.38-.84.75a3.49,3.49,0,0,1,1.49.49C250.16,457.11,252.42,458.5,253.21,463.71Z"/><path class="cls-3" d="M253.74,473.88a13.73,13.73,0,0,1-1.49,6s-2.2,3.52-4.58.06l0,0c-2.26-2.44,0,3.5,0,3.5l3.75,1.64,4.69-5.18.13-8c-.54.72-1.21,1.46-1.21,1.46Z"/><path class="cls-3" d="M252.25,479.92a13.73,13.73,0,0,0,1.49-6l-1.25.46a11.47,11.47,0,0,1-1,5s-1.59,3-3.84.6C250.05,483.44,252.25,479.92,252.25,479.92Z"/><path class="cls-3" d="M251.45,463.21l-.34-1.9c.18.86.64,3.61.75,4.72a54.53,54.53,0,0,1,.63,6.65c.45-.19.89-.4,1.34-.63a57,57,0,0,0-.6-8.41l0,.07c-.79-5.21-3.05-6.6-4.78-6.9C249.62,457.53,251,459.23,251.45,463.21Z"/><path class="cls-3" d="M253.83,472.05c0,.62-.05,1.22-.09,1.83l1.24-.49s.67-.74,1.21-1.46l0-1.19a10.19,10.19,0,0,0-1.23.68C254.6,471.66,254.21,471.85,253.83,472.05Z"/><path class="cls-3" d="M252.49,474.34l1.25-.46c0-.61.08-1.21.09-1.83-.45.23-.89.44-1.34.63C252.51,473.24,252.51,473.78,252.49,474.34Z"/><path class="cls-5" d="M217,476.48a68.48,68.48,0,0,1-6.81,11l3.4-1a17.8,17.8,0,0,1,2.35,13.39l-11.11,8.15c-20.59,5.58-24.22-11.72-24.22-11.72a90,90,0,0,1,1.62-18.75l1.23-1,.33-.22c.06-.06.12-.11.17-.11s.45-.34.95-.67l3.35-2.74,13-9.2a53.54,53.54,0,0,0-12.06-5.86,38.09,38.09,0,0,1,6.59-9.32c15.62-4.91,22,16.07,24.22,26.23Z"/><path class="cls-4" d="M242.6,459.48a2.11,2.11,0,0,1,0-.28l-22.27,17.12c.15.78,0,0,0,0l0,0c-.06-.29-.16-.79-.34-1.64l-3,1.78a67.23,67.23,0,0,1-6.81,11l3.41-1a17.66,17.66,0,0,1,2.33,13.4l27.45-28.21c-.12-1.36-.21-2.8-.25-4.35Z"/><path class="cls-4" d="M220.28,476.32l0,0S220.43,477.1,220.28,476.32Z"/><path class="cls-4" d="M244.75,470.27l1.51-13.34.26-.24-.26-.34-3.71,2.85a2.11,2.11,0,0,0,0,.28l.49,7.86c0,1.55.13,3,.25,4.35l1.33-1.37Z"/><path class="cls-4" d="M250.66,462.17l-4-5.31a3.81,3.81,0,0,0-.39.07l-1.51,13.34C245.25,469.93,250.5,466.26,250.66,462.17Z"/><path class="cls-4" d="M246.52,456.69l-.26.24.37-.1Z"/><path class="cls-4" d="M246.63,456.83l-.37.1a3.81,3.81,0,0,1,.39-.07Z"/><path class="cls-4" d="M246.94,456.32a2.52,2.52,0,0,0-.68,0c.14.07.24.16.38.24Z"/><path class="cls-4" d="M247.07,456.86c2.7,1.68,3.67,3.53,3.59,5.31l.75,1C250.32,457.89,248.23,456.93,247.07,456.86Z"/><path class="cls-4" d="M246.94,456.78a4.73,4.73,0,0,1,1.49,0,3.49,3.49,0,0,0-1.49-.49l-.3.27Z"/><path class="cls-4" d="M251.45,463.21c-.5-4-1.83-5.68-3-6.4a4.73,4.73,0,0,0-1.49,0,.91.91,0,0,1,.13.08C248.23,456.93,251.45,463.21,251.45,463.21Z"/><path class="cls-4" d="M246.64,456.59c-.14-.08-.24-.17-.38-.24l.26.34Z"/><path class="cls-4" d="M247.07,456.86h-.42l4,5.31C250.74,460.39,249.77,458.54,247.07,456.86Z"/><path class="cls-4" d="M246.94,456.78l-.3-.19-.12.1.11.14Z"/><path class="cls-4" d="M246.65,456.86h.42a.91.91,0,0,0-.13-.08l-.31.05Z"/><path class="cls-3" d="M191.94,443.62c0-.14,0-.28.07-.41A3.2,3.2,0,0,0,191.94,443.62Z"/><path class="cls-4" d="M200.34,450.7c-.11-1-.26-1.82-.42-2.59l-.67-.89c-.15,3.69-4.88,7-5.34,7.31l-.06.57c.23,1.23.48,2.27.73,3.22a23.91,23.91,0,0,0,6.32-1.62A50.07,50.07,0,0,0,200.34,450.7Z"/><path class="cls-3" d="M194.35,458.34s-2.49.41-.13,1.1a4.45,4.45,0,0,0,.68.07c-.1-.36-.21-.78-.32-1.19Z"/><path class="cls-3" d="M204.26,455l0,1.07C204.82,455.26,205.23,454.53,204.26,455Z"/><path class="cls-3" d="M200.9,458.2c0-.51,0-1,0-1.5a23.91,23.91,0,0,1-6.32,1.62c.11.41.22.83.32,1.19A19.07,19.07,0,0,0,200.9,458.2Z"/><path class="cls-3" d="M201.55,448.6l0-.05a49.89,49.89,0,0,1,.53,7.59c.35-.18.71-.36,1-.57a7.77,7.77,0,0,1,1.12-.62v-.61l-1.33-11.4-2.56-1.33-3.73-.34-.76.67a3,3,0,0,1,1.34.45C198.8,442.65,200.83,443.91,201.55,448.6Z"/><path class="cls-3" d="M200,448.16l-.3-1.71c.16.77.57,3.25.68,4.25a50.07,50.07,0,0,1,.56,6c.41-.17.81-.36,1.2-.56a49.89,49.89,0,0,0-.53-7.59l0,.05c-.72-4.69-2.75-6-4.32-6.21C198.31,443,199.51,444.56,200,448.16Z"/><path class="cls-3" d="M202.1,456.14c0,.55,0,1.09-.07,1.64l1.11-.44s.61-.67,1.1-1.32l0-1.07a7.77,7.77,0,0,0-1.12.62C202.81,455.78,202.45,456,202.1,456.14Z"/><path class="cls-3" d="M200.9,458.2l1.13-.42c0-.55.07-1.09.07-1.64-.39.2-.79.39-1.2.56C200.92,457.2,200.91,457.69,200.9,458.2Z"/><path class="cls-4" d="M165.78,469.17l-3.08.88a60.38,60.38,0,0,0,6.15-9.94l2.68-1.6c-1.95-9.17,5.29-25.75-8.83-21.3,0,0-24.61,7.93-24.23,38,0,0,.85,18.43,19.38,13.42l10-7.37A16,16,0,0,0,165.78,469.17Z"/><path class="cls-6" d="M171.84,460c.14.7,0,0,0,0l0,0c-.05-.27-.14-.71-.31-1.48l-2.68,1.6a60.38,60.38,0,0,1-6.15,9.94l3.08-.88a16,16,0,0,1,2.1,12.09l19.4-19.94c.72-6.31,3.12-10.93,4.46-16.63Z"/><path class="cls-4" d="M171.84,460l0,0S172,460.69,171.84,460Z"/><path class="cls-4" d="M195.28,442l-3.35,2.58a2.2,2.2,0,0,0,0,.26l.44,7.08c0,1.4.12,2.7.23,3.93l1.2-1.24.06,0,1.37-12,.23-.21Z"/><path class="cls-4" d="M199.25,447.22l-3.62-4.79a2.45,2.45,0,0,0-.35.06l-1.37,12C194.37,454.22,199.1,450.91,199.25,447.22Z"/><path class="cls-4" d="M195.51,442.28l-.23.21.33-.09Z"/><path class="cls-4" d="M195.61,442.4l-.33.09a2.45,2.45,0,0,1,.35-.06Z"/><path class="cls-4" d="M195.89,441.94a2.35,2.35,0,0,0-.61,0l.34.22Z"/><path class="cls-4" d="M196,442.42c2.44,1.52,3.31,3.19,3.24,4.8l.67.89C198.94,443.36,197.05,442.49,196,442.42Z"/><path class="cls-4" d="M195.9,442.35a4.37,4.37,0,0,1,1.33,0,3,3,0,0,0-1.34-.45l-.27.24C195.72,442.24,195.8,442.3,195.9,442.35Z"/><path class="cls-4" d="M199.92,448.11l0,.05c-.45-3.6-1.65-5.13-2.73-5.77a4.37,4.37,0,0,0-1.33,0,.41.41,0,0,0,.11.07C197.05,442.49,198.94,443.36,199.92,448.11Z"/><path class="cls-4" d="M195.62,442.18l-.34-.22.23.32Z"/><path class="cls-4" d="M196,442.42h-.38l3.62,4.79C199.32,445.61,198.45,443.94,196,442.42Z"/><path class="cls-4" d="M195.9,442.35c-.1-.05-.18-.11-.28-.17l-.11.1.1.12Z"/><path class="cls-4" d="M195.63,442.43H196a.41.41,0,0,1-.11-.07l-.29,0Z"/><path class="cls-7" d="M259.6,410.91a39,39,0,0,0-3.18-9.6l-3.77-7.69-.8-1.63-3.29-11.38c-.34-.17-.67-.28-1.07-.45a8.56,8.56,0,0,1,.62.89l-27.35,15.63c-22.93-7.87-40.51-6.25-40.51-6.25l-2.07,3.4L176.29,397,157.2,422.85l-19.64,26.51,3.07,10.94-.79-9.15a75.36,75.36,0,0,1,16.41-2.24,34.29,34.29,0,0,1,6.2.11c4.76.28,9.41,1.93,14.24,3.89,3.89,1.57,7.9,3.35,12.21,4.82a52.49,52.49,0,0,1,12.27,5.91c7.53,5,12,11.74,14.35,21.21,0,0,32.25-29.8,40.07-44.81a31.53,31.53,0,0,0,1.62-3.57,49.57,49.57,0,0,0,3.16-15.23A42.37,42.37,0,0,0,259.6,410.91Z"/><path class="cls-8" d="M526.67,219.41v38.4s-7.16,63.77-33.86,91.39c0,0-24.68,29.43-48.71,37.86a35.77,35.77,0,0,1-12,2.3H432s26.44,5.82,43.1-8.06a31.21,31.21,0,0,0,4.38-4.44,53.79,53.79,0,0,1-3.58,4.28,95.21,95.21,0,0,1-18.37,15.65,0,0,0,0,1-.05,0c-26.6,17.62-76.65,33.06-157.24-5.13l-.48-1.76-7.91-29.59A423.21,423.21,0,0,1,309.34,304v0l.06-.06c10.09-25.79,24.51-53.35,42.88-65.85,0,0,11.27-3.21,22.12-5.93,5-1.34,10-2.51,13.67-3.26,0,0,23.66-25.58,45-25.64l-8.92,18.64c.06,0,.06-.05.11-.05l2-1.44c.21-.16.48-.32.75-.53,9.56-6.31,41-25,71.89-20.19l-6.14,11.64,24.78-8.07s-.06,21.58-3.53,24.36C516.63,225.93,526.67,219.41,526.67,219.41Z"/><path class="cls-9" d="M388.07,228.82s9.71-.48,15.93-5.7c0,0,10.7,13.71-44.18,12.79"/><path class="cls-9" d="M479.45,376.86a53.79,53.79,0,0,1-3.58,4.28l-.8.16A31.21,31.21,0,0,0,479.45,376.86Z"/><path class="cls-9" d="M526.67,219.41v38.4s-7.16,63.77-33.86,91.39c0,0-24.68,29.43-48.71,37.86l-12,2.3H432s-21.36.64-40.38-6.35c0,0,70.66-31.09,84.66-65.65,0,0,1.92,8.44.05,15.81,1.66-2,28.95-36.53,26-63.61,0,0,13.08-26.27,14.37-35.35l-14.37,7.42s5.07-17.41,5.07-24.25L484,223.15l3.15-18.05s-19-4.6-62.86,16.66l2-1.44c8.49-5.77,40.8-25.74,72.64-20.72l-6.14,11.64,24.78-8.07s-.06,21.58-3.53,24.36C516.63,225.93,526.67,219.41,526.67,219.41Z"/><path class="cls-9" d="M457.45,396.84c-26.6,17.62-76.65,33.06-157.24-5.13l-.48-1.76,10.41-6.84s45.3,18.54,81.45,16.61c0,0-7.42,3.85-11.27,3.85C380.32,403.57,417,412.38,457.45,396.84Z"/><path class="cls-9" d="M371,234.15c-15.76,1.39-29.75,27.13-30.61,28.79,16.19-9.19,22.06-4.65,22.06-4.65-26,10.58-51.43,43.53-53,45.56,10.09-25.79,24.51-53.35,42.88-65.85,0,0,11.27-3.21,22.12-5.93C374.93,233.14,374,233.89,371,234.15Z"/><path class="cls-9" d="M452.17,251.77a23,23,0,0,1,11.65-10.16,21.18,21.18,0,0,1-4.95,6.09A21.41,21.41,0,0,1,452.17,251.77Z"/><path class="cls-9" d="M342,355a21.11,21.11,0,0,1,4.95-6.08,20.85,20.85,0,0,1,6.7-4.08,21.18,21.18,0,0,1-4.95,6.09A21.41,21.41,0,0,1,342,355Z"/><path class="cls-9" d="M461.49,251.77a22,22,0,0,1,5.16-6.1,21.7,21.7,0,0,1,6.88-4.06,21.74,21.74,0,0,1-5.16,6.1A22.08,22.08,0,0,1,461.49,251.77Z"/><path class="cls-9" d="M472,254.83a16.42,16.42,0,0,1,9.71-8.6,16.42,16.42,0,0,1-9.71,8.6Z"/><path class="cls-9" d="M342,333.84a16.47,16.47,0,0,1,9.71-8.61,15.15,15.15,0,0,1-4,5.3A15.41,15.41,0,0,1,342,333.84Z"/><path class="cls-9" d="M333,350a15.43,15.43,0,0,1,4-5.3,15.1,15.1,0,0,1,5.74-3.3,15,15,0,0,1-4,5.3A15.23,15.23,0,0,1,333,350Z"/><path class="cls-10" d="M10.2,102s-18.67,63.72,91.32,106.34l161,18.54s65.22-.89,97.9-40.46l-.76-.36-1.21-4.57-2.18-9.07L203.93,161.68l-131-56.8-39-13.19H20.86Z"/><polygon class="cls-2" points="240.06 414.07 202.63 464.56 204.24 465.83 242.55 415.29 240.06 414.07"/><path class="cls-2" d="M259.6,410.91l-14.84-7.09L216.24,400l-38.06-6.14L176.29,397,157.2,422.85l1.9,8.26,25.05-4L208.21,421s22.56,10.07,42.49,14.28c.12,2.43.2,10.84-3.63,16.84,0,0,8.36-8.67,10.49-16.61h0A46.16,46.16,0,0,0,259.6,410.91Z"/><path class="cls-11" d="M208.17,259.08,219,265.17s20.35.24,22.1,6.39.7-15.08.7-15.08l-15.41-19.89L206.27,238"/><polygon class="cls-12" points="213.79 254 206.53 253.28 195.88 262.13 197.53 265.17 214.49 261.77 213.79 254"/><path class="cls-5" d="M199,235.78c-46,14.86-61.15-8.86-61.15-8.86,2,9.14,14.57,13.71,14.57,13.71-12.39-.25-20.21-3.6-25.19-8.13,10.38,25.77,26.05,35.28,26.05,35.28-8.17.61-13.56-2.47-16.87-5.5l.58,1.66,10.12,9,16.21,1.43,27-4.68s12.36-2,23.71-15.67C202.81,245.38,199,235.78,199,235.78Z"/><path class="cls-4" d="M180.11,204.62l-57.68-8.85L106.72,209.2l25.43,40.86,4.28,12.22c3.31,3,8.7,6.11,16.87,5.5,0,0-15.67-9.51-26.05-35.28,5,4.53,12.8,7.88,25.19,8.13,0,0-12.57-4.57-14.57-13.71,0,0,15.14,23.72,61.15,8.86,0,0,3.79,9.6,15,18.23a64.46,64.46,0,0,0,7.36-11.09C233.88,219.2,180.11,204.62,180.11,204.62Z"/><path class="cls-7" d="M270.46,196.91s-11.14,2.57-26.57-18.58L128.74,141.41S85,166.33,98.14,222.06c0,0,8,22,5.15,34,0,0-4.86,28.86,30.29,35.72,0,0-20.58-9.14-17.43-26.29,0,0,9.43,27.15,43.15,24.29l2.29-15.71s-22.74-.44-29.44-24c0,0,5.72,12,21.15,10.86,0,0-15.67-9.52-26.05-35.28,5,4.53,12.8,7.88,25.19,8.13,0,0-12.57-4.57-14.57-13.71,0,0,15.14,23.71,61.15,8.85,0,0,7.72,19.72,34,28,0,0,10.28,13.72,2.85,23.43,0,0,17.72-1.71,23.15-30.57,0,0,10.86,6.85,5.15,17.71,0,0,24.57-28.86,3.14-54.29,0,0,33.15,2.28,28.58,22.86C295.9,236.06,310.47,211.2,270.46,196.91Z"/><path class="cls-2" d="M127.25,224.82s-18.63-13-11.32-38.36C115.93,186.46,113.41,210.32,127.25,224.82Z"/><path class="cls-2" d="M137.87,220.06s-3-12.7-1.39-19.6c0,0,4.42,30.56,34.86,33.34C171.34,233.8,146.61,234.57,137.87,220.06Z"/><path class="cls-2" d="M191,177s14,18.14,11.74,36.4c0,0-3.67,8.63-3.67,15.49,0,0-2.41-10.49-1-20.53C198.07,208.38,200.31,198,191,177Z"/><path class="cls-2" d="M233,256.92a52.07,52.07,0,0,0-18.79-25.11s-3.38,10.05,9.38,15.53A29.87,29.87,0,0,1,233,256.92Z"/><path class="cls-7" d="M216.8,235.77s-2.74,6.5,7.75,10.35C224.55,246.12,216.94,237.92,216.8,235.77Z"/><path class="cls-2" d="M259,249.78s1.79-17.05-4.09-28.62c0,0,18.47,34.42,9.24,46.33,0,0,5.7-7.67-5.32-16.85"/><path class="cls-7" d="M248.09,183.66s12.74,9.1,22.37,13.25,0,5,0,5l-22.37-1.42"/><path class="cls-2" d="M116.15,265.49s-4.43-17.34-1.92-27.28c0,0-6.43,29.64,4.2,40.34A52.92,52.92,0,0,1,116.15,265.49Z"/><path class="cls-2" d="M132.15,250.06s-4.24-6.37-5.26-11.85C126.89,238.21,122,238.37,132.15,250.06Z"/><path class="cls-2" d="M142.5,274.22s-16.42-6.84-17.84-15.14c0,0,5.12,17.05,12.7,22"/><polygon class="cls-13" points="223.61 343.27 211.39 386.75 182.76 404.66 181.7 405.33 181.42 405.5 180.92 405.16 175.44 400.15 176.42 395.49 175.19 394.6 160.83 369.39 156.75 358.39 158.09 348.18 160.83 327.31 161.11 325.86 167.58 294.44 190.68 293.21 223.61 343.27"/><path class="cls-14" d="M197.1,367.88C183,369.11,169,358.17,169,358.17l-.1.12c-.07-.69-.12-1.12-.12-1.12a5.64,5.64,0,0,0,.22,1c0-.11-.05-.72-.22-2.06-.5-4.08,9.6-47.77,9.6-47.77l1.11.22,7.09-2.79-2.34-6.42-6.09-3.68-10.6,12.56-6.47,17.63-4.36,11.94,1.34,10.38,2.74,21.21,14.36,25.21.25,5.55,5.48,5,.78.17.61.17.45-.84L195,381.05S211.11,366.65,197.1,367.88Z"/><path class="cls-15" d="M148,295.85s-14.26,20-21.06,64l32.51,4.63L161,296.22"/><path class="cls-16" d="M132.32,435.45c5.77-6.49,14.56-6.37,14.56-6.37,9.31-.64,14.73,3.07,17.17,5.39,0,0,1.35.74-1.89,4.67l0,0c-2.34,2.94-7.21,6.5-17,6.5a16.5,16.5,0,0,1-13.24-7.81C131.19,436.76,132.32,435.45,132.32,435.45Z"/><path class="cls-15" d="M165.63,436.24l-2.07,1.68-1.39,1.23v-.06l1.34-2.51.67-1.28a6.44,6.44,0,0,0-.84-1.12c-.22-.28-.5-.61-.84-1l-.17-.17a1.63,1.63,0,0,0-.44-.28,12.5,12.5,0,0,0-1.45-.89,5.28,5.28,0,0,0-1.29-.67l-.05-.06c-.11,0-.17-.06-.28-.06l-.11-.11a11.09,11.09,0,0,0-2-.72,4.47,4.47,0,0,0-1.23-.34,1.5,1.5,0,0,0-.67-.16c-.17-.06-.33-.06-.5-.12s-.17-.05-.28-.05l-.56-.17a6.52,6.52,0,0,0-1.45-.17,26.15,26.15,0,0,0-5.13-.11h-.06a2.78,2.78,0,0,0-.61.06,5.33,5.33,0,0,0-.84,0h-.22a5,5,0,0,0-.79.11,13.49,13.49,0,0,0-1.84.34,7.47,7.47,0,0,0-1,.28,4.63,4.63,0,0,0-.89.22h-.06c-.22.11-.5.17-.73.28s-.27.11-.39.17-.16.05-.22.11a15.36,15.36,0,0,0-5.3,4.07,17.52,17.52,0,0,0-2.07,3l2,2.56-3.3-2.51a204.85,204.85,0,0,1-4.18-39.79V398c-.61-13.9.56-38.23.56-38.23l15.4-6.58a63.58,63.58,0,0,1,7.76,2.39,33.76,33.76,0,0,1,4.07,1.73,17.79,17.79,0,0,1,4,2.57,5.48,5.48,0,0,1,2.12,3.18.41.41,0,0,1,.06.23l0,.05.62,4.58c.55,4,.89,6.86.89,6.86l.5,8.37.11,2.18.17,2.51Z"/><path class="cls-17" d="M133.92,434.81c.09.64.2,1.29.31,2a15.48,15.48,0,0,1,5.9-4.29,5.39,5.39,0,0,1,.73-.27l.07,0a21.53,21.53,0,0,1,6.34-1.11c7.65-.52,12.68,1.85,15.66,4,.19.17.36.37.52.54l-.1-1.48a10.23,10.23,0,0,0-1-1.12c-2.92-2.15-7.89-4.48-15.43-4a21.6,21.6,0,0,0-6.23,1.09l-.07,0c-.24.08-.49.17-.73.27A15.6,15.6,0,0,0,133.92,434.81Z"/><path class="cls-17" d="M136.82,440.74c4.68-5.26,11.8-5.16,11.8-5.16,7.54-.52,11.93,2.48,13.9,4.36,0,0,1.1.6-1.52,3.78l0,0c-1.9,2.38-4.92,3.07-12,4,0,0-8.36,0-12.54-5.08C135.91,441.8,136.82,440.74,136.82,440.74Z"/><path class="cls-13" d="M140.13,432.48a5.39,5.39,0,0,1,.73-.27l.07,0a21.53,21.53,0,0,1,6.34-1.11c7.65-.52,12.68,1.85,15.66,4,.19.17.36.37.52.54l.06,1,.08,1.33.21,3.45-1,.8L161,443.73l1.21-2.29.43-.83a9.74,9.74,0,0,0-1.52-1.83,15.9,15.9,0,0,0-5.06-2.47,19.22,19.22,0,0,0-3.79-.71,22.49,22.49,0,0,0-2.75-.06l-.9,0a15.46,15.46,0,0,0-3,.35,15.63,15.63,0,0,0-2,.52h-.05a4.9,4.9,0,0,0-.61.21,13.52,13.52,0,0,0-6.45,6l1,.92,1.13,1.06-1.34-.75-1.92-1.08c-.36-2-.76-4-1.11-6A15.48,15.48,0,0,1,140.13,432.48Z"/><path class="cls-5" d="M158.83,445.15l.53,1.27c.41,2.9.82,12.17-1.19,16.82,0,0-2.09,1.29-4-2.5a5.88,5.88,0,0,1-2.28-3,12.54,12.54,0,0,1-3.21-7.63,18.42,18.42,0,0,1,0-3.25A7.8,7.8,0,0,1,158.83,445.15Z"/><path class="cls-4" d="M149.52,435.54a22.49,22.49,0,0,1,2.75.06,19.22,19.22,0,0,1,3.79.71l.9,5.6.37.53v0h0l0,0,.08.12h0a14.26,14.26,0,0,1,1.41,2.56,7.8,7.8,0,0,0-10.22,1.68c0-.58.12-1.18.23-1.82a9.71,9.71,0,0,1,.79-2h0a6,6,0,0,1,1.42-1.79Z"/><path class="cls-15" d="M160.38,354.94v8.42l.62,4.58c.55,4,.89,6.86.89,6.86l.5,8.37c-.5-.89-1-1.84-1.51-2.79a150.27,150.27,0,0,1-9.48-20.7,19.85,19.85,0,0,1-.84-2.46c-.17-.5-.34-1-.5-1.5v-.12c.83-8.48,1.56-16.85,2.06-23.82,1.45-9.27,3.41-17.75,5.92-22.33l2.56-5.35s-4.13-2.18-7.25,8.76c0,0-.45,7.81-1.23,18.92-1.17,7.25-2,15-2.62,21.76a35.61,35.61,0,0,1-1.45-10.27c.95-18.3,2.23-40,10.27-46.09l21,.42s-13.9,35.85-13.45,61.13Z"/><path class="cls-3" d="M168.82,298.84s-4.1-2.2-7.26,8.76c0,0-.41,7.83-1.22,18.91,1.46-9.26,3.39-17.71,5.9-22.32Z"/><path class="cls-7" d="M225.21,338.42l-5.42-11.09-3,29.34c0,.05,1.18,1.75,3,4.41,5.46,7.93,16.74,24.2,19.28,27.94l1,.41Z"/><path class="cls-18" d="M314.59,338.55a95.79,95.79,0,0,0-35.52,0s-23.66,7.83-47.28-2.57l-31.63,44.73s34.6,48.32,88.29,42.86c0,0,33.3-.58,75.55-21.64,0,0,27.64-8.5,65.79-2.2C429.79,399.73,369.85,364.42,314.59,338.55Z"/><path class="cls-19" d="M213.11,304.55s.13-.13.35-.39c-.06-.07-.12-.13-.17-.2C213.17,304.33,213.11,304.55,213.11,304.55Z"/><path class="cls-20" d="M216.53,257c.81,9.66,1.73,23.57,1,30.24-.79,5.26-3.51,14.34-4.22,16.69.05.07.11.13.17.2,1.73-2,9.32-12.17,10.44-38-.87-.88-1.65-1.7-2.29-2.44a55.47,55.47,0,0,1-5.08-6.7"/><path class="cls-20" d="M223,305.51a16.67,16.67,0,0,1,4.64.8c2.76-6.13,5.7-15.94,6.56-30.73-3.79-3.28-7.52-6.64-10.26-9.41-1.12,25.82-8.71,36-10.44,38a29.65,29.65,0,0,0,10.9,8.08,38.65,38.65,0,0,0,2-3.33C222.16,307,223,305.51,223,305.51Z"/><path class="cls-19" d="M308.91,314.19a22.1,22.1,0,0,0,5.74,1.35,27.28,27.28,0,0,1-5.74-.62c0,8.72-.86,27-8.33,35.74,8.36,4.38,18.44,8.14,28.77,8.52,2.57-4.95,6.9-16.77,5.44-38.67-6-.23-13-1.14-17.79-3.82,0,0-11.78-3.51,17.62,1.61,0-.21,0-.41-.05-.61a47.1,47.1,0,0,1-10.15-5.28s-3.37-2.24-11.42-1.85c0,0-1.55-.09-4.21-.39C308.81,310.46,308.88,311.93,308.91,314.19Z"/><path class="cls-19" d="M344.29,359.21a53.49,53.49,0,0,0,8.37-.95c2.73-.62,14.82-3.64,16.71-8.56,0,0,2.68-3.18,5.44-.26,0,0,7.63,2.93-21.2,8.65a44.21,44.21,0,0,1,7.68.31,17.2,17.2,0,0,0,13.33-.66c1.35-6.6,6.13-20.2-6.68-41.45a16.26,16.26,0,0,0-5.78,1.64h0a6,6,0,0,1-3.61,1.56,36.72,36.72,0,0,1-12.38.83l.06.17S350.79,345.53,344.29,359.21Z"/><path class="cls-19" d="M280.1,339.35s3.12.31,9.06,4.39c3.19-5.78,7.33-18,8.23-36.63-6.59-3.51-14.48-5.91-22.24-5-.17,7.51-3.28,23.39-7,31.61C272.19,336.45,278.29,337.38,280.1,339.35Z"/><path class="cls-19" d="M238.88,314.76c.89.09,4.78-.16,5.73-.65-.77-.12-3.84-1.49-4.55-1.61C239.8,313,239.16,314.3,238.88,314.76Z"/><path class="cls-19" d="M245.65,285.22c-.25,7.76-1.37,18.79-5.24,26.62,1.15.61,1.87,1,1.87,1s6.07,9.57,14.48,14.47A132.44,132.44,0,0,0,263.4,297a92.26,92.26,0,0,1-12.89-7.87S248.55,287.59,245.65,285.22Z"/><path class="cls-20" d="M367.94,316.29c-.64-1.05-1.3-2.12-2-3.21-.05-.08-.09-.15-.15-.23a16,16,0,0,1-3.63,5.08h0A16.26,16.26,0,0,1,367.94,316.29Z"/><path class="cls-20" d="M380.51,315.53a117.32,117.32,0,0,1,7.12,15.22v0s9-11.76.27-30.74c0,0-13.32-23.12-13.67-35.09,0,0-.88,23.67-5.46,39.84C374.44,309.51,380.51,315.53,380.51,315.53Z"/><path class="cls-20" d="M223,305.51s-.8,1.49,3.38,3.4c.41-.78.83-1.65,1.26-2.6A16.67,16.67,0,0,0,223,305.51Z"/><path class="cls-20" d="M240.06,312.5c.71.12,3.78,1.49,4.55,1.61,0,0-3.05-1.66-4.2-2.27Z"/><path class="cls-20" d="M374.81,349.44c-2.76-2.92-5.44.26-5.44.26-1.89,4.92-14,7.94-16.71,8.56.26-.05.53-.1.77-.16h.18C382.44,352.37,374.81,349.44,374.81,349.44Z"/><path class="cls-20" d="M317,316.69c4.76,2.68,11.84,3.59,17.79,3.82-.05-.72-.11-1.47-.17-2.21C305.22,313.18,317,316.69,317,316.69Z"/><path class="cls-20" d="M308.91,314.19v.73a27.28,27.28,0,0,0,5.74.62A22.1,22.1,0,0,1,308.91,314.19Z"/><path class="cls-21" d="M226.34,308.91a38.65,38.65,0,0,1-2,3.33c1.34.54,9.45,3.64,14.52,2.52.28-.46.92-1.77,1.18-2.26C233,311.3,228.79,310,226.34,308.91Z"/><path class="cls-21" d="M240.41,311.84c3.87-7.83,5-18.86,5.24-26.62-3.12-2.55-7.33-6-11.49-9.64-.86,14.79-3.8,24.6-6.56,30.73A75.58,75.58,0,0,1,240.41,311.84Z"/><path class="cls-12" d="M226.34,308.91c2.45,1.12,6.63,2.39,13.72,3.59l.35-.66a75.58,75.58,0,0,0-12.81-5.53C227.17,307.26,226.75,308.13,226.34,308.91Z"/><path class="cls-22" d="M268.13,333.76c3.74-8.22,6.85-24.1,7-31.61A113.54,113.54,0,0,1,263.4,297a132.44,132.44,0,0,1-6.64,30.31C260.83,329.7,264.4,331.29,268.13,333.76Z"/><path class="cls-22" d="M300.58,350.66c7.47-8.75,8.36-27,8.33-35.74-1.76-.43-3.37-1.14-3.88-2.36a38.22,38.22,0,0,0,3.88,1.63c0-2.26-.1-3.73-.12-4-2.74-.31-6.71-2.14-11.4-3.06-.9,18.6-5,30.85-8.23,36.63A111,111,0,0,0,300.58,350.66Z"/><path class="cls-22" d="M305,312.56c.51,1.22,2.12,1.93,3.88,2.36v-.73A38.22,38.22,0,0,1,305,312.56Z"/><path class="cls-12" d="M338.94,319.06a44.43,44.43,0,0,1-4.37-1.37c0,.2,0,.4.05.61Z"/><path class="cls-22" d="M345.79,320.3a91.33,91.33,0,0,1-11,.21c1.46,21.9-2.87,33.72-5.44,38.67l.81,0s7.19.34,14.13,0c6.5-13.68,1.94-38.72,1.94-38.72l-.06-.17-.41,0Z"/><path class="cls-12" d="M338.94,319.06a43.68,43.68,0,0,0,6.82,1.23Z"/><path class="cls-12" d="M345.79,320.3h0a43.68,43.68,0,0,1-6.82-1.23l-4.32-.76c.06.74.12,1.49.17,2.21A91.33,91.33,0,0,0,345.79,320.3Z"/><path class="cls-22" d="M383.23,343.37s.1-.49.28-1.25c-.6-23.05-9.46-26.34-15.57-25.83,12.81,21.25,8,34.85,6.68,41.45a8.1,8.1,0,0,0,1-.53S383.64,351.85,383.23,343.37Z"/><path class="cls-12" d="M367.94,316.29c6.11-.51,14.69,4,15.29,27.08.62-2.66,2.49-10.14,4.4-12.62a117.32,117.32,0,0,0-7.12-15.22s-6.07-6-11.73-10.79a48.31,48.31,0,0,1-3,8.11c.06.08.1.15.15.23C366.64,314.17,367.3,315.24,367.94,316.29Z"/><path class="cls-15" d="M209.24,366.81v0l.95-.07C209.58,366.76,209.24,366.81,209.24,366.81Z"/><path class="cls-15" d="M211.13,366.68l-.92,0C210.47,366.7,210.78,366.68,211.13,366.68Z"/><path class="cls-15" d="M216.13,307.39c-2.45,3.9-4.24,8.87-2,13.56l-.39,2.73-2.23,14.57-3.63,24.22-1,7L197.94,376c-.89-6-1.79-11.94-2.68-17.85,3.68-.28,7.42-.95,7.42-.95-2.12-1.4-6.36-8.49-10.27-16.19v-.11c-1.34-7.2-2.67-13.22-4.18-21-.28-1.12-.5-2.23-.73-3.46a38.85,38.85,0,0,0-1.06-3.91c-2-6.08-5.69-15.07-6.47-18.8l24.89-12.5,12.67,22.32A34.31,34.31,0,0,0,216.13,307.39Z"/><path class="cls-15" d="M231.82,373.1c-.53-.42-1.1-.8-1.65-1.18l.79.51C231.25,372.65,231.54,372.87,231.82,373.1Z"/><path class="cls-3" d="M209.25,311.78c0-.11,0-.26,0-.46-.47-3.73,1.77-7.55,1.77-7.55,1.43-3.74-.22-3.06-.22-3.06a4.1,4.1,0,0,0-4.47,2.46h0c-1.22,2.6-1.19,8,3.41,19.27l-4.2-.35c-4.31-2.12-4.26-7.55-4.26-7.55,1.22-3.47.13-4.23.13-4.23a2.13,2.13,0,0,0-1.74,1.17c-1.43,5.39,2,8.67,5.56,10.58h0s3.27,2.07,5.92,3.53c1.8,3.89,6.23,13.38,12.26,25.43.05-1,.1-1.95.17-3C217,334.9,211.78,322.32,209.25,311.78Z"/><path class="cls-23" d="M230.17,371.92c.55.38,1.12.76,1.65,1.18-.28-.23-.57-.45-.86-.67Z"/><path class="cls-23" d="M209.24,366.81l.25,0-.25,0Z"/><path class="cls-15" d="M241.93,293.66c-3.16-5.61-19.18-15.11-19.18-15.11-15.66,8.81-13.13,26.36-13.76,32-.15,1.5-.15,2.38-.15,2.38l-6.22,41.49,1.34,4.33s11.75-1.53,21.72,5.65c.47.33.93.75,1.39,1.13-.33-.34-.61-.68-.95-1,.34.34.62.68.95,1a26.85,26.85,0,0,1,3.71,3.62c-.15-.12-.55-.43-1.08-.81A49.56,49.56,0,0,1,241.05,389C251.35,367,241.93,293.66,241.93,293.66Z"/><path class="cls-3" d="M208.84,312.94s4.59-16.64,11.39-17.7c0,0,4.41-.75-.95,3.93C219.28,299.17,212.81,302.93,208.84,312.94Z"/><path class="cls-3" d="M208.84,312.94s1.53-15.7,8.11-20.76C217,292.18,204.23,303.16,208.84,312.94Z"/><path class="cls-4" d="M142.13,414.21"/><path class="cls-3" d="M208.13,317.71s-5.62,31.82-5.51,36.73l1.34,4.33Z"/><path class="cls-23" d="M138.83,287.55c0-.12-.07-.23-.1-.35h0C138.76,287.32,138.79,287.43,138.83,287.55Z"/><path class="cls-23" d="M141.68,297.13c.22.32.43.61.63.86C142.11,297.74,141.9,297.45,141.68,297.13Z"/><path class="cls-23" d="M139.74,293.7c.19.32.36.61.54.88C140.1,294.31,139.92,294,139.74,293.7Z"/><path class="cls-23" d="M138.32,285.3c0-.29-.11-.55-.15-.86C138.21,284.75,138.27,285,138.32,285.3Z"/><path class="cls-23" d="M137.37,281.12c0-.28-.06-.53-.08-.82C137.31,280.59,137.35,280.84,137.37,281.12Z"/><path class="cls-23" d="M138.42,290.66c.1.3.21.56.32.85C138.63,291.23,138.52,291,138.42,290.66Z"/><path class="cls-23" d="M139.06,292.32c.14.32.29.59.43.87C139.35,292.91,139.2,292.63,139.06,292.32Z"/><path class="cls-22" d="M228,263.16c-.26-.83-.48-1.39-.48-1.39a8.42,8.42,0,0,0-.61-2.63c-2-4.69-7.93-1.75-7.93-1.75a49.15,49.15,0,0,1,5.17,16c.63-4,3.37-11.61,3.37-11.61a15.72,15.72,0,0,1-3.2,13c.11.88.2,1.77.26,2.69,2.34-4,3.72-6.86,3.72-6.86C229.34,268.43,228.55,265,228,263.16Z"/><polygon class="cls-20" points="134.24 287.63 134.24 287.63 134.24 287.63 134.24 287.63"/><path class="cls-20" d="M138.72,287.19h0c0-.17-.1-.32-.14-.49C138.63,286.88,138.68,287,138.72,287.19Z"/><path class="cls-12" d="M227.49,261.77s-2.74,7.61-3.37,11.61c.06.44.12.89.17,1.34A15.72,15.72,0,0,0,227.49,261.77Z"/><path class="cls-19" d="M173.42,291.56c-5.63,2.21-10.88,5.63-14,11,5.31,1.11,15.16-2.53,23.87-2.48C178.17,296.87,174.85,295,173.42,291.56Z"/><path class="cls-20" d="M172.39,288.75c-.76.47-1.54,1-2.33,1.49a45.63,45.63,0,0,0-10.66,12.3c3.14-5.35,8.39-8.77,14-11C172.72,289.88,172.39,288.75,172.39,288.75Z"/><path class="cls-12" d="M181,283.89c-.9.46-4.43,2.3-8.56,4.86,0,0,.33,1.13,1,2.81a55,55,0,0,1,10.85-2.9,21.44,21.44,0,0,1-2.84-5A3.26,3.26,0,0,0,181,283.89Z"/><path class="cls-20" d="M202.69,282.35c-1.82-.36-3.31-.64-4-.76a38.42,38.42,0,0,0-17.29,2.1,21.44,21.44,0,0,0,2.84,5,72,72,0,0,1,13.6-1c5.39.38,8-.35,9.15-1.3A29.24,29.24,0,0,0,202.69,282.35Z"/><path class="cls-12" d="M205.52,259.37c-1.72,2.26.7,5.38.7,5.38a9.11,9.11,0,0,0,1.95.42c-.6-2.06-1.23-4.11-1.9-6.09Z"/><path class="cls-12" d="M207,286.39a2.42,2.42,0,0,0,.65-3.05c-1.63-.34-3.41-.69-5-1A29.24,29.24,0,0,1,207,286.39Z"/><path class="cls-22" d="M212.7,283.83l.16.78a40.22,40.22,0,0,0-5.19-1.27,2.42,2.42,0,0,1-.65,3.05c2,2.27,3,3.25,3.78,6.8,2.23-2.47,5.4-3,7.31-5.72l-1.28-2.75S215.37,284.34,212.7,283.83Z"/><path class="cls-20" d="M147.43,271.56l2.88-1.27-3.23,1.41Z"/><path class="cls-19" d="M151.36,301.73h0c2.69,1,5.92.28,8,.81,0,0-4.5-3.05-9.74-6.38C150.28,297.5,150.49,300.46,151.36,301.73Z"/><path class="cls-19" d="M170,290.29a76.08,76.08,0,0,1-5.4-24.68c-2.67.5-5.38,1.12-8,1.79-2.29,1.08-4.45,2.06-6.28,2.88h0l-2.88,1.27h0a46.05,46.05,0,0,0,.51,19.88,4.52,4.52,0,0,1,1.21,1s10,7.25,10.24,10.09a45.63,45.63,0,0,1,10.66-12.3Z"/><path class="cls-20" d="M149.16,292.45a4.52,4.52,0,0,0-1.21-1,32.27,32.27,0,0,0,1.71,4.72c5.24,3.33,9.74,6.38,9.74,6.38C159.11,299.7,149.16,292.45,149.16,292.45Z"/><path class="cls-19" d="M137.29,280.17c0,.05,0,.08,0,.12,0,.29.06.54.08.82,0,.62.72,2.78.8,3.32,0,.33.12.58.18.87s.1.64.16.95c-2-.4-4.27,1.38-4.27,1.38a45.21,45.21,0,0,1,1.51-6.57A12.11,12.11,0,0,0,137.29,280.17Z"/><path class="cls-19" d="M142.31,298c-.2-.25-.41-.54-.63-.86-.05-.07-1.35-2.47-1.4-2.55-.18-.27-.35-.56-.54-.88-.08-.16-.16-.34-.25-.51s-.29-.55-.43-.87-.21-.54-.32-.81-.22-.55-.32-.85.51-2.73.41-3.11c0-.12-.07-.23-.11-.36-1.71-.89-3.79.51-4.48.44.66,2.34,8.1,10.5,8.1,10.5l0-.13Z"/><path class="cls-20" d="M138.59,286.71l-.09-.46c-2-.39-4.26,1.38-4.26,1.38h0c.69.07,2.77-1.33,4.48-.44C138.68,287,138.63,286.88,138.59,286.71Z"/><path class="cls-22" d="M150.33,270.28Z"/><path class="cls-22" d="M147.08,271.7l-2.39,1,2.74-1.18Z"/><path class="cls-22" d="M144.66,272.65l0,.09,0-.11Z"/><path class="cls-22" d="M144.71,272.63l0,.11.19-.17Z"/><path class="cls-22" d="M144.88,272.57l-.19.17,2.39-1Z"/><path class="cls-22" d="M207.67,283.34a40.22,40.22,0,0,1,5.19,1.27l-.16-.78c-.5-2.47-2.19-10.54-4.53-18.66a9.11,9.11,0,0,1-1.95-.42s-2.42-3.12-.7-5.38A95.73,95.73,0,0,1,195,262.62c2.33,7.3,4.34,15.36,3.33,18.95l.84.15c1,.1,1.49.09,2.49.26-1-.17-2-.3-2.95-.39.66.12,2.15.4,4,.76,1.57.3,3.35.65,5,1h0c-.5-.15-1-.28-1.48-.4.49.12,1,.25,1.48.4Z"/><path class="cls-22" d="M173.42,291.56c1.43,3.48,4.75,5.31,9.85,8.5h0c2.82,0,5.55,0,8,0,3.2,0,4.86-2.2,6.78-2.26-3.08-2.71-9.52-3.23-13.8-9.11A55,55,0,0,0,173.42,291.56Z"/><polygon class="cls-22" points="183.27 300.06 183.27 300.06 183.27 300.06 183.27 300.06"/><path class="cls-22" d="M181,283.89a2.6,2.6,0,0,0,.29-.14c-.22-.25-.48-.53-.69-.81-3.11-4.27-4.25-12.31-4.64-18.39a52.71,52.71,0,0,0-11.33,1.06,76.08,76.08,0,0,0,5.4,24.68l.08-.05q1.31-1.07,2.76-2.07-1.45,1-2.76,2.07c.79-.52,10-5.89,10.89-6.35Z"/><path class="cls-19" d="M219,257.39a24.86,24.86,0,0,0-5.16-3.39c-.52,1.17-1.89,2.28-3.77,3.33A35.78,35.78,0,0,1,219,257.39Z"/><path class="cls-19" d="M224,275.06a7.83,7.83,0,0,1,.13-1.68,49.15,49.15,0,0,0-5.17-16s-3.86,8.53-10.78,7.78c2.34,8.12,4,16.19,4.53,18.66,2.67.51,4.13.89,4.13.89l1.28,2.75c1.06-1.49,2.08-3,3-4.43,1.29-2,2.45-3.93,3.43-5.63-.06-.92-.15-1.81-.26-2.69C224.11,274.94,224,275.06,224,275.06Z"/><path class="cls-20" d="M206.27,259.08c.67,2,1.3,4,1.9,6.09,6.92.75,10.78-7.78,10.78-7.78a35.78,35.78,0,0,0-8.93-.06A32.22,32.22,0,0,1,206.27,259.08Z"/><path class="cls-20" d="M224.29,274.72c0-.45-.11-.9-.17-1.34a7.83,7.83,0,0,0-.13,1.68S224.11,274.94,224.29,274.72Z"/><path class="cls-22" d="M149.66,296.16c-4-2.57-7.75-7.3-10.93-9,0,.12.06.23.1.35.1.38-.53,2.76-.41,3.11s.21.57.32.85.21.56.32.81.29.59.43.87.17.35.25.51c.18.32.36.61.54.88.05.08,1.35,2.48,1.4,2.55.22.32.22.37.41.62l.15.18.1.2.62.26c1.54.66,4,1.75,8.4,3.34h0C150.49,300.46,150.28,297.5,149.66,296.16Z"/><path class="cls-12" d="M138.59,286.71c0,.17.09.32.14.49,3.18,1.66,6.9,6.39,10.93,9a32.27,32.27,0,0,1-1.71-4.72c-2.38-1.48-6.23-4.56-9.45-5.19C138.54,286.4,138.56,286.57,138.59,286.71Z"/><path class="cls-22" d="M139.49,293.19c.09.17.17.35.25.51C139.66,293.54,139.58,293.36,139.49,293.19Z"/><path class="cls-22" d="M138.32,285.3c.06.32.11.65.18.95h0C138.44,286,138.38,285.62,138.32,285.3Z"/><path class="cls-22" d="M138.74,291.51c.11.27.21.56.32.81C139,292.07,138.85,291.78,138.74,291.51Z"/><path class="cls-22" d="M142.34,298.13"/><path class="cls-22" d="M140.28,294.58c.05.08,1.35,2.48,1.4,2.55S140.33,294.66,140.28,294.58Z"/><path class="cls-22" d="M138.17,284.44c-.08-.55-.75-2.72-.8-3.32C137.42,281.72,138.09,283.89,138.17,284.44Z"/><path class="cls-22" d="M138.83,287.55c.1.38-.53,2.76-.41,3.11C138.3,290.31,138.93,287.93,138.83,287.55Z"/><path class="cls-22" d="M138.5,286.25l.09.46c0-.14-.05-.31-.09-.46Z"/><path class="cls-19" d="M198.34,281.57c1-3.59-1-11.65-3.33-18.95-.92.24-1.82.46-2.7.67a87.5,87.5,0,0,1-13.68,1.54h0a22.09,22.09,0,0,0-2.72-.28c.39,6.08,1.53,14.12,4.64,18.39.21.28.32.64.55.89l.14-.07.19-.07a38.26,38.26,0,0,1,16.91-2.12Z"/><path class="cls-19" d="M210.8,293.19c-.78-3.55-1.79-4.53-3.78-6.8-1.19.95-3.76,1.68-9.15,1.3a72,72,0,0,0-13.6,1c4.28,5.88,10.72,6.4,13.8,9.11a2.35,2.35,0,0,0,.84-.2C201.19,297,207.57,295.24,210.8,293.19Z"/><path class="cls-22" d="M141.64,297.06a9.43,9.43,0,0,0,.7,1.07l.16-.23Z"/><path class="cls-22" d="M147.43,271.57l-.18.07-.19.07a22.89,22.89,0,0,0-8.4,4.05c-.18.14-.28.26-.34.29v0a5.9,5.9,0,0,0-1,1.31c-.06,1,0,1.91,0,2.78,0,.05,0,.08,0,.12,0,.29.06.54.08.82,0,.62.72,2.78.8,3.32,0,.33.12.58.18.87s.1.64.16.95c3.22.62,7.07,3.71,9.45,5.18A46.05,46.05,0,0,1,147.43,271.57Z"/><path class="cls-19" d="M137.29,277.39c-.06,1,0,1.91,0,2.78a12.11,12.11,0,0,1-1.55.89A19.19,19.19,0,0,1,137.29,277.39Z"/><path class="cls-23" d="M230.17,371.92c.55.38,1.12.76,1.65,1.18-.28-.23-.57-.45-.86-.67Z"/><path class="cls-23" d="M209.24,366.81l.25,0-.25,0Z"/><polygon class="cls-23" points="245.62 398.44 245.62 398.44 245.62 398.44 245.62 398.44"/><line class="cls-15" x1="250.83" y1="361.41" x2="251.15" y2="362.62"/><path class="cls-14" d="M188.23,319.89c-1.79-1.17-2.9-1.84-2.9-1.84l-.39-5.92a13.8,13.8,0,0,1,1.5.39,38.85,38.85,0,0,1,1.06,3.91C187.73,317.66,188,318.77,188.23,319.89Z"/><path class="cls-3" d="M218.7,347c-.5-1.79-3.35-5-7.2-8.76a148.59,148.59,0,0,0-19.7-16.07c-1.34-.9-2.57-1.68-3.57-2.29-.28-1.12-.5-2.23-.73-3.46a38.85,38.85,0,0,0-1.06-3.91c2.29.62,4.58,1.34,6.92,2.18a200.61,200.61,0,0,1,20.37,9c5.64,3,9.38,5.19,9.38,5.19C224.17,331.33,218.7,347,218.7,347Z"/><path class="cls-3" d="M202.68,357.17s-3.74.67-7.42.95c-.11-.79-.22-1.51-.33-2.29-.9-5.75-1.68-10.55-2.52-14.85C196.32,348.68,200.56,355.77,202.68,357.17Z"/><path class="cls-14" d="M195.26,358.12c-3.07.22-6.14.28-7-.51a247.16,247.16,0,0,1-8.43-30.24c-.67-3.35-1.23-6.76-1.62-10l4.91,1.95s1.4,3.68,3.46,8.82c1.51,3.85,3.63,8.37,5.86,12.72V341c.84,4.3,1.62,9.1,2.52,14.85C195,356.61,195.15,357.33,195.26,358.12Z"/><path class="cls-5" d="M216.65,340.45s5.14-12.65,4.06-15.12A199.17,199.17,0,0,0,191,311.19a21.75,21.75,0,0,1-1.52,7.44C198.85,324.77,215.36,336,216.65,340.45Z"/><path class="cls-5" d="M177.39,323.85a246.83,246.83,0,0,0,8.45,30.23c1.95,1.66,13,.13,13,.13-3.37-2.24-10.48-19-14.74-29.6A8.1,8.1,0,0,1,177.39,323.85Z"/><path class="cls-4" d="M182.94,314.5s2.67,1.64,6.49,4.13a21.75,21.75,0,0,0,1.52-7.44c-2.82-1-5.65-1.9-8.4-2.61Z"/><path class="cls-4" d="M175.8,313.87c.35,3.22.91,6.6,1.59,10a8.1,8.1,0,0,0,6.75.76c-2-5.12-3.44-8.83-3.44-8.83Z"/><path class="cls-24" d="M179.53,300.88c-4.26-.19-7.93,4.07-8.18,9.54s3,10,7.27,10.24C174.6,305.47,179.53,300.88,179.53,300.88Z"/><path class="cls-25" d="M186.8,311.13c.25-5.46-3-10.05-7.27-10.25,0,0-4.93,4.59-.91,19.78C182.88,320.86,186.55,316.59,186.8,311.13Z"/><path class="cls-26" d="M178.81,303.39a3.87,3.87,0,0,0-2.26.66,3.19,3.19,0,0,1,1.62-.37c2.45.11,4.29,3.05,4.13,6.57s-2.27,6.28-4.72,6.17-4.29-3.06-4.13-6.58c0-.3.07-.6.11-.89a11.08,11.08,0,0,0-.2,1.56c-.18,4.06,1.95,7.46,4.77,7.59s5.26-3.06,5.45-7.12S181.63,303.52,178.81,303.39Z"/><path class="cls-27" d="M177.58,316.42c2.45.11,4.56-2.65,4.72-6.17s-1.68-6.46-4.13-6.57a3.19,3.19,0,0,0-1.62.37,7.46,7.46,0,0,0-3,4.9c0,.29-.09.59-.11.89C173.29,313.36,175.14,316.3,177.58,316.42Z"/><path class="cls-28" d="M176.58,310.69c.94,0,1.75-1,1.81-2.37s-.64-2.49-1.58-2.53a1.26,1.26,0,0,0-.63.14,2.86,2.86,0,0,0-1.15,1.88c0,.12,0,.23,0,.35C174.93,309.51,175.64,310.64,176.58,310.69Z"/><path class="cls-3" d="M161,367.94a10.33,10.33,0,0,0-5.86-7,20.88,20.88,0,0,0-3.74-1.28,39.82,39.82,0,0,0-12.56-.73,31.37,31.37,0,0,1,11.72-1.73,14.27,14.27,0,0,1,3.74.78,11,11,0,0,1,3.85,2.24,8.85,8.85,0,0,1,2.12,2.84.41.41,0,0,1,.06.23l0,.05Z"/><path class="cls-3" d="M160.38,354.94v8.42l0-.05L158,361.86s.05-.56.11-1.62v-.34c.11-1.17.22-2.84.33-4.85.45-7.31,1.23-19.09,1.85-28.52C160.33,326.53,160.33,343.27,160.38,354.94Z"/><path class="cls-3" d="M167.28,365.21c-.62-10-.08-23-.08-23a89.25,89.25,0,0,0-1.57,14.14l.57,3.77c-.19-.88-.29-1.42-.29-1.42l-5.57-17.33-1.13,13,1.13,1.57,0,0v7.33l.62,4.58c.55,4,.89,6.86.89,6.86l.5,8.37a25,25,0,0,0,12.8,11.43C172,385.56,169,372.82,167.28,365.21Z"/><path class="cls-23" d="M159.87,453.14a27.82,27.82,0,0,0-5.74-.08C156,453,157.88,453,159.87,453.14Z"/><path class="cls-4" d="M159.24,454.53s-2.77,6.05-.41,7.64C158.83,462.17,155,461.27,159.24,454.53Z"/><polygon class="cls-16" points="164.96 424.41 164.13 411.8 162.71 425.41 159.1 431.11 160.44 431.84 164.96 424.41"/><polygon class="cls-17" points="158.24 431.84 160.44 435.87 159.63 437.82 161 443.73 162.88 442.11 160.44 438.11 162.19 435.12 160.44 431.84 158.24 431.84"/><path class="cls-3" d="M291,159.7s-73.95-1-121.6-17.88c-1.61-1.13-39.66-17.29-44.74-18.67,0,0-2.29,2.9-8.61.81-25.23-9-61.71-30.64-61.71-30.64S20.55,74.65,10.2,102c0,0,9.22-11.94,30.81-6.27a40.81,40.81,0,0,1,4.88,1.86l16,11c3.55,2.83,7.63,6,12.18,9.26l0,0h0c24.47,17.77,62.77,40.69,107.55,50.31l-.25,0s34.82,10.83,70.15,10.4a323.53,323.53,0,0,0,49-1.63s51.76,1.36,57.57,6.44a20.24,20.24,0,0,1-5,10.72s7.73-6,9.55-12.59a.47.47,0,0,0,0-.37C361.86,180,377.91,165.15,291,159.7Z"/><path class="cls-15" d="M181.54,150.72l-28.2-8.9C161.72,144.83,171.21,147.9,181.54,150.72Z"/><path class="cls-15" d="M337.73,30a39.56,39.56,0,0,0-6.46-8.8h0l-.2-.21c-.29-.31-.59-.62-.91-.93C315.53,4.7,294.56,1.88,294.28,1.84q-2.61-.53-5.23-.85h0l-.46,0c-1.78-.22-3.55-.38-5.31-.49-40.16-3.22-66.83,12-66.83,12l.23,0c-35.19,15.42-60.46,43.57-77,67.95.06,0,53.65,30,107.2,35.66,1.66-37.57,9.21-61.86,9.21-61.86,14.07-31.62,34.91-34.58,45.66-33.7,9.52,1.29,28.77,5.94,35.31,22.64,0,0,.61,6.09,3.05,6.09C340.17,49.18,343.21,42.48,337.73,30Z"/><path class="cls-13" d="M115.37,125.69a319.14,319.14,0,0,0,38,16.13l28.2,8.9a310,310,0,0,0,66.55,11A324.1,324.1,0,0,1,246.94,116c-53.55-5.67-107.14-35.63-107.2-35.66C123.1,104.94,115.37,125.69,115.37,125.69Z"/><path class="cls-29" d="M189.12,457.79a66.47,66.47,0,0,0-6.92,19.81l-52.85,42.69s-13.67,10.32-26.17,22.15C92.24,552.71,82.2,564,82.7,570.51l-1,.34h-.06C77,572.13,57.36,578.05,50.28,584c0,0-16.24,13.78-22.33,25.22l-.22.51a18,18,0,0,0-1.67,4.18s-4.19,21.43-13.17,17.13a.25.25,0,0,1-.17-.11,10.08,10.08,0,0,1-3.24-2.62c-.39-.39-.72-.84-1.12-1.28a57.5,57.5,0,0,1-7-42.36s0-.06.05-.06a54,54,0,0,1,2.91-9.48.17.17,0,0,0,.11-.06l.17-.11a.17.17,0,0,1,.11-.06l58.2-37.83,16.52-8.26,13-10.1,0-.06,84.22-65.74c3.9,1.56,7.92,3.35,12.22,4.8C189,457.73,189.07,457.79,189.12,457.79Z"/><path class="cls-30" d="M19.86,616.83s-3.36,15.49-7,14.21c-.06,0-.11,0-.17-.11a1.22,1.22,0,0,1-.48-.32c-.53-.48-1.49-1.28-2.72-2.29A8.3,8.3,0,0,1,8.38,627a57.47,57.47,0,0,1-7-42.35.05.05,0,0,1,.06,0c.48-1.12,5.87-12.45,11.43-3.9C12.87,580.73,24.51,597.82,19.86,616.83Z"/><path class="cls-30" d="M81.71,570.85C77,572.13,57.36,578.06,50.25,584c0,0-16.23,13.78-22.32,25.21l5.87-14.58,10.9-13.19,8.92-5.83,9-8.92Z"/><path class="cls-31" d="M79.47,528.81,63,537.09,4.75,574.91a10,10,0,0,1,9.4.21l36.28-20.81,7.5,1.15,3.54-7h6.89l7-5.45,6.19-10.09,10.79-14.21Z"/><path class="cls-30" d="M180.07,479.55l-50.72,40.72s-13.67,10.36-26.17,22.16l19.6-20.4L150,496S177.34,481.37,180.07,479.55Z"/><path class="cls-16" d="M201.84,453.89c-4.34-9.76-15.23-15.57-15.23-15.57-11.22-6.84-19.49-7.12-23.5-6.65,0,0-2-.24.32,5.49h0c1.62,4.23,6.09,10.73,18.22,17.33,0,0,10.5,5.73,19.69,1.82C202.67,455.83,201.84,453.89,201.84,453.89Z"/><path class="cls-15" d="M241.05,389l-1-22.16s-34.64-11.31-38.48-6.23S191.43,379,191.43,379l-6.61,11.32-24.41,41.85,1.78,2.91,1.23,2-.57-3.19-.28-1.65a7.69,7.69,0,0,1,1.53-.47,14.12,14.12,0,0,1,1.76-.32c4.53,0,11.67,1.26,20.75,6.79a42,42,0,0,1,7.22,5.17l.08.06c.26.23.53.48.78.74a24.43,24.43,0,0,1,5.44,7.94,19,19,0,0,1,1.24,4.09l-3.68,1.07,5.35-.08c9.47-10.44,16.79-22.38,22.27-33.28l0,0C232,411.82,241.05,389,241.05,389Z"/><path class="cls-17" d="M200.13,452.23c-.39.52-.8,1-1.22,1.56a24.52,24.52,0,0,0-5.43-7.85c-.25-.26-.52-.5-.79-.73,0,0-.05,0-.08-.07a42.27,42.27,0,0,0-7.34-5.26c-9.21-5.62-16.45-6.86-21.06-6.89-.3,0-.6.09-.87.14l.76-1.28a14.12,14.12,0,0,1,1.76-.32c4.53,0,11.67,1.26,20.75,6.79a42,42,0,0,1,7.22,5.17l.08.06c.26.23.53.48.78.74A24.43,24.43,0,0,1,200.13,452.23Z"/><path class="cls-17" d="M194,455.65c-3.51-7.91-12.33-12.61-12.33-12.61-9.09-5.54-15.79-5.76-19-5.39,0,0-1.61-.19.25,4.45h0c1.32,3.43,4.75,6.08,13.06,11.69,0,0,10.3,5.65,17.65,3.82C194.68,457.22,194,455.65,194,455.65Z"/><path class="cls-13" d="M193.48,445.94c-.25-.26-.52-.5-.79-.73,0,0-.05,0-.08-.07a42.27,42.27,0,0,0-7.34-5.26c-9.21-5.62-16.45-6.86-21.06-6.89-.3,0-.6.09-.87.14l-.49.84-.66,1.15-1.75,3,.85,1.38,1.59,2.62-.5-2.89-.17-1a10.11,10.11,0,0,1,2.66-.64,25.63,25.63,0,0,1,7.3,1.16,36.27,36.27,0,0,1,5,1.91c1.1.52,2.23,1.11,3.41,1.79.37.22.72.44,1.09.65a30.73,30.73,0,0,1,3.61,2.36c.69.52,1.47,1.12,2.24,1.82l.05,0c.23.19.45.4.67.6a18.76,18.76,0,0,1,5.4,9.74l-1.63.16-1.86.2,2,.23,2.83.3c1.29-1.53,2.67-3.12,4-4.71A24.52,24.52,0,0,0,193.48,445.94Z"/><path class="cls-5" d="M165,444.86l-1.21.79C162,448,157.51,456.13,158,461.7c0,0,2,2.57,6.07.45a6.36,6.36,0,0,0,4.12-1.21,10.79,10.79,0,0,0,7.23-4.76,12.88,12.88,0,0,0,1.42-2.93C173.32,445.25,165,444.86,165,444.86Z"/><path class="cls-4" d="M180.57,442.4c-1.18-.68-2.31-1.27-3.41-1.79a36.27,36.27,0,0,0-5-1.91l-3.51,4.47-.69.23h0l0,0-.15.05h0a13.33,13.33,0,0,0-2.83,1.38s8.36.39,11.88,8.39a14.21,14.21,0,0,0,.5-1.8,9.13,9.13,0,0,0-.13-2.33h0a7.59,7.59,0,0,0-1-2.58Z"/><path class="cls-3" d="M230.85,369.26C220.37,356.63,204,358.78,204,358.78l-1.35-4.34-1,7C219.83,359.54,230.85,369.26,230.85,369.26Z"/><path class="cls-3" d="M201.58,361.43s-2.76,3.14-7.36,11.93c0,0,8.77-13.18,17.19-13.69C211.41,359.67,203.83,358.31,201.58,361.43Z"/><path class="cls-30" d="M158.83,466.86l18-13.61,12.28,4.54-5.36,18.58-6.54,5.13S175.75,463,158.83,466.86Z"/><path class="cls-5" d="M201.18,463.65,192.67,490l-6,2c-.5.33-2.26,5.74-2-3,0,0,8.06.94,8,1l-8-1-2.47-11.4a66.47,66.47,0,0,1,6.92-19.81A53.54,53.54,0,0,1,201.18,463.65Z"/><path class="cls-32" d="M514.06,227.53c3.47-2.78,3.53-24.36,3.53-24.36l-24.79,8.07L499,199.6c-1.95-.31-3.9-.52-5.85-.65-1.21-.08-2.41-.07-3.62-.09-.73,0-1.46-.06-2.19-.05-1.41,0-2.81.13-4.2.23-.52,0-1,0-1.55.09-1.53.14-3,.34-4.55.56-.36.06-.73.09-1.08.14-1.61.26-3.18.57-4.75.9-.25.05-.51.09-.76.15-1.64.36-3.24.77-4.83,1.2l-.52.13c-1.63.45-3.21.94-4.78,1.45l-.4.12c-1.59.53-3.14,1.08-4.67,1.65l-.27.1c-1.53.58-3,1.17-4.45,1.78l-.27.11c-1.4.59-2.76,1.19-4.07,1.8l-.41.18c-1.24.58-2.42,1.15-3.57,1.73l-.64.31c-1,.51-2,1-2.89,1.51l-1.06.56-2,1.12-1.71,1-.9.53c-2.4,1.42-4.42,2.69-5.88,3.66-.27.21-.54.37-.75.53l-2,1.44s0,.05-.11.05l8.92-18.64c-21.36.06-45,25.64-45,25.64-3.69.75-8.66,1.92-13.68,3.26-10.84,2.72-22.11,5.93-22.11,5.93-18.37,12.5-32.79,40.06-42.89,65.85l-.05.06v0c-.77,2-1.52,3.92-2.24,5.85-2.59-.64-5.89-1.95-9.71-2.7-6.59-3.51-14.49-5.91-22.24-5A112.61,112.61,0,0,1,263.4,297a91.69,91.69,0,0,1-12.89-7.87s-2-1.56-4.86-3.93c-1.93-1.58-4.3-3.53-6.79-5.63,5.28-1.89,16.13-8.32,20.17-29.81l-.17.86c6.36,5.3,7.14,10.09,6.67,13.19a14.33,14.33,0,0,1-1.36,3.66s17-20.06,10.26-41.46c5-.56,11.24-1.48,18.22-3a13.8,13.8,0,0,1,3.24,13,22.93,22.93,0,0,0,2.28-14.27c17.8-4.39,38.91-12.55,55.06-27.69,0,0,0,.06-.07.08a38.1,38.1,0,0,0,6.91-7.28c.12-.15.25-.29.38-.44l-.05,0a17,17,0,0,0,2.32-4.85.44.44,0,0,0,0-.37c-.84-1.24,15.21-16.07-71.7-21.52,0,0-18.66-.25-43.27-2.64a330,330,0,0,1-.8-41c1.67-37.57,9.22-61.86,9.22-61.86,14.07-31.62,34.91-34.58,45.66-33.7,9.52,1.29,28.77,5.94,35.31,22.64,0,0,.61,6.09,3.05,6.09,0,0,3-6.7-2.44-19.18a39.56,39.56,0,0,0-6.46-8.8h0c-.06-.08-.13-.14-.19-.21-.29-.31-.6-.62-.91-.93C315.53,4.7,294.56,1.88,294.28,1.84c-1.74-.35-3.49-.63-5.23-.85h0l-.46,0c-1.78-.22-3.55-.38-5.31-.49-40.16-3.22-66.83,12-66.83,12l.23,0c-35.19,15.42-60.46,43.57-77,67.95a248.83,248.83,0,0,0-23.56,43.29l-30.92-13.4c-16.77-8.51-30.92-16.92-30.92-16.92S20.55,74.65,10.2,102a15,15,0,0,1,2.08-2l-2.08,2s-17.92,61.44,85.62,104a91.06,91.06,0,0,0,2.32,16s8,22,5.15,34c0,0-4.86,28.86,30.29,35.72,0,0-10.28-4.6-15.19-13.35a52,52,0,0,1-2.24-12.94,39.35,39.35,0,0,0,18.45,20c-.25,1.25-.37,2.1-.37,2.1a8.77,8.77,0,0,1,2.38-1.2h0a8.77,8.77,0,0,0-2.38,1.2c.66,2.34,8.1,10.5,8.1,10.5l.62.26c.68.29,1.59.68,2.73,1.15-4.3,7.57-13.67,27.07-18.8,60.27h0c0,.23-1.16,24.38-.55,38.21v.05a204.85,204.85,0,0,0,4.18,39.79l3.24,2.48a17.33,17.33,0,0,0,1.36,1.24c.08.4.15.81.22,1.21l1.92,1.08,1.34.75-.14-.13a12.35,12.35,0,0,0,1.85,1.15l-2.75,3.72,3.06,10.94-.27-3.23.29,3.24h0a45.25,45.25,0,0,0-2.18,14.89,20.53,20.53,0,0,0,1.57,6.32L92.46,518.67l0,.06-.06,0,0,0L79.47,528.81l-6.84,3.43-9.69,4.85L26.69,560.65,4.75,574.91l.06,0-.07,0a.21.21,0,0,0-.12.06l-.16.11a.17.17,0,0,1-.11.06,53.29,53.29,0,0,0-2.89,9.42l0,.06a0,0,0,0,0-.05,0,57.37,57.37,0,0,0,7,42.37c.39.44.73.89,1.12,1.28A10.08,10.08,0,0,0,12.72,631a.26.26,0,0,0,.16.11c9,4.3,13.17-17.13,13.17-17.13a18.45,18.45,0,0,1,1.68-4.18l.22-.51c6-11.35,22.05-25,22.3-25.2,7.1-6,26.74-11.91,31.45-13.19h0l1-.34c-.5-6.52,9.54-17.8,20.48-28.07,12.5-11.83,26.17-22.15,26.17-22.15l4.34-3.5,38.25-30.71a55.93,55.93,0,0,0,8.89,3.43c-.12,2.22-.29,4.41-.25,6.84,0,0,3.63,17.3,24.22,11.72l11.11-8.15v-.05l27.43-28.18c2,21.52,13.52,19.56,13.52,19.56,7.36-4.25,3.5-27.18,3.5-27.18-.33-11.11-9.26-12.5-9.26-12.5a17.88,17.88,0,0,0-5.74,2.58c.6-.7,1.17-1.39,1.74-2.09a.25.25,0,0,1,0,.07s8.37-8.67,10.5-16.61h0l.36-1.08c.11-.32.21-.6.32-1,.31-1,.61-2.13.9-3.32,0-.07,0-.14.05-.21a47.41,47.41,0,0,0,1.19-8.31,82.94,82.94,0,0,0,28.07,1.93s25.09-.46,59.31-14.32c53.32,13.82,88.79,1.44,109.7-12.41a0,0,0,0,0,.05,0,95.52,95.52,0,0,0,18.37-15.65,53.79,53.79,0,0,0,3.58-4.28,31.21,31.21,0,0,1-4.38,4.44c-16.66,13.88-43.1,8.06-43.1,8.06h.16a35.71,35.71,0,0,0,12-2.3c24-8.43,48.71-37.86,48.71-37.86,26.71-27.62,33.87-91.39,33.87-91.39v-38.4S516.62,225.93,514.06,227.53Zm-374.39,203,.17-.08c.23-.11.51-.17.73-.28h.05a2.61,2.61,0,0,1,.27-.06l-.24.06-.07,0c-.24.08-.49.17-.73.27l0,0ZM170,290.29l.07-.05c.8-.52,1.58-1,2.34-1.49-.76.47-1.54,1-2.34,1.49Zm11.11-6.47h0l.15-.07a1.07,1.07,0,0,1,.19-.07,3.85,3.85,0,0,0-.47.19Zm17.25-2.25h0c-.35,0-.67,0-1,0C197.68,281.56,198,281.54,198.34,281.57Zm-4.51-.18c-1,0-1.85.12-2.75.2C192,281.51,192.87,281.41,193.83,281.39Zm-4.54.35-.22,0ZM211.66,279C211,276,210.1,272.21,209,268.2c1.09,4,2,7.84,2.65,10.78.33,1.47.6,2.73.8,3.67C212.26,281.71,212,280.45,211.66,279Zm-.58,5.11c-.93-.22-2.12-.48-3.41-.75l-1.81-.37h0l1.81.37C209,283.61,210.15,283.87,211.08,284.09Zm-77.42-29.73a37.32,37.32,0,0,1-1.51-4.3Zm13.87,35.15h0c.14.64.24,1.27.42,1.92-1.07-.67-2.46-1.66-3.94-2.6h0c1.47.94,2.86,1.93,3.93,2.59C147.77,290.79,147.67,290.15,147.53,289.51ZM175.19,394.6h0l.16,3.67-11.12,15.06-.1-1.53h0l-1.46-23.94-.17-2.51-.11-2.18A25.05,25.05,0,0,0,175.19,394.6Zm-26.35,34.45c.27,0,.54,0,.8,0C149.38,429,149.1,429.05,148.84,429.05Zm-6.33.62h-.07l.08,0h0Zm91.65-154.09c-2-1.75-4-3.51-5.84-5.2a8,8,0,0,0,.28-4.43c3.49.51,7.16,1.33,9.63,2.68a15,15,0,0,1-1,9.56ZM131.86,437.81v0h0c.23.38.51.67.76,1Zm78.5,49.61,3.2-.92a18,18,0,0,1,2.72,8.89,18,18,0,0,0-2.72-8.86Zm41.09-24.21-.34-1.9c.18.86.64,3.61.75,4.72a26.43,26.43,0,0,0-.46-2.88Zm-8.91-4-5.5,4.23c2-2.09,3.92-4.22,5.8-6.35A4.15,4.15,0,0,0,242.54,459.2Zm3.11-119c-.3-8.75-.88-17.33-1.49-24.69,2.41,3.19,7,8.53,12.6,11.82,4.07,2.37,7.64,4,11.37,6.43,3.48,2.3,8.43,3.32,10.92,4.8A74.55,74.55,0,0,1,245.65,340.2Z"/><path class="cls-33" d="M514.06,227.53c3.47-2.78,3.53-24.36,3.53-24.36l-24.79,8.07L499,199.6c-1.95-.31-3.9-.52-5.85-.65-1.21-.08-2.41-.07-3.62-.09-.73,0-1.46-.06-2.19-.05-1.41,0-2.81.13-4.2.23-.52,0-1,0-1.55.09-1.53.14-3,.34-4.55.56-.36.06-.73.09-1.08.14-1.61.26-3.18.57-4.75.9-.25.05-.51.09-.76.15-1.64.36-3.24.77-4.83,1.2l-.52.13c-1.63.45-3.21.94-4.78,1.45l-.4.12c-1.59.53-3.14,1.08-4.67,1.65l-.27.1c-1.53.58-3,1.17-4.45,1.78l-.27.11c-1.4.59-2.76,1.19-4.07,1.8l-.41.18c-1.24.58-2.42,1.15-3.57,1.73l-.64.31c-1,.51-2,1-2.89,1.51l-1.06.56-2,1.12-1.71,1-.9.53c-2.4,1.42-4.42,2.69-5.88,3.66-.27.21-.54.37-.75.53l-2,1.44s0,.05-.11.05l8.92-18.64c-21.36.06-45,25.64-45,25.64-3.69.75-8.66,1.92-13.68,3.26-10.84,2.72-22.11,5.93-22.11,5.93-18.37,12.5-32.79,40.06-42.89,65.85l-.05.06v0c-.77,2-1.52,3.92-2.24,5.85-2.59-.64-5.89-1.95-9.71-2.7-6.59-3.51-14.49-5.91-22.24-5A112.61,112.61,0,0,1,263.4,297a91.69,91.69,0,0,1-12.89-7.87s-2-1.56-4.86-3.93c-1.93-1.58-4.3-3.53-6.79-5.63,5.28-1.89,16.13-8.32,20.17-29.81l-.17.86c6.36,5.3,7.14,10.09,6.67,13.19a14.33,14.33,0,0,1-1.36,3.66s17-20.06,10.26-41.46c5-.56,11.24-1.48,18.22-3a13.8,13.8,0,0,1,3.24,13,22.93,22.93,0,0,0,2.28-14.27c17.8-4.39,38.91-12.55,55.06-27.69,0,0,0,.06-.07.08a38.1,38.1,0,0,0,6.91-7.28c.12-.15.25-.29.38-.44l-.05,0a17,17,0,0,0,2.32-4.85.44.44,0,0,0,0-.37c-.84-1.24,15.21-16.07-71.7-21.52,0,0-18.66-.25-43.27-2.64a330,330,0,0,1-.8-41c1.67-37.57,9.22-61.86,9.22-61.86,14.07-31.62,34.91-34.58,45.66-33.7,9.52,1.29,28.77,5.94,35.31,22.64,0,0,.61,6.09,3.05,6.09,0,0,3-6.7-2.44-19.18a39.56,39.56,0,0,0-6.46-8.8h0c-.06-.08-.13-.14-.19-.21-.29-.31-.6-.62-.91-.93C315.53,4.7,294.56,1.88,294.28,1.84c-1.74-.35-3.49-.63-5.23-.85h0l-.46,0c-1.78-.22-3.55-.38-5.31-.49-40.16-3.22-66.83,12-66.83,12l.23,0c-35.19,15.42-60.46,43.57-77,67.95a248.83,248.83,0,0,0-23.56,43.29l-30.92-13.4c-16.77-8.51-30.92-16.92-30.92-16.92S20.55,74.65,10.2,102a15,15,0,0,1,2.08-2l-2.08,2s-17.92,61.44,85.62,104a91.06,91.06,0,0,0,2.32,16s8,22,5.15,34c0,0-4.86,28.86,30.29,35.72,0,0-10.28-4.6-15.19-13.35a52,52,0,0,1-2.24-12.94,39.35,39.35,0,0,0,18.45,20c-.25,1.25-.37,2.1-.37,2.1a8.77,8.77,0,0,1,2.38-1.2h0a8.77,8.77,0,0,0-2.38,1.2c.66,2.34,8.1,10.5,8.1,10.5l.62.26c.68.29,1.59.68,2.73,1.15-4.3,7.57-13.67,27.07-18.8,60.27h0c0,.23-1.16,24.38-.55,38.21v.05a204.85,204.85,0,0,0,4.18,39.79l3.24,2.48a17.33,17.33,0,0,0,1.36,1.24c.08.4.15.81.22,1.21l1.92,1.08,1.34.75-.14-.13a12.35,12.35,0,0,0,1.85,1.15l-2.75,3.72,3.06,10.94-.27-3.23.29,3.24h0a45.25,45.25,0,0,0-2.18,14.89,20.53,20.53,0,0,0,1.57,6.32L92.46,518.67l0,.06-.06,0,0,0L79.47,528.81l-6.84,3.43-9.69,4.85L26.69,560.65,4.75,574.91l.06,0-.07,0a.21.21,0,0,0-.12.06l-.16.11a.17.17,0,0,1-.11.06,53.29,53.29,0,0,0-2.89,9.42l0,.06a0,0,0,0,0-.05,0,57.37,57.37,0,0,0,7,42.37c.39.44.73.89,1.12,1.28A10.08,10.08,0,0,0,12.72,631a.26.26,0,0,0,.16.11c9,4.3,13.17-17.13,13.17-17.13a18.45,18.45,0,0,1,1.68-4.18l.22-.51c6-11.35,22.05-25,22.3-25.2,7.1-6,26.74-11.91,31.45-13.19h0l1-.34c-.5-6.52,9.54-17.8,20.48-28.07,12.5-11.83,26.17-22.15,26.17-22.15l4.34-3.5,38.25-30.71a55.93,55.93,0,0,0,8.89,3.43c-.12,2.22-.29,4.41-.25,6.84,0,0,3.63,17.3,24.22,11.72l11.11-8.15v-.05l27.43-28.18c2,21.52,13.52,19.56,13.52,19.56,7.36-4.25,3.5-27.18,3.5-27.18-.33-11.11-9.26-12.5-9.26-12.5a17.88,17.88,0,0,0-5.74,2.58c.6-.7,1.17-1.39,1.74-2.09a.25.25,0,0,1,0,.07s8.37-8.67,10.5-16.61h0l.36-1.08c.11-.32.21-.6.32-1,.31-1,.61-2.13.9-3.32,0-.07,0-.14.05-.21a47.41,47.41,0,0,0,1.19-8.31,82.94,82.94,0,0,0,28.07,1.93s25.09-.46,59.31-14.32c53.32,13.82,88.79,1.44,109.7-12.41a0,0,0,0,0,.05,0,95.52,95.52,0,0,0,18.37-15.65,53.79,53.79,0,0,0,3.58-4.28,31.21,31.21,0,0,1-4.38,4.44c-16.66,13.88-43.1,8.06-43.1,8.06h.16a35.71,35.71,0,0,0,12-2.3c24-8.43,48.71-37.86,48.71-37.86,26.71-27.62,33.87-91.39,33.87-91.39v-38.4S516.62,225.93,514.06,227.53Zm-374.39,203,.17-.08c.23-.11.51-.17.73-.28h.05a2.61,2.61,0,0,1,.27-.06l-.24.06-.07,0c-.24.08-.49.17-.73.27l0,0ZM170,290.29l.07-.05c.8-.52,1.58-1,2.34-1.49-.76.47-1.54,1-2.34,1.49Zm11.11-6.47h0l.15-.07a1.07,1.07,0,0,1,.19-.07,3.85,3.85,0,0,0-.47.19Zm17.25-2.25h0c-.35,0-.67,0-1,0C197.68,281.56,198,281.54,198.34,281.57Zm-4.51-.18c-1,0-1.85.12-2.75.2C192,281.51,192.87,281.41,193.83,281.39Zm-4.54.35-.22,0ZM211.66,279C211,276,210.1,272.21,209,268.2c1.09,4,2,7.84,2.65,10.78.33,1.47.6,2.73.8,3.67C212.26,281.71,212,280.45,211.66,279Zm-.58,5.11c-.93-.22-2.12-.48-3.41-.75l-1.81-.37h0l1.81.37C209,283.61,210.15,283.87,211.08,284.09Zm-77.42-29.73a37.32,37.32,0,0,1-1.51-4.3Zm13.87,35.15h0c.14.64.24,1.27.42,1.92-1.07-.67-2.46-1.66-3.94-2.6h0c1.47.94,2.86,1.93,3.93,2.59C147.77,290.79,147.67,290.15,147.53,289.51ZM175.19,394.6h0l.16,3.67-11.12,15.06-.1-1.53h0l-1.46-23.94-.17-2.51-.11-2.18A25.05,25.05,0,0,0,175.19,394.6Zm-26.35,34.45c.27,0,.54,0,.8,0C149.38,429,149.1,429.05,148.84,429.05Zm-6.33.62h-.07l.08,0h0Zm91.65-154.09c-2-1.75-4-3.51-5.84-5.2a8,8,0,0,0,.28-4.43c3.49.51,7.16,1.33,9.63,2.68a15,15,0,0,1-1,9.56ZM131.86,437.81v0h0c.23.38.51.67.76,1Zm78.5,49.61,3.2-.92a18,18,0,0,1,2.72,8.89,18,18,0,0,0-2.72-8.86Zm41.09-24.21-.34-1.9c.18.86.64,3.61.75,4.72a26.43,26.43,0,0,0-.46-2.88Zm-8.91-4-5.5,4.23c2-2.09,3.92-4.22,5.8-6.35A4.15,4.15,0,0,0,242.54,459.2Zm3.11-119c-.3-8.75-.88-17.33-1.49-24.69,2.41,3.19,7,8.53,12.6,11.82,4.07,2.37,7.64,4,11.37,6.43,3.48,2.3,8.43,3.32,10.92,4.8A74.55,74.55,0,0,1,245.65,340.2Z"/><path class="cls-34" d="M514.06,227.53c3.47-2.78,3.53-24.36,3.53-24.36l-24.79,8.07L499,199.6c-1.95-.31-3.9-.52-5.85-.65-1.21-.08-2.41-.07-3.62-.09-.73,0-1.46-.06-2.19-.05-1.41,0-2.81.13-4.2.23-.52,0-1,0-1.55.09-1.53.14-3,.34-4.55.56-.36.06-.73.09-1.08.14-1.61.26-3.18.57-4.75.9-.25.05-.51.09-.76.15-1.64.36-3.24.77-4.83,1.2l-.52.13c-1.63.45-3.21.94-4.78,1.45l-.4.12c-1.59.53-3.14,1.08-4.67,1.65l-.27.1c-1.53.58-3,1.17-4.45,1.78l-.27.11c-1.4.59-2.76,1.19-4.07,1.8l-.41.18c-1.24.58-2.42,1.15-3.57,1.73l-.64.31c-1,.51-2,1-2.89,1.51l-1.06.56-2,1.12-1.71,1-.9.53c-2.4,1.42-4.42,2.69-5.88,3.66-.27.21-.54.37-.75.53l-2,1.44s0,.05-.11.05l8.92-18.64c-21.36.06-45,25.64-45,25.64-3.69.75-8.66,1.92-13.68,3.26-10.84,2.72-22.11,5.93-22.11,5.93-18.37,12.5-32.79,40.06-42.89,65.85l-.05.06v0c-.77,2-1.52,3.92-2.24,5.85-2.59-.64-5.89-1.95-9.71-2.7-6.59-3.51-14.49-5.91-22.24-5A112.61,112.61,0,0,1,263.4,297a91.69,91.69,0,0,1-12.89-7.87s-2-1.56-4.86-3.93c-1.93-1.58-4.3-3.53-6.79-5.63,5.28-1.89,16.13-8.32,20.17-29.81l-.17.86c6.36,5.3,7.14,10.09,6.67,13.19a14.33,14.33,0,0,1-1.36,3.66s17-20.06,10.26-41.46c5-.56,11.24-1.48,18.22-3a13.8,13.8,0,0,1,3.24,13,22.93,22.93,0,0,0,2.28-14.27c17.8-4.39,38.91-12.55,55.06-27.69,0,0,0,.06-.07.08a38.1,38.1,0,0,0,6.91-7.28c.12-.15.25-.29.38-.44l-.05,0a17,17,0,0,0,2.32-4.85.44.44,0,0,0,0-.37c-.84-1.24,15.21-16.07-71.7-21.52,0,0-18.66-.25-43.27-2.64a330,330,0,0,1-.8-41c1.67-37.57,9.22-61.86,9.22-61.86,14.07-31.62,34.91-34.58,45.66-33.7,9.52,1.29,28.77,5.94,35.31,22.64,0,0,.61,6.09,3.05,6.09,0,0,3-6.7-2.44-19.18a39.56,39.56,0,0,0-6.46-8.8h0c-.06-.08-.13-.14-.19-.21-.29-.31-.6-.62-.91-.93C315.53,4.7,294.56,1.88,294.28,1.84c-1.74-.35-3.49-.63-5.23-.85h0l-.46,0c-1.78-.22-3.55-.38-5.31-.49-40.16-3.22-66.83,12-66.83,12l.23,0c-35.19,15.42-60.46,43.57-77,67.95a248.83,248.83,0,0,0-23.56,43.29l-30.92-13.4c-16.77-8.51-30.92-16.92-30.92-16.92S20.55,74.65,10.2,102a15,15,0,0,1,2.08-2l-2.08,2s-17.92,61.44,85.62,104a91.06,91.06,0,0,0,2.32,16s8,22,5.15,34c0,0-4.86,28.86,30.29,35.72,0,0-10.28-4.6-15.19-13.35a52,52,0,0,1-2.24-12.94,39.35,39.35,0,0,0,18.45,20c-.25,1.25-.37,2.1-.37,2.1a8.77,8.77,0,0,1,2.38-1.2h0a8.77,8.77,0,0,0-2.38,1.2c.66,2.34,8.1,10.5,8.1,10.5l.62.26c.68.29,1.59.68,2.73,1.15-4.3,7.57-13.67,27.07-18.8,60.27h0c0,.23-1.16,24.38-.55,38.21v.05a204.85,204.85,0,0,0,4.18,39.79l3.24,2.48a17.33,17.33,0,0,0,1.36,1.24c.08.4.15.81.22,1.21l1.92,1.08,1.34.75-.14-.13a12.35,12.35,0,0,0,1.85,1.15l-2.75,3.72,3.06,10.94-.27-3.23.29,3.24h0a45.25,45.25,0,0,0-2.18,14.89,20.53,20.53,0,0,0,1.57,6.32L92.46,518.67l0,.06-.06,0,0,0L79.47,528.81l-6.84,3.43-9.69,4.85L26.69,560.65,4.75,574.91l.06,0-.07,0a.21.21,0,0,0-.12.06l-.16.11a.17.17,0,0,1-.11.06,53.29,53.29,0,0,0-2.89,9.42l0,.06a0,0,0,0,0-.05,0,57.37,57.37,0,0,0,7,42.37c.39.44.73.89,1.12,1.28A10.08,10.08,0,0,0,12.72,631a.26.26,0,0,0,.16.11c9,4.3,13.17-17.13,13.17-17.13a18.45,18.45,0,0,1,1.68-4.18l.22-.51c6-11.35,22.05-25,22.3-25.2,7.1-6,26.74-11.91,31.45-13.19h0l1-.34c-.5-6.52,9.54-17.8,20.48-28.07,12.5-11.83,26.17-22.15,26.17-22.15l4.34-3.5,38.25-30.71a55.93,55.93,0,0,0,8.89,3.43c-.12,2.22-.29,4.41-.25,6.84,0,0,3.63,17.3,24.22,11.72l11.11-8.15v-.05l27.43-28.18c2,21.52,13.52,19.56,13.52,19.56,7.36-4.25,3.5-27.18,3.5-27.18-.33-11.11-9.26-12.5-9.26-12.5a17.88,17.88,0,0,0-5.74,2.58c.6-.7,1.17-1.39,1.74-2.09a.25.25,0,0,1,0,.07s8.37-8.67,10.5-16.61h0l.36-1.08c.11-.32.21-.6.32-1,.31-1,.61-2.13.9-3.32,0-.07,0-.14.05-.21a47.41,47.41,0,0,0,1.19-8.31,82.94,82.94,0,0,0,28.07,1.93s25.09-.46,59.31-14.32c53.32,13.82,88.79,1.44,109.7-12.41a0,0,0,0,0,.05,0,95.52,95.52,0,0,0,18.37-15.65,53.79,53.79,0,0,0,3.58-4.28,31.21,31.21,0,0,1-4.38,4.44c-16.66,13.88-43.1,8.06-43.1,8.06h.16a35.71,35.71,0,0,0,12-2.3c24-8.43,48.71-37.86,48.71-37.86,26.71-27.62,33.87-91.39,33.87-91.39v-38.4S516.62,225.93,514.06,227.53Zm-374.39,203,.17-.08c.23-.11.51-.17.73-.28h.05a2.61,2.61,0,0,1,.27-.06l-.24.06-.07,0c-.24.08-.49.17-.73.27l0,0ZM170,290.29l.07-.05c.8-.52,1.58-1,2.34-1.49-.76.47-1.54,1-2.34,1.49Zm11.11-6.47h0l.15-.07a1.07,1.07,0,0,1,.19-.07C181.27,283.75,181,283.85,181.09,283.82Zm17.25-2.25h0c-.35,0-.67,0-1,0C197.68,281.56,198,281.54,198.34,281.57Zm-4.51-.18c-1,0-1.85.12-2.75.2C192,281.51,192.87,281.41,193.83,281.39Zm-4.54.35-.22,0ZM211.66,279C211,276,210.1,272.21,209,268.2c1.09,4,2,7.84,2.65,10.78.33,1.47.6,2.73.8,3.67C212.26,281.71,212,280.45,211.66,279Zm-.58,5.11c-.93-.22-2.12-.48-3.41-.75l-1.81-.37h0l1.81.37C209,283.61,210.15,283.87,211.08,284.09Zm-77.42-29.73a37.32,37.32,0,0,1-1.51-4.3Zm13.87,35.15h0c.14.64.24,1.27.42,1.92-1.07-.67-2.46-1.66-3.94-2.6h0c1.47.94,2.86,1.93,3.93,2.59C147.77,290.79,147.67,290.15,147.53,289.51ZM175.19,394.6h0l.16,3.67-11.12,15.06-.1-1.53h0l-1.46-23.94-.17-2.51-.11-2.18A25.05,25.05,0,0,0,175.19,394.6Zm-26.35,34.45c.27,0,.54,0,.8,0C149.38,429,149.1,429.05,148.84,429.05Zm-6.33.62h-.07l.08,0h0Zm91.65-154.09c-2-1.75-4-3.51-5.84-5.2a8,8,0,0,0,.28-4.43c3.49.51,7.16,1.33,9.63,2.68a15,15,0,0,1-1,9.56ZM131.86,437.81v0h0c.23.38.51.67.76,1Zm119.25,23.5c.18.86.47,2.71.29,1.84Zm-8.57-2.11-5.5,4.23c2-2.09,3.92-4.22,5.8-6.35A4.15,4.15,0,0,0,242.54,459.2Zm3.11-119c-.3-8.75-.88-17.33-1.49-24.69,2.41,3.19,7,8.53,12.6,11.82,4.07,2.37,7.64,4,11.37,6.43,3.48,2.3,8.43,3.32,10.92,4.8A74.55,74.55,0,0,1,245.65,340.2Z"/></g></g></svg>