<svg id="Layer_1" data-name="Layer 1" xmlns="http://www.w3.org/2000/svg" viewBox="0 0 102.49 33.28"><defs><style>.cls-1{fill:#f4cef3;opacity:0.15;}</style></defs><path class="cls-1" d="M91.77,27.65C89.91,14,78,17.88,78,17.88c.21-5.3-4-8.76-4-8.76-7.87-4.82-13.51,4.32-13.51,4.32C61.11-1.63,50.15.06,50.15.06c-6.6.28-9.73,8.77-9.73,8.77-3-5.18-7.63-3.76-7.63-3.76-7.22,1.95-5.16,13.4-5.16,13.4-2.26-5-8-2.65-8-2.65C13.89,18.91,14,25.73,14,25.73,6.39,20.14,0,33.28,0,33.28H102.49C99,32.18,91.77,27.65,91.77,27.65Z"/></svg>