<svg id="Layer_1" data-name="Layer 1" xmlns="http://www.w3.org/2000/svg" viewBox="0 0 109.95 37.46"><defs><style>.cls-1{fill:#f4cef3;opacity:0.25;}</style></defs><path class="cls-1" d="M98.45,31.42c-2-14.68-14.82-10.48-14.82-10.48.22-5.69-4.32-9.41-4.32-9.41-8.44-5.17-14.49,4.64-14.49,4.64C65.56,0,53.1,0,53.1,0,46,.3,43.36,11.22,43.36,11.22c-3.24-5.56-8.18-4-8.18-4-7.75,2.09-5.53,14.37-5.53,14.37C27.21,16.17,21,18.73,21,18.73,14.9,22,15,29.35,15,29.35c-8.18-6-15,8.11-15,8.11H110C106.19,36.28,98.45,31.42,98.45,31.42Z"/></svg>