<svg id="Layer_1" data-name="Layer 1" xmlns="http://www.w3.org/2000/svg" xmlns:xlink="http://www.w3.org/1999/xlink" viewBox="0 0 329.05 150.06"><defs><style>.cls-1,.cls-2,.cls-3,.cls-4,.cls-5,.cls-6{opacity:0.5;}.cls-1{fill:url(#linear-gradient);}.cls-2{fill:url(#linear-gradient-2);}.cls-3{fill:url(#linear-gradient-3);}.cls-4{fill:url(#linear-gradient-4);}.cls-5{fill:url(#linear-gradient-5);}.cls-6{fill:url(#linear-gradient-6);}</style><linearGradient id="linear-gradient" x1="295.24" y1="163.57" x2="200.98" y2="-291.99" gradientUnits="userSpaceOnUse"><stop offset="0" stop-color="#be8470"/><stop offset="1" stop-color="#563973"/></linearGradient><linearGradient id="linear-gradient-2" x1="-193.56" y1="220.84" x2="-193.56" y2="-67.46" gradientTransform="matrix(-1, 0, 0, 1, 116.93, 0)" gradientUnits="userSpaceOnUse"><stop offset="0" stop-color="#c48970"/><stop offset="1" stop-color="#563973"/></linearGradient><linearGradient id="linear-gradient-3" x1="226.32" y1="177.83" x2="132.07" y2="-277.73" xlink:href="#linear-gradient"/><linearGradient id="linear-gradient-4" x1="-117.51" y1="204.75" x2="-117.51" y2="-10.63" gradientTransform="matrix(-1, 0, 0, 1, 116.93, 0)" gradientUnits="userSpaceOnUse"><stop offset="0" stop-color="#c58970"/><stop offset="1" stop-color="#563973"/></linearGradient><linearGradient id="linear-gradient-5" x1="187.55" y1="302.03" x2="-142.34" y2="-154.84" gradientUnits="userSpaceOnUse"><stop offset="0" stop-color="#fcb16e"/><stop offset="1" stop-color="#563973"/></linearGradient><linearGradient id="linear-gradient-6" x1="57" y1="172.94" x2="57" y2="-24.89" gradientTransform="matrix(-1, 0, 0, 1, 116.93, 0)" gradientUnits="userSpaceOnUse"><stop offset="0" stop-color="#b88070"/><stop offset="1" stop-color="#8c6071"/></linearGradient></defs><polygon class="cls-1" points="291.94 17.68 329.05 147.63 254.83 147.63 291.94 17.68"/><polygon class="cls-2" points="291.94 17.68 291.94 147.63 329.05 147.63 291.94 17.68"/><polygon class="cls-3" points="220.58 52.98 248.3 150.06 192.86 150.06 220.58 52.98"/><polygon class="cls-4" points="220.58 52.98 220.58 150.06 248.3 150.06 220.58 52.98"/><polygon class="cls-5" points="39.95 0 79.9 139.91 0 139.91 39.95 0"/><polygon class="cls-6" points="39.95 0 39.95 139.91 79.9 139.91 39.95 0"/></svg>