<svg xmlns="http://www.w3.org/2000/svg" xmlns:xlink="http://www.w3.org/1999/xlink" viewBox="0 0 1394.55 1080"><defs><style>.cls-1{isolation:isolate;}.cls-2{fill:url(#radial-gradient);}.cls-3{fill:url(#radial-gradient-2);}.cls-4{fill:url(#linear-gradient);}.cls-5{fill:url(#linear-gradient-2);}.cls-6{fill:url(#linear-gradient-3);}.cls-7{fill:url(#linear-gradient-4);}.cls-8{fill:url(#linear-gradient-5);}.cls-9{fill:url(#linear-gradient-6);}.cls-10{fill:url(#linear-gradient-7);}.cls-11{fill:url(#linear-gradient-8);}.cls-12{fill:url(#linear-gradient-9);}.cls-13{fill:url(#linear-gradient-10);}.cls-14{fill:#6b5627;}.cls-15{fill:#3a2321;}.cls-16{fill:#543734;}.cls-17{fill:#664744;}.cls-18{fill:#593e36;}.cls-19{fill:#8c773d;}.cls-20{fill:#7c5840;}.cls-21{fill:#774d3d;}.cls-22{fill:#8e6352;}.cls-23{fill:#a3745f;}.cls-24{fill:#472d29;}.cls-25{fill:#77622f;}.cls-26{fill:#351b11;}.cls-27{fill:url(#linear-gradient-11);}.cls-28{fill:#725452;}.cls-29{fill:#3f2525;}.cls-30{fill:url(#linear-gradient-12);}.cls-31{fill:url(#linear-gradient-13);}.cls-32{fill:url(#linear-gradient-14);}.cls-33{fill:url(#linear-gradient-15);}.cls-34{fill:url(#linear-gradient-16);}.cls-35{fill:url(#linear-gradient-17);}.cls-36{mix-blend-mode:overlay;fill:url(#linear-gradient-18);}.cls-37{fill:url(#linear-gradient-19);}.cls-38{fill:#c45933;}.cls-39{fill:#000a21;}.cls-40{fill:#0e2a35;}.cls-41{fill:#825d59;}.cls-42{fill:#353c49;}.cls-43{fill:#634750;}.cls-44{fill:#77524f;}.cls-45{fill:#bc806f;}.cls-46{fill:#fffac8;}.cls-47{fill:url(#linear-gradient-20);}.cls-48{fill:url(#linear-gradient-21);}.cls-49{fill:url(#linear-gradient-22);}.cls-50{fill:#f37f3d;}.cls-51{opacity:0.5;mix-blend-mode:multiply;fill:url(#linear-gradient-23);}</style><radialGradient id="radial-gradient" cx="-41.48" cy="242.82" r="1126.32" gradientUnits="userSpaceOnUse"><stop offset="0" stop-color="#231e28"/><stop offset="1" stop-color="#0d111c"/></radialGradient><radialGradient id="radial-gradient-2" cx="171.16" cy="77.87" r="997.24" gradientUnits="userSpaceOnUse"><stop offset="0" stop-color="#4b343c"/><stop offset="0.51" stop-color="#2c2527"/><stop offset="1" stop-color="#0d111c"/></radialGradient><linearGradient id="linear-gradient" x1="11.01" y1="191.17" x2="64.24" y2="284.56" gradientUnits="userSpaceOnUse"><stop offset="0" stop-color="#4b343c"/><stop offset="1" stop-color="#48333b" stop-opacity="0"/></linearGradient><linearGradient id="linear-gradient-2" x1="6.14" y1="300.21" x2="64.8" y2="403.11" xlink:href="#linear-gradient"/><linearGradient id="linear-gradient-3" x1="10.43" y1="230.5" x2="56.33" y2="311.01" xlink:href="#linear-gradient"/><linearGradient id="linear-gradient-4" x1="237.71" y1="423.51" x2="187.09" y2="200.09" xlink:href="#linear-gradient"/><linearGradient id="linear-gradient-5" x1="128.73" y1="526" x2="123.17" y2="501.47" xlink:href="#linear-gradient"/><linearGradient id="linear-gradient-6" x1="50.12" y1="483.09" x2="209.21" y2="464.26" xlink:href="#linear-gradient"/><linearGradient id="linear-gradient-7" x1="169" y1="607.06" x2="271.11" y2="608.36" xlink:href="#linear-gradient"/><linearGradient id="linear-gradient-8" x1="252.84" y1="680.73" x2="277.52" y2="681.05" xlink:href="#linear-gradient"/><linearGradient id="linear-gradient-9" x1="262.98" y1="696.28" x2="292.95" y2="696.66" xlink:href="#linear-gradient"/><linearGradient id="linear-gradient-10" x1="281.42" y1="758.06" x2="379.61" y2="759.32" xlink:href="#linear-gradient"/><linearGradient id="linear-gradient-11" x1="330.8" y1="373.81" x2="384.91" y2="350.25" gradientUnits="userSpaceOnUse"><stop offset="0" stop-color="#8c773d"/><stop offset="1" stop-color="#351b11"/></linearGradient><linearGradient id="linear-gradient-12" x1="530.18" y1="282.4" x2="585.07" y2="236.66" gradientUnits="userSpaceOnUse"><stop offset="0" stop-color="#573a34" stop-opacity="0"/><stop offset="1" stop-color="#543734"/></linearGradient><linearGradient id="linear-gradient-13" x1="523.7" y1="251.86" x2="569.31" y2="213.85" xlink:href="#linear-gradient-12"/><linearGradient id="linear-gradient-14" x1="517.74" y1="197.61" x2="535.78" y2="197.61" xlink:href="#linear-gradient-12"/><linearGradient id="linear-gradient-15" x1="454.03" y1="314.03" x2="556.43" y2="314.03" xlink:href="#linear-gradient-12"/><linearGradient id="linear-gradient-16" x1="502.67" y1="175.5" x2="375.25" y2="233.1" xlink:href="#linear-gradient-12"/><linearGradient id="linear-gradient-17" x1="448.76" y1="142.06" x2="488.04" y2="224.1" xlink:href="#linear-gradient-12"/><linearGradient id="linear-gradient-18" x1="197.22" y1="404.22" x2="557.89" y2="404.22" gradientUnits="userSpaceOnUse"><stop offset="0" stop-color="#9f8c96"/><stop offset="1" stop-color="#77685e"/></linearGradient><linearGradient id="linear-gradient-19" x1="168.27" y1="470.17" x2="1074.16" y2="175.19" gradientUnits="userSpaceOnUse"><stop offset="0" stop-color="#231e28" stop-opacity="0"/><stop offset="1" stop-color="#0d111c"/></linearGradient><linearGradient id="linear-gradient-20" x1="254.94" y1="419.23" x2="229.92" y2="443.66" gradientUnits="userSpaceOnUse"><stop offset="0" stop-color="#77685e"/><stop offset="1" stop-color="#001025"/></linearGradient><linearGradient id="linear-gradient-21" x1="299.34" y1="404.46" x2="261.52" y2="449.84" gradientUnits="userSpaceOnUse"><stop offset="0" stop-color="#4e3c34"/><stop offset="1" stop-color="#0a2936"/></linearGradient><linearGradient id="linear-gradient-22" x1="303.75" y1="403.4" x2="315.93" y2="379.03" gradientUnits="userSpaceOnUse"><stop offset="0" stop-color="#4f524f"/><stop offset="1" stop-color="#4b3c2a"/></linearGradient><linearGradient id="linear-gradient-23" x1="185.26" y1="459.61" x2="291.95" y2="381.72" xlink:href="#linear-gradient-19"/></defs><g class="cls-1"><g id="Layer_1" data-name="Layer 1"><polygon class="cls-2" points="26.45 148.11 26.45 209.56 15.4 235.29 15.4 251.11 5.24 270.31 5.24 330.96 0 333.67 0 397.73 95.35 458.96 105.17 482.27 128.94 504.35 116.39 521.87 192 573.24 195.49 641.51 243.31 673.07 258.35 676.56 258.35 685.29 269.67 691.12 269.67 701.6 292.75 709.74 311.13 730.65 302.88 776.93 315.49 820.87 324.8 920.05 319.53 944.72 331.6 975.04 331.6 1080 1394.55 1080 1394.55 696.36 26.45 148.11"/><polygon class="cls-3" points="1394.55 0 336.85 0 26.45 148.11 82.42 187.99 105.17 187.99 109.86 189.35 198.11 232.99 199.91 235.29 223.34 267.27 247.82 274.24 275.21 274.24 281.54 274.24 505.86 385.15 533.82 407.55 546.3 405.15 770.74 516.12 783.27 538.85 823.89 542.4 829.09 554.96 863.16 561.82 941.33 600.47 941.33 600.47 980.15 636.96 1015.14 636.96 1104.94 681.36 1104.94 681.36 1176 730.65 1368.63 745.98 1394.55 758.8 1394.55 0"/><polygon class="cls-4" points="26.45 209.56 64.69 248.93 82.42 287.76 15.4 235.29 26.45 209.56"/><polygon class="cls-5" points="0 333.67 46.69 392.9 90.27 403.55 5.24 330.96 0 333.67"/><polygon class="cls-6" points="5.24 270.31 82.42 307.84 15.4 251.11 5.24 270.31"/><polygon class="cls-7" points="199.91 235.29 191.13 310.71 206.07 367.65 223.34 267.27 199.91 235.29"/><polygon class="cls-8" points="128.94 504.35 137.19 513.07 116.39 521.87 128.94 504.35"/><polygon class="cls-9" points="95.35 458.96 175.36 487.04 105.17 482.27 95.35 458.96"/><polygon class="cls-10" points="192 573.24 270.69 624.86 195.49 641.51 192 573.24"/><polygon class="cls-11" points="258.35 676.56 277.53 676.56 258.35 685.29 258.35 676.56"/><polygon class="cls-12" points="269.67 691.12 292.94 692.56 269.67 701.6 269.67 691.12"/><polygon class="cls-13" points="311.13 730.65 379.06 787.11 325.24 758.88 302.88 776.93 311.13 730.65"/><polygon class="cls-14" points="535.78 181.79 485.38 217.31 462.03 195.7 468.14 166.26 484.98 157.64 535.78 181.79"/><polygon class="cls-15" points="492.43 134.62 492.43 151.97 486.03 158.48 479.05 171.86 479.05 200.48 494.76 202.48 535.78 181.79 537.52 185.3 535.49 191.31 535.78 198.66 533.45 208.28 529.6 213.3 539.27 221.89 557.89 230.32 555.27 233.63 556.43 238.61 556.43 282.44 481.38 328.04 454.03 348.5 445.31 364.25 431.54 384.86 441.81 363.7 429.76 269.08 427.8 264.57 420.14 250.8 435.2 227.35 425.62 215.94 414.95 198.66 436.3 195.51 406.04 182.65 417.31 171.86 433.89 158.48 433.89 155.91 446.54 148.08 452 142.28 492.43 134.62"/><polyline class="cls-16" points="408.87 226.72 386.54 288.74 395.05 345.3 403.56 379.71 422.32 333.85"/><path class="cls-17" d="M296,171.53l-.31,8.88,3.19,10.73,1.36,169.28,73.33,52.89-10.67,128,.76,54.44,28.15,18,11.85-19.49-6.4-10.07,4.37-4.47L401,542.17l7.86-8.88-8.73-8.66,5.82-3.34,2.91-6.77-1.46-26.25-4.07-6,1.53-9.46-5.64-22,8.51-20.8s1.31-20.05,1.31-31.77l-3.92-24.18,3.74-147.37Z"/><polyline class="cls-18" points="294.53 492.27 301.74 497.34 301.74 506.43 311.88 510.14 313.81 515.16 312.8 525.85 310.94 528.47 317.6 541.34 317.6 547.23 315.92 552.25 309.31 557.92 308.43 564.68 313.89 587.59 311.09 596.32 316.29 622.5 342.69 649.56 349.45 656.54 355.56 684.68 362.76 660.03 364.29 628.18 368.87 615.96 366.25 605.7 370.83 592.61 370.83 523.09 373.78 516.39 370.83 507.67 373.78 506.21 373.78 452.69 348.33 445.7 338.64 442.94"/><path class="cls-19" d="M350.53,392.89l4.37,3-1.46,4.79L343,406.87l-3.49,1.38-4.36,1.67-3.79,2.55c-4.07,3.43-10.18,2.1-10.18,2.1-1.16.3-5.23,7.28-5.23,7.28l-10.58.58c-3.59,0-13.77,8.44-13.77,8.44-11.25,11.92-24.49,11.92-24.49,11.92-2.3-.87-8.47,0-8.47,0l-.35,4.95L251,443.08h-4.86l-4.78-4.36H220.64c-1.89-3.2-12.07-10.33-12.07-10.33l-6.69-7.73-4.66-2.3s10.19-8.44,11.64-8.44,7.56-1.67,7.56-1.67l7.61-6.67,9.64-6.5,19.44-6,33.08-11.17,16.61-10.2,22.3-12.79,51.62,23.88C367.7,383.49,350.53,392.89,350.53,392.89Z"/><polygon class="cls-20" points="350.53 392.89 336.36 381.95 319.78 376.83 350.53 392.89"/><polygon class="cls-20" points="321.15 414.58 296.65 406.54 279.22 394.21 292.07 410.87 315.92 421.85 321.15 414.58"/><path class="cls-21" d="M252.38,494l1.73,3.93-2.66,3.93L216.36,485.7l-1.53-18.11-4.58-12,4.58-3-8.29-9.6-4.8-2.84-4.52-21.74,4.66,2.3,6.69,7.73s10.18,7.13,12.07,10.33h20.73l4.78,4.36H251l7.25,4.66-8.77,17-.62,6.54,4.35,5.89Z"/><polygon class="cls-22" points="210.25 455.59 248.87 471.3 214.83 467.59 210.25 455.59"/><polygon class="cls-22" points="206.54 442.94 227.33 452.69 214.83 452.54 206.54 442.94"/><polygon class="cls-22" points="253.22 477.19 216.36 485.7 252.38 493.99 253.22 477.19"/><polygon class="cls-22" points="237.16 452.69 241.37 438.72 246.15 443.08 237.16 452.69"/><path class="cls-22" d="M220.64,438.72l-11.12-2.91-1-7.42S220,435.67,220.64,438.72Z"/><polygon class="cls-23" points="209.52 435.81 201.74 440.1 197.22 418.36 201.88 420.67 208.57 428.39 209.52 435.81"/><polygon class="cls-23" points="227.33 452.69 237.16 452.69 249.49 464.76 227.33 452.69"/><polygon class="cls-23" points="248.87 471.3 233.24 481.81 253.22 477.19 248.87 471.3"/><polygon class="cls-23" points="254.11 497.92 241.66 497.34 251.46 501.85 254.11 497.92"/><path class="cls-18" d="M376.72,378.81v71.11l-5.89,5.67-2.33,7.86-17,20.22H331.41l-9.31,6.69-25.16,1-22.11,8.22h-7.71l-15.67,2.26,2.66-3.93L252.38,494l.84-16.8-4.35-5.89.62-6.54,8.77-17,.35-4.95a33.63,33.63,0,0,1,7.45-.25,5.25,5.25,0,0,1,1,.25s13.24,0,24.49-11.92c0,0,1.75-1.45,4.05-3.15,3.26-2.4,7.62-5.29,9.72-5.29l10.58-.58s4.07-7,5.23-7.28c0,0,6.11,1.33,10.18-2.1l3.79-2.55,4.36-1.67,3.49-1.38,10.47-6.22,1.46-4.79-4.37-3S367.7,383.49,376.72,378.81Z"/><polygon class="cls-21" points="296.65 406.54 292.07 410.87 279.22 394.21 296.65 406.54"/><polygon class="cls-20" points="208.86 409.92 221.27 412.5 216.42 408.25 208.86 409.92"/><polygon class="cls-24" points="331.41 483.67 325.23 445.7 322.1 490.36 331.41 483.67"/><polygon class="cls-24" points="369.11 382.83 356.32 389.74 350.53 392.89 354.9 395.86 354.9 435.08 359.7 406.87 363.42 396.64 358.59 391.94 369.11 382.83"/><polygon class="cls-24" points="370.83 455.59 376.72 403.34 376.72 449.92 370.83 455.59"/><polygon class="cls-24" points="351.49 483.67 354.9 435.08 368.5 463.45 351.49 483.67"/><polygon class="cls-24" points="254.11 497.92 268 481.81 274.83 499.59 268.14 499.59 251.45 501.85 254.11 497.92"/><polygon class="cls-24" points="315.92 421.85 313.81 431.01 301.74 455.59 306.4 435.08 304.17 422.64 315.92 421.85"/><path class="cls-17" d="M295.66,427.7l-7.73,20.11-12.52,17.67L274,451.81l-7.9-9.27a5.25,5.25,0,0,1,1,.25s13.24,0,24.49-11.92c0,0,1.75-1.45,4.05-3.15Z"/><polygon class="cls-24" points="275.41 465.48 296.65 479.16 288.4 446.59 275.41 465.48"/><polygon class="cls-17" points="325.23 445.7 296.94 491.37 322.1 490.36 325.23 445.7"/><polygon class="cls-16" points="253.22 477.19 268 481.81 252.38 493.99 253.22 477.19"/><polygon class="cls-16" points="301.74 455.59 296.65 479.16 296.94 491.37 325.23 445.7 301.74 455.59"/><polygon class="cls-17" points="258.26 447.74 266.98 462.29 248.87 471.3 249.49 464.76 258.26 447.74"/><polygon class="cls-16" points="348.33 403.69 354.9 435.08 354.9 395.86 353.44 400.65 348.33 403.69"/><polygon class="cls-16" points="313.81 431.01 325.23 445.7 332.14 433.56 335.16 420.67 336.65 416.69 325.23 429.46 313.81 431.01"/><polygon class="cls-16" points="336.65 416.69 340.29 464.76 332.14 433.56 335.16 420.67 336.65 416.69"/><polygon class="cls-24" points="331.41 483.67 340.29 464.76 351.49 483.67 331.41 483.67"/><polygon class="cls-17" points="336.65 416.69 348.33 403.69 354.9 435.08 336.65 416.69"/><polygon class="cls-24" points="266.98 462.29 275.41 465.48 268 481.81 266.98 462.29"/><polygon class="cls-24" points="376.72 378.81 370.83 397.12 374.77 420.67 376.72 403.34 376.72 378.81"/><polygon class="cls-17" points="363.42 396.64 370.83 397.12 366.03 421.85 354.9 435.08 359.7 406.87 363.42 396.64"/><polygon class="cls-16" points="354.9 435.08 368.5 463.45 370.83 455.59 366.03 421.85 354.9 435.08"/><polygon class="cls-17" points="275.41 465.48 296.94 491.37 296.65 479.16 275.41 465.48"/><polygon class="cls-24" points="325.23 429.46 325.23 445.7 332.14 433.56 336.65 416.69 325.23 429.46"/><polygon class="cls-17" points="321.15 414.57 336.65 416.69 325.23 429.46 321.15 414.57"/><polygon class="cls-25" points="315.92 552.25 334.15 555.09 360 541.12 336.65 561.49 309.31 557.92 315.92 552.25"/><polygon class="cls-24" points="317.6 541.34 348.33 543.32 350.53 546.24 334.15 555.09 315.92 552.25 317.6 547.23 317.6 541.34"/><path class="cls-24" d="M334.15,555.09"/><polygon class="cls-16" points="317.6 547.23 334.15 555.09 350.53 546.24 317.6 547.23"/><polygon class="cls-17" points="310.94 528.47 343.34 521.92 312.8 525.85 310.94 528.47"/><polygon class="cls-17" points="343.34 521.92 350.53 524.54 348.33 543.32 350.53 546.24 354.9 541.34 360 521.92 354.9 523.67 343.34 521.92"/><polygon class="cls-24" points="301.74 506.43 315.92 504.47 343.34 521.92 301.74 506.43"/><polygon class="cls-17" points="301.74 497.34 315.92 504.47 301.74 506.43 301.74 497.34"/><polygon class="cls-17" points="311.88 510.14 313.81 515.16 328.9 516.54 311.88 510.14"/><polygon class="cls-24" points="351.49 483.67 350.53 523.01 343.34 521.92 331.41 483.67 351.49 483.67"/><polygon class="cls-16" points="322.1 490.36 343.34 521.92 331.41 483.67 322.1 490.36"/><polygon class="cls-17" points="360 521.92 370.83 507.67 373.78 516.39 360 521.92"/><polygon class="cls-24" points="370.83 523.09 354.9 541.34 360 541.12 370.83 523.09"/><polygon class="cls-24" points="360 541.12 362.87 569.7 370.83 592.61 370.83 556.83 360 541.12"/><polygon class="cls-17" points="368.5 463.45 370.83 507.67 373.78 506.21 373.78 452.69 370.83 455.59 368.5 463.45"/><polygon class="cls-24" points="362.87 569.7 357.52 576.03 358.83 584.1 370.83 592.61 362.87 569.7"/><polygon class="cls-24" points="358.83 584.1 356.43 607.45 366.25 605.7 370.83 592.61 358.83 584.1"/><polygon class="cls-24" points="368.87 615.96 364.29 628.18 354.9 620.54 368.87 615.96"/><polygon class="cls-24" points="356.43 607.45 354.9 620.54 368.87 615.96 366.25 605.7 356.43 607.45"/><polygon class="cls-24" points="354.9 620.54 358.4 636.03 362.76 660.03 364.29 628.18 354.9 620.54"/><polygon class="cls-24" points="360 521.92 350.53 524.54 354.9 541.34 360 521.92"/><polygon class="cls-17" points="308.43 564.68 325.23 586.21 313.89 587.59 308.43 564.68"/><polygon class="cls-16" points="325.23 586.21 336.65 599.59 311.09 596.32 313.89 587.59 325.23 586.21"/><polygon class="cls-24" points="336.65 561.49 336.65 599.59 357.52 576.03 345.78 553.52 336.65 561.49"/><polygon class="cls-14" points="336.65 599.59 327.14 616.83 316.29 622.5 314.01 611.05 336.65 599.59"/><path class="cls-17" d="M327.14,616.83"/><polygon class="cls-24" points="349.45 656.54 360 644.83 327.14 616.83 349.45 656.54"/><polygon class="cls-24" points="336.65 599.59 354.9 620.54 356.43 607.45 336.65 599.59"/><polygon class="cls-24" points="360 644.83 355.26 660.03 355.56 684.68 362.76 660.03 360 644.83"/><polygon class="cls-17" points="360 644.83 349.45 656.54 355.26 660.03 360 644.83"/><path class="cls-26" d="M376.72,378.81l.8-105.91c-1-24-28.75-74.24-28.75-74.24-16.33,21.2-24,50.45-24,50.45l.38,105.82Z"/><polygon class="cls-27" points="325.1 354.93 344 348.21 357.96 336.99 377.06 333.85 376.72 378.81 325.1 354.93"/><polygon class="cls-24" points="376.72 449.92 373.78 516.39 370.83 507.67 368.5 463.45 370.83 455.59 376.72 449.92"/><polygon class="cls-14" points="400.14 524.63 373.78 516.39 370.83 523.09 408.87 533.28 400.14 524.63"/><polygon class="cls-16" points="401.01 542.17 370.83 523.09 408.87 533.28 401.01 542.17"/><polygon class="cls-16" points="401.6 579.76 370.83 558.28 370.83 573.63 397.23 584.23 401.6 579.76"/><polygon class="cls-16" points="370.83 592.61 403.63 594.3 391.78 613.79 368.5 598.89 370.83 592.61"/><polygon class="cls-16" points="401.01 542.17 392 553.52 401.6 579.76 401.01 542.17"/><polygon class="cls-28" points="370.83 523.09 383.05 537.85 392 553.52 370.83 558.28 370.83 523.09"/><polygon class="cls-16" points="373.78 516.39 387.63 513.19 405.96 521.28 400.14 524.63 373.78 516.39"/><polygon class="cls-16" points="404.87 472.85 375.43 479.16 403.34 482.31 404.87 472.85"/><polygon class="cls-16" points="407.41 488.27 393.09 491.83 393.09 491.83 387.63 513.19 405.96 521.28 408.87 514.52 407.41 488.27"/><polygon class="cls-24" points="370.83 507.67 360 521.92 354.9 541.34 370.83 523.09 373.78 516.39 370.83 507.67"/><polygon class="cls-24" points="360 541.12 370.83 556.83 371.34 521.92 360 541.12"/><polygon class="cls-24" points="368.5 463.45 362.87 483.16 371.34 506.43 368.5 463.45"/><polygon class="cls-24" points="370.83 397.12 366.03 421.85 371.05 453.85 374.77 420.67 370.83 397.12"/><polygon class="cls-24" points="370.83 397.12 363.42 396.64 358.59 391.94 369.11 382.83 376.72 378.81 370.83 397.12"/><polygon class="cls-24" points="408.87 514.52 387.63 513.19 405.96 521.28 408.87 514.52"/><polygon class="cls-24" points="391.78 613.79 393.53 593.78 403.63 594.3 391.78 613.79"/><polygon class="cls-25" points="393.09 491.83 375.43 479.16 403.34 482.31 407.41 488.27 393.09 491.83"/><polygon class="cls-16" points="399.23 450.84 387.63 437.56 386.21 425.48 407.74 430.04 399.23 450.84"/><polygon class="cls-24" points="399.23 450.84 376.72 449.92 387.63 437.56 399.23 450.84"/><polygon class="cls-28" points="386.21 425.48 377.06 408.25 376.72 378.81 392 393.92 386.21 413.31 386.21 425.48"/><polygon class="cls-16" points="405.13 374.09 392 393.92 376.72 378.81 405.13 374.09"/><polygon class="cls-24" points="408.87 226.72 440.21 212.88 448.5 212.58 460.29 212.88 450.25 226.72 445.89 250.8 447.63 257.03 442.83 265.89 441.81 363.7 425.81 396.64 417.09 422.02 411.85 445.7 407.41 453.85 408.87 471.3 407.41 480.18 407.41 488.27 403.34 482.31 404.87 472.85 399.23 450.84 407.74 430.04 409.05 398.27 405.13 374.09 408.87 226.72"/><polygon class="cls-15" points="447.63 257.03 427.77 269.7 418.25 284.16 429.76 281.19 442.83 265.89 447.63 257.03"/><polygon class="cls-16" points="445.89 250.8 407.96 262.42 427.77 269.7 447.63 257.03 445.89 250.8"/><polygon class="cls-15" points="418.25 284.16 407.21 291.99 406.04 338.19 418.25 284.16"/><polygon class="cls-15" points="441.81 363.7 422.32 378.92 414.18 380.06 405.47 376.2 409.05 398.27 417.09 402.23 426.99 394.21 441.81 363.7"/><polygon class="cls-16" points="417.09 402.23 407.74 430.04 409.05 398.27 417.09 402.23"/><polygon class="cls-15" points="407.74 430.04 411.85 445.7 407.41 453.85 399.23 450.84 407.74 430.04"/><polygon class="cls-15" points="404.87 472.85 408.87 471.3 407.41 480.18 403.34 482.31 404.87 472.85"/><polygon class="cls-29" points="429.76 281.19 432.94 315.3 442.15 331.84 442.83 265.89 429.76 281.19"/><polygon class="cls-16" points="432.94 315.3 432.94 340.5 422.32 378.92 414.18 380.06 412.14 345.3 432.94 315.3"/><polygon class="cls-29" points="432.94 340.5 441.81 363.7 422.32 378.92 432.94 340.5"/><polygon class="cls-15" points="440.21 212.88 436.3 231.87 445.89 250.8 450.25 226.72 444.72 225.98 440.21 212.88"/><polygon class="cls-16" points="436.3 231.87 440.21 212.88 408.87 226.72 436.3 231.87"/><polygon class="cls-16" points="418.25 284.16 412.14 345.3 406.04 338.19 418.25 284.16"/><polygon class="cls-16" points="408.87 226.72 418.25 239.45 415.78 246.79 407.96 262.42 408.87 226.72"/><polygon class="cls-29" points="436.3 231.87 418.25 239.45 414.95 248.45 432.07 255.03 436.3 231.87"/><polygon class="cls-16" points="441.81 363.7 422.32 378.92 426.99 394.21 441.81 363.7"/><polygon class="cls-19" points="460.29 212.88 453.45 202.75 447.63 195.86 440.23 195.63 436.3 195.51 418.25 182.84 418.25 177.57 453.74 160.61 447.63 156.83 460.29 149 455.49 146.03 492.43 134.62 463.34 123.75 395.27 139.23 388 138.96 386.54 131.49 356 140.43 346.98 141.09 335.63 140.5 328.07 149 317.89 151.97 295.97 171.53 408.87 226.72 440.21 212.88 460.29 212.88"/><polygon class="cls-30" points="556.43 238.61 542.47 253.99 531.12 279.57 556.43 282.44 556.43 238.61"/><polygon class="cls-31" points="557.89 230.32 539.85 230.32 529.09 255.03 555.27 233.63 557.89 230.32"/><polygon class="cls-32" points="535.49 191.31 517.74 203.91 535.78 198.66 535.49 191.31"/><polygon class="cls-33" points="454.03 348.5 466.83 316.77 495.92 303.22 531.12 279.57 556.43 282.44 481.38 328.04 454.03 348.5"/><polygon class="cls-34" points="479.05 171.86 462.03 182.87 456.36 192.28 479.05 200.48 479.05 171.86"/><polygon class="cls-35" points="460.29 149 460.29 169.34 453.74 160.61 447.63 156.83 460.29 149"/><polygon class="cls-20" points="455.49 146.03 446.18 142.87 440.21 139.38 463.75 143.47 455.49 146.03"/><polygon class="cls-20" points="447.63 156.83 438.03 152.76 429.76 146.03 439.34 152.32 451.98 154.14 447.63 156.83"/><polygon class="cls-20" points="440.21 212.88 437.81 208.61 460.29 212.88 440.21 212.88"/><polyline class="cls-20" points="386.54 131.49 386.18 132.46 384.36 137.27 388 138.96"/><polygon class="cls-20" points="328.07 149 331.78 149 335.63 140.5 328.07 149"/><path class="cls-36" d="M557.89,230.32l-18.62-8.43-9.67-8.59,3.85-5,2.33-9.61-.29-7.35,2-6-1.74-3.51-49.52-23.54,6.17-6.28V134.62l-29.09-10.87-68.07,15.48L388,139l-1.46-7.47L356,140.43l-9,.67-11.35-.6-7.56,8.5-10.18,3L296,171.53l-.31,8.88,3.19,10.73,1.36,169.28,6.79,4.9-4.2,2.4-16.61,10.2-33.08,11.17-19.44,6-9.64,6.5-7.61,6.67-7.56,1.67c-1.45,0-11.64,8.44-11.64,8.44l4.52,21.74h0l4.8,2.84,8.29,9.6-4.58,3h0l2.62,6.87,2,5.13,1.53,18.11h0l35.08,16.14,16.69-2.26h6.69l19.7-7.32h0l7.21,5.07v9.09l10.18,3.79,1.89,4.94-1,10.69-1.86,2.62,6.66,12.87v5.89l-1.68,5-6.61,5.67-.88,6.77,5.46,22.9-2.8,8.73,5.2,26.18,26.4,27.06,6.76,7,6.11,28.15,7.2-24.66,1.53-31.85L368.87,616l-2.62-10.26,2.36-6.74,23.17,14.83,11.85-19.49-6.4-10.07,4.37-4.47L401,542.17l7.86-8.89-8.73-8.65,5.82-3.35,2.91-6.76-1.46-26.25v-8.09l1.46-8.88-1.46-17.45,4.44-8.15L417.09,422l8.72-25.38,1.18-2.43h0l14.82-30.51-10.27,21.16,13.77-20.61L454,348.5,481.38,328l75-45.6V238.61l-1.16-5ZM291.57,430.87l.3-.25Zm.32-.26.33-.27Zm.36-.29.39-.31Zm.55-.44.37-.29Zm.77-.6.09-.07Zm10.62-6.64h0l-.13,0,.13-.05.17,0Zm.32-.09a1.59,1.59,0,0,1,.3-.06A1.59,1.59,0,0,0,304.51,422.55Zm.44-.09.39,0Zm-3.32,1.32.44-.24Zm.58-.31.56-.28Zm.74-.35.37-.17Zm.57-.25.32-.12Zm-2.17,1.06-.32.18Zm-.65.37-.26.16Zm-.64.39-.2.13Zm-.64.4-.05,0Zm-32.83,17.55.49.15C266.93,442.73,266.76,442.69,266.59,442.64Zm-2.47-.23h0Zm1.33.06h0Zm-.64,0h0Z"/><path class="cls-37" d="M557.39,230.32l-18.61-8.43-9.67-8.59,3.85-5,2.33-9.61-.3-7.35,2-6-1.74-3.51-49.52-23.54,6.17-6.28V134.62l-29.09-10.87-68.07,15.48L387.5,139l-1.45-7.47-30.55,8.94-9,.67-11.35-.6-7.56,8.5-10.19,3-21.91,19.56-.31,8.88,3.19,10.73,1.35,169.28,6.79,4.9-4.19,2.4-16.61,10.2-33.08,11.17-19.44,6-9.64,6.5-7.61,6.67-7.56,1.67c-1.45,0-11.64,8.44-11.64,8.44l4.52,21.74h0l4.8,2.84,8.29,9.6-4.58,3h0l2.62,6.87,2,5.13,1.53,18.11h0L251,501.85l16.69-2.26h6.69L294,492.27h0l7.22,5.07v9.09l10.17,3.79,1.9,4.94-1,10.69-1.85,2.62,6.65,12.87v5.89l-1.67,5-6.62,5.67-.87,6.77,5.45,22.9-2.8,8.73,5.2,26.18,26.4,27.06,6.77,7,6.11,28.15,7.2-24.66,1.52-31.85L368.38,616l-2.62-10.26,2.36-6.74,23.17,14.83,11.85-19.49-6.4-10.07,4.36-4.47-.58-37.59,7.86-8.89-8.73-8.65,5.82-3.35,2.91-6.76-1.46-26.25v-8.09l1.46-8.88-1.46-17.45,4.44-8.15L416.59,422l8.73-25.38,1.18-2.43h0l14.82-30.51L431,384.86l13.77-20.61,8.73-15.75L480.89,328l75.05-45.6V238.61l-1.16-5ZM291.08,430.87l.3-.25Zm.32-.26.33-.27Zm.36-.29.39-.31Zm.55-.44.37-.29Zm.77-.6.09-.07Zm10.62-6.64h0l-.14,0,.14-.05.17,0Zm.32-.09a1.59,1.59,0,0,1,.3-.06A1.59,1.59,0,0,0,304,422.55Zm.44-.09.39,0Zm-3.33,1.32.45-.24Zm.59-.31.56-.28Zm.74-.35.37-.17Zm.57-.25.32-.12Zm-2.17,1.06-.32.18Zm-.65.37-.27.16Zm-.64.39a1.37,1.37,0,0,0-.2.13A1.37,1.37,0,0,1,299.57,424.69Zm-.64.4-.06,0ZM266.1,442.64l.49.15C266.44,442.73,266.27,442.69,266.1,442.64Zm-2.47-.23h0Zm1.33.06h0Zm-.64,0h0Z"/><polygon class="cls-26" points="264.44 430.24 264.44 430.24 264.44 430.24 264.44 430.24"/><polygon class="cls-26" points="300.37 411.05 300.37 411.04 300.36 411.05 300.37 411.05"/><polygon class="cls-38" points="300.37 411.05 300.37 411.05 300.37 411.05 300.37 411.05"/><polygon class="cls-38" points="300.36 411.05 282.57 420.52 282.57 420.52 300.37 411.05 300.37 411.05 300.37 411.05 300.36 411.05"/><polygon class="cls-38" points="264.44 430.24 264.44 430.24 282.57 420.52 282.56 420.52 264.44 430.24"/><polygon class="cls-38" points="282.56 420.52 282.57 420.52 282.57 420.52 282.56 420.52"/><polygon class="cls-39" points="234.91 387.89 234.9 387.89 234.9 387.9 219.22 425.6 244.27 390.47 234.91 387.89"/><polygon class="cls-39" points="219.22 425.6 264.43 430.24 264.44 430.24 264.44 430.24 266.25 421.78 219.22 425.6"/><polygon class="cls-40" points="244.27 390.47 219.22 425.6 251.14 392.33 244.27 390.47"/><polygon class="cls-40" points="267.57 415.59 219.22 425.6 266.25 421.78 267.57 415.59"/><polygon class="cls-41" points="261.25 397.63 261.25 397.63 264.53 395.89 264.53 395.88 251.14 392.33 219.22 425.6 261.25 397.63 261.25 397.63"/><polygon class="cls-41" points="270.1 403.77 269.99 403.62 266.71 405.37 266.71 405.37 266.71 405.37 219.22 425.6 267.57 415.59 270.1 403.77"/><polygon class="cls-42" points="246.95 386.66 234.91 387.89 234.91 387.89 244.27 390.47 246.95 386.66"/><polygon class="cls-43" points="257.53 385.61 246.95 386.66 244.27 390.47 251.14 392.33 257.54 385.61 257.53 385.61"/><polygon class="cls-39" points="252.78 378.36 234.91 387.89 246.95 386.66 252.78 378.36"/><polygon class="cls-42" points="266.25 421.78 264.44 430.24 264.44 430.24 271.33 421.38 266.25 421.78"/><polygon class="cls-43" points="277.33 413.63 267.57 415.59 266.25 421.78 271.33 421.38 277.33 413.64 277.33 413.63"/><polygon class="cls-39" points="271.33 421.38 264.44 430.24 282.56 420.52 271.33 421.38"/><polygon class="cls-44" points="258.61 404.38 219.22 425.6 266.71 405.37 258.61 404.38"/><polygon class="cls-45" points="261.25 397.63 219.22 425.6 258.61 404.38 261.25 397.63"/><polygon class="cls-39" points="313.02 375.64 270.33 369.08 270.33 369.08 270.33 369.08 268.48 377.6 313.02 375.64"/><polygon class="cls-39" points="300.37 411.04 313.02 375.64 290.64 408.75 300.37 411.04"/><polygon class="cls-40" points="290.64 408.75 313.02 375.64 283.56 407.06 290.64 408.75"/><polygon class="cls-40" points="267.13 383.82 313.02 375.64 268.48 377.6 267.13 383.82"/><polygon class="cls-38" points="273.26 401.88 273.26 401.88 275.81 395.21 273.26 401.88"/><polygon class="cls-41" points="264.53 395.88 267.79 394.15 267.79 394.15 267.79 394.15 313.02 375.64 267.13 383.82 264.53 395.88"/><polygon class="cls-38" points="267.79 394.15 275.81 395.21 267.79 394.15 267.79 394.15"/><polygon class="cls-41" points="283.56 407.06 313.02 375.64 273.26 401.88 273.26 401.88 273.26 401.88 269.99 403.62 270.1 403.77 270.1 403.77 283.56 407.06"/><polygon class="cls-38" points="264.53 395.88 264.53 395.89 264.53 395.88 264.53 395.88"/><polygon class="cls-38" points="267.79 394.15 267.79 394.15 267.79 394.15 267.79 394.15"/><polygon class="cls-38" points="273.26 401.88 273.26 401.88 273.26 401.88 273.26 401.88"/><polygon class="cls-46" points="273.26 401.88 273.26 401.88 275.81 395.21 267.79 394.15 267.79 394.15 267.79 394.15 264.53 395.88 264.53 395.89 261.25 397.63 261.25 397.63 261.25 397.63 258.61 404.38 266.71 405.37 266.71 405.37 266.71 405.37 269.99 403.62 273.26 401.88 273.26 401.88"/><polygon class="cls-42" points="270.33 369.08 263.57 377.83 268.48 377.6 270.33 369.08"/><polygon class="cls-38" points="257.54 385.61 257.53 385.61 257.54 385.61 257.54 385.61"/><polygon class="cls-43" points="268.48 377.6 263.57 377.83 257.54 385.61 267.13 383.82 268.48 377.6"/><polygon class="cls-42" points="257.54 385.61 257.54 385.61 251.14 392.33 264.53 395.88 264.53 395.88 267.13 383.82 257.54 385.61"/><polygon class="cls-39" points="270.33 369.08 270.33 369.08 270.33 369.08 252.78 378.36 263.57 377.83 270.33 369.08"/><polygon class="cls-40" points="252.78 378.36 246.95 386.66 257.53 385.61 257.54 385.61 263.57 377.83 252.78 378.36"/><polygon class="cls-42" points="288.14 412.41 300.36 411.05 300.37 411.04 290.64 408.75 288.14 412.41"/><polygon class="cls-38" points="277.33 413.64 277.34 413.63 277.33 413.63 277.33 413.64"/><polygon class="cls-43" points="283.56 407.06 277.34 413.63 288.14 412.41 290.64 408.75 283.56 407.06"/><polygon class="cls-42" points="270.1 403.77 270.1 403.77 267.57 415.59 277.33 413.63 277.34 413.63 283.56 407.06 270.1 403.77"/><polygon class="cls-39" points="282.57 420.52 300.36 411.05 288.14 412.41 282.57 420.52"/><polygon class="cls-40" points="277.34 413.63 277.33 413.64 271.33 421.38 282.56 420.52 282.57 420.52 288.14 412.41 277.34 413.63"/><polygon class="cls-44" points="267.79 394.15 275.81 395.21 313.02 375.64 267.79 394.15 267.79 394.15"/><polygon class="cls-38" points="267.79 394.15 267.79 394.15 267.79 394.15 267.79 394.15"/><polygon class="cls-45" points="273.26 401.88 273.26 401.88 313.02 375.64 275.81 395.21 273.26 401.88"/><polygon class="cls-38" points="273.26 401.88 273.26 401.88 273.26 401.88 273.26 401.88"/><polygon class="cls-47" points="264.54 438.36 219.66 433.27 219.22 425.6 264.4 430.24 264.54 438.36"/><polygon class="cls-48" points="300.37 419.37 264.54 438.36 264.4 430.24 300.37 411.05 300.37 419.37"/><polyline class="cls-49" points="313.02 382.51 313.02 375.64 300.37 411.05 300.37 419.37"/><path class="cls-50" d="M221.94,432"/><polygon class="cls-51" points="234.91 387.89 219.22 425.6 264.4 430.24 300.37 411.05 313.02 375.64 270.33 369.08 234.91 387.89"/></g></g></svg>