<svg xmlns="http://www.w3.org/2000/svg" xmlns:xlink="http://www.w3.org/1999/xlink" viewBox="0 0 236.57 725.35"><defs><style>.cls-1{isolation:isolate;}.cls-2{opacity:0.3;}.cls-3{fill:#f6d6b2;}.cls-4{fill:none;}.cls-5{fill:#e2ac6e;}.cls-6{fill:#815046;}.cls-7{fill:#f6ceac;}.cls-8{fill:#8d654c;}.cls-9{fill:#804c2e;}.cls-10{fill:#cc6335;}.cls-11{fill:#9a4b31;}.cls-12{fill:#b49f38;}.cls-13{fill:#9e8046;}.cls-14{fill:#e39b1d;}.cls-15{fill:#d2772a;}.cls-16{fill:#984934;}.cls-17{fill:#7f3526;}.cls-18{fill:#875330;}.cls-19{fill:#fff;}.cls-20{fill:url(#linear-gradient);}.cls-21{fill:#813723;}.cls-22{fill:#8e3a30;}.cls-23{fill:#63341d;}.cls-24{fill:#683a2f;}.cls-25{fill:#7f5049;}.cls-26{fill:#f6d7b3;}.cls-27{fill:#7f492b;}.cls-28{fill:#6b3822;}.cls-29{fill:#9b3086;}.cls-30{fill:#b9409e;}.cls-31{fill:#d560be;}.cls-32{fill:url(#linear-gradient-2);}.cls-33{fill:url(#linear-gradient-3);}.cls-34{fill:#3a5668;opacity:0.42;mix-blend-mode:overlay;}.cls-35{fill:url(#linear-gradient-4);}</style><linearGradient id="linear-gradient" x1="153.09" y1="968.18" x2="302.82" y2="933.27" gradientTransform="matrix(0.96, -0.29, -0.29, -0.96, 160.59, 1618.45)" gradientUnits="userSpaceOnUse"><stop offset="0" stop-color="#8d654c"/><stop offset="0.67" stop-color="#875330"/><stop offset="1" stop-color="#6d4530"/></linearGradient><linearGradient id="linear-gradient-2" x1="140.43" y1="205.48" x2="152.65" y2="675.01" gradientTransform="translate(-46.01 61.86) rotate(-3.26)" gradientUnits="userSpaceOnUse"><stop offset="0" stop-color="#332f2f" stop-opacity="0"/><stop offset="1" stop-color="#2f2f3f"/></linearGradient><linearGradient id="linear-gradient-3" x1="-34.01" y1="285.34" x2="115.72" y2="250.42" gradientTransform="translate(76.54 -178.63) rotate(10.16)" xlink:href="#linear-gradient"/><linearGradient id="linear-gradient-4" x1="-75.11" y1="110.06" x2="422.35" y2="314.28" gradientTransform="matrix(1, 0, 0, 1, 0, 0)" xlink:href="#linear-gradient-2"/></defs><g class="cls-1"><g id="Layer_1" data-name="Layer 1"><g class="cls-2"><path class="cls-3" d="M96.9,413.72a35.61,35.61,0,0,0-.37-7.65l-.18-1.2c-.22-1.4-.48-2.82-.78-4.25-.36-1.73-.76-3.43-1.18-5.09-.71-2.83-1.47-5.45-2.12-7.57-.27-.9-.52-1.7-.74-2.39v0c-.13-.41-.23-.75-.33-1-.34-1.06-.55-1.67-.55-1.67a48.54,48.54,0,0,0-7.72-7.45l-2.86,2-3,1-.67.1a13.66,13.66,0,0,0,2.14,3l.48.48c.09.31.19.62.29.94a117,117,0,0,1,2.91,16.54q.12.89.21,1.77c.21,1.86.41,3.68.57,5.37.07.61.12,1.21.17,1.77.46,4.77.69,8.18.69,8.18.22,1.7.52,4.83.84,8.52,3-1.31,7.88-3.32,12.84-5A28.5,28.5,0,0,1,96.9,413.72Z"/><path class="cls-4" d="M147.56,380.18c.47-1,.76-1.58.76-1.58S148.4,378.34,147.56,380.18Z"/><path class="cls-5" d="M147.8,426.69a116.26,116.26,0,0,0-12.52-4.83c-2.52,6.35-7.49,19.13-8.76,24-1.71,6.54,15.75,7.25,15.75,7.25Z"/><path class="cls-3" d="M78.51,381.63c.29.31.48.49.48.49s-.42-.38-1-1Z"/><path class="cls-6" d="M79.28,383.06h0c-.1-.33-.19-.64-.29-.94C79.09,382.42,79.18,382.73,79.28,383.06Z"/><path class="cls-6" d="M79,382.12s-.19-.18-.48-.49Z"/><path class="cls-7" d="M76,377.65a5.71,5.71,0,0,1-.36-2.95h0s1.14-3,6-.12C79,377.2,77,377.64,76,377.65Z"/><path class="cls-5" d="M77,378.51l-.67.09a8.78,8.78,0,0,1-.41-1c1,0,3-.45,5.66-3.06.4.24.83.52,1.29.85l-2.85,2Z"/><path class="cls-8" d="M76.89,373.52h0a2.3,2.3,0,0,0-1.28,1.18h0c-.5,2.9,1.85,5.8,2.9,6.92l-.49-.5c.55.62,1,1,1,1,.1.3.2.61.29.93l-7-7.44-1.68-1.53c-.42-.35-3-2.89-3.51-3.49h0c-1.16-1.34-1.76-3.58-1.94-6.06a5.55,5.55,0,0,1,2.46-3.43C66.55,367.27,76.89,373.52,76.89,373.52Z"/><path class="cls-9" d="M79.14,362.21S89.71,367.65,91,374.93l1,8-.49,2.67-.33-1c-.6-1.92-.56-1.66-.56-1.66-8.12-9.35-12-10.06-13.75-9.37h0s-10.34-6.25-9.34-12.43C69.52,359.86,73,359.39,79.14,362.21Z"/><path class="cls-8" d="M76.09,378s2.89.28,6-3.14l1.23.86s-3.18,3.54-6.64,3.41Z"/><polygon class="cls-9" points="76.56 377.99 77.12 379.13 76.65 379.13 76.09 378 76.56 377.99"/><path class="cls-5" d="M105.49,453.4c-.89-6.71-7.23-30-7.23-30-.31-1.17-.55-2.26-.75-3.23-5,1.68-9.82,3.69-12.84,5,.88,10.34,1.92,25,1.92,25S106.37,460.1,105.49,453.4Z"/><path class="cls-3" d="M165.22,372.4c-.1-.88-.71-1.1-1.53-1-6.35,1.07-15.54,8-15.93,8.33h0c-.06.13-.12.27-.2.42s-.09.19-.14.28l-.3.72v0c-.3.67-.66,1.42-1,2.28-.77,1.72-1.66,3.78-2.56,6a99.61,99.61,0,0,0-4.15,12.24,33.14,33.14,0,0,0-1.11,6.72s.85,4-1.5,9.78c0,0-.58,1.43-1.47,3.68a116.26,116.26,0,0,1,12.52,4.83c1.2-5.8,2.39-11.27,3-13.72,0,0,.8-4.12,2.06-9.61.54-2.37,1.17-5,1.85-7.66.39-1.56.79-3.11,1.22-4.64a93.54,93.54,0,0,1,3.6-10.88c.14-.3.28-.6.4-.89h0l0,0c.81-.68,1.48-1.31,2-1.88v0C165.26,374.12,165.22,372.4,165.22,372.4Z"/><path class="cls-8" d="M164.89,375.44s-2.88-.42-5-4.48l-1.4.53s2.24,4.21,5.63,4.92Z"/><path class="cls-4" d="M174,359.89v0Z"/><path class="cls-8" d="M164.91,371.67l0,0a1.38,1.38,0,0,0-1.2-.28c-6.35,1.07-15.54,8-15.93,8.33h0a4.18,4.18,0,0,0-.2.42c0,.09-.09.19-.14.28s-.2.44-.31.68l-.15-2.7.35-8.56c2.17-7.07,15-10.36,15-10.36,6-1.87,9.31-1.23,11.21,0h0l.42.31v0h0v0c.06.05.11.11.18.16l.1.09v0a6,6,0,0,1,.64.72C175.71,366.07,164.91,371.67,164.91,371.67Z"/><path class="cls-9" d="M176,363.67c.33,2.83-2.32,5.29-2.32,5.29a4.68,4.68,0,0,1-.38.39h0c-.6.54-3.46,2.73-3.92,3l-1.87,1.31-7.93,6.49c.14-.3.28-.6.4-.89h0l0,0c.81-.68,1.48-1.31,2-1.88v0c3.18-3.23,3.14-5,3.14-5a1.13,1.13,0,0,0-.33-.7l0,0s10.8-5.6,10-10.81a5.64,5.64,0,0,1,1,2.49A1.77,1.77,0,0,1,176,363.67Z"/><polygon class="cls-9" points="159.25 372.83 160.65 372.27 160.92 372.63 159.61 373.23 159.25 372.83"/><path class="cls-10" d="M119.74,438.52a65.57,65.57,0,0,0-14.31-1.12,63.87,63.87,0,0,0-10.62,1.1l-2.48,63.3-.09,2.35s10.24,19.64,14.59,7.49c.9-2.55,1.62-6.47,2-12.25,1.89-27.53,7.57-50.9,10-58.37C119.42,439.4,119.74,438.52,119.74,438.52Z"/><path class="cls-10" d="M134.88,515l-18.46-4.15a29.7,29.7,0,0,0,1.09-4.4c3-17.17,18.15-47.38,23.53-56.78,3.93,1.17,18.42,6.27,22.78,12.72C169,470,134.88,515,134.88,515Z"/><path class="cls-10" d="M142.2,450.4c-5.38,9.4-16.66,40.09-19.67,57.27a28.64,28.64,0,0,1-1.09,4.39c-2.78,8.09-12.71,3.37-16-.4.91-2.54,1.62-6.47,2-12.25A250.9,250.9,0,0,1,118.88,441c5.22.55,16,2.14,25.06,6.39C143.94,447.41,143.28,448.51,142.2,450.4Z"/><path class="cls-11" d="M105.43,437.4a63.87,63.87,0,0,0-10.62,1.1l-2.48,63.3,7.17-2.9S97.67,459.59,105.43,437.4Z"/><path class="cls-11" d="M96.49,496.21a32.46,32.46,0,0,1,28.76-.32s7.25,8.35,10.65,9.13-9.5,4.33-9.5,4.33"/><path class="cls-11" d="M118.88,441s-9.52,22.84-11.17,56.31l1.29-.15s1.25-33.41,11.5-56Z"/><path class="cls-11" d="M142.33,450.05a156.32,156.32,0,0,0-18,48.19l1,.8s6.44-29.57,18.51-48.49Z"/><path class="cls-12" d="M138.32,528.26l-12.08,36.26-4.49,6.2-10.17,1.89s-.82-1.12-1.92-2.65l4.48-2.08s-5.12-17.17-9.3-36.35c4-2.48,11.67-6.5,20.1-6.78,0,0,4.8-11.92-23.23-9.27-.85-5.08-1.52-10-1.89-14.5a27.17,27.17,0,0,1,8-6.09,24.63,24.63,0,0,1,14.87,2.6s2,4,5.76,5.18c0,0,7,2.26,7.7,5.25S138.32,528.26,138.32,528.26Z"/><path class="cls-13" d="M101.71,515.48c28-2.65,23.23,9.27,23.23,9.27-8.43.28-16.11,4.3-20.1,6.78,4.18,19.18,9.3,36.35,9.3,36.35L109.66,570c-2.09-2.88-5.2-7.21-5.69-8.09-.74-1.34-10.64-51-10.64-51l-.71-3.45,3.23-8.36a31.79,31.79,0,0,1,11.94-4.17,27.17,27.17,0,0,0-8,6.09C100.19,505.47,100.86,510.4,101.71,515.48Z"/><path class="cls-13" d="M123.79,499.22s2.74,9.82,6.74,9.65c0,0,1.12-2.62-1.24-3.81C129.29,505.06,125.27,502.82,123.79,499.22Z"/><path class="cls-14" d="M129.74,558.17l.21.22-.1.12Z"/><path class="cls-15" d="M132,585.59c.41-5.59.84-13.63.36-17.47a87.09,87.09,0,0,0-2.55-9.61l.1-.12c1,1.14,5.46,7,6.29,21.87-.5.51-.94,1-1.31,1.42A33,33,0,0,0,132,585.59Z"/><path class="cls-14" d="M135.42,557.55a9.74,9.74,0,0,0,2.68-.49c1.63,3.52,3.4,9.16,4,17.69-2.17,1.93-4.3,3.89-5.86,5.51-.83-14.9-5.28-20.73-6.29-21.87a17.21,17.21,0,0,1,6.24-4.74c.34.51.74,1.14,1.16,1.91C135,556.7,135.42,557.55,135.42,557.55Z"/><path class="cls-14" d="M185,552a12.74,12.74,0,0,1,3.31-.82,15.36,15.36,0,0,0-3.31.4c-.05-5-.69-15.58-5.06-20.58,4.8-2.59,10.59-4.83,16.55-5.12,1.52,2.84,4.1,9.63,3.41,22.29-3.44.17-7.52.75-10.25,2.33,0,0-6.77,2.1,10.16-1.05,0,.12,0,.23,0,.35a27.24,27.24,0,0,0-5.82,3.12s-1.93,1.31-6.58,1.14c0,0-.9.07-2.43.26C185,554.1,185,553.25,185,552Z"/><path class="cls-14" d="M205.11,525.71a31.33,31.33,0,0,1,4.84.49c1.58.34,8.58,2,9.7,4.83a2,2,0,0,0,3.14.11s4.39-1.74-12.29-4.85a25.61,25.61,0,0,0,4.43-.23s6.46-1.83,10.37.1c.82,3.8,1,11.81-6.24,24.17a9.35,9.35,0,0,1-3.35-.91h0a3.43,3.43,0,0,0-2.1-.87,21.09,21.09,0,0,0-7.15-.4l0-.1S209,533.56,205.11,525.71Z"/><path class="cls-14" d="M167.91,539.35a56.9,56.9,0,0,1,5.47-4.33c1.89,3.32,4.38,9.62,5,20.35a83.32,83.32,0,0,0-12.83,3.76c-.15-4.34-.77-10.84-3-15.55A33,33,0,0,0,167.91,539.35Z"/><path class="cls-14" d="M144.77,552.58a7.15,7.15,0,0,1,1.76.59l-1.28.22Q145,553,144.77,552.58Z"/><path class="cls-14" d="M148.67,569.11c-.21-4.48-.92-10.84-3.22-15.34l1.08-.6s4.32-2.34,9.14-5.22a51.11,51.11,0,0,1,3.16,14.22,53,53,0,0,0-7.39,4.64S150.33,567.72,148.67,569.11Z"/><path class="cls-15" d="M219.06,550.33c-.36.61-.74,1.23-1.13,1.86l-.09.14a9.22,9.22,0,0,0-2.13-2.91h0A9.35,9.35,0,0,0,219.06,550.33Z"/><path class="cls-15" d="M226.32,550.68a67.82,67.82,0,0,0,4-8.84h0s5.3,6.73.37,17.75c0,0-7.53,13.44-7.65,20.36,0,0-.67-13.66-3.43-23C222.86,554.2,226.32,550.68,226.32,550.68Z"/><path class="cls-15" d="M135.42,557.55s-.47-.85,1.93-2q.36.68.75,1.5A9.74,9.74,0,0,1,135.42,557.55Z"/><path class="cls-15" d="M145.25,553.39l1.28-.22-1.08.6C145.39,553.64,145.32,553.52,145.25,553.39Z"/><path class="cls-15" d="M210,526.2l-.33-.07.88.16h-.11Z"/><path class="cls-15" d="M222.79,531.14a2,2,0,0,1-3.14-.11c-1.12-2.83-8.12-4.49-9.7-4.83l.44.09h.11C227.18,529.4,222.79,531.14,222.79,531.14Z"/><path class="cls-15" d="M189.64,550.45c2.73-1.58,6.81-2.16,10.25-2.33,0,.42,0,.85-.09,1.28C182.87,552.55,189.64,550.45,189.64,550.45Z"/><path class="cls-15" d="M185,552v-.42a15.36,15.36,0,0,1,3.31-.4A12.74,12.74,0,0,0,185,552Z"/><path class="cls-16" d="M137.35,555.56c-.42-.77-.82-1.4-1.16-1.91a14.54,14.54,0,0,1,2.42-.77,15,15,0,0,1,6.16-.3q.25.39.48.81A34.15,34.15,0,0,0,137.35,555.56Z"/><path class="cls-16" d="M145.45,553.77c2.3,4.5,3,10.86,3.22,15.34-1.79,1.49-4.2,3.54-6.57,5.64-.6-8.53-2.37-14.17-4-17.69A42.9,42.9,0,0,0,145.45,553.77Z"/><path class="cls-17" d="M137.35,555.56a34.15,34.15,0,0,1,7.9-2.17c.07.13.14.25.2.38a42.9,42.9,0,0,1-7.35,3.29Q137.71,556.24,137.35,555.56Z"/><path class="cls-16" d="M162.59,543.58c2.22,4.71,2.84,11.21,3,15.55a68.89,68.89,0,0,0-6.75,3A51.11,51.11,0,0,0,155.67,548C158,546.55,160.45,545,162.59,543.58Z"/><path class="cls-16" d="M179.93,531c4.37,5,5,15.54,5.06,20.58a3.1,3.1,0,0,0-2.23,1.38,23,23,0,0,1,2.23-1c0,1.3,0,2.15,0,2.32-1.58.2-3.84.54-6.54,1.1-.65-10.73-3.14-17-5-20.35A64,64,0,0,1,179.93,531Z"/><path class="cls-17" d="M182.76,552.91a3.1,3.1,0,0,1,2.23-1.38V552A23,23,0,0,0,182.76,552.91Z"/><path class="cls-17" d="M202.3,548.93a25.39,25.39,0,0,0-2.52.82c0-.12,0-.23,0-.35Z"/><path class="cls-16" d="M206.24,548.17a51.22,51.22,0,0,0-6.35,0c.69-12.66-1.89-19.45-3.41-22.29l.47,0s4.15-.25,8.16-.1c3.85,7.85,1.39,22.34,1.39,22.34l0,.1-.23,0Z"/><path class="cls-17" d="M202.3,548.93a25.05,25.05,0,0,1,3.93-.76Z"/><path class="cls-17" d="M206.24,548.17h0a25.05,25.05,0,0,0-3.93.76l-2.5.47c0-.43.06-.86.09-1.28A51.22,51.22,0,0,1,206.24,548.17Z"/><path class="cls-16" d="M227.7,534.59s.06.28.17.72c-.19,13.31-5.28,15.27-8.81,15,7.25-12.36,7.06-20.37,6.24-24.17a4.32,4.32,0,0,1,.56.3A15.41,15.41,0,0,1,227.7,534.59Z"/><path class="cls-17" d="M219.06,550.33c3.53.25,8.62-1.71,8.81-15,.38,1.53,1.34,5.12,2.46,6.53a67.82,67.82,0,0,1-4,8.84s-3.46,3.52-6.7,6.31a26.55,26.55,0,0,0-1.78-4.66l.09-.14C218.32,551.56,218.7,550.94,219.06,550.33Z"/><path class="cls-5" d="M191.42,520.12h0l-2.51.3L186.74,515a6.37,6.37,0,0,1,1.8-1.51,5,5,0,0,1,4-.37,3,3,0,0,1,1.94.39c2.1,0,2.37,1.5,2.37,1.5C196.31,517.8,193.25,519.4,191.42,520.12Z"/><path class="cls-13" d="M185.67,508.11C175.28,514,163,523.62,151.15,535.24l-12,15s0,.34,0,.92L150,537.52c11.82-11.62,24.13-21.25,34.52-27.12,6.15,6,8.13,14.29,8.7,17.62l1.33-.81S193.55,515.8,185.67,508.11Z"/><path class="cls-8" d="M169.56,545l-14.25,10.07-10,16.67v0c-1.5,2.55-5.93,5.52-5.93,5.52l-2.54-2.8c.89-5.14,1.21-22,1.21-22l1.09-1.36h0L150,537.52c4-3.94,8.07-7.64,12.1-11.06C174,535.54,169.56,545,169.56,545Z"/><path class="cls-18" d="M193.26,528c.16.92.21,1.47.21,1.47l-14.22,8.67L169.56,545s4.42-9.48-7.42-18.56a150.47,150.47,0,0,1,22.42-16.06C190.71,516.4,192.69,524.69,193.26,528Z"/><polygon class="cls-8" points="184.16 666.59 181.54 659.5 115.53 693.71 120.22 698.07 173.08 684.78 184.16 666.59"/><path class="cls-4" d="M152.33,683.74h0l.15-.08Z"/><polygon class="cls-4" points="170.42 672.29 170.41 672.29 170.42 672.28 170.42 672.29"/><path class="cls-4" d="M174.18,669.24l-1.56,1.3h0l1.56-1.3Z"/><path class="cls-4" d="M149.2,685.27l-.93.44h0l.93-.44Z"/><path class="cls-4" d="M167.55,674.43l.44-.32Z"/><polygon class="cls-4" points="165.12 676.14 165.12 676.14 165.13 676.14 165.12 676.14"/><path class="cls-4" d="M160.72,679l-1.36.83h0l1.36-.83Z"/><path class="cls-4" d="M155.62,682l-.05,0,.06,0Z"/><path class="cls-4" d="M154.34,682.69h0l.11-.06Z"/><path class="cls-4" d="M162.78,677.7c-.46.31-.93.6-1.4.9h0c.47-.29.94-.59,1.4-.9Z"/><path class="cls-4" d="M174.55,668.92h0c.54-.46,1.08-.92,1.62-1.4C175.63,668,175.09,668.46,174.55,668.92Z"/><path class="cls-4" d="M158.7,680.23h0l0,0Z"/><path class="cls-4" d="M146.67,686.43l-.41.19c-1.45.64-2.88,1.23-4.29,1.79,1.41-.56,2.84-1.15,4.29-1.79Z"/><path class="cls-4" d="M176.17,667.52c2.07-1.84,4.13-3.8,6.14-5.88-2,2.08-4.07,4-6.14,5.88Z"/><path class="cls-4" d="M117.18,695.3l1.45-.25Z"/><path class="cls-4" d="M128.18,692.94l.14,0Z"/><path class="cls-4" d="M135.79,690.66l.22-.07Z"/><path class="cls-12" d="M136,690.59c1.93-.65,3.92-1.37,6-2.18C139.93,689.22,137.94,689.94,136,690.59Z"/><path class="cls-12" d="M118.63,695.05c2.77-.49,6-1.17,9.55-2.11C124.62,693.88,121.4,694.56,118.63,695.05Z"/><path class="cls-12" d="M128.32,692.9c2.36-.62,4.86-1.36,7.47-2.24C133.18,691.54,130.68,692.28,128.32,692.9Z"/><path class="cls-12" d="M155.63,682c1-.56,2-1.15,3.06-1.75C157.67,680.84,156.64,681.43,155.63,682Z"/><path class="cls-12" d="M154.33,682.69l-1.85,1,.91-.47Z"/><path class="cls-12" d="M155.57,682l-1.13.61,1-.56Z"/><path class="cls-12" d="M164.86,676.33c.09-.06.17-.13.26-.18-.78.53-1.56,1.05-2.34,1.55l.58-.37Z"/><path class="cls-12" d="M148.27,685.71c-.53.25-1.07.49-1.6.72l.33-.14Z"/><path class="cls-12" d="M151.3,684.26l1-.52c-1.05.53-2.09,1-3.13,1.53l1.1-.52Z"/><path class="cls-12" d="M165.12,676.14q1.22-.82,2.43-1.71Q166.34,675.32,165.12,676.14Z"/><path class="cls-12" d="M158.72,680.22l.64-.38Z"/><path class="cls-12" d="M160.72,679l.66-.41Z"/><path class="cls-12" d="M174.18,669.24l.37-.32Z"/><path class="cls-12" d="M168,674.11c.81-.59,1.62-1.2,2.42-1.82C169.61,672.91,168.8,673.52,168,674.11Z"/><path class="cls-12" d="M172.22,670.86l.4-.32c-.73.59-1.46,1.17-2.2,1.74l.19-.14Z"/><path class="cls-18" d="M229.83,680.2c-7-3.49-6-1.44-6-1.44a13.87,13.87,0,0,1,2.7,2.57,15.55,15.55,0,0,1,2.56,16.4l0,.06c-.1.25-.21.49-.32.75l-.1.17a10.78,10.78,0,0,1-2.44,3.15h0s5.95,1.92,1.07,9.53c6-5.06,10.31-11.95,9.06-21.11C236.35,690.29,235.05,683.89,229.83,680.2Z"/><path class="cls-4" d="M146.67,686.43l-.41.19-.51.22.51-.22Z"/><path class="cls-4" d="M155.62,682l-.05,0,.06,0Z"/><path class="cls-4" d="M158.7,680.23h0l0,0Z"/><path class="cls-4" d="M154.34,682.69h0l.11-.06Z"/><path class="cls-4" d="M148.27,685.71h0l.71-.33Z"/><path class="cls-4" d="M162.78,677.7c-.46.31-.93.6-1.4.9h0c.47-.29.94-.59,1.4-.9Z"/><path class="cls-4" d="M160.72,679l-1.36.83h0l1.36-.83Z"/><path class="cls-8" d="M227.29,711.41c-10.46,8.86-26,12.15-26,12.15-37.08,7.89-66.81-12-84.11-28.26l1.45-.25c2.77-.49,6-1.17,9.55-2.11l.14,0c1.18-.31,2.39-.65,3.64-1s2.52-.78,3.83-1.22l.22-.07c1.93-.65,3.92-1.37,6-2.18,1.24-.49,2.51-1,3.78-1.57l.51-.22.41-.19.33-.14,1.27-.58h0l.71-.33.22-.11,1.1-.52,1-.49,1-.52.15-.08.91-.47.94-.5h0l.1-.06,1-.56.09-.05.05,0h0c1-.56,2-1.15,3.06-1.75h0l.64-.38h0l1.36-.83h0l.66-.41h0c.47-.3.94-.59,1.4-.9h0l.54-.35c28.62,36.7,49,28.6,49,28.6h0a23.24,23.24,0,0,0,2.48,0l.34,0a17.57,17.57,0,0,0,4.79-.91,14.28,14.28,0,0,0,6.25-3.2h0S232.17,703.79,227.29,711.41Z"/><path class="cls-12" d="M170.7,629c.29.53.6,1.16.92,1.88-.58-.33-1.55-.85-2.79-1.49Z"/><path class="cls-12" d="M163.31,677.35l-.53.35c-.46.31-.93.61-1.4.9l-.66.41-1.36.83-.64.38,0,0c-1,.6-2.05,1.19-3.06,1.75l-.06,0-1.13.61-.11.06-1.85,1-.15.08h0c-1.05.53-2.09,1-3.13,1.53h0l-.22.11-.71.33c-.53.25-1.07.49-1.6.72l-.41.19-.51.22c-1.27.55-2.54,1.08-3.78,1.57-2,.81-4,1.53-6,2.18l-.22.07c-1.31.44-2.58.84-3.83,1.22s-2.46.71-3.64,1l-.14,0c-3.56.94-6.78,1.62-9.55,2.11l-1.45.25a128.23,128.23,0,0,1-16.63-18.8l32.79-25.93,3-1.7c1.72-1,4.07-2.26,6.72-3.69,1.69,3.5,3.84,7.48,6.54,12A196.62,196.62,0,0,0,163.31,677.35Z"/><path class="cls-12" d="M155.48,682.07l-1,.56,1.13-.61Z"/><path class="cls-12" d="M153.39,683.19l-.91.47,1.85-1Z"/><path class="cls-12" d="M149.2,685.27l-.22.11.22-.11Z"/><path class="cls-12" d="M147,686.29l-.33.14c.53-.23,1.07-.47,1.6-.72Z"/><path class="cls-12" d="M142,688.41c1.24-.49,2.51-1,3.78-1.57C144.48,687.39,143.21,687.92,142,688.41Z"/><path class="cls-12" d="M128.32,692.9c1.18-.31,2.39-.65,3.64-1C130.71,692.25,129.5,692.59,128.32,692.9Z"/><path class="cls-12" d="M152.48,683.66l-.15.08h0Z"/><path class="cls-12" d="M151.3,684.26l-1,.49-1.1.52c1-.49,2.08-1,3.13-1.53Z"/><path class="cls-12" d="M163.32,677.35l-.54.35.53-.35Z"/><path class="cls-19" d="M174.55,668.92h0c.54-.46,1.08-.92,1.62-1.4C175.63,668,175.09,668.46,174.55,668.92Z"/><path class="cls-19" d="M176.17,667.52h0c2.07-1.84,4.13-3.8,6.14-5.88C180.3,663.72,178.24,665.68,176.17,667.52Z"/><polygon class="cls-19" points="170.42 672.29 170.41 672.29 170.42 672.28 170.42 672.29"/><path class="cls-19" d="M174.18,669.24l-1.56,1.3h0l1.56-1.3Z"/><path class="cls-18" d="M163.32,677.35l0,0,1.5-1c.09-.06.17-.13.26-.18h0q1.22-.82,2.43-1.71l.44-.32c.81-.59,1.62-1.2,2.42-1.82h0l.19-.14,1.61-1.28.4-.32h0l1.56-1.3h0l.37-.32h0c.54-.46,1.08-.92,1.62-1.4h0c2.07-1.84,4.13-3.8,6.14-5.88,8.08,22.21,15.52,34.54,18.17,38.58a20.06,20.06,0,0,0,9.15,5.33,21.81,21.81,0,0,0,2.72.4h0S191.94,714.05,163.32,677.35Z"/><path class="cls-13" d="M182.31,661.64c-2,2.08-4.07,4-6.14,5.88-.54.48-1.08.94-1.62,1.4l-.37.32-1.56,1.3c-.73.59-1.46,1.17-2.2,1.74h0c-.8.62-1.61,1.23-2.42,1.82l-.44.32q-1.22.89-2.43,1.71h0c-.6.41-1.2.8-1.81,1.2a196.62,196.62,0,0,1-13.67-20.17c-2.7-4.52-4.85-8.5-6.54-12,5.53-3,12.42-6.56,18-9a59,59,0,0,1,4.37-5.47c.21-.24.44-.49.65-.7l2.75-.57c1.24.64,2.21,1.16,2.79,1.49,3.24,7.17,7.89,22.73,7.89,22.73C180.45,656.44,181.38,659.09,182.31,661.64Z"/><polygon class="cls-19" points="165.13 676.14 165.12 676.14 165.12 676.14 165.13 676.14"/><path class="cls-18" d="M184.55,510.4c-.2-.12-.43-.25-.65-.36C173.45,504.66,136,546.31,136,546.31l-.31,24.94,1.12,3.2c.89-5.15,1.21-22,1.21-22l12-15C161.86,525.9,174.17,516.27,184.55,510.4Z"/><path class="cls-8" d="M211.77,498.07C199.24,463.51,173.54,434,173.54,434c-24.68,27.93-44.57,84.88-53.81,114.7-.74,2.42-1.43,4.66-2,6.69-2.32,7.77-3.56,12.49-3.56,12.49s21.38,9.67,22.66,6.57.47-23.29.47-23.29l12-15C179.52,506.49,211.77,498.07,211.77,498.07Z"/><path class="cls-8" d="M110.05,569.07c-.28.42-9.14-28.56-11.18-50.94,0,0-10.11-57.18,7.55-97.68,0,0-28.13,16.32-37.57,25.76,0,0,9.91,66.54,20.59,104.08l1.09,27.29Z"/><path class="cls-20" d="M81,640S39.5,655.71,38,675.62c0,0-1,11.69,15.31,12.36,0,0,37.93-2.17,73.67-17.35,0,0,24.28-9.62,41.59-28.36A92.8,92.8,0,0,1,190.34,628s31.2-14,35.2-29.77c0,0,1.63-10.28-26.78-2.14,0,0-46.14,12.7-78.24,28.32"/><path class="cls-21" d="M90.46,590.63l4.44-1.08,44.5-4.64s10.67-7.58,18.26-4.41c9.8,4.1-10,18.49-10,18.49l-3.55,3.5-13.12,3-35.36,2.62"/><path class="cls-3" d="M147.9,608.92c-.48-4.11-3.27-9.9-5.31-13.72-1.26-2.34-2.24-3.93-2.24-3.93-7.44-9.24-26-8.39-26-8.39-14,1.64-18,9.59-19,12.55a10,10,0,0,0-.31,1.12l-2.53,46,18.2,1.58,32.44-15.63S148.68,615.55,147.9,608.92Z"/><path class="cls-5" d="M147.9,608.92c-.48-4.11-3.27-9.9-5.31-13.72a24.33,24.33,0,0,0-.07,6.34c-1.44.82-2.85,5.69-2.85,5.69-19.89.86-28.3,13.42-28.3,13.42,1.46-8.2,9.9-13,9.9-13-22.23,5.09-19.66,22.93-19,26.33,0,.19.06.34.08.43a3.31,3.31,0,0,1-.12-.42c-8.28-26.2,2.81-35.12,2.81-35.12A14,14,0,0,0,96.9,604a60.55,60.55,0,0,0-1.54-8.58,10,10,0,0,0-.31,1.12l-2.53,46,18.2,1.58,32.44-15.63S148.68,615.55,147.9,608.92Z"/><path class="cls-10" d="M189.52,589c1.93,9-8,11.5-8,11.5a7.26,7.26,0,0,0-1.52-8.41c1.38-8.94-5.41-10.57-5.41-10.57a10.43,10.43,0,0,1-4,11.67c-1-3.7-2.93-8.93-6.72-11.17,0-.27,0-.42,0-.42-.15-6.74,5.74-5.63,6.33-5.51-11.26-4.57-15.6,5.13-15.6,5.13-13.4,7.5-11,22.81-11,22.81-1.44.81-2.85,5.68-2.85,5.68-19.89.87-28.3,13.43-28.3,13.43,1.46-8.21,9.9-13,9.9-13-22.23,5.09-19.66,22.94-19,26.34,0,.24.09.42.11.5a3.12,3.12,0,0,1-.14-.5c-8.28-26.2,2.81-35.12,2.81-35.12A14,14,0,0,0,98,606.53c-.26-4.14-2.6-12.87-2.6-12.87-.75-10.24,6.74-10,6.74-10C83.94,582.26,82,593.9,82,593.9c-2.78-6.93,5-13.33,5-13.33-7.92-1.93-12.94,5.9-12.94,5.9-16.35,14.22,1.1,33.92,1.1,33.92,2.29,2.6,2,7.25,2,7.25A57.52,57.52,0,0,0,80,640.42h0c4.37,12.28,11.39,15.19,11.39,15.19C105.34,654.44,125,648,125,648c14.23-4.08,35.33-17.25,35.33-17.25,4.68-6.87,6.48-10.27,6.48-10.27,2.27-4.84,7.12-8.1,10.53-9.87a30,30,0,0,1,3.72-1.68C196.22,603.2,189.52,589,189.52,589Z"/><path class="cls-4" d="M90.9,583.84c0,.08,0,.15,0,.23h0C90.91,584,90.91,583.92,90.9,583.84Z"/><path class="cls-4" d="M90.53,577.54c0-.24.1-.45.16-.64C90.63,577.09,90.58,577.3,90.53,577.54Z"/><path class="cls-4" d="M90.2,580c0-.23.07-.44.1-.64C90.27,579.54,90.23,579.75,90.2,580Z"/><path class="cls-4" d="M91.07,585.29c0,.18.05.35.09.54C91.12,585.64,91.1,585.47,91.07,585.29Z"/><path class="cls-4" d="M91.38,588c0,.17.07.33.12.5C91.45,588.31,91.42,588.15,91.38,588Z"/><path class="cls-4" d="M90.1,582.06c0-.2,0-.38,0-.57C90.1,581.68,90.1,581.86,90.1,582.06Z"/><path class="cls-4" d="M90.11,580.94c0-.22,0-.41.06-.61C90.15,580.53,90.13,580.72,90.11,580.94Z"/><path class="cls-16" d="M140.87,580.64c0,.54,0,.92,0,.92a6.12,6.12,0,0,1,.19,1.7c-.14,3.2-3.7,2.62-3.7,2.62a36,36,0,0,0-.41-10.59,59.37,59.37,0,0,0,3.92,6.27,10.47,10.47,0,0,0-4.09-7.11c-.11-.54,0-2.42-.14-3,2,1.95,3.19,3.36,3.19,3.36C140.8,575.89,140.81,579.39,140.87,580.64Z"/><polygon class="cls-15" points="88.55 584.7 88.55 584.7 88.55 584.7 88.55 584.7"/><path class="cls-15" d="M90.92,584.07h0c0,.11,0,.21,0,.32C90.93,584.28,90.93,584.18,90.92,584.07Z"/><path class="cls-17" d="M140.89,581.56a59.37,59.37,0,0,1-3.92-6.27c-.05-.28-.11-.56-.17-.84A10.47,10.47,0,0,1,140.89,581.56Z"/><path class="cls-14" d="M107.73,574.53a13.85,13.85,0,0,1-9.21-3.77c2.48-1.72,8.19-1.51,12.6-3.27C109.14,570.41,107.8,572.17,107.73,574.53Z"/><path class="cls-15" d="M107.74,576.42l-1.47-.42a25.49,25.49,0,0,1-7.75-5.24,13.85,13.85,0,0,0,9.21,3.77C107.69,575.68,107.74,576.42,107.74,576.42Z"/><path class="cls-14" d="M113,578.27a5.61,5.61,0,0,1,.16-.62l-.14,0,.28,0a6,6,0,0,0,0,.75Z"/><path class="cls-17" d="M113,577.62c-.55-.09-2.69-.49-5.28-1.2,0,0,0-.74,0-1.89a25,25,0,0,0,6.07-.43,15,15,0,0,0-.5,3.54Z"/><path class="cls-15" d="M124.37,574.2l-1.88,1.25a18,18,0,0,1-9.19,2.19,15,15,0,0,1,.5-3.54,33.93,33.93,0,0,0,7.1-2.13c2.67-1.3,4.11-1.38,4.9-1.05A18.59,18.59,0,0,1,124.37,574.2Z"/><path class="cls-16" d="M124.37,574.2c.34-.18.67-.37,1-.55a22.1,22.1,0,0,1-2.86,1.8l1.88-1.25Z"/><path class="cls-16" d="M130.17,587.38a44.51,44.51,0,0,0-6,.16c-.2-4.84-.7-10-1.9-12l.18-.12a22.1,22.1,0,0,0,2.86-1.8c1.6-.9,2.88-1.7,3.83-2.33.21,1.58.88,6.74,1.24,12.07a4,4,0,0,0-.91.64S128.87,586.37,130.17,587.38Z"/><path class="cls-17" d="M130.17,587.38c-1.3-1-.66-3.35-.66-3.35a4,4,0,0,1,.91-.64c.09,1.35.15,2.7.19,4Z"/><path class="cls-17" d="M125.8,570.92a1.65,1.65,0,0,1,.91,1.69l-2.34,1.59A18.59,18.59,0,0,0,125.8,570.92Z"/><path class="cls-16" d="M129.18,571.32c-.05-.32-.07-.5-.07-.5a20.5,20.5,0,0,1-2.4,1.79,1.65,1.65,0,0,0-.91-1.69,8.69,8.69,0,0,0,.63-4.82c1.6,1,3.32.73,4.8,2l-.12,1.9S130.44,570.48,129.18,571.32Z"/><path class="cls-16" d="M125.35,573.65c-.31.18-.64.37-1,.55h0l2.34-1.59h0C126.26,573,125.81,573.32,125.35,573.65Z"/><path class="cls-15" d="M98.32,591.69l1.7.18-1.91-.2Z"/><path class="cls-14" d="M94.58,572.85h0c1.18-1.13,3-1.35,3.94-2.1,0,0-1.72,2.73-3.74,5.77C94.83,575.6,94.38,573.79,94.58,572.85Z"/><path class="cls-14" d="M106.22,576a55.67,55.67,0,0,0,2,15.84c-1.46.24-3,.4-4.39.52l-3.75-.47h0l-1.7-.18h0a33.2,33.2,0,0,1-3.52-12,2.86,2.86,0,0,0,.42-.84s3.69-6.33,3.3-8.09a25.49,25.49,0,0,0,7.75,5.24Z"/><path class="cls-15" d="M95.22,578.85a2.86,2.86,0,0,1-.42.84,22.18,22.18,0,0,1,0-3.16c2-3,3.74-5.77,3.74-5.77C98.91,572.52,95.22,578.85,95.22,578.85Z"/><path class="cls-14" d="M90.69,576.9c-.06.19-.11.4-.16.64,0,.05-.22,1.75-.23,1.8s-.07.41-.1.64l0,.35c0,.2,0,.39-.06.61v.55c0,.19,0,.37,0,.57s.78,1.53.8,1.78c0,.08,0,.15,0,.23-.71.88-2,.45-2.37.63-.11-1.53,2.13-7.89,2.13-7.89v.08Z"/><path class="cls-15" d="M90.94,584.39c0,.09,0,.19,0,.29a3,3,0,0,1-2.43,0h0c.34-.18,1.66.25,2.37-.63C90.93,584.18,90.93,584.28,90.94,584.39Z"/><polygon class="cls-16" points="100.03 591.88 100.03 591.88 100.02 591.87 100.03 591.88"/><path class="cls-16" d="M98.11,591.67l-1.41-.14s.61.05,1.62.16Z"/><path class="cls-16" d="M96.7,591.59v-.06l0,.06Z"/><path class="cls-16" d="M96.73,591.59l0-.06.13.06Z"/><path class="cls-16" d="M96.83,591.59l-.13-.06,1.41.14Z"/><path class="cls-16" d="M126.71,572.61h0a20.5,20.5,0,0,0,2.4-1.79s0,.18.07.5c-1,.63-2.23,1.43-3.83,2.33C125.81,573.32,126.26,573,126.71,572.61Z"/><path class="cls-16" d="M107.73,574.53c.07-2.36,1.41-4.12,3.39-7h0c1.44-.58,2.83-1.11,4.09-1.59,1.63-.61,2.89.35,3.88,0-1.06,2.24-4.23,3.83-5.29,8.2A25,25,0,0,1,107.73,574.53Z"/><polygon class="cls-16" points="111.13 567.49 111.13 567.49 111.13 567.49 111.13 567.49"/><path class="cls-16" d="M110,577.22a21.57,21.57,0,0,1-3.74-1.22l1.47.42h0Z"/><path class="cls-22" d="M113,578.27l-3-1a18.2,18.2,0,0,0,3,.4l.14,0A5.61,5.61,0,0,0,113,578.27Z"/><path class="cls-22" d="M110,577.22l-2.27-.8h0c2.59.71,4.73,1.11,5.28,1.2A18.2,18.2,0,0,1,110,577.22Z"/><path class="cls-16" d="M113,578.27c-.78,3.17.17,8.21,1.13,11.93a25.18,25.18,0,0,1-6,1.62,55.67,55.67,0,0,1-2-15.84l0,0a21.57,21.57,0,0,0,3.74,1.22Z"/><path class="cls-14" d="M136.58,574.31a5.47,5.47,0,0,0,.39,1,36,36,0,0,1,.41,10.59s-3.59-4.32-7-2.49c-.36-5.33-1-10.49-1.24-12.07,1.26-.84,1.93-1.36,1.93-1.36l.12-1.9c.83.68,1.91,1.15,2.66,1.83,1,1,1.94.76,2.77,1.58.14.56,0,2.44.14,3Z"/><path class="cls-15" d="M130.61,587.4c0-1.31-.1-2.66-.19-4,3.37-1.83,7,2.49,7,2.49a17.18,17.18,0,0,1-4.53,1.83A15.93,15.93,0,0,0,130.61,587.4Z"/><path class="cls-15" d="M136.8,574.45c.06.28.12.56.17.84a5.47,5.47,0,0,1-.39-1Z"/><path class="cls-16" d="M94.78,576.53c-1.57,2.34-2.56,5.91-3.86,7.54,0-.08,0-.15,0-.23,0-.25-.79-1.55-.8-1.78s0-.38,0-.57v-.55c0-.22,0-.41.06-.61l0-.35c0-.23.07-.44.1-.64s.22-1.75.23-1.8c0-.24,0-.27.09-.46l0-.13,0-.14s.09-.11.26-.28c.66-.7,1.73-1.86,3.64-3.68h0C94.38,573.79,94.83,575.6,94.78,576.53Z"/><path class="cls-17" d="M90.94,584.39c0-.11,0-.21,0-.32,1.3-1.63,2.29-5.2,3.86-7.54a22.18,22.18,0,0,0,0,3.16c-.93,1.36-2.3,4-3.82,5C91,584.58,91,584.48,90.94,584.39Z"/><path class="cls-16" d="M90.17,580.33l0-.35Z"/><path class="cls-16" d="M91.07,585.29c0-.21-.06-.42-.09-.61h0C91,584.87,91,585.08,91.07,585.29Z"/><path class="cls-16" d="M90.11,581.49v0Z"/><path class="cls-16" d="M90.68,576.81"/><path class="cls-16" d="M90.3,579.34c0-.05.22-1.75.23-1.8S90.31,579.29,90.3,579.34Z"/><path class="cls-16" d="M91.16,585.83c.06.34.13,1.78.22,2.15C91.29,587.61,91.22,586.17,91.16,585.83Z"/><path class="cls-16" d="M90.9,583.84c0-.25-.79-1.55-.8-1.78C90.11,582.29,90.88,583.59,90.9,583.84Z"/><path class="cls-16" d="M91,584.68c0-.1,0-.2,0-.29,0,.09,0,.19,0,.29Z"/><path class="cls-14" d="M124.21,587.54l-1.5.14a40.32,40.32,0,0,0-7.25,1.8h0a10.41,10.41,0,0,1-1.33.72c-1-3.72-1.91-8.76-1.13-11.93l.33.12a6,6,0,0,1,0-.75,18,18,0,0,0,9.19-2.19l-.18.12C123.51,577.51,124,582.7,124.21,587.54Z"/><path class="cls-14" d="M126.43,566.1a8.69,8.69,0,0,1-.63,4.82c-.79-.33-2.23-.25-4.9,1.05a33.93,33.93,0,0,1-7.1,2.13c1.06-4.37,4.23-6,5.29-8.2a1,1,0,0,1,.46,0A24.18,24.18,0,0,1,126.43,566.1Z"/><path class="cls-16" d="M90.53,577.58a6.47,6.47,0,0,1,.15-.77l.12.11Z"/><path class="cls-16" d="M98.31,591.68H98.1a11.19,11.19,0,0,1-5-.74c-.12,0-.2-.11-.23-.11v0a3.17,3.17,0,0,1-.77-.58c-.22-.58-.38-1.13-.53-1.66a.19.19,0,0,1,0-.07c0-.18-.08-.34-.12-.51-.09-.38-.16-1.8-.23-2.15s0-.36-.07-.55-.07-.4-.1-.6c1.52-1,2.89-3.63,3.82-5A33.2,33.2,0,0,0,98.31,591.68Z"/><path class="cls-14" d="M90.56,588.33a30.47,30.47,0,0,1-2-3.62,3,3,0,0,0,2.43,0c0,.2.06.4.1.6s0,.35.07.55.14,1.77.23,2.15c0,.17.07.33.12.51a.19.19,0,0,0,0,.07c.15.53.31,1.08.53,1.66A12.45,12.45,0,0,1,90.56,588.33Z"/><path class="cls-11" d="M103.52,637.08s.27,8.57,5.27,11.37C108.79,648.45,104.1,641.56,103.52,637.08Z"/><path class="cls-11" d="M112.44,623.18s-1.26,3.05.69,11.61c0,0-.31-17,20.47-24.16C133.6,610.63,120.69,612.28,112.44,623.18Z"/><path class="cls-11" d="M140.75,609.75s-.85,12.4,2.9,21.48c0,0,4.06,3.76.81-3C144.46,628.2,140,616,140.75,609.75Z"/><path class="cls-11" d="M143.6,604.07s2.43,7,3.62,8.43a4.45,4.45,0,0,1-.39,4.15,13.16,13.16,0,0,1-2.39-6.87Z"/><path class="cls-11" d="M154.56,581.26s.94,8-3.95,12.54c0,0-1.46-3.71-.7-6,0,0,2.6-1.57,3-2.8C153,585,154.9,582.91,154.56,581.26Z"/><path class="cls-10" d="M150.3,588.71s.11,1.53.59,1.91a33.21,33.21,0,0,0,1.37-3.9S150.17,587.81,150.3,588.71Z"/><path class="cls-11" d="M163.84,582.06s1.23,12.11,3.47,15A116,116,0,0,0,163.84,582.06Z"/><path class="cls-11" d="M170.57,593.23a43,43,0,0,1,1.08,9.25s4.23-12.65,3.38-17.57A10.9,10.9,0,0,1,170.57,593.23Z"/><path class="cls-11" d="M180,592.13a20.41,20.41,0,0,1-.34,5.9S181.64,600.17,180,592.13Z"/><path class="cls-11" d="M181.51,600.54a17.55,17.55,0,0,1-5.46,7.5s10.43-7.22,12.07-11.77A12.14,12.14,0,0,1,181.51,600.54Z"/><path class="cls-11" d="M98,606.54s-4.08,5.6-2,15.39C95.94,621.93,95.18,612,98,606.54Z"/><path class="cls-11" d="M82,593.9a38.15,38.15,0,0,0,4.27,14s-5.08-14.84.69-21.08C87,586.81,82.68,589.58,82,593.9Z"/><path class="cls-11" d="M95.38,593.66s-2.24,8.83-1.37,11.73C94,605.39,96.82,605.35,95.38,593.66Z"/><path class="cls-11" d="M74.11,586.48s-5.49,10-1.53,17.6c0,0-.11-4.08-.4-6C72.18,598.13,71.42,594.11,74.11,586.48Z"/><path class="cls-11" d="M177.35,610.59c-18.74,3.77-39.7,12.4-39.7,12.4-9.33,6.64-22.72,10.89-34.26,13.54h0A193.22,193.22,0,0,1,80,640.42h0c4.37,12.28,10.69,15.31,10.69,15.31,14.23-.48,34.36-7.19,34.36-7.19,14.08-4.8,35.48-17.35,35.48-17.35a94.2,94.2,0,0,0,6.72-11.12C169.55,615.24,173.94,612.36,177.35,610.59Z"/><path class="cls-11" d="M165.82,613.77s4.37-5.83,5.05-7.53c0,0-.37,8.09-4.39,13.17"/><polyline class="cls-23" points="51.36 527.99 54.74 526.35 58.63 524.91 64.42 526.46 68.58 531.99 67.92 533.38"/><path class="cls-8" d="M90.1,581.49a8,8,0,0,1-6.76-1,62.57,62.57,0,0,1-13.89-15.14,42.33,42.33,0,0,1-9.8-3s-12.44-1.32-13.28-2.76l-1-2.06-.78-1.66L44,554.64l1.1-1,1.15,2.24,1.11,2.16h.06c.75.15,7.87,1.27,14.1-5.89a22.07,22.07,0,0,0,4.19-7.83c.08-.26.15-.53.22-.8l.09-.34a25.68,25.68,0,0,0,.83-6.85,12.93,12.93,0,0,0-1.09-5s-.1-.27-.3-.69c-1-2-4.32-7.27-10.89-3.93,0,0-8.06,3.36-10.1,15l-1.46-.26s3.25-17.29,17.16-17.6c0,0,16.43,6.32,24.32,15.94l6.8,10.08s.29,1.43.65,3.69C93.14,560.84,95,576.78,90.1,581.49Z"/><path class="cls-18" d="M69.45,565.4l.21-2s8.85-.37,11.78-9.17c0,0,1.91,8.82-9.33,11.38l-1.35-.34Z"/><path class="cls-18" d="M59.66,562.38s3.16-.23,5.42-.63c0,0-.12.65-1.44,1.2l-2-.46Z"/><path class="cls-18" d="M92,553.56l-8.41-9s-9.28-9-16.67-8.14a12.93,12.93,0,0,0-1.09-5s-3.2-8.68-11.19-4.62a16.87,16.87,0,0,0-6.87,6.4,1.76,1.76,0,0,0-1.68.29c2.5-4.55,6.86-9.38,14.15-9.54,0,0,16.43,6.32,24.32,15.94l6.8,10.08s.29,1.43.65,3.69Z"/><path class="cls-18" d="M90.41,551.88l2.82,13.18s-.23-11.17-1.9-15.19Z"/><path class="cls-13" d="M42.25,554.39S37.34,545.24,44,534c0,0,3.65-6.3,13-6.58l4.71,2.53.9,12.42-1.46,9.17-6.47,4.27-7.59.89-4.36-1.14Z"/><path class="cls-12" d="M43.11,555.5a8.21,8.21,0,0,0,5.07-.16c3.13-.94,3.27.23,3.27.23l-5.24,1.21-1.89.23"/><path class="cls-13" d="M40.52,547s.49,7.71,2.59,8.53,1.78-2.63,1.78-2.63"/><path class="cls-12" d="M66.89,536.37a25.68,25.68,0,0,1-.83,6.85l-.09.34c-.07.27-.14.54-.22.8a22.07,22.07,0,0,1-4.19,7.83c-6.23,7.16-13.35,6-14.1,5.89H47.4l-2-.51-3-.86c-.55-.42-1.86-2.54-1.77-8.06l1,4a10.81,10.81,0,0,0,1.13,2.43l.35.45s.24.3,1.52.4l.29,0a4.85,4.85,0,0,0,1.37,0l.21,0-1.58,0a16.34,16.34,0,0,0,8.39-3.06,15.82,15.82,0,0,0,4.48-5.09,19.14,19.14,0,0,0,1.15-2.45c1.39-3.58,3.43-10.5.84-15.16A8.72,8.72,0,0,0,58,528a24.21,24.21,0,0,0-9,1.5s4.61-2.76,9.28-2.21l7.2,3.37c.2.42.3.69.3.69A12.93,12.93,0,0,1,66.89,536.37Z"/><path class="cls-3" d="M47.31,544.11c-1.57-2.2-5-2.18-5-2.18v0a2.36,2.36,0,0,0-.75,0c.94.6,3.08,2.48,1.94,6.57a4.63,4.63,0,0,1-3.09,3,4.69,4.69,0,0,0,1.2.28,7.07,7.07,0,0,0,3.09-.73C44.89,551,48.65,548.37,47.31,544.11Z"/><path class="cls-12" d="M35,559.65"/><path class="cls-3" d="M41,542.14c-1.73.63-3.43,2.61-4.18,3.57-.26.34-.4.54-.4.54.08.18.15.34.23.49a15.4,15.4,0,0,0,2,3.49,4.19,4.19,0,0,0,1.64,1.24,4.85,4.85,0,0,0,2.58-2.84C43.93,544.68,42,542.81,41,542.14Z"/><path class="cls-5" d="M57.79,547.77a15.82,15.82,0,0,1-4.48,5.09c-1.93-.54-6.13-1.7-7.89-2.1-.25.13-.49.23-.72.33.19-.12,3.95-2.72,2.62-7a4.2,4.2,0,0,1,.73,1.92Z"/><path class="cls-5" d="M41.56,542a2.38,2.38,0,0,0-.58.16c1,.67,3,2.54,1.85,6.49a4.85,4.85,0,0,1-2.58,2.84l.16.07a4.63,4.63,0,0,0,3.09-3C44.64,544.46,42.5,542.58,41.56,542Z"/><path class="cls-24" d="M37.77,549,40.4,540c.1-.37.87-.48,1.73-.26s1.48.71,1.38,1.08L41.33,550Z"/><ellipse class="cls-25" cx="39.55" cy="549.51" rx="0.79" ry="1.84" transform="translate(-501.92 447.82) rotate(-75.25)"/><ellipse class="cls-25" cx="30.44" cy="584.11" rx="0.13" ry="0.3" transform="translate(-542.16 464.8) rotate(-75.25)"/><path class="cls-24" d="M40.64,550l-7.38,24.59-2.52,9.6-.59-.16,2.13-8.08,6.1-26.58c.07-.27.63-.35,1.26-.19s1.08.52,1,.79l0,0Z"/><path class="cls-3" d="M41,542.14a3.17,3.17,0,0,0-.49-.3h0c-5,.43-4.55,6.4-4.55,6.4.41,3.15,2.88,3.46,2.88,3.46a3.45,3.45,0,0,0,.93-.07,4.26,4.26,0,0,0,.54-.15,4.85,4.85,0,0,0,2.58-2.84C43.93,544.68,42,542.81,41,542.14Z"/><path class="cls-18" d="M92.93,574.45a28.54,28.54,0,0,0,.35-4.14l.77,3.06"/><path class="cls-18" d="M92.27,556.05a29.56,29.56,0,0,1,3.83,10.29s1.88.19.44-4.39l-1.2-2.07S91,554.49,91,552.51"/><path class="cls-13" d="M119.73,548.7l-2,1.57a37,37,0,0,0-5.2,5.5l2.62,1.21a7.4,7.4,0,0,1,2.55-1.59C118.3,553.36,119,551.12,119.73,548.7Z"/><path class="cls-18" d="M136.18,549.26l-7.42-6.55c-2,.82-5.76,3.47-9,6-.74,2.42-1.43,4.66-2,6.69.48-.23,1-.45,1.56-.67l2.76-1.06C128.19,551.44,136.18,549.26,136.18,549.26Z"/><path class="cls-18" d="M137.27,551.17s1.59,4.73,1.72,5.83c0,0,.77,2.94,0,4.34,0,0,1.59.42,1.58-3.4l-1.64-8.82Z"/><path class="cls-18" d="M137.42,568c.29-3.33-.72-12.6-.72-12.6h0l-.27,1.95c-.84,6.13-3.34,5.6-3.34,5.6,1.58-4,4.18-11.73,4.18-11.73l.36.23C138.37,555,137.42,568,137.42,568Z"/><path class="cls-13" d="M114.65,550.1a29.44,29.44,0,0,0-.26,6.17l-3.36-.5s-.44-1.95-1-4.67c-1-5.08-2.29-12.86-1.59-15.73l9.17-2.35S115.38,543.57,114.65,550.1Z"/><path class="cls-26" d="M108.14,552.71c-1-5.08-2.29-12.86-1.59-15.73l9.17-2.35s-2.26,10.54-3,17.08A12.53,12.53,0,0,0,108.14,552.71Z"/><path class="cls-26" d="M117.37,553.12c3.63-2.88,8.55-6.58,11-7.57l7.42,6.55s-9.28,2.55-15.55,4.92A9.81,9.81,0,0,0,117.37,553.12Z"/><path class="cls-5" d="M112.64,556.36l-3.53,1s-.44-2-1-4.67a12.53,12.53,0,0,1,4.59-1A15.18,15.18,0,0,0,112.64,556.36Z"/><path class="cls-5" d="M112.93,556.73s1.9-1.61,4.44-3.61a9.78,9.78,0,0,1,3.06,3.84c-2.81,1-5,2.09-5.63,2.86Z"/><path class="cls-27" d="M116.73,560.8c-.27-3.15-2.7-5.51-5.44-5.27s-4.71,3-4.44,6.13,2.7,5.49,5.43,5.25S117,563.94,116.73,560.8Z"/><path class="cls-28" d="M116.73,560.8c-.27-3.15-2.7-5.51-5.44-5.27l1,11.38C115,566.68,117,563.94,116.73,560.8Z"/><path class="cls-29" d="M115.21,560.93c-.2-2.28-1.89-4-3.78-3.82s-3.26,2.14-3.06,4.41,1.89,4,3.78,3.83S115.41,563.2,115.21,560.93Zm-.53.54a2.91,2.91,0,1,1-3.14-3.18C113.11,558.15,114.51,559.58,114.68,561.47Z"/><ellipse class="cls-30" cx="111.83" cy="561.72" rx="2.86" ry="3.44" transform="translate(-48.15 11.77) rotate(-4.96)"/><path class="cls-31" d="M111.7,563.88a1.18,1.18,0,0,1-1.2-1.14,1.08,1.08,0,1,1,2.11-.25A1.18,1.18,0,0,1,111.7,563.88Z"/></g><path class="cls-32" d="M230.7,559.6c4.93-11-.37-17.75-.37-17.75h0c-1.12-1.41-2.08-5-2.46-6.53-.11-.44-.17-.72-.17-.72a15.41,15.41,0,0,0-1.84-8.13,4.32,4.32,0,0,0-.56-.3c-3.91-1.93-10.37-.1-10.37-.1a25.61,25.61,0,0,1-4.43.23l-.88-.16.33.07a31.33,31.33,0,0,0-4.84-.49c-4-.15-8.16.1-8.16.1l-.47,0c-.69,0-1.37.1-2.06.18a36.41,36.41,0,0,0-1.69-6.48c1.72-.87,3.69-2.33,4.09-4.54,0,0-.27-1.48-2.37-1.5a3,3,0,0,0-1.94-.39,5,5,0,0,0-2.89-.05,27.44,27.44,0,0,0-3.24-4.22c14.76-8,25.39-10.76,25.39-10.76C199.24,463.51,173.54,434,173.54,434a143.8,143.8,0,0,0-16,22.88,73.6,73.6,0,0,0-13.72-6.33h-.05l-.89-.31c.1-.47.2-1,.32-1.55l.75-1.27-.44-.2,4.3-20.52c1.2-5.8,2.39-11.27,3-13.72,0,0,.8-4.12,2.06-9.61.54-2.37,1.17-5,1.85-7.66.39-1.56.79-3.11,1.22-4.64a93.54,93.54,0,0,1,3.6-10.88l7.93-6.49,1.87-1.31c.46-.3,3.32-2.49,3.92-3h0a4.68,4.68,0,0,0,.38-.39s2.65-2.46,2.32-5.29a1.77,1.77,0,0,0-.05-.32,5.64,5.64,0,0,0-1-2.49,6,6,0,0,0-.64-.72v0l-.1-.09c-.07,0-.12-.11-.18-.16l-.42-.31h0c-1.9-1.27-5.25-1.91-11.21,0,0,0-12.86,3.29-15,10.36l-.35,8.56.15,2.7c.11-.24.22-.46.31-.68l-.3.72v0c-.3.67-.66,1.42-1,2.28-.77,1.72-1.66,3.78-2.56,6a99.61,99.61,0,0,0-4.15,12.24,33.14,33.14,0,0,0-1.11,6.72s.85,4-1.5,9.78c0,0-.58,1.43-1.47,3.68-2,5.15-5.7,14.54-7.69,20.47-2.7-.52-5.14-.88-7.1-1.13h0l-.21,0-1.41-.16c.54-1.62.86-2.5.86-2.5a65.57,65.57,0,0,0-14.31-1.12c-1.24,0-2.4.09-3.47.17-.21-.83-.41-1.65-.62-2.46a105.27,105.27,0,0,1,5.08-14.66s-3.16,1.83-7.72,4.62l-.44-1.64c-.31-1.17-.55-2.26-.75-3.23a28.5,28.5,0,0,1-.61-6.48,35.61,35.61,0,0,0-.37-7.65l-.18-1.2c-.22-1.4-.48-2.82-.78-4.25-.36-1.73-.76-3.43-1.18-5.09-.71-2.83-1.47-5.45-2.12-7.57-.27-.9-.52-1.7-.74-2.39v0c-.13-.41-.23-.75-.33-1-.34-1.06-.55-1.67-.55-1.67l-.55-.62.55.62s0-.26.56,1.66l.33,1L92,382.9l-1-8c-1.26-7.28-11.83-12.72-11.83-12.72-6.14-2.82-9.62-2.35-11.59-1.12a5.55,5.55,0,0,0-2.46,3.43c.18,2.48.78,4.72,1.94,6.06h0c.52.6,3.09,3.14,3.51,3.49l1.68,1.53,7,7.44h0a117,117,0,0,1,2.91,16.54q.12.89.21,1.77c.21,1.86.41,3.68.57,5.37.07.61.12,1.21.17,1.77.46,4.77.69,8.18.69,8.18.22,1.7.52,4.83.84,8.52.22,2.62.45,5.53.68,8.4-6.49,4.34-12.87,9-16.5,12.61,0,0,9,60.49,19.11,98.66l-3.43-5.08c-7.89-9.62-24.32-15.94-24.32-15.94-.44,0-.88,0-1.3.08l-.42.06c-.28,0-.56.07-.82.12l-.48.11-.7.16-.48.15c-.21.07-.43.13-.64.21l-.46.18-.59.25-.44.22a5.93,5.93,0,0,0-.56.29,3.38,3.38,0,0,0-.41.24,4.86,4.86,0,0,0-.54.33l-.38.25-.51.37-.35.28-.49.41-.31.27-.48.46-.27.27c-.16.17-.32.33-.47.5s-.16.17-.23.26l-.4.47A13.57,13.57,0,0,0,44,534a26.35,26.35,0,0,0-2.5,5.62c-.57,0-1,.1-1.09.37l-.57,2c-4.36.86-3.93,6.3-3.93,6.3a3.85,3.85,0,0,0,2,3.16l-5.63,24.54L30.15,584h0c0,.07.09.16.26.2s.3,0,.32-.05v0h0l2.52-9.6,6.93-23.08.06,0,.16.07.34.1c.31,3.32,1.22,4.73,1.66,5.06l3,.86,1,2.06c.84,1.44,13.28,2.76,13.28,2.76h0a41.77,41.77,0,0,0,9.79,3,63.13,63.13,0,0,0,13.68,15c-5.61.8-9,6.1-9,6.1-16.35,14.22,1.1,33.92,1.1,33.92,2.29,2.6,2,7.25,2,7.25A57.52,57.52,0,0,0,80,640.42h0c-6.35,2.54-40.67,17.12-42,35.19,0,0-1,11.69,15.31,12.36a255.55,255.55,0,0,0,49.21-8.83,138.24,138.24,0,0,0,13,14.56h0l.11.1c.5.49,1,1,1.54,1.49.94.88,1.93,1.78,2.95,2.69l.09.08h0c17.63,15.67,46.08,32.93,81.07,25.49,0,0,15.54-3.29,26-12.15h0c6-5.07,10.31-12,9.06-21.11,0,0-1.3-6.4-6.52-10.09-7-3.49-6-1.44-6-1.44a13.87,13.87,0,0,1,2.7,2.57,15.55,15.55,0,0,1,2.56,16.4l0,.06c-.1.25-.21.49-.32.75l-.1.17a10.78,10.78,0,0,1-2.44,3.15h0a14.28,14.28,0,0,1-6.25,3.2,17.57,17.57,0,0,1-4.79.91l-.34,0a23.24,23.24,0,0,1-2.48,0,21.81,21.81,0,0,1-2.72-.4,20.06,20.06,0,0,1-9.15-5.33c-2.45-3.73-9-14.57-16.36-33.74l-2.57-7c-.68-1.9-1.36-3.86-2-5.9,0,0-2.58-8.63-5.24-16A94.05,94.05,0,0,1,190.34,628s31.2-14,35.2-29.77c0,0,1.63-10.28-26.78-2.14,0,0-3,.82-7.95,2.3a17.69,17.69,0,0,0-1.29-9.33,8.48,8.48,0,0,1-2.06,8l0,0-.31.31-.12.12-.31.28-.05,0a14,14,0,0,1-4.62,2.55l-.44.14-.07,0a7.26,7.26,0,0,0-1.52-8.41c1.38-8.94-5.41-10.57-5.41-10.57a11.82,11.82,0,0,1,.43,3.83,11,11,0,0,1-2.86,6.42c-.35.36-.7.69-1.06,1l-.13.1-.39.32c-1-3.7-2.93-8.93-6.72-11.17,0-.27,0-.42,0-.42-.15-6.74,5.74-5.63,6.33-5.51-8.5-3.45-13.06,1.24-14.78,3.74-5.38-.85-11.55,2.32-14.39,4a3.19,3.19,0,0,0,.09-.64,6.12,6.12,0,0,0-.19-1.7s0-.38,0-.92a27.52,27.52,0,0,0-.38-4.22,22.57,22.57,0,0,0,4.36-4.08c1.41-1.2,2.73-2.32,3.82-3.23,1.66-1.39,2.77-2.3,2.77-2.3a53,53,0,0,1,7.39-4.64,68.89,68.89,0,0,1,6.75-3,83.32,83.32,0,0,1,12.83-3.76c2.7-.56,5-.9,6.54-1.1s2.43-.26,2.43-.26c4.65.17,6.58-1.14,6.58-1.14a27.24,27.24,0,0,1,5.82-3.12,25.39,25.39,0,0,1,2.52-.82l3.93-.76.23,0a21.09,21.09,0,0,1,7.15.4,3.43,3.43,0,0,1,2.1.87,9.22,9.22,0,0,1,2.13,2.91,26.55,26.55,0,0,1,1.78,4.66c2.76,9.31,3.43,23,3.43,23C223.17,573,230.7,559.6,230.7,559.6ZM89.36,381.45l-.56-.61Zm-1.29-1.37c-.17-.19-.34-.36-.51-.54Q87.82,379.79,88.07,380.08Zm-1.23-1.26-.44-.42Zm-1.46-1.37-.36-.32Zm-2.47-2Zm.15.1.19.14-.07-.05Zm-.88-.61-.05,0,.56.39Zm-.12-.07a1.58,1.58,0,0,0-.24-.15l.24.14Zm-6.47,0a3.73,3.73,0,0,0,0,.47A3.73,3.73,0,0,1,75.59,374.88Zm.37,2.77c0,.12.1.23.15.35h0a6.76,6.76,0,0,1-.5-1.77A6.9,6.9,0,0,0,76,377.65Zm.29.68c0,.09.07.18.12.27h0l.12.21.15.31a10.2,10.2,0,0,1-.54-1.1Zm.42.8A13.76,13.76,0,0,0,78,381.05a13,13,0,0,1-1.36-1.92Zm1.84,2.49a6.22,6.22,0,0,1-.45-.51A6.22,6.22,0,0,0,78.51,381.62Zm4.78-5.9.1.08-.1-.08Zm1.08.86-.4-.33ZM80,373.76a5.52,5.52,0,0,0-1.88-.43A5.52,5.52,0,0,1,80,373.76Zm1.62.8c-.27-.15-.52-.29-.77-.41C81.06,374.27,81.31,374.41,81.58,374.56Zm-.85-.46a7.83,7.83,0,0,0-.75-.33A7.83,7.83,0,0,1,80.73,374.1ZM78,373.33h0Zm-1,.16-.11,0h0Zm.43-.11-.19,0Zm-.85.3h0Zm-1,1.92a4.71,4.71,0,0,0,0,.53A4.71,4.71,0,0,1,75.55,375.6ZM79,382.12l0-.05-.43-.44-.4-.4-.09-.11.49.5h0l.48.48,0,.05ZM228.85,708.24a5.23,5.23,0,0,0-.21-4.37A5.19,5.19,0,0,1,228.85,708.24ZM91,584.68c1.52-1,2.89-3.63,3.82-5a28.3,28.3,0,0,0,.64,4.08h0a28.3,28.3,0,0,1-.64-4.08c-.93,1.36-2.3,4-3.82,5Zm71.16-58.22c2.91-2.47,5.8-4.78,8.64-6.91C167.94,521.68,165.05,524,162.14,526.46Zm22.42-16.06q-1.17.66-2.37,1.38Q183.39,511.06,184.56,510.4Zm-3,1.8-1.87,1.17Zm-2.5,1.57c-1.7,1.1-3.44,2.29-5.2,3.55C175.58,516.06,177.32,514.87,179,513.77Zm-5.49,3.76c-.84.6-1.68,1.22-2.52,1.85C171.85,518.75,172.69,518.13,173.53,517.53Zm-11.39,8.93c-2,1.68-4,3.43-5.95,5.24Q159.18,529,162.14,526.46ZM155.86,532c-.81.74-1.61,1.49-2.42,2.26C154.25,533.49,155.05,532.74,155.86,532Zm-3.07,2.86c-.92.88-1.83,1.76-2.75,2.66.74-.73,1.48-1.44,2.22-2.15ZM97.21,589.31h0c-.25-.62-.53-1.33-.81-2.14h0C96.68,588,97,588.69,97.21,589.31Zm-11.29-7.68a8.21,8.21,0,0,0,3.2.1,11.92,11.92,0,0,0-.57,3,3,3,0,0,0,2.43,0h0a3,3,0,0,1-2.43,0s.17.36.44.9a16.23,16.23,0,0,0-2,1.2c-.08.06-4.12,2.71-4.9,6.85a1.82,1.82,0,0,0,0,.24C79.91,588.66,83.86,583.73,85.92,581.63Z"/><path class="cls-3" d="M89.24,320.22a36.34,36.34,0,0,1,.53,7.64c0,.4,0,.79,0,1.21-.06,1.42-.14,2.86-.28,4.31-.16,1.76-.35,3.5-.58,5.2-.38,2.88-.83,5.58-1.23,7.76-.17.92-.32,1.75-.46,2.46v0c-.09.42-.14.77-.21,1.07-.21,1.09-.35,1.72-.35,1.72a47.54,47.54,0,0,1-6.81,8.3l-3.07-1.69-3.12-.67-.68,0a13.47,13.47,0,0,1,1.78-3.26l.42-.53c.06-.32.11-.63.18-1a117.26,117.26,0,0,0,1-16.76c0-.6,0-1.19,0-1.78,0-1.88,0-3.7,0-5.41,0-.61,0-1.21,0-1.77-.1-4.8-.27-8.2-.27-8.2,0-1.72,0-4.87-.16-8.57,3.16,1,8.22,2.39,13.34,3.48A28.28,28.28,0,0,0,89.24,320.22Z"/><path class="cls-4" d="M143.45,347.66l.94,1.48S144.49,349.39,143.45,347.66Z"/><path class="cls-5" d="M138.29,301.43a115.93,115.93,0,0,1-11.87,6.25c-3.24-6-9.66-18.13-11.48-22.78-2.46-6.3,14.81-9,14.81-9Z"/><path class="cls-3" d="M74.69,354.23l.43-.55s-.38.43-.86,1.1Z"/><path class="cls-6" d="M75.29,352.72h0c-.05.33-.11.66-.17,1C75.18,353.38,75.24,353.05,75.29,352.72Z"/><path class="cls-6" d="M75.12,353.68l-.43.55Z"/><path class="cls-7" d="M72.62,358.47a5.86,5.86,0,0,0,0,3h0s1.48,2.87,6-.58C75.68,358.57,73.63,358.37,72.62,358.47Z"/><path class="cls-5" d="M73.6,357.5h-.68a8.51,8.51,0,0,0-.3,1c1-.1,3.06.1,6,2.39.38-.29.77-.62,1.19-1l-3.07-1.7Z"/><path class="cls-8" d="M74,362.47h0a2.32,2.32,0,0,1-1.41-1h0c-.83-2.82,1.17-6,2.08-7.21l-.43.55c.48-.67.85-1.1.85-1.1.06-.3.12-.63.18-1l-6.14,8.21-1.49,1.72c-.38.39-2.64,3.21-3.09,3.87h0c-1,1.46-1.34,3.76-1.23,6.24a5.6,5.6,0,0,0,2.84,3.13C64.49,369.88,74,362.47,74,362.47Z"/><path class="cls-9" d="M77.58,373.44s9.86-6.63,10.28-14l.11-8-.8-2.6q-.11.58-.21,1.05c-.36,2-.36,1.71-.36,1.71C79.62,361.8,75.84,363,74,362.47h0s-9.54,7.41-7.84,13.43C68.29,376.88,71.81,377,77.58,373.44Z"/><path class="cls-8" d="M72.71,358.11s2.84-.61,6.3,2.42l1.12-1s-3.56-3.15-7-2.62Z"/><polygon class="cls-9" points="73.18 358.06 73.61 356.87 73.14 356.92 72.71 358.11 73.18 358.06"/><path class="cls-5" d="M93.17,279.81c-.1,6.77-3.7,30.61-3.7,30.61-.18,1.2-.29,2.3-.37,3.29-5.12-1.09-10.18-2.52-13.34-3.48-.32-10.37-1-25.09-1-25.09S93.27,273.05,93.17,279.81Z"/><path class="cls-3" d="M158.2,348.78l0,0c-.63-.5-1.37-1.05-2.25-1.63l0,0h0l-.5-.84a92.31,92.31,0,0,1-4.84-10.38c-.6-1.47-1.18-3-1.75-4.47-1-2.57-1.91-5.1-2.73-7.4-1.88-5.3-3.16-9.3-3.16-9.3-.93-2.36-2.74-7.66-4.61-13.28a115.93,115.93,0,0,1-11.87,6.25c1.14,2.13,1.88,3.49,1.88,3.49,3,5.43,2.63,9.54,2.63,9.54a33.08,33.08,0,0,0,1.88,6.54,98.85,98.85,0,0,0,5.54,11.68c1.15,2.12,2.28,4.06,3.24,5.68.48.81.92,1.52,1.3,2.15v0l.39.67c.06.09.12.18.17.27l.24.39h0c.42.24,10.35,6.1,16.78,6.43.83,0,1.41-.27,1.41-1.15C161.89,353.34,161.73,351.62,158.2,348.78Z"/><path class="cls-8" d="M161.21,350.35s-2.81.76-4.49,5l-1.45-.37s1.73-4.43,5-5.53Z"/><path class="cls-4" d="M172,364.75v0Z"/><path class="cls-8" d="M161.67,354.1l0,0a1.37,1.37,0,0,1-1.16.42c-6.43-.33-16.36-6.19-16.78-6.43h0c-.08-.11-.15-.24-.24-.39s-.11-.18-.17-.27l-.39-.63.16,2.7,1.34,8.46c3,6.77,16.13,8.54,16.13,8.54,6.14,1.17,9.39.15,11.13-1.33h0l.38-.35v0h0v0l.16-.18.09-.1v0a4.4,4.4,0,0,0,.55-.8C173.05,358.41,161.67,354.1,161.67,354.1Z"/><path class="cls-9" d="M173.61,360.76c0-2.85-2.92-5-2.92-5a4.46,4.46,0,0,0-.42-.34h0c-.66-.47-3.75-2.31-4.25-2.55l-2-1.09-8.63-5.53.5.84h0l0,0c.88.58,1.62,1.13,2.25,1.63l0,0c3.53,2.84,3.69,4.56,3.69,4.56a1.07,1.07,0,0,1-.25.73l0,0s11.38,4.31,11.17,9.57a5.47,5.47,0,0,0,.76-2.59C173.61,361,173.61,360.87,173.61,360.76Z"/><polygon class="cls-9" points="155.92 353.6 157.37 354 157.59 353.6 156.22 353.16 155.92 353.6"/><path class="cls-10" d="M109.05,292.94A65.67,65.67,0,0,1,95,295.71a64.23,64.23,0,0,1-10.68.14l-9.8-62.59-.36-2.32s7.89-20.7,13.62-9.13c1.19,2.42,2.36,6.23,3.42,11.93,5.07,27.12,13.42,49.68,16.74,56.81C108.63,292.1,109.05,292.94,109.05,292.94Z"/><path class="cls-10" d="M115.22,215.24,97.37,221.5A27.93,27.93,0,0,1,99,225.74c5,16.71,23.53,45,30,53.67,3.77-1.61,17.57-8.36,21.15-15.27C154.29,256,115.22,215.24,115.22,215.24Z"/><path class="cls-10" d="M130,278.53c-6.44-8.71-21.2-37.89-26.18-54.6a29.48,29.48,0,0,0-1.59-4.24c-3.7-7.7-13-1.87-15.87,2.26,1.2,2.42,2.36,6.24,3.42,11.93a251.27,251.27,0,0,0,18.14,56.67c5.13-1.15,15.62-4,24.15-9.25C132.06,281.3,131.28,280.29,130,278.53Z"/><path class="cls-11" d="M95,295.71a64.23,64.23,0,0,1-10.68.14l-9.8-62.59L82,235.31S84.69,274.57,95,295.71Z"/><path class="cls-11" d="M79.27,238.33a32.44,32.44,0,0,0,28.61-3s6.23-9.13,9.52-10.3-10-3.2-10-3.2"/><path class="cls-11" d="M107.91,290.55S95.81,269,90.29,235.92h1.3s5.11,33,17.9,54.26Z"/><path class="cls-11" d="M130.15,278.86a156.17,156.17,0,0,1-23.46-45.78l.87-.91s9.82,28.63,24,46Z"/><path class="cls-12" d="M117.1,201.65,100.91,167l-5.19-5.64-10.32-.7-1.6,2.85,4.69,1.55s-3.09,17.65-5,37.18c4.25,2,12.34,5.1,20.76,4.4,0,0,6.14,11.29-22,11.9-.25,5.15-.35,10.12-.19,14.62a26.9,26.9,0,0,0,8.62,5.13,24.59,24.59,0,0,0,14.47-4.3s1.51-4.22,5.12-5.82c0,0,6.67-3.05,7-6.11S117.1,201.65,117.1,201.65Z"/><path class="cls-13" d="M82.22,218.58c28.15-.61,22-11.9,22-11.9-8.42.7-16.51-2.39-20.76-4.4,1.93-19.53,5-37.18,5-37.18l-4.69-1.55c-1.74,3.11-4.32,7.77-4.71,8.7-.58,1.42-4.65,51.89-4.65,51.89l-.31,3.51,4.17,7.92a31.64,31.64,0,0,0,12.35,2.76A26.9,26.9,0,0,1,82,233.2C81.87,228.7,82,223.73,82.22,218.58Z"/><path class="cls-13" d="M106,232.17s1.58-10.07,5.57-10.36c0,0,1.43,2.47-.78,3.93C110.83,225.74,107.09,228.43,106,232.17Z"/><path class="cls-14" d="M105.12,172.93l.18-.24-.12-.1C105.14,172.8,105.12,172.93,105.12,172.93Z"/><path class="cls-15" d="M104.23,145.43c1,5.51,2.41,13.44,2.38,17.31a86,86,0,0,1-1.43,9.85l.12.1c.87-1.25,4.62-7.55,3.71-22.45-.56-.45-1.05-.88-1.46-1.26A31.45,31.45,0,0,1,104.23,145.43Z"/><path class="cls-14" d="M110.83,172.89a9.81,9.81,0,0,1,2.72.18c1.21-3.68,2.31-9.5,1.92-18-2.38-1.66-4.72-3.36-6.46-4.79.91,14.9-2.84,21.2-3.71,22.45a17.17,17.17,0,0,0,6.74,4,20.35,20.35,0,0,0,.94-2C110.46,173.79,110.83,172.89,110.83,172.89Z"/><path class="cls-14" d="M160.71,172.71a12.61,12.61,0,0,0,3.39.43,15.86,15.86,0,0,1-3.34,0c.54,5,1.12,15.55-2.63,21,5.06,2,11.07,3.57,17,3.17,1.19-3,3-10,.8-22.53-3.43.22-7.55.12-10.44-1.13,0,0-7-1.31,10.21-.14l-.06-.35a26.54,26.54,0,0,1-6.14-2.42s-2.08-1.08-6.67-.37c0,0-.9,0-2.45,0C160.43,170.58,160.56,171.41,160.71,172.71Z"/><path class="cls-14" d="M183.74,196.44a31.06,31.06,0,0,0,4.75-1.05c1.53-.52,8.29-3,9.08-5.92a2,2,0,0,1,3.11-.48s4.55,1.22-11.66,6.24a26.39,26.39,0,0,1,4.43-.28s6.64,1.07,10.29-1.3c.38-3.87-.37-11.85-9-23.28a9.16,9.16,0,0,0-3.22,1.29h0a3.51,3.51,0,0,1-2,1.11,21.34,21.34,0,0,1-7.06,1.22l.05.09S186.65,188.19,183.74,196.44Z"/><path class="cls-14" d="M145.21,187.2a56.42,56.42,0,0,0,5.94,3.67c1.48-3.52,3.23-10.06,2.63-20.8a83.25,83.25,0,0,1-13.18-2.25c.36,4.33.49,10.86-1.17,15.8A32.38,32.38,0,0,1,145.21,187.2Z"/><path class="cls-14" d="M120.7,176.74a7.09,7.09,0,0,0,1.67-.79l-1.3-.07C121,176.18,120.83,176.46,120.7,176.74Z"/><path class="cls-14" d="M122.64,159.88c.32,4.47.35,10.87-1.41,15.6l1.14.47s4.56,1.82,9.69,4.13a51.36,51.36,0,0,0,1.49-14.49,53.42,53.42,0,0,1-7.88-3.75Z"/><path class="cls-15" d="M194.74,170.37c-.43-.57-.87-1.14-1.34-1.72a1.47,1.47,0,0,0-.1-.13,9.32,9.32,0,0,1-1.78,3.14h0A9.16,9.16,0,0,1,194.74,170.37Z"/><path class="cls-15" d="M201.92,169.18a69.39,69.39,0,0,1,5,8.31h0s4.48-7.3-1.69-17.67c0,0-9-12.48-10-19.33,0,0,.92,13.64-.74,23.2C198.07,166.08,201.92,169.18,201.92,169.18Z"/><path class="cls-15" d="M110.83,172.89s-.37.9,2.15,1.75c.19-.47.38-1,.57-1.57A9.81,9.81,0,0,0,110.83,172.89Z"/><path class="cls-15" d="M121.07,175.88l1.3.07-1.14-.47C121.18,175.61,121.13,175.75,121.07,175.88Z"/><path class="cls-15" d="M188.49,195.39l-.32.11.85-.27-.1,0Z"/><path class="cls-15" d="M200.68,189a2,2,0,0,0-3.11.48c-.79,2.94-7.55,5.4-9.08,5.92l.43-.14.1,0C205.23,190.21,200.68,189,200.68,189Z"/><path class="cls-15" d="M165.51,173.66c2.89,1.25,7,1.35,10.44,1.13-.07-.42-.15-.84-.23-1.27C158.54,172.35,165.51,173.66,165.51,173.66Z"/><path class="cls-15" d="M160.71,172.71c0,.14,0,.27,0,.42a15.86,15.86,0,0,0,3.34,0A12.61,12.61,0,0,1,160.71,172.71Z"/><path class="cls-16" d="M113,174.64a20.35,20.35,0,0,1-.94,2,13.49,13.49,0,0,0,2.5.48,14.84,14.84,0,0,0,6.16-.41c.13-.28.26-.56.37-.86A33.55,33.55,0,0,1,113,174.64Z"/><path class="cls-16" d="M121.23,175.48c1.76-4.73,1.73-11.13,1.41-15.6-1.94-1.28-4.57-3-7.17-4.85.39,8.54-.71,14.36-1.92,18A44.17,44.17,0,0,1,121.23,175.48Z"/><path class="cls-17" d="M113,174.64a33.55,33.55,0,0,0,8.09,1.24c.06-.13.11-.27.16-.4a44.17,44.17,0,0,0-7.68-2.41C113.36,173.64,113.17,174.17,113,174.64Z"/><path class="cls-16" d="M139.43,183.62c1.66-4.94,1.53-11.47,1.17-15.8a67.3,67.3,0,0,1-7-2.23,51.36,51.36,0,0,1-1.49,14.49C134.54,181.2,137.14,182.43,139.43,183.62Z"/><path class="cls-16" d="M158.13,194.15c3.75-5.47,3.17-16,2.63-21a3.09,3.09,0,0,1-2.37-1.12,22.47,22.47,0,0,0,2.32.7c-.15-1.3-.28-2.13-.31-2.3-1.59,0-3.87-.09-6.62-.34.6,10.74-1.15,17.28-2.63,20.8A63.37,63.37,0,0,0,158.13,194.15Z"/><path class="cls-17" d="M158.39,172a3.09,3.09,0,0,0,2.37,1.12c0-.15,0-.28,0-.42A22.47,22.47,0,0,1,158.39,172Z"/><path class="cls-17" d="M178.26,173.7a24,24,0,0,1-2.6-.53l.06.35Z"/><path class="cls-16" d="M182.26,174a53.41,53.41,0,0,1-6.31.79c2.16,12.48.39,19.53-.8,22.53l.47,0s4.15-.24,8.12-.85c2.91-8.25-1.21-22.36-1.21-22.36l-.05-.09h-.22Z"/><path class="cls-17" d="M178.26,173.7a24.86,24.86,0,0,0,4,.3Z"/><path class="cls-17" d="M182.26,174h0a24.86,24.86,0,0,1-4-.3l-2.54-.18c.08.43.16.85.23,1.27A53.41,53.41,0,0,0,182.26,174Z"/><path class="cls-16" d="M205.15,185s0-.29.09-.74c-1.74-13.2-7-14.55-10.5-13.89,8.63,11.43,9.38,19.41,9,23.28a4.8,4.8,0,0,0,.52-.36A15.46,15.46,0,0,0,205.15,185Z"/><path class="cls-17" d="M194.74,170.37c3.48-.66,8.76.69,10.5,13.89.19-1.56.73-5.23,1.68-6.77a69.39,69.39,0,0,0-5-8.31s-3.85-3.1-7.39-5.5a27.28,27.28,0,0,1-1.23,4.84,1.47,1.47,0,0,1,.1.13C193.87,169.23,194.31,169.8,194.74,170.37Z"/><path class="cls-5" d="M170.79,203.57h-2.53l-1.52,5.65a6.12,6.12,0,0,0,2,1.29,5,5,0,0,0,4-.09,2.94,2.94,0,0,0,1.88-.61c2.09-.26,2.18-1.76,2.18-1.76C175.92,205.31,172.69,204.07,170.79,203.57Z"/><path class="cls-13" d="M166.47,216.17c-11-4.63-24.34-12.77-37.43-22.94l-13.69-13.48s0-.33-.13-.91l12.45,12.25C140.76,201.26,154.1,209.4,165.1,214c5.41-6.68,6.42-15.14,6.6-18.51l1.41.65S173.4,207.62,166.47,216.17Z"/><path class="cls-8" d="M146.2,181.38,130.87,173,119,157.63v0c-1.78-2.35-6.52-4.79-6.52-4.79l-2.2,3.07c1.48,5,3.74,21.67,3.74,21.67l1.24,1.22h0l12.45,12.25c4.44,3.45,8.91,6.66,13.3,9.58C151.68,190.28,146.2,181.38,146.2,181.38Z"/><path class="cls-18" d="M171.7,195.52c.05-.94,0-1.49,0-1.49l-15.13-7-10.41-5.69s5.48,8.9-5.23,19.29A150.61,150.61,0,0,0,165.1,214C170.51,207.35,171.52,198.89,171.7,195.52Z"/><polygon class="cls-8" points="146.6 58.94 144.82 66.28 75.29 39.95 79.44 35.08 133.48 42.15 146.6 58.94"/><path class="cls-4" d="M113,45.6h0l.16,0Z"/><polygon class="cls-4" points="132.29 54.87 132.28 54.87 132.29 54.87 132.29 54.87"/><path class="cls-4" d="M136.37,57.46c-.56-.38-1.13-.75-1.69-1.11h0c.57.36,1.14.73,1.7,1.11Z"/><path class="cls-4" d="M109.7,44.43l-1-.32h0l1,.32Z"/><path class="cls-4" d="M129.19,53.07l.47.27Z"/><polygon class="cls-4" points="126.58 51.65 126.58 51.65 126.58 51.66 126.58 51.65"/><path class="cls-4" d="M121.87,49.31l-1.44-.66h0c.48.21,1,.44,1.45.67Z"/><path class="cls-4" d="M116.47,47l-.06,0,.06,0Z"/><path class="cls-4" d="M115.11,46.4h0l.11.05Z"/><path class="cls-4" d="M124.08,50.38l-1.5-.73h0l1.5.73Z"/><path class="cls-4" d="M136.78,57.73h0l1.77,1.21Z"/><path class="cls-4" d="M119.73,48.34h0l0,0Z"/><path class="cls-4" d="M107.06,43.57l-.43-.13q-2.26-.7-4.47-1.29,2.2.59,4.47,1.29Z"/><path class="cls-4" d="M138.55,58.94c2.28,1.59,4.54,3.29,6.78,5.13-2.24-1.84-4.5-3.54-6.78-5.13Z"/><path class="cls-4" d="M76.74,38.19l1.47.08Z"/><path class="cls-4" d="M87.94,39.25l.15,0Z"/><path class="cls-4" d="M95.76,40.63l.23,0Z"/><path class="cls-12" d="M96,40.68q3,.63,6.17,1.47Q99,41.31,96,40.68Z"/><path class="cls-12" d="M78.21,38.27c2.81.16,6.08.46,9.73,1C84.29,38.73,81,38.43,78.21,38.27Z"/><path class="cls-12" d="M88.09,39.28c2.41.34,5,.79,7.67,1.35C93.07,40.07,90.5,39.62,88.09,39.28Z"/><path class="cls-12" d="M116.47,47c1.08.44,2.16.9,3.25,1.38C118.63,47.85,117.55,47.39,116.47,47Z"/><path class="cls-12" d="M115.11,46.4l-2-.75,1,.36Z"/><path class="cls-12" d="M116.41,46.92l-1.19-.47,1.09.43Z"/><path class="cls-12" d="M126.3,51.5l.28.15c-.84-.44-1.67-.86-2.5-1.27l.62.3Z"/><path class="cls-12" d="M108.74,44.11l-1.68-.54.34.11Z"/><path class="cls-12" d="M111.91,45.2l1.08.4c-1.1-.41-2.2-.8-3.28-1.17l1.15.4Z"/><path class="cls-12" d="M126.58,51.65c.87.46,1.74.94,2.61,1.42C128.32,52.59,127.45,52.11,126.58,51.65Z"/><path class="cls-12" d="M119.75,48.35l.68.3Z"/><path class="cls-12" d="M121.88,49.32l.7.33Z"/><path class="cls-12" d="M136.37,57.46l.41.27Z"/><path class="cls-12" d="M129.66,53.34c.87.49,1.75,1,2.62,1.53C131.41,54.34,130.53,53.83,129.66,53.34Z"/><path class="cls-12" d="M134.24,56.08l.43.27c-.79-.5-1.58-1-2.38-1.48l.21.13Q133.37,55.53,134.24,56.08Z"/><path class="cls-18" d="M195.69,29.34c.17-9.24-4.93-15.57-11.45-19.92,5.73,7,0,9.59,0,9.59l0,0a11.17,11.17,0,0,1,2.79,2.84l.11.16c.14.25.28.47.4.72l0,.05A15.51,15.51,0,0,1,187,39.38a13.53,13.53,0,0,1-2.38,2.87s-.74,2.15,5.8-2.13C195.14,35.86,195.69,29.34,195.69,29.34Z"/><path class="cls-4" d="M107.06,43.57l-.43-.13-.53-.16.53.16Z"/><path class="cls-4" d="M116.47,47l-.06,0,.06,0Z"/><path class="cls-4" d="M119.73,48.34h0l0,0Z"/><path class="cls-4" d="M115.11,46.4h0l.11.05Z"/><path class="cls-4" d="M108.74,44.11h0l.74.24Z"/><path class="cls-4" d="M124.08,50.38l-1.5-.73h0l1.5.73Z"/><path class="cls-4" d="M121.87,49.31l-1.44-.66h0c.48.21,1,.44,1.45.67Z"/><path class="cls-8" d="M184.24,9.41C172.83,1.83,157,.36,157,.36,119.27-3.17,92,20,76.74,38.19l1.47.08c2.81.16,6.08.46,9.73,1l.15,0c1.2.17,2.45.37,3.73.59s2.6.48,3.94.76l.23,0q3,.63,6.17,1.47c1.29.35,2.61.72,3.94,1.13l.53.16.43.13.34.11,1.34.43h0l.74.24.23.08,1.15.4,1,.37,1.08.4.16,0,1,.36,1,.39h0l.11.05,1.09.43.1,0,.06,0h0c1.08.44,2.16.9,3.25,1.38h0l.68.3h0l1.44.66h0l.7.33h0l1.5.73h0l.57.28C148.82,10.9,170,16.58,170,16.58h0a19.68,19.68,0,0,1,2.46-.33l.34,0a17.66,17.66,0,0,1,4.86.34A14.35,14.35,0,0,1,184.27,19h0S190,16.42,184.24,9.41Z"/><path class="cls-12" d="M137.58,97.81c.23-.55.46-1.22.7-2-.54.39-1.44,1-2.59,1.8Z"/><path class="cls-12" d="M124.64,50.66l-.56-.28-1.5-.73-.7-.33c-.49-.23-1-.46-1.45-.67l-.68-.3,0,0c-1.09-.48-2.17-.94-3.25-1.38l-.06,0-1.19-.47-.11-.05-2-.75-.16,0h0c-1.1-.41-2.2-.8-3.28-1.17h0l-.22-.08-.74-.24-1.68-.54-.43-.13-.53-.16c-1.33-.41-2.65-.78-3.94-1.13Q99,41.31,96,40.68l-.23,0c-1.34-.28-2.66-.53-3.94-.76s-2.53-.42-3.73-.59l-.15,0c-3.65-.52-6.92-.82-9.73-1l-1.47-.08A128.73,128.73,0,0,0,62.4,58.78L98,80.74l3.21,1.34c1.83.75,4.31,1.77,7.11,2.88,1.27-3.67,3-7.87,5.11-12.68A199.38,199.38,0,0,1,124.64,50.66Z"/><path class="cls-12" d="M116.31,46.88l-1.09-.43,1.19.47Z"/><path class="cls-12" d="M114.11,46l-1-.36,2,.75Z"/><path class="cls-12" d="M109.71,44.43l-.23-.08.22.08Z"/><path class="cls-12" d="M107.4,43.68l-.34-.11,1.68.54Z"/><path class="cls-12" d="M102.16,42.15c1.29.35,2.61.72,3.94,1.13C104.77,42.87,103.45,42.5,102.16,42.15Z"/><path class="cls-12" d="M88.09,39.28c1.2.17,2.45.37,3.73.59C90.54,39.65,89.29,39.45,88.09,39.28Z"/><path class="cls-12" d="M113.15,45.65l-.16,0h0Z"/><path class="cls-12" d="M111.91,45.2l-1-.37-1.15-.4c1.08.37,2.18.76,3.28,1.17Z"/><path class="cls-12" d="M124.65,50.66l-.57-.28.56.28Z"/><path class="cls-19" d="M136.78,57.73h0l1.77,1.21Z"/><path class="cls-19" d="M138.55,58.94h0c2.28,1.59,4.54,3.29,6.78,5.13C143.09,62.23,140.83,60.53,138.55,58.94Z"/><polygon class="cls-19" points="132.29 54.87 132.28 54.87 132.29 54.87 132.29 54.87"/><path class="cls-19" d="M136.37,57.46c-.56-.38-1.13-.75-1.69-1.11h0c.57.36,1.14.73,1.7,1.11Z"/><path class="cls-18" d="M124.65,50.66l0,0,1.6.82.28.15h0c.87.46,1.74.94,2.61,1.42l.47.27c.87.49,1.75,1,2.62,1.53h0l.21.13q.87.53,1.74,1.08l.43.27h0c.56.36,1.13.73,1.69,1.11h0l.41.27h0l1.77,1.21h0c2.28,1.59,4.54,3.29,6.78,5.13,5.46-23,11.41-36.11,13.58-40.43a20,20,0,0,1,8.47-6.35,18.4,18.4,0,0,1,2.65-.71h0S148.82,10.9,124.65,50.66Z"/><path class="cls-13" d="M145.33,64.07c-2.24-1.84-4.5-3.54-6.78-5.13l-1.77-1.21-.41-.27c-.56-.38-1.13-.75-1.7-1.11-.79-.5-1.58-1-2.38-1.48h0c-.87-.53-1.75-1-2.62-1.53l-.47-.27c-.87-.48-1.74-1-2.61-1.42h0l-1.94-1a199.38,199.38,0,0,0-11.23,21.62c-2.16,4.81-3.84,9-5.11,12.68,5.84,2.32,13.1,5.08,18.88,6.89a61.66,61.66,0,0,0,5,4.93c.25.2.5.43.73.61l2.81.25c1.15-.77,2.05-1.41,2.59-1.8,2.38-7.5,5.2-23.49,5.2-23.49C144.09,69.45,144.71,66.71,145.33,64.07Z"/><polygon class="cls-19" points="126.58 51.66 126.58 51.65 126.58 51.65 126.58 51.66"/><path class="cls-18" d="M165.1,214l-.61.43C154.74,221,112.69,184,112.69,184l-3.2-24.74.75-3.31c1.48,5,3.74,21.67,3.74,21.67l13.69,13.48C140.76,201.26,154.1,209.4,165.1,214Z"/><path class="cls-8" d="M193.56,223.12C185.12,258.9,163,291.19,163,291.19c-27.75-24.88-54.11-79.14-66.74-107.69-1-2.32-2-4.46-2.79-6.41-3.21-7.45-5-12-5-12s20.12-12.09,21.75-9.16S113.4,179,113.4,179l13.69,13.47C160.55,218.49,193.56,223.12,193.56,223.12Z"/><path class="cls-8" d="M84.29,164.39c-.33-.38-5.76,29.42-5.2,51.89,0,0-3.41,58,18.83,96.15,0,0-29.83-12.95-40.3-21.24,0,0,2.13-67.23,8.38-105.76L63.91,158.2Z"/><path class="cls-33" d="M47.24,97.27S4.17,86.51.35,66.92c0,0-2.37-11.5,13.77-14.06,0,0,37.93-2.24,75.19,8.7,0,0,25.22,6.74,44.59,23.34a93.2,93.2,0,0,0,23.32,11.67s32.6,10.29,38.41,25.48c0,0,2.8,10-26.35,5.24,0,0-47.3-7.26-81-19.06"/><path class="cls-21" d="M62.34,145.25l4.53.55,44.74-.55s11.48,6.3,18.64,2.27c9.26-5.21-12-17.21-12-17.21l-3.93-3.07-13.38-1.5-35.43,1.5"/><path class="cls-3" d="M117.27,120.42c0,4.14-2.1,10.21-3.69,14.24-1,2.47-1.77,4.17-1.77,4.17-6.32,10-24.87,11.35-24.87,11.35-14.13,0-19-7.44-20.3-10.27a8.69,8.69,0,0,1-.43-1.08L58.36,93.44l17.89-3.68,34,11.76S117.27,113.74,117.27,120.42Z"/><path class="cls-5" d="M117.27,120.42c0,4.14-2.1,10.21-3.69,14.24a24.25,24.25,0,0,1-.8-6.29c-1.53-.64-3.49-5.32-3.49-5.32-19.86,1.45-29.67-10-29.67-10C82,121,91,124.75,91,124.75c-22.67-2.48-22.19-20.5-21.88-24,0-.19,0-.34,0-.43a3.25,3.25,0,0,0-.08.43c-5.18,27,6.87,34.56,6.87,34.56a14,14,0,0,1-8.73-4.14,60.34,60.34,0,0,1-.54,8.7,8.69,8.69,0,0,1-.43-1.08L58.36,93.44l17.89-3.68,34,11.76S117.27,113.74,117.27,120.42Z"/><path class="cls-10" d="M160.91,135.34c.87-9.16-9.29-10.49-9.29-10.49a7.26,7.26,0,0,1-.53,8.53c2.4,8.72-4.15,11.12-4.15,11.12a10.43,10.43,0,0,0-5.34-11.12c-.52,3.78-1.87,9.21-5.38,11.87,0,.27,0,.42,0,.42.63,6.71,6.36,4.93,6.93,4.74-10.66,5.84-16.09-3.29-16.09-3.29-14.18-5.89-13.53-21.38-13.53-21.38-1.53-.64-3.49-5.32-3.49-5.32-19.86,1.45-29.67-10-29.67-10,2.4,8,11.34,11.75,11.34,11.75-22.67-2.48-22.19-20.5-21.88-24,0-.25,0-.43,0-.51a4.54,4.54,0,0,0-.09.51c-5.18,27,6.87,34.56,6.87,34.56A14,14,0,0,1,68,128.58c.22,4.14-1.09,13.09-1.09,13.09.44,10.25,7.85,9.16,7.85,9.16C56.83,154.32,53.56,143,53.56,143c-2,7.2,6.55,12.65,6.55,12.65-7.64,2.84-13.53-4.36-13.53-4.36-17.89-12.22-2.84-33.82-2.84-33.82,2-2.84,1.09-7.42,1.09-7.42a57.78,57.78,0,0,1,1.36-13h0c2.92-12.7,9.55-16.41,9.55-16.41,14-.44,34.26,3.7,34.26,3.7,14.61,2.4,37.09,13,37.09,13,5.45,6.28,7.63,9.44,7.63,9.44,2.82,4.55,8,7.22,11.6,8.59a30.09,30.09,0,0,0,3.89,1.23C165.92,120.5,160.91,135.34,160.91,135.34Z"/><path class="cls-4" d="M63.56,151.94c0-.08,0-.15,0-.23h0C63.55,151.79,63.56,151.86,63.56,151.94Z"/><path class="cls-4" d="M63.93,158.24c.07.23.15.44.22.62C64.08,158.68,64,158.47,63.93,158.24Z"/><path class="cls-4" d="M63.31,155.86c.06.22.12.42.18.62C63.43,156.28,63.37,156.08,63.31,155.86Z"/><path class="cls-4" d="M63.57,150.48c0-.18,0-.35,0-.54C63.57,150.13,63.57,150.3,63.57,150.48Z"/><path class="cls-4" d="M63.56,147.77c0-.17,0-.33.06-.51C63.59,147.44,63.58,147.6,63.56,147.77Z"/><path class="cls-4" d="M63,153.8a5.22,5.22,0,0,0,.07.57A5.22,5.22,0,0,1,63,153.8Z"/><path class="cls-4" d="M63.12,154.91c0,.22.08.41.12.6C63.2,155.32,63.15,155.13,63.12,154.91Z"/><path class="cls-16" d="M113.56,149.33c0-.55-.08-.93-.08-.93a6.35,6.35,0,0,0,0-1.7c-.51-3.17-4-2.18-4-2.18a35.9,35.9,0,0,1,.82,10.57,59.61,59.61,0,0,1,3.17-6.69,10.43,10.43,0,0,1-3.24,7.54c0,.56.28,2.41.21,3,1.71-2.16,2.78-3.71,2.78-3.71C114.05,154.06,113.65,150.57,113.56,149.33Z"/><polygon class="cls-15" points="61.13 151.35 61.13 151.35 61.13 151.35 61.13 151.35"/><path class="cls-15" d="M63.55,151.71h0c0-.11,0-.21,0-.32C63.54,151.5,63.55,151.6,63.55,151.71Z"/><path class="cls-17" d="M113.48,148.4a59.61,59.61,0,0,0-3.17,6.69c0,.28,0,.57-.07.85A10.43,10.43,0,0,0,113.48,148.4Z"/><path class="cls-14" d="M81.35,159.23A14,14,0,0,0,72.64,164c2.67,1.43,8.31.56,12.91,1.8C83.23,163.17,81.7,161.57,81.35,159.23Z"/><path class="cls-15" d="M81.15,157.36c-.46.18-.93.38-1.41.59a25.63,25.63,0,0,0-7.1,6.09,14,14,0,0,1,8.71-4.81C81.19,158.1,81.15,157.36,81.15,157.36Z"/><path class="cls-14" d="M86.15,154.91c.08.2.15.42.24.6l-.14,0,.28-.05a5,5,0,0,1,0-.75Z"/><path class="cls-17" d="M86.25,155.55c-.53.16-2.61.8-5.1,1.81,0,0,0,.74.2,1.87a25.78,25.78,0,0,1,6.09-.27,15.37,15.37,0,0,1-.91-3.46Z"/><path class="cls-15" d="M97.92,157.63l-2-1a18,18,0,0,0-9.38-1.11,15.37,15.37,0,0,0,.91,3.46,33.71,33.71,0,0,1,7.29,1.29c2.81,1,4.25.9,5,.48A18.76,18.76,0,0,0,97.92,157.63Z"/><path class="cls-16" d="M97.92,157.63l1,.43a24,24,0,0,0-3-1.45l2,1Z"/><path class="cls-16" d="M102.16,143.87a47.15,47.15,0,0,1-5.94.54c.36,4.82.46,10-.5,12.11l.19.09a24,24,0,0,1,3,1.45c1.69.71,3.06,1.37,4.07,1.88,0-1.59.1-6.8-.17-12.13a4.51,4.51,0,0,1-1-.53S101,145,102.16,143.87Z"/><path class="cls-17" d="M102.16,143.87c-1.18,1.15-.28,3.41-.28,3.41a4.51,4.51,0,0,0,1,.53c-.06-1.35-.16-2.71-.27-4Z"/><path class="cls-17" d="M99.72,160.73a1.64,1.64,0,0,0,.71-1.79c-.82-.44-1.72-.9-2.51-1.31A18.76,18.76,0,0,1,99.72,160.73Z"/><path class="cls-16" d="M103,159.94c0,.32,0,.5,0,.5a20.54,20.54,0,0,0-2.59-1.5,1.64,1.64,0,0,1-.71,1.79,8.64,8.64,0,0,1,1.19,4.72c1.47-1.22,3.21-1.12,4.54-2.51l-.34-1.87S104.38,160.62,103,159.94Z"/><path class="cls-16" d="M99,158.06l-1-.43h0c.79.41,1.69.87,2.51,1.31h0C99.94,158.61,99.45,158.34,99,158.06Z"/><path class="cls-15" d="M70,143.29l1.67-.39-1.88.42Z"/><path class="cls-14" d="M68.49,162.42h0c1.3,1,3.09,1,4.15,1.62,0,0-2-2.5-4.38-5.29C68.42,159.67,68.18,161.52,68.49,162.42Z"/><path class="cls-14" d="M79.69,158a56.17,56.17,0,0,1,.09-16c-1.47-.06-3-.06-4.42,0-1.34.35-2.59.65-3.66.9h0l-1.67.39h0a33,33,0,0,0-2.1,12.32,2.85,2.85,0,0,1,.51.79s4.39,5.85,4.21,7.64a25.63,25.63,0,0,1,7.1-6.09Z"/><path class="cls-15" d="M68.43,156.4a2.85,2.85,0,0,0-.51-.79,22.49,22.49,0,0,0,.34,3.14c2.36,2.79,4.38,5.29,4.38,5.29C72.82,162.25,68.43,156.4,68.43,156.4Z"/><path class="cls-14" d="M64.15,158.86c-.07-.18-.15-.39-.22-.62,0-.05-.42-1.71-.44-1.76s-.12-.4-.18-.62-.05-.23-.07-.35-.09-.38-.12-.6,0-.36-.07-.54a5.22,5.22,0,0,1-.07-.57c0-.23.59-1.61.58-1.86,0-.08,0-.15,0-.23-.8-.79-2.06-.22-2.42-.36.07,1.54,3,7.6,3,7.6v-.09Z"/><path class="cls-15" d="M63.54,151.39v-.29a3,3,0,0,0-2.41.25h0c.36.14,1.62-.43,2.42.36C63.55,151.6,63.54,151.5,63.54,151.39Z"/><polygon class="cls-16" points="71.7 142.9 71.7 142.9 71.69 142.9 71.7 142.9"/><path class="cls-16" d="M69.81,143.32l-1.38.31,1.59-.34Z"/><path class="cls-16" d="M68.43,143.57v.06l0-.06Z"/><path class="cls-16" d="M68.45,143.57l0,.06.12-.08Z"/><path class="cls-16" d="M68.55,143.55l-.12.08,1.38-.31Z"/><path class="cls-16" d="M100.43,158.94h0a20.54,20.54,0,0,1,2.59,1.5s0-.18,0-.5c-1-.51-2.38-1.17-4.07-1.88C99.45,158.34,99.94,158.61,100.43,158.94Z"/><path class="cls-16" d="M81.35,159.23c.35,2.34,1.88,3.94,4.2,6.61h0c1.48.4,2.93.77,4.24,1.1,1.69.42,2.83-.68,3.85-.45-1.31-2.1-4.65-3.31-6.2-7.53A25.78,25.78,0,0,0,81.35,159.23Z"/><polygon class="cls-16" points="85.55 165.84 85.55 165.84 85.55 165.84 85.55 165.84"/><path class="cls-16" d="M83.31,156.3A20.54,20.54,0,0,0,79.74,158c.48-.21,1-.41,1.41-.59h0Z"/><path class="cls-22" d="M86.15,154.91l-2.84,1.39a19.46,19.46,0,0,1,2.94-.75l.14,0C86.3,155.33,86.23,155.11,86.15,154.91Z"/><path class="cls-22" d="M83.31,156.3l-2.16,1.06h0c2.49-1,4.57-1.65,5.1-1.81A19.46,19.46,0,0,0,83.31,156.3Z"/><path class="cls-16" d="M86.15,154.91c-1.13-3.06-.77-8.18-.25-12a25.16,25.16,0,0,0-6.12-.92,56.17,56.17,0,0,0-.09,16l0,0a20.54,20.54,0,0,1,3.57-1.65Z"/><path class="cls-14" d="M110,156.11a5.21,5.21,0,0,1,.27-1,35.9,35.9,0,0,0-.82-10.57s-3.06,4.71-6.63,3.29c.27,5.33.2,10.54.17,12.13,1.35.68,2.08,1.13,2.08,1.13l.34,1.87c.74-.78,1.77-1.37,2.43-2.13.93-1.06,1.84-1,2.57-1.89.07-.57-.26-2.42-.21-3Z"/><path class="cls-15" d="M102.59,143.8c.11,1.3.21,2.66.27,4,3.57,1.42,6.63-3.29,6.63-3.29a16.94,16.94,0,0,0-4.71-1.28A17.86,17.86,0,0,1,102.59,143.8Z"/><path class="cls-15" d="M110.24,155.94c0-.28.05-.57.07-.85a5.21,5.21,0,0,0-.27,1Z"/><path class="cls-16" d="M68.26,158.75c-1.82-2.14-3.23-5.57-4.71-7,0,.08,0,.15,0,.23,0,.25-.6,1.63-.58,1.86a5.22,5.22,0,0,0,.07.57c0,.18,0,.37.07.54s.08.41.12.6,0,.24.07.35.12.42.18.62.42,1.71.44,1.76c.07.23.07.26.14.44l.05.13,0,.14.3.25c.74.62,1.93,1.64,4,3.22h0C68.18,161.52,68.42,159.67,68.26,158.75Z"/><path class="cls-17" d="M63.54,151.39c0,.11,0,.21,0,.32,1.48,1.47,2.89,4.9,4.71,7a22.49,22.49,0,0,1-.34-3.14c-1.08-1.24-2.75-3.68-4.37-4.51C63.55,151.19,63.54,151.3,63.54,151.39Z"/><path class="cls-16" d="M63.24,155.51c0,.12,0,.24.07.35C63.29,155.75,63.26,155.63,63.24,155.51Z"/><path class="cls-16" d="M63.57,150.48l0,.62h0C63.55,150.9,63.56,150.69,63.57,150.48Z"/><path class="cls-16" d="M63.05,154.37c0,.18,0,.37.07.54C63.09,154.74,63.07,154.55,63.05,154.37Z"/><path class="cls-16" d="M64.15,159"/><path class="cls-16" d="M63.49,156.48c0,.05.42,1.71.44,1.76S63.51,156.53,63.49,156.48Z"/><path class="cls-16" d="M63.58,149.94c0-.36-.07-1.79,0-2.17C63.51,148.15,63.61,149.58,63.58,149.94Z"/><path class="cls-16" d="M63.56,151.94c0,.25-.6,1.63-.58,1.86C63,153.57,63.57,152.19,63.56,151.94Z"/><path class="cls-16" d="M63.54,151.1v.29c0-.09,0-.2,0-.29Z"/><path class="cls-14" d="M96.22,144.41l-1.51,0a40.43,40.43,0,0,1-7.41-.95h0a10.47,10.47,0,0,0-1.4-.56c-.52,3.8-.88,8.92.25,12l.33-.16a5,5,0,0,0,0,.75,18,18,0,0,1,9.38,1.11l-.19-.09C96.68,154.44,96.58,149.23,96.22,144.41Z"/><path class="cls-14" d="M100.91,165.45a8.64,8.64,0,0,0-1.19-4.72c-.74.42-2.18.51-5-.48A33.71,33.71,0,0,0,87.44,159c1.55,4.22,4.89,5.43,6.2,7.53a.89.89,0,0,0,.46,0A23.87,23.87,0,0,0,100.91,165.45Z"/><path class="cls-16" d="M63.91,158.2a7.15,7.15,0,0,0,.24.75l.12-.12Z"/><path class="cls-16" d="M70,143.29l-.11,0-.11,0a11.06,11.06,0,0,0-4.92,1.32c-.11.06-.18.13-.21.14h0a3.33,3.33,0,0,0-.7.67c-.14.6-.24,1.17-.33,1.71a.24.24,0,0,1,0,.08c0,.17,0,.33,0,.51-.05.39,0,1.81,0,2.16,0,.2,0,.37,0,.56s0,.4,0,.6c1.62.84,3.29,3.27,4.37,4.52A33,33,0,0,1,70,143.29Z"/><path class="cls-14" d="M62.71,147.51a30,30,0,0,0-1.58,3.84,3,3,0,0,1,2.42-.26c0-.2,0-.4,0-.6s0-.36,0-.56c0-.35-.07-1.77,0-2.16,0-.18,0-.34,0-.51a.24.24,0,0,0,0-.08c.09-.54.19-1.11.33-1.71A12,12,0,0,0,62.71,147.51Z"/><path class="cls-11" d="M69.93,97.59s-.73-8.54,3.91-11.9C73.84,85.69,70,93.08,69.93,97.59Z"/><path class="cls-11" d="M80.4,110.37s-1.61-2.89-.66-11.61c0,0,1.66,16.92,23.12,21.62C102.86,120.38,89.85,120.24,80.4,110.37Z"/><path class="cls-11" d="M110.07,120.42s-2.28-12.21.39-21.66c0,0,3.59-4.21,1.15,2.91C111.61,101.67,108.62,114.3,110.07,120.42Z"/><path class="cls-11" d="M113.56,125.74s1.6-7.2,2.62-8.8a4.45,4.45,0,0,0-.87-4.07,13.11,13.11,0,0,0-1.57,7.1Z"/><path class="cls-11" d="M127.09,147.12s0-8.07-5.38-12c0,0-1,3.86,0,6,0,0,2.76,1.26,3.34,2.43C125.05,143.55,127.24,145.45,127.09,147.12Z"/><path class="cls-10" d="M122,140.21s-.07-1.53.36-2a35,35,0,0,1,1.82,3.71S122,141.13,122,140.21Z"/><path class="cls-11" d="M136.22,145.25S136,133.08,137.93,130A117.33,117.33,0,0,1,136.22,145.25Z"/><path class="cls-11" d="M141.6,133.38a42.75,42.75,0,0,0,0-9.31s5.68,12.07,5.4,17.05A10.87,10.87,0,0,0,141.6,133.38Z"/><path class="cls-11" d="M151.09,133.38a20.48,20.48,0,0,0-1-5.82S151.8,125.2,151.09,133.38Z"/><path class="cls-11" d="M151.62,124.85a17.54,17.54,0,0,0-6.29-6.82s11.2,6,13.35,10.3A12.12,12.12,0,0,0,151.62,124.85Z"/><path class="cls-11" d="M68,128.58s-4.7-5.1-3.81-15.06C64.15,113.52,64.55,123.48,68,128.58Z"/><path class="cls-11" d="M53.56,143a38.1,38.1,0,0,1,2.62-14.39s-3.33,15.33,3.14,20.86C59.32,149.45,54.73,147.19,53.56,143Z"/><path class="cls-11" d="M66.87,141.67s-3.25-8.51-2.72-11.49C64.15,130.18,67,129.88,66.87,141.67Z"/><path class="cls-11" d="M46.58,151.27S40,142,43,134c0,0,.36,4.07.29,6C43.31,139.92,43,144,46.58,151.27Z"/><path class="cls-11" d="M146.32,115.35c-19-1.57-40.87-7.72-40.87-7.72-10-5.51-23.83-8.18-35.59-9.47h0A193.79,193.79,0,0,0,46.19,97h0C49.11,84.29,55,80.55,55,80.55c14.18-1.17,35,3.15,35,3.15,14.54,3.13,37.25,13.13,37.25,13.13a96.81,96.81,0,0,1,8,10.25C138,111.63,142.73,114,146.32,115.35Z"/><path class="cls-11" d="M134.51,113.52s5,5.29,5.89,6.9c0,0-1.31-8-5.89-12.57"/><polyline class="cls-23" points="30.76 212 34.31 213.23 38.34 214.21 43.91 212 47.4 206.03 46.58 204.72"/><path class="cls-8" d="M63,154.37a8,8,0,0,0-6.6,1.74,62.45,62.45,0,0,0-12,16.64A42,42,0,0,0,35,176.88s-12.21,2.75-12.87,4.28l-.72,2.16-.58,1.74-.44,1.32,1.2.83.89-2.36.85-2.27.06,0c.73-.23,7.67-2.17,14.69,4.22a22.08,22.08,0,0,1,5.06,7.29c.11.25.21.51.32.77l.12.33a25.3,25.3,0,0,1,1.62,6.7,12.86,12.86,0,0,1-.49,5.14s-.07.28-.22.73c-.75,2.08-3.45,7.72-10.36,5.16,0,0-8.4-2.4-11.78-13.74l-1.42.43s5.24,16.8,19.09,15.49c0,0,15.59-8.18,22.31-18.65l5.58-10.8s.13-1.45.22-3.74C68.45,174.52,68.45,158.48,63,154.37Z"/><path class="cls-18" d="M44.4,172.75l.44,2s8.83-.65,12.76,7.75c0,0,.87-9-10.58-10.22l-1.31.49Z"/><path class="cls-18" d="M35,176.88s3.16-.14,5.45,0c0,0-.18-.64-1.56-1l-1.93.69Z"/><path class="cls-18" d="M68.13,181.89l-7.3,10s-8.18,10-15.62,10a12.86,12.86,0,0,1-.49,5.14s-2.18,9-10.58,5.89a16.9,16.9,0,0,1-7.57-5.56,1.75,1.75,0,0,1-1.7-.09c3,4.23,7.91,8.52,15.16,7.83,0,0,15.59-8.18,22.31-18.65l5.58-10.8s.13-1.45.22-3.74Z"/><path class="cls-18" d="M66.78,183.74l1.27-13.42s1.07,11.13-.13,15.31Z"/><path class="cls-13" d="M18.65,186.83s-3.81,9.65,4.1,20.07c0,0,4.36,5.84,13.72,5l4.38-3-.54-12.44-2.51-9L30.87,184H23.24L19,185.63Z"/><path class="cls-12" d="M19.38,185.63a8.2,8.2,0,0,1,5.05-.43c3.22.57,3.22-.61,3.22-.61l-5.34-.6H20.4"/><path class="cls-13" d="M17.8,194.4s-.42-7.72,1.58-8.77,2.07,2.4,2.07,2.4"/><path class="cls-12" d="M45.21,201.87a25.3,25.3,0,0,0-1.62-6.7l-.12-.33c-.11-.26-.21-.52-.32-.77a22.08,22.08,0,0,0-5.06-7.29c-7-6.39-14-4.45-14.69-4.22l-.06,0-1.92.74-2.88,1.2c-.5.48-1.55,2.74-.82,8.21l.52-4.07a11,11,0,0,1,.84-2.54l.3-.49s.2-.33,1.46-.57l.28-.06a4.92,4.92,0,0,1,1.37-.15h.21l-1.58.14a16.3,16.3,0,0,1,8.69,2.07,15.68,15.68,0,0,1,5,4.54,17.65,17.65,0,0,1,1.43,2.3c1.79,3.39,4.62,10,2.59,15a8.85,8.85,0,0,1-1.53,2.38,24.36,24.36,0,0,1-9.08-.45s4.9,2.21,9.48,1.12l6.76-4.18c.15-.45.22-.73.22-.73A12.86,12.86,0,0,0,45.21,201.87Z"/><path class="cls-3" d="M24.87,196.46c-1.31,2.36-4.73,2.74-4.73,2.74v0a2.33,2.33,0,0,1-.75.06c.87-.71,2.78-2.82,1.17-6.75a4.63,4.63,0,0,0-3.42-2.61,4.66,4.66,0,0,1,1.16-.42,7.09,7.09,0,0,1,3.16.36C21.67,189.92,25.7,192.07,24.87,196.46Z"/><path class="cls-12" d="M10.88,182.44"/><path class="cls-3" d="M18.81,199.15c-1.79-.43-3.71-2.2-4.57-3.07l-.46-.49c.06-.18.11-.35.17-.51a15.56,15.56,0,0,1,1.57-3.7A4.27,4.27,0,0,1,17,190a4.86,4.86,0,0,1,2.89,2.53C21.44,196.28,19.71,198.37,18.81,199.15Z"/><path class="cls-5" d="M34.85,191.61a15.68,15.68,0,0,0-5-4.54c-1.84.76-5.89,2.4-7.59,3-.26-.1-.51-.18-.75-.25.2.1,4.24,2.25,3.41,6.64a4.18,4.18,0,0,0,.5-2Z"/><path class="cls-5" d="M19.4,199.24a3,3,0,0,1-.59-.09c.9-.78,2.63-2.87,1.08-6.66A4.86,4.86,0,0,0,17,190l.15-.08a4.63,4.63,0,0,1,3.42,2.61C22.18,196.42,20.27,198.53,19.4,199.24Z"/><path class="cls-24" d="M14.83,192.66l3.66,8.71c.14.35.92.38,1.75,0s1.38-.87,1.24-1.23l-3.23-8.87Z"/><ellipse class="cls-25" cx="16.54" cy="191.99" rx="1.84" ry="0.79" transform="translate(-68.95 19.29) rotate(-21.41)"/><ellipse class="cls-25" cx="3.48" cy="158.68" rx="0.3" ry="0.13" transform="translate(-57.69 12.22) rotate(-21.41)"/><path class="cls-24" d="M17.57,191.4,7.39,167.82l-3.62-9.23-.57.22,3.05,7.78,9.14,25.7c.1.26.67.27,1.28,0s1-.64.91-.9c0,0,0,0,0,0Z"/><path class="cls-3" d="M18.81,199.15a4.12,4.12,0,0,1-.45.35l0,0c-5.05.15-5.26-5.83-5.26-5.83,0-3.18,2.46-3.78,2.46-3.78a3.68,3.68,0,0,1,.93,0A3.17,3.17,0,0,1,17,190a4.86,4.86,0,0,1,2.89,2.53C21.44,196.28,19.71,198.37,18.81,199.15Z"/><path class="cls-18" d="M66.67,161a28.32,28.32,0,0,1,.83,4.07l.4-3.12"/><path class="cls-18" d="M68.14,179.39a29.32,29.32,0,0,0,2.61-10.67s1.85-.41,1,4.31l-1,2.19s-3.73,5.87-3.47,7.83"/><path class="cls-13" d="M96.27,183.5l-2.17-1.33a36.64,36.64,0,0,1-5.8-4.86l2.46-1.5a7.52,7.52,0,0,0,2.72,1.28C94.31,179,95.25,181.18,96.27,183.5Z"/><path class="cls-18" d="M112.54,181l-6.61,7.36c-2.13-.57-6.12-2.78-9.66-4.9-1-2.32-2-4.46-2.79-6.41.5.17,1,.33,1.62.49l2.87.73C104.35,179.8,112.54,181,112.54,181Z"/><path class="cls-18" d="M113.41,179s1-4.89,1-6c0,0,.42-3-.52-4.32,0,0,1.53-.6,2,3.2l-.61,9Z"/><path class="cls-18" d="M111.61,162.33c.67,3.28.74,12.6.74,12.6h0l-.49-1.9c-1.55-6-4-5.19-4-5.19,2,3.78,5.52,11.18,5.52,11.18l.33-.27C114.05,175.1,111.61,162.33,111.61,162.33Z"/><path class="cls-13" d="M91.06,182.7c-.5-2.13-1.12-5.33-1-6.1l-3.28.89s-.21,2-.42,4.74c-.4,5.16-.79,13.05.25,15.82L96,199.32S92.54,189.1,91.06,182.7Z"/><path class="cls-26" d="M84.29,180.86c-.39,5.16-.78,13,.25,15.81l9.37,1.27s-3.46-10.21-5-16.62A12.59,12.59,0,0,1,84.29,180.86Z"/><path class="cls-26" d="M93.41,179.39c3.94,2.43,9.26,5.54,11.84,6.23l6.61-7.37s-9.52-1.45-16-3.07A9.82,9.82,0,0,1,93.41,179.39Z"/><path class="cls-5" d="M88.34,176.71l-3.62-.6s-.21,2-.43,4.75a12.59,12.59,0,0,0,4.67.46A15.16,15.16,0,0,1,88.34,176.71Z"/><path class="cls-5" d="M88.58,176.31s2.08,1.38,4.83,3.08a9.89,9.89,0,0,0,2.6-4.17c-2.91-.73-5.25-1.49-5.93-2.19Z"/><path class="cls-27" d="M91.89,171.83c.09,3.16-2,5.78-4.79,5.87s-5-2.41-5.12-5.58,2-5.77,4.78-5.85S91.8,168.68,91.89,171.83Z"/><path class="cls-28" d="M91.89,171.83c.09,3.16-2,5.78-4.79,5.87l-.34-11.43C89.51,166.19,91.8,168.68,91.89,171.83Z"/><path class="cls-29" d="M86.81,167.85c-1.9.05-3.38,2-3.31,4.23s1.66,4.09,3.55,4,3.38-2,3.31-4.23S88.7,167.79,86.81,167.85Zm.21,7.07a3.19,3.19,0,0,1-3-3.35c0-1.9,1.18-3.48,2.76-3.52a3.5,3.5,0,0,1,.2,6.87Z"/><ellipse class="cls-30" cx="86.92" cy="171.48" rx="2.86" ry="3.44" transform="translate(-5.04 2.65) rotate(-1.7)"/><path class="cls-31" d="M86.54,169.35a1.3,1.3,0,0,0,0,2.56,1.3,1.3,0,0,0,0-2.56Z"/><path class="cls-34" d="M205.23,159.81s-9-12.48-10-19.33c0,0,.92,13.64-.74,23.2a27.28,27.28,0,0,1-1.23,4.84,9.32,9.32,0,0,1-1.78,3.14,3.51,3.51,0,0,1-2,1.11,21.34,21.34,0,0,1-7.06,1.22h-.24l-4-.3a24,24,0,0,1-2.6-.53,26.54,26.54,0,0,1-6.14-2.42s-2.08-1.08-6.67-.37c0,0-.9,0-2.45,0s-3.87-.09-6.62-.34a83.25,83.25,0,0,1-13.18-2.25,67.3,67.3,0,0,1-7-2.23,53.42,53.42,0,0,1-7.88-3.75l-3-2c-1.18-.78-2.62-1.74-4.16-2.78a22.74,22.74,0,0,0-4.8-3.54,27.07,27.07,0,0,0-.12-4.23c0-.55-.08-.93-.08-.93a6.35,6.35,0,0,0,0-1.7,4.65,4.65,0,0,0-.16-.62c3,1.36,9.51,3.79,14.76,2.33,2,2.28,7.06,6.41,15.11,2-.57.19-6.3,2-6.93-4.74,0,0,0-.15,0-.42,3.51-2.66,4.86-8.09,5.38-11.87l.44.27.13.09q.59.39,1.17.87a10.9,10.9,0,0,1,3.58,6,11.5,11.5,0,0,1,0,3.85s6.55-2.4,4.15-11.12a7.26,7.26,0,0,0,.53-8.53h.08l.45.08a14.36,14.36,0,0,1,4.88,2l.06,0,.34.24.13.1.34.27,0,0a8.48,8.48,0,0,1,3,7.72,17.58,17.58,0,0,0,.2-9.41c5.11.89,8.17,1.36,8.17,1.36,29.15,4.79,26.35-5.24,26.35-5.24-5.81-15.19-38.41-25.48-38.41-25.48a94.22,94.22,0,0,1-17.09-7.72c1.79-7.63,3.35-16.5,3.35-16.5.44-2.11.89-4.13,1.34-6.1l1.75-7.2c5.09-19.9,10.34-31.42,12.34-35.41a20,20,0,0,1,8.47-6.35,18.4,18.4,0,0,1,2.65-.71,19.68,19.68,0,0,1,2.46-.33l.34,0a17.66,17.66,0,0,1,4.86.34A14.35,14.35,0,0,1,184.27,19h0a11.17,11.17,0,0,1,2.79,2.84l.11.16c.14.25.28.47.4.72l0,.05A15.51,15.51,0,0,1,187,39.38a13.53,13.53,0,0,1-2.38,2.87s-.74,2.15,5.8-2.13c4.75-4.26,5.3-10.78,5.3-10.78.17-9.23-4.92-15.57-11.44-19.91v0C172.83,1.83,157,.36,157,.36,121.39-3,95.14,17.47,79.44,35.08h0l-.08.09c-.91,1-1.78,2-2.62,3-.47.56-.91,1.11-1.36,1.65l-.09.11h0A137.05,137.05,0,0,0,64,55.93a255.51,255.51,0,0,0-49.91-3.07C-2,55.42.35,66.92.35,66.92,3.82,84.7,39.59,95.2,46.19,97h0a57.78,57.78,0,0,0-1.36,13s.88,4.58-1.09,7.42c0,0-15,21.6,2.84,33.82,0,0,4,4.87,9.67,5a63.3,63.3,0,0,0-11.86,16.46A42,42,0,0,0,35,176.88h0s-12.21,2.75-12.87,4.28l-.72,2.16-2.88,1.2c-.39.38-1.13,1.89-1.06,5.22l-.33.14L17,190H17L7.39,167.82l-3.62-9.23h0a0,0,0,0,0,0,0c0-.06-.17-.07-.33,0s-.26.17-.23.23,0,0,0,0h0l3.05,7.78,8.44,23.72a3.88,3.88,0,0,0-1.63,3.38s.21,5.45,4.64,5.8l.79,1.88c.1.26.56.34,1.13.24a25,25,0,0,0,3.13,5.29,13.46,13.46,0,0,0,4.94,3.64l.45.42.26.23c.17.16.35.3.53.45l.3.24.53.39.34.24.53.35.38.23.55.31.41.21c.18.1.38.18.57.27l.43.19.6.22.46.16a6.32,6.32,0,0,0,.62.18l.48.13.66.13c.16,0,.32.07.49.09s.47.06.71.09l.49.05.83,0h.42c.43,0,.86,0,1.3-.07,0,0,15.59-8.18,22.31-18.65L65.16,191c-5.6,39.08-7.55,100.2-7.55,100.2,4,3.19,10.91,7.06,17.86,10.62.11,2.88.21,5.79.29,8.42.11,3.7.18,6.85.16,8.57,0,0,.17,3.4.27,8.2,0,.56,0,1.16,0,1.77,0,1.71,0,3.53,0,5.41,0,.59,0,1.18,0,1.78a117.26,117.26,0,0,1-1,16.76h0l-6.14,8.21-1.5,1.72c-.37.39-2.63,3.21-3.08,3.87h0c-1,1.46-1.34,3.76-1.23,6.24a5.6,5.6,0,0,0,2.85,3.13c2.09,1,5.61,1.05,11.38-2.46,0,0,9.86-6.63,10.28-14l.11-8-.8-2.6q-.11.58-.21,1.05c-.36,2-.36,1.71-.36,1.71l-.47.68.47-.68s.14-.63.35-1.72c.07-.3.12-.65.21-1.07v0c.14-.71.29-1.54.46-2.46.4-2.18.85-4.88,1.23-7.76.23-1.7.42-3.44.58-5.2.14-1.45.22-2.89.28-4.31,0-.42,0-.81,0-1.21a36.34,36.34,0,0,0-.53-7.64,28.28,28.28,0,0,1-.14-6.51c.08-1,.19-2.09.37-3.29,0,0,.09-.62.25-1.69,4.84,2.24,8.2,3.7,8.2,3.7a106.47,106.47,0,0,1-6.75-14c.11-.83.23-1.67.34-2.52,1.07-.05,2.23-.12,3.46-.23a65.67,65.67,0,0,0,14.08-2.77s-.42-.84-1.14-2.39l1.39-.32.19-.05h0c1.92-.46,4.3-1.1,6.92-1.94,2.66,5.66,7.38,14.56,10,19.44,1.14,2.13,1.88,3.49,1.88,3.49,3,5.43,2.63,9.54,2.63,9.54a33.08,33.08,0,0,0,1.88,6.54,98.85,98.85,0,0,0,5.54,11.68c1.15,2.12,2.28,4.06,3.24,5.68.48.81.92,1.52,1.3,2.15v0l.39.67-.39-.63.16,2.7,1.34,8.46c3,6.77,16.13,8.54,16.13,8.54,6.14,1.17,9.39.15,11.13-1.33h0l.38-.35.16-.18.09-.1v0a4.4,4.4,0,0,0,.55-.8,5.47,5.47,0,0,0,.76-2.59c0-.11,0-.21,0-.32,0-2.85-2.92-5-2.92-5a4.46,4.46,0,0,0-.42-.34h0c-.66-.47-3.75-2.31-4.25-2.55l-2-1.09-8.63-5.53a92.31,92.31,0,0,1-4.84-10.38c-.6-1.47-1.18-3-1.75-4.47-1-2.57-1.91-5.1-2.73-7.4-1.88-5.3-3.16-9.3-3.16-9.3-.93-2.36-2.74-7.66-4.61-13.28l-6.64-19.88c.13-.09.27-.16.41-.25l-.89-1.17-.5-1.51.85-.4,0,0h0a73.2,73.2,0,0,0,12.9-7.87A144.69,144.69,0,0,0,163,291.19s22.11-32.29,30.55-68.07c0,0-10.88-1.53-26.47-7.75a26.7,26.7,0,0,0,2.73-4.56,5,5,0,0,0,2.87-.39,2.94,2.94,0,0,0,1.88-.61c2.09-.26,2.18-1.76,2.18-1.76-.65-2.15-2.78-3.37-4.59-4a36.63,36.63,0,0,0,.93-6.64c.69,0,1.38,0,2.06-.05l.47,0s4.15-.24,8.12-.85a31.06,31.06,0,0,0,4.75-1.05l-.32.11.85-.27a26.39,26.39,0,0,1,4.43-.28s6.64,1.07,10.29-1.3a4.8,4.8,0,0,0,.52-.36,15.46,15.46,0,0,0,.89-8.29s0-.29.09-.74c.19-1.56.73-5.23,1.68-6.77h0S211.4,170.18,205.23,159.81ZM186.47,16.71a5.23,5.23,0,0,0-.31-4.33A5.23,5.23,0,0,1,186.47,16.71ZM63.54,151.1a3,3,0,0,0-2.41.25,12,12,0,0,0,.91,2.9,8,8,0,0,0-3.17.46c-2.29-1.85-6.79-6.29-5.31-11.73l.08.22c1.25,4,5.58,6.2,5.67,6.24a13.78,13.78,0,0,0,2.15,1c-.21.57-.33.95-.33.95a3,3,0,0,1,2.41-.26Zm9,207.59c0,.15-.06.29-.08.43C72.52,359,72.55,358.84,72.58,358.69Zm.08-.33c0-.08,0-.17,0-.25h0Zm.06-.27a3.21,3.21,0,0,1,.12-.33h0Zm.22-.6h0Zm1.09,5h0l.11,0Zm-.87-5.55h0a14.25,14.25,0,0,1,1.12-2.06A13.8,13.8,0,0,0,73.16,356.92Zm2-3.23-.42.53h0l-.43.55.08-.11.34-.44.38-.49.05-.06v0Zm.11,8.83a5.15,5.15,0,0,0,.84-.21A4.29,4.29,0,0,1,75.23,362.52Zm3.56-1.81.22-.18h0Zm.28-.23.05,0,.47-.41C79.41,360.19,79.24,360.35,79.07,360.48Zm.72-.63h0Zm.13-.12.11-.1.07-.06Zm.21-.19h0l.09-.09Z"/><path class="cls-35" d="M205,159.81s-9-12.48-10-19.33c0,0,.92,13.64-.74,23.2a27.28,27.28,0,0,1-1.23,4.84,9.15,9.15,0,0,1-1.78,3.14,3.48,3.48,0,0,1-2,1.11,21.34,21.34,0,0,1-7.06,1.22H182l-4-.3a24.5,24.5,0,0,1-2.6-.53,26.54,26.54,0,0,1-6.14-2.42s-2.07-1.08-6.67-.37c0,0-.9,0-2.44,0s-3.88-.09-6.63-.34a83.33,83.33,0,0,1-13.17-2.25,67.46,67.46,0,0,1-7.06-2.23,53.42,53.42,0,0,1-7.88-3.75l-3-2c-1.19-.78-2.63-1.74-4.16-2.78a23,23,0,0,0-4.81-3.54,28.57,28.57,0,0,0-.11-4.23c0-.55-.09-.93-.09-.93a6,6,0,0,0,0-1.7,3.5,3.5,0,0,0-.16-.62c3,1.36,9.51,3.79,14.76,2.33,2,2.28,7.07,6.41,15.12,2-.57.19-6.3,2-6.93-4.74,0,0,0-.15,0-.42,3.51-2.66,4.86-8.09,5.38-11.87l.43.27.13.09a13.1,13.1,0,0,1,1.17.87,11,11,0,0,1,3.59,6,12,12,0,0,1,0,3.85s6.55-2.4,4.15-11.12a7.26,7.26,0,0,0,.53-8.53h.07l.45.08a14.47,14.47,0,0,1,4.89,2l.05,0,.34.24.14.1.34.27,0,0a8.48,8.48,0,0,1,3,7.72,17.63,17.63,0,0,0,.19-9.41c5.11.89,8.17,1.36,8.17,1.36,29.16,4.79,26.35-5.24,26.35-5.24C189.59,106.86,157,96.57,157,96.57a93.76,93.76,0,0,1-17.08-7.72c1.78-7.63,3.34-16.5,3.34-16.5.44-2.11.89-4.13,1.35-6.1l1.75-7.2c5.09-19.9,10.33-31.42,12.33-35.41a20,20,0,0,1,8.47-6.35,18.51,18.51,0,0,1,2.66-.71,19.29,19.29,0,0,1,2.45-.33l.34,0a17.76,17.76,0,0,1,4.87.34A14.35,14.35,0,0,1,184,19h0a11.17,11.17,0,0,1,2.79,2.84l.11.16c.15.25.28.47.41.72l0,.05a15.48,15.48,0,0,1-.64,16.58,13.72,13.72,0,0,1-2.37,2.87s-.75,2.15,5.79-2.13c4.75-4.26,5.31-10.78,5.31-10.78.17-9.23-4.93-15.57-11.45-19.91v0c-11.41-7.58-27.23-9-27.23-9C121.16-3,94.91,17.47,79.21,35.08h0l-.08.09c-.91,1-1.78,2-2.61,3l-1.37,1.65-.09.11h0a138.32,138.32,0,0,0-11.26,16,255.42,255.42,0,0,0-49.9-3.07C-2.25,55.42.12,66.92.12,66.92,3.59,84.7,39.36,95.2,46,97h0a57.78,57.78,0,0,0-1.36,13s.88,4.58-1.09,7.42c0,0-15.05,21.6,2.84,33.82,0,0,4,4.87,9.66,5a63.12,63.12,0,0,0-11.85,16.46,42,42,0,0,0-9.38,4.13h0s-12.21,2.75-12.87,4.28l-.72,2.16-2.88,1.2c-.4.38-1.14,1.89-1.07,5.22l-.32.14-.15.08h-.06L7.16,167.82l-3.62-9.23h0a0,0,0,0,0,0,0c0-.06-.17-.07-.33,0s-.26.17-.23.23,0,0,0,0H3L6,166.59l8.43,23.72a3.87,3.87,0,0,0-1.62,3.38s.2,5.45,4.63,5.8l.79,1.88c.1.26.56.34,1.13.24a25.85,25.85,0,0,0,3.13,5.29,13.57,13.57,0,0,0,4.94,3.64l.45.42.26.23.53.45.3.24.53.39.34.24c.18.12.35.24.54.35l.37.23.55.31.41.21.57.27.44.19.59.22.46.16a6.32,6.32,0,0,0,.62.18l.48.13.66.13c.16,0,.32.07.49.09s.48.06.72.09l.48.05.83,0h.42c.43,0,.86,0,1.31-.07,0,0,15.59-8.18,22.31-18.65L64.93,191c-5.6,39.08-7.54,100.2-7.54,100.2,4,3.19,10.9,7.06,17.85,10.62.11,2.88.21,5.79.29,8.42.12,3.7.18,6.85.16,8.57,0,0,.17,3.4.27,8.2,0,.56,0,1.16,0,1.77,0,1.71.05,3.53.06,5.41V336a117.11,117.11,0,0,1-1,16.76h0l-6.14,8.21-1.49,1.72c-.38.39-2.63,3.21-3.09,3.87h0c-1,1.46-1.34,3.76-1.22,6.24A5.56,5.56,0,0,0,66,375.9c2.09,1,5.61,1.05,11.38-2.46,0,0,9.86-6.63,10.28-14l.11-8L87,348.8l-.21,1.05c-.37,2-.36,1.71-.36,1.71l-.48.68c.16-.22.31-.44.47-.68,0,0,.14-.63.36-1.72.06-.3.12-.65.2-1.07l0,0c.13-.71.29-1.54.45-2.46.4-2.18.85-4.88,1.23-7.76.23-1.7.42-3.44.58-5.2.14-1.45.23-2.89.28-4.31,0-.42,0-.81.05-1.21a36.34,36.34,0,0,0-.53-7.64,29,29,0,0,1-.14-6.51c.08-1,.19-2.09.37-3.29,0,0,.09-.62.25-1.69,4.85,2.24,8.2,3.7,8.2,3.7a106.47,106.47,0,0,1-6.75-14c.12-.83.23-1.67.34-2.52,1.07-.05,2.23-.12,3.47-.23a65.67,65.67,0,0,0,14.08-2.77s-.42-.84-1.14-2.39l1.38-.32.2-.05h0c1.92-.46,4.3-1.1,6.92-1.94,2.66,5.66,7.39,14.56,10,19.44,1.14,2.13,1.88,3.49,1.88,3.49,3,5.43,2.63,9.54,2.63,9.54a33.08,33.08,0,0,0,1.88,6.54,98.85,98.85,0,0,0,5.54,11.68c1.15,2.12,2.28,4.06,3.24,5.68.48.81.92,1.52,1.3,2.15v0l.39.67-.39-.63.16,2.7,1.34,8.46c3,6.77,16.13,8.54,16.13,8.54,6.14,1.17,9.39.15,11.13-1.33h0l.38-.35.16-.18.09-.1v0a5.83,5.83,0,0,0,1.31-3.39c0-.11,0-.21,0-.32,0-2.85-2.92-5-2.92-5a4.46,4.46,0,0,0-.42-.34h0c-.66-.47-3.75-2.31-4.25-2.55l-2-1.09-8.63-5.53a92.31,92.31,0,0,1-4.84-10.38c-.6-1.47-1.18-3-1.75-4.47-1-2.57-1.91-5.1-2.73-7.4-1.88-5.3-3.16-9.3-3.16-9.3-.93-2.36-2.74-7.66-4.61-13.28l-6.65-19.88c.13-.09.27-.16.41-.25l-.89-1.17-.5-1.51.85-.4.05,0h0a73.57,73.57,0,0,0,12.9-7.87,143.51,143.51,0,0,0,18.55,20.87s22.11-32.29,30.55-68.07c0,0-10.89-1.53-26.47-7.75a27.29,27.29,0,0,0,2.72-4.56,5,5,0,0,0,2.87-.39,2.94,2.94,0,0,0,1.88-.61c2.09-.26,2.18-1.76,2.18-1.76-.65-2.15-2.78-3.37-4.58-4a37.33,37.33,0,0,0,.92-6.64c.69,0,1.38,0,2.07-.05l.47,0s4.14-.24,8.11-.85a31.06,31.06,0,0,0,4.75-1.05l-.31.11.84-.27a26.39,26.39,0,0,1,4.43-.28s6.64,1.07,10.29-1.3a4.8,4.8,0,0,0,.52-.36,15.34,15.34,0,0,0,.89-8.29s0-.29.09-.74c.19-1.56.73-5.23,1.68-6.77h0S211.17,170.18,205,159.81ZM186.24,16.71a5.21,5.21,0,0,0-.31-4.32A5.21,5.21,0,0,1,186.24,16.71ZM63.32,151.1a3,3,0,0,0-2.42.25,12.5,12.5,0,0,0,.91,2.9,8,8,0,0,0-3.17.46c-2.29-1.85-6.79-6.29-5.3-11.73,0,0,0,.08.07.22,1.25,4,5.58,6.2,5.67,6.24a14.67,14.67,0,0,0,2.15,1c-.21.57-.33.95-.33.95a3,3,0,0,1,2.42-.26Zm9,207.59c0,.15-.06.29-.08.43C72.29,359,72.32,358.84,72.35,358.69Zm.08-.33a2.27,2.27,0,0,1,.06-.25h0A2.41,2.41,0,0,0,72.43,358.36Zm.06-.27.12-.33h0Zm.22-.6h0Zm1.09,5h0l.12,0Zm-.86-5.55h0A13.32,13.32,0,0,1,74,354.86,12.94,12.94,0,0,0,72.94,356.92Zm2-3.23-.42.53h0l-.43.55.08-.11.35-.44.38-.49,0-.06v0Zm.11,8.83a5.15,5.15,0,0,0,.84-.21A4.29,4.29,0,0,1,75,362.52Zm3.56-1.81.22-.18h0Zm.28-.23.06,0,.46-.41C79.19,360.19,79,360.35,78.84,360.48Zm.72-.63h0Zm.14-.12.1-.1.07-.06Zm.2-.19h0l.1-.09Z"/></g></g></svg>