<svg xmlns="http://www.w3.org/2000/svg" xmlns:xlink="http://www.w3.org/1999/xlink" viewBox="0 0 1027 1172"><defs><style>.cls-1{isolation:isolate;}.cls-2{opacity:0.3;}.cls-3{fill:#d66d34;}.cls-4{fill:#e27b39;}.cls-5{fill:#ec8c3a;}.cls-6{fill:url(#linear-gradient);}.cls-7{fill:url(#linear-gradient-2);}.cls-8{fill:url(#linear-gradient-3);}.cls-9{fill:url(#linear-gradient-4);}.cls-10{fill:url(#linear-gradient-5);}.cls-11{fill:url(#linear-gradient-6);}.cls-12{fill:url(#linear-gradient-7);}.cls-13{fill:url(#linear-gradient-8);}.cls-14{fill:url(#linear-gradient-9);}.cls-15{fill:url(#linear-gradient-10);}.cls-16{fill:url(#linear-gradient-11);}.cls-17{fill:url(#linear-gradient-12);}.cls-18{fill:url(#linear-gradient-13);}.cls-19{opacity:0.7;}.cls-20{fill:url(#linear-gradient-14);}.cls-21{fill:url(#linear-gradient-15);}.cls-22{fill:url(#linear-gradient-16);}.cls-23{opacity:0.6;}.cls-24{fill:#b78f6a;}.cls-25{fill:#d5b392;}.cls-26{fill:#f6d7b3;}.cls-27{fill:url(#linear-gradient-18);}.cls-28{fill:url(#linear-gradient-19);}.cls-29{fill:url(#linear-gradient-20);}.cls-30{fill:url(#linear-gradient-21);}.cls-31{fill:url(#linear-gradient-22);}.cls-32{fill:url(#linear-gradient-23);}.cls-33{fill:url(#linear-gradient-24);}.cls-34{fill:url(#linear-gradient-25);}.cls-35{fill:url(#linear-gradient-26);}.cls-36{fill:url(#linear-gradient-27);}.cls-37{fill:url(#linear-gradient-28);}.cls-38{mix-blend-mode:overlay;}.cls-39{fill:url(#linear-gradient-29);}.cls-40{fill:url(#linear-gradient-30);}.cls-41{fill:url(#linear-gradient-31);}.cls-42{fill:url(#linear-gradient-32);}.cls-43{fill:url(#linear-gradient-33);}.cls-44{fill:url(#linear-gradient-34);}.cls-45{fill:url(#linear-gradient-35);}.cls-46{fill:url(#linear-gradient-36);}.cls-47{fill:url(#linear-gradient-37);}.cls-48{fill:url(#linear-gradient-38);}.cls-49{fill:url(#linear-gradient-39);}</style><linearGradient id="linear-gradient" x1="369.87" y1="653.33" x2="355.89" y2="874.23" gradientUnits="userSpaceOnUse"><stop offset="0" stop-color="#332f2f" stop-opacity="0"/><stop offset="1" stop-color="#2f2f3f"/></linearGradient><linearGradient id="linear-gradient-2" x1="494.63" y1="661.23" x2="480.64" y2="882.12" xlink:href="#linear-gradient"/><linearGradient id="linear-gradient-3" x1="569.15" y1="665.95" x2="555.17" y2="886.84" xlink:href="#linear-gradient"/><linearGradient id="linear-gradient-4" x1="512.86" y1="662.38" x2="498.88" y2="883.28" xlink:href="#linear-gradient"/><linearGradient id="linear-gradient-5" x1="293.55" y1="648.5" x2="279.57" y2="869.4" xlink:href="#linear-gradient"/><linearGradient id="linear-gradient-6" x1="277.78" y1="647.51" x2="263.8" y2="868.4" xlink:href="#linear-gradient"/><linearGradient id="linear-gradient-7" x1="404.94" y1="655.55" x2="390.96" y2="876.45" xlink:href="#linear-gradient"/><linearGradient id="linear-gradient-8" x1="619.81" y1="669.15" x2="605.83" y2="890.05" xlink:href="#linear-gradient"/><linearGradient id="linear-gradient-9" x1="658.99" y1="671.63" x2="645.01" y2="892.53" xlink:href="#linear-gradient"/><linearGradient id="linear-gradient-10" x1="724.74" y1="675.79" x2="710.76" y2="896.69" xlink:href="#linear-gradient"/><linearGradient id="linear-gradient-11" x1="748.89" y1="677.32" x2="734.91" y2="898.22" xlink:href="#linear-gradient"/><linearGradient id="linear-gradient-12" x1="-5190.08" y1="2926.05" x2="-5043.31" y2="3017.95" gradientTransform="matrix(1, 0, 0, 0, -0.16, 0)" gradientUnits="userSpaceOnUse"><stop offset="0" stop-color="#332f2f" stop-opacity="0"/><stop offset="1" stop-color="#2f2f3f" stop-opacity="0.6"/></linearGradient><linearGradient id="linear-gradient-13" x1="-4986.58" y1="4436.3" x2="-4839.81" y2="4528.2" xlink:href="#linear-gradient-12"/><linearGradient id="linear-gradient-14" x1="507.25" y1="581.51" x2="498.53" y2="778.75" gradientUnits="userSpaceOnUse"><stop offset="0" stop-color="#916c3f"/><stop offset="1" stop-color="#f2d3af"/></linearGradient><linearGradient id="linear-gradient-15" x1="507.25" y1="581.51" x2="498.53" y2="778.75" xlink:href="#linear-gradient-14"/><linearGradient id="linear-gradient-16" x1="507.26" y1="581.51" x2="498.53" y2="778.75" xlink:href="#linear-gradient-14"/><linearGradient id="linear-gradient-18" x1="245.61" y1="330.05" x2="1593.33" y2="380.38" gradientTransform="matrix(1, 0, 0, 1, 0, 0)" xlink:href="#linear-gradient-12"/><linearGradient id="linear-gradient-19" x1="245.22" y1="340.47" x2="1592.94" y2="390.8" gradientTransform="matrix(1, 0, 0, 1, 0, 0)" xlink:href="#linear-gradient-12"/><linearGradient id="linear-gradient-20" x1="245.7" y1="327.51" x2="1593.43" y2="377.84" gradientTransform="matrix(1, 0, 0, 1, 0, 0)" xlink:href="#linear-gradient-12"/><linearGradient id="linear-gradient-21" x1="238.56" y1="518.77" x2="1586.29" y2="569.1" gradientTransform="matrix(1, 0, 0, 1, 0, 0)" xlink:href="#linear-gradient-12"/><linearGradient id="linear-gradient-22" x1="236.58" y1="571.74" x2="1584.31" y2="622.07" gradientTransform="matrix(1, 0, 0, 1, 0, 0)" xlink:href="#linear-gradient-12"/><linearGradient id="linear-gradient-23" x1="242.87" y1="403.19" x2="1590.6" y2="453.52" gradientTransform="matrix(1, 0, 0, 1, 0, 0)" xlink:href="#linear-gradient-12"/><linearGradient id="linear-gradient-24" x1="243.31" y1="391.39" x2="1591.04" y2="441.72" gradientTransform="matrix(1, 0, 0, 1, 0, 0)" xlink:href="#linear-gradient-12"/><linearGradient id="linear-gradient-25" x1="244.62" y1="356.32" x2="1592.35" y2="406.65" gradientTransform="matrix(1, 0, 0, 1, 0, 0)" xlink:href="#linear-gradient-12"/><linearGradient id="linear-gradient-26" x1="242.55" y1="411.84" x2="1590.28" y2="462.17" gradientTransform="matrix(1, 0, 0, 1, 0, 0)" xlink:href="#linear-gradient-12"/><linearGradient id="linear-gradient-27" x1="242.44" y1="414.78" x2="1590.17" y2="465.11" gradientTransform="matrix(1, 0, 0, 1, 0, 0)" xlink:href="#linear-gradient-12"/><linearGradient id="linear-gradient-28" x1="237.82" y1="538.64" x2="1585.54" y2="588.97" gradientTransform="matrix(1, 0, 0, 1, 0, 0)" xlink:href="#linear-gradient-12"/><linearGradient id="linear-gradient-29" x1="351.46" y1="397.59" x2="440.94" y2="828.19" gradientUnits="userSpaceOnUse"><stop offset="0" stop-color="#455b6b" stop-opacity="0"/><stop offset="1" stop-color="#455b6b"/></linearGradient><linearGradient id="linear-gradient-30" x1="469.01" y1="373.16" x2="558.49" y2="803.76" xlink:href="#linear-gradient-29"/><linearGradient id="linear-gradient-31" x1="541.85" y1="358.03" x2="631.33" y2="788.63" xlink:href="#linear-gradient-29"/><linearGradient id="linear-gradient-32" x1="466.87" y1="373.61" x2="556.35" y2="804.21" xlink:href="#linear-gradient-29"/><linearGradient id="linear-gradient-33" x1="244.44" y1="419.83" x2="333.91" y2="850.43" xlink:href="#linear-gradient-29"/><linearGradient id="linear-gradient-34" x1="253.62" y1="417.92" x2="343.1" y2="848.52" xlink:href="#linear-gradient-29"/><linearGradient id="linear-gradient-35" x1="376.03" y1="392.48" x2="465.5" y2="823.09" xlink:href="#linear-gradient-29"/><linearGradient id="linear-gradient-36" x1="585.56" y1="348.94" x2="675.04" y2="779.55" xlink:href="#linear-gradient-29"/><linearGradient id="linear-gradient-37" x1="616.62" y1="342.49" x2="706.09" y2="773.09" xlink:href="#linear-gradient-29"/><linearGradient id="linear-gradient-38" x1="677.72" y1="329.79" x2="767.2" y2="760.4" xlink:href="#linear-gradient-29"/><linearGradient id="linear-gradient-39" x1="684.92" y1="328.3" x2="774.39" y2="758.9" xlink:href="#linear-gradient-29"/></defs><g class="cls-1"><g id="Layer_1" data-name="Layer 1"><g class="cls-2"><path class="cls-3" d="M359.07,998.22a12.83,12.83,0,0,1-7.52,1c-6.66-2.4-5.64,6.54-5.64,6.54h0c.37,3.41,0,9.86-7.66,10.26,0,0-6.89-2.73-4.27-16.8,0,0,11.35-24.66,23.46-28.26,0,0,5.78-2.18,5.56,13.2C363,984.14,363.65,995.27,359.07,998.22Z" transform="translate(-0.16 -0.05)"/><path class="cls-4" d="M492.32,972.15c-3.5,4.25-6.23,12.88-6.23,12.88-.29,4.48-2.51,5.81-2.51,5.81s-6.28,4.09-6.74-9.56c0,0,1.47-5.35-2.66-2.54,0,0-7.18,10.74-16.31,10.54,0,0-3.2-1.72-.67-8.33a7.32,7.32,0,0,1,.42-1l0-.08v0a8.27,8.27,0,0,1,2-2.59A41.44,41.44,0,0,1,475.34,965s2.83-1.85,4,5.14c0,0-.24,3,2.94,2.12a21.7,21.7,0,0,1,2.68-2.35h0l.16-.1.22-.16c5.25-3.65,7.62-.85,7.62-.85C493.09,971.2,492.56,971.94,492.32,972.15Z" transform="translate(-0.16 -0.05)"/><path class="cls-4" d="M479.54,971.34s.91,2.75,5.44-1.41l-.71,5.23-1.16,1.09h-5.24" transform="translate(-0.16 -0.05)"/><path class="cls-4" d="M485.94,986.34s4.22-12.7,4.81-13.58-5.77,3.82-5.77,3.82l-3.55,2.92" transform="translate(-0.16 -0.05)"/><path class="cls-5" d="M551.84,1005.85c-8.73-.87-7.64-10.47-7.64-10.47a6.73,6.73,0,0,1,1-2.42,11.27,11.27,0,0,0-1-7.93s-3.49-6.67-3.05-13.65c6.76-2.18,14.83,20,14.83,20C559.25,1004.68,551.84,1005.85,551.84,1005.85Z" transform="translate(-0.16 -0.05)"/><path class="cls-3" d="M707.4,801.55c4.36,5.15,0,11.43,0,11.43-21.16,12.87-33.52-3.49-33.52-3.49-10.62-13.53-18.41-5.67-18.41-5.67-3.27,8.94,5,15.92,5,15.92,10.26,10.48,3,20.73,3,20.73C649.28,848,638,828,638,828c-17.67-12.71-26.18,4.13-26.18,4.13a16.85,16.85,0,0,0,7.63,20.35c14.18,4.37,16.58,15.49,16.58,15.49,1.53,12.88-9.6,17.46-9.6,17.46C607.69,891.53,598.76,875,598.76,875c-12.42-8.88-28.22,1.06-28.22,1.06-12.28,9.84-4.3,23.09-4.3,23.09,5.89,14.6-4.59,17.3-4.59,17.3-18.54,1.57-19.2-15.76-19.2-15.76-1.74-15.71-15.92-17.45-15.92-17.45-15.71-2-17.89,8.29-17.89,8.29-.88,6.54-4.39,7.62-4.39,7.62-18.58,8.4-32.49,0-32.49,0-8.72-8.09-2.52-14.34-2.52-14.34,7.3-8.46.78-15.1.78-15.1-3.69-6.31-13.52-2.17-13.52-2.17h0c-9.38,9-26.25,6.68-26.25,6.68s-9.79-3-19.17-1.17h0c-12.33,2.9-11.61,9.31-11.61,9.31a60.2,60.2,0,0,1,0,8.73s.93,7.31-13.17,6.57c0,0-17.52-2.42-14.46-24.24,0,0,.87-4.58,8.29-9.6,0,0,9.6-17.4-2.84-22.66,0,0-18.59-4.63-30.13,11.85,0,0-11.87,20-23.05,23,0,0-7.32,3.67-11-3.63l0-.08c-3.34-5.86-7.9.52-7.9.52a5,5,0,0,1-5.67,3.19c-5.56-.85-5.32-5.24-5.32-5.24-.36-1.55-.09-4.58,7.1-5.33,0,0,7.06,2.13,9.5-6.67.24-7.92,3.33-20,18.77-25.74,0,0,8.89-9.19-7.4-14.43,0,0-11.34-2.64-9.3-13.24,0,0,0-10.3,14.11-7.54,0,0,17.56.73,24.87-16.16,0,0,3.49-24-15.42-26.24,0,0-14.35,0-15.71-13,0,0-1.06-3.5,3.4-4.66,0,0,1.79,0,5.45,6.23,0,0,2.2,3.66,5.69,3.37,0,0,3.92-3.47-3.27-12.35,0,0-14.71-19.72,1-38.9,0,0,13-8.49,24.2,0,0,0,3.11,8.09,15.62,8.72,0,0,12.79.93,13.52,19.84,0,0-3.06,16.68,9,17.5,0,0,16.92,1.12,15.66-17.79,0,0-.72-5.75-6.16-12.88,0,0-6.51-12.85,6.16-18.58,0,0,9.64-5.36,19.27,0,0,0,6.4,8.48,13.74,4.4,0,0,9.72-8.46,4.22-19,0,0,.79-15.72,18.83-18.59,0,0,21.77-3.09,32.56,27.13,0,0,8.45,21,28.24,20.06l-4.78,12.71c17.59-24.87,20.44-37.76,20.48-43.44a24.76,24.76,0,0,1-.58-3.72c1.07-25.54,27-25.2,27-25.2,19.75.87,21.69,17.58,21.69,17.58-2.27,5.33,2.2,9.43,2.2,9.43,4.66,10.73-.29,12.58-.29,12.58-9,10.22-.94,18-.94,18,15.05,10.57,22.25-.74,22.25-.74,2-4.58,9-8.49,9-8.49,18-7.5,31,3.25,31,3.25,2.32,5.74-3.4,9.38-3.4,9.38-8.2,1.53-11.44,8.9-11.44,8.9-5,17.62,6.8,24.7,6.8,24.7,8,3.34,12.18-3,12.18-3a31.27,31.27,0,0,1,11-12.93c12.77-7.64,18.88,1.31,18.88,1.31,4.36,13.3-11.09,22.25-11.09,22.25-10.21,18.55,6.94,26,6.94,26,5.89,2.68,2.72,13.88,2.72,13.88C687.76,796.57,707.4,801.55,707.4,801.55Z" transform="translate(-0.16 -0.05)"/><path class="cls-5" d="M387,846.14s-4.8-7.41,2.18-12.65c0,0,6-2.18,8.87,3.49,0,0,3.78,7.56-1.16,11.64C396.93,848.62,390.38,851.09,387,846.14Z" transform="translate(-0.16 -0.05)"/><path class="cls-4" d="M527.84,866.07s29.84,13.67,44.44-4.94a21.65,21.65,0,0,0,1.55-13.39s-2.5-21.47,18.77-19.75c0,0,30.16,2.88,30.16-19.52,0,0-2.86-3.78,2.85-6.11,0,0,16.46-2.08,16.17-18.79,0,0-2.52-7.34-5.69-10.71,0,0-7.3-7.58,1.59-12.31,0,0,11.11-14.3-2.86-26.39,0,0-7.52-6.57-23.81-3.48,0,0-14.29-1.34-10.48-20.83,0,0,2.86-25.77-29.2-19.87,0,0-26,3.58-30.79,28S527.84,866.07,527.84,866.07Z" transform="translate(-0.16 -0.05)"/><path class="cls-4" d="M491.47,859.38C488,880,468,875.67,468,875.67c-8.69-2.33-7.95-11-7.95-11,3.79-8.68-2.87-10.55-3.33-10.67a19.92,19.92,0,0,0-7.76,3.1s-7.2,3.49-11-2c0,0-2.74-11.28-15.47-5.78,0,0-25.25.25-27.14-23,0,0-.43-10.37-8-14.2,0,0-15.29-6.17-24,12.45,0,0-4.22,11.1-18.18,8.61,0,0-8.73-7-1.46-18.85a40.79,40.79,0,0,1,13.47-8.82s24,.77,29.14-21.07c0,0-2.3-14.18-16.93-13.79,0,0-16.5-3.94-15.92-20.15,0,0-.37-10.75,9.88-11.31,0,0,7.71-2.83,16.72,11.31,0,0,3.56,8.62,12.4,7.16,0,0,10.42-2.95,10.07-17.47,0,0-3.4-21.8,22.12-20.35,0,0,27.17,21,47.44,4.66L491.47,812l-1.24,23.14,3.83,1.09S495,838.73,491.47,859.38Z" transform="translate(-0.16 -0.05)"/><path class="cls-3" d="M297,767.51s-31,3.43-29.54-21.58c0,0,7.57-11.64,25.9-3.2a23.16,23.16,0,0,1,12.79,15.12S308.81,765.52,297,767.51Z" transform="translate(-0.16 -0.05)"/><path class="cls-3" d="M273.58,943.76s-7.2,1.64-10.16-16.47a25.13,25.13,0,0,1-.8-6.53s-9.69,13.09-20.17,19.2c0,0-9.59-.19,0-23.51,0,0,6-10.66,25-14.08,0,0,1.8.36,3.54,3.56a5,5,0,0,0,5.82,1.89s7-7.57,4.37,6.76C281.15,914.58,285.22,935.05,273.58,943.76Z" transform="translate(-0.16 -0.05)"/><path class="cls-3" d="M390.82,943.8s-3.46,1.36-4.32-3.19h0l0-.12c0-.1,0-.22-.05-.33A18.7,18.7,0,0,0,384,933.7c-.4-.61-.86-1.25-1.39-1.94l-.11-.14c-.26-.34-.53-.68-.83-1,0,0-5.45-8.94,2.4-13.31,0,0,7.86-3,11.35,14C395.4,931.24,396.49,940,390.82,943.8Z" transform="translate(-0.16 -0.05)"/><path class="cls-4" d="M499.91,870.91s21.67,1.56,19.85,23.67c0,0,2.51,8.77-9.87,16.58,0,0-21,5.24-21,25.6,0,0-.87,9.92,9.9,10.92,0,0,9.6-.15,8.72-10.92,0,0-3.09-14.54,7.33-17.74,0,0,28.16-3.49,13-26.48,0,0-9.31-19.2,1.45-23.27l-37.53-24.43-9.94,6.1v4.66" transform="translate(-0.16 -0.05)"/><path class="cls-5" d="M631.69,836.25s-7.85,19.06-34.33-5.67c0,0-20.24-17.74-39.21-.29,0,0-7.62,4.07-2.68,21a.66.66,0,0,1,0,.09c1.28,6.1-4.53,7.32-4.53,7.32s-3.28-.14-6.8,5.39c0,0-10.36,12.5-24.4,2.9,0,0-7.34-6.69-14.91-3.49,0,0-6.47,3.49-1.2,11.35,0,0,6.36,7,0,13.67,0,0-9.85,3.78-19.74-14.25,0,0,4.3-14-8.32-14.84,0,0-8.84-.58-8-14,0,0,3.42-12.69-7.62-17.43a30.44,30.44,0,0,0-27,6.37s-21.69,9.89-30.48-9.89c0,0-3-18.48,14.19-23.27,0,0,20.15,1.42,20.58-15A19.26,19.26,0,0,0,427,773a17.66,17.66,0,0,0-2.4-1s-13.75-6.57-9.09-24c0,0,4.52-20,24.8-19.76,0,0,15.34,2.44,19.27-14.94,0,0,1.21-19.52,21.17-23,0,0,11.58-3.14,30,10.36,0,0,13.79,11.11,31.07-2.62,0,0,10-7.1,28.08-3,15.09,6.69,10.71,23,10.71,23s-4.06,6,2.38,8.33c0,0,5.3,2.66,6,7.41v0s1.6,3.87-1.9,8.5a9.85,9.85,0,0,1-1.6,1.82h0a12.47,12.47,0,0,1-6.32,2.79s-16,5.84-9.32,20.63A13.83,13.83,0,0,0,583.07,777s7.6-.18,11.09-6.48c0,0,3.05-4.55,8.51-4.26,0,0,8.06,3.79,2.29,22.41,0,0-4.1,20.35,16.26,29.66C621.22,818.36,635.18,821.85,631.69,836.25Z" transform="translate(-0.16 -0.05)"/><path class="cls-4" d="M583.69,986.34s-13.09-8-7.85-21.53c0,0,6.84-5.43,4.29-13.72,0,0-3.2-15.05-17.82-17.67,0,0,.87-6.11,20.07-1.75,0,0,10.47-.84,12,12.13a7.72,7.72,0,0,0,3.26,5.57,10,10,0,0,0,6.56,1.28s5.89-.48,9.6-3c0,0,15.05-7.06,24.87,4.28,0,0,7.42,11.48,0,19.27,0,0-8.29,5.82-17.67-3.78,0,0-12.65-13.28-22.69-4.78a11.92,11.92,0,0,0-.44,10s2,9.88-6.32,13.69C591.55,986.34,585.48,987.66,583.69,986.34Z" transform="translate(-0.16 -0.05)"/><path class="cls-3" d="M642,906.58s-5.92-2.79-3.3-8.92c0,0,2.4-4.61,6.44-2.86,0,0,6.53,1.9,5.78,7.42C650.89,902.22,647.67,907,642,906.58Z" transform="translate(-0.16 -0.05)"/><path class="cls-3" d="M758,911.16s-5.46,10.26-20.73.88c0,0-8.17-5.68-16.12-6.38h0c-10.66.16-9.67,12.7-9.67,12.7s-1,12.66-11.08,14.18c0,0-11.56.44-16.8-24.65,0,0,1.31-20.07-11.35-33.38,0,0-8.83-5.32-8.34-12.15,0,0,3.54-6,19.25-.94,0,0,11.78,6.76,14.62,11.56,0,0,8.07,10,14.4,5.24,0,0,3.93-3.28,0-9.38,0,0-1.31-4.15,3.93-7.2,0,0,8.73-2.62,11.56,10.47,0,0,7.86,15.27,19.86,21.16C747.55,893.27,763.25,901.34,758,911.16Z" transform="translate(-0.16 -0.05)"/><path class="cls-4" d="M755.56,746c-10.32.44-9.54,13.09-9.54,13.09-1.09,9.6-8.29,10.47-8.29,10.47-3.71,0-10.91,1-10.91,1-10.26,1.86-7.64,14.94-7.64,14.94,3.49,9.6,12,8.07,12,8.07A18.71,18.71,0,0,0,746.58,780s4.9-9.68,12.95-13.1a14.1,14.1,0,0,0,1.74-.62l.07,0h0a9.8,9.8,0,0,0,5.64-6.17C769.4,743.86,755.56,746,755.56,746Zm-3.73,23a10.49,10.49,0,0,1,1.85-1Z" transform="translate(-0.16 -0.05)"/></g><path class="cls-6" d="M357.44,970.94C345.33,974.54,334,999.2,334,999.2c-2.62,14.07,4.27,16.8,4.27,16.8,7.71-.4,8-6.85,7.66-10.26h0s-1-8.94,5.64-6.54a12.83,12.83,0,0,0,7.52-1c4.58-3,3.93-14.08,3.93-14.08C363.22,968.76,357.44,970.94,357.44,970.94Z" transform="translate(-0.16 -0.05)"/><path class="cls-7" d="M485.36,969.67l-.22.16-.16.1h0l-.05.05c-.53.39-1,.81-1.46,1.19-2.75,2-3.67.7-3.88.29l0-.12h0a3.11,3.11,0,0,1-.18-1.17c-1.19-7-4-5.14-4-5.14a41.44,41.44,0,0,0-15.67,12.25,8.27,8.27,0,0,0-2,2.59v0l0,.08a7.32,7.32,0,0,0-.42,1c-2.53,6.61.67,8.33.67,8.33,9.13.2,16.31-10.54,16.31-10.54,4.13-2.81,2.66,2.54,2.66,2.54.46,13.65,6.74,9.56,6.74,9.56s1.77-1.07,2.36-4.51h0s1.31-3.94,2.57-7.57a30,30,0,0,1,3.81-6.62c.24-.21.77-.95.66-3.33C493,968.82,490.61,966,485.36,969.67Z" transform="translate(-0.16 -0.05)"/><path class="cls-8" d="M541.15,971.38c-.44,7,3.05,13.65,3.05,13.65a11.27,11.27,0,0,1,1,7.93,6.73,6.73,0,0,0-1,2.42s-1.09,9.6,7.64,10.47c0,0,7.41-1.17,4.14-14.44C556,991.41,547.91,969.2,541.15,971.38Z" transform="translate(-0.16 -0.05)"/><path class="cls-9" d="M660.49,819.74s-8.29-7-5-15.92c0,0,7.79-7.86,18.41,5.67,0,0,12.36,16.36,33.52,3.49,0,0,4.36-6.28,0-11.43,0,0-19.64-5-20-12.16,0,0,3.17-11.2-2.72-13.88,0,0-17.15-7.47-6.94-26,0,0,15.45-9,11.09-22.25,0,0-6.11-9-18.88-1.31a31.27,31.27,0,0,0-11,12.93s-4.19,6.33-12.18,3c0,0-11.82-7.08-6.8-24.7,0,0,3.24-7.37,11.44-8.9,0,0,5.72-3.64,3.4-9.38,0,0-13-10.75-31-3.25,0,0-7,3.91-9,8.49,0,0-4.65,7.3-14.3,4.68.08-3.29-.49-13.32-9.9-17.65a19.38,19.38,0,0,1,2.89-4.24s4.95-1.85.29-12.58c0,0-4.47-4.1-2.2-9.43,0,0-1.94-16.71-21.69-17.58,0,0-26-.34-27,25.2a24.76,24.76,0,0,0,.58,3.72c0,4.23-1.62,12.46-9.69,26.66a23.44,23.44,0,0,1-23-2.23c-1.3-.95-2.57-1.81-3.8-2.61a39.82,39.82,0,0,1-7.43-11.15C488.81,656.68,467,659.77,467,659.77c-18,2.87-18.83,18.59-18.83,18.59,5.5,10.52-4.22,19-4.22,19-7.34,4.08-13.74-4.4-13.74-4.4-9.63-5.36-19.27,0-19.27,0-12.67,5.73-6.16,18.58-6.16,18.58a33.7,33.7,0,0,1,5.67,10.75c-9.89,5.5-8,17.82-8,17.82,0,.27,0,.53,0,.8a17.87,17.87,0,0,1-7.2,1.3c-12.08-.82-9-17.5-9-17.5-.73-18.91-13.52-19.84-13.52-19.84-12.51-.63-15.62-8.72-15.62-8.72-11.25-8.49-24.2,0-24.2,0-15.69,19.18-1,38.9-1,38.9,7.19,8.88,3.27,12.35,3.27,12.35-3.49.29-5.69-3.37-5.69-3.37-3.66-6.27-5.45-6.23-5.45-6.23-4.46,1.16-3.4,4.66-3.4,4.66,1.36,13,15.71,13,15.71,13,18.91,2.28,15.42,26.24,15.42,26.24C344.53,798.6,327,797.87,327,797.87c-14.11-2.76-14.11,7.54-14.11,7.54-2,10.6,9.3,13.24,9.3,13.24,16.29,5.24,7.4,14.43,7.4,14.43-15.44,5.72-18.53,17.82-18.77,25.74-2.44,8.8-9.5,6.67-9.5,6.67-7.19.75-7.46,3.78-7.1,5.33,0,0-.24,4.39,5.32,5.24a5,5,0,0,0,5.67-3.19s4.56-6.38,7.9-.52l0,.08c3.67,7.3,11,3.63,11,3.63,11.18-3,23.05-23,23.05-23,11.54-16.48,30.13-11.85,30.13-11.85,12.44,5.26,2.84,22.66,2.84,22.66-7.42,5-8.29,9.6-8.29,9.6-3.06,21.82,14.46,24.24,14.46,24.24,14.1.74,13.17-6.57,13.17-6.57a60.2,60.2,0,0,0,0-8.73s-.72-6.41,11.61-9.31h0c9.38-1.81,19.17,1.17,19.17,1.17s16.87,2.32,26.25-6.68h0a19.33,19.33,0,0,1,3.57-1,10.24,10.24,0,0,0,7.88,9.16,22.35,22.35,0,0,0,4.73.38c.15,2.46-.6,5.47-3.44,8.76,0,0-6.2,6.25,2.52,14.34,0,0,13.91,8.4,32.49,0,0,0,3.51-1.08,4.39-7.62,0,0,1.36-6.39,9.66-8.11a23.89,23.89,0,0,1,1.46,11.16s2.51,8.77-9.87,16.58c0,0-21,5.24-21,25.6,0,0-.88,9.92,9.89,10.92,0,0,9.6-.15,8.72-10.92,0,0-3.09-14.54,7.33-17.74,0,0,28.16-3.49,13-26.48a45.67,45.67,0,0,1-3.19-9.48c.61,0,1.23.09,1.88.18,0,0,14.18,1.74,15.92,17.45,0,0,.66,17.33,19.2,15.76,0,0,10.48-2.7,4.59-17.3,0,0-8-13.25,4.3-23.09,0,0,15.8-9.94,28.22-1.06,0,0,8.93,16.53,27.69,10.42,0,0,11.13-4.58,9.6-17.46,0,0-2.4-11.12-16.58-15.49,0,0-7.09-3.69-8.38-11.81,15.57,7.79,20.6-4.41,20.6-4.41,1.39-5.72,0-9.72-2.14-12.46A25.62,25.62,0,0,1,638,828s11.26,20,25.46,12.48C663.48,840.47,670.75,830.22,660.49,819.74Z" transform="translate(-0.16 -0.05)"/><path class="cls-10" d="M306.16,757.85a23.16,23.16,0,0,0-12.79-15.12c-18.33-8.44-25.9,3.2-25.9,3.2C266,770.94,297,767.51,297,767.51,308.81,765.52,306.16,757.85,306.16,757.85Z" transform="translate(-0.16 -0.05)"/><path class="cls-11" d="M276.78,907.82a5,5,0,0,1-5.82-1.89c-1.74-3.2-3.54-3.56-3.54-3.56-19,3.42-25,14.08-25,14.08-9.59,23.32,0,23.51,0,23.51,10.48-6.11,20.17-19.2,20.17-19.2a25.13,25.13,0,0,0,.8,6.53c3,18.11,10.16,16.47,10.16,16.47,11.64-8.71,7.57-29.18,7.57-29.18C283.76,900.25,276.78,907.82,276.78,907.82Z" transform="translate(-0.16 -0.05)"/><path class="cls-12" d="M384.05,917.27c-7.85,4.37-2.4,13.31-2.4,13.31.3.36.57.7.83,1l.11.14c.53.69,1,1.33,1.39,1.94a18.7,18.7,0,0,1,2.45,6.46c0,.11,0,.23.05.33l0,.12h0c.86,4.55,4.32,3.19,4.32,3.19,5.67-3.8,4.58-12.56,4.58-12.56C391.91,914.22,384.05,917.27,384.05,917.27Z" transform="translate(-0.16 -0.05)"/><path class="cls-13" d="M613.8,947.68c-3.71,2.49-9.6,3-9.6,3a10,10,0,0,1-6.56-1.28,7.72,7.72,0,0,1-3.26-5.57c-1.52-13-12-12.13-12-12.13-19.2-4.36-20.07,1.75-20.07,1.75,14.62,2.62,17.82,17.67,17.82,17.67,2.55,8.29-4.29,13.72-4.29,13.72-5.24,13.5,7.85,21.53,7.85,21.53,1.79,1.32,7.86,0,7.86,0,8.29-3.81,6.32-13.69,6.32-13.69a11.92,11.92,0,0,1,.44-10c10-8.5,22.69,4.78,22.69,4.78,9.38,9.6,17.67,3.78,17.67,3.78,7.42-7.79,0-19.27,0-19.27C628.86,940.62,613.8,947.68,613.8,947.68Z" transform="translate(-0.16 -0.05)"/><path class="cls-14" d="M645.11,894.8c-4-1.75-6.44,2.86-6.44,2.86-2.62,6.13,3.3,8.92,3.3,8.92,5.7.44,8.92-4.36,8.92-4.36C651.64,896.7,645.11,894.8,645.11,894.8Z" transform="translate(-0.16 -0.05)"/><path class="cls-15" d="M747.55,893.27c-12-5.89-19.86-21.16-19.86-21.16-2.83-13.09-11.56-10.47-11.56-10.47-5.24,3.05-3.93,7.2-3.93,7.2,3.93,6.1,0,9.38,0,9.38-6.33,4.8-14.4-5.24-14.4-5.24-2.84-4.8-14.62-11.56-14.62-11.56-15.71-5.1-19.25.94-19.25.94-.49,6.83,8.34,12.15,8.34,12.15,12.66,13.31,11.35,33.38,11.35,33.38,5.24,25.09,16.8,24.65,16.8,24.65,10-1.52,11.08-14.18,11.08-14.18s-1-12.54,9.67-12.7c8,.7,16.12,6.38,16.12,6.38,15.27,9.38,20.73-.88,20.73-.88C763.25,901.34,747.55,893.27,747.55,893.27Z" transform="translate(-0.16 -0.05)"/><path class="cls-16" d="M755.56,746c-10.32.44-9.54,13.09-9.54,13.09-1.09,9.6-8.29,10.47-8.29,10.47-3.71,0-10.91,1-10.91,1-10.26,1.86-7.64,14.94-7.64,14.94,3.49,9.6,12,8.07,12,8.07A18.71,18.71,0,0,0,746.58,780s4.9-9.68,12.95-13.1a14.1,14.1,0,0,0,1.74-.62l.07,0h0a9.8,9.8,0,0,0,5.64-6.17C769.4,743.86,755.56,746,755.56,746Zm-3.73,23a10.49,10.49,0,0,1,1.85-1Z" transform="translate(-0.16 -0.05)"/><rect class="cls-17" width="53"/><rect class="cls-18" x="974" y="1172" width="53"/><g class="cls-19"><path class="cls-20" d="M808.4,653.94l.45-.22L768,633.09V609.65l.69-.35-.45-.22h-1.38l-69.58-11.72L656.9,577l-.45-.23H574.79L505.2,565l-.69-.35h-.9l-.69.35-69.59,11.72H351.67l-40.84,20.63-69.58,11.72h-1.39l-.44.22.69.35v23.44l-40.39,20.4-.45.23,40.84,20.62v23.44l-.69.35.44.23h1.39l69.58,11.71,40.39,20.41.45.22h81.66l69.59,11.72.69.35h.9l.69-.35,69.59-11.72h81.66l40.84-20.63,69.58-11.71h1.38l.45-.23-.69-.35V674.35ZM590.63,697.45H417.49l-86.56-43.73L417.49,610H590.63l86.56,43.74Zm46.75-65.66,93.35-15.72,10.49,5.3L679,652.81Zm91.8-16.51L635.83,631l-41.61-21H718.68Zm-140.35-6.2H505.62V577.64h21ZM502.5,577.64v31.44H419.29l62.23-31.44ZM413.9,610l-41.61,21-93.35-15.72,10.49-5.3Zm-136.51,6.09,93.34,15.72-41.6,21L266.9,621.37Zm51.74,38.55,41.6,21-93.34,15.72-10.49-5.3Zm-50.19,37.53,93.35-15.72,41.61,21H289.43Zm140.35,6.21H502.5v31.43h-21Zm86.33,31.43V698.36h83.21L526.6,729.79Zm88.6-32.34,41.61-21,93.35,15.72-10.5,5.3Zm136.51-6.09-93.35-15.72,41.61-21,62.23,31.44Zm2.7-75.74,28.77-4.85L743,620.46Zm-1.56-.79L722.28,610h38.37Zm-226.25-38.1V567l19.18,9.69Zm-3.12,0H483.32L502.5,567Zm-226.25,38.1L247.47,610h38.37Zm-1.56.79-9.59,4.84-19.18-9.69Zm0,76.2-28.77,4.84L265.1,687Zm1.56.78,9.59,4.85H247.47ZM502.5,730.7v9.69l-19.18-9.69Zm3.12,0H524.8l-19.18,9.69Zm226.25-38.1,28.78,4.85H722.28Zm1.56-.78L743,687l19.18,9.69Zm-141-82.74-62.23-31.44H574L695,598l21.88,11.06Zm-176.72,0H291.23L313.11,598l121.06-20.38h43.76Zm-88.37,44.64L265.1,685.15l-21.88-11V633.33l21.88-11.05Zm88.37,44.64,62.23,31.43H434.17L313.11,709.41l-21.88-11Zm176.72,0H716.89l-21.88,11L574,729.79H530.19Zm88.37-44.64L743,622.28l21.88,11.05V674.1l-21.88,11ZM768,634.9l37.24,18.82L768,672.53Zm-23.19-13.53,20.08-10.15v20.3Zm-24.34-12.29L700.4,598.93l60.25,10.15Zm-140.3-31.44h74.48l37.23,18.81Zm-51.79-.91-20.08-10.15,60.25,10.15Zm-48.67,0H439.56l60.25-10.15Zm-163.5,19.72,37.24-18.81h74.48Zm-28.58,12.63H247.47l60.25-10.15ZM263.3,621.37l-20.08,10.15v-20.3Zm-23.19,51.16-37.24-18.81,37.24-18.82Zm23.19,13.53-20.08,10.15V675.92Zm24.34,12.3,20.08,10.14-60.25-10.14Zm140.3,31.43H353.46L316.22,711Zm51.78.91,20.09,10.15L439.56,730.7Zm48.67,0h40.17l-60.25,10.15ZM691.89,711l-37.23,18.81H580.18Zm28.59-12.62h40.17L700.4,708.5Zm24.34-12.3,20.08-10.14v20.29Z" transform="translate(-0.16 -0.05)"/><path class="cls-21" d="M584.73,613H423.38l-80.22,40.53-.45.23,80.22,40.52.45.23H584.73L665,653.94l.45-.22-80.23-40.53Zm-220.4,40.76c0,4.36,2.37,8.56,6.74,12.51L346.3,653.72l24.77-12.52C366.7,645.15,364.33,649.35,364.33,653.72Zm3.11,0c0-22,61.29-39.85,136.62-39.85s136.62,17.87,136.62,39.85-61.29,39.84-136.62,39.84S367.44,675.69,367.44,653.72Zm276.35,0c0-4.37-2.37-8.57-6.74-12.52l24.77,12.52-24.77,12.51C641.42,662.28,643.79,658.08,643.79,653.72ZM533.42,613.87h49.52l24.94,12.6C588.54,620.21,562.66,615.7,533.42,613.87Zm-133.18,12.6,24.94-12.6H474.7C445.45,615.7,419.58,620.21,400.24,626.47Zm74.46,67.09H425.18L400.24,681C419.58,687.22,445.45,691.73,474.7,693.56ZM607.88,681l-24.94,12.6H533.42C562.66,691.73,588.54,687.23,607.88,681Z" transform="translate(-0.16 -0.05)"/><path class="cls-22" d="M504.06,666.48c23.9,0,43.35-5.68,43.35-12.65S528,641.19,504.06,641.19s-43.35,5.67-43.35,12.64S480.16,666.48,504.06,666.48Zm0-22.57c18.75,0,34,4.45,34,9.92s-15.26,9.92-34,9.92-34-4.45-34-9.92S485.31,643.91,504.06,643.91Z" transform="translate(-0.16 -0.05)"/><path class="cls-22" d="M562.35,653.83c0-9.37-26.15-17-58.29-17s-58.3,7.63-58.3,17,26.16,17,58.3,17S562.35,663.21,562.35,653.83Zm-58.29-16.09c30.43,0,55.18,7.22,55.18,16.09s-24.75,16.1-55.18,16.1-55.18-7.22-55.18-16.1S473.63,637.74,504.06,637.74Z" transform="translate(-0.16 -0.05)"/></g><g class="cls-23"><path class="cls-24" d="M504.44,506.8c.61,3,1,5.92,1.53,8.88l.63,4.43.51,4.44c.16,1.47.47,3,.72,4.43a13.78,13.78,0,0,1,0,4.44,23.4,23.4,0,0,1-1.12,4.43,17.18,17.18,0,0,1-2.31,4.44h-.76a17.23,17.23,0,0,1-2.32-4.44,23.36,23.36,0,0,1-1.11-4.43,14.07,14.07,0,0,1,0-4.44c.26-1.48.57-3,.73-4.43l.51-4.44.63-4.43c.52-3,.92-5.92,1.53-8.88Z" transform="translate(-0.16 -0.05)"/><path class="cls-24" d="M417,509c2.36,2.88,4.52,5.77,6.78,8.66L427,522l3.15,4.34c1,1.45,2.22,2.89,3.35,4.33a21.36,21.36,0,0,1,2.68,4.37,25.34,25.34,0,0,1,1.54,4.43,12.56,12.56,0,0,1,.36,4.48l-.75,0a38.16,38.16,0,0,1-4.92-4.25,46.57,46.57,0,0,1-3.74-4.31,20.87,20.87,0,0,1-2.6-4.37c-.63-1.47-1.21-2.94-1.93-4.41L422,522.27l-2-4.4c-1.26-2.94-2.62-5.87-3.78-8.81Z" transform="translate(-0.16 -0.05)"/><path class="cls-24" d="M332.14,515.63c4,2.71,7.89,5.45,11.84,8.18l5.79,4.1,5.69,4.12c1.88,1.37,3.9,2.73,5.88,4.1a46.63,46.63,0,0,1,5.23,4.16,50.16,50.16,0,0,1,4.15,4.28,21,21,0,0,1,3,4.4L373,549a81.79,81.79,0,0,1-7.37-3.93q-3.35-2-6.25-4.06a46.66,46.66,0,0,1-5.17-4.17c-1.49-1.42-2.94-2.83-4.52-4.24L345,528.42l-4.6-4.23c-3-2.83-6.08-5.65-9-8.49Z" transform="translate(-0.16 -0.05)"/><path class="cls-24" d="M252.54,526.43c5.6,2.47,11,5,16.53,7.46l8.15,3.75,8,3.77c2.67,1.25,5.47,2.49,8.23,3.73s5.3,2.52,7.63,3.84,4.56,2.64,6.64,4a47.15,47.15,0,0,1,5.6,4.18l-.66.11c-3.48-1.12-6.6-2.3-9.61-3.5s-5.84-2.43-8.57-3.68-5.25-2.53-7.57-3.85-4.58-2.64-7-3.94l-7.16-3.92-7.05-3.93c-4.63-2.64-9.35-5.26-13.89-7.91Z" transform="translate(-0.16 -0.05)"/><path class="cls-24" d="M180.58,541.1c7,2.15,13.81,4.34,20.72,6.51l10.26,3.28,10.16,3.3c3.39,1.11,6.88,2.18,10.33,3.27s6.73,2.21,9.81,3.39,6.06,2.37,8.92,3.6,5.58,2.5,8,3.83l-.59.15c-4.09-.93-7.87-1.94-11.54-3s-7.21-2.09-10.63-3.18-6.68-2.23-9.75-3.41-6.09-2.37-9.22-3.53l-9.38-3.5-9.29-3.51c-6.13-2.36-12.33-4.7-18.38-7.08Z" transform="translate(-0.16 -0.05)"/><path class="cls-25" d="M118.45,559.2c8.16,1.76,16.18,3.57,24.28,5.36l12.05,2.71,12,2.74c4,.91,8.07,1.79,12.12,2.68s7.93,1.85,11.67,2.85,7.39,2,10.93,3.1,7,2.17,10.16,3.37l-.49.17c-4.58-.71-8.9-1.51-13.13-2.34s-8.35-1.7-12.37-2.6-7.9-1.85-11.63-2.86-7.4-2-11.18-3l-11.32-3-11.24-3c-7.44-2-15-4-22.32-6Z" transform="translate(-0.16 -0.05)"/><path class="cls-25" d="M68,580.16c9.08,1.33,18.06,2.71,27.1,4.05l13.48,2.06,13.43,2.09c4.47.7,9,1.36,13.53,2s8.91,1.41,13.19,2.2,8.48,1.63,12.61,2.5,8.17,1.79,12,2.81l-.38.19c-4.94-.47-9.66-1-14.33-1.64s-9.22-1.25-13.73-1.93-8.88-1.43-13.15-2.23-8.49-1.62-12.8-2.4l-12.92-2.35-12.85-2.37c-8.52-1.61-17.1-3.19-25.58-4.82Z" transform="translate(-0.16 -0.05)"/><path class="cls-25" d="M30.87,603.37c9.73.84,19.4,1.74,29.1,2.61l14.5,1.35,14.47,1.37c4.82.46,9.69.88,14.54,1.32s9.62.94,14.3,1.51,9.33,1.17,13.91,1.82,9.11,1.35,13.5,2.15l-.27.21c-5.13-.21-10.13-.53-15.08-.88s-9.83-.77-14.67-1.21-9.59-1-14.27-1.53-9.34-1.17-14.05-1.72l-14.11-1.65L58.67,607c-9.36-1.16-18.74-2.28-28.06-3.46Z" transform="translate(-0.16 -0.05)"/><path class="cls-25" d="M8.08,628.1c10.09.33,20.14.73,30.22,1.1l15.08.59,15.07.62c5,.21,10.06.38,15.1.56s10,.44,15,.76,9.88.68,14.78,1.09,9.77.87,14.58,1.44l-.14.22c-5.18,0-10.29,0-15.37-.11s-10.14-.26-15.17-.45-10-.45-15-.78-9.89-.67-14.85-1l-14.89-.92-14.87-1c-9.89-.66-19.8-1.29-29.68-2Z" transform="translate(-0.16 -0.05)"/><path class="cls-25" d="M.36,653.61c10.14-.18,20.28-.3,30.42-.45L46,653l15.21-.15c5.07-.05,10.14-.14,15.21-.21s10.13-.08,15.2,0,10.14.18,15.21.33,10.14.36,15.2.68v.22c-5.06.32-10.13.51-15.2.67s-10.14.26-15.21.33-10.14.06-15.2,0-10.14-.17-15.21-.21L46,654.46l-15.2-.19c-10.14-.15-20.28-.26-30.42-.44Z" transform="translate(-0.16 -0.05)"/><path class="cls-25" d="M8,679.12c9.88-.69,19.79-1.32,29.68-2l14.87-.95,14.89-.92c5-.3,9.9-.65,14.85-1s9.93-.59,15-.78,10.08-.34,15.17-.45,10.19-.16,15.37-.1l.14.22c-4.81.57-9.68,1-14.58,1.43s-9.83.77-14.78,1.09-10,.57-15,.76-10.08.35-15.1.56l-15.07.63-15.08.58c-10.08.37-20.13.77-30.22,1.11Z" transform="translate(-0.16 -0.05)"/><path class="cls-26" d="M30.61,703.86c9.32-1.18,18.7-2.3,28.06-3.45l14.07-1.69,14.11-1.66c4.71-.55,9.37-1.14,14.05-1.72s9.43-1.08,14.27-1.52,9.73-.85,14.67-1.21,9.95-.68,15.08-.89l.27.21c-4.39.81-8.93,1.5-13.5,2.15s-9.22,1.26-13.91,1.83-9.46,1.06-14.3,1.5-9.72.86-14.54,1.32l-14.47,1.38L60,701.45c-9.7.87-19.37,1.77-29.1,2.62Z" transform="translate(-0.16 -0.05)"/><path class="cls-26" d="M67.65,727.08c8.48-1.64,17.06-3.22,25.58-4.82l12.85-2.38L119,717.53c4.31-.78,8.54-1.6,12.8-2.4s8.65-1.55,13.15-2.23,9.08-1.33,13.73-1.93,9.39-1.17,14.33-1.64l.38.2c-3.84,1-7.9,1.92-12,2.8s-8.33,1.7-12.61,2.5-8.68,1.53-13.19,2.21-9.06,1.33-13.53,2l-13.43,2.09-13.48,2.06c-9,1.35-18,2.72-27.1,4Z" transform="translate(-0.16 -0.05)"/><path class="cls-26" d="M118,748.06c7.37-2,14.88-4,22.32-6l11.24-3,11.32-3c3.78-1,7.47-2,11.18-3s7.6-2,11.63-2.86,8.14-1.77,12.37-2.6,8.55-1.63,13.13-2.33l.49.17c-3.18,1.19-6.63,2.29-10.16,3.36s-7.19,2.11-10.93,3.11-7.64,1.94-11.67,2.84-8.13,1.77-12.12,2.69l-12,2.73-12.05,2.71c-8.1,1.79-16.12,3.6-24.28,5.36Z" transform="translate(-0.16 -0.05)"/><path class="cls-26" d="M180,766.19c6.05-2.38,12.25-4.72,18.38-7.09l9.29-3.51,9.38-3.5c3.13-1.16,6.16-2.35,9.22-3.53s6.31-2.31,9.75-3.4,7-2.16,10.63-3.19,7.45-2,11.54-3l.59.15c-2.42,1.34-5.16,2.59-8,3.83s-5.84,2.43-8.92,3.61-6.36,2.3-9.81,3.39-6.94,2.16-10.33,3.26l-10.16,3.3-10.26,3.28c-6.91,2.17-13.74,4.36-20.72,6.51Z" transform="translate(-0.16 -0.05)"/><path class="cls-26" d="M251.88,780.89c4.54-2.65,9.26-5.27,13.89-7.9l7.05-3.94,7.16-3.91c2.4-1.31,4.67-2.63,7-3.95s4.83-2.6,7.57-3.85,5.58-2.47,8.57-3.67,6.13-2.39,9.61-3.51l.66.11a47.15,47.15,0,0,1-5.6,4.18c-2.08,1.36-4.3,2.69-6.64,4s-4.89,2.59-7.63,3.83-5.56,2.48-8.23,3.74l-8,3.76-8.15,3.75c-5.52,2.49-10.93,5-16.53,7.46Z" transform="translate(-0.16 -0.05)"/><path class="cls-26" d="M331.43,791.73c2.89-2.84,6-5.66,9-8.49L345,779l4.72-4.22c1.58-1.4,3-2.82,4.52-4.24a47.84,47.84,0,0,1,5.17-4.17q2.91-2.05,6.25-4.06a81.79,81.79,0,0,1,7.37-3.93l.72.07a21,21,0,0,1-3,4.4,50.16,50.16,0,0,1-4.15,4.28,47.82,47.82,0,0,1-5.23,4.17c-2,1.36-4,2.72-5.88,4.09l-5.69,4.12-5.79,4.1c-4,2.73-7.8,5.47-11.84,8.19Z" transform="translate(-0.16 -0.05)"/><path class="cls-26" d="M416.22,798.38c1.16-3,2.52-5.88,3.78-8.82l2-4.4,2.13-4.39c.72-1.46,1.3-2.94,1.93-4.4a20.62,20.62,0,0,1,2.6-4.37,45.39,45.39,0,0,1,3.74-4.32,39,39,0,0,1,4.92-4.25l.75,0a12.63,12.63,0,0,1-.36,4.49,25.53,25.53,0,0,1-1.54,4.42,21.36,21.36,0,0,1-2.68,4.37c-1.13,1.44-2.31,2.88-3.35,4.33L427,785.42l-3.26,4.34c-2.26,2.88-4.42,5.77-6.78,8.66Z" transform="translate(-0.16 -0.05)"/><path class="cls-26" d="M503.68,800.63c-.61-3-1-5.92-1.53-8.87l-.63-4.44-.51-4.43c-.16-1.48-.47-3-.73-4.44a14,14,0,0,1,0-4.43,23.27,23.27,0,0,1,1.11-4.44,17,17,0,0,1,2.32-4.43h.76a17,17,0,0,1,2.31,4.43,23.31,23.31,0,0,1,1.12,4.44,13.72,13.72,0,0,1,0,4.43c-.25,1.48-.56,3-.72,4.44l-.51,4.43-.63,4.44c-.52,3-.92,5.91-1.53,8.87Z" transform="translate(-0.16 -0.05)"/><path class="cls-26" d="M591.15,798.42c-2.36-2.89-4.52-5.78-6.78-8.66l-3.26-4.34L578,781.08c-1-1.45-2.22-2.89-3.36-4.33a21.75,21.75,0,0,1-2.67-4.37,25.53,25.53,0,0,1-1.54-4.42,12.63,12.63,0,0,1-.36-4.49l.75,0a39,39,0,0,1,4.92,4.25,45.39,45.39,0,0,1,3.74,4.32,21,21,0,0,1,2.6,4.37c.63,1.46,1.21,2.94,1.93,4.4l2.13,4.39,2,4.4c1.26,2.94,2.62,5.87,3.78,8.82Z" transform="translate(-0.16 -0.05)"/><path class="cls-26" d="M676,791.81c-4-2.72-7.89-5.46-11.84-8.19l-5.79-4.1-5.69-4.12c-1.88-1.37-3.9-2.73-5.88-4.09a49,49,0,0,1-5.24-4.17,53.4,53.4,0,0,1-4.15-4.28,20.58,20.58,0,0,1-3-4.4l.71-.07a80.69,80.69,0,0,1,7.38,3.93q3.35,2,6.25,4.06a47.84,47.84,0,0,1,5.17,4.17c1.49,1.42,2.94,2.84,4.52,4.24l4.71,4.22,4.61,4.23c3,2.83,6.08,5.65,9,8.49Z" transform="translate(-0.16 -0.05)"/><path class="cls-26" d="M755.58,781c-5.6-2.47-11-5-16.53-7.46l-8.15-3.75-8-3.76c-2.67-1.26-5.47-2.5-8.23-3.74s-5.3-2.52-7.63-3.83-4.56-2.65-6.64-4a47.15,47.15,0,0,1-5.6-4.18l.66-.11c3.48,1.12,6.6,2.3,9.61,3.51s5.84,2.43,8.57,3.67,5.25,2.53,7.57,3.85,4.58,2.64,7,3.95l7.15,3.91,7.06,3.94c4.63,2.63,9.35,5.25,13.89,7.9Z" transform="translate(-0.16 -0.05)"/><path class="cls-26" d="M827.54,766.33c-7-2.15-13.81-4.34-20.72-6.51l-10.26-3.28-10.17-3.3c-3.38-1.1-6.87-2.18-10.33-3.26s-6.72-2.22-9.8-3.39-6.06-2.38-8.92-3.61-5.58-2.49-8-3.83l.58-.15c4.1.93,7.87,1.94,11.55,3s7.2,2.1,10.63,3.19,6.68,2.22,9.75,3.4,6.08,2.37,9.22,3.53l9.38,3.5,9.29,3.51c6.12,2.37,12.33,4.71,18.38,7.09Z" transform="translate(-0.16 -0.05)"/><path class="cls-26" d="M889.67,748.23c-8.16-1.76-16.18-3.57-24.28-5.36l-12-2.71-12-2.73c-4-.92-8.07-1.8-12.12-2.69s-7.94-1.84-11.67-2.84-7.39-2-10.93-3.11-7-2.17-10.16-3.36l.49-.17c4.58.7,8.9,1.5,13.13,2.33s8.34,1.7,12.37,2.6,7.9,1.86,11.63,2.86,7.4,2,11.18,3l11.32,3,11.24,3c7.44,2,14.94,4,22.32,6Z" transform="translate(-0.16 -0.05)"/><path class="cls-26" d="M940.08,727.27c-9.08-1.33-18.06-2.7-27.1-4l-13.48-2.06-13.43-2.09c-4.47-.7-9-1.36-13.53-2s-8.91-1.41-13.19-2.21-8.48-1.63-12.61-2.5-8.17-1.79-12-2.8l.38-.2c4.94.47,9.66,1,14.33,1.64s9.22,1.25,13.72,1.93,8.89,1.43,13.15,2.23,8.5,1.62,12.81,2.4L902,719.88l12.86,2.38c8.52,1.6,17.1,3.18,25.57,4.82Z" transform="translate(-0.16 -0.05)"/><path class="cls-26" d="M977.25,704.07c-9.74-.85-19.4-1.75-29.1-2.62l-14.51-1.34-14.46-1.38c-4.82-.46-9.69-.88-14.54-1.32s-9.62-.93-14.3-1.5-9.33-1.18-13.91-1.83-9.11-1.34-13.5-2.15l.26-.21c5.14.21,10.13.53,15.08.89s9.84.76,14.68,1.21,9.59.95,14.27,1.52,9.34,1.17,14,1.72l14.11,1.66,14.07,1.69c9.35,1.15,18.74,2.27,28.06,3.45Z" transform="translate(-0.16 -0.05)"/><path class="cls-25" d="M1000,679.34c-10.09-.34-20.15-.74-30.22-1.11l-15.08-.58L939.67,677c-5-.21-10.06-.38-15.1-.56s-10-.44-15-.76-9.88-.68-14.78-1.09-9.77-.86-14.58-1.43l.14-.22c5.18-.06,10.29,0,15.37.1s10.14.26,15.17.45,10,.46,15,.78,9.89.68,14.85,1l14.89.92,14.86.95c9.9.66,19.81,1.29,29.69,2Z" transform="translate(-0.16 -0.05)"/><path class="cls-25" d="M1007.76,653.83c-10.14.18-20.28.29-30.42.44l-15.2.19-15.21.15c-5.07,0-10.14.13-15.21.21s-10.13.08-15.2,0-10.14-.17-15.21-.33-10.14-.35-15.21-.67v-.22c5.07-.32,10.14-.52,15.21-.68s10.14-.26,15.21-.33,10.13-.06,15.2,0,10.14.16,15.21.21l15.21.15,15.2.18c10.14.15,20.28.27,30.42.45Z" transform="translate(-0.16 -0.05)"/><path class="cls-25" d="M1000.17,628.31c-9.88.69-19.79,1.32-29.69,2l-14.86,1-14.89.92c-5,.31-9.9.65-14.85,1s-9.94.59-15,.78-10.08.35-15.17.45-10.19.16-15.37.11l-.14-.22c4.81-.57,9.68-1,14.58-1.44s9.83-.77,14.78-1.09,9.95-.57,15-.76,10.08-.35,15.1-.56l15.07-.62,15.08-.59c10.07-.37,20.13-.77,30.22-1.1Z" transform="translate(-0.16 -0.05)"/><path class="cls-25" d="M977.51,603.57c-9.32,1.18-18.71,2.3-28.06,3.46l-14.07,1.69-14.11,1.65c-4.71.55-9.37,1.14-14,1.72s-9.43,1.08-14.27,1.53-9.73.85-14.68,1.21-9.94.67-15.08.88l-.26-.21c4.39-.8,8.93-1.49,13.5-2.15s9.22-1.26,13.91-1.82,9.46-1.07,14.3-1.51,9.72-.86,14.54-1.32l14.46-1.37L948.15,606c9.7-.87,19.36-1.77,29.1-2.61Z" transform="translate(-0.16 -0.05)"/><path class="cls-25" d="M940.46,580.36c-8.47,1.63-17.05,3.21-25.57,4.82L902,587.55l-12.91,2.35c-4.31.78-8.54,1.6-12.81,2.4s-8.64,1.55-13.15,2.23-9.07,1.33-13.72,1.93-9.39,1.17-14.33,1.64l-.38-.19c3.84-1,7.9-1.93,12-2.81s8.33-1.7,12.61-2.5,8.68-1.53,13.19-2.2,9.06-1.34,13.53-2l13.43-2.09L913,584.21c9-1.34,18-2.72,27.1-4.05Z" transform="translate(-0.16 -0.05)"/><path class="cls-25" d="M890.16,559.37c-7.38,2-14.88,4-22.32,6l-11.24,3-11.32,3c-3.78,1-7.47,2-11.18,3s-7.6,2-11.63,2.86-8.14,1.77-12.37,2.6-8.55,1.63-13.13,2.34l-.49-.17c3.18-1.2,6.63-2.3,10.16-3.37s7.19-2.1,10.93-3.1,7.63-1.95,11.67-2.85,8.13-1.77,12.12-2.68l12-2.74,12-2.71c8.1-1.79,16.12-3.6,24.28-5.36Z" transform="translate(-0.16 -0.05)"/><path class="cls-24" d="M828.12,541.25c-6,2.38-12.26,4.72-18.38,7.08l-9.29,3.51-9.38,3.5c-3.14,1.16-6.16,2.35-9.22,3.53s-6.31,2.32-9.75,3.41-7,2.15-10.63,3.18-7.45,2-11.55,3l-.58-.15c2.42-1.33,5.16-2.59,8-3.83s5.83-2.43,8.92-3.6,6.36-2.31,9.8-3.39,7-2.16,10.33-3.27l10.17-3.3,10.26-3.28c6.91-2.17,13.73-4.36,20.72-6.51Z" transform="translate(-0.16 -0.05)"/><path class="cls-24" d="M756.24,526.54c-4.54,2.65-9.26,5.27-13.89,7.91l-7.06,3.93-7.15,3.92c-2.4,1.3-4.67,2.62-7,3.94s-4.84,2.6-7.57,3.85-5.58,2.47-8.57,3.68-6.13,2.38-9.61,3.5l-.66-.11a47.15,47.15,0,0,1,5.6-4.18q3.12-2,6.64-4c2.33-1.32,4.89-2.59,7.63-3.84s5.56-2.48,8.23-3.73l8-3.77,8.15-3.75c5.51-2.48,10.93-5,16.53-7.46Z" transform="translate(-0.16 -0.05)"/><path class="cls-24" d="M676.69,515.7c-2.89,2.84-6,5.66-9,8.49l-4.61,4.23-4.71,4.22c-1.58,1.41-3,2.82-4.52,4.24a46.66,46.66,0,0,1-5.17,4.17q-2.91,2.06-6.25,4.06a80.69,80.69,0,0,1-7.38,3.93l-.71-.07a20.58,20.58,0,0,1,3-4.4,53.4,53.4,0,0,1,4.15-4.28,47.71,47.71,0,0,1,5.24-4.16c2-1.37,4-2.73,5.88-4.1l5.69-4.12,5.79-4.1c4-2.73,7.8-5.47,11.84-8.18Z" transform="translate(-0.16 -0.05)"/><path class="cls-24" d="M591.9,509.06c-1.16,2.94-2.52,5.87-3.78,8.81l-2,4.4L584,526.66c-.72,1.47-1.3,2.94-1.93,4.41a21.31,21.31,0,0,1-2.6,4.37,46.57,46.57,0,0,1-3.74,4.31,38.16,38.16,0,0,1-4.92,4.25l-.75,0a12.56,12.56,0,0,1,.36-4.48,25.34,25.34,0,0,1,1.54-4.43,21.75,21.75,0,0,1,2.67-4.37c1.14-1.44,2.32-2.88,3.36-4.33l3.15-4.34,3.26-4.33c2.26-2.89,4.42-5.78,6.78-8.66Z" transform="translate(-0.16 -0.05)"/></g><path class="cls-3" d="M348.55,328.69a12.83,12.83,0,0,0-7.52-1c-6.66,2.4-5.64-6.54-5.64-6.54h0c.37-3.41.05-9.86-7.65-10.26,0,0-6.89,2.73-4.28,16.8,0,0,11.35,24.66,23.46,28.26,0,0,5.78,2.18,5.56-13.2C352.48,342.77,353.14,331.64,348.55,328.69Z" transform="translate(-0.16 -0.05)"/><path class="cls-4" d="M481.8,354.76c-3.5-4.25-6.23-12.88-6.23-12.88-.29-4.48-2.51-5.81-2.51-5.81s-6.28-4.09-6.74,9.56c0,0,1.47,5.35-2.66,2.54,0,0-7.18-10.74-16.31-10.54,0,0-3.2,1.72-.67,8.33a11,11,0,0,0,.42,1l0,.08v0a8.42,8.42,0,0,0,2,2.59,41.44,41.44,0,0,0,15.67,12.25s2.83,1.85,4-5.14c0,0-.24-3,2.94-2.12a21.7,21.7,0,0,0,2.68,2.35h0l.16.1.22.16c5.25,3.65,7.62.85,7.62.85C482.57,355.71,482,355,481.8,354.76Z" transform="translate(-0.16 -0.05)"/><path class="cls-4" d="M469,355.57s.91-2.75,5.44,1.41l-.71-5.23-1.16-1.09h-5.24" transform="translate(-0.16 -0.05)"/><path class="cls-4" d="M475.42,340.57s4.23,12.7,4.81,13.58-5.77-3.82-5.77-3.82l-3.55-2.92" transform="translate(-0.16 -0.05)"/><path class="cls-5" d="M541.32,321.06c-8.73.87-7.64,10.47-7.64,10.47a6.73,6.73,0,0,0,1,2.42,11.22,11.22,0,0,1-1,7.93s-3.49,6.67-3,13.65c6.76,2.18,14.83-20,14.83-20C548.74,322.23,541.32,321.06,541.32,321.06Z" transform="translate(-0.16 -0.05)"/><path class="cls-3" d="M696.88,525.36c4.36-5.15,0-11.43,0-11.43-21.16-12.87-33.52,3.49-33.52,3.49C652.74,531,645,523.09,645,523.09c-3.27-8.94,5-15.92,5-15.92,10.26-10.48,3-20.73,3-20.73-14.2-7.51-25.46,12.48-25.46,12.48-17.67,12.71-26.18-4.13-26.18-4.13A16.85,16.85,0,0,1,609,474.44c14.19-4.37,16.59-15.49,16.59-15.49,1.52-12.88-9.6-17.46-9.6-17.46-18.77-6.11-27.7,10.42-27.7,10.42-12.42,8.88-28.22-1.06-28.22-1.06-12.28-9.84-4.3-23.09-4.3-23.09,5.89-14.6-4.58-17.3-4.58-17.3-18.55-1.57-19.2,15.76-19.2,15.76C530.19,441.93,516,443.67,516,443.67c-15.71,2-17.89-8.29-17.89-8.29-.88-6.54-4.39-7.62-4.39-7.62-18.58-8.4-32.49,0-32.49,0-8.72,8.09-2.52,14.34-2.52,14.34,7.3,8.46.78,15.1.78,15.1-3.69,6.31-13.52,2.17-13.52,2.17h0c-9.38-9-26.25-6.68-26.25-6.68s-9.79,3-19.17,1.17h0C388.23,451,389,444.55,389,444.55a60.2,60.2,0,0,0,0-8.73s.93-7.31-13.17-6.57c0,0-17.52,2.42-14.46,24.24,0,0,.87,4.58,8.29,9.6,0,0,9.6,17.4-2.84,22.66,0,0-18.59,4.63-30.13-11.85,0,0-11.87-20-23.05-23,0,0-7.31-3.67-11,3.63,0,0,0,0,0,.08-3.34,5.86-7.9-.52-7.9-.52a5,5,0,0,0-5.67-3.19c-5.56.85-5.32,5.24-5.32,5.24-.36,1.55-.09,4.58,7.1,5.33,0,0,7.06-2.13,9.5,6.67.24,7.92,3.33,20,18.77,25.74,0,0,8.9,9.19-7.39,14.43,0,0-11.35,2.64-9.31,13.24,0,0,0,10.3,14.11,7.54,0,0,17.56-.73,24.87,16.16,0,0,3.49,24-15.42,26.24,0,0-14.34,0-15.71,13,0,0-1.05,3.5,3.4,4.66,0,0,1.79,0,5.45-6.23,0,0,2.2-3.66,5.7-3.37,0,0,3.92,3.47-3.28,12.35,0,0-14.71,19.72,1,38.9,0,0,12.95,8.49,24.2,0,0,0,3.11-8.09,15.62-8.72,0,0,12.79-.93,13.52-19.84,0,0-3.06-16.68,9-17.5,0,0,16.92-1.12,15.66,17.79,0,0-.72,5.75-6.16,12.88,0,0-6.51,12.85,6.16,18.58,0,0,9.64,5.36,19.27,0,0,0,6.4-8.48,13.74-4.4,0,0,9.72,8.46,4.22,19,0,0,.79,15.72,18.83,18.59,0,0,21.78,3.09,32.56-27.13,0,0,8.46-21,28.24-20.06l-4.78-12.71C530.14,632.11,533,645,533,650.68a26.49,26.49,0,0,0-.58,3.72c1.07,25.54,27,25.2,27,25.2,19.75-.87,21.69-17.58,21.69-17.58-2.27-5.33,2.2-9.43,2.2-9.43,4.66-10.73-.29-12.58-.29-12.58-9-10.22-.94-18-.94-18,15-10.57,22.25.74,22.25.74,2,4.58,9,8.49,9,8.49,18,7.5,31-3.25,31-3.25,2.32-5.74-3.4-9.38-3.4-9.38-8.19-1.53-11.44-8.9-11.44-8.9-5-17.62,6.8-24.7,6.8-24.7,8-3.34,12.18,3,12.18,3a31.27,31.27,0,0,0,11,12.93c12.77,7.64,18.88-1.31,18.88-1.31,4.36-13.3-11.09-22.25-11.09-22.25-10.21-18.55,6.94-26,6.94-26,5.89-2.68,2.73-13.88,2.73-13.88C677.24,530.34,696.88,525.36,696.88,525.36Z" transform="translate(-0.16 -0.05)"/><path class="cls-5" d="M376.52,480.77s-4.8,7.41,2.18,12.65c0,0,6,2.18,8.87-3.49,0,0,3.78-7.56-1.16-11.64C386.41,478.29,379.86,475.82,376.52,480.77Z" transform="translate(-0.16 -0.05)"/><path class="cls-4" d="M517.32,460.84s29.84-13.67,44.44,4.94a21.56,21.56,0,0,1,1.55,13.39s-2.5,21.47,18.77,19.75c0,0,30.16-2.88,30.16,19.52,0,0-2.86,3.78,2.85,6.11,0,0,16.47,2.08,16.17,18.79,0,0-2.52,7.34-5.69,10.71,0,0-7.3,7.58,1.59,12.31,0,0,11.11,14.3-2.86,26.39,0,0-7.52,6.57-23.81,3.48,0,0-14.28,1.34-10.47,20.83,0,0,2.85,25.77-29.21,19.87,0,0-26-3.58-30.79-28S517.32,460.84,517.32,460.84Z" transform="translate(-0.16 -0.05)"/><path class="cls-4" d="M481,467.53c-3.49-20.66-23.52-16.29-23.52-16.29-8.69,2.33-7.95,11.05-7.95,11.05,3.79,8.68-2.87,10.55-3.33,10.67a19.92,19.92,0,0,1-7.76-3.1s-7.2-3.49-11,2c0,0-2.75,11.28-15.48,5.78,0,0-25.25-.25-27.14,23,0,0-.43,10.37-8,14.2,0,0-15.29,6.17-24-12.45,0,0-4.22-11.1-18.18-8.61,0,0-8.73,7-1.46,18.85a40.79,40.79,0,0,0,13.47,8.82s24-.77,29.14,21.07c0,0-2.3,14.18-16.92,13.79,0,0-16.51,3.94-15.93,20.15,0,0-.37,10.75,9.88,11.31,0,0,7.71,2.83,16.73-11.31,0,0,3.55-8.62,12.39-7.16,0,0,10.42,2.95,10.07,17.47,0,0-3.4,21.8,22.12,20.35,0,0,27.17-20.95,47.44-4.66L481,514.89l-1.24-23.14,3.83-1.09S484.44,488.18,481,467.53Z" transform="translate(-0.16 -0.05)"/><path class="cls-3" d="M286.5,559.4S255.5,556,257,581c0,0,7.57,11.64,25.9,3.2a23.19,23.19,0,0,0,12.8-15.12S298.29,561.38,286.5,559.4Z" transform="translate(-0.16 -0.05)"/><path class="cls-3" d="M263.06,383.15s-7.2-1.64-10.16,16.47a25.13,25.13,0,0,0-.8,6.53s-9.69-13.09-20.16-19.2c0,0-9.6.19,0,23.51,0,0,6,10.66,25,14.08,0,0,1.8-.36,3.54-3.56a5,5,0,0,1,5.82-1.89s7,7.57,4.37-6.76C270.63,412.33,274.7,391.86,263.06,383.15Z" transform="translate(-0.16 -0.05)"/><path class="cls-3" d="M380.3,383.11s-3.46-1.36-4.32,3.19h0l0,.12a3.31,3.31,0,0,0,0,.33,18.79,18.79,0,0,1-2.46,6.46c-.4.61-.86,1.25-1.38,1.94l-.12.14c-.26.34-.53.68-.82,1,0,0-5.46,8.94,2.4,13.31,0,0,7.85,3.05,11.34-14C384.88,395.67,386,386.91,380.3,383.11Z" transform="translate(-0.16 -0.05)"/><path class="cls-4" d="M489.39,456s21.67-1.56,19.86-23.67c0,0,2.5-8.77-9.88-16.58,0,0-21-5.24-21-25.6,0,0-.88-9.92,9.89-10.92,0,0,9.6.15,8.72,10.92,0,0-3.08,14.54,7.33,17.74,0,0,28.17,3.49,13,26.48,0,0-9.31,19.2,1.45,23.27l-37.52,24.43L471.3,476v-4.66" transform="translate(-0.16 -0.05)"/><path class="cls-5" d="M621.17,490.66s-7.85-19.06-34.32,5.67c0,0-20.25,17.74-39.22.29,0,0-7.62-4.07-2.68-20.95a.66.66,0,0,0,0-.09c1.28-6.1-4.53-7.32-4.53-7.32s-3.28.14-6.8-5.39c0,0-10.36-12.5-24.4-2.9,0,0-7.34,6.69-14.91,3.49,0,0-6.47-3.49-1.2-11.35,0,0,6.37-7,0-13.67,0,0-9.85-3.78-19.74,14.25,0,0,4.3,14-8.32,14.84,0,0-8.84.58-8,14,0,0,3.43,12.69-7.62,17.43a30.44,30.44,0,0,1-27-6.37s-21.69-9.89-30.48,9.89c0,0-3,18.48,14.19,23.27,0,0,20.15-1.42,20.58,14.95A19.26,19.26,0,0,1,416.52,554a17.66,17.66,0,0,1-2.4,1s-13.75,6.57-9.09,24c0,0,4.52,20,24.8,19.76,0,0,15.34-2.44,19.27,14.94,0,0,1.21,19.52,21.17,23,0,0,11.58,3.14,30-10.36,0,0,13.79-11.11,31.07,2.62,0,0,10,7.1,28.08,3,15.09-6.69,10.71-23,10.71-23s-4.06-6,2.38-8.33c0,0,5.3-2.66,6.05-7.41v0s1.6-3.87-1.9-8.5a9.85,9.85,0,0,0-1.6-1.82h0a12.47,12.47,0,0,0-6.32-2.79s-16-5.84-9.32-20.63a13.83,13.83,0,0,1,13.09-9.52s7.6.18,11.1,6.48c0,0,3,4.55,8.5,4.26,0,0,8.06-3.79,2.29-22.41,0,0-4.1-20.35,16.26-29.66C610.7,508.55,624.66,505.06,621.17,490.66Z" transform="translate(-0.16 -0.05)"/><path class="cls-4" d="M573.17,340.57s-13.09,8-7.85,21.53c0,0,6.84,5.43,4.29,13.72,0,0-3.2,15.05-17.82,17.67,0,0,.87,6.11,20.07,1.75,0,0,10.48.84,12-12.13a7.72,7.72,0,0,1,3.26-5.57,10,10,0,0,1,6.56-1.28s5.89.48,9.6,3c0,0,15.06,7.06,24.87-4.28,0,0,7.42-11.48,0-19.27,0,0-8.29-5.82-17.67,3.78,0,0-12.65,13.28-22.69,4.78a11.92,11.92,0,0,1-.44-10s2-9.88-6.32-13.69C581,340.57,575,339.25,573.17,340.57Z" transform="translate(-0.16 -0.05)"/><path class="cls-3" d="M631.45,420.33s-5.91,2.79-3.3,8.92c0,0,2.4,4.61,6.44,2.86,0,0,6.53-1.9,5.78-7.42C640.37,424.69,637.15,419.89,631.45,420.33Z" transform="translate(-0.16 -0.05)"/><path class="cls-3" d="M747.5,415.75s-5.45-10.26-20.73-.88c0,0-8.17,5.68-16.12,6.38h0c-10.66-.16-9.67-12.7-9.67-12.7s-1-12.66-11.08-14.18c0,0-11.56-.44-16.8,24.65,0,0,1.31,20.07-11.35,33.38,0,0-8.83,5.32-8.34,12.15,0,0,3.54,6,19.25.94,0,0,11.78-6.76,14.62-11.56,0,0,8.07-10,14.4-5.24,0,0,3.93,3.28,0,9.38,0,0-1.31,4.15,3.93,7.2,0,0,8.73,2.62,11.56-10.47,0,0,7.86-15.27,19.86-21.16C737,433.64,752.74,425.57,747.5,415.75Z" transform="translate(-0.16 -0.05)"/><path class="cls-4" d="M756.46,566.82a9.8,9.8,0,0,0-5.64-6.17h0l-.07,0A14.1,14.1,0,0,0,749,560c-8-3.42-13-13.09-13-13.1a18.7,18.7,0,0,0-15.4-13.55s-8.51-1.53-12,8.07c0,0-2.61,13.08,7.64,14.94,0,0,7.2,1,10.91,1,0,0,7.2.87,8.29,10.47,0,0-.78,12.65,9.54,13.09C745,580.91,758.88,583.05,756.46,566.82Zm-13.29-7.92a10.86,10.86,0,0,1-1.86-1Z" transform="translate(-0.16 -0.05)"/><path class="cls-27" d="M346.92,356s5.78,2.18,5.56-13.2c0,0,.66-11.13-3.93-14.08a12.83,12.83,0,0,0-7.52-1c-6.66,2.4-5.64-6.54-5.64-6.54h0c.37-3.41.05-9.86-7.65-10.26,0,0-6.89,2.73-4.28,16.8C323.46,327.71,334.81,352.37,346.92,356Z" transform="translate(-0.16 -0.05)"/><path class="cls-28" d="M447.1,347l0,.08v0a8.42,8.42,0,0,0,2,2.59,41.44,41.44,0,0,0,15.67,12.25s2.83,1.85,4-5.14a3.11,3.11,0,0,1,.18-1.17h0a.61.61,0,0,0,.05-.12c.21-.41,1.13-1.66,3.88.29.43.38.93.8,1.46,1.19l0,.05h0l.16.1.22.16c5.25,3.65,7.62.85,7.62.85.11-2.38-.42-3.12-.66-3.33a30.67,30.67,0,0,1-3.81-6.62c-1.26-3.64-2.57-7.57-2.57-7.57h0c-.59-3.44-2.36-4.51-2.36-4.51s-6.28-4.09-6.74,9.56c0,0,1.47,5.35-2.66,2.54,0,0-7.18-10.74-16.31-10.54,0,0-3.2,1.72-.67,8.33A11,11,0,0,0,447.1,347Z" transform="translate(-0.16 -0.05)"/><path class="cls-29" d="M530.63,355.53c6.76,2.18,14.83-20,14.83-20,3.28-13.27-4.14-14.44-4.14-14.44-8.73.87-7.64,10.47-7.64,10.47a6.73,6.73,0,0,0,1,2.42,11.22,11.22,0,0,1-1,7.93S530.19,348.55,530.63,355.53Z" transform="translate(-0.16 -0.05)"/><path class="cls-30" d="M663.36,517.42C652.74,531,645,523.09,645,523.09c-3.27-8.94,5-15.92,5-15.92,10.26-10.48,3-20.73,3-20.73-14.2-7.51-25.46,12.48-25.46,12.48a25.53,25.53,0,0,1-8.47,4.2c2.16-2.74,3.53-6.74,2.14-12.46,0,0-5-12.2-20.6-4.41,1.3-8.12,8.38-11.81,8.38-11.81,14.19-4.37,16.59-15.49,16.59-15.49,1.52-12.88-9.6-17.46-9.6-17.46-18.77-6.11-27.7,10.42-27.7,10.42-12.42,8.88-28.22-1.06-28.22-1.06-12.28-9.84-4.3-23.09-4.3-23.09,5.89-14.6-4.58-17.3-4.58-17.3-18.55-1.57-19.2,15.76-19.2,15.76C530.19,441.93,516,443.67,516,443.67c-.65.09-1.27.14-1.88.18a45.67,45.67,0,0,1,3.19-9.48c15.13-23-13-26.48-13-26.48-10.41-3.2-7.33-17.74-7.33-17.74.88-10.77-8.72-10.92-8.72-10.92-10.77,1-9.89,10.92-9.89,10.92,0,20.36,21,25.6,21,25.6,12.38,7.81,9.87,16.58,9.87,16.58a23.89,23.89,0,0,1-1.46,11.16c-8.3-1.72-9.66-8.11-9.66-8.11-.88-6.54-4.39-7.62-4.39-7.62-18.58-8.4-32.49,0-32.49,0-8.72,8.09-2.52,14.34-2.52,14.34,2.84,3.29,3.59,6.3,3.44,8.76a22.35,22.35,0,0,0-4.73.38,10.24,10.24,0,0,0-7.88,9.16,19.64,19.64,0,0,1-3.57-1h0c-9.38-9-26.25-6.68-26.25-6.68s-9.79,3-19.17,1.17h0C388.23,451,389,444.55,389,444.55a60.2,60.2,0,0,0,0-8.73s.93-7.31-13.17-6.57c0,0-17.52,2.42-14.46,24.24,0,0,.87,4.58,8.29,9.6,0,0,9.6,17.4-2.84,22.66,0,0-18.59,4.63-30.13-11.85,0,0-11.87-20-23.05-23,0,0-7.31-3.67-11,3.63,0,0,0,0,0,.08-3.34,5.86-7.9-.52-7.9-.52a5,5,0,0,0-5.67-3.19c-5.56.85-5.32,5.24-5.32,5.24-.36,1.55-.09,4.58,7.1,5.33,0,0,7.06-2.13,9.5,6.67.24,7.92,3.33,20,18.77,25.74,0,0,8.9,9.19-7.39,14.43,0,0-11.35,2.64-9.31,13.24,0,0,0,10.3,14.11,7.54,0,0,17.56-.73,24.87,16.16,0,0,3.49,24-15.42,26.24,0,0-14.34,0-15.71,13,0,0-1.05,3.5,3.4,4.66,0,0,1.79,0,5.45-6.23,0,0,2.2-3.66,5.7-3.37,0,0,3.92,3.47-3.28,12.35,0,0-14.71,19.72,1,38.9,0,0,12.95,8.49,24.2,0,0,0,3.11-8.09,15.62-8.72,0,0,12.79-.93,13.52-19.84,0,0-3.06-16.68,9-17.5A17.87,17.87,0,0,1,392,586c0,.27,0,.53,0,.8,0,0-1.92,12.32,8,17.82a33.7,33.7,0,0,1-5.67,10.75s-6.51,12.85,6.16,18.58c0,0,9.64,5.36,19.27,0,0,0,6.4-8.48,13.74-4.4,0,0,9.72,8.46,4.22,19,0,0,.79,15.72,18.83,18.59,0,0,21.78,3.09,32.56-27.13a39.82,39.82,0,0,1,7.43-11.15c1.23-.8,2.5-1.66,3.8-2.61a23.44,23.44,0,0,1,23-2.23c8.07,14.2,9.66,22.43,9.69,26.66a26.49,26.49,0,0,0-.58,3.72c1.07,25.54,27,25.2,27,25.2,19.75-.87,21.69-17.58,21.69-17.58-2.27-5.33,2.2-9.43,2.2-9.43,4.66-10.73-.29-12.58-.29-12.58a19.38,19.38,0,0,1-2.89-4.24c9.41-4.33,10-14.36,9.9-17.65,9.65-2.62,14.3,4.68,14.3,4.68,2,4.58,9,8.49,9,8.49,18,7.5,31-3.25,31-3.25,2.32-5.74-3.4-9.38-3.4-9.38-8.19-1.53-11.44-8.9-11.44-8.9-5-17.62,6.8-24.7,6.8-24.7,8-3.34,12.18,3,12.18,3a31.27,31.27,0,0,0,11,12.93c12.77,7.64,18.88-1.31,18.88-1.31,4.36-13.3-11.09-22.25-11.09-22.25-10.21-18.55,6.94-26,6.94-26,5.89-2.68,2.73-13.88,2.73-13.88.32-7.18,20-12.16,20-12.16,4.36-5.15,0-11.43,0-11.43C675.72,501.06,663.36,517.42,663.36,517.42Z" transform="translate(-0.16 -0.05)"/><path class="cls-31" d="M286.5,559.4S255.5,556,257,581c0,0,7.57,11.64,25.9,3.2a23.16,23.16,0,0,0,12.79-15.12S298.29,561.39,286.5,559.4Z" transform="translate(-0.16 -0.05)"/><path class="cls-32" d="M260.44,421a5,5,0,0,1,5.82-1.89s7,7.57,4.37-6.76c0,0,4.07-20.47-7.57-29.18,0,0-7.2-1.64-10.16,16.47a25.13,25.13,0,0,0-.8,6.53s-9.69-13.09-20.16-19.2c0,0-9.6.19,0,23.51,0,0,6,10.66,25,14.08C256.9,424.54,258.7,424.18,260.44,421Z" transform="translate(-0.16 -0.05)"/><path class="cls-33" d="M373.54,409.64s7.85,3.05,11.34-14c0,0,1.09-8.76-4.58-12.56,0,0-3.46-1.36-4.32,3.19h0l0,.12a3.31,3.31,0,0,0,0,.33,18.79,18.79,0,0,1-2.46,6.46c-.4.61-.86,1.25-1.38,1.94l-.12.14c-.26.34-.53.68-.82,1C371.14,396.33,365.68,405.27,373.54,409.64Z" transform="translate(-0.16 -0.05)"/><path class="cls-34" d="M571.86,395.24s10.48.84,12-12.13a7.72,7.72,0,0,1,3.26-5.57,10,10,0,0,1,6.56-1.28s5.89.48,9.6,3c0,0,15.06,7.06,24.87-4.28,0,0,7.42-11.48,0-19.27,0,0-8.29-5.82-17.67,3.78,0,0-12.65,13.28-22.69,4.78a11.92,11.92,0,0,1-.44-10s2-9.88-6.32-13.69c0,0-6.07-1.32-7.86,0,0,0-13.09,8-7.85,21.53,0,0,6.84,5.43,4.29,13.72,0,0-3.2,15.05-17.82,17.67C551.79,393.49,552.66,399.6,571.86,395.24Z" transform="translate(-0.16 -0.05)"/><path class="cls-35" d="M628.15,429.25s2.41,4.61,6.44,2.86c0,0,6.53-1.9,5.78-7.42,0,0-3.22-4.8-8.92-4.36C631.45,420.33,625.54,423.12,628.15,429.25Z" transform="translate(-0.16 -0.05)"/><path class="cls-36" d="M717.17,454.8S725,439.53,737,433.64c0,0,15.71-8.07,10.47-17.89,0,0-5.45-10.26-20.73-.88,0,0-8.17,5.68-16.12,6.38-10.66-.16-9.67-12.7-9.67-12.7s-1-12.66-11.08-14.18c0,0-11.56-.44-16.8,24.65,0,0,1.31,20.07-11.35,33.38,0,0-8.83,5.32-8.34,12.15,0,0,3.54,6,19.25.94,0,0,11.78-6.76,14.62-11.56,0,0,8.07-10,14.4-5.24,0,0,3.93,3.28,0,9.38,0,0-1.31,4.15,3.93,7.2C705.61,465.27,714.34,467.89,717.17,454.8Z" transform="translate(-0.16 -0.05)"/><path class="cls-37" d="M756.46,566.82a9.8,9.8,0,0,0-5.64-6.17h0l-.07,0A14.1,14.1,0,0,0,749,560c-8-3.42-13-13.09-13-13.1a18.7,18.7,0,0,0-15.4-13.55s-8.51-1.53-12,8.07c0,0-2.61,13.08,7.64,14.94,0,0,7.2,1,10.91,1,0,0,7.2.87,8.29,10.47,0,0-.78,12.65,9.54,13.09C745,580.91,758.88,583.05,756.46,566.82Zm-15.15-9,1.86,1A10.86,10.86,0,0,1,741.31,557.86Z" transform="translate(-0.16 -0.05)"/><g class="cls-38"><path class="cls-39" d="M346.92,356s5.78,2.18,5.56-13.2c0,0,.66-11.13-3.93-14.08a12.83,12.83,0,0,0-7.52-1c-6.66,2.4-5.64-6.54-5.64-6.54h0c.37-3.41.05-9.86-7.65-10.26,0,0-6.89,2.73-4.28,16.8C323.46,327.71,334.81,352.37,346.92,356Z" transform="translate(-0.16 -0.05)"/><path class="cls-40" d="M447.1,347l0,.08v0a8.42,8.42,0,0,0,2,2.59,41.44,41.44,0,0,0,15.67,12.25s2.83,1.85,4-5.14a3.11,3.11,0,0,1,.18-1.17h0a.61.61,0,0,0,.05-.12c.21-.41,1.13-1.66,3.88.29.43.38.93.8,1.46,1.19l0,.05h0l.16.1.22.16c5.25,3.65,7.62.85,7.62.85.11-2.38-.42-3.12-.66-3.33a30.67,30.67,0,0,1-3.81-6.62c-1.26-3.64-2.57-7.57-2.57-7.57h0c-.59-3.44-2.36-4.51-2.36-4.51s-6.28-4.09-6.74,9.56c0,0,1.47,5.35-2.66,2.54,0,0-7.18-10.74-16.31-10.54,0,0-3.2,1.72-.67,8.33A11,11,0,0,0,447.1,347Z" transform="translate(-0.16 -0.05)"/><path class="cls-41" d="M530.63,355.53c6.76,2.18,14.83-20,14.83-20,3.28-13.27-4.14-14.44-4.14-14.44-8.73.87-7.64,10.47-7.64,10.47a6.73,6.73,0,0,0,1,2.42,11.22,11.22,0,0,1-1,7.93S530.19,348.55,530.63,355.53Z" transform="translate(-0.16 -0.05)"/><path class="cls-42" d="M663.36,517.42C652.74,531,645,523.09,645,523.09c-3.27-8.94,5-15.92,5-15.92,10.26-10.48,3-20.73,3-20.73-14.2-7.51-25.46,12.48-25.46,12.48a25.53,25.53,0,0,1-8.47,4.2c2.16-2.74,3.53-6.74,2.14-12.46,0,0-5-12.2-20.6-4.41,1.3-8.12,8.38-11.81,8.38-11.81,14.19-4.37,16.59-15.49,16.59-15.49,1.52-12.88-9.6-17.46-9.6-17.46-18.77-6.11-27.7,10.42-27.7,10.42-12.42,8.88-28.22-1.06-28.22-1.06-12.28-9.84-4.3-23.09-4.3-23.09,5.89-14.6-4.58-17.3-4.58-17.3-18.55-1.57-19.2,15.76-19.2,15.76C530.19,441.93,516,443.67,516,443.67c-.65.09-1.27.14-1.88.18a45.67,45.67,0,0,1,3.19-9.48c15.13-23-13-26.48-13-26.48-10.41-3.2-7.33-17.74-7.33-17.74.88-10.77-8.72-10.92-8.72-10.92-10.77,1-9.89,10.92-9.89,10.92,0,20.36,21,25.6,21,25.6,12.38,7.81,9.87,16.58,9.87,16.58a23.89,23.89,0,0,1-1.46,11.16c-8.3-1.72-9.66-8.11-9.66-8.11-.88-6.54-4.39-7.62-4.39-7.62-18.58-8.4-32.49,0-32.49,0-8.72,8.09-2.52,14.34-2.52,14.34,2.84,3.29,3.59,6.3,3.44,8.76a22.35,22.35,0,0,0-4.73.38,10.24,10.24,0,0,0-7.88,9.16,19.64,19.64,0,0,1-3.57-1h0c-9.38-9-26.25-6.68-26.25-6.68s-9.79,3-19.17,1.17h0C388.23,451,389,444.55,389,444.55a60.2,60.2,0,0,0,0-8.73s.93-7.31-13.17-6.57c0,0-17.52,2.42-14.46,24.24,0,0,.87,4.58,8.29,9.6,0,0,9.6,17.4-2.84,22.66,0,0-18.59,4.63-30.13-11.85,0,0-11.87-20-23.05-23,0,0-7.31-3.67-11,3.63,0,0,0,0,0,.08-3.34,5.86-7.9-.52-7.9-.52a5,5,0,0,0-5.67-3.19c-5.56.85-5.32,5.24-5.32,5.24-.36,1.55-.09,4.58,7.1,5.33,0,0,7.06-2.13,9.5,6.67.24,7.92,3.33,20,18.77,25.74,0,0,8.9,9.19-7.39,14.43,0,0-11.35,2.64-9.31,13.24,0,0,0,10.3,14.11,7.54,0,0,17.56-.73,24.87,16.16,0,0,3.49,24-15.42,26.24,0,0-14.34,0-15.71,13,0,0-1.05,3.5,3.4,4.66,0,0,1.79,0,5.45-6.23,0,0,2.2-3.66,5.7-3.37,0,0,3.92,3.47-3.28,12.35,0,0-14.71,19.72,1,38.9,0,0,12.95,8.49,24.2,0,0,0,3.11-8.09,15.62-8.72,0,0,12.79-.93,13.52-19.84,0,0-3.06-16.68,9-17.5A17.87,17.87,0,0,1,392,586c0,.27,0,.53,0,.8,0,0-1.92,12.32,8,17.82a33.7,33.7,0,0,1-5.67,10.75s-6.51,12.85,6.16,18.58c0,0,9.64,5.36,19.27,0,0,0,6.4-8.48,13.74-4.4,0,0,9.72,8.46,4.22,19,0,0,.79,15.72,18.83,18.59,0,0,21.78,3.09,32.56-27.13a39.82,39.82,0,0,1,7.43-11.15c1.23-.8,2.5-1.66,3.8-2.61a23.44,23.44,0,0,1,23-2.23c8.07,14.2,9.66,22.43,9.69,26.66a26.49,26.49,0,0,0-.58,3.72c1.07,25.54,27,25.2,27,25.2,19.75-.87,21.69-17.58,21.69-17.58-2.27-5.33,2.2-9.43,2.2-9.43,4.66-10.73-.29-12.58-.29-12.58a19.38,19.38,0,0,1-2.89-4.24c9.41-4.33,10-14.36,9.9-17.65,9.65-2.62,14.3,4.68,14.3,4.68,2,4.58,9,8.49,9,8.49,18,7.5,31-3.25,31-3.25,2.32-5.74-3.4-9.38-3.4-9.38-8.19-1.53-11.44-8.9-11.44-8.9-5-17.62,6.8-24.7,6.8-24.7,8-3.34,12.18,3,12.18,3a31.27,31.27,0,0,0,11,12.93c12.77,7.64,18.88-1.31,18.88-1.31,4.36-13.3-11.09-22.25-11.09-22.25-10.21-18.55,6.94-26,6.94-26,5.89-2.68,2.73-13.88,2.73-13.88.32-7.18,20-12.16,20-12.16,4.36-5.15,0-11.43,0-11.43C675.72,501.06,663.36,517.42,663.36,517.42Z" transform="translate(-0.16 -0.05)"/><path class="cls-43" d="M286.5,559.4S255.5,556,257,581c0,0,7.57,11.64,25.9,3.2a23.16,23.16,0,0,0,12.79-15.12S298.29,561.39,286.5,559.4Z" transform="translate(-0.16 -0.05)"/><path class="cls-44" d="M260.44,421a5,5,0,0,1,5.82-1.89s7,7.57,4.37-6.76c0,0,4.07-20.47-7.57-29.18,0,0-7.2-1.64-10.16,16.47a25.13,25.13,0,0,0-.8,6.53s-9.69-13.09-20.16-19.2c0,0-9.6.19,0,23.51,0,0,6,10.66,25,14.08C256.9,424.54,258.7,424.18,260.44,421Z" transform="translate(-0.16 -0.05)"/><path class="cls-45" d="M373.54,409.64s7.85,3.05,11.34-14c0,0,1.09-8.76-4.58-12.56,0,0-3.46-1.36-4.32,3.19h0l0,.12a3.31,3.31,0,0,0,0,.33,18.79,18.79,0,0,1-2.46,6.46c-.4.61-.86,1.25-1.38,1.94l-.12.14c-.26.34-.53.68-.82,1C371.14,396.33,365.68,405.27,373.54,409.64Z" transform="translate(-0.16 -0.05)"/><path class="cls-46" d="M571.86,395.24s10.48.84,12-12.13a7.72,7.72,0,0,1,3.26-5.57,10,10,0,0,1,6.56-1.28s5.89.48,9.6,3c0,0,15.06,7.06,24.87-4.28,0,0,7.42-11.48,0-19.27,0,0-8.29-5.82-17.67,3.78,0,0-12.65,13.28-22.69,4.78a11.92,11.92,0,0,1-.44-10s2-9.88-6.32-13.69c0,0-6.07-1.32-7.86,0,0,0-13.09,8-7.85,21.53,0,0,6.84,5.43,4.29,13.72,0,0-3.2,15.05-17.82,17.67C551.79,393.49,552.66,399.6,571.86,395.24Z" transform="translate(-0.16 -0.05)"/><path class="cls-47" d="M628.15,429.25s2.41,4.61,6.44,2.86c0,0,6.53-1.9,5.78-7.42,0,0-3.22-4.8-8.92-4.36C631.45,420.33,625.54,423.12,628.15,429.25Z" transform="translate(-0.16 -0.05)"/><path class="cls-48" d="M717.17,454.8S725,439.53,737,433.64c0,0,15.71-8.07,10.47-17.89,0,0-5.45-10.26-20.73-.88,0,0-8.17,5.68-16.12,6.38-10.66-.16-9.67-12.7-9.67-12.7s-1-12.66-11.08-14.18c0,0-11.56-.44-16.8,24.65,0,0,1.31,20.07-11.35,33.38,0,0-8.83,5.32-8.34,12.15,0,0,3.54,6,19.25.94,0,0,11.78-6.76,14.62-11.56,0,0,8.07-10,14.4-5.24,0,0,3.93,3.28,0,9.38,0,0-1.31,4.15,3.93,7.2C705.61,465.27,714.34,467.89,717.17,454.8Z" transform="translate(-0.16 -0.05)"/><path class="cls-49" d="M756.46,566.82a9.8,9.8,0,0,0-5.64-6.17h0l-.07,0A14.1,14.1,0,0,0,749,560c-8-3.42-13-13.09-13-13.1a18.7,18.7,0,0,0-15.4-13.55s-8.51-1.53-12,8.07c0,0-2.61,13.08,7.64,14.94,0,0,7.2,1,10.91,1,0,0,7.2.87,8.29,10.47,0,0-.78,12.65,9.54,13.09C745,580.91,758.88,583.05,756.46,566.82Zm-15.15-9,1.86,1A10.86,10.86,0,0,1,741.31,557.86Z" transform="translate(-0.16 -0.05)"/></g></g></g></svg>