<svg xmlns="http://www.w3.org/2000/svg" xmlns:xlink="http://www.w3.org/1999/xlink" viewBox="0 0 1027 1172"><defs><style>.cls-1{isolation:isolate;}.cls-2{opacity:0.3;}.cls-3{fill:#d66d34;}.cls-4{fill:#e27b39;}.cls-5{fill:#ec8c3a;}.cls-6{fill:url(#linear-gradient);}.cls-7{fill:url(#linear-gradient-2);}.cls-8{fill:url(#linear-gradient-3);}.cls-9{fill:url(#linear-gradient-4);}.cls-10{fill:url(#linear-gradient-5);}.cls-11{fill:url(#linear-gradient-6);}.cls-12{fill:url(#linear-gradient-7);}.cls-13{fill:url(#linear-gradient-8);}.cls-14{fill:url(#linear-gradient-9);}.cls-15{fill:url(#linear-gradient-10);}.cls-16{fill:url(#linear-gradient-11);}.cls-17{fill:url(#linear-gradient-12);}.cls-18{fill:url(#linear-gradient-13);}.cls-19{fill:url(#linear-gradient-14);}.cls-20{fill:url(#linear-gradient-15);}.cls-21{fill:url(#linear-gradient-16);}.cls-22{opacity:0.7;}.cls-23{fill:url(#linear-gradient-17);}.cls-24{fill:url(#linear-gradient-18);}.cls-25{fill:url(#linear-gradient-19);}.cls-26{opacity:0.6;}.cls-27{fill:#b78f6a;}.cls-28{fill:#d5b392;}.cls-29{fill:#f6d7b3;}.cls-30{fill:url(#linear-gradient-21);}.cls-31{fill:url(#linear-gradient-22);}.cls-32{fill:url(#linear-gradient-23);}.cls-33{fill:url(#linear-gradient-24);}.cls-34{fill:url(#linear-gradient-25);}.cls-35{fill:url(#linear-gradient-26);}.cls-36{fill:url(#linear-gradient-27);}.cls-37{fill:url(#linear-gradient-28);}.cls-38{fill:url(#linear-gradient-29);}.cls-39{fill:url(#linear-gradient-30);}.cls-40{fill:url(#linear-gradient-31);}.cls-41{fill:url(#linear-gradient-32);}.cls-42{fill:url(#linear-gradient-33);}.cls-43{fill:url(#linear-gradient-34);}.cls-44{mix-blend-mode:overlay;}.cls-45{fill:url(#linear-gradient-35);}.cls-46{fill:url(#linear-gradient-36);}.cls-47{fill:url(#linear-gradient-37);}.cls-48{fill:url(#linear-gradient-38);}.cls-49{fill:url(#linear-gradient-39);}.cls-50{fill:url(#linear-gradient-40);}.cls-51{fill:url(#linear-gradient-41);}.cls-52{fill:url(#linear-gradient-42);}.cls-53{fill:url(#linear-gradient-43);}.cls-54{fill:url(#linear-gradient-44);}.cls-55{fill:url(#linear-gradient-45);}.cls-56{fill:url(#linear-gradient-46);}.cls-57{fill:url(#linear-gradient-47);}.cls-58{fill:url(#linear-gradient-48);}</style><linearGradient id="linear-gradient" x1="507.95" y1="609.57" x2="516.34" y2="869.61" gradientUnits="userSpaceOnUse"><stop offset="0" stop-color="#332f2f" stop-opacity="0"/><stop offset="1" stop-color="#2f2f3f"/></linearGradient><linearGradient id="linear-gradient-2" x1="454.52" y1="611.3" x2="462.91" y2="871.34" xlink:href="#linear-gradient"/><linearGradient id="linear-gradient-3" x1="347.88" y1="614.74" x2="356.27" y2="874.78" xlink:href="#linear-gradient"/><linearGradient id="linear-gradient-4" x1="655.51" y1="604.81" x2="663.9" y2="864.85" xlink:href="#linear-gradient"/><linearGradient id="linear-gradient-5" x1="574.59" y1="607.42" x2="582.98" y2="867.46" xlink:href="#linear-gradient"/><linearGradient id="linear-gradient-6" x1="422.4" y1="612.33" x2="430.79" y2="872.37" xlink:href="#linear-gradient"/><linearGradient id="linear-gradient-7" x1="687.54" y1="603.78" x2="695.92" y2="863.82" xlink:href="#linear-gradient"/><linearGradient id="linear-gradient-8" x1="702.9" y1="603.29" x2="711.29" y2="863.32" xlink:href="#linear-gradient"/><linearGradient id="linear-gradient-9" x1="608.84" y1="606.32" x2="617.23" y2="866.36" xlink:href="#linear-gradient"/><linearGradient id="linear-gradient-10" x1="429.22" y1="612.11" x2="437.61" y2="872.15" xlink:href="#linear-gradient"/><linearGradient id="linear-gradient-11" x1="275.79" y1="617.06" x2="284.18" y2="877.1" xlink:href="#linear-gradient"/><linearGradient id="linear-gradient-12" x1="325.38" y1="615.46" x2="333.77" y2="875.5" xlink:href="#linear-gradient"/><linearGradient id="linear-gradient-13" x1="207.25" y1="619.27" x2="215.64" y2="879.31" xlink:href="#linear-gradient"/><linearGradient id="linear-gradient-14" x1="317.73" y1="615.71" x2="326.11" y2="875.75" xlink:href="#linear-gradient"/><linearGradient id="linear-gradient-15" x1="-5190.08" y1="2926.05" x2="-5043.31" y2="3017.95" gradientTransform="matrix(1, 0, 0, 0, -0.16, 0)" gradientUnits="userSpaceOnUse"><stop offset="0" stop-color="#332f2f" stop-opacity="0"/><stop offset="1" stop-color="#2f2f3f" stop-opacity="0.6"/></linearGradient><linearGradient id="linear-gradient-16" x1="-4986.58" y1="4436.3" x2="-4839.81" y2="4528.2" xlink:href="#linear-gradient-15"/><linearGradient id="linear-gradient-17" x1="507.25" y1="581.51" x2="498.53" y2="778.75" gradientUnits="userSpaceOnUse"><stop offset="0" stop-color="#916c3f"/><stop offset="1" stop-color="#f2d3af"/></linearGradient><linearGradient id="linear-gradient-18" x1="507.25" y1="581.51" x2="498.53" y2="778.75" xlink:href="#linear-gradient-17"/><linearGradient id="linear-gradient-19" x1="507.26" y1="581.51" x2="498.53" y2="778.75" xlink:href="#linear-gradient-17"/><linearGradient id="linear-gradient-21" x1="257.43" y1="497.57" x2="1964.46" y2="688.41" gradientTransform="matrix(1, 0, 0, 1, 0, 0)" xlink:href="#linear-gradient-15"/><linearGradient id="linear-gradient-22" x1="272.77" y1="360.33" x2="1979.8" y2="551.17" gradientTransform="matrix(1, 0, 0, 1, 0, 0)" xlink:href="#linear-gradient-15"/><linearGradient id="linear-gradient-23" x1="261.06" y1="465.06" x2="1968.09" y2="655.89" gradientTransform="matrix(1, 0, 0, 1, 0, 0)" xlink:href="#linear-gradient-15"/><linearGradient id="linear-gradient-24" x1="248.57" y1="576.79" x2="1955.6" y2="767.63" gradientTransform="matrix(1, 0, 0, 1, 0, 0)" xlink:href="#linear-gradient-15"/><linearGradient id="linear-gradient-25" x1="271.83" y1="368.72" x2="1978.86" y2="559.55" gradientTransform="matrix(1, 0, 0, 1, 0, 0)" xlink:href="#linear-gradient-15"/><linearGradient id="linear-gradient-26" x1="243.03" y1="626.34" x2="1950.06" y2="817.18" gradientTransform="matrix(1, 0, 0, 1, 0, 0)" xlink:href="#linear-gradient-15"/><linearGradient id="linear-gradient-27" x1="259.84" y1="476.03" x2="1966.86" y2="666.86" gradientTransform="matrix(1, 0, 0, 1, 0, 0)" xlink:href="#linear-gradient-15"/><linearGradient id="linear-gradient-28" x1="269.33" y1="391.08" x2="1976.36" y2="581.92" gradientTransform="matrix(1, 0, 0, 1, 0, 0)" xlink:href="#linear-gradient-15"/><linearGradient id="linear-gradient-29" x1="279.95" y1="296.11" x2="1986.98" y2="486.95" gradientTransform="matrix(1, 0, 0, 1, 0, 0)" xlink:href="#linear-gradient-15"/><linearGradient id="linear-gradient-30" x1="282" y1="277.75" x2="1989.03" y2="468.58" gradientTransform="matrix(1, 0, 0, 1, 0, 0)" xlink:href="#linear-gradient-15"/><linearGradient id="linear-gradient-31" x1="281.92" y1="278.46" x2="1988.95" y2="469.3" gradientTransform="matrix(1, 0, 0, 1, 0, 0)" xlink:href="#linear-gradient-15"/><linearGradient id="linear-gradient-32" x1="269.71" y1="387.73" x2="1976.74" y2="578.57" gradientTransform="matrix(1, 0, 0, 1, 0, 0)" xlink:href="#linear-gradient-15"/><linearGradient id="linear-gradient-33" x1="267.05" y1="411.5" x2="1974.08" y2="602.33" gradientTransform="matrix(1, 0, 0, 1, 0, 0)" xlink:href="#linear-gradient-15"/><linearGradient id="linear-gradient-34" x1="252.74" y1="539.48" x2="1959.77" y2="730.31" gradientTransform="matrix(1, 0, 0, 1, 0, 0)" xlink:href="#linear-gradient-15"/><linearGradient id="linear-gradient-35" x1="503.08" y1="382.21" x2="517.76" y2="774.37" gradientUnits="userSpaceOnUse"><stop offset="0" stop-color="#455b6b" stop-opacity="0"/><stop offset="1" stop-color="#455b6b"/></linearGradient><linearGradient id="linear-gradient-36" x1="462.51" y1="383.73" x2="477.19" y2="775.89" xlink:href="#linear-gradient-35"/><linearGradient id="linear-gradient-37" x1="349.32" y1="387.97" x2="364" y2="780.12" xlink:href="#linear-gradient-35"/><linearGradient id="linear-gradient-38" x1="646.69" y1="376.84" x2="661.36" y2="768.99" xlink:href="#linear-gradient-35"/><linearGradient id="linear-gradient-39" x1="581" y1="379.3" x2="595.68" y2="771.45" xlink:href="#linear-gradient-35"/><linearGradient id="linear-gradient-40" x1="411.99" y1="385.62" x2="426.67" y2="777.78" xlink:href="#linear-gradient-35"/><linearGradient id="linear-gradient-41" x1="685.49" y1="375.39" x2="700.17" y2="767.54" xlink:href="#linear-gradient-35"/><linearGradient id="linear-gradient-42" x1="705.94" y1="374.62" x2="720.62" y2="766.78" xlink:href="#linear-gradient-35"/><linearGradient id="linear-gradient-43" x1="620.03" y1="377.84" x2="634.71" y2="769.99" xlink:href="#linear-gradient-35"/><linearGradient id="linear-gradient-44" x1="444.53" y1="384.41" x2="459.21" y2="776.56" xlink:href="#linear-gradient-35"/><linearGradient id="linear-gradient-45" x1="290.77" y1="390.16" x2="305.45" y2="782.32" xlink:href="#linear-gradient-35"/><linearGradient id="linear-gradient-46" x1="332.61" y1="388.6" x2="347.29" y2="780.75" xlink:href="#linear-gradient-35"/><linearGradient id="linear-gradient-47" x1="213.31" y1="393.06" x2="227.99" y2="785.22" xlink:href="#linear-gradient-35"/><linearGradient id="linear-gradient-48" x1="315.73" y1="389.23" x2="330.41" y2="781.38" xlink:href="#linear-gradient-35"/></defs><g class="cls-1"><g id="Layer_1" data-name="Layer 1"><g class="cls-2"><path class="cls-3" d="M673,747.15s-2.1,13.84-21.56,11.28c0,0-10.62-9.41-22.17-5.25,0,0-18.24,3.15-14.46,23,0,0,2.62,19-10.76,23.63,0,0-13.67-1.38-11.93,11.38,0,0,.58,7.8-11.63,10.14,0,0-23.52-7-7.83,20.66,0,0,4.87,8.15-2.09,12.22,0,0-20.34,9.31-32.56-9.6,0,0-7.36-16.5-26.37-11.74,0,0-19.26,0-9.82,25.35,0,0,8.89,13.74,0,22.75,0,0-16.17,7.48-20-12.4a40.21,40.21,0,0,1,5.52-17.81s10.2-17.22-15.7-29.43a30.88,30.88,0,0,1-16.59-1.74s-13.67-17.18-30.25,1.74a17.06,17.06,0,0,1-1.51,2.28C407.78,846.09,392,838,392,838s-6.8-2.38-7.87-8.81c0,0-3.46-8.37,9.47-18,0,0,1.67-1.95,3.66-4.78a18,18,0,0,0,2-11.38s-11.45-16.46,3-30.42c0,0,12.42-3.78,10.38-15.71,0,0-5.54-17.31-21.89-15,0,0-35.4,1.54-40.35-31.9,0,0-3.18-17.06,19.06-17,0,0,31.39-2.21,48.78,33.57,0,0,11.84,12.72,23.34,5.78,0,0,12.95-8.4,3.35-23.82,0,0-22.69-28.59-8.14-46,0,0,22.24-11.17,46.54,12.16,0,0,2.62,4.71,7.27,5,0,0,3.54-1.82,7.74,6.51,0,0,8.47,15.67,25.24,8.23,0,0,11.84-8.15,5.14-28.46,0,0-1.75-12.18,13.08-14.29,0,0,34.62-2.9,47.42,34.52l7,19.09s4.91,12.8,25.56,12.8c0,0,9.9-.33,12.51-2.35,0,0,8.44-3.83,13.39,4.5,0,0,1.93,10-8.63,12.07,0,0-13.48-.84-17.27,3.24,0,0-11.34,5.71-2.9,13,0,0,4.38,2.95,20.51-2.28,0,0,12.93-9.54,24.42-4.48C663.79,733.93,673.84,737.55,673,747.15Z" transform="translate(-0.16 -0.05)"/><path class="cls-3" d="M458.31,910.37s.05-12.12,9.64-10.45c0,0,4.16,3.44.09,10.14a9,9,0,0,1-6.41,4.27S458.56,915,458.31,910.37Z" transform="translate(-0.16 -0.05)"/><path class="cls-3" d="M333.68,815.41s-2-3.69,5.08-4.36H339l.5,0a38.77,38.77,0,0,0,10.06-2.23c.95-.39,1.95-.83,3-1.35l.22-.12c.54-.25,1.07-.51,1.63-.8,0,0,14-5.25,20.44,3.21,0,0,4.43,8.38-21.93,11.14C352.9,820.86,339.34,821.54,333.68,815.41Z" transform="translate(-0.16 -0.05)"/><path class="cls-3" d="M655,672.44s-5.91-2.79-3.3-8.92c0,0,2.41-4.61,6.44-2.86,0,0,6.53,1.9,5.78,7.42C663.92,668.08,660.7,672.88,655,672.44Z" transform="translate(-0.16 -0.05)"/><path class="cls-4" d="M570.86,874.49c-1.38,4.86,6.57,7.21,6.57,7.21,5.76,2.55,5.15,6.06,5.15,6.06a40.11,40.11,0,0,0-1.13,5.25c-.49,5.14,8,6.72,8,6.72,6.49.44,6.91-3.82,6.91-3.82.53-5.23-3.51-8.52-5.93-10,0,0-5.19-4.34-6-8.78a5.63,5.63,0,0,0-.11-.94v0h0a6.34,6.34,0,0,0-2.91-3.92C571.74,867.65,570.86,874.49,570.86,874.49Zm13.65,6.65a4.61,4.61,0,0,1-.34-1.08Z" transform="translate(-0.16 -0.05)"/><path class="cls-4" d="M593.88,722S628.6,731,612,755.6c0,0-6.64,7-21.21,4.21,0,0-18.18-3.34-6.06,7.54,10.25,5.08,11.45,11.94,11.45,11.94,1.63,6.77-5.39,5.67-5.39,5.67a6.25,6.25,0,0,0-4-.41c-2.5,3.06-7.56,7.24-14.87,3.69,0,0-17.51-5-13.15,6.78,0,0,13.17,15.41,2.44,30.6,0,0-9.27,6.47-25.42-.51,0,0-17.71-17.7-25.51-.56,0,0-6.49,34-22.2,16.27,0,0-4.65-8.73-5.93-16.92,0,0-.41-7.95-4.76-9.48,0,0-6.12-1.92-8.29-6.55,0,0-2.1-5.27-9.77-5.91a33.94,33.94,0,0,0-8.81,1.14s-21.18,2.37-20.61-16.83a9.69,9.69,0,0,1,1.44-4.36s4.05-3.23-2.17-9.82c-1.11-1.06-2.44-2.22-4-3.49-.53-.4-1.07-.82-1.61-1.26-.71-.54-1.31-1-1.8-1.48-7.93-6.76-16.08-16.75-10-26,0,0,4.09-7.64,18.19-5.92,0,0,19.34,2.16,24.14-14.42a60.89,60.89,0,0,0,.43-28.8l47.3,21.64,10.3,49.92,46.69-59.45L550.28,689c-.81,7.21-2,14.25-2,14.25l-7.12,8.15L530.42,716l.91-33.6s9.28,1.83,15.54-5.33c0,0,7.91-20.83,33.59-15.93,0,0,9.31,1.12,13,13.06l0,0c3.09,6.42,5,5.75,5,5.75,6.69,3.4,5.69,10.86,5.69,10.86v0c-.06,5.54-5.39,7.73-5.39,7.73C594.13,700,590,705,590,705,586.25,709.42,581.61,717.64,593.88,722Z" transform="translate(-0.16 -0.05)"/><path class="cls-5" d="M576.58,752.29s-8.59.38-12.25-5.73a7.31,7.31,0,0,0-4-2.69c-9.42-.94-7.83,10.75-7.83,10.75h0a15.42,15.42,0,0,0,4.64,7.94s10.25,12,1.06,23.89c0,0-8.91,5.21-14.15-4.1,0,0-6.26-8.57-14.33-5.86a14.62,14.62,0,0,0-1.65.71,14.33,14.33,0,0,0-1.33.78l-.22.09c-5.63,3.68-6.25,10-6,13.7a29.57,29.57,0,0,1,.37,3h0a43.81,43.81,0,0,1,0,6.14c0,.13,0,.31,0,.52h0c-.24,2.36-1.61,9.51-9.35,11.44,0,0-5.71,0-5.47-8.14a6.13,6.13,0,0,0-1.57-4,3,3,0,0,0-3.69,1c-1.71,3.07-5.23,8.14-7.83,3.25,0,0-1.15-2.84-1.37-8.73a9.86,9.86,0,0,0-4.46-7.36,23.44,23.44,0,0,0-5.1-2.12s-21.86-2.62-21.42-19.48c0,0-2.41-17.19,19.31-28.37,0,0,5.42-3.19,5.49-9.37,0,0-.36-10.74-16.29-14,0,0-21.45-6-18.25-28.39,0,0,2.13-9.9,11.83-11.1,0,0,3.68-3.15,9.52,5.5,0,0,1.26,6.55,7.7,3.45,0,0,2.73-5.05,8-1.12,0,0,5.08,14,20.65,15.49,0,0,9.46.34,12.3-6.81,0,0,2.54-13.27,14.58-9.56,0,0,10.7,3.33,14-7,0,0,4.2-9,12.88-9.32,0,0,14.35,3.12,8.27,23.44,0,0-12,16.69,0,32.25,0,0,6.13,8.65,14,8.51,0,0,5.58.69,6.28,8C590.81,739,590.46,748.72,576.58,752.29Z" transform="translate(-0.16 -0.05)"/><path class="cls-5" d="M438.2,791.76s-5.37-5.14,0-10c0,0,3.71-2.68,7.89.89,0,0,4.48,2.91.53,9.16C446.62,791.76,441.32,794.88,438.2,791.76Z" transform="translate(-0.16 -0.05)"/><path class="cls-3" d="M422.64,646.2s-6.7-1.31-4.44-5.45c0,0,2.91-4.37,7.71-2,0,0,5.45,3.82,2,6.39C427.87,645.17,424.82,646.91,422.64,646.2Z" transform="translate(-0.16 -0.05)"/><path class="cls-3" d="M691.28,771.44s-7.26-.88-5.08-9.6c0,0,2.73-6.77,10.53-3.71a7.61,7.61,0,0,1,2.13,9.22A9.42,9.42,0,0,1,691.28,771.44Z" transform="translate(-0.16 -0.05)"/><path class="cls-4" d="M731.15,849.91s-16.59-14.47-17.89,28.58c0,0-.44,13.45-8.3,21.27,0,0-8.17,2-8.23,7.3,0,0-8.53,13.18-15.64-3,0,0-9.21-20.34-10.16-39.27,0,0-2.33-13.09-15.78-23.56,0,0-28.89-13.37-22-36.36A51.13,51.13,0,0,1,673,811.18s10.56,13.49,15.36,7a52.64,52.64,0,0,0-2.59-7s-6-8.29,5.49-7.87c0,0,6.65,2.16,9.3-5.25,0,0,2.2-12.19,11.37-11.11,0,0,3.49,1.12,3.92,8.07,0,0-1.12,7.9,8.39,8.08,0,0,24.23-3.3,32.58,6.3,0,0,9.65,23.17,17.51,28.6,0,0,16.74,10.67,14.26,29C788.61,867,782.65,879.08,731.15,849.91Z" transform="translate(-0.16 -0.05)"/><path class="cls-3" d="M623.49,963s-5.8-2.84-3.18,15c0,0-1.75,13.41-13.53,11.67,0,0-10.7-.44-10.37-18.76,0,0,4.34-14.77-2.53-20.37,0,0-12.6-9.15-11-18.61,0,0,5.11-9.09,23.44,3.16,0,0,8.29,2.6,7-8.28,0,0,.87-6.08,8.29-6.3,0,0,6.11,5.61,6.11,11.42a44.41,44.41,0,0,0,16.58,23.24s19.49,11.37,10.84,28.39c0,0-9.27,1.75-19.43-15.71C635.72,967.8,631,962.13,623.49,963Z" transform="translate(-0.16 -0.05)"/><path class="cls-4" d="M465.85,1027.58s-9.21-9.21-11.79-27c0,0,.6-14.22-5.81-3.49,0,0-12.68,27-30.05,27,0,0-10.12-4.36,0-22v1.09s3.88-4.8,3.07-8.73c0,0-3.43-9.16,5.29-11.78,0,0,8-.44,9.25-10.91,0,0,.52-16.2,12.44-16.61,0,0,11-1.28,5.81,17,0,0-5.24,12.22-.88,13.1,0,0,5.46-1.75,5.13-9.17,0,0,1.17-3.93,4.57-4.36,0,0,7.88-.44,6.95,20.94l.07,18.77S472,1028.89,465.85,1027.58Z" transform="translate(-0.16 -0.05)"/><path class="cls-5" d="M292.46,1023.77s-9.9,6.16-5.24-6.66c0,0,4.94-11.05-4.07-.58,0,0-11.93,9.6-17.75,6.69,0,0-2.69-5.82,7.67-18,0,0,6.88-11.63,18.51-11,0,0,3.49-.29,1.46,8.43,0,0-5.13,6.7.64,4.37,0,0,9-14.91,17.29-15.53.28-.16.42-.18.39,0C311.36,991.38,315.44,995.87,292.46,1023.77Z" transform="translate(-0.16 -0.05)"/><path class="cls-4" d="M290.13,935s-17.75-13.35-4.8-31.68a25.42,25.42,0,0,1,15.56-10.89s24.15.13,26.77-19.94c0,0-3.71-17.12,16-21.78,0,0,17.16-1.2,16,16.83,0,0-2.91,13,4.36,14.76a8.62,8.62,0,0,0,8.94-5.18,13.76,13.76,0,0,0,1-3.18s.65-8.14,9.78-7c0,0,9.61,2.91.94,19.35,0,0-8.12,10.15-8,19.4,0,0,2.28,9-5.62,13.32,0,0-4.12,2.33-5.29,6.4,0,0,.3,5.61-4.94,7.32,0,0-6.4,1.12-5.24-8.77s7.28-19.49,2-23c0,0-3.15-6.11-33,17.16C324.63,918.2,309,944.09,290.13,935Z" transform="translate(-0.16 -0.05)"/><path class="cls-3" d="M249.69,877.18s-11.3,15.94-14.09,23.53c0,0-4.82,13.54-11.8,6.35,0,0-5.1-9.81-3.51-18.5h0a10.55,10.55,0,0,0-.19-3.52c-1.67-2.91-6-1.16-6-1.16s-16.73,6.86-20.22,10c0,0-15.71,10.46-15.42-4.41,0,0,0-27.09,32-29.13,0,0,11.93.58,17.45-5.53a3.42,3.42,0,0,1,2.49-.95v0c4.21.76,2.18,6.23,2.18,6.23s-3.2,5.24,2.91,6.69c0,0,3.47,1,7-3.45,0-.14,1.25-5,7.27-3.24C249.69,860,256.38,865.26,249.69,877.18Z" transform="translate(-0.16 -0.05)"/><path class="cls-4" d="M238.8,866.24a7.89,7.89,0,0,0,3.4-3.35s1.75-4.73,7.49-2.87c0,0,3.91,2.25,3,8.73a22.58,22.58,0,0,1-2.86,8.22" transform="translate(-0.16 -0.05)"/><path class="cls-5" d="M371.87,748.16s-1.45,5.37-11.34,5c0,0-4.8.08-5.09,4.44,0,0-.39,3.2,4.75,7.71,0,0,6.8,4.47,3,10.45a15.6,15.6,0,0,0-2.94,2.36s-6.55,4.35-9.17-5.25c0,0,.18-10-19-3.63a83,83,0,0,1-19.94,6.4,13.74,13.74,0,0,0-9.16,7.7s-8.29,13.24-22.4,8.73c0,0-13.67-7.56-4.07-23.85,0,0,8.72-18.38,29.52-16.9,0,0,9.72,1.62,8.72-5h0c-.83-1.82-3.11-3.7-8.72-4.47,0,0-14.4.18-17-11.61,0,0-5.82-20.65,7.7-32.14,0,0,10.33-8.15,22.84,7.42,0,0,3.78,9.6,9.75,13.52a44.3,44.3,0,0,1,16,24.8s.47,3.71,3.14,4.15c0,0,5,.44,6.75-4.15,0,0,3.92-3.81,11.05-2.74C366.2,741.13,372.6,741.47,371.87,748.16Z" transform="translate(-0.16 -0.05)"/></g><path class="cls-6" d="M572.63,842c-15.69-27.63,7.83-20.66,7.83-20.66,12.21-2.34,11.63-10.14,11.63-10.14C590.35,798.42,604,799.8,604,799.8c13.38-4.65,10.76-23.63,10.76-23.63-3.78-19.84,14.46-23,14.46-23,11.55-4.16,22.17,5.25,22.17,5.25C670.87,761,673,747.15,673,747.15c.88-9.6-9.17-13.22-9.17-13.22-11.49-5.06-24.42,4.48-24.42,4.48-16.13,5.23-20.51,2.28-20.51,2.28-8.44-7.32,2.9-13,2.9-13,3.79-4.08,17.26-3.24,17.26-3.24,10.57-2.08,8.64-12.07,8.64-12.07-4.95-8.33-13.39-4.5-13.39-4.5-2.61,2-12.51,2.35-12.51,2.35-15.77,0-22.35-7.46-24.59-11a14.65,14.65,0,0,1,1.61-.65s5.33-2.19,5.39-7.73v0s1-7.46-5.69-10.86c0,0-1.9.67-5-5.75l0,0c-3.71-11.94-13-13.06-13-13.06l-.53-.09c-15.44-19.18-38.17-17.28-38.17-17.28-14.83,2.11-13.08,14.29-13.08,14.29,4.61,14,.44,22.18-2.6,25.95a10.63,10.63,0,0,0-2.54,2.51h0c-16.77,7.44-25.24-8.23-25.24-8.23-4.2-8.33-7.74-6.51-7.74-6.51-4.65-.29-7.27-5-7.27-5-24.3-23.33-46.54-12.16-46.54-12.16-14.55,17.37,8.14,46,8.14,46,9.6,15.42-3.35,23.82-3.35,23.82-11.5,6.94-23.34-5.78-23.34-5.78-17.39-35.78-48.78-33.57-48.78-33.57-22.24-.1-19.06,17-19.06,17,4.95,33.44,40.35,31.9,40.35,31.9C401,732.46,407,738.73,410,743.6c-1.06,3.93,0,7.9,2.24,11.6-2.19,7-10,9.4-10,9.4-14.45,14-3,30.42-3,30.42a18,18,0,0,1-2,11.38c-2,2.83-3.66,4.78-3.66,4.78-12.93,9.64-9.47,18-9.47,18C385.15,835.62,392,838,392,838s15.83,8.09,31.36-14.4a17.06,17.06,0,0,0,1.51-2.28c16.58-18.92,30.25-1.74,30.25-1.74a30.88,30.88,0,0,0,16.59,1.74,40.28,40.28,0,0,1,11.74,7.93,71.2,71.2,0,0,0,4.69,11.57c.42.47.83.9,1.24,1.3a17.5,17.5,0,0,1-2,8.63,40.21,40.21,0,0,0-5.52,17.81c3.78,19.88,20,12.4,20,12.4,8.89-9,0-22.75,0-22.75-2-5.3-2.68-9.48-2.58-12.8,3.92-1.66,6.71-7,8.52-11.87a14.32,14.32,0,0,1,3.88-.68c19-4.76,26.37,11.74,26.37,11.74,12.22,18.91,32.56,9.6,32.56,9.6C577.5,850.13,572.63,842,572.63,842Z" transform="translate(-0.16 -0.05)"/><path class="cls-7" d="M461.63,914.33a9,9,0,0,0,6.41-4.27c4.07-6.7-.09-10.14-.09-10.14-9.59-1.67-9.64,10.45-9.64,10.45C458.56,915,461.63,914.33,461.63,914.33Z" transform="translate(-0.16 -0.05)"/><path class="cls-8" d="M333.68,815.41c5.66,6.13,19.22,5.45,19.22,5.45,26.36-2.76,21.93-11.14,21.93-11.14-6.45-8.46-20.44-3.21-20.44-3.21-.56.29-1.09.55-1.63.8l-.22.12c-1.08.52-2.08,1-3,1.35A38.77,38.77,0,0,1,339.45,811l-.5,0h-.19C331.71,811.72,333.68,815.41,333.68,815.41Z" transform="translate(-0.16 -0.05)"/><path class="cls-9" d="M655,672.44c5.7.44,8.92-4.36,8.92-4.36.75-5.52-5.78-7.42-5.78-7.42-4-1.75-6.44,2.86-6.44,2.86C649.09,669.65,655,672.44,655,672.44Z" transform="translate(-0.16 -0.05)"/><path class="cls-10" d="M581.45,893c-.49,5.14,8,6.72,8,6.72,6.49.44,6.91-3.82,6.91-3.82.53-5.23-3.51-8.52-5.93-10,0,0-5.19-4.34-6-8.78a5.63,5.63,0,0,0-.11-.94v0h0a6.34,6.34,0,0,0-2.91-3.92c-9.65-4.58-10.53,2.26-10.53,2.26-1.38,4.86,6.57,7.21,6.57,7.21,5.76,2.55,5.15,6.06,5.15,6.06A40.11,40.11,0,0,0,581.45,893Zm3.06-11.87a4.61,4.61,0,0,1-.34-1.08Z" transform="translate(-0.16 -0.05)"/><path class="cls-11" d="M422.64,646.2c2.18.71,5.23-1,5.23-1,3.49-2.57-2-6.39-2-6.39-4.8-2.4-7.71,2-7.71,2C415.94,644.89,422.64,646.2,422.64,646.2Z" transform="translate(-0.16 -0.05)"/><path class="cls-12" d="M691.28,771.44a9.42,9.42,0,0,0,7.58-4.09,7.61,7.61,0,0,0-2.13-9.22c-7.8-3.06-10.53,3.71-10.53,3.71C684,770.56,691.28,771.44,691.28,771.44Z" transform="translate(-0.16 -0.05)"/><path class="cls-13" d="M774.35,838c-7.86-5.43-17.51-28.6-17.51-28.6-8.35-9.6-32.58-6.3-32.58-6.3-9.51-.18-8.39-8.08-8.39-8.08C715.44,788.07,712,787,712,787c-9.17-1.08-11.37,11.11-11.37,11.11-2.65,7.41-9.3,5.25-9.3,5.25-11.5-.42-5.49,7.87-5.49,7.87a52.64,52.64,0,0,1,2.59,7c-4.8,6.54-15.36-7-15.36-7a51.13,51.13,0,0,0-39.92-6.28c-6.84,23,22,36.36,22,36.36,13.45,10.47,15.78,23.56,15.78,23.56,1,18.93,10.16,39.27,10.16,39.27,7.11,16.15,15.64,3,15.64,3,.06-5.32,8.23-7.3,8.23-7.3,7.86-7.82,8.3-21.27,8.3-21.27,1.3-43,17.89-28.58,17.89-28.58,51.5,29.17,57.46,17.09,57.46,17.09C791.09,848.67,774.35,838,774.35,838Z" transform="translate(-0.16 -0.05)"/><path class="cls-14" d="M644.31,955.12a44.41,44.41,0,0,1-16.58-23.24c0-5.81-6.11-11.42-6.11-11.42-7.42.22-8.29,6.3-8.29,6.3,1.31,10.88-7,8.28-7,8.28-18.33-12.25-23.45-3.16-23.45-3.16-1.62,9.46,11,18.61,11,18.61,6.87,5.6,2.53,20.37,2.53,20.37-.33,18.32,10.37,18.76,10.37,18.76,11.78,1.74,13.53-11.67,13.53-11.67-2.62-17.79,3.18-15,3.18-15,7.54-.87,12.23,4.8,12.23,4.8,10.16,17.46,19.43,15.71,19.43,15.71C663.8,966.49,644.31,955.12,644.31,955.12Z" transform="translate(-0.16 -0.05)"/><path class="cls-15" d="M469.83,992.67c.93-21.38-6.95-20.94-6.95-20.94-3.4.43-4.57,4.36-4.57,4.36.33,7.42-5.13,9.17-5.13,9.17-4.36-.88.88-13.1.88-13.1,5.23-18.32-5.81-17-5.81-17-11.92.41-12.44,16.61-12.44,16.61-1.22,10.47-9.25,10.91-9.25,10.91-8.72,2.62-5.29,11.78-5.29,11.78.81,3.93-3.07,8.73-3.07,8.73v-1.09c-10.12,17.67,0,22,0,22,17.37,0,30.05-27,30.05-27,6.41-10.73,5.81,3.49,5.81,3.49,2.58,17.84,11.79,27,11.79,27,6.11,1.31,4-16.14,4-16.14Z" transform="translate(-0.16 -0.05)"/><path class="cls-16" d="M311,991.4c-8.33.62-17.29,15.53-17.29,15.53-5.77,2.33-.64-4.37-.64-4.37,2-8.72-1.46-8.43-1.46-8.43-11.63-.58-18.51,11-18.51,11-10.36,12.22-7.67,18-7.67,18,5.82,2.91,17.75-6.69,17.75-6.69,9-10.47,4.07.58,4.07.58-4.66,12.82,5.24,6.66,5.24,6.66,23-27.9,18.9-32.39,18.9-32.39C311.39,991.22,311.25,991.24,311,991.4Z" transform="translate(-0.16 -0.05)"/><path class="cls-17" d="M383.69,867c-9.13-1.16-9.78,7-9.78,7a13.76,13.76,0,0,1-1,3.18,8.62,8.62,0,0,1-8.94,5.18c-7.27-1.74-4.36-14.76-4.36-14.76,1.16-18-16-16.83-16-16.83-19.71,4.66-16,21.78-16,21.78-2.62,20.07-26.77,19.94-26.77,19.94a25.42,25.42,0,0,0-15.56,10.89c-12.95,18.33,4.8,31.68,4.8,31.68,18.91,9.05,34.5-16.84,34.5-16.84,29.84-23.27,33-17.16,33-17.16,5.24,3.49-.87,13.09-2,23s5.24,8.77,5.24,8.77c5.24-1.71,4.95-7.32,4.95-7.32,1.16-4.07,5.28-6.4,5.28-6.4,7.9-4.36,5.62-13.32,5.62-13.32-.16-9.25,8-19.4,8-19.4C393.3,869.91,383.69,867,383.69,867Z" transform="translate(-0.16 -0.05)"/><path class="cls-18" d="M249.69,860c-5.74-1.86-7.49,2.87-7.49,2.87a7.7,7.7,0,0,1-3.32,3.31,5.44,5.44,0,0,1-3.44.51c-6.11-1.45-2.91-6.69-2.91-6.69s2-5.47-2.18-6.23v0a3.42,3.42,0,0,0-2.49.95c-5.52,6.11-17.45,5.53-17.45,5.53-32,2-32,29.13-32,29.13-.29,14.87,15.42,4.41,15.42,4.41,3.49-3.12,20.22-10,20.22-10s4.37-1.75,6,1.16a10.55,10.55,0,0,1,.19,3.52h0c-1.59,8.69,3.51,18.5,3.51,18.5,7,7.19,11.8-6.35,11.8-6.35,2.79-7.59,14.09-23.53,14.09-23.53l.12-.21h0a22.58,22.58,0,0,0,2.86-8.22C253.6,862.27,249.69,860,249.69,860Z" transform="translate(-0.16 -0.05)"/><path class="cls-19" d="M280.53,792.09c14.11,4.51,22.4-8.73,22.4-8.73a13.74,13.74,0,0,1,9.16-7.7,83,83,0,0,0,19.94-6.4c19.22-6.4,19,3.63,19,3.63,2.62,9.6,9.17,5.25,9.17,5.25a15.6,15.6,0,0,1,2.94-2.36c3.81-6-3-10.45-3-10.45-5.14-4.51-4.75-7.71-4.75-7.71.29-4.36,5.09-4.44,5.09-4.44,9.89.35,11.34-5,11.34-5,.73-6.69-5.67-7-5.67-7-7.13-1.07-11.05,2.74-11.05,2.74-1.75,4.59-6.75,4.15-6.75,4.15-2.67-.44-3.14-4.15-3.14-4.15a44.3,44.3,0,0,0-16-24.8c-6-3.92-9.75-13.52-9.75-13.52-12.51-15.57-22.84-7.42-22.84-7.42-13.52,11.49-7.71,32.14-7.71,32.14,2.62,11.79,17,11.61,17,11.61,5.61.77,7.89,2.65,8.72,4.47h0c1,6.61-8.72,5-8.72,5-20.8-1.48-29.52,16.9-29.52,16.9C266.86,784.53,280.53,792.09,280.53,792.09Z" transform="translate(-0.16 -0.05)"/><rect class="cls-20" width="53"/><rect class="cls-21" x="974" y="1172" width="53"/><g class="cls-22"><path class="cls-23" d="M808.4,653.94l.45-.22L768,633.09V609.65l.69-.35-.45-.22h-1.38l-69.58-11.72L656.9,577l-.45-.23H574.79L505.2,565l-.69-.35h-.9l-.69.35-69.59,11.72H351.67l-40.84,20.63-69.58,11.72h-1.39l-.44.22.69.35v23.44l-40.39,20.4-.45.23,40.84,20.62v23.44l-.69.35.44.23h1.39l69.58,11.71,40.39,20.41.45.22h81.66l69.59,11.72.69.35h.9l.69-.35,69.59-11.72h81.66l40.84-20.63,69.58-11.71h1.38l.45-.23-.69-.35V674.35ZM590.63,697.45H417.49l-86.56-43.73L417.49,610H590.63l86.56,43.74Zm46.75-65.66,93.35-15.72,10.49,5.3L679,652.81Zm91.8-16.51L635.83,631l-41.61-21H718.68Zm-140.35-6.2H505.62V577.64h21ZM502.5,577.64v31.44H419.29l62.23-31.44ZM413.9,610l-41.61,21-93.35-15.72,10.49-5.3Zm-136.51,6.09,93.34,15.72-41.6,21L266.9,621.37Zm51.74,38.55,41.6,21-93.34,15.72-10.49-5.3Zm-50.19,37.53,93.35-15.72,41.61,21H289.43Zm140.35,6.21H502.5v31.43h-21Zm86.33,31.43V698.36h83.21L526.6,729.79Zm88.6-32.34,41.61-21,93.35,15.72-10.5,5.3Zm136.51-6.09-93.35-15.72,41.61-21,62.23,31.44Zm2.7-75.74,28.77-4.85L743,620.46Zm-1.56-.79L722.28,610h38.37Zm-226.25-38.1V567l19.18,9.69Zm-3.12,0H483.32L502.5,567Zm-226.25,38.1L247.47,610h38.37Zm-1.56.79-9.59,4.84-19.18-9.69Zm0,76.2-28.77,4.84L265.1,687Zm1.56.78,9.59,4.85H247.47ZM502.5,730.7v9.69l-19.18-9.69Zm3.12,0H524.8l-19.18,9.69Zm226.25-38.1,28.78,4.85H722.28Zm1.56-.78L743,687l19.18,9.69Zm-141-82.74-62.23-31.44H574L695,598l21.88,11.06Zm-176.72,0H291.23L313.11,598l121.06-20.38h43.76Zm-88.37,44.64L265.1,685.15l-21.88-11V633.33l21.88-11.05Zm88.37,44.64,62.23,31.43H434.17L313.11,709.41l-21.88-11Zm176.72,0H716.89l-21.88,11L574,729.79H530.19Zm88.37-44.64L743,622.28l21.88,11.05V674.1l-21.88,11ZM768,634.9l37.24,18.82L768,672.53Zm-23.19-13.53,20.08-10.15v20.3Zm-24.34-12.29L700.4,598.93l60.25,10.15Zm-140.3-31.44h74.48l37.23,18.81Zm-51.79-.91-20.08-10.15,60.25,10.15Zm-48.67,0H439.56l60.25-10.15Zm-163.5,19.72,37.24-18.81h74.48Zm-28.58,12.63H247.47l60.25-10.15ZM263.3,621.37l-20.08,10.15v-20.3Zm-23.19,51.16-37.24-18.81,37.24-18.82Zm23.19,13.53-20.08,10.15V675.92Zm24.34,12.3,20.08,10.14-60.25-10.14Zm140.3,31.43H353.46L316.22,711Zm51.78.91,20.09,10.15L439.56,730.7Zm48.67,0h40.17l-60.25,10.15ZM691.89,711l-37.23,18.81H580.18Zm28.59-12.62h40.17L700.4,708.5Zm24.34-12.3,20.08-10.14v20.29Z" transform="translate(-0.16 -0.05)"/><path class="cls-24" d="M584.73,613H423.38l-80.22,40.53-.45.23,80.22,40.52.45.23H584.73L665,653.94l.45-.22-80.23-40.53Zm-220.4,40.76c0,4.36,2.37,8.56,6.74,12.51L346.3,653.72l24.77-12.52C366.7,645.15,364.33,649.35,364.33,653.72Zm3.11,0c0-22,61.29-39.85,136.62-39.85s136.62,17.87,136.62,39.85-61.29,39.84-136.62,39.84S367.44,675.69,367.44,653.72Zm276.35,0c0-4.37-2.37-8.57-6.74-12.52l24.77,12.52-24.77,12.51C641.42,662.28,643.79,658.08,643.79,653.72ZM533.42,613.87h49.52l24.94,12.6C588.54,620.21,562.66,615.7,533.42,613.87Zm-133.18,12.6,24.94-12.6H474.7C445.45,615.7,419.58,620.21,400.24,626.47Zm74.46,67.09H425.18L400.24,681C419.58,687.22,445.45,691.73,474.7,693.56ZM607.88,681l-24.94,12.6H533.42C562.66,691.73,588.54,687.23,607.88,681Z" transform="translate(-0.16 -0.05)"/><path class="cls-25" d="M504.06,666.48c23.9,0,43.35-5.68,43.35-12.65S528,641.19,504.06,641.19s-43.35,5.67-43.35,12.64S480.16,666.48,504.06,666.48Zm0-22.57c18.75,0,34,4.45,34,9.92s-15.26,9.92-34,9.92-34-4.45-34-9.92S485.31,643.91,504.06,643.91Z" transform="translate(-0.16 -0.05)"/><path class="cls-25" d="M562.35,653.83c0-9.37-26.15-17-58.29-17s-58.3,7.63-58.3,17,26.16,17,58.3,17S562.35,663.21,562.35,653.83Zm-58.29-16.09c30.43,0,55.18,7.22,55.18,16.09s-24.75,16.1-55.18,16.1-55.18-7.22-55.18-16.1S473.63,637.74,504.06,637.74Z" transform="translate(-0.16 -0.05)"/></g><g class="cls-26"><path class="cls-27" d="M504.44,506.8c.61,3,1,5.92,1.53,8.88l.63,4.43.51,4.44c.16,1.47.47,3,.72,4.43a13.78,13.78,0,0,1,0,4.44,23.4,23.4,0,0,1-1.12,4.43,17.18,17.18,0,0,1-2.31,4.44h-.76a17.23,17.23,0,0,1-2.32-4.44,23.36,23.36,0,0,1-1.11-4.43,14.07,14.07,0,0,1,0-4.44c.26-1.48.57-3,.73-4.43l.51-4.44.63-4.43c.52-3,.92-5.92,1.53-8.88Z" transform="translate(-0.16 -0.05)"/><path class="cls-27" d="M417,509c2.36,2.88,4.52,5.77,6.78,8.66L427,522l3.15,4.34c1,1.45,2.22,2.89,3.35,4.33a21.36,21.36,0,0,1,2.68,4.37,25.34,25.34,0,0,1,1.54,4.43,12.56,12.56,0,0,1,.36,4.48l-.75,0a38.16,38.16,0,0,1-4.92-4.25,46.57,46.57,0,0,1-3.74-4.31,20.87,20.87,0,0,1-2.6-4.37c-.63-1.47-1.21-2.94-1.93-4.41L422,522.27l-2-4.4c-1.26-2.94-2.62-5.87-3.78-8.81Z" transform="translate(-0.16 -0.05)"/><path class="cls-27" d="M332.14,515.63c4,2.71,7.89,5.45,11.84,8.18l5.79,4.1,5.69,4.12c1.88,1.37,3.9,2.73,5.88,4.1a46.63,46.63,0,0,1,5.23,4.16,50.16,50.16,0,0,1,4.15,4.28,21,21,0,0,1,3,4.4L373,549a81.79,81.79,0,0,1-7.37-3.93q-3.35-2-6.25-4.06a46.66,46.66,0,0,1-5.17-4.17c-1.49-1.42-2.94-2.83-4.52-4.24L345,528.42l-4.6-4.23c-3-2.83-6.08-5.65-9-8.49Z" transform="translate(-0.16 -0.05)"/><path class="cls-27" d="M252.54,526.43c5.6,2.47,11,5,16.53,7.46l8.15,3.75,8,3.77c2.67,1.25,5.47,2.49,8.23,3.73s5.3,2.52,7.63,3.84,4.56,2.64,6.64,4a47.15,47.15,0,0,1,5.6,4.18l-.66.11c-3.48-1.12-6.6-2.3-9.61-3.5s-5.84-2.43-8.57-3.68-5.25-2.53-7.57-3.85-4.58-2.64-7-3.94l-7.16-3.92-7.05-3.93c-4.63-2.64-9.35-5.26-13.89-7.91Z" transform="translate(-0.16 -0.05)"/><path class="cls-27" d="M180.58,541.1c7,2.15,13.81,4.34,20.72,6.51l10.26,3.28,10.16,3.3c3.39,1.11,6.88,2.18,10.33,3.27s6.73,2.21,9.81,3.39,6.06,2.37,8.92,3.6,5.58,2.5,8,3.83l-.59.15c-4.09-.93-7.87-1.94-11.54-3s-7.21-2.09-10.63-3.18-6.68-2.23-9.75-3.41-6.09-2.37-9.22-3.53l-9.38-3.5-9.29-3.51c-6.13-2.36-12.33-4.7-18.38-7.08Z" transform="translate(-0.16 -0.05)"/><path class="cls-28" d="M118.45,559.2c8.16,1.76,16.18,3.57,24.28,5.36l12.05,2.71,12,2.74c4,.91,8.07,1.79,12.12,2.68s7.93,1.85,11.67,2.85,7.39,2,10.93,3.1,7,2.17,10.16,3.37l-.49.17c-4.58-.71-8.9-1.51-13.13-2.34s-8.35-1.7-12.37-2.6-7.9-1.85-11.63-2.86-7.4-2-11.18-3l-11.32-3-11.24-3c-7.44-2-15-4-22.32-6Z" transform="translate(-0.16 -0.05)"/><path class="cls-28" d="M68,580.16c9.08,1.33,18.06,2.71,27.1,4.05l13.48,2.06,13.43,2.09c4.47.7,9,1.36,13.53,2s8.91,1.41,13.19,2.2,8.48,1.63,12.61,2.5,8.17,1.79,12,2.81l-.38.19c-4.94-.47-9.66-1-14.33-1.64s-9.22-1.25-13.73-1.93-8.88-1.43-13.15-2.23-8.49-1.62-12.8-2.4l-12.92-2.35-12.85-2.37c-8.52-1.61-17.1-3.19-25.58-4.82Z" transform="translate(-0.16 -0.05)"/><path class="cls-28" d="M30.87,603.37c9.73.84,19.4,1.74,29.1,2.61l14.5,1.35,14.47,1.37c4.82.46,9.69.88,14.54,1.32s9.62.94,14.3,1.51,9.33,1.17,13.91,1.82,9.11,1.35,13.5,2.15l-.27.21c-5.13-.21-10.13-.53-15.08-.88s-9.83-.77-14.67-1.21-9.59-1-14.27-1.53-9.34-1.17-14.05-1.72l-14.11-1.65L58.67,607c-9.36-1.16-18.74-2.28-28.06-3.46Z" transform="translate(-0.16 -0.05)"/><path class="cls-28" d="M8.08,628.1c10.09.33,20.14.73,30.22,1.1l15.08.59,15.07.62c5,.21,10.06.38,15.1.56s10,.44,15,.76,9.88.68,14.78,1.09,9.77.87,14.58,1.44l-.14.22c-5.18,0-10.29,0-15.37-.11s-10.14-.26-15.17-.45-10-.45-15-.78-9.89-.67-14.85-1l-14.89-.92-14.87-1c-9.89-.66-19.8-1.29-29.68-2Z" transform="translate(-0.16 -0.05)"/><path class="cls-28" d="M.36,653.61c10.14-.18,20.28-.3,30.42-.45L46,653l15.21-.15c5.07-.05,10.14-.14,15.21-.21s10.13-.08,15.2,0,10.14.18,15.21.33,10.14.36,15.2.68v.22c-5.06.32-10.13.51-15.2.67s-10.14.26-15.21.33-10.14.06-15.2,0-10.14-.17-15.21-.21L46,654.46l-15.2-.19c-10.14-.15-20.28-.26-30.42-.44Z" transform="translate(-0.16 -0.05)"/><path class="cls-28" d="M8,679.12c9.88-.69,19.79-1.32,29.68-2l14.87-.95,14.89-.92c5-.3,9.9-.65,14.85-1s9.93-.59,15-.78,10.08-.34,15.17-.45,10.19-.16,15.37-.1l.14.22c-4.81.57-9.68,1-14.58,1.43s-9.83.77-14.78,1.09-10,.57-15,.76-10.08.35-15.1.56l-15.07.63-15.08.58c-10.08.37-20.13.77-30.22,1.11Z" transform="translate(-0.16 -0.05)"/><path class="cls-29" d="M30.61,703.86c9.32-1.18,18.7-2.3,28.06-3.45l14.07-1.69,14.11-1.66c4.71-.55,9.37-1.14,14.05-1.72s9.43-1.08,14.27-1.52,9.73-.85,14.67-1.21,9.95-.68,15.08-.89l.27.21c-4.39.81-8.93,1.5-13.5,2.15s-9.22,1.26-13.91,1.83-9.46,1.06-14.3,1.5-9.72.86-14.54,1.32l-14.47,1.38L60,701.45c-9.7.87-19.37,1.77-29.1,2.62Z" transform="translate(-0.16 -0.05)"/><path class="cls-29" d="M67.65,727.08c8.48-1.64,17.06-3.22,25.58-4.82l12.85-2.38L119,717.53c4.31-.78,8.54-1.6,12.8-2.4s8.65-1.55,13.15-2.23,9.08-1.33,13.73-1.93,9.39-1.17,14.33-1.64l.38.2c-3.84,1-7.9,1.92-12,2.8s-8.33,1.7-12.61,2.5-8.68,1.53-13.19,2.21-9.06,1.33-13.53,2l-13.43,2.09-13.48,2.06c-9,1.35-18,2.72-27.1,4Z" transform="translate(-0.16 -0.05)"/><path class="cls-29" d="M118,748.06c7.37-2,14.88-4,22.32-6l11.24-3,11.32-3c3.78-1,7.47-2,11.18-3s7.6-2,11.63-2.86,8.14-1.77,12.37-2.6,8.55-1.63,13.13-2.33l.49.17c-3.18,1.19-6.63,2.29-10.16,3.36s-7.19,2.11-10.93,3.11-7.64,1.94-11.67,2.84-8.13,1.77-12.12,2.69l-12,2.73-12.05,2.71c-8.1,1.79-16.12,3.6-24.28,5.36Z" transform="translate(-0.16 -0.05)"/><path class="cls-29" d="M180,766.19c6.05-2.38,12.25-4.72,18.38-7.09l9.29-3.51,9.38-3.5c3.13-1.16,6.16-2.35,9.22-3.53s6.31-2.31,9.75-3.4,7-2.16,10.63-3.19,7.45-2,11.54-3l.59.15c-2.42,1.34-5.16,2.59-8,3.83s-5.84,2.43-8.92,3.61-6.36,2.3-9.81,3.39-6.94,2.16-10.33,3.26l-10.16,3.3-10.26,3.28c-6.91,2.17-13.74,4.36-20.72,6.51Z" transform="translate(-0.16 -0.05)"/><path class="cls-29" d="M251.88,780.89c4.54-2.65,9.26-5.27,13.89-7.9l7.05-3.94,7.16-3.91c2.4-1.31,4.67-2.63,7-3.95s4.83-2.6,7.57-3.85,5.58-2.47,8.57-3.67,6.13-2.39,9.61-3.51l.66.11a47.15,47.15,0,0,1-5.6,4.18c-2.08,1.36-4.3,2.69-6.64,4s-4.89,2.59-7.63,3.83-5.56,2.48-8.23,3.74l-8,3.76-8.15,3.75c-5.52,2.49-10.93,5-16.53,7.46Z" transform="translate(-0.16 -0.05)"/><path class="cls-29" d="M331.43,791.73c2.89-2.84,6-5.66,9-8.49L345,779l4.72-4.22c1.58-1.4,3-2.82,4.52-4.24a47.84,47.84,0,0,1,5.17-4.17q2.91-2.05,6.25-4.06a81.79,81.79,0,0,1,7.37-3.93l.72.07a21,21,0,0,1-3,4.4,50.16,50.16,0,0,1-4.15,4.28,47.82,47.82,0,0,1-5.23,4.17c-2,1.36-4,2.72-5.88,4.09l-5.69,4.12-5.79,4.1c-4,2.73-7.8,5.47-11.84,8.19Z" transform="translate(-0.16 -0.05)"/><path class="cls-29" d="M416.22,798.38c1.16-3,2.52-5.88,3.78-8.82l2-4.4,2.13-4.39c.72-1.46,1.3-2.94,1.93-4.4a20.62,20.62,0,0,1,2.6-4.37,45.39,45.39,0,0,1,3.74-4.32,39,39,0,0,1,4.92-4.25l.75,0a12.63,12.63,0,0,1-.36,4.49,25.53,25.53,0,0,1-1.54,4.42,21.36,21.36,0,0,1-2.68,4.37c-1.13,1.44-2.31,2.88-3.35,4.33L427,785.42l-3.26,4.34c-2.26,2.88-4.42,5.77-6.78,8.66Z" transform="translate(-0.16 -0.05)"/><path class="cls-29" d="M503.68,800.63c-.61-3-1-5.92-1.53-8.87l-.63-4.44-.51-4.43c-.16-1.48-.47-3-.73-4.44a14,14,0,0,1,0-4.43,23.27,23.27,0,0,1,1.11-4.44,17,17,0,0,1,2.32-4.43h.76a17,17,0,0,1,2.31,4.43,23.31,23.31,0,0,1,1.12,4.44,13.72,13.72,0,0,1,0,4.43c-.25,1.48-.56,3-.72,4.44l-.51,4.43-.63,4.44c-.52,3-.92,5.91-1.53,8.87Z" transform="translate(-0.16 -0.05)"/><path class="cls-29" d="M591.15,798.42c-2.36-2.89-4.52-5.78-6.78-8.66l-3.26-4.34L578,781.08c-1-1.45-2.22-2.89-3.36-4.33a21.75,21.75,0,0,1-2.67-4.37,25.53,25.53,0,0,1-1.54-4.42,12.63,12.63,0,0,1-.36-4.49l.75,0a39,39,0,0,1,4.92,4.25,45.39,45.39,0,0,1,3.74,4.32,21,21,0,0,1,2.6,4.37c.63,1.46,1.21,2.94,1.93,4.4l2.13,4.39,2,4.4c1.26,2.94,2.62,5.87,3.78,8.82Z" transform="translate(-0.16 -0.05)"/><path class="cls-29" d="M676,791.81c-4-2.72-7.89-5.46-11.84-8.19l-5.79-4.1-5.69-4.12c-1.88-1.37-3.9-2.73-5.88-4.09a49,49,0,0,1-5.24-4.17,53.4,53.4,0,0,1-4.15-4.28,20.58,20.58,0,0,1-3-4.4l.71-.07a80.69,80.69,0,0,1,7.38,3.93q3.35,2,6.25,4.06a47.84,47.84,0,0,1,5.17,4.17c1.49,1.42,2.94,2.84,4.52,4.24l4.71,4.22,4.61,4.23c3,2.83,6.08,5.65,9,8.49Z" transform="translate(-0.16 -0.05)"/><path class="cls-29" d="M755.58,781c-5.6-2.47-11-5-16.53-7.46l-8.15-3.75-8-3.76c-2.67-1.26-5.47-2.5-8.23-3.74s-5.3-2.52-7.63-3.83-4.56-2.65-6.64-4a47.15,47.15,0,0,1-5.6-4.18l.66-.11c3.48,1.12,6.6,2.3,9.61,3.51s5.84,2.43,8.57,3.67,5.25,2.53,7.57,3.85,4.58,2.64,7,3.95l7.15,3.91,7.06,3.94c4.63,2.63,9.35,5.25,13.89,7.9Z" transform="translate(-0.16 -0.05)"/><path class="cls-29" d="M827.54,766.33c-7-2.15-13.81-4.34-20.72-6.51l-10.26-3.28-10.17-3.3c-3.38-1.1-6.87-2.18-10.33-3.26s-6.72-2.22-9.8-3.39-6.06-2.38-8.92-3.61-5.58-2.49-8-3.83l.58-.15c4.1.93,7.87,1.94,11.55,3s7.2,2.1,10.63,3.19,6.68,2.22,9.75,3.4,6.08,2.37,9.22,3.53l9.38,3.5,9.29,3.51c6.12,2.37,12.33,4.71,18.38,7.09Z" transform="translate(-0.16 -0.05)"/><path class="cls-29" d="M889.67,748.23c-8.16-1.76-16.18-3.57-24.28-5.36l-12-2.71-12-2.73c-4-.92-8.07-1.8-12.12-2.69s-7.94-1.84-11.67-2.84-7.39-2-10.93-3.11-7-2.17-10.16-3.36l.49-.17c4.58.7,8.9,1.5,13.13,2.33s8.34,1.7,12.37,2.6,7.9,1.86,11.63,2.86,7.4,2,11.18,3l11.32,3,11.24,3c7.44,2,14.94,4,22.32,6Z" transform="translate(-0.16 -0.05)"/><path class="cls-29" d="M940.08,727.27c-9.08-1.33-18.06-2.7-27.1-4l-13.48-2.06-13.43-2.09c-4.47-.7-9-1.36-13.53-2s-8.91-1.41-13.19-2.21-8.48-1.63-12.61-2.5-8.17-1.79-12-2.8l.38-.2c4.94.47,9.66,1,14.33,1.64s9.22,1.25,13.72,1.93,8.89,1.43,13.15,2.23,8.5,1.62,12.81,2.4L902,719.88l12.86,2.38c8.52,1.6,17.1,3.18,25.57,4.82Z" transform="translate(-0.16 -0.05)"/><path class="cls-29" d="M977.25,704.07c-9.74-.85-19.4-1.75-29.1-2.62l-14.51-1.34-14.46-1.38c-4.82-.46-9.69-.88-14.54-1.32s-9.62-.93-14.3-1.5-9.33-1.18-13.91-1.83-9.11-1.34-13.5-2.15l.26-.21c5.14.21,10.13.53,15.08.89s9.84.76,14.68,1.21,9.59.95,14.27,1.52,9.34,1.17,14,1.72l14.11,1.66,14.07,1.69c9.35,1.15,18.74,2.27,28.06,3.45Z" transform="translate(-0.16 -0.05)"/><path class="cls-28" d="M1000,679.34c-10.09-.34-20.15-.74-30.22-1.11l-15.08-.58L939.67,677c-5-.21-10.06-.38-15.1-.56s-10-.44-15-.76-9.88-.68-14.78-1.09-9.77-.86-14.58-1.43l.14-.22c5.18-.06,10.29,0,15.37.1s10.14.26,15.17.45,10,.46,15,.78,9.89.68,14.85,1l14.89.92,14.86.95c9.9.66,19.81,1.29,29.69,2Z" transform="translate(-0.16 -0.05)"/><path class="cls-28" d="M1007.76,653.83c-10.14.18-20.28.29-30.42.44l-15.2.19-15.21.15c-5.07,0-10.14.13-15.21.21s-10.13.08-15.2,0-10.14-.17-15.21-.33-10.14-.35-15.21-.67v-.22c5.07-.32,10.14-.52,15.21-.68s10.14-.26,15.21-.33,10.13-.06,15.2,0,10.14.16,15.21.21l15.21.15,15.2.18c10.14.15,20.28.27,30.42.45Z" transform="translate(-0.16 -0.05)"/><path class="cls-28" d="M1000.17,628.31c-9.88.69-19.79,1.32-29.69,2l-14.86,1-14.89.92c-5,.31-9.9.65-14.85,1s-9.94.59-15,.78-10.08.35-15.17.45-10.19.16-15.37.11l-.14-.22c4.81-.57,9.68-1,14.58-1.44s9.83-.77,14.78-1.09,9.95-.57,15-.76,10.08-.35,15.1-.56l15.07-.62,15.08-.59c10.07-.37,20.13-.77,30.22-1.1Z" transform="translate(-0.16 -0.05)"/><path class="cls-28" d="M977.51,603.57c-9.32,1.18-18.71,2.3-28.06,3.46l-14.07,1.69-14.11,1.65c-4.71.55-9.37,1.14-14,1.72s-9.43,1.08-14.27,1.53-9.73.85-14.68,1.21-9.94.67-15.08.88l-.26-.21c4.39-.8,8.93-1.49,13.5-2.15s9.22-1.26,13.91-1.82,9.46-1.07,14.3-1.51,9.72-.86,14.54-1.32l14.46-1.37L948.15,606c9.7-.87,19.36-1.77,29.1-2.61Z" transform="translate(-0.16 -0.05)"/><path class="cls-28" d="M940.46,580.36c-8.47,1.63-17.05,3.21-25.57,4.82L902,587.55l-12.91,2.35c-4.31.78-8.54,1.6-12.81,2.4s-8.64,1.55-13.15,2.23-9.07,1.33-13.72,1.93-9.39,1.17-14.33,1.64l-.38-.19c3.84-1,7.9-1.93,12-2.81s8.33-1.7,12.61-2.5,8.68-1.53,13.19-2.2,9.06-1.34,13.53-2l13.43-2.09L913,584.21c9-1.34,18-2.72,27.1-4.05Z" transform="translate(-0.16 -0.05)"/><path class="cls-28" d="M890.16,559.37c-7.38,2-14.88,4-22.32,6l-11.24,3-11.32,3c-3.78,1-7.47,2-11.18,3s-7.6,2-11.63,2.86-8.14,1.77-12.37,2.6-8.55,1.63-13.13,2.34l-.49-.17c3.18-1.2,6.63-2.3,10.16-3.37s7.19-2.1,10.93-3.1,7.63-1.95,11.67-2.85,8.13-1.77,12.12-2.68l12-2.74,12-2.71c8.1-1.79,16.12-3.6,24.28-5.36Z" transform="translate(-0.16 -0.05)"/><path class="cls-27" d="M828.12,541.25c-6,2.38-12.26,4.72-18.38,7.08l-9.29,3.51-9.38,3.5c-3.14,1.16-6.16,2.35-9.22,3.53s-6.31,2.32-9.75,3.41-7,2.15-10.63,3.18-7.45,2-11.55,3l-.58-.15c2.42-1.33,5.16-2.59,8-3.83s5.83-2.43,8.92-3.6,6.36-2.31,9.8-3.39,7-2.16,10.33-3.27l10.17-3.3,10.26-3.28c6.91-2.17,13.73-4.36,20.72-6.51Z" transform="translate(-0.16 -0.05)"/><path class="cls-27" d="M756.24,526.54c-4.54,2.65-9.26,5.27-13.89,7.91l-7.06,3.93-7.15,3.92c-2.4,1.3-4.67,2.62-7,3.94s-4.84,2.6-7.57,3.85-5.58,2.47-8.57,3.68-6.13,2.38-9.61,3.5l-.66-.11a47.15,47.15,0,0,1,5.6-4.18q3.12-2,6.64-4c2.33-1.32,4.89-2.59,7.63-3.84s5.56-2.48,8.23-3.73l8-3.77,8.15-3.75c5.51-2.48,10.93-5,16.53-7.46Z" transform="translate(-0.16 -0.05)"/><path class="cls-27" d="M676.69,515.7c-2.89,2.84-6,5.66-9,8.49l-4.61,4.23-4.71,4.22c-1.58,1.41-3,2.82-4.52,4.24a46.66,46.66,0,0,1-5.17,4.17q-2.91,2.06-6.25,4.06a80.69,80.69,0,0,1-7.38,3.93l-.71-.07a20.58,20.58,0,0,1,3-4.4,53.4,53.4,0,0,1,4.15-4.28,47.71,47.71,0,0,1,5.24-4.16c2-1.37,4-2.73,5.88-4.1l5.69-4.12,5.79-4.1c4-2.73,7.8-5.47,11.84-8.18Z" transform="translate(-0.16 -0.05)"/><path class="cls-27" d="M591.9,509.06c-1.16,2.94-2.52,5.87-3.78,8.81l-2,4.4L584,526.66c-.72,1.47-1.3,2.94-1.93,4.41a21.31,21.31,0,0,1-2.6,4.37,46.57,46.57,0,0,1-3.74,4.31,38.16,38.16,0,0,1-4.92,4.25l-.75,0a12.56,12.56,0,0,1,.36-4.48,25.34,25.34,0,0,1,1.54-4.43,21.75,21.75,0,0,1,2.67-4.37c1.14-1.44,2.32-2.88,3.36-4.33l3.15-4.34,3.26-4.33c2.26-2.89,4.42-5.78,6.78-8.66Z" transform="translate(-0.16 -0.05)"/></g><path class="cls-3" d="M671.31,541.39s-2.1-13.84-21.56-11.28c0,0-10.62,9.41-22.17,5.25,0,0-18.24-3.15-14.46-23,0,0,2.62-19-10.76-23.63,0,0-13.67,1.38-11.93-11.38,0,0,.58-7.8-11.63-10.14,0,0-23.52,7-7.83-20.66,0,0,4.87-8.15-2.09-12.22,0,0-20.34-9.31-32.56,9.6,0,0-7.36,16.5-26.37,11.74,0,0-19.25,0-9.82-25.35,0,0,8.89-13.74,0-22.75,0,0-16.17-7.48-19.95,12.4a40.14,40.14,0,0,0,5.53,17.81S495.9,455,470,467.22A30.88,30.88,0,0,0,453.41,469s-13.67,17.18-30.25-1.74a17.06,17.06,0,0,0-1.51-2.28c-15.53-22.49-31.36-14.4-31.36-14.4s-6.79,2.38-7.87,8.82c0,0-3.46,8.36,9.48,18,0,0,1.66,1.95,3.65,4.78a18,18,0,0,1,2,11.38s-11.45,16.46,3,30.42c0,0,12.42,3.78,10.38,15.71,0,0-5.54,17.31-21.89,15,0,0-35.4-1.54-40.35,31.9,0,0-3.18,17.06,19.06,17,0,0,31.39,2.22,48.78-33.57,0,0,11.84-12.72,23.34-5.77,0,0,12.95,8.39,3.35,23.81,0,0-22.69,28.59-8.14,46,0,0,22.24,11.17,46.54-12.16,0,0,2.62-4.71,7.28-5,0,0,3.53,1.82,7.73-6.51,0,0,8.47-15.67,25.24-8.23,0,0,11.84,8.15,5.14,28.47,0,0-1.75,12.17,13.09,14.28,0,0,34.61,2.9,47.41-34.52l7-19.09s4.91-12.8,25.57-12.8c0,0,9.89.33,12.5,2.35,0,0,8.44,3.83,13.39-4.5,0,0,1.94-10-8.63-12.06,0,0-13.48.83-17.26-3.24,0,0-11.35-5.72-2.91-13,0,0,4.38-3,20.51,2.28,0,0,12.93,9.54,24.43,4.48C662.14,554.61,672.18,551,671.31,541.39Z" transform="translate(-0.16 -0.05)"/><path class="cls-3" d="M456.65,378.17s.05,12.12,9.64,10.45c0,0,4.16-3.44.09-10.14a9,9,0,0,0-6.4-4.27S456.9,373.53,456.65,378.17Z" transform="translate(-0.16 -0.05)"/><path class="cls-3" d="M332,473.13s-2,3.69,5.08,4.36h.19l.5,0a38.77,38.77,0,0,1,10.06,2.23c.95.39,1.95.84,3,1.35l.22.12c.54.25,1.07.51,1.63.8,0,0,14,5.25,20.44-3.2,0,0,4.43-8.39-21.93-11.15C351.24,467.68,337.68,467,332,473.13Z" transform="translate(-0.16 -0.05)"/><path class="cls-3" d="M653.34,616.1s-5.91,2.79-3.29,8.92c0,0,2.4,4.61,6.43,2.86,0,0,6.53-1.9,5.78-7.42C662.26,620.46,659,615.66,653.34,616.1Z" transform="translate(-0.16 -0.05)"/><path class="cls-4" d="M579.73,416.31a6.34,6.34,0,0,0,2.91-3.92h0v0a5.5,5.5,0,0,0,.11-.94c.83-4.44,6-8.77,6-8.78,2.41-1.48,6.45-4.77,5.92-10,0,0-.42-4.26-6.91-3.82,0,0-8.5,1.58-8,6.72a41.94,41.94,0,0,0,1.13,5.25s.61,3.51-5.15,6.06c0,0-7.95,2.35-6.57,7.21C569.2,414.05,570.08,420.89,579.73,416.31Zm2.78-7.83a4.61,4.61,0,0,1,.34-1.08Z" transform="translate(-0.16 -0.05)"/><path class="cls-4" d="M592.22,566.5s34.72-9,18.14-33.56c0,0-6.64-7-21.21-4.21,0,0-18.18,3.34-6.06-7.54,10.25-5.08,11.45-11.94,11.45-11.94,1.63-6.76-5.39-5.67-5.39-5.67a6.25,6.25,0,0,1-4,.41c-2.5-3.06-7.56-7.24-14.87-3.69,0,0-17.51,5-13.15-6.78,0,0,13.17-15.41,2.44-30.6,0,0-9.27-6.47-25.42.51,0,0-17.71,17.7-25.51.56,0,0-6.49-34-22.2-16.27,0,0-4.65,8.73-5.93,16.92,0,0-.41,7.95-4.76,9.48,0,0-6.12,1.92-8.29,6.55,0,0-2.1,5.27-9.76,5.91a34,34,0,0,1-8.82-1.14s-21.18-2.37-20.61,16.83a9.63,9.63,0,0,0,1.45,4.36s4,3.23-2.18,9.82c-1.11,1.06-2.44,2.22-4,3.49-.53.4-1.07.82-1.61,1.26a23,23,0,0,0-1.8,1.49c-7.93,6.76-16.08,16.74-10,26,0,0,4.09,7.64,18.19,5.92,0,0,19.34-2.16,24.14,14.42a60.89,60.89,0,0,1,.43,28.8l47.3-21.64,10.3-49.92,46.69,59.46-8.5,13.77c-.81-7.21-2-14.25-2-14.25l-7.12-8.15-10.77-4.58.91,33.6s9.28-1.83,15.54,5.33c0,0,7.91,20.83,33.59,15.93,0,0,9.32-1.12,13-13.06l0,0c3.09-6.42,5-5.75,5-5.75,6.69-3.4,5.69-10.86,5.69-10.86v0c0-5.54-5.39-7.73-5.39-7.73-4.65-1.46-8.82-6.47-8.82-6.47C584.59,579.13,580,570.91,592.22,566.5Z" transform="translate(-0.16 -0.05)"/><path class="cls-5" d="M574.92,536.25s-8.59-.38-12.25,5.73a7.31,7.31,0,0,1-4,2.69c-9.41.94-7.83-10.75-7.83-10.75h0a15.45,15.45,0,0,1,4.64-7.94s10.26-12,1.06-23.89c0,0-8.91-5.2-14.15,4.1,0,0-6.26,8.57-14.33,5.86a14.62,14.62,0,0,1-1.65-.71,14.33,14.33,0,0,1-1.33-.78l-.22-.09c-5.63-3.68-6.25-10-6-13.7.18-1,.3-2,.38-3h0a43.81,43.81,0,0,0,0-6.14c0-.13,0-.31,0-.52h0c-.24-2.36-1.61-9.51-9.35-11.44,0,0-5.71,0-5.47,8.14a6.13,6.13,0,0,1-1.57,4,3,3,0,0,1-3.69-1c-1.71-3.07-5.23-8.14-7.83-3.25,0,0-1.15,2.84-1.37,8.73a9.89,9.89,0,0,1-4.46,7.37,24,24,0,0,1-5.1,2.11s-21.85,2.62-21.42,19.48c0,0-2.41,17.19,19.31,28.37,0,0,5.42,3.19,5.49,9.37,0,0-.36,10.74-16.29,14,0,0-21.45,6-18.25,28.39,0,0,2.13,9.9,11.83,11.1,0,0,3.68,3.15,9.52-5.5,0,0,1.26-6.55,7.7-3.45,0,0,2.73,5,8,1.12,0,0,5.08-14,20.65-15.49,0,0,9.46-.34,12.3,6.81,0,0,2.54,13.27,14.58,9.56,0,0,10.7-3.33,14,6.95,0,0,4.2,9,12.88,9.32,0,0,14.35-3.12,8.27-23.44,0,0-12-16.69,0-32.25,0,0,6.13-8.65,14-8.51,0,0,5.58-.69,6.28-8C589.15,549.56,588.8,539.82,574.92,536.25Z" transform="translate(-0.16 -0.05)"/><path class="cls-5" d="M436.54,496.78s-5.37,5.14,0,10.05c0,0,3.71,2.68,7.89-.89,0,0,4.48-2.9.53-9.16C445,496.78,439.66,493.66,436.54,496.78Z" transform="translate(-0.16 -0.05)"/><path class="cls-3" d="M421,642.34s-6.7,1.31-4.44,5.45c0,0,2.91,4.37,7.71,2,0,0,5.46-3.82,2-6.39C426.21,643.37,423.16,641.63,421,642.34Z" transform="translate(-0.16 -0.05)"/><path class="cls-3" d="M689.62,517.1s-7.26.88-5.08,9.6c0,0,2.73,6.77,10.53,3.71a7.61,7.61,0,0,0,2.13-9.22A9.42,9.42,0,0,0,689.62,517.1Z" transform="translate(-0.16 -0.05)"/><path class="cls-4" d="M729.5,438.63s-16.59,14.47-17.9-28.58c0,0-.44-13.45-8.29-21.27,0,0-8.18-2-8.24-7.3,0,0-8.53-13.18-15.64,3,0,0-9.21,20.34-10.16,39.27,0,0-2.33,13.09-15.78,23.57,0,0-28.89,13.36-22,36.35a51.13,51.13,0,0,0,39.92-6.28s10.56-13.49,15.36-6.95a52.64,52.64,0,0,1-2.59,6.95s-6,8.29,5.49,7.87c0,0,6.66-2.16,9.3,5.26,0,0,2.2,12.18,11.37,11.1,0,0,3.49-1.12,3.92-8.07,0,0-1.12-7.89,8.39-8.08,0,0,24.23,3.3,32.58-6.3,0,0,9.65-23.17,17.51-28.6,0,0,16.74-10.67,14.26-29C787,421.54,781,409.46,729.5,438.63Z" transform="translate(-0.16 -0.05)"/><path class="cls-3" d="M621.83,325.54s-5.8,2.84-3.18-15c0,0-1.74-13.41-13.53-11.67,0,0-10.7.44-10.37,18.77,0,0,4.34,14.77-2.53,20.36,0,0-12.6,9.15-11,18.61,0,0,5.11,9.09,23.44-3.16,0,0,8.29-2.6,7,8.28,0,0,.87,6.08,8.29,6.3,0,0,6.11-5.61,6.11-11.42a44.45,44.45,0,0,1,16.58-23.24s19.49-11.37,10.84-28.39c0,0-9.27-1.74-19.43,15.71C634.06,320.74,629.37,326.41,621.83,325.54Z" transform="translate(-0.16 -0.05)"/><path class="cls-4" d="M464.19,261S455,270.17,452.4,288c0,0,.6,14.22-5.81,3.49,0,0-12.67-27.05-30-27.05,0,0-10.12,4.36,0,22v-1.1s3.88,4.8,3.07,8.73c0,0-3.43,9.17,5.3,11.78,0,0,8,.44,9.24,10.91,0,0,.52,16.21,12.44,16.61,0,0,11,1.28,5.81-17,0,0-5.24-12.22-.88-13.09,0,0,5.46,1.74,5.13,9.16,0,0,1.17,3.93,4.57,4.36,0,0,7.88.44,6.95-20.94l.07-18.77S470.31,259.65,464.19,261Z" transform="translate(-0.16 -0.05)"/><path class="cls-5" d="M290.8,264.77s-9.89-6.16-5.24,6.66c0,0,4.95,11.06-4.07.58,0,0-11.93-9.6-17.75-6.69,0,0-2.69,5.82,7.67,18,0,0,6.88,11.63,18.51,11.05,0,0,3.49.29,1.46-8.43,0,0-5.13-6.69.64-4.37,0,0,9,14.91,17.29,15.53.28.16.42.18.4,0S313.78,292.67,290.8,264.77Z" transform="translate(-0.16 -0.05)"/><path class="cls-4" d="M288.47,353.5s-17.75,13.35-4.8,31.68a25.42,25.42,0,0,0,15.56,10.89S323.38,395.94,326,416c0,0-3.71,17.12,16,21.78,0,0,17.16,1.2,16-16.83,0,0-2.91-13,4.36-14.76a8.64,8.64,0,0,1,8.94,5.18,13.76,13.76,0,0,1,.95,3.18s.65,8.14,9.78,7c0,0,9.61-2.91.94-19.35,0,0-8.12-10.15-8-19.4,0,0,2.28-9-5.62-13.32,0,0-4.12-2.33-5.28-6.4,0,0,.29-5.61-4.95-7.31,0,0-6.4-1.13-5.24,8.76s7.28,19.49,2,23c0,0-3.15,6.11-33-17.16C323,370.34,307.38,344.45,288.47,353.5Z" transform="translate(-0.16 -0.05)"/><path class="cls-3" d="M248,411.36s-11.3-15.94-14.08-23.53c0,0-4.83-13.54-11.81-6.35,0,0-5.1,9.81-3.51,18.5h0a10.55,10.55,0,0,1-.19,3.52c-1.67,2.91-6,1.16-6,1.16s-16.73-6.86-20.22-10c0,0-15.71-10.46-15.42,4.41,0,0,0,27.09,32,29.13,0,0,11.93-.58,17.45,5.53a3.44,3.44,0,0,0,2.49.95v0c4.22-.76,2.18-6.23,2.18-6.23s-3.2-5.23,2.91-6.69c0,0,3.47-1,7,3.45,0,.14,1.25,5,7.27,3.24C248,428.52,254.72,423.29,248,411.36Z" transform="translate(-0.16 -0.05)"/><path class="cls-4" d="M237.14,422.3a7.84,7.84,0,0,1,3.4,3.35s1.75,4.73,7.49,2.87c0,0,3.91-2.25,3-8.73a22.58,22.58,0,0,0-2.86-8.22" transform="translate(-0.16 -0.05)"/><path class="cls-5" d="M370.21,540.38s-1.45-5.37-11.34-5c0,0-4.8-.07-5.09-4.44,0,0-.39-3.2,4.75-7.71,0,0,6.8-4.47,3-10.45a16,16,0,0,1-2.94-2.36s-6.55-4.35-9.17,5.25c0,0,.18,10-19,3.64a82.66,82.66,0,0,0-19.95-6.4,13.77,13.77,0,0,1-9.16-7.71s-8.29-13.24-22.4-8.73c0,0-13.67,7.56-4.07,23.85,0,0,8.72,18.38,29.52,16.9,0,0,9.72-1.62,8.72,5h0c-.83,1.82-3.11,3.7-8.72,4.48,0,0-14.4-.18-17,11.6,0,0-5.82,20.65,7.7,32.14,0,0,10.33,8.15,22.84-7.42,0,0,3.78-9.6,9.75-13.52a44.3,44.3,0,0,0,16-24.8s.47-3.71,3.14-4.15c0,0,5-.44,6.75,4.15,0,0,3.92,3.82,11.05,2.74C364.54,547.41,370.94,547.07,370.21,540.38Z" transform="translate(-0.16 -0.05)"/><path class="cls-30" d="M649.75,530.11s-10.62,9.41-22.17,5.25c0,0-18.24-3.15-14.46-23,0,0,2.62-19-10.76-23.63,0,0-13.67,1.38-11.93-11.38,0,0,.58-7.8-11.63-10.14,0,0-23.52,7-7.83-20.66,0,0,4.87-8.15-2.09-12.22,0,0-20.34-9.31-32.56,9.6,0,0-7.36,16.5-26.37,11.74a14.51,14.51,0,0,1-3.88-.67c-1.81-4.87-4.6-10.22-8.52-11.88-.1-3.32.61-7.5,2.58-12.8,0,0,8.89-13.74,0-22.75,0,0-16.17-7.48-19.95,12.4a40.14,40.14,0,0,0,5.53,17.81,17.56,17.56,0,0,1,2,8.63c-.41.4-.82.83-1.24,1.3a71.2,71.2,0,0,0-4.69,11.57A40.28,40.28,0,0,1,470,467.22,30.88,30.88,0,0,0,453.41,469s-13.67,17.18-30.25-1.74a17.06,17.06,0,0,0-1.51-2.28c-15.53-22.49-31.36-14.4-31.36-14.4s-6.79,2.38-7.87,8.82c0,0-3.46,8.36,9.48,18,0,0,1.66,1.95,3.66,4.78a18.08,18.08,0,0,1,2,11.38s-11.45,16.46,3,30.42c0,0,7.86,2.4,10.05,9.4-2.2,3.7-3.3,7.67-2.24,11.6-3.05,4.87-9.05,11.15-19.32,9.67,0,0-35.4-1.54-40.35,31.9,0,0-3.18,17.06,19.06,17,0,0,31.39,2.22,48.78-33.57,0,0,11.84-12.72,23.34-5.77,0,0,12.95,8.39,3.35,23.81,0,0-22.69,28.59-8.14,46,0,0,22.24,11.17,46.54-12.16,0,0,2.62-4.71,7.28-5,0,0,3.53,1.82,7.73-6.51,0,0,8.47-15.67,25.24-8.23h0a11,11,0,0,0,2.54,2.5c3,3.77,7.21,12,2.6,26,0,0-1.75,12.17,13.09,14.28,0,0,22.72,1.9,38.16-17.28l.53-.09s9.32-1.12,13-13.06l0,0c3.09-6.42,5-5.75,5-5.75,6.69-3.4,5.69-10.86,5.69-10.86v0c0-5.54-5.39-7.73-5.39-7.73a12.91,12.91,0,0,1-1.61-.65c2.24-3.53,8.82-11,24.6-11,0,0,9.89.33,12.51,2.35,0,0,8.43,3.83,13.38-4.5,0,0,1.94-10-8.63-12.06,0,0-13.48.83-17.26-3.24,0,0-11.35-5.72-2.91-13,0,0,4.38-3,20.51,2.28,0,0,12.93,9.54,24.43,4.48,0,0,10-3.62,9.17-13.22C671.31,541.39,669.21,527.55,649.75,530.11Z" transform="translate(-0.16 -0.05)"/><path class="cls-31" d="M460,374.21s-3.08-.68-3.33,4c0,0,.05,12.12,9.64,10.45,0,0,4.16-3.44.09-10.14A9,9,0,0,0,460,374.21Z" transform="translate(-0.16 -0.05)"/><path class="cls-32" d="M337.29,477.5l.5,0a38.77,38.77,0,0,1,10.06,2.23c.95.39,1.95.84,3,1.35l.22.12c.54.25,1.07.51,1.63.8,0,0,14,5.25,20.44-3.2,0,0,4.43-8.39-21.93-11.15,0,0-13.56-.68-19.22,5.45,0,0-2,3.69,5.08,4.36h.19Z" transform="translate(-0.16 -0.05)"/><path class="cls-33" d="M653.34,616.1s-5.91,2.79-3.29,8.92c0,0,2.4,4.61,6.43,2.86,0,0,6.53-1.9,5.78-7.42C662.26,620.46,659,615.66,653.34,616.1Z" transform="translate(-0.16 -0.05)"/><path class="cls-34" d="M579.73,416.31a6.34,6.34,0,0,0,2.91-3.92h0v0a5.5,5.5,0,0,0,.11-.94c.83-4.44,6-8.77,6-8.78,2.41-1.48,6.45-4.77,5.92-10,0,0-.42-4.26-6.91-3.82,0,0-8.5,1.58-8,6.72a41.94,41.94,0,0,0,1.13,5.25s.61,3.51-5.15,6.06c0,0-7.95,2.35-6.57,7.21C569.2,414.05,570.08,420.89,579.73,416.31Zm3.12-8.91-.34,1.08A4.61,4.61,0,0,1,582.85,407.4Z" transform="translate(-0.16 -0.05)"/><path class="cls-35" d="M426.21,643.37s-3-1.74-5.23-1c0,0-6.7,1.31-4.44,5.45,0,0,2.91,4.37,7.71,2C424.25,649.76,429.71,645.94,426.21,643.37Z" transform="translate(-0.16 -0.05)"/><path class="cls-36" d="M689.62,517.1s-7.26.88-5.08,9.6c0,0,2.73,6.77,10.53,3.71a7.61,7.61,0,0,0,2.13-9.22A9.42,9.42,0,0,0,689.62,517.1Z" transform="translate(-0.16 -0.05)"/><path class="cls-37" d="M787,421.54s-6-12.08-57.45,17.09c0,0-16.59,14.47-17.9-28.58,0,0-.44-13.45-8.29-21.27,0,0-8.18-2-8.24-7.3,0,0-8.53-13.18-15.64,3,0,0-9.21,20.34-10.16,39.27,0,0-2.33,13.09-15.78,23.57,0,0-28.89,13.36-22,36.35a51.13,51.13,0,0,0,39.92-6.28s10.56-13.49,15.36-6.95a52.64,52.64,0,0,1-2.59,6.95s-6,8.29,5.49,7.87c0,0,6.66-2.16,9.3,5.26,0,0,2.2,12.18,11.37,11.11,0,0,3.49-1.13,3.92-8.08,0,0-1.12-7.89,8.39-8.08,0,0,24.23,3.3,32.58-6.3,0,0,9.65-23.17,17.51-28.6C772.69,450.54,789.43,439.87,787,421.54Z" transform="translate(-0.16 -0.05)"/><path class="cls-38" d="M604.69,353.5s8.29-2.6,7,8.28c0,0,.87,6.08,8.29,6.3,0,0,6.11-5.61,6.11-11.42a44.45,44.45,0,0,1,16.58-23.24s19.49-11.37,10.84-28.39c0,0-9.27-1.74-19.43,15.71,0,0-4.69,5.67-12.23,4.8,0,0-5.8,2.84-3.18-15,0,0-1.74-13.41-13.53-11.67,0,0-10.7.44-10.37,18.77,0,0,4.34,14.77-2.53,20.36,0,0-12.6,9.15-11,18.61C581.25,356.66,586.36,365.75,604.69,353.5Z" transform="translate(-0.16 -0.05)"/><path class="cls-39" d="M416.54,285.39s3.88,4.8,3.07,8.73c0,0-3.43,9.17,5.3,11.78,0,0,8,.44,9.24,10.91,0,0,.52,16.21,12.44,16.61,0,0,11,1.28,5.81-17,0,0-5.24-12.22-.88-13.09,0,0,5.46,1.74,5.13,9.16,0,0,1.17,3.93,4.57,4.36,0,0,7.88.44,6.95-20.94l.07-18.77s2.07-17.45-4.05-16.14c0,0-9.21,9.21-11.79,27.05,0,0,.6,14.22-5.81,3.49,0,0-12.67-27.05-30-27.05,0,0-10.12,4.36,0,22Z" transform="translate(-0.16 -0.05)"/><path class="cls-40" d="M289.92,294.41s3.49.29,1.46-8.43c0,0-5.13-6.69.64-4.37,0,0,9,14.91,17.29,15.53.28.16.42.18.4,0s4.07-4.5-18.91-32.4c0,0-9.89-6.15-5.24,6.66,0,0,4.95,11.06-4.07.58,0,0-11.93-9.6-17.75-6.69,0,0-2.69,5.82,7.67,18C271.41,283.36,278.29,295,289.92,294.41Z" transform="translate(-0.16 -0.05)"/><path class="cls-41" d="M288.47,353.5s-17.75,13.35-4.8,31.68a25.42,25.42,0,0,0,15.56,10.89S323.38,395.94,326,416c0,0-3.71,17.12,16,21.78,0,0,17.16,1.2,16-16.83,0,0-2.91-13,4.36-14.76a8.64,8.64,0,0,1,8.94,5.18,13.76,13.76,0,0,1,.95,3.18s.65,8.14,9.78,7c0,0,9.61-2.91.94-19.35,0,0-8.12-10.15-8-19.4,0,0,2.28-9-5.62-13.32,0,0-4.12-2.33-5.28-6.4,0,0,.29-5.61-4.95-7.31,0,0-6.4-1.13-5.24,8.76s7.28,19.49,2,23c0,0-3.15,6.11-33-17.16C323,370.34,307.38,344.45,288.47,353.5Z" transform="translate(-0.16 -0.05)"/><path class="cls-42" d="M248.15,411.57h0l-.12-.21s-11.3-15.94-14.08-23.53c0,0-4.83-13.54-11.81-6.35,0,0-5.1,9.81-3.51,18.5h0a10.55,10.55,0,0,1-.19,3.52c-1.67,2.91-6,1.16-6,1.16s-16.73-6.86-20.22-10c0,0-15.71-10.46-15.42,4.41,0,0,0,27.09,32,29.13,0,0,11.93-.58,17.45,5.53a3.44,3.44,0,0,0,2.49.95v0c4.22-.76,2.18-6.23,2.18-6.23s-3.2-5.23,2.91-6.69a5.41,5.41,0,0,1,3.44.52,7.61,7.61,0,0,1,3.32,3.3s1.75,4.73,7.49,2.87c0,0,3.91-2.25,3-8.73A22.58,22.58,0,0,0,248.15,411.57Z" transform="translate(-0.16 -0.05)"/><path class="cls-43" d="M353.49,544.67s3.92,3.82,11.05,2.74c0,0,6.4-.34,5.67-7,0,0-1.45-5.37-11.34-5,0,0-4.8-.07-5.09-4.44,0,0-.39-3.2,4.75-7.71,0,0,6.8-4.47,3-10.45a16,16,0,0,1-2.94-2.36s-6.55-4.35-9.17,5.25c0,0,.18,10-19,3.64a82.66,82.66,0,0,0-19.95-6.4,13.77,13.77,0,0,1-9.16-7.71s-8.29-13.24-22.4-8.73c0,0-13.67,7.56-4.07,23.85,0,0,8.72,18.38,29.52,16.9,0,0,9.72-1.62,8.72,5h0c-.83,1.82-3.11,3.7-8.72,4.48,0,0-14.4-.18-17,11.6,0,0-5.82,20.65,7.7,32.14,0,0,10.33,8.15,22.84-7.42,0,0,3.78-9.6,9.75-13.52a44.3,44.3,0,0,0,16-24.8s.47-3.71,3.14-4.15C346.74,540.52,351.74,540.08,353.49,544.67Z" transform="translate(-0.16 -0.05)"/><g class="cls-44"><path class="cls-45" d="M649.75,530.11s-10.62,9.41-22.17,5.25c0,0-18.24-3.15-14.46-23,0,0,2.62-19-10.76-23.63,0,0-13.67,1.38-11.93-11.38,0,0,.58-7.8-11.63-10.14,0,0-23.52,7-7.83-20.66,0,0,4.87-8.15-2.09-12.22,0,0-20.34-9.31-32.56,9.6,0,0-7.36,16.5-26.37,11.74a14.51,14.51,0,0,1-3.88-.67c-1.81-4.87-4.6-10.22-8.52-11.88-.1-3.32.61-7.5,2.58-12.8,0,0,8.89-13.74,0-22.75,0,0-16.17-7.48-19.95,12.4a40.14,40.14,0,0,0,5.53,17.81,17.56,17.56,0,0,1,2,8.63c-.41.4-.82.83-1.24,1.3a71.2,71.2,0,0,0-4.69,11.57A40.28,40.28,0,0,1,470,467.22,30.88,30.88,0,0,0,453.41,469s-13.67,17.18-30.25-1.74a17.06,17.06,0,0,0-1.51-2.28c-15.53-22.49-31.36-14.4-31.36-14.4s-6.79,2.38-7.87,8.82c0,0-3.46,8.36,9.48,18,0,0,1.66,1.95,3.66,4.78a18.08,18.08,0,0,1,2,11.38s-11.45,16.46,3,30.42c0,0,7.86,2.4,10.05,9.4-2.2,3.7-3.3,7.67-2.24,11.6-3.05,4.87-9.05,11.15-19.32,9.67,0,0-35.4-1.54-40.35,31.9,0,0-3.18,17.06,19.06,17,0,0,31.39,2.22,48.78-33.57,0,0,11.84-12.72,23.34-5.77,0,0,12.95,8.39,3.35,23.81,0,0-22.69,28.59-8.14,46,0,0,22.24,11.17,46.54-12.16,0,0,2.62-4.71,7.28-5,0,0,3.53,1.82,7.73-6.51,0,0,8.47-15.67,25.24-8.23h0a11,11,0,0,0,2.54,2.5c3,3.77,7.21,12,2.6,26,0,0-1.75,12.17,13.09,14.28,0,0,22.72,1.9,38.16-17.28l.53-.09s9.32-1.12,13-13.06l0,0c3.09-6.42,5-5.75,5-5.75,6.69-3.4,5.69-10.86,5.69-10.86v0c0-5.54-5.39-7.73-5.39-7.73a12.91,12.91,0,0,1-1.61-.65c2.24-3.53,8.82-11,24.6-11,0,0,9.89.33,12.51,2.35,0,0,8.43,3.83,13.38-4.5,0,0,1.94-10-8.63-12.06,0,0-13.48.83-17.26-3.24,0,0-11.35-5.72-2.91-13,0,0,4.38-3,20.51,2.28,0,0,12.93,9.54,24.43,4.48,0,0,10-3.62,9.17-13.22C671.31,541.39,669.21,527.55,649.75,530.11Z" transform="translate(-0.16 -0.05)"/><path class="cls-46" d="M460,374.21s-3.08-.68-3.33,4c0,0,.05,12.12,9.64,10.45,0,0,4.16-3.44.09-10.14A9,9,0,0,0,460,374.21Z" transform="translate(-0.16 -0.05)"/><path class="cls-47" d="M337.29,477.5l.5,0a38.77,38.77,0,0,1,10.06,2.23c.95.39,1.95.84,3,1.35l.22.12c.54.25,1.07.51,1.63.8,0,0,14,5.25,20.44-3.2,0,0,4.43-8.39-21.93-11.15,0,0-13.56-.68-19.22,5.45,0,0-2,3.69,5.08,4.36h.19Z" transform="translate(-0.16 -0.05)"/><path class="cls-48" d="M653.34,616.1s-5.91,2.79-3.29,8.92c0,0,2.4,4.61,6.43,2.86,0,0,6.53-1.9,5.78-7.42C662.26,620.46,659,615.66,653.34,616.1Z" transform="translate(-0.16 -0.05)"/><path class="cls-49" d="M579.73,416.31a6.34,6.34,0,0,0,2.91-3.92h0v0a5.5,5.5,0,0,0,.11-.94c.83-4.44,6-8.77,6-8.78,2.41-1.48,6.45-4.77,5.92-10,0,0-.42-4.26-6.91-3.82,0,0-8.5,1.58-8,6.72a41.94,41.94,0,0,0,1.13,5.25s.61,3.51-5.15,6.06c0,0-7.95,2.35-6.57,7.21C569.2,414.05,570.08,420.89,579.73,416.31Zm3.12-8.91-.34,1.08A4.61,4.61,0,0,1,582.85,407.4Z" transform="translate(-0.16 -0.05)"/><path class="cls-50" d="M426.21,643.37s-3-1.74-5.23-1c0,0-6.7,1.31-4.44,5.45,0,0,2.91,4.37,7.71,2C424.25,649.76,429.71,645.94,426.21,643.37Z" transform="translate(-0.16 -0.05)"/><path class="cls-51" d="M689.62,517.1s-7.26.88-5.08,9.6c0,0,2.73,6.77,10.53,3.71a7.61,7.61,0,0,0,2.13-9.22A9.42,9.42,0,0,0,689.62,517.1Z" transform="translate(-0.16 -0.05)"/><path class="cls-52" d="M787,421.54s-6-12.08-57.45,17.09c0,0-16.59,14.47-17.9-28.58,0,0-.44-13.45-8.29-21.27,0,0-8.18-2-8.24-7.3,0,0-8.53-13.18-15.64,3,0,0-9.21,20.34-10.16,39.27,0,0-2.33,13.09-15.78,23.57,0,0-28.89,13.36-22,36.35a51.13,51.13,0,0,0,39.92-6.28s10.56-13.49,15.36-6.95a52.64,52.64,0,0,1-2.59,6.95s-6,8.29,5.49,7.87c0,0,6.66-2.16,9.3,5.26,0,0,2.2,12.18,11.37,11.11,0,0,3.49-1.13,3.92-8.08,0,0-1.12-7.89,8.39-8.08,0,0,24.23,3.3,32.58-6.3,0,0,9.65-23.17,17.51-28.6C772.69,450.54,789.43,439.87,787,421.54Z" transform="translate(-0.16 -0.05)"/><path class="cls-53" d="M604.69,353.5s8.29-2.6,7,8.28c0,0,.87,6.08,8.29,6.3,0,0,6.11-5.61,6.11-11.42a44.45,44.45,0,0,1,16.58-23.24s19.49-11.37,10.84-28.39c0,0-9.27-1.74-19.43,15.71,0,0-4.69,5.67-12.23,4.8,0,0-5.8,2.84-3.18-15,0,0-1.74-13.41-13.53-11.67,0,0-10.7.44-10.37,18.77,0,0,4.34,14.77-2.53,20.36,0,0-12.6,9.15-11,18.61C581.25,356.66,586.36,365.75,604.69,353.5Z" transform="translate(-0.16 -0.05)"/><path class="cls-54" d="M416.54,285.39s3.88,4.8,3.07,8.73c0,0-3.43,9.17,5.3,11.78,0,0,8,.44,9.24,10.91,0,0,.52,16.21,12.44,16.61,0,0,11,1.28,5.81-17,0,0-5.24-12.22-.88-13.09,0,0,5.46,1.74,5.13,9.16,0,0,1.17,3.93,4.57,4.36,0,0,7.88.44,6.95-20.94l.07-18.77s2.07-17.45-4.05-16.14c0,0-9.21,9.21-11.79,27.05,0,0,.6,14.22-5.81,3.49,0,0-12.67-27.05-30-27.05,0,0-10.12,4.36,0,22Z" transform="translate(-0.16 -0.05)"/><path class="cls-55" d="M289.92,294.41s3.49.29,1.46-8.43c0,0-5.13-6.69.64-4.37,0,0,9,14.91,17.29,15.53.28.16.42.18.4,0s4.07-4.5-18.91-32.4c0,0-9.89-6.15-5.24,6.66,0,0,4.95,11.06-4.07.58,0,0-11.93-9.6-17.75-6.69,0,0-2.69,5.82,7.67,18C271.41,283.36,278.29,295,289.92,294.41Z" transform="translate(-0.16 -0.05)"/><path class="cls-56" d="M288.47,353.5s-17.75,13.35-4.8,31.68a25.42,25.42,0,0,0,15.56,10.89S323.38,395.94,326,416c0,0-3.71,17.12,16,21.78,0,0,17.16,1.2,16-16.83,0,0-2.91-13,4.36-14.76a8.64,8.64,0,0,1,8.94,5.18,13.76,13.76,0,0,1,.95,3.18s.65,8.14,9.78,7c0,0,9.61-2.91.94-19.35,0,0-8.12-10.15-8-19.4,0,0,2.28-9-5.62-13.32,0,0-4.12-2.33-5.28-6.4,0,0,.29-5.61-4.95-7.31,0,0-6.4-1.13-5.24,8.76s7.28,19.49,2,23c0,0-3.15,6.11-33-17.16C323,370.34,307.38,344.45,288.47,353.5Z" transform="translate(-0.16 -0.05)"/><path class="cls-57" d="M248.15,411.57h0l-.12-.21s-11.3-15.94-14.08-23.53c0,0-4.83-13.54-11.81-6.35,0,0-5.1,9.81-3.51,18.5h0a10.55,10.55,0,0,1-.19,3.52c-1.67,2.91-6,1.16-6,1.16s-16.73-6.86-20.22-10c0,0-15.71-10.46-15.42,4.41,0,0,0,27.09,32,29.13,0,0,11.93-.58,17.45,5.53a3.44,3.44,0,0,0,2.49.95v0c4.22-.76,2.18-6.23,2.18-6.23s-3.2-5.23,2.91-6.69a5.41,5.41,0,0,1,3.44.52,7.61,7.61,0,0,1,3.32,3.3s1.75,4.73,7.49,2.87c0,0,3.91-2.25,3-8.73A22.58,22.58,0,0,0,248.15,411.57Z" transform="translate(-0.16 -0.05)"/><path class="cls-58" d="M353.49,544.67s3.92,3.82,11.05,2.74c0,0,6.4-.34,5.67-7,0,0-1.45-5.37-11.34-5,0,0-4.8-.07-5.09-4.44,0,0-.39-3.2,4.75-7.71,0,0,6.8-4.47,3-10.45a16,16,0,0,1-2.94-2.36s-6.55-4.35-9.17,5.25c0,0,.18,10-19,3.64a82.66,82.66,0,0,0-19.95-6.4,13.77,13.77,0,0,1-9.16-7.71s-8.29-13.24-22.4-8.73c0,0-13.67,7.56-4.07,23.85,0,0,8.72,18.38,29.52,16.9,0,0,9.72-1.62,8.72,5h0c-.83,1.82-3.11,3.7-8.72,4.48,0,0-14.4-.18-17,11.6,0,0-5.82,20.65,7.7,32.14,0,0,10.33,8.15,22.84-7.42,0,0,3.78-9.6,9.75-13.52a44.3,44.3,0,0,0,16-24.8s.47-3.71,3.14-4.15C346.74,540.52,351.74,540.08,353.49,544.67Z" transform="translate(-0.16 -0.05)"/></g></g></g></svg>