<svg xmlns="http://www.w3.org/2000/svg" xmlns:xlink="http://www.w3.org/1999/xlink" viewBox="0 0 1027 1172"><defs><style>.cls-1{isolation:isolate;}.cls-2{opacity:0.3;}.cls-3{fill:#d66d34;}.cls-4{fill:#e27b39;}.cls-5{fill:#7f743e;}.cls-6{fill:#91874f;}.cls-7{fill:#b49f38;}.cls-8{fill:#ec8c3a;}.cls-9{fill:#593e36;}.cls-10{fill:#7f4b41;}.cls-11{fill:url(#linear-gradient);}.cls-12{fill:url(#linear-gradient-2);}.cls-13{fill:url(#linear-gradient-3);}.cls-14{fill:url(#linear-gradient-4);}.cls-15{fill:url(#linear-gradient-5);}.cls-16{fill:url(#linear-gradient-6);}.cls-17{opacity:0.7;}.cls-18{fill:url(#linear-gradient-7);}.cls-19{fill:url(#linear-gradient-8);}.cls-20{fill:url(#linear-gradient-9);}.cls-21{opacity:0.6;}.cls-22{fill:#b78f6a;}.cls-23{fill:#d5b392;}.cls-24{fill:#f6d7b3;}.cls-25{fill:url(#linear-gradient-11);}.cls-26{mix-blend-mode:overlay;}.cls-27{fill:url(#linear-gradient-12);}.cls-28{fill:url(#linear-gradient-13);}.cls-29{fill:url(#linear-gradient-14);}.cls-30{fill:url(#linear-gradient-15);}.cls-31{fill:url(#linear-gradient-16);}.cls-32{fill:url(#linear-gradient-17);}.cls-33{fill:url(#linear-gradient-18);}.cls-34{fill:url(#linear-gradient-19);}</style><linearGradient id="linear-gradient" x1="347.78" y1="680.96" x2="372.22" y2="893.9" gradientUnits="userSpaceOnUse"><stop offset="0" stop-color="#332f2f" stop-opacity="0"/><stop offset="1" stop-color="#2f2f3f"/></linearGradient><linearGradient id="linear-gradient-2" x1="500.19" y1="630.77" x2="500.19" y2="887.57" xlink:href="#linear-gradient"/><linearGradient id="linear-gradient-3" x1="590.13" y1="653.15" x2="614.56" y2="866.09" xlink:href="#linear-gradient"/><linearGradient id="linear-gradient-4" x1="303.15" y1="686.08" x2="327.59" y2="899.02" xlink:href="#linear-gradient"/><linearGradient id="linear-gradient-5" x1="-5190.08" y1="2926.05" x2="-5043.31" y2="3017.95" gradientTransform="matrix(1, 0, 0, 0, -0.16, 0)" gradientUnits="userSpaceOnUse"><stop offset="0" stop-color="#332f2f" stop-opacity="0"/><stop offset="1" stop-color="#2f2f3f" stop-opacity="0.6"/></linearGradient><linearGradient id="linear-gradient-6" x1="-4986.58" y1="4436.3" x2="-4839.81" y2="4528.2" xlink:href="#linear-gradient-5"/><linearGradient id="linear-gradient-7" x1="507.25" y1="581.51" x2="498.53" y2="778.75" gradientUnits="userSpaceOnUse"><stop offset="0" stop-color="#916c3f"/><stop offset="1" stop-color="#f2d3af"/></linearGradient><linearGradient id="linear-gradient-8" x1="507.25" y1="581.51" x2="498.53" y2="778.75" xlink:href="#linear-gradient-7"/><linearGradient id="linear-gradient-9" x1="507.26" y1="581.51" x2="498.53" y2="778.75" xlink:href="#linear-gradient-7"/><linearGradient id="linear-gradient-11" x1="493.41" y1="419.41" x2="493.41" y2="419.41" gradientTransform="matrix(1, 0, 0, 1, 0, 0)" xlink:href="#linear-gradient-5"/><linearGradient id="linear-gradient-12" x1="500.78" y1="391.89" x2="511.25" y2="739.24" gradientUnits="userSpaceOnUse"><stop offset="0" stop-color="#455b6b" stop-opacity="0"/><stop offset="1" stop-color="#455b6b"/></linearGradient><linearGradient id="linear-gradient-13" x1="619.61" y1="388.31" x2="630.08" y2="735.65" xlink:href="#linear-gradient-12"/><linearGradient id="linear-gradient-14" x1="312.86" y1="397.56" x2="323.33" y2="744.9" xlink:href="#linear-gradient-12"/><linearGradient id="linear-gradient-15" x1="377.21" y1="395.62" x2="387.68" y2="742.96" xlink:href="#linear-gradient-12"/><linearGradient id="linear-gradient-16" x1="305.94" y1="516.81" x2="1499.83" y2="544.73" gradientTransform="matrix(1, 0, 0, 1, 0, 0)" xlink:href="#linear-gradient-5"/><linearGradient id="linear-gradient-17" x1="307.89" y1="433.49" x2="1501.78" y2="461.42" gradientTransform="matrix(1, 0, 0, 1, 0, 0)" xlink:href="#linear-gradient-5"/><linearGradient id="linear-gradient-18" x1="305.1" y1="552.55" x2="1498.99" y2="580.48" gradientTransform="matrix(1, 0, 0, 1, 0, 0)" xlink:href="#linear-gradient-5"/><linearGradient id="linear-gradient-19" x1="308.22" y1="419.16" x2="1502.11" y2="447.09" gradientTransform="matrix(1, 0, 0, 1, 0, 0)" xlink:href="#linear-gradient-5"/></defs><g class="cls-1"><g id="Layer_1" data-name="Layer 1"><g class="cls-2"><path class="cls-3" d="M460.87,869.14s-3.87,11.64-30.14,12.51c0,0-10.05.29-18-4.07,0,0-8-6.11-15.91-5.53,0,0-11.87,1-14.79,4.51,0,0-9.67,4.22-16.28-1.89,0,0-5.1-7.13.75-11.78,0,0,4.36-1.31,5.71-2.77,0,0,4.8-7.85-7.36-10.18,0,0-6-.73-5.1-8,0,0,.45-3.34-4.2-4.07,0,0-13.66-1.75-13.21-15.13,0,0,.45-8.58,2.7-12.65,0,0,6-13.5,0-24.57,0,0-8.1-11.76-15.31-15.85,0,0-9.4-5.95-7.78-14.91,0,0,2.83-6.78,9.43-7.51,0,0,7.81-.43,8.26-6.76,0,0,.94-7.61-8-14.61,0,0-5.95-5.78-3.1-11.76,0,0,3.3-4,9.91-2.65,0,0,9.45,2.73,14.1-2.42,0,0,3.33-3.44,1.66-12.29,0,0-2.54-11.76,9.31-18.89,0,0,7.63-2.62,12.89-3.06,0,0,11.83.4,13.8-7.29,0,0,7.59-13.95,20.54-15.62,0,0,13.85-.65,15.65,7.2Z" transform="translate(-0.16 -0.05)"/><path class="cls-4" d="M482.28,879.76s-15.85,4.51-22.25-7c0,0-3.35-14.69-15.27-13.53,0,0-4.51.44-5.24,2,0,0-7,2.76-12.07-.88,0,0-2.33-2.32-2.33-3.2a2.5,2.5,0,0,0-1.75-1.89s-4.51-1.31-3.49-7.71a6.27,6.27,0,0,1,6.69-4.8s4.51.29,5.39-2.76c0,0,1.75-5.53-6.25-9.6,0,0-6.41-3.93-11.79-4.22,0,0-26-6.4-22.55-33.09,0,0,.73-7-1.31-10.25,0,0-6.4-7.69-5.52-21.88,0,0,1.16-7.51,7.12-10.56,0,0,5.39-1.38,5.39-9.05,0,0,.14-6.37,1.16-8.7,0,0,2.62-3.2,1.16-5.23,0,0-5.67-17.6-.87-30.69,0,0,3.79-10.48,9.82-13.68,0,0,8.42-6.25,9.09-14,0,0-.41-10.73,14.48-16.26a57,57,0,0,0,7.19-3.93s16.29-9.69,29.24,3.23Z" transform="translate(-0.16 -0.05)"/><path class="cls-3" d="M592.9,863.1a24.47,24.47,0,0,0,22.47-13.74s3.71-7.2,10.69-5a23.29,23.29,0,0,1,10,7s10.47,8.08,24.22,1.31c0,0,12.44-9.38,3.93-25.09,0,0-7.77-8.35-2.62-15.93a62.59,62.59,0,0,1,9.49-8.6s7.31-3,7.53-18.89c0,0,.21-8.81-9.82-23,0,0-11.78-7.81-7.42-23.3,0,0,3.22-5.23,6.29-6.79,0,0,5.56-3.72,3.35-11.88,0,0-1.45-7-11.22-5.08,0,0-23.23,4.79-22.42-22.46,0,0,6.55-12.7-3.27-19.68,0,0-12.88-9.6-24.66-4.15,0,0-5.52,4.3-9.82-2.8,0,0-12-16-31.2-.73l14.79,167.39Z" transform="translate(-0.16 -0.05)"/><path class="cls-4" d="M519.66,869.58l-3.78,6.69a23.48,23.48,0,0,0,20.8,4.36s5.38-2.93,7.57.79c0,0,6.54,11.28,18.76,8.67,0,0,11.78-1.43,14-11.48,0,0-.37-5.83,3.71-7.87,0,0,6.69-2.33,11.63,1.6,0,0,6.4,4.36,10.77,1.16,0,0,3.63-6.25-1.9-10.32,0,0-12-3.2-10.76-13.09,0,0,2-8.88,10-9.6a11,11,0,0,0,9.16-8.73s.8-5-4.46-9.6c0,0-3.83-4.66-1.36-12.36a13.17,13.17,0,0,1,7.57-5.68s12.51-1.74,16.72-15.85a21.53,21.53,0,0,0-6-20.24s-7.13-9.14-2.91-16.49c0,0,5-7,8.29-11.51,0,0,4-4.66,2.87-10,0,0-3-10.84-19.74-15.92,0,0-15.61-6.66-15.88-18.69a13,13,0,0,1,2.93-8.31s6-5.79,2.77-12.9a21.05,21.05,0,0,0-13.1-9.36s-9.58-1.75-14.17-8.63a10.07,10.07,0,0,0-11.13-4.08s-9.31,4.34-17.89-1.19c0,0-18.15-14.55-31.19,3.42Z" transform="translate(-0.16 -0.05)"/><path class="cls-4" d="M620.36,878.41c-2.28,4.2-5.51,3.88-6.73,3.43l-.27-.11-.17-.08h0c-1.11-.6-2.14-2.11-1.63-5.78a6.52,6.52,0,0,1,1.84-2.62,6,6,0,0,1,2.62-.18h0l.08,0,.15,0A4.54,4.54,0,0,1,620.36,878.41Z" transform="translate(-0.16 -0.05)"/><ellipse class="cls-3" cx="312.27" cy="765.5" rx="4.15" ry="5.75" transform="translate(-429.53 400.12) rotate(-41.58)"/><path class="cls-3" d="M373,900.72a2.27,2.27,0,0,1-1.57-.78h0c-3.46-3-1.92-5.34-1.92-5.34a3.33,3.33,0,0,1,2.18,0c4.26,1.69,4.53,5,4.53,5C375.5,900.88,373,900.72,373,900.72Z" transform="translate(-0.16 -0.05)"/><path class="cls-5" d="M493.57,888.85s-.43,16.36,4.37,20.65a3,3,0,0,1,1,1.75s.66,5.31,8.44,7.2c0,0,2.33.95,1.82,4.8,0,0-.23,11.47,8.83,15.63,0,0,1.35.88,1.5-1.16,0,0-.3-1.79,1.09-2.24,0,0,1.74.2,1.45,3.59,0,0,.07,5.71,5.31,5.42a5.3,5.3,0,0,0,4.51-3.13s.14-1.55,2.18-1.65c0,0,2.76.58,1.89,4.79,0,0-.14,8.86,8.15,8.13,0,0,5.38-1.38,3.34-11.13,0,0-1.82-6.4-13.89-4.58,0,0-6,1.09-4.94-5.89,0,0,2.61-9.82-10.11-14.91,0,0-11.13-2.54-14-13.52a5.49,5.49,0,0,1-.07-2s2.4-8.51.29-15Z" transform="translate(-0.16 -0.05)"/><path class="cls-6" d="M493.55,899.54s4.73,5.13,2.29,10.8a10.94,10.94,0,0,1-7.23,3.16s-5.5.31-4.28,6.76c.9,4.63-3.39,6.64-3.39,6.64-.85.14-1.38,1.5-1.38,1.5a3.79,3.79,0,0,1-2.79,0s-8.78-2.35-8.12,6.16c0,0-.51,3-1.78,3.12,0,0-6.84,1.57-7.82-6.28a6.91,6.91,0,0,1,3.91-6.88s1.76-1,2.09-4.25c0,0-.6-5.55,3.19-7.3,0,0,8.66-2.85,9.82-8.14a7.44,7.44,0,0,1,1.28-4,9.74,9.74,0,0,1,3.79-2.85l4.28-5.69,1.2-4.41,6.11,2.58S489.44,892.67,493.55,899.54Z" transform="translate(-0.16 -0.05)"/><path class="cls-7" d="M488.61,887.9s-2.38,5.6-5.67,9A6.85,6.85,0,0,1,479,898.3s-2.37,1.56-.86,3.22C478.15,901.52,485.56,902.45,488.61,887.9Z" transform="translate(-0.16 -0.05)"/><path class="cls-8" d="M501.26,891.82s-14.76,1-21.23-11.7c0,0-2.8-2.4-1.47-5.67,0,0,1.1-8.51-3.91-13.31,0,0-6.33-7.42-7.86-8.29a12.85,12.85,0,0,1-7.42-9s-3-9.15-7.71-13.85c0,0-11.27-9.93-3.41-25.85,0,0,4.74-8.5-4.37-16.72,0,0-15.43-12.09-9.9-29.54,0,0,.26-3.05,6-8.29,0,0,7.85-2.67,7.63-9.62a39.17,39.17,0,0,1,3.93-15.26S456.7,710,453.7,699c0,0-3.2-15.67-.51-24,0,0,1.17-32,35.2-34.65,0,0,18.47-.07,26.36,11.31,0,0,1.92,7.45,4.47,8.33,0,0,5.53,4.48,5.13,14.46,0,0,1.57,8.09,5.06,9.25,0,0,6.71,2,5.21,19.15,0,0-7,9.28-1.76,24.77,0,0,3.48,14.84,2,22,0,0-10.45,19.5-5.65,30,0,0,.14,2,3.67,4.21,0,0,16.19,5.49,14.88,19.11,0,0-3.06,6.2-8.29,6.42a17.75,17.75,0,0,1-6.59.22s-6.5-.44-5.41,6.76a16.32,16.32,0,0,0,2.61,5.24s6.55,8.07,4.8,18.55a27.65,27.65,0,0,1-7,11.12s-8.07,2-5.45,13.75a19.17,19.17,0,0,1-3.21,8.29s-1.59,1.74-.94,5.24C518.28,878.6,517.16,890,501.26,891.82Z" transform="translate(-0.16 -0.05)"/><path class="cls-9" d="M571.86,785s-6-.32-6.79-5.28c0,0,2.69-9.38-2.09-13.6,0,0-5.28-3.57-1.86-8.8,0,0,3.42-3.28,7.34-1.31a6,6,0,0,0,5.24,2.83s6.76-2,5.67,11.13C579.37,769.94,580.49,781.67,571.86,785Z" transform="translate(-0.16 -0.05)"/><path class="cls-9" d="M429.48,787.48s-4.26.19-6.47-2.25l-2.81-1.76-.54-.22a6.78,6.78,0,0,1-1.08-.8h0a7.56,7.56,0,0,1-2.62-5.38s.75-4.4-2.25-6.42c0,0-5.11-7.12-3.07-9.48,0,0,8.15-5.08,16.22,9.48C426.86,770.65,435.81,784.3,429.48,787.48Z" transform="translate(-0.16 -0.05)"/><path class="cls-9" d="M515.14,728.33a9.2,9.2,0,0,1,.05,4.23s-2.75,8.58-10.79,10.57c0,0-4.59-.34-7-3.72l0,0c-7.24-7-13.33-1.89-13.33-1.89-3.47,2.72-7,5.24-7,5.24s-8.64,3.49-8.64-9.82a10.34,10.34,0,0,1,.4-2.53C474.61,732.7,494.94,739.22,515.14,728.33Z" transform="translate(-0.16 -0.05)"/><path class="cls-9" d="M491.24,730.29l1-.22a8,8,0,0,0,1.05-.18A12.36,12.36,0,0,1,491.24,730.29Z" transform="translate(-0.16 -0.05)"/><path class="cls-9" d="M493.31,729.89l.33-.08Z" transform="translate(-0.16 -0.05)"/><path class="cls-10" d="M477.2,724.17a25.08,25.08,0,0,1,4.79,2.9c4.55,3,8.25,3.22,10.27,3l-1,.22a12.36,12.36,0,0,0,2.07-.4l.33-.08-.33.08a8,8,0,0,1-1.05.18l1.71-.36a12.28,12.28,0,0,0,4.49-2.77,18.92,18.92,0,0,1,11.46-5,10.56,10.56,0,0,1,5.22,6.34c-20.2,10.89-40.53,4.37-46.42,2C469.44,727.8,471.47,724.17,477.2,724.17Z" transform="translate(-0.16 -0.05)"/></g><path class="cls-11" d="M373.38,895.51a8.28,8.28,0,0,0-1.71-.9l-.21-.06a3,3,0,0,0-2,.06,3.32,3.32,0,0,0,.22,3.35,7.27,7.27,0,0,0,1.7,2h0a2.8,2.8,0,0,0,.55.44l.17.11a2.07,2.07,0,0,0,.86.23s2.51.16,3.22-1.09a5.43,5.43,0,0,0-1.27-2.74A7.12,7.12,0,0,0,373.38,895.51Z" transform="translate(-0.16 -0.05)"/><path class="cls-12" d="M670.87,764.21c-.63-1-1.31-2-2-3h0A14.49,14.49,0,0,1,667,759.7a22.63,22.63,0,0,1-1.71-1.82c-.37-.44-.75-.93-1.12-1.45-.19-.27-.37-.54-.55-.82s-.42-.67-.62-1-.29-.53-.43-.8a20.82,20.82,0,0,1-1.11-2.66c-.11-.32-.21-.65-.3-1a22.31,22.31,0,0,1,.21-12.27,33.3,33.3,0,0,1,2.2-3.07,14.56,14.56,0,0,1,4.09-3.72,6.66,6.66,0,0,0,.81-.68l0,0c.15-.14.3-.3.47-.49a9.88,9.88,0,0,0,1-1.42c.13-.2.24-.41.36-.64a10.59,10.59,0,0,0,1.16-4.49,14.1,14.1,0,0,0-.51-4.13,5.89,5.89,0,0,0-.35-1s0,0,0-.07a7.6,7.6,0,0,0-.52-.92c-.06-.1-.14-.2-.22-.31a6.56,6.56,0,0,0-.79-.92l0,0a6.55,6.55,0,0,0-1.07-.82l-.36-.24a8.59,8.59,0,0,0-2.72-.92,11.39,11.39,0,0,0-1.83-.17,16.2,16.2,0,0,0-3.29.33,21.1,21.1,0,0,1-3.61.33h0c-.53,0-1.1,0-1.7-.05h-.12c-.53,0-1.08-.09-1.65-.17l-.57-.09a18.71,18.71,0,0,1-3.1-.77,15.4,15.4,0,0,1-1.66-.65l-.16-.07c-5.32-2.48-10.22-8.22-9.84-21,0,0,3.68-7.14,1.38-13.66a11,11,0,0,0-.45-1.07,10.66,10.66,0,0,0-.71-1.33,12.27,12.27,0,0,0-1.84-2.25,13.33,13.33,0,0,0-1.65-1.37,29.77,29.77,0,0,0-4-2.4c-.67-.35-1.42-.71-2.23-1.05a33.17,33.17,0,0,0-3.51-1.28,25.1,25.1,0,0,0-7.18-1.09,18.74,18.74,0,0,0-3.76.38l-1,.24a18.19,18.19,0,0,0-2.94,1.05,5.93,5.93,0,0,1-1.14.66l-.05,0-.43.18-.48.16L607,669a7,7,0,0,1-.82.14,5.12,5.12,0,0,1-.79,0,4.94,4.94,0,0,1-1.18-.17c-1.5-.38-3.12-1.48-4.6-3.92l-.08-.11,0,0-.1-.12,0,0-.15-.17,0,0a19.45,19.45,0,0,0-23-5h0c-.31-.26-.61-.55-.91-.84l-.32-.33c-.21-.22-.43-.46-.63-.7s-.19-.21-.28-.33a13.09,13.09,0,0,1-.82-1.1,10.07,10.07,0,0,0-11.13-4.08s-.3.13-.82.32l-.21.08c-.35.12-.77.26-1.27.4l-.25.07-.73.18-.24,0c-.28.07-.57.12-.88.18a22.45,22.45,0,0,1-2.65.31l-.7,0a17.85,17.85,0,0,1-10.14-2.8l-.2-.15-.18-.13-.05,0-.31-.22h0c-3.33-2.33-17.38-10.89-28.63,1.71l-.13-.48a21.12,21.12,0,0,0-5.36-5.27q-.79-.54-1.62-1l-.54-.31a32.33,32.33,0,0,0-5-2.23l-.66-.23a46.41,46.41,0,0,0-13.19-2.25h0c-.95.07-1.87.18-2.77.3l-.57.07c-.86.13-1.71.27-2.53.43l-.42.09c-.74.15-1.46.32-2.17.51l-.39.1c-.76.21-1.49.43-2.21.67l-.5.17c-.71.26-1.41.52-2.08.8l-.12,0c-.64.27-1.26.56-1.86.86l-.45.22c-.6.31-1.19.63-1.75,1l-.38.23c-.49.29-1,.6-1.43.91-.1.07-.22.14-.32.22-.51.35-1,.72-1.48,1.09l-.41.33c-.46.37-.92.75-1.35,1.14h0c-10.38-7.42-21.83-2.73-25.14-1.08h0c-.6.3-.95.5-.95.5a57,57,0,0,1-7.19,3.93c-.62.23-1.2.47-1.77.72l-.42.18c-.54.25-1.08.5-1.58.76h0c-.51.27-1,.54-1.46.82l-.3.19c-.45.28-.88.56-1.29.85h0c-3.33-4.17-11.19-4.5-13.61-4.49h-.72c-13,1.67-20.54,15.62-20.54,15.62-2,7.69-13.8,7.29-13.8,7.29a34.81,34.81,0,0,0-4.23.67c-1.09.23-2.18.49-3.2.76-1.35.35-2.58.72-3.53,1-1.19.36-1.93.62-1.93.62a20.84,20.84,0,0,0-5.26,4.39q-.33.39-.63.78a18.13,18.13,0,0,0-3.43,13.72c1.68,8.85-1.65,12.29-1.65,12.29a9.48,9.48,0,0,1-5.33,2.84,17.33,17.33,0,0,1-4.54.26,22.28,22.28,0,0,1-4.23-.68,11,11,0,0,0-8.52,1.47l-.42.3a7.44,7.44,0,0,0-.59.5l0,0c-.23.22-.34.35-.34.35a8.14,8.14,0,0,0-.64,2,7.23,7.23,0,0,0-.13,1.29v.05a8.91,8.91,0,0,0,.39,2.61,15,15,0,0,0,3.48,5.79,22.17,22.17,0,0,1,6.47,7.7,15.07,15.07,0,0,1,1.54,5.56c0,.13,0,.25,0,.36a7.73,7.73,0,0,1,0,1c-.45,6.33-8.26,6.76-8.26,6.76a10.05,10.05,0,0,0-3.84,1.25,11.47,11.47,0,0,0-1.27.81,13.36,13.36,0,0,0-1.47,1.3,15.59,15.59,0,0,0-1,1.2,14.7,14.7,0,0,0-1.81,3,11.53,11.53,0,0,0,.16,4.85c1.52,6.19,7.62,10.06,7.62,10.06,5.57,3.16,11.68,10.91,14.16,14.26l.15.2c.64.87,1,1.39,1,1.39l.27.53c5.54,11-.27,24-.27,24a12.27,12.27,0,0,0-.87,2q-.22.66-.42,1.38c-.23.84-.43,1.71-.59,2.57-.11.58-.21,1.16-.29,1.71-.12.76-.21,1.48-.28,2.12s-.1,1-.14,1.37c-.08.9-.11,1.47-.11,1.47,0,.42,0,.83,0,1.22V824a18,18,0,0,0,.2,2c0,.12,0,.24.07.36a13.16,13.16,0,0,0,.36,1.5c.06.18.11.35.17.52.16.44.33.85.52,1.25.11.24.23.47.35.7s.24.42.37.62a12.78,12.78,0,0,0,.82,1.17c.18.22.36.43.55.64a17.71,17.71,0,0,0,9.8,5c4.65.73,4.2,4.07,4.2,4.07a9.51,9.51,0,0,0,.13,3.44,6.12,6.12,0,0,0,5,4.56,21,21,0,0,1,3,.78h0l.34.13.6.24a9.39,9.39,0,0,1,2.2,1.3l.19.15a5.92,5.92,0,0,1,1,1.09l.13.17c2,3-.09,6.31-.09,6.31-1.35,1.46-5.71,2.77-5.71,2.77-5.85,4.65-.75,11.78-.75,11.78.3.27.6.52.91.75a11.78,11.78,0,0,0,2.36,1.41,12.57,12.57,0,0,0,2.06.71,15,15,0,0,0,4,.43,18.06,18.06,0,0,0,2-.15l.74-.11,1-.2.35-.08a18.45,18.45,0,0,0,2.78-.87,5.15,5.15,0,0,1,1.23-1c.3-.19.62-.37,1-.55l.42-.2c4.53-2.06,12.18-2.72,12.18-2.72,8-.58,15.91,5.53,15.91,5.53a30.65,30.65,0,0,0,7.25,2.76c.51.13,1,.25,1.52.35s1.09.22,1.61.31a44.42,44.42,0,0,0,7.18.65h.45c.74,0,1.45-.06,2.15-.1l.59,0q.81,0,1.59-.12l.49,0,1.91-.2.34,0,1.51-.2.5-.08,1.48-.25.23,0,1.62-.33.37-.09,1.21-.29.37-.09c.49-.13,1-.26,1.43-.4h0c.45-.13.88-.27,1.31-.42l.32-.11c.35-.12.7-.24,1-.37l.23-.08,1.15-.48.19-.08c.31-.13.61-.27.9-.41l.26-.12c.31-.15.61-.3.9-.46l.08,0,.91-.5.22-.14.64-.39.21-.14c.26-.16.5-.33.74-.5l.12-.08.56-.42.22-.17.43-.36.18-.14.51-.46.2-.18c.1-.1.2-.19.29-.29l.21-.21.25-.26.3-.34.19-.21.2-.24.12-.16.19-.24h0c.22.66.35,1.14.4,1.35v.11a13.54,13.54,0,0,0,.88,1.38,3.46,3.46,0,0,0,.22.31c.31.41.63.81,1,1.17l.12.12c.31.33.64.63,1,.92l.26.23a12.19,12.19,0,0,0,1.1.83l.22.14a11.65,11.65,0,0,0,1,.6l.28.15c.4.21.79.39,1.19.56l.29.11c.35.13.7.26,1.05.37l.26.08c.41.13.82.23,1.23.33l.32.07c.36.07.72.14,1.08.19l.21,0c.41.06.81.11,1.21.14l.32,0,1.12.06h1.51c.78,0,1.51-.06,2.19-.13h.15c.71-.08,1.35-.16,1.9-.26h0c.24.47.5.92.76,1.35l.17.26c.23.37.47.72.71,1.06l.15.2a20.72,20.72,0,0,0,1.9,2.21l.1.1c.31.3.62.59.94.86l.11.1a20.76,20.76,0,0,0,3.32,2.32h0q-.14.3-.33.69l0,.07c-.11.23-.23.47-.37.73l-.08.17-.48.88-.12.21c-.15.27-.31.54-.48.82a2.39,2.39,0,0,1-.13.21c-.19.33-.4.65-.61,1a2.33,2.33,0,0,0-.17.26c-.2.3-.41.59-.62.89a1.71,1.71,0,0,1-.11.14q-.36.5-.75,1l-.19.23a12.12,12.12,0,0,1-.83.91h0a7,7,0,0,1-2.85,1.32,6.14,6.14,0,0,1-1.08.13,3.57,3.57,0,0,0-1.25,1.48,2,2,0,0,0-.08.26,1.64,1.64,0,0,0,.47,1.48h.06a5.73,5.73,0,0,0,.73,0h0c-.08.15-.15.3-.22.45l-.09.21c-.06.14-.11.28-.16.42a1.72,1.72,0,0,1-.07.21c0,.13-.07.26-.1.39a1.8,1.8,0,0,0-.05.19c0,.13-.05.24-.07.35l0,.17c0,.1,0,.2,0,.28s0,.11,0,.16,0,.14,0,.19a1,1,0,0,0,0,.16s0,.05,0,.07v.08a8.68,8.68,0,0,1-3.42,4.74,24.24,24.24,0,0,1-6.4,3.4c-3.79,1.75-3.19,7.3-3.19,7.3a8.19,8.19,0,0,1-.37,1.72,4.59,4.59,0,0,1-1.72,2.53,6.41,6.41,0,0,0-3.58,4,7.66,7.66,0,0,0-.33,2.85c.34,2.79,1.44,4.38,2.7,5.28a7,7,0,0,0,5.12,1,1,1,0,0,0,.23-.06,2.46,2.46,0,0,0,1.09-1.43,9,9,0,0,0,.46-1.63c-.66-8.51,8.12-6.16,8.12-6.16a3.79,3.79,0,0,0,2.79,0,3.87,3.87,0,0,1,.45-.8,1.57,1.57,0,0,1,.93-.7s4.29-2,3.39-6.64a7.33,7.33,0,0,1,0-3.29,4.82,4.82,0,0,1,4.26-3.47,9.52,9.52,0,0,0,4.16-1,11.28,11.28,0,0,0,3.07-2.16h0c.12-.3.22-.59.31-.88,0-.12.07-.24.1-.36a3.43,3.43,0,0,0,.09-.44,9,9,0,0,0,.15-1h0c.1.18.21.36.32.54l0,0a5.33,5.33,0,0,0,.32.46.76.76,0,0,0,.11.14,4,4,0,0,0,.26.32,5,5,0,0,0,.4.4,3.87,3.87,0,0,1,.32.32l0,0a2.36,2.36,0,0,1,.66,1.39,6.39,6.39,0,0,0,.79,2.08,9.61,9.61,0,0,0,4,3.75,15.09,15.09,0,0,0,3.67,1.37h0a2.84,2.84,0,0,1,.66.47l0,0a3.44,3.44,0,0,1,.46.56,5.31,5.31,0,0,1,.65,3.74,21.78,21.78,0,0,0,1.59,7.82c.1.24.21.49.32.73s.21.43.32.64a13.89,13.89,0,0,0,6.6,6.43h0l.12.06c.34.16,1.26.44,1.37-1.22,0,0-.29-1.79,1.1-2.24a.85.85,0,0,1,.2.06l.1.05a1.64,1.64,0,0,1,.37.24v0c.45.42.93,1.31.77,3.22,0,0,0,3.77,2.87,5a4.7,4.7,0,0,0,1.24.34,6.56,6.56,0,0,0,1.2.06h0a4.91,4.91,0,0,0,.78-.11l.3-.08a5.6,5.6,0,0,0,.88-.32,3.48,3.48,0,0,0,.38-.2,3.24,3.24,0,0,0,.35-.21,5,5,0,0,0,1.82-2.21,1.84,1.84,0,0,1,1-1.35,2.88,2.88,0,0,1,1.2-.3,2.73,2.73,0,0,1,1.84,1.81,3,3,0,0,1,.12.45,6.1,6.1,0,0,1-.07,2.53s-.13,7.79,6.69,8.16a9.05,9.05,0,0,0,1.46,0s2.42-.64,3.4-4a14.81,14.81,0,0,0-.06-7.12,6.47,6.47,0,0,0-3.23-3.47l-.46-.23c-2.08-1-5.29-1.62-10.2-.88a5.45,5.45,0,0,1-3.21-.5,3.23,3.23,0,0,1-.54-.37l-.11-.09c-.9-.83-1.49-2.31-1.08-4.93,0,0,2.61-9.82-10.11-14.91,0,0-10.45-2.39-13.74-12.52-.11-.33-.21-.66-.3-1l0-.15c0-.09,0-.23-.06-.4a5.46,5.46,0,0,1,0-.62c0-.12,0-.25,0-.38s0-.27,0-.42l0-.06,0-.09s0-.06,0-.1,0-.12.05-.2h0a38.38,38.38,0,0,0,1-6.39v0c.05-.87.08-1.78.05-2.71v0h0a22,22,0,0,0,3.87-1.42l.07,0c.26-.12.5-.25.73-.37l.14-.07.66-.39.14-.08.62-.39.12-.09c.2-.13.4-.27.58-.41l.09-.07.57-.45h0a15.14,15.14,0,0,0,2.84-3.09v0l.32-.47,0-.06q.15-.23.27-.45l0-.06.24-.44,0,0,.22-.44h0a13.87,13.87,0,0,0,.79-2h0c0-.1.06-.19.08-.28a.19.19,0,0,0,0-.07l.06-.23a.19.19,0,0,1,0-.07c0-.07,0-.13,0-.19s0,0,0-.08a.83.83,0,0,0,0-.15V879a.43.43,0,0,1,0-.12v-.24c0-.24,0-.45-.08-.67h0l.57.34.17.09.53.29.15.08.73.36.14.07.65.29.23.1.74.3.12,0,.91.31.24.08.75.23.28.08,1,.25h0l1,.2.32,0,.87.13.3,0c.38,0,.78.08,1.18.1h.23c.33,0,.67,0,1,0h.38l1.06,0h.24c.44,0,.88-.08,1.32-.13l.35,0c.35-.05.71-.1,1.06-.17l.41-.07c.47-.09.94-.2,1.42-.32h0l.06,0c.13-.07.47-.23.92-.41.2-.08.43-.16.67-.23a8.91,8.91,0,0,1,1.16-.3,6.83,6.83,0,0,1,.79-.11,4.28,4.28,0,0,1,3,.79,4,4,0,0,1,.93,1.08,21.14,21.14,0,0,0,5.77,6l.67.45c.34.21.69.42,1.05.61A16.06,16.06,0,0,0,563,890.09a14.53,14.53,0,0,0,1.48-.29l.75-.19.6-.17c.57-.17,1.21-.4,1.88-.67a3.93,3.93,0,0,0,.43-.18l1-.45,0,0a18.11,18.11,0,0,0,1.69-1c.3-.19.6-.4.89-.61s.63-.48.93-.75l.14-.12a13.28,13.28,0,0,0,2.72-3.27c.15-.26.3-.53.43-.81a12.28,12.28,0,0,0,.73-1.78c.06-.18.11-.35.16-.53l.18-.68s-.37-5.83,3.7-7.87c0,0,6.7-2.33,11.64,1.6,0,0,5.63,3.84,9.92,1.68a5.3,5.3,0,0,0,.84-.52,9.86,9.86,0,0,0,1-2.88,9.34,9.34,0,0,0,.16-1.55,7,7,0,0,0-3.07-5.89,18.45,18.45,0,0,1-2.11-.77c.3-.07.61-.16.93-.25h0a24.33,24.33,0,0,0,4-1.54l.23-.12.78-.4.32-.18c.23-.13.47-.27.7-.42l.35-.21.7-.47.33-.23c.26-.18.51-.38.77-.58l.25-.19c.34-.27.67-.55,1-.85l.18-.16c.27-.25.54-.5.8-.77.12-.11.23-.23.34-.35s.42-.44.62-.67.25-.28.37-.43l.57-.69.37-.47c.18-.25.37-.5.55-.76s.23-.33.34-.49l.57-.91c.09-.15.19-.29.28-.45.27-.46.54-.95.8-1.45a12.12,12.12,0,0,1,2.1-2.75,8.23,8.23,0,0,1,8.59-2.27,21.68,21.68,0,0,1,2.82,1.22l.73.39a21.42,21.42,0,0,1,6.49,5.37,17.47,17.47,0,0,0,2.84,1.67l.05,0a23.91,23.91,0,0,0,3,1.19l.6.18.87.24.92.21.68.13c.42.08.85.14,1.3.2s.87.09,1.33.12c.63,0,1.28.06,1.95.05h0a25.24,25.24,0,0,0,10.66-2.7s12.43-9.38,3.93-25.09c0,0-7.77-8.35-2.62-15.93a62.59,62.59,0,0,1,9.49-8.6s7.31-3,7.53-18.89C678.64,784.12,678.82,776.56,670.87,764.21ZM493.54,899.54a12.08,12.08,0,0,1-.59-1.11,2.1,2.1,0,0,1-.13-.26,8.82,8.82,0,0,1-.38-.94l0-.07c-.11-.32-.19-.62-.26-.91a1.55,1.55,0,0,1,0-.21,7,7,0,0,1-.11-.74s0-.07,0-.1a6.09,6.09,0,0,1,0-.74c0-.05,0-.11,0-.17a4.85,4.85,0,0,1,.08-.55l0-.12a3.06,3.06,0,0,1,.17-.56,1,1,0,0,1,.07-.15,2.22,2.22,0,0,1,.18-.38l.07-.14c.09-.14.17-.27.26-.39l.12-.16.18-.21.14-.15a2.19,2.19,0,0,1,.23-.21l0,0q0,.85.06,1.92v0a65,65,0,0,0,.73,7.4h0A12,12,0,0,0,493.54,899.54Zm-6.14-7.23h0v0h0Z" transform="translate(-0.16 -0.05)"/><path class="cls-13" d="M617.09,873.31a6.66,6.66,0,0,0-.85-.19l-.15,0-.08,0h0a6,6,0,0,0-2.62.18,6.6,6.6,0,0,0-1.85,2.62,10.12,10.12,0,0,0,0,3.17,3.44,3.44,0,0,0,1.65,2.61h0l.07,0,.07,0,.06,0,.21.09c1.22.45,4.45.77,6.72-3.43A4.5,4.5,0,0,0,617.09,873.31Z" transform="translate(-0.16 -0.05)"/><path class="cls-14" d="M312.7,760.81a4,4,0,0,0-4.26.39,3.12,3.12,0,0,0-.73,1c-.75,1.61-.3,3.92,1.27,5.81l.17.22h0a7.36,7.36,0,0,0,2.65,1.93,5.34,5.34,0,0,0,1.74.4h.13a3.36,3.36,0,0,0,2.39-.8c1.72-1.53,1.4-4.69-.71-7.06A7.42,7.42,0,0,0,312.7,760.81Z" transform="translate(-0.16 -0.05)"/><rect class="cls-15" width="53"/><rect class="cls-16" x="974" y="1172" width="53"/><g class="cls-17"><path class="cls-18" d="M808.4,653.94l.45-.22L768,633.09V609.65l.69-.35-.45-.22h-1.38l-69.58-11.72L656.9,577l-.45-.23H574.79L505.2,565l-.69-.35h-.9l-.69.35-69.59,11.72H351.67l-40.84,20.63-69.58,11.72h-1.39l-.44.22.69.35v23.44l-40.39,20.4-.45.23,40.84,20.62v23.44l-.69.35.44.23h1.39l69.58,11.71,40.39,20.41.45.22h81.66l69.59,11.72.69.35h.9l.69-.35,69.59-11.72h81.66l40.84-20.63,69.58-11.71h1.38l.45-.23-.69-.35V674.35ZM590.63,697.45H417.49l-86.56-43.73L417.49,610H590.63l86.56,43.74Zm46.75-65.66,93.35-15.72,10.49,5.3L679,652.81Zm91.8-16.51L635.83,631l-41.61-21H718.68Zm-140.35-6.2H505.62V577.64h21ZM502.5,577.64v31.44H419.29l62.23-31.44ZM413.9,610l-41.61,21-93.35-15.72,10.49-5.3Zm-136.51,6.09,93.34,15.72-41.6,21L266.9,621.37Zm51.74,38.55,41.6,21-93.34,15.72-10.49-5.3Zm-50.19,37.53,93.35-15.72,41.61,21H289.43Zm140.35,6.21H502.5v31.43h-21Zm86.33,31.43V698.36h83.21L526.6,729.79Zm88.6-32.34,41.61-21,93.35,15.72-10.5,5.3Zm136.51-6.09-93.35-15.72,41.61-21,62.23,31.44Zm2.7-75.74,28.77-4.85L743,620.46Zm-1.56-.79L722.28,610h38.37Zm-226.25-38.1V567l19.18,9.69Zm-3.12,0H483.32L502.5,567Zm-226.25,38.1L247.47,610h38.37Zm-1.56.79-9.59,4.84-19.18-9.69Zm0,76.2-28.77,4.84L265.1,687Zm1.56.78,9.59,4.85H247.47ZM502.5,730.7v9.69l-19.18-9.69Zm3.12,0H524.8l-19.18,9.69Zm226.25-38.1,28.78,4.85H722.28Zm1.56-.78L743,687l19.18,9.69Zm-141-82.74-62.23-31.44H574L695,598l21.88,11.06Zm-176.72,0H291.23L313.11,598l121.06-20.38h43.76Zm-88.37,44.64L265.1,685.15l-21.88-11V633.33l21.88-11.05Zm88.37,44.64,62.23,31.43H434.17L313.11,709.41l-21.88-11Zm176.72,0H716.89l-21.88,11L574,729.79H530.19Zm88.37-44.64L743,622.28l21.88,11.05V674.1l-21.88,11ZM768,634.9l37.24,18.82L768,672.53Zm-23.19-13.53,20.08-10.15v20.3Zm-24.34-12.29L700.4,598.93l60.25,10.15Zm-140.3-31.44h74.48l37.23,18.81Zm-51.79-.91-20.08-10.15,60.25,10.15Zm-48.67,0H439.56l60.25-10.15Zm-163.5,19.72,37.24-18.81h74.48Zm-28.58,12.63H247.47l60.25-10.15ZM263.3,621.37l-20.08,10.15v-20.3Zm-23.19,51.16-37.24-18.81,37.24-18.82Zm23.19,13.53-20.08,10.15V675.92Zm24.34,12.3,20.08,10.14-60.25-10.14Zm140.3,31.43H353.46L316.22,711Zm51.78.91,20.09,10.15L439.56,730.7Zm48.67,0h40.17l-60.25,10.15ZM691.89,711l-37.23,18.81H580.18Zm28.59-12.62h40.17L700.4,708.5Zm24.34-12.3,20.08-10.14v20.29Z" transform="translate(-0.16 -0.05)"/><path class="cls-19" d="M584.73,613H423.38l-80.22,40.53-.45.23,80.22,40.52.45.23H584.73L665,653.94l.45-.22-80.23-40.53Zm-220.4,40.76c0,4.36,2.37,8.56,6.74,12.51L346.3,653.72l24.77-12.52C366.7,645.15,364.33,649.35,364.33,653.72Zm3.11,0c0-22,61.29-39.85,136.62-39.85s136.62,17.87,136.62,39.85-61.29,39.84-136.62,39.84S367.44,675.69,367.44,653.72Zm276.35,0c0-4.37-2.37-8.57-6.74-12.52l24.77,12.52-24.77,12.51C641.42,662.28,643.79,658.08,643.79,653.72ZM533.42,613.87h49.52l24.94,12.6C588.54,620.21,562.66,615.7,533.42,613.87Zm-133.18,12.6,24.94-12.6H474.7C445.45,615.7,419.58,620.21,400.24,626.47Zm74.46,67.09H425.18L400.24,681C419.58,687.22,445.45,691.73,474.7,693.56ZM607.88,681l-24.94,12.6H533.42C562.66,691.73,588.54,687.23,607.88,681Z" transform="translate(-0.16 -0.05)"/><path class="cls-20" d="M504.06,666.48c23.9,0,43.35-5.68,43.35-12.65S528,641.19,504.06,641.19s-43.35,5.67-43.35,12.64S480.16,666.48,504.06,666.48Zm0-22.57c18.75,0,34,4.45,34,9.92s-15.26,9.92-34,9.92-34-4.45-34-9.92S485.31,643.91,504.06,643.91Z" transform="translate(-0.16 -0.05)"/><path class="cls-20" d="M562.35,653.83c0-9.37-26.15-17-58.29-17s-58.3,7.63-58.3,17,26.16,17,58.3,17S562.35,663.21,562.35,653.83Zm-58.29-16.09c30.43,0,55.18,7.22,55.18,16.09s-24.75,16.1-55.18,16.1-55.18-7.22-55.18-16.1S473.63,637.74,504.06,637.74Z" transform="translate(-0.16 -0.05)"/></g><g class="cls-21"><path class="cls-22" d="M504.44,506.8c.61,3,1,5.92,1.53,8.88l.63,4.43.51,4.44c.16,1.47.47,3,.72,4.43a13.78,13.78,0,0,1,0,4.44,23.4,23.4,0,0,1-1.12,4.43,17.18,17.18,0,0,1-2.31,4.44h-.76a17.23,17.23,0,0,1-2.32-4.44,23.36,23.36,0,0,1-1.11-4.43,14.07,14.07,0,0,1,0-4.44c.26-1.48.57-3,.73-4.43l.51-4.44.63-4.43c.52-3,.92-5.92,1.53-8.88Z" transform="translate(-0.16 -0.05)"/><path class="cls-22" d="M417,509c2.36,2.88,4.52,5.77,6.78,8.66L427,522l3.15,4.34c1,1.45,2.22,2.89,3.35,4.33a21.36,21.36,0,0,1,2.68,4.37,25.34,25.34,0,0,1,1.54,4.43,12.56,12.56,0,0,1,.36,4.48l-.75,0a38.16,38.16,0,0,1-4.92-4.25,46.57,46.57,0,0,1-3.74-4.31,20.87,20.87,0,0,1-2.6-4.37c-.63-1.47-1.21-2.94-1.93-4.41L422,522.27l-2-4.4c-1.26-2.94-2.62-5.87-3.78-8.81Z" transform="translate(-0.16 -0.05)"/><path class="cls-22" d="M332.14,515.63c4,2.71,7.89,5.45,11.84,8.18l5.79,4.1,5.69,4.12c1.88,1.37,3.9,2.73,5.88,4.1a46.63,46.63,0,0,1,5.23,4.16,50.16,50.16,0,0,1,4.15,4.28,21,21,0,0,1,3,4.4L373,549a81.79,81.79,0,0,1-7.37-3.93q-3.35-2-6.25-4.06a46.66,46.66,0,0,1-5.17-4.17c-1.49-1.42-2.94-2.83-4.52-4.24L345,528.42l-4.6-4.23c-3-2.83-6.08-5.65-9-8.49Z" transform="translate(-0.16 -0.05)"/><path class="cls-22" d="M252.54,526.43c5.6,2.47,11,5,16.53,7.46l8.15,3.75,8,3.77c2.67,1.25,5.47,2.49,8.23,3.73s5.3,2.52,7.63,3.84,4.56,2.64,6.64,4a47.15,47.15,0,0,1,5.6,4.18l-.66.11c-3.48-1.12-6.6-2.3-9.61-3.5s-5.84-2.43-8.57-3.68-5.25-2.53-7.57-3.85-4.58-2.64-7-3.94l-7.16-3.92-7.05-3.93c-4.63-2.64-9.35-5.26-13.89-7.91Z" transform="translate(-0.16 -0.05)"/><path class="cls-22" d="M180.58,541.1c7,2.15,13.81,4.34,20.72,6.51l10.26,3.28,10.16,3.3c3.39,1.11,6.88,2.18,10.33,3.27s6.73,2.21,9.81,3.39,6.06,2.37,8.92,3.6,5.58,2.5,8,3.83l-.59.15c-4.09-.93-7.87-1.94-11.54-3s-7.21-2.09-10.63-3.18-6.68-2.23-9.75-3.41-6.09-2.37-9.22-3.53l-9.38-3.5-9.29-3.51c-6.13-2.36-12.33-4.7-18.38-7.08Z" transform="translate(-0.16 -0.05)"/><path class="cls-23" d="M118.45,559.2c8.16,1.76,16.18,3.57,24.28,5.36l12.05,2.71,12,2.74c4,.91,8.07,1.79,12.12,2.68s7.93,1.85,11.67,2.85,7.39,2,10.93,3.1,7,2.17,10.16,3.37l-.49.17c-4.58-.71-8.9-1.51-13.13-2.34s-8.35-1.7-12.37-2.6-7.9-1.85-11.63-2.86-7.4-2-11.18-3l-11.32-3-11.24-3c-7.44-2-15-4-22.32-6Z" transform="translate(-0.16 -0.05)"/><path class="cls-23" d="M68,580.16c9.08,1.33,18.06,2.71,27.1,4.05l13.48,2.06,13.43,2.09c4.47.7,9,1.36,13.53,2s8.91,1.41,13.19,2.2,8.48,1.63,12.61,2.5,8.17,1.79,12,2.81l-.38.19c-4.94-.47-9.66-1-14.33-1.64s-9.22-1.25-13.73-1.93-8.88-1.43-13.15-2.23-8.49-1.62-12.8-2.4l-12.92-2.35-12.85-2.37c-8.52-1.61-17.1-3.19-25.58-4.82Z" transform="translate(-0.16 -0.05)"/><path class="cls-23" d="M30.87,603.37c9.73.84,19.4,1.74,29.1,2.61l14.5,1.35,14.47,1.37c4.82.46,9.69.88,14.54,1.32s9.62.94,14.3,1.51,9.33,1.17,13.91,1.82,9.11,1.35,13.5,2.15l-.27.21c-5.13-.21-10.13-.53-15.08-.88s-9.83-.77-14.67-1.21-9.59-1-14.27-1.53-9.34-1.17-14.05-1.72l-14.11-1.65L58.67,607c-9.36-1.16-18.74-2.28-28.06-3.46Z" transform="translate(-0.16 -0.05)"/><path class="cls-23" d="M8.08,628.1c10.09.33,20.14.73,30.22,1.1l15.08.59,15.07.62c5,.21,10.06.38,15.1.56s10,.44,15,.76,9.88.68,14.78,1.09,9.77.87,14.58,1.44l-.14.22c-5.18,0-10.29,0-15.37-.11s-10.14-.26-15.17-.45-10-.45-15-.78-9.89-.67-14.85-1l-14.89-.92-14.87-1c-9.89-.66-19.8-1.29-29.68-2Z" transform="translate(-0.16 -0.05)"/><path class="cls-23" d="M.36,653.61c10.14-.18,20.28-.3,30.42-.45L46,653l15.21-.15c5.07-.05,10.14-.14,15.21-.21s10.13-.08,15.2,0,10.14.18,15.21.33,10.14.36,15.2.68v.22c-5.06.32-10.13.51-15.2.67s-10.14.26-15.21.33-10.14.06-15.2,0-10.14-.17-15.21-.21L46,654.46l-15.2-.19c-10.14-.15-20.28-.26-30.42-.44Z" transform="translate(-0.16 -0.05)"/><path class="cls-23" d="M8,679.12c9.88-.69,19.79-1.32,29.68-2l14.87-.95,14.89-.92c5-.3,9.9-.65,14.85-1s9.93-.59,15-.78,10.08-.34,15.17-.45,10.19-.16,15.37-.1l.14.22c-4.81.57-9.68,1-14.58,1.43s-9.83.77-14.78,1.09-10,.57-15,.76-10.08.35-15.1.56l-15.07.63-15.08.58c-10.08.37-20.13.77-30.22,1.11Z" transform="translate(-0.16 -0.05)"/><path class="cls-24" d="M30.61,703.86c9.32-1.18,18.7-2.3,28.06-3.45l14.07-1.69,14.11-1.66c4.71-.55,9.37-1.14,14.05-1.72s9.43-1.08,14.27-1.52,9.73-.85,14.67-1.21,9.95-.68,15.08-.89l.27.21c-4.39.81-8.93,1.5-13.5,2.15s-9.22,1.26-13.91,1.83-9.46,1.06-14.3,1.5-9.72.86-14.54,1.32l-14.47,1.38L60,701.45c-9.7.87-19.37,1.77-29.1,2.62Z" transform="translate(-0.16 -0.05)"/><path class="cls-24" d="M67.65,727.08c8.48-1.64,17.06-3.22,25.58-4.82l12.85-2.38L119,717.53c4.31-.78,8.54-1.6,12.8-2.4s8.65-1.55,13.15-2.23,9.08-1.33,13.73-1.93,9.39-1.17,14.33-1.64l.38.2c-3.84,1-7.9,1.92-12,2.8s-8.33,1.7-12.61,2.5-8.68,1.53-13.19,2.21-9.06,1.33-13.53,2l-13.43,2.09-13.48,2.06c-9,1.35-18,2.72-27.1,4Z" transform="translate(-0.16 -0.05)"/><path class="cls-24" d="M118,748.06c7.37-2,14.88-4,22.32-6l11.24-3,11.32-3c3.78-1,7.47-2,11.18-3s7.6-2,11.63-2.86,8.14-1.77,12.37-2.6,8.55-1.63,13.13-2.33l.49.17c-3.18,1.19-6.63,2.29-10.16,3.36s-7.19,2.11-10.93,3.11-7.64,1.94-11.67,2.84-8.13,1.77-12.12,2.69l-12,2.73-12.05,2.71c-8.1,1.79-16.12,3.6-24.28,5.36Z" transform="translate(-0.16 -0.05)"/><path class="cls-24" d="M180,766.19c6.05-2.38,12.25-4.72,18.38-7.09l9.29-3.51,9.38-3.5c3.13-1.16,6.16-2.35,9.22-3.53s6.31-2.31,9.75-3.4,7-2.16,10.63-3.19,7.45-2,11.54-3l.59.15c-2.42,1.34-5.16,2.59-8,3.83s-5.84,2.43-8.92,3.61-6.36,2.3-9.81,3.39-6.94,2.16-10.33,3.26l-10.16,3.3-10.26,3.28c-6.91,2.17-13.74,4.36-20.72,6.51Z" transform="translate(-0.16 -0.05)"/><path class="cls-24" d="M251.88,780.89c4.54-2.65,9.26-5.27,13.89-7.9l7.05-3.94,7.16-3.91c2.4-1.31,4.67-2.63,7-3.95s4.83-2.6,7.57-3.85,5.58-2.47,8.57-3.67,6.13-2.39,9.61-3.51l.66.11a47.15,47.15,0,0,1-5.6,4.18c-2.08,1.36-4.3,2.69-6.64,4s-4.89,2.59-7.63,3.83-5.56,2.48-8.23,3.74l-8,3.76-8.15,3.75c-5.52,2.49-10.93,5-16.53,7.46Z" transform="translate(-0.16 -0.05)"/><path class="cls-24" d="M331.43,791.73c2.89-2.84,6-5.66,9-8.49L345,779l4.72-4.22c1.58-1.4,3-2.82,4.52-4.24a47.84,47.84,0,0,1,5.17-4.17q2.91-2.05,6.25-4.06a81.79,81.79,0,0,1,7.37-3.93l.72.07a21,21,0,0,1-3,4.4,50.16,50.16,0,0,1-4.15,4.28,47.82,47.82,0,0,1-5.23,4.17c-2,1.36-4,2.72-5.88,4.09l-5.69,4.12-5.79,4.1c-4,2.73-7.8,5.47-11.84,8.19Z" transform="translate(-0.16 -0.05)"/><path class="cls-24" d="M416.22,798.38c1.16-3,2.52-5.88,3.78-8.82l2-4.4,2.13-4.39c.72-1.46,1.3-2.94,1.93-4.4a20.62,20.62,0,0,1,2.6-4.37,45.39,45.39,0,0,1,3.74-4.32,39,39,0,0,1,4.92-4.25l.75,0a12.63,12.63,0,0,1-.36,4.49,25.53,25.53,0,0,1-1.54,4.42,21.36,21.36,0,0,1-2.68,4.37c-1.13,1.44-2.31,2.88-3.35,4.33L427,785.42l-3.26,4.34c-2.26,2.88-4.42,5.77-6.78,8.66Z" transform="translate(-0.16 -0.05)"/><path class="cls-24" d="M503.68,800.63c-.61-3-1-5.92-1.53-8.87l-.63-4.44-.51-4.43c-.16-1.48-.47-3-.73-4.44a14,14,0,0,1,0-4.43,23.27,23.27,0,0,1,1.11-4.44,17,17,0,0,1,2.32-4.43h.76a17,17,0,0,1,2.31,4.43,23.31,23.31,0,0,1,1.12,4.44,13.72,13.72,0,0,1,0,4.43c-.25,1.48-.56,3-.72,4.44l-.51,4.43-.63,4.44c-.52,3-.92,5.91-1.53,8.87Z" transform="translate(-0.16 -0.05)"/><path class="cls-24" d="M591.15,798.42c-2.36-2.89-4.52-5.78-6.78-8.66l-3.26-4.34L578,781.08c-1-1.45-2.22-2.89-3.36-4.33a21.75,21.75,0,0,1-2.67-4.37,25.53,25.53,0,0,1-1.54-4.42,12.63,12.63,0,0,1-.36-4.49l.75,0a39,39,0,0,1,4.92,4.25,45.39,45.39,0,0,1,3.74,4.32,21,21,0,0,1,2.6,4.37c.63,1.46,1.21,2.94,1.93,4.4l2.13,4.39,2,4.4c1.26,2.94,2.62,5.87,3.78,8.82Z" transform="translate(-0.16 -0.05)"/><path class="cls-24" d="M676,791.81c-4-2.72-7.89-5.46-11.84-8.19l-5.79-4.1-5.69-4.12c-1.88-1.37-3.9-2.73-5.88-4.09a49,49,0,0,1-5.24-4.17,53.4,53.4,0,0,1-4.15-4.28,20.58,20.58,0,0,1-3-4.4l.71-.07a80.69,80.69,0,0,1,7.38,3.93q3.35,2,6.25,4.06a47.84,47.84,0,0,1,5.17,4.17c1.49,1.42,2.94,2.84,4.52,4.24l4.71,4.22,4.61,4.23c3,2.83,6.08,5.65,9,8.49Z" transform="translate(-0.16 -0.05)"/><path class="cls-24" d="M755.58,781c-5.6-2.47-11-5-16.53-7.46l-8.15-3.75-8-3.76c-2.67-1.26-5.47-2.5-8.23-3.74s-5.3-2.52-7.63-3.83-4.56-2.65-6.64-4a47.15,47.15,0,0,1-5.6-4.18l.66-.11c3.48,1.12,6.6,2.3,9.61,3.51s5.84,2.43,8.57,3.67,5.25,2.53,7.57,3.85,4.58,2.64,7,3.95l7.15,3.91,7.06,3.94c4.63,2.63,9.35,5.25,13.89,7.9Z" transform="translate(-0.16 -0.05)"/><path class="cls-24" d="M827.54,766.33c-7-2.15-13.81-4.34-20.72-6.51l-10.26-3.28-10.17-3.3c-3.38-1.1-6.87-2.18-10.33-3.26s-6.72-2.22-9.8-3.39-6.06-2.38-8.92-3.61-5.58-2.49-8-3.83l.58-.15c4.1.93,7.87,1.94,11.55,3s7.2,2.1,10.63,3.19,6.68,2.22,9.75,3.4,6.08,2.37,9.22,3.53l9.38,3.5,9.29,3.51c6.12,2.37,12.33,4.71,18.38,7.09Z" transform="translate(-0.16 -0.05)"/><path class="cls-24" d="M889.67,748.23c-8.16-1.76-16.18-3.57-24.28-5.36l-12-2.71-12-2.73c-4-.92-8.07-1.8-12.12-2.69s-7.94-1.84-11.67-2.84-7.39-2-10.93-3.11-7-2.17-10.16-3.36l.49-.17c4.58.7,8.9,1.5,13.13,2.33s8.34,1.7,12.37,2.6,7.9,1.86,11.63,2.86,7.4,2,11.18,3l11.32,3,11.24,3c7.44,2,14.94,4,22.32,6Z" transform="translate(-0.16 -0.05)"/><path class="cls-24" d="M940.08,727.27c-9.08-1.33-18.06-2.7-27.1-4l-13.48-2.06-13.43-2.09c-4.47-.7-9-1.36-13.53-2s-8.91-1.41-13.19-2.21-8.48-1.63-12.61-2.5-8.17-1.79-12-2.8l.38-.2c4.94.47,9.66,1,14.33,1.64s9.22,1.25,13.72,1.93,8.89,1.43,13.15,2.23,8.5,1.62,12.81,2.4L902,719.88l12.86,2.38c8.52,1.6,17.1,3.18,25.57,4.82Z" transform="translate(-0.16 -0.05)"/><path class="cls-24" d="M977.25,704.07c-9.74-.85-19.4-1.75-29.1-2.62l-14.51-1.34-14.46-1.38c-4.82-.46-9.69-.88-14.54-1.32s-9.62-.93-14.3-1.5-9.33-1.18-13.91-1.83-9.11-1.34-13.5-2.15l.26-.21c5.14.21,10.13.53,15.08.89s9.84.76,14.68,1.21,9.59.95,14.27,1.52,9.34,1.17,14,1.72l14.11,1.66,14.07,1.69c9.35,1.15,18.74,2.27,28.06,3.45Z" transform="translate(-0.16 -0.05)"/><path class="cls-23" d="M1000,679.34c-10.09-.34-20.15-.74-30.22-1.11l-15.08-.58L939.67,677c-5-.21-10.06-.38-15.1-.56s-10-.44-15-.76-9.88-.68-14.78-1.09-9.77-.86-14.58-1.43l.14-.22c5.18-.06,10.29,0,15.37.1s10.14.26,15.17.45,10,.46,15,.78,9.89.68,14.85,1l14.89.92,14.86.95c9.9.66,19.81,1.29,29.69,2Z" transform="translate(-0.16 -0.05)"/><path class="cls-23" d="M1007.76,653.83c-10.14.18-20.28.29-30.42.44l-15.2.19-15.21.15c-5.07,0-10.14.13-15.21.21s-10.13.08-15.2,0-10.14-.17-15.21-.33-10.14-.35-15.21-.67v-.22c5.07-.32,10.14-.52,15.21-.68s10.14-.26,15.21-.33,10.13-.06,15.2,0,10.14.16,15.21.21l15.21.15,15.2.18c10.14.15,20.28.27,30.42.45Z" transform="translate(-0.16 -0.05)"/><path class="cls-23" d="M1000.17,628.31c-9.88.69-19.79,1.32-29.69,2l-14.86,1-14.89.92c-5,.31-9.9.65-14.85,1s-9.94.59-15,.78-10.08.35-15.17.45-10.19.16-15.37.11l-.14-.22c4.81-.57,9.68-1,14.58-1.44s9.83-.77,14.78-1.09,9.95-.57,15-.76,10.08-.35,15.1-.56l15.07-.62,15.08-.59c10.07-.37,20.13-.77,30.22-1.1Z" transform="translate(-0.16 -0.05)"/><path class="cls-23" d="M977.51,603.57c-9.32,1.18-18.71,2.3-28.06,3.46l-14.07,1.69-14.11,1.65c-4.71.55-9.37,1.14-14,1.72s-9.43,1.08-14.27,1.53-9.73.85-14.68,1.21-9.94.67-15.08.88l-.26-.21c4.39-.8,8.93-1.49,13.5-2.15s9.22-1.26,13.91-1.82,9.46-1.07,14.3-1.51,9.72-.86,14.54-1.32l14.46-1.37L948.15,606c9.7-.87,19.36-1.77,29.1-2.61Z" transform="translate(-0.16 -0.05)"/><path class="cls-23" d="M940.46,580.36c-8.47,1.63-17.05,3.21-25.57,4.82L902,587.55l-12.91,2.35c-4.31.78-8.54,1.6-12.81,2.4s-8.64,1.55-13.15,2.23-9.07,1.33-13.72,1.93-9.39,1.17-14.33,1.64l-.38-.19c3.84-1,7.9-1.93,12-2.81s8.33-1.7,12.61-2.5,8.68-1.53,13.19-2.2,9.06-1.34,13.53-2l13.43-2.09L913,584.21c9-1.34,18-2.72,27.1-4.05Z" transform="translate(-0.16 -0.05)"/><path class="cls-23" d="M890.16,559.37c-7.38,2-14.88,4-22.32,6l-11.24,3-11.32,3c-3.78,1-7.47,2-11.18,3s-7.6,2-11.63,2.86-8.14,1.77-12.37,2.6-8.55,1.63-13.13,2.34l-.49-.17c3.18-1.2,6.63-2.3,10.16-3.37s7.19-2.1,10.93-3.1,7.63-1.95,11.67-2.85,8.13-1.77,12.12-2.68l12-2.74,12-2.71c8.1-1.79,16.12-3.6,24.28-5.36Z" transform="translate(-0.16 -0.05)"/><path class="cls-22" d="M828.12,541.25c-6,2.38-12.26,4.72-18.38,7.08l-9.29,3.51-9.38,3.5c-3.14,1.16-6.16,2.35-9.22,3.53s-6.31,2.32-9.75,3.41-7,2.15-10.63,3.18-7.45,2-11.55,3l-.58-.15c2.42-1.33,5.16-2.59,8-3.83s5.83-2.43,8.92-3.6,6.36-2.31,9.8-3.39,7-2.16,10.33-3.27l10.17-3.3,10.26-3.28c6.91-2.17,13.73-4.36,20.72-6.51Z" transform="translate(-0.16 -0.05)"/><path class="cls-22" d="M756.24,526.54c-4.54,2.65-9.26,5.27-13.89,7.91l-7.06,3.93-7.15,3.92c-2.4,1.3-4.67,2.62-7,3.94s-4.84,2.6-7.57,3.85-5.58,2.47-8.57,3.68-6.13,2.38-9.61,3.5l-.66-.11a47.15,47.15,0,0,1,5.6-4.18q3.12-2,6.64-4c2.33-1.32,4.89-2.59,7.63-3.84s5.56-2.48,8.23-3.73l8-3.77,8.15-3.75c5.51-2.48,10.93-5,16.53-7.46Z" transform="translate(-0.16 -0.05)"/><path class="cls-22" d="M676.69,515.7c-2.89,2.84-6,5.66-9,8.49l-4.61,4.23-4.71,4.22c-1.58,1.41-3,2.82-4.52,4.24a46.66,46.66,0,0,1-5.17,4.17q-2.91,2.06-6.25,4.06a80.69,80.69,0,0,1-7.38,3.93l-.71-.07a20.58,20.58,0,0,1,3-4.4,53.4,53.4,0,0,1,4.15-4.28,47.71,47.71,0,0,1,5.24-4.16c2-1.37,4-2.73,5.88-4.1l5.69-4.12,5.79-4.1c4-2.73,7.8-5.47,11.84-8.18Z" transform="translate(-0.16 -0.05)"/><path class="cls-22" d="M591.9,509.06c-1.16,2.94-2.52,5.87-3.78,8.81l-2,4.4L584,526.66c-.72,1.47-1.3,2.94-1.93,4.41a21.31,21.31,0,0,1-2.6,4.37,46.57,46.57,0,0,1-3.74,4.31,38.16,38.16,0,0,1-4.92,4.25l-.75,0a12.56,12.56,0,0,1,.36-4.48,25.34,25.34,0,0,1,1.54-4.43,21.75,21.75,0,0,1,2.67-4.37c1.14-1.44,2.32-2.88,3.36-4.33l3.15-4.34,3.26-4.33c2.26-2.89,4.42-5.78,6.78-8.66Z" transform="translate(-0.16 -0.05)"/></g><path class="cls-25" d="M493.41,419.41" transform="translate(-0.16 -0.05)"/><path class="cls-3" d="M466.15,449.21S462.28,437.57,436,436.7c0,0-10.06-.29-18,4.07,0,0-8,6.11-15.91,5.53,0,0-11.88-1-14.79-4.51,0,0-9.68-4.22-16.28,1.89,0,0-5.1,7.13.75,11.78,0,0,4.35,1.31,5.7,2.76,0,0,4.81,7.86-7.35,10.19,0,0-6,.72-5.1,8,0,0,.45,3.34-4.21,4.07,0,0-13.65,1.74-13.2,15.13,0,0,.45,8.58,2.7,12.65,0,0,6,13.5,0,24.57,0,0-8.11,11.76-15.31,15.85,0,0-9.4,6-7.78,14.91,0,0,2.83,6.78,9.43,7.51,0,0,7.8.43,8.25,6.76,0,0,1,7.61-8,14.6,0,0-5.95,5.78-3.1,11.76,0,0,3.3,4,9.9,2.66,0,0,9.46-2.73,14.11,2.42,0,0,3.33,3.44,1.65,12.29,0,0-2.54,11.76,9.32,18.89,0,0,7.63,2.62,12.89,3,0,0,11.83-.39,13.8,7.3,0,0,7.58,13.95,20.54,15.62,0,0,13.85.65,15.65-7.21Z" transform="translate(-0.16 -0.05)"/><path class="cls-4" d="M487.56,438.59s-15.85-4.51-22.25,7c0,0-3.35,14.69-15.28,13.53,0,0-4.51-.44-5.23-2,0,0-7-2.76-12.08.87,0,0-2.32,2.33-2.32,3.2a2.5,2.5,0,0,1-1.75,1.89s-4.51,1.31-3.49,7.71a6.25,6.25,0,0,0,6.69,4.8s4.51-.29,5.38,2.77c0,0,1.76,5.52-6.25,9.6,0,0-6.4,3.92-11.78,4.21,0,0-26,6.41-22.55,33.1,0,0,.73,7-1.31,10.25,0,0-6.4,7.69-5.53,21.88,0,0,1.17,7.5,7.13,10.56,0,0,5.38,1.37,5.38,9.05,0,0,.15,6.36,1.17,8.69,0,0,2.62,3.2,1.16,5.24,0,0-5.67,17.6-.87,30.69,0,0,3.79,10.47,9.82,13.67,0,0,8.41,6.26,9.09,14,0,0-.41,10.73,14.48,16.26a57.94,57.94,0,0,1,7.19,3.92s16.29,9.7,29.24-3.22Z" transform="translate(-0.16 -0.05)"/><path class="cls-3" d="M598.18,455.24A24.5,24.5,0,0,1,620.65,469s3.71,7.2,10.69,5a23.36,23.36,0,0,0,10-7s10.47-8.07,24.22-1.31c0,0,12.43,9.39,3.92,25.1,0,0-7.76,8.35-2.61,15.92a62.48,62.48,0,0,0,9.48,8.61s7.32,3,7.53,18.88c0,0,.22,8.81-9.81,22.95,0,0-11.79,7.82-7.42,23.31,0,0,3.22,5.23,6.29,6.78,0,0,5.56,3.72,3.34,11.89,0,0-1.44,7-11.21,5.07,0,0-23.23-4.78-22.42,22.47,0,0,6.54,12.7-3.28,19.68,0,0-12.87,9.6-24.65,4.14,0,0-5.52-4.3-9.82,2.81,0,0-12,16-31.2.73l14.79-167.39Z" transform="translate(-0.16 -0.05)"/><path class="cls-4" d="M524.94,448.77l-3.78-6.69a23.48,23.48,0,0,1,20.8-4.36s5.38,2.93,7.56-.79c0,0,6.55-11.29,18.77-8.67,0,0,11.78,1.43,14,11.48,0,0-.36,5.83,3.71,7.87,0,0,6.69,2.32,11.64-1.6,0,0,6.4-4.37,10.76-1.17,0,0,3.64,6.26-1.89,10.33,0,0-12,3.2-10.76,13.09,0,0,2,8.87,10,9.6a11,11,0,0,1,9.17,8.73s.8,5-4.46,9.6c0,0-3.83,4.65-1.36,12.36a13.13,13.13,0,0,0,7.56,5.67s12.51,1.75,16.73,15.86a21.53,21.53,0,0,1-6,20.24s-7.13,9.14-2.91,16.48c0,0,4.94,7,8.29,11.52,0,0,4,4.66,2.87,10,0,0-3,10.84-19.74,15.91,0,0-15.61,6.67-15.88,18.7a13,13,0,0,0,2.93,8.3s6,5.8,2.76,12.91a21,21,0,0,1-13.1,9.36s-9.57,1.75-14.16,8.62a10.08,10.08,0,0,1-11.14,4.09s-9.3-4.34-17.89,1.19c0,0-18.15,14.54-31.18-3.42Z" transform="translate(-0.16 -0.05)"/><path class="cls-4" d="M625.63,439.93c-2.27-4.2-5.5-3.88-6.72-3.42l-.27.11-.17.08h0c-1.11.6-2.14,2.1-1.64,5.78a6.48,6.48,0,0,0,1.85,2.62,5.85,5.85,0,0,0,2.61.17h.09l.14,0A4.54,4.54,0,0,0,625.63,439.93Z" transform="translate(-0.16 -0.05)"/><ellipse class="cls-3" cx="317.54" cy="552.84" rx="5.75" ry="4.15" transform="translate(-306.89 423.39) rotate(-48.42)"/><path class="cls-3" d="M378.27,417.63a2.27,2.27,0,0,0-1.58.78v0c-3.47,3-1.92,5.35-1.92,5.35a3.41,3.41,0,0,0,2.18,0c4.26-1.69,4.53-5,4.53-5C380.78,417.47,378.27,417.63,378.27,417.63Z" transform="translate(-0.16 -0.05)"/><path class="cls-5" d="M498.85,429.5s-.44-16.37,4.36-20.66a2.94,2.94,0,0,0,1-1.74s.66-5.31,8.44-7.2c0,0,2.32-.95,1.82-4.8,0,0-.23-11.47,8.83-15.63,0,0,1.35-.88,1.49,1.15,0,0-.29,1.8,1.09,2.25,0,0,1.75-.21,1.46-3.59,0,0,.07-5.71,5.31-5.42a5.28,5.28,0,0,1,4.51,3.13s.14,1.54,2.18,1.64c0,0,2.76-.57,1.89-4.78,0,0-.15-8.86,8.14-8.14,0,0,5.39,1.39,3.35,11.13,0,0-1.82,6.4-13.89,4.58,0,0-6-1.09-5,5.89,0,0,2.62,9.82-10.11,14.91,0,0-11.12,2.55-14,13.53a5.45,5.45,0,0,0-.07,2s2.4,8.51.29,15.06Z" transform="translate(-0.16 -0.05)"/><path class="cls-6" d="M498.83,418.81s4.72-5.13,2.29-10.8a10.93,10.93,0,0,0-7.23-3.17s-5.51-.31-4.28-6.75c.9-4.63-3.39-6.64-3.39-6.64-.85-.14-1.39-1.5-1.39-1.5a3.76,3.76,0,0,0-2.78,0s-8.78,2.35-8.13-6.16c0,0-.5-3-1.77-3.12,0,0-6.84-1.57-7.83,6.28a6.91,6.91,0,0,0,3.91,6.87s1.77,1,2.09,4.26c0,0-.59,5.55,3.2,7.3,0,0,8.66,2.85,9.82,8.14a7.51,7.51,0,0,0,1.27,4,9.67,9.67,0,0,0,3.8,2.84l4.27,5.7,1.21,4.4,6.11-2.57S494.72,425.68,498.83,418.81Z" transform="translate(-0.16 -0.05)"/><path class="cls-7" d="M493.89,430.44s-2.38-5.6-5.68-8.94a6.81,6.81,0,0,0-3.92-1.46s-2.37-1.56-.86-3.21C483.43,416.83,490.83,415.9,493.89,430.44Z" transform="translate(-0.16 -0.05)"/><path class="cls-8" d="M506.54,426.53s-14.76-1-21.23,11.69c0,0-2.8,2.4-1.47,5.68,0,0,1.1,8.51-3.92,13.31,0,0-6.32,7.41-7.85,8.29a12.85,12.85,0,0,0-7.42,8.94s-3,9.16-7.72,13.85c0,0-11.26,9.93-3.41,25.86,0,0,4.75,8.5-4.36,16.71,0,0-15.44,12.09-9.9,29.55,0,0,.26,3.05,6,8.29,0,0,7.86,2.66,7.64,9.62a39.17,39.17,0,0,0,3.93,15.26S462,608.33,459,619.31c0,0-3.2,15.68-.51,24.05,0,0,1.16,32,35.2,34.65,0,0,18.47.06,26.36-11.32,0,0,1.92-7.45,4.47-8.32,0,0,5.53-4.48,5.13-14.46,0,0,1.57-8.09,5.06-9.25,0,0,6.71-2,5.21-19.16,0,0-7-9.28-1.76-24.77,0,0,3.48-14.83,2-22,0,0-10.45-19.51-5.65-30.05,0,0,.14-2,3.67-4.21,0,0,16.18-5.48,14.87-19.1,0,0-3-6.21-8.29-6.43a17.55,17.55,0,0,0-6.58-.21s-6.51.43-5.42-6.77a16.39,16.39,0,0,1,2.62-5.23s6.55-8.08,4.8-18.55a27.72,27.72,0,0,0-7-11.13s-8.07-2-5.45-13.74A19.17,19.17,0,0,0,524.5,445s-1.59-1.75-.94-5.24C523.56,439.75,522.44,428.36,506.54,426.53Z" transform="translate(-0.16 -0.05)"/><path class="cls-9" d="M577.14,533.38s-6,.32-6.79,5.27c0,0,2.69,9.39-2.09,13.61,0,0-5.28,3.56-1.86,8.8,0,0,3.41,3.27,7.34,1.31a6,6,0,0,1,5.24-2.84s6.76,2,5.67-11.12C584.65,548.41,585.77,536.67,577.14,533.38Z" transform="translate(-0.16 -0.05)"/><path class="cls-9" d="M434.76,530.86s-4.27-.18-6.47,2.26l-2.82,1.76-.53.22a7.37,7.37,0,0,0-1.09.79h0a7.65,7.65,0,0,0-2.62,5.38s.76,4.41-2.24,6.43c0,0-5.11,7.11-3.07,9.47,0,0,8.15,5.09,16.22-9.47C432.14,547.7,441.09,534.05,434.76,530.86Z" transform="translate(-0.16 -0.05)"/><path class="cls-9" d="M520.42,590a9.48,9.48,0,0,0,.05-4.23s-2.75-8.59-10.79-10.57c0,0-4.59.34-7.05,3.72l0,0c-7.24,7.06-13.34,1.9-13.34,1.9-3.46-2.72-7-5.24-7-5.24s-8.65-3.49-8.65,9.82A10.66,10.66,0,0,0,474,588C479.89,585.65,500.22,579.12,520.42,590Z" transform="translate(-0.16 -0.05)"/><path class="cls-9" d="M496.51,588.06l1,.22c.43.05.77.11,1,.17A12.23,12.23,0,0,0,496.51,588.06Z" transform="translate(-0.16 -0.05)"/><path class="cls-9" d="M498.59,588.45l.33.09Z" transform="translate(-0.16 -0.05)"/><path class="cls-10" d="M482.48,594.17a24.73,24.73,0,0,0,4.79-2.89c4.55-3,8.24-3.22,10.27-3l-1-.22a12.23,12.23,0,0,1,2.08.39l.33.09-.33-.09c-.28-.06-.62-.12-1-.17l1.7.36a12.18,12.18,0,0,1,4.5,2.77,18.92,18.92,0,0,0,11.46,5,10.56,10.56,0,0,0,5.22-6.34c-20.2-10.9-40.53-4.37-46.42-2C474.72,590.55,476.75,594.17,482.48,594.17Z" transform="translate(-0.16 -0.05)"/><g class="cls-26"><path class="cls-27" d="M673,587.26c-3.08-1.55-6.29-6.78-6.29-6.78-4.37-15.49,7.42-23.31,7.42-23.31,10-14.14,9.81-22.95,9.81-22.95-.21-15.92-7.53-18.89-7.53-18.89a62.15,62.15,0,0,1-9.48-8.6c-5.15-7.57,2.61-15.92,2.61-15.92,8.51-15.71-3.92-25.1-3.92-25.1C651.85,459,641.38,467,641.38,467a23.36,23.36,0,0,1-10,7c-7,2.18-10.69-5-10.69-5a24.35,24.35,0,0,0-16.23-13.05,16.72,16.72,0,0,1,2.12-.77c5.53-4.07,1.89-10.33,1.89-10.33-4.36-3.2-10.76,1.17-10.76,1.17-4.95,3.92-11.64,1.6-11.64,1.6-4.07-2-3.71-7.87-3.71-7.87-2.25-10.05-14-11.48-14-11.48-12.22-2.62-18.77,8.67-18.77,8.67-2.18,3.72-7.56.79-7.56.79a23.71,23.71,0,0,0-18.48,2.69c0-.22,0-.42.08-.66,0,0-.91-9.25-12.73-12.41a36.74,36.74,0,0,0-1.14-9.63,5.45,5.45,0,0,1,.07-2c2.91-11,14-13.53,14-13.53,12.73-5.09,10.11-14.91,10.11-14.91-1.09-7,5-5.89,5-5.89,12.07,1.82,13.89-4.58,13.89-4.58,2-9.74-3.35-11.13-3.35-11.13-8.29-.72-8.14,8.14-8.14,8.14.87,4.21-1.89,4.78-1.89,4.78-2-.1-2.18-1.64-2.18-1.64a5.28,5.28,0,0,0-4.51-3.13c-5.24-.29-5.31,5.42-5.31,5.42.29,3.38-1.46,3.59-1.46,3.59-1.38-.45-1.09-2.25-1.09-2.25-.14-2-1.49-1.15-1.49-1.15-9.06,4.16-8.83,15.63-8.83,15.63.5,3.85-1.82,4.8-1.82,4.8-7.78,1.89-8.44,7.2-8.44,7.2a2.94,2.94,0,0,1-1,1.74,7.45,7.45,0,0,0-1.43,1.89,8.5,8.5,0,0,0-.66-2.72,10.93,10.93,0,0,0-7.23-3.17s-5.51-.31-4.28-6.75c.9-4.63-3.39-6.64-3.39-6.64-.85-.14-1.39-1.5-1.39-1.5a3.76,3.76,0,0,0-2.78,0s-8.78,2.35-8.13-6.16c0,0-.5-3-1.77-3.12,0,0-6.84-1.57-7.83,6.28a6.91,6.91,0,0,0,3.91,6.87s1.77,1,2.09,4.26c0,0-.59,5.55,3.2,7.3,0,0,8.66,2.85,9.82,8.14a7.59,7.59,0,0,0,.88,3.33,3.44,3.44,0,0,0-.79,0c-1.51,1.65.86,3.21.86,3.21a6.81,6.81,0,0,1,3.92,1.46,31.78,31.78,0,0,1,5.32,8.16,20.2,20.2,0,0,0-8.17,8.46c-4.58-.76-15.12-1.41-20.05,7.45,0,0-.13.57-.43,1.46-2.56-3.41-9.82-9.7-28.87-10.33,0,0-10.06-.29-18,4.07,0,0-8,6.11-15.91,5.53,0,0-11.88-1-14.79-4.51,0,0-9.68-4.22-16.28,1.89,0,0-5.1,7.13.75,11.78,0,0,4.35,1.31,5.7,2.76,0,0,4.81,7.86-7.35,10.19,0,0-6,.72-5.1,8,0,0,.45,3.34-4.21,4.07,0,0-13.65,1.74-13.2,15.13,0,0,.45,8.58,2.7,12.65,0,0,6,13.5,0,24.57,0,0-8.11,11.76-15.31,15.85,0,0-9.4,6-7.78,14.91,0,0,2.82,6.78,9.43,7.51,0,0,7.8.43,8.25,6.76,0,0,1,7.61-8,14.6,0,0-5.95,5.78-3.1,11.76,0,0,3.3,4,9.9,2.66,0,0,9.46-2.73,14.11,2.42,0,0,3.33,3.44,1.65,12.29,0,0-2.54,11.76,9.32,18.89,0,0,7.63,2.62,12.89,3,0,0,11.83-.39,13.8,7.3,0,0,7.58,13.95,20.54,15.62,0,0,10.37.48,14.33-4.48a29.7,29.7,0,0,0,6.83,3.53,57.94,57.94,0,0,1,7.19,3.92s13.81,8.21,26.1-.57c5.19,4.67,12.6,8.34,23.21,9.16,0,0,18.47.06,26.36-11.32l.13-.47c12.84,14.39,29.36,1.17,29.36,1.17,8.59-5.53,17.89-1.19,17.89-1.19a10.08,10.08,0,0,0,11.14-4.09,16.74,16.74,0,0,1,3-3.3c14.61,6.28,23.43-5.49,23.43-5.49,4.3-7.11,9.82-2.81,9.82-2.81,11.78,5.46,24.65-4.14,24.65-4.14,9.82-7,3.28-19.68,3.28-19.68-.81-27.25,22.42-22.47,22.42-22.47,9.77,1.93,11.21-5.07,11.21-5.07C678.54,591,673,587.26,673,587.26ZM498.83,418.81a12,12,0,0,0,.81-1.05,66.33,66.33,0,0,0-.79,9.34C497.58,426,496,423.47,498.83,418.81Zm-6.14,7.25v0h0Z" transform="translate(-0.16 -0.05)"/><path class="cls-28" d="M618.68,445.1a5.85,5.85,0,0,0,2.61.17h.09l.14,0a4.54,4.54,0,0,0,4.11-5.3c-2.27-4.2-5.5-3.88-6.72-3.42l-.27.11-.17.08h0c-1.11.6-2.14,2.1-1.64,5.78A6.48,6.48,0,0,0,618.68,445.1Z" transform="translate(-0.16 -0.05)"/><path class="cls-29" d="M314.44,550.09c-2.11,2.37-2.43,5.53-.71,7.06s4.81.83,6.92-1.55,2.43-5.54.71-7.06S316.55,547.71,314.44,550.09Z" transform="translate(-0.16 -0.05)"/><path class="cls-30" d="M377,423.74c4.25-1.69,4.53-5,4.53-5-.71-1.25-3.22-1.09-3.22-1.09a2.27,2.27,0,0,0-1.58.78v0c-3.47,3-1.92,5.35-1.92,5.35A3.41,3.41,0,0,0,377,423.74Z" transform="translate(-0.16 -0.05)"/></g><path class="cls-31" d="M673,587.26c-3.08-1.55-6.29-6.78-6.29-6.78-4.37-15.49,7.42-23.31,7.42-23.31,10-14.14,9.81-22.95,9.81-22.95-.21-15.92-7.53-18.89-7.53-18.89a62.15,62.15,0,0,1-9.48-8.6c-5.15-7.57,2.61-15.92,2.61-15.92,8.51-15.71-3.92-25.1-3.92-25.1C651.85,459,641.38,467,641.38,467a23.36,23.36,0,0,1-10,7c-7,2.18-10.69-5-10.69-5a24.35,24.35,0,0,0-16.23-13.05,16.72,16.72,0,0,1,2.12-.77c5.53-4.07,1.89-10.33,1.89-10.33-4.36-3.2-10.76,1.17-10.76,1.17-4.95,3.92-11.64,1.6-11.64,1.6-4.07-2-3.71-7.87-3.71-7.87-2.25-10.05-14-11.48-14-11.48-12.22-2.62-18.77,8.67-18.77,8.67-2.18,3.72-7.56.79-7.56.79a23.71,23.71,0,0,0-18.48,2.69c0-.22,0-.42.08-.66,0,0-.91-9.25-12.73-12.41a36.74,36.74,0,0,0-1.14-9.63,5.45,5.45,0,0,1,.07-2c2.91-11,14-13.53,14-13.53,12.73-5.09,10.11-14.91,10.11-14.91-1.09-7,5-5.89,5-5.89,12.07,1.82,13.89-4.58,13.89-4.58,2-9.74-3.35-11.13-3.35-11.13-8.29-.72-8.14,8.14-8.14,8.14.87,4.21-1.89,4.78-1.89,4.78-2-.1-2.18-1.64-2.18-1.64a5.28,5.28,0,0,0-4.51-3.13c-5.24-.29-5.31,5.42-5.31,5.42.29,3.38-1.46,3.59-1.46,3.59-1.38-.45-1.09-2.25-1.09-2.25-.14-2-1.49-1.15-1.49-1.15-9.06,4.16-8.83,15.63-8.83,15.63.5,3.85-1.82,4.8-1.82,4.8-7.78,1.89-8.44,7.2-8.44,7.2a2.94,2.94,0,0,1-1,1.74,7.45,7.45,0,0,0-1.43,1.89,8.5,8.5,0,0,0-.66-2.72,10.93,10.93,0,0,0-7.23-3.17s-5.51-.31-4.28-6.75c.9-4.63-3.39-6.64-3.39-6.64-.85-.14-1.39-1.5-1.39-1.5a3.76,3.76,0,0,0-2.78,0s-8.78,2.35-8.13-6.16c0,0-.5-3-1.77-3.12,0,0-6.84-1.57-7.83,6.28a6.91,6.91,0,0,0,3.91,6.87s1.77,1,2.09,4.26c0,0-.59,5.55,3.2,7.3,0,0,8.66,2.85,9.82,8.14a7.59,7.59,0,0,0,.88,3.33,3.44,3.44,0,0,0-.79,0c-1.51,1.65.86,3.21.86,3.21a6.81,6.81,0,0,1,3.92,1.46,31.78,31.78,0,0,1,5.32,8.16,20.2,20.2,0,0,0-8.17,8.46c-4.58-.76-15.12-1.41-20.05,7.45,0,0-.13.57-.43,1.46-2.56-3.41-9.82-9.7-28.87-10.33,0,0-10.06-.29-18,4.07,0,0-8,6.11-15.91,5.53,0,0-11.88-1-14.79-4.51,0,0-9.68-4.22-16.28,1.89,0,0-5.1,7.13.75,11.78,0,0,4.35,1.31,5.7,2.76,0,0,4.81,7.86-7.35,10.19,0,0-6,.72-5.1,8,0,0,.45,3.34-4.21,4.07,0,0-13.65,1.74-13.2,15.13,0,0,.45,8.58,2.7,12.65,0,0,6,13.5,0,24.57,0,0-8.11,11.76-15.31,15.85,0,0-9.4,6-7.78,14.91,0,0,2.82,6.78,9.43,7.51,0,0,7.8.43,8.25,6.76,0,0,1,7.61-8,14.6,0,0-5.95,5.78-3.1,11.76,0,0,3.3,4,9.9,2.66,0,0,9.46-2.73,14.11,2.42,0,0,3.33,3.44,1.65,12.29,0,0-2.54,11.76,9.32,18.89,0,0,7.63,2.62,12.89,3,0,0,11.83-.39,13.8,7.3,0,0,7.58,13.95,20.54,15.62,0,0,10.37.48,14.33-4.48a29.7,29.7,0,0,0,6.83,3.53,57.94,57.94,0,0,1,7.19,3.92s13.81,8.21,26.1-.57c5.19,4.67,12.6,8.34,23.21,9.16,0,0,18.47.06,26.36-11.32l.13-.47c12.84,14.39,29.36,1.17,29.36,1.17,8.59-5.53,17.89-1.19,17.89-1.19a10.08,10.08,0,0,0,11.14-4.09,16.74,16.74,0,0,1,3-3.3c14.61,6.28,23.43-5.49,23.43-5.49,4.3-7.11,9.82-2.81,9.82-2.81,11.78,5.46,24.65-4.14,24.65-4.14,9.82-7,3.28-19.68,3.28-19.68-.81-27.25,22.42-22.47,22.42-22.47,9.77,1.93,11.21-5.07,11.21-5.07C678.54,591,673,587.26,673,587.26ZM498.83,418.81a12,12,0,0,0,.81-1.05,66.33,66.33,0,0,0-.79,9.34C497.58,426,496,423.47,498.83,418.81Zm-6.14,7.25v0h0Z" transform="translate(-0.16 -0.05)"/><path class="cls-32" d="M618.68,445.1a5.85,5.85,0,0,0,2.61.17h.09l.14,0a4.54,4.54,0,0,0,4.11-5.3c-2.27-4.2-5.5-3.88-6.72-3.42l-.27.11-.17.08h0c-1.11.6-2.14,2.1-1.64,5.78A6.48,6.48,0,0,0,618.68,445.1Z" transform="translate(-0.16 -0.05)"/><path class="cls-33" d="M314.44,550.09c-2.11,2.37-2.43,5.53-.71,7.06s4.81.83,6.92-1.55,2.43-5.54.71-7.06S316.55,547.71,314.44,550.09Z" transform="translate(-0.16 -0.05)"/><path class="cls-34" d="M377,423.74c4.25-1.69,4.53-5,4.53-5-.71-1.25-3.22-1.09-3.22-1.09a2.27,2.27,0,0,0-1.58.78v0c-3.47,3-1.92,5.35-1.92,5.35A3.41,3.41,0,0,0,377,423.74Z" transform="translate(-0.16 -0.05)"/></g></g></svg>