<svg xmlns="http://www.w3.org/2000/svg" xmlns:xlink="http://www.w3.org/1999/xlink" viewBox="0 0 1027 1172"><defs><style>.cls-1{isolation:isolate;}.cls-2{opacity:0.3;}.cls-3{fill:#d66d34;}.cls-4{fill:#ec8c3a;}.cls-5{fill:#e27b39;}.cls-6{fill:#593e36;}.cls-7{fill:url(#linear-gradient);}.cls-8{fill:url(#linear-gradient-2);}.cls-9{fill:url(#linear-gradient-3);}.cls-10{fill:url(#linear-gradient-4);}.cls-11{fill:url(#linear-gradient-5);}.cls-12{fill:url(#linear-gradient-6);}.cls-13{fill:url(#linear-gradient-7);}.cls-14{fill:url(#linear-gradient-8);}.cls-15{fill:url(#linear-gradient-9);}.cls-16{fill:url(#linear-gradient-10);}.cls-17{opacity:0.7;}.cls-18{fill:url(#linear-gradient-11);}.cls-19{fill:url(#linear-gradient-12);}.cls-20{fill:url(#linear-gradient-13);}.cls-21{opacity:0.6;}.cls-22{fill:#b78f6a;}.cls-23{fill:#d5b392;}.cls-24{fill:#f6d7b3;}.cls-25{fill:url(#linear-gradient-15);}.cls-26{fill:url(#linear-gradient-16);}.cls-27{fill:url(#linear-gradient-17);}.cls-28{fill:url(#linear-gradient-18);}.cls-29{fill:url(#linear-gradient-19);}.cls-30{fill:url(#linear-gradient-20);}.cls-31{fill:url(#linear-gradient-21);}.cls-32{fill:url(#linear-gradient-22);}.cls-33{mix-blend-mode:overlay;}.cls-34{fill:url(#linear-gradient-23);}.cls-35{fill:url(#linear-gradient-24);}.cls-36{fill:url(#linear-gradient-25);}.cls-37{fill:url(#linear-gradient-26);}.cls-38{fill:url(#linear-gradient-27);}.cls-39{fill:url(#linear-gradient-28);}.cls-40{fill:url(#linear-gradient-29);}.cls-41{fill:url(#linear-gradient-30);}</style><linearGradient id="linear-gradient" x1="1056.82" y1="2004.51" x2="1054.73" y2="1778.02" gradientTransform="matrix(1, 0, 0, -1, -550.73, 2639.15)" gradientUnits="userSpaceOnUse"><stop offset="0" stop-color="#332f2f" stop-opacity="0"/><stop offset="1" stop-color="#2f2f3f"/></linearGradient><linearGradient id="linear-gradient-2" x1="1006.87" y1="2004.97" x2="1004.77" y2="1778.48" xlink:href="#linear-gradient"/><linearGradient id="linear-gradient-3" x1="1119.3" y1="2003.93" x2="1117.2" y2="1777.44" xlink:href="#linear-gradient"/><linearGradient id="linear-gradient-4" x1="960.96" y1="2005.39" x2="958.86" y2="1778.91" xlink:href="#linear-gradient"/><linearGradient id="linear-gradient-5" x1="839.89" y1="2006.51" x2="837.8" y2="1780.03" xlink:href="#linear-gradient"/><linearGradient id="linear-gradient-6" x1="908.19" y1="2005.88" x2="906.09" y2="1779.4" xlink:href="#linear-gradient"/><linearGradient id="linear-gradient-7" x1="1197.61" y1="2003.2" x2="1195.51" y2="1776.72" xlink:href="#linear-gradient"/><linearGradient id="linear-gradient-8" x1="1291.37" y1="2002.33" x2="1289.27" y2="1775.85" xlink:href="#linear-gradient"/><linearGradient id="linear-gradient-9" x1="-5190.08" y1="2926.05" x2="-5043.31" y2="3017.95" gradientTransform="matrix(1, 0, 0, 0, -0.16, 0)" gradientUnits="userSpaceOnUse"><stop offset="0" stop-color="#332f2f" stop-opacity="0"/><stop offset="1" stop-color="#2f2f3f" stop-opacity="0.6"/></linearGradient><linearGradient id="linear-gradient-10" x1="-4986.58" y1="4436.3" x2="-4839.81" y2="4528.2" xlink:href="#linear-gradient-9"/><linearGradient id="linear-gradient-11" x1="507.25" y1="581.51" x2="498.53" y2="778.75" gradientUnits="userSpaceOnUse"><stop offset="0" stop-color="#916c3f"/><stop offset="1" stop-color="#f2d3af"/></linearGradient><linearGradient id="linear-gradient-12" x1="507.25" y1="581.51" x2="498.53" y2="778.75" xlink:href="#linear-gradient-11"/><linearGradient id="linear-gradient-13" x1="507.26" y1="581.51" x2="498.53" y2="778.75" xlink:href="#linear-gradient-11"/><linearGradient id="linear-gradient-15" x1="157.02" y1="439" x2="1824.21" y2="850.03" gradientTransform="matrix(1, 0, 0, 1, 0, 0)" xlink:href="#linear-gradient-9"/><linearGradient id="linear-gradient-16" x1="190.6" y1="302.82" x2="1857.78" y2="713.85" gradientTransform="matrix(1, 0, 0, 1, 0, 0)" xlink:href="#linear-gradient-9"/><linearGradient id="linear-gradient-17" x1="201.73" y1="257.67" x2="1868.91" y2="668.7" gradientTransform="matrix(1, 0, 0, 1, 0, 0)" xlink:href="#linear-gradient-9"/><linearGradient id="linear-gradient-18" x1="175.33" y1="364.74" x2="1842.51" y2="775.77" gradientTransform="matrix(1, 0, 0, 1, 0, 0)" xlink:href="#linear-gradient-9"/><linearGradient id="linear-gradient-19" x1="169.38" y1="388.88" x2="1836.56" y2="799.91" gradientTransform="matrix(1, 0, 0, 1, 0, 0)" xlink:href="#linear-gradient-9"/><linearGradient id="linear-gradient-20" x1="180.37" y1="344.29" x2="1847.56" y2="755.32" gradientTransform="matrix(1, 0, 0, 1, 0, 0)" xlink:href="#linear-gradient-9"/><linearGradient id="linear-gradient-21" x1="198.21" y1="271.95" x2="1865.39" y2="682.97" gradientTransform="matrix(1, 0, 0, 1, 0, 0)" xlink:href="#linear-gradient-9"/><linearGradient id="linear-gradient-22" x1="160.08" y1="426.61" x2="1827.26" y2="837.64" gradientTransform="matrix(1, 0, 0, 1, 0, 0)" xlink:href="#linear-gradient-9"/><linearGradient id="linear-gradient-23" x1="508.88" y1="369.74" x2="508.88" y2="728.34" gradientUnits="userSpaceOnUse"><stop offset="0" stop-color="#455b6b" stop-opacity="0"/><stop offset="1" stop-color="#455b6b"/></linearGradient><linearGradient id="linear-gradient-24" x1="457.61" y1="369.74" x2="457.61" y2="728.34" xlink:href="#linear-gradient-23"/><linearGradient id="linear-gradient-25" x1="569.79" y1="369.74" x2="569.79" y2="728.34" xlink:href="#linear-gradient-23"/><linearGradient id="linear-gradient-26" x1="412.12" y1="369.74" x2="412.12" y2="728.34" xlink:href="#linear-gradient-23"/><linearGradient id="linear-gradient-27" x1="290.95" y1="369.74" x2="290.95" y2="728.34" xlink:href="#linear-gradient-23"/><linearGradient id="linear-gradient-28" x1="359.03" y1="369.74" x2="359.03" y2="728.34" xlink:href="#linear-gradient-23"/><linearGradient id="linear-gradient-29" x1="648.4" y1="369.74" x2="648.4" y2="728.34" xlink:href="#linear-gradient-23"/><linearGradient id="linear-gradient-30" x1="743.91" y1="369.74" x2="743.91" y2="728.34" xlink:href="#linear-gradient-23"/></defs><g class="cls-1"><g id="Layer_1" data-name="Layer 1"><g class="cls-2"><path class="cls-3" d="M511.22,882.13s0-14.7,17.66-16.23c0,0,19.85.29,22,19.34,0,0-3,17.1,11.78,26.48,0,0,16.8,9.31,28.8-6.58,0,0,4.8-9,1.09-15,0,0-9.6-10.74-1.74-18.16,0,0,15.93-6.19,24.22,10.54,0,0,4.14,10,2.83,16.08,0,0-1.52,12.87,5,13.75,0,0,16.58,3.36,15.71-22.21,0,0,1.53-11.61-17-32.12,0,0-10.25-13.75-.65-27.93,0,0,13.31-10.69,26.62,0,0,0,9.6,16.58,22.47,17.67,0,0,18.76-.65,15.27-24.21,0,0-2-8.08,4.8-10.48,0,0,11.35-2,12.22,14.18,0,0,1.09,9.39,0,15.93,0,0-2.4,12.66,12,15.49,0,0,12.65-.87,12.65-17.89,0,0-1.3-18.33-28.58-35.56,0,0-18.32-10.27-20.29-22.7a85,85,0,0,1,1.31-8.5s2.51-10.21-10.69-12.22c0,0-10.91-1-8.29-16.77,0,0,5-12.9,18.54-7.23,0,0,15.93,9,28.37-3.22,0,0,12.87-22.31-7-31.25,0,0-14.4-3.71-18.55,11.56,0,0-5.81,11.35-18.5,5.24,0,0-11.83-7.78-2.44-26.37,0,0,3.49-4.94,8.94-6,0,0,15.68-1.66,9.16-21.53,0,0-8.92-21.83-33.26-20.3,0,0-6.14-1.08-13.39,4.14,0,0-14.22,7-23-1.74,0,0-5.45-3.06-4.14-13.1,0,0,0-7.11-8.06-8,0,0-4.6,0-6.67-1.46,0,0-6.87-2.93-10.58,2.08a14.39,14.39,0,0,0,5.19,15.3s7.21,17.23-11.32,16.89-68.49,214.2-68.49,214.2Z" transform="translate(-0.16 -0.05)"/><path class="cls-4" d="M466.69,916.86a11.54,11.54,0,0,1-4.8,5.55h-.17c-5,3.23-1.51,8.65-1.51,8.65h0c1.26,1.3,3.3,4.27,3,9.81,0,0,1.31,18.19-8.72,14.26,0,0-15.28-2.73-14.84-30.17,0,0,.87-3.41,6.11-8.11,0,0,6.11-3.23,5.45-8.88,0,0-1.52-5.86,5.46-8.26,0,0,4.58-.44,6.76,6.33C463.42,906.05,469.31,908.25,466.69,916.86Z" transform="translate(-0.16 -0.05)"/><path class="cls-5" d="M568.8,958.41a7.55,7.55,0,0,0-5.67-5.45s-7.62-.92-7-12.24c0,0,.32-4.78,7.74-3.62,0,0,10.18-.14,11.2,13.24,0,0,1.45,6.11-3.2,10.18A3.25,3.25,0,0,1,568.8,958.41Z" transform="translate(-0.16 -0.05)"/><path class="cls-5" d="M515.83,885.24s-11.23-9.07,0-23.11-11.23-10.26-11.23-10.26l-8.22,21.23,4,9.45,4.25,2.69" transform="translate(-0.16 -0.05)"/><path class="cls-5" d="M661.09,806.88a4.79,4.79,0,0,1-5.56-4.9,5.93,5.93,0,0,1,2.78-3.28s3.87-.65,4.86,2.84A5,5,0,0,1,661.09,806.88Z" transform="translate(-0.16 -0.05)"/><path class="cls-5" d="M407.35,878.5s-4.22-1.18-3.2-5.4c0,0,.43-3.92,4.8-3.2,0,0,4.15,2,2.8,5.53C411.75,875.43,410.69,879,407.35,878.5Z" transform="translate(-0.16 -0.05)"/><path class="cls-3" d="M286.62,897.39s-9.89-2.32-9.89-14.11c0,0,0-10.76,4.95-15.85a9.2,9.2,0,0,0,1.89-4.36s0-3.64,3.05-3.49c0,0,2.47,1.45,1.75,6.1,0,0-.88,4.51,2.32,6.4,0,0,6.26,5.24,6.26,12.51C297,884.59,296.8,896.08,286.62,897.39Z" transform="translate(-0.16 -0.05)"/><path class="cls-3" d="M340.44,952.81s-17.75-1.16-16.58-21.67c0,0,.58-11.78,11.49-22.26,0,0,8.43-7,6.11-13.52,0,0-1.83-4.22-8.63-5.53,0,0-6.94-3.2-3.74-12.07,0,0,2.19-5.38,9.75-4.66a11.91,11.91,0,0,1,7.56,5.38s3.35,5.1,7.71,5.24c0,0,5.67-.29,9.17-3.49a12.56,12.56,0,0,1,12.62-7.13s12.83,1.45,9.63,12.14a32.93,32.93,0,0,1-12.07,8.37s-8.44,3.2-11.06,8.29a21.38,21.38,0,0,1-7.48,8.88s-6.9,1.71,0,16.92C354.92,927.7,361.53,950.48,340.44,952.81Z" transform="translate(-0.16 -0.05)"/><path class="cls-3" d="M453.5,851.4s13.85,42.87,4.25,22.86a29.85,29.85,0,0,0-5-7.43l.75,3a22.06,22.06,0,0,0-3.61-5.65c-10.24-8.15-23.06-5.53-23.06-5.53-2.94,2.53-11.21,8.55-17.74,2.91,0,0-10.69-10.26-16.14-.22,0,0-7.7,8.29-17.05,5.24,0,0-9.57-1.57-8.48-12A2.51,2.51,0,0,1,370,851.4s4.73,2.28,5.86-1c0,0,.47-4.52-5.86-3.9,0,0-9.16,2.81-12.65-6.57,0,0-2.41-5.89,2.18-10,0,0,7-10.69-2.81-17.45a10.91,10.91,0,0,0-6.57,1.09s-6.82.6-8.95,0c0,0-5.8.47-7.16,7.21a15.62,15.62,0,0,1-10.29,9.81s-8.51-.82-5.24,16c0,0,.43,17.87-17.67,15.25,0,0-10-2.18-7.86-17.89,0,0,2-8.29,12.66-13.31,0,0,9.38-2.18,8.29-11.57,0,0,.22-3-2.84-8.94,0,0-4.58-7.2,1.53-12.22a8.34,8.34,0,0,1,8.94,0,6.08,6.08,0,0,0,7.42-2.4s6.56-11.35-1.3-26.18c0,0-7.64-10.7-20.08-11.57,0,0-17-4.06-22.25-26.47,0,0-.22-7.05-1.53-10.14,0,0-6.4-15.73,9.24-24a10.93,10.93,0,0,0,6.69-5.67,19.67,19.67,0,0,1,21.38-9.18s8.72,3.29,10.25,9.61c1.3,5.37-6.05,10.74-8.3,12.24a1.09,1.09,0,0,1-.64.41c-3,.91-7.37,0-7.37,0-9-.46-10.49,7.76-10.71,9.56.23,2.8,1.81,11.27,12.75,14,0,0,2.38-1.7,6.47,2.75,0,0,4.31,2.66,5.84-4.85,0,0-1.53-4.23,4.36-9a14,14,0,0,0,8.39-11.58s.12-6.41-4.46-17.49c0,0-7.64-11.29-2-22,0,0,3.7-6,12-4.86a8.78,8.78,0,0,0,9.15-1c.36-.35,1.29-1.64,2.35-6,.73-5.73,4.09-16.65,18.82-22.12,0,0,18.55-5.5,24.22,5.88,0,0,3.93,4.28-1.53,8.38,0,0-11.67,6.19,1.42,14,6.18,3.7,4.12,5.17.22,5.69l46.14,184.43Z" transform="translate(-0.16 -0.05)"/><path class="cls-5" d="M543.71,932.23s-15.27,7-19.42-14.18c0,0-2.61-13.31-10-21.17,0,0-3-2.6-5.28-1.63h0c-2.34,1.3-2.15,4.25-1.83,5.89.1.34.2.73.29,1.15h0c.4,2,.33,4.66-2.35,5.69,0,0-8.12.59-9.18-5.69,0,0-1.16-13.76-15.91-12.64,0,0-3.92,2.43-4.14,4.62,0,0-6.29,6.32-14.49.43,0,0-10.82-5.67-10.82-30.11,0,0,.76-20.94-16.09-22.69,0,0-10.31-1.52-13.37,2.4a5.9,5.9,0,0,1-5,2.62c-12.88-6.76-5.46,6.18-5.46,6.18s4.58,5.17,0,10.18c0,0-9.66,4.62-16.14-6.54,0,0-5.68-10,0-16.58a15.92,15.92,0,0,1,4.36-2.4s2.84-1.31,1.53-6.11c0,0-2-4.58-8.42-4.58,0,0-4.67-.66-4.24-5.24,0,0-.58-3.05,2.66-6.11,0,0,5.63-3.71,3.45-8.51,0,0-4.58-6.33-11.56-3.49,0,0-8.07,5.3-15.06-.73,0,0-4.36-2.76-4.8-11,0,0,1.53-2.74-2.61-7.05,0,0-7.84-5.57-4.59-17.74,0,0,5.68-8.42,5.68-13,0,0,.6-6.42-6.47-6.47,0,0-9.57,1.26-11.7-11.62,0,0-4.09-14.83,11.18-18.32,0,0,4.8-.44,7,7.2,0,0,2.91,3.49,6.14,3.49a4.4,4.4,0,0,0,3-4.15s.07-5.39,6.54-6.55c0,0,7.13.65,8.48-5.23,0,0,1.56-6.64-6.51-11.17,0,0-9.66-8.64-5-24.05a36.51,36.51,0,0,1,32.73-19.73s12.6,2.59,18-7.23c0,0,1.49-15.15,11.67-17.67,0,0,21.84-6.55,38.32,15.71l15.07,192.87,2,17.48,15.78-.46s-12,9.81,0,21.81c0,0,12.22,4.8,14.4,12.88,0,0-2,10.11,8.73,12.18,0,0,17.89-.16,18.54,11.72C548.73,916.86,550.26,928.52,543.71,932.23Z" transform="translate(-0.16 -0.05)"/><path class="cls-5" d="M531.17,851.4s.37-23.51,18.49-17.92c0,0,38.49,26.24,59.43,1.8a38.91,38.91,0,0,0-4.36-29.67s-6.4-14.09,1.16-20.72c0,0,15.88-10.3,25.83-2.21,0,0,3.85,11.88,10.1,12.46,0,0,10,2,11.2-8.15,0,0,2.23-16.4-16-19.84,0,0-13.67-1.14-17.14-17,0,0-2.88-14.27,9.63-19.42,0,0,14.25-6.35,9.89-20,0,0-3.2-11.86-17.75-11.88,0,0-15.36-3.59-17.43-18,0,0-.31-12.6-8.46-17.55,0,0-11.52-6-21.91-3.3,0,0-25.8.68-36.27-19.1L495.91,755.5l27.37,94.62Z" transform="translate(-0.16 -0.05)"/><path class="cls-4" d="M469.23,849.48S440.08,839,438.77,817.55c0,0,2.78-10.45-2.92-15.3a10.52,10.52,0,0,0-12.37-2.19s-17.26,7.43-27-11.37c0,0-13.87-17.92,0-36.28a14.55,14.55,0,0,1,10.38-4.74s16.23,1.49,18.59-9.78c0,0,.18-7.43-11.61-12.29,0,0-8.29-5.59-4.58-15.19A19.39,19.39,0,0,1,423.48,701s13.27-9.39,6.64-23.14c0,0-9.65-8.63-2-21.69,0,0,7.15-18.23,38.37-13.46,0,0,27.27,13.07,39.5-9,0,0,2.27-11.33,12.48-12.33,0,0,12.46,0,15.92,12.19,0,0,1.08,2.47,5.21,6.2,0,0,14.51,3.81,8.12,16.4,0,0-3.11,3.32-1.69,7.45,0,0,.84,5.58-3.09,8.2a21.71,21.71,0,0,1-4.8,1.9s-2.91.61-1.89,7.62c0,0,2.76,13,14.84,10,0,0,6.4-1.89,9.74-5.39,0,0,12.14-5.68,20.4,4.37,0,0,7.68,12.24-1.2,18.37a62,62,0,0,1-7.12,3.2s-9.31,1.31-11.5,14.87c0,0-1.26,9.62-2.74,13.84,0,0-4.67,10.64,2.6,20a17.89,17.89,0,0,0,13.38,6.35s8.15-2.71,12.07,3.34c0,0,1.15,2.35,0,4.15,0,0-3.52,2.77-1.1,5.76a6,6,0,0,1,2.6,5.76,13.09,13.09,0,0,1-3.68,4.37s-2,1.75-2,3.64c0,0-2.54,5.68-11.67,1.75,0,0-3.61-3.21-8.41,0,0,0-3.78,2.91-1.31,8.74a18.84,18.84,0,0,1-.14,7.29s-1.89,7,8.29,10.35c0,0,10.76-1.31,14.25,8,0,0,3.59,12.66-4.89,17,0,0-7.76,7-19.83.31,0,0-4.8-3.06-8.73-12.54,0,0-1.89-9.47-8.44-9.76,0,0-6.4.58-5.67,6.7,0,0,1.16,2.33-1.6,5.39,0,0-3.93-.14-2.76,10.64,0,0,1.31,7.44-3.49,12.24,0,0-9.48,9.47-20.74,3.64,0,0-14.9-8.81-19.7,12.61,0,0-4.8,11.59-14.18,10.72,0,0-7.64-4.16-5.46-14a33.88,33.88,0,0,1,8.73-8.09S487.26,856.5,469.23,849.48Z" transform="translate(-0.16 -0.05)"/><path class="cls-3" d="M641.82,918.19s-3.34-1.16-1.89-6c0,0,1.31-2.33,4.65-1.45,0,0,5.1,2,4.37,5.23C649,916,647.35,919.07,641.82,918.19Z" transform="translate(-0.16 -0.05)"/><path class="cls-3" d="M737.51,734.43s-6.09-1.28-4.49-11.16c0,0,.88-3.91,4.73-3.91,0,0,9.23.72,9.09,10.62A8.52,8.52,0,0,1,737.51,734.43Z" transform="translate(-0.16 -0.05)"/><path class="cls-6" d="M412.51,742.65s-4.29-5.59-7.78-8c0,0-1.53-2.68,2.4-1.47,0,0,7.3-1,8.45,5.68C415.58,738.82,417,746,412.51,742.65Z" transform="translate(-0.16 -0.05)"/><path class="cls-6" d="M572.08,747.7s-6.71-7.15-3.46-13.09c0,0,5.7-1.31,5.89,8C574.51,742.65,575.35,749.06,572.08,747.7Z" transform="translate(-0.16 -0.05)"/><path class="cls-6" d="M488.26,713.2s-3.22-2.17-5.89-.43c0,0-4.8,4.88-6.32-.95,0,0-1.1-6.41,3.16-7,0,0,.85-.19,3.42,1.69a4.43,4.43,0,0,0,2.89,1.58,1.4,1.4,0,0,0,1.38-.79s1.39-1.8,3.18.22A4.69,4.69,0,0,1,488.26,713.2Z" transform="translate(-0.16 -0.05)"/></g><path class="cls-7" d="M714.33,858.7c-14.4-2.83-12-15.49-12-15.49,1.09-6.54,0-15.93,0-15.93-.87-16.14-12.22-14.18-12.22-14.18-6.76,2.4-4.8,10.48-4.8,10.48C688.8,847.14,670,847.79,670,847.79c-12.87-1.09-22.47-17.67-22.47-17.67-13.31-10.69-26.62,0-26.62,0-9.6,14.18.65,27.93.65,27.93,18.55,20.51,17,32.12,17,32.12.87,25.57-15.71,22.21-15.71,22.21-6.54-.88-5-13.75-5-13.75,1.31-6.11-2.83-16.08-2.83-16.08C606.77,865.82,590.84,872,590.84,872c-7.86,7.42,1.74,18.16,1.74,18.16,3.71,5.93-1.09,15-1.09,15-12,15.89-28.8,6.58-28.8,6.58-14.83-9.38-11.78-26.48-11.78-26.48-2.18-19-22-19.34-22-19.34-12.52,1.08-16.16,8.77-17.22,13.17a15,15,0,0,0,4.17,6.17c2.51,2,4.8,4.64,5.63,7.72,0,0-2,10.11,8.73,12.18,0,0,17.89-.16,18.54,11.72,0,0,1.53,11.66-5,15.37,0,0-15.27,7-19.42-14.18,0,0-2.61-13.31-10-21.17,0,0-3-2.6-5.28-1.63h0c-2.34,1.3-2.15,4.25-1.83,5.89.1.34.2.73.29,1.15h0c.4,2,.33,4.66-2.35,5.69,0,0-8.12.59-9.18-5.69,0,0-1.16-13.76-15.91-12.64,0,0-3.92,2.43-4.14,4.62,0,0-6.29,6.32-14.49.43,0,0-10.7-5.62-10.82-29.73l-.66-.81c-10.24-8.15-23.06-5.53-23.06-5.53-2.66,2.29-9.7,7.44-15.85,4.21-.12.15-.22.29-.36.44s-8.73,4.16-15.16-5a9.45,9.45,0,0,0-2.51,3.06s-7.7,8.29-17.05,5.24c0,0-9.57-1.57-8.48-12A2.51,2.51,0,0,1,370,851.4s4.73,2.28,5.86-1c0,0,.47-4.52-5.86-3.9,0,0-9.16,2.81-12.65-6.57,0,0-2.41-5.89,2.18-10,0,0,7-10.69-2.81-17.45a10.91,10.91,0,0,0-6.57,1.09s-6.81.6-8.95,0c0,0-5.8.47-7.16,7.21a15.62,15.62,0,0,1-10.29,9.81s-8.51-.82-5.24,16c0,0,.43,17.87-17.67,15.25,0,0-10-2.18-7.86-17.89,0,0,2-8.29,12.66-13.31,0,0,9.38-2.18,8.29-11.57,0,0,.22-3-2.84-8.94,0,0-4.58-7.2,1.53-12.22a8.34,8.34,0,0,1,8.94,0,6.08,6.08,0,0,0,7.42-2.4s6.56-11.35-1.3-26.18c0,0-7.64-10.7-20.08-11.57,0,0-17-4.06-22.25-26.47,0,0-.22-7.05-1.53-10.14,0,0-6.4-15.73,9.24-24a10.93,10.93,0,0,0,6.69-5.67,19.67,19.67,0,0,1,21.38-9.18s8.72,3.29,10.25,9.61c1.3,5.37-6.05,10.74-8.3,12.24a1.09,1.09,0,0,1-.64.41c-3,.91-7.37,0-7.37,0-9-.46-10.49,7.76-10.71,9.56.23,2.8,1.81,11.27,12.75,14,0,0,2.38-1.7,6.47,2.75,0,0,4.31,2.66,5.84-4.85,0,0-1.53-4.23,4.36-9a14,14,0,0,0,8.39-11.58s.12-6.41-4.46-17.49c0,0-7.64-11.29-2-22,0,0,3.7-6,12-4.86a8.78,8.78,0,0,0,9.15-1c.36-.35,1.29-1.64,2.35-6,.73-5.73,4.09-16.65,18.82-22.12,0,0,18.55-5.5,24.22,5.88,0,0,3.93,4.28-1.53,8.38,0,0-9.84,5.23-1.28,12.16a41.75,41.75,0,0,1,6.74-.62s12.6,2.59,18-7.23c0,0,1.49-15.15,11.67-17.67,0,0,19.11-5.73,35.06,11.74,8.26,2.64,25.84,5.81,35-10.71,0,0,2.27-11.33,12.48-12.33,0,0,12.46,0,15.92,12.19,0,0,1.08,2.47,5.21,6.2,0,0,12.12,3.2,9.32,13.37,11.43,7.28,24.91,6.93,24.91,6.93a23,23,0,0,1,6-.7c10.72-3.19,5.29-16.19,5.29-16.19a14.39,14.39,0,0,1-5.19-15.3c3.71-5,10.58-2.08,10.58-2.08,2.07,1.42,6.67,1.46,6.67,1.46,8.09.92,8.06,8,8.06,8-1.31,10,4.14,13.1,4.14,13.1,8.73,8.72,23,1.74,23,1.74,7.25-5.22,13.39-4.14,13.39-4.14,24.34-1.53,33.26,20.3,33.26,20.3,6.52,19.87-9.16,21.53-9.16,21.53-5.45,1-8.94,6-8.94,6-9.39,18.59,2.44,26.37,2.44,26.37,12.69,6.11,18.5-5.24,18.5-5.24,4.15-15.27,18.55-11.56,18.55-11.56,19.85,8.94,7,31.25,7,31.25-12.44,12.27-28.37,3.22-28.37,3.22-13.52-5.67-18.54,7.23-18.54,7.23-2.62,15.73,8.29,16.77,8.29,16.77,13.2,2,10.69,12.22,10.69,12.22a85,85,0,0,0-1.31,8.5c2,12.43,20.29,22.7,20.29,22.7C725.68,822.48,727,840.81,727,840.81,727,857.83,714.33,858.7,714.33,858.7Z" transform="translate(-0.16 -0.05)"/><path class="cls-8" d="M445.75,916.86s6.11-3.23,5.45-8.88c0,0-1.52-5.86,5.46-8.26,0,0,4.58-.44,6.76,6.33,0,0,5.89,2.2,3.27,10.81a11.54,11.54,0,0,1-4.8,5.55h-.17c-5,3.23-1.51,8.65-1.51,8.65,1.26,1.3,3.3,4.27,3,9.81,0,0,1.31,18.19-8.72,14.26,0,0-15.28-2.73-14.84-30.17C439.64,925,440.51,921.56,445.75,916.86Z" transform="translate(-0.16 -0.05)"/><path class="cls-9" d="M563.86,937.1s10.18-.14,11.2,13.24c0,0,1.45,6.11-3.2,10.18a3.25,3.25,0,0,1-3.06-2.11,7.55,7.55,0,0,0-5.67-5.45s-7.62-.92-7-12.24C556.12,940.72,556.44,935.94,563.86,937.1Z" transform="translate(-0.16 -0.05)"/><path class="cls-10" d="M409,869.9s4.15,2,2.8,5.53c0,0-1.06,3.52-4.4,3.07,0,0-4.22-1.18-3.2-5.4C404.15,873.1,404.58,869.18,409,869.9Z" transform="translate(-0.16 -0.05)"/><path class="cls-11" d="M286.62,859.58s2.47,1.45,1.75,6.1c0,0-.88,4.51,2.32,6.4,0,0,6.26,5.24,6.26,12.51,0,0-.15,11.49-10.33,12.8,0,0-9.89-2.32-9.89-14.11,0,0,0-10.76,4.95-15.85a9.2,9.2,0,0,0,1.89-4.36S283.57,859.43,286.62,859.58Z" transform="translate(-0.16 -0.05)"/><path class="cls-12" d="M335.35,908.88s8.43-7,6.11-13.52c0,0-1.83-4.22-8.63-5.53,0,0-6.94-3.2-3.74-12.07,0,0,2.19-5.38,9.75-4.66a11.91,11.91,0,0,1,7.56,5.38s3.35,5.1,7.71,5.24c0,0,5.67-.29,9.17-3.49a12.56,12.56,0,0,1,12.62-7.13s12.83,1.45,9.63,12.14a32.93,32.93,0,0,1-12.07,8.37s-8.44,3.2-11.06,8.29a21.38,21.38,0,0,1-7.48,8.88s-6.9,1.71,0,16.92c0,0,6.61,22.78-14.48,25.11,0,0-17.75-1.16-16.58-21.67C323.86,931.14,324.44,919.36,335.35,908.88Z" transform="translate(-0.16 -0.05)"/><path class="cls-13" d="M644.58,910.78s5.1,2,4.37,5.23c0,0-1.6,3.06-7.13,2.18,0,0-3.34-1.16-1.89-6C639.93,912.23,641.24,909.9,644.58,910.78Z" transform="translate(-0.16 -0.05)"/><path class="cls-14" d="M737.51,734.43s-6.09-1.28-4.49-11.16c0,0,.88-3.91,4.73-3.91,0,0,9.23.72,9.09,10.62A8.52,8.52,0,0,1,737.51,734.43Z" transform="translate(-0.16 -0.05)"/><rect class="cls-15" width="53"/><rect class="cls-16" x="974" y="1172" width="53"/><g class="cls-17"><path class="cls-18" d="M808.4,653.94l.45-.22L768,633.09V609.65l.69-.35-.45-.22h-1.38l-69.58-11.72L656.9,577l-.45-.23H574.79L505.2,565l-.69-.35h-.9l-.69.35-69.59,11.72H351.67l-40.84,20.63-69.58,11.72h-1.39l-.44.22.69.35v23.44l-40.39,20.4-.45.23,40.84,20.62v23.44l-.69.35.44.23h1.39l69.58,11.71,40.39,20.41.45.22h81.66l69.59,11.72.69.35h.9l.69-.35,69.59-11.72h81.66l40.84-20.63,69.58-11.71h1.38l.45-.23-.69-.35V674.35ZM590.63,697.45H417.49l-86.56-43.73L417.49,610H590.63l86.56,43.74Zm46.75-65.66,93.35-15.72,10.49,5.3L679,652.81Zm91.8-16.51L635.83,631l-41.61-21H718.68Zm-140.35-6.2H505.62V577.64h21ZM502.5,577.64v31.44H419.29l62.23-31.44ZM413.9,610l-41.61,21-93.35-15.72,10.49-5.3Zm-136.51,6.09,93.34,15.72-41.6,21L266.9,621.37Zm51.74,38.55,41.6,21-93.34,15.72-10.49-5.3Zm-50.19,37.53,93.35-15.72,41.61,21H289.43Zm140.35,6.21H502.5v31.43h-21Zm86.33,31.43V698.36h83.21L526.6,729.79Zm88.6-32.34,41.61-21,93.35,15.72-10.5,5.3Zm136.51-6.09-93.35-15.72,41.61-21,62.23,31.44Zm2.7-75.74,28.77-4.85L743,620.46Zm-1.56-.79L722.28,610h38.37Zm-226.25-38.1V567l19.18,9.69Zm-3.12,0H483.32L502.5,567Zm-226.25,38.1L247.47,610h38.37Zm-1.56.79-9.59,4.84-19.18-9.69Zm0,76.2-28.77,4.84L265.1,687Zm1.56.78,9.59,4.85H247.47ZM502.5,730.7v9.69l-19.18-9.69Zm3.12,0H524.8l-19.18,9.69Zm226.25-38.1,28.78,4.85H722.28Zm1.56-.78L743,687l19.18,9.69Zm-141-82.74-62.23-31.44H574L695,598l21.88,11.06Zm-176.72,0H291.23L313.11,598l121.06-20.38h43.76Zm-88.37,44.64L265.1,685.15l-21.88-11V633.33l21.88-11.05Zm88.37,44.64,62.23,31.43H434.17L313.11,709.41l-21.88-11Zm176.72,0H716.89l-21.88,11L574,729.79H530.19Zm88.37-44.64L743,622.28l21.88,11.05V674.1l-21.88,11ZM768,634.9l37.24,18.82L768,672.53Zm-23.19-13.53,20.08-10.15v20.3Zm-24.34-12.29L700.4,598.93l60.25,10.15Zm-140.3-31.44h74.48l37.23,18.81Zm-51.79-.91-20.08-10.15,60.25,10.15Zm-48.67,0H439.56l60.25-10.15Zm-163.5,19.72,37.24-18.81h74.48Zm-28.58,12.63H247.47l60.25-10.15ZM263.3,621.37l-20.08,10.15v-20.3Zm-23.19,51.16-37.24-18.81,37.24-18.82Zm23.19,13.53-20.08,10.15V675.92Zm24.34,12.3,20.08,10.14-60.25-10.14Zm140.3,31.43H353.46L316.22,711Zm51.78.91,20.09,10.15L439.56,730.7Zm48.67,0h40.17l-60.25,10.15ZM691.89,711l-37.23,18.81H580.18Zm28.59-12.62h40.17L700.4,708.5Zm24.34-12.3,20.08-10.14v20.29Z" transform="translate(-0.16 -0.05)"/><path class="cls-19" d="M584.73,613H423.38l-80.22,40.53-.45.23,80.22,40.52.45.23H584.73L665,653.94l.45-.22-80.23-40.53Zm-220.4,40.76c0,4.36,2.37,8.56,6.74,12.51L346.3,653.72l24.77-12.52C366.7,645.15,364.33,649.35,364.33,653.72Zm3.11,0c0-22,61.29-39.85,136.62-39.85s136.62,17.87,136.62,39.85-61.29,39.84-136.62,39.84S367.44,675.69,367.44,653.72Zm276.35,0c0-4.37-2.37-8.57-6.74-12.52l24.77,12.52-24.77,12.51C641.42,662.28,643.79,658.08,643.79,653.72ZM533.42,613.87h49.52l24.94,12.6C588.54,620.21,562.66,615.7,533.42,613.87Zm-133.18,12.6,24.94-12.6H474.7C445.45,615.7,419.58,620.21,400.24,626.47Zm74.46,67.09H425.18L400.24,681C419.58,687.22,445.45,691.73,474.7,693.56ZM607.88,681l-24.94,12.6H533.42C562.66,691.73,588.54,687.23,607.88,681Z" transform="translate(-0.16 -0.05)"/><path class="cls-20" d="M504.06,666.48c23.9,0,43.35-5.68,43.35-12.65S528,641.19,504.06,641.19s-43.35,5.67-43.35,12.64S480.16,666.48,504.06,666.48Zm0-22.57c18.75,0,34,4.45,34,9.92s-15.26,9.92-34,9.92-34-4.45-34-9.92S485.31,643.91,504.06,643.91Z" transform="translate(-0.16 -0.05)"/><path class="cls-20" d="M562.35,653.83c0-9.37-26.15-17-58.29-17s-58.3,7.63-58.3,17,26.16,17,58.3,17S562.35,663.21,562.35,653.83Zm-58.29-16.09c30.43,0,55.18,7.22,55.18,16.09s-24.75,16.1-55.18,16.1-55.18-7.22-55.18-16.1S473.63,637.74,504.06,637.74Z" transform="translate(-0.16 -0.05)"/></g><g class="cls-21"><path class="cls-22" d="M504.44,506.8c.61,3,1,5.92,1.53,8.88l.63,4.43.51,4.44c.16,1.47.47,3,.72,4.43a13.78,13.78,0,0,1,0,4.44,23.4,23.4,0,0,1-1.12,4.43,17.18,17.18,0,0,1-2.31,4.44h-.76a17.23,17.23,0,0,1-2.32-4.44,23.36,23.36,0,0,1-1.11-4.43,14.07,14.07,0,0,1,0-4.44c.26-1.48.57-3,.73-4.43l.51-4.44.63-4.43c.52-3,.92-5.92,1.53-8.88Z" transform="translate(-0.16 -0.05)"/><path class="cls-22" d="M417,509c2.36,2.88,4.52,5.77,6.78,8.66L427,522l3.15,4.34c1,1.45,2.22,2.89,3.35,4.33a21.36,21.36,0,0,1,2.68,4.37,25.34,25.34,0,0,1,1.54,4.43,12.56,12.56,0,0,1,.36,4.48l-.75,0a38.16,38.16,0,0,1-4.92-4.25,46.57,46.57,0,0,1-3.74-4.31,20.87,20.87,0,0,1-2.6-4.37c-.63-1.47-1.21-2.94-1.93-4.41L422,522.27l-2-4.4c-1.26-2.94-2.62-5.87-3.78-8.81Z" transform="translate(-0.16 -0.05)"/><path class="cls-22" d="M332.14,515.63c4,2.71,7.89,5.45,11.84,8.18l5.79,4.1,5.69,4.12c1.88,1.37,3.9,2.73,5.88,4.1a46.63,46.63,0,0,1,5.23,4.16,50.16,50.16,0,0,1,4.15,4.28,21,21,0,0,1,3,4.4L373,549a81.79,81.79,0,0,1-7.37-3.93q-3.35-2-6.25-4.06a46.66,46.66,0,0,1-5.17-4.17c-1.49-1.42-2.94-2.83-4.52-4.24L345,528.42l-4.6-4.23c-3-2.83-6.08-5.65-9-8.49Z" transform="translate(-0.16 -0.05)"/><path class="cls-22" d="M252.54,526.43c5.6,2.47,11,5,16.53,7.46l8.15,3.75,8,3.77c2.67,1.25,5.47,2.49,8.23,3.73s5.3,2.52,7.63,3.84,4.56,2.64,6.64,4a47.15,47.15,0,0,1,5.6,4.18l-.66.11c-3.48-1.12-6.6-2.3-9.61-3.5s-5.84-2.43-8.57-3.68-5.25-2.53-7.57-3.85-4.58-2.64-7-3.94l-7.16-3.92-7.05-3.93c-4.63-2.64-9.35-5.26-13.89-7.91Z" transform="translate(-0.16 -0.05)"/><path class="cls-22" d="M180.58,541.1c7,2.15,13.81,4.34,20.72,6.51l10.26,3.28,10.16,3.3c3.39,1.11,6.88,2.18,10.33,3.27s6.73,2.21,9.81,3.39,6.06,2.37,8.92,3.6,5.58,2.5,8,3.83l-.59.15c-4.09-.93-7.87-1.94-11.54-3s-7.21-2.09-10.63-3.18-6.68-2.23-9.75-3.41-6.09-2.37-9.22-3.53l-9.38-3.5-9.29-3.51c-6.13-2.36-12.33-4.7-18.38-7.08Z" transform="translate(-0.16 -0.05)"/><path class="cls-23" d="M118.45,559.2c8.16,1.76,16.18,3.57,24.28,5.36l12.05,2.71,12,2.74c4,.91,8.07,1.79,12.12,2.68s7.93,1.85,11.67,2.85,7.39,2,10.93,3.1,7,2.17,10.16,3.37l-.49.17c-4.58-.71-8.9-1.51-13.13-2.34s-8.35-1.7-12.37-2.6-7.9-1.85-11.63-2.86-7.4-2-11.18-3l-11.32-3-11.24-3c-7.44-2-15-4-22.32-6Z" transform="translate(-0.16 -0.05)"/><path class="cls-23" d="M68,580.16c9.08,1.33,18.06,2.71,27.1,4.05l13.48,2.06,13.43,2.09c4.47.7,9,1.36,13.53,2s8.91,1.41,13.19,2.2,8.48,1.63,12.61,2.5,8.17,1.79,12,2.81l-.38.19c-4.94-.47-9.66-1-14.33-1.64s-9.22-1.25-13.73-1.93-8.88-1.43-13.15-2.23-8.49-1.62-12.8-2.4l-12.92-2.35-12.85-2.37c-8.52-1.61-17.1-3.19-25.58-4.82Z" transform="translate(-0.16 -0.05)"/><path class="cls-23" d="M30.87,603.37c9.73.84,19.4,1.74,29.1,2.61l14.5,1.35,14.47,1.37c4.82.46,9.69.88,14.54,1.32s9.62.94,14.3,1.51,9.33,1.17,13.91,1.82,9.11,1.35,13.5,2.15l-.27.21c-5.13-.21-10.13-.53-15.08-.88s-9.83-.77-14.67-1.21-9.59-1-14.27-1.53-9.34-1.17-14.05-1.72l-14.11-1.65L58.67,607c-9.36-1.16-18.74-2.28-28.06-3.46Z" transform="translate(-0.16 -0.05)"/><path class="cls-23" d="M8.08,628.1c10.09.33,20.14.73,30.22,1.1l15.08.59,15.07.62c5,.21,10.06.38,15.1.56s10,.44,15,.76,9.88.68,14.78,1.09,9.77.87,14.58,1.44l-.14.22c-5.18,0-10.29,0-15.37-.11s-10.14-.26-15.17-.45-10-.45-15-.78-9.89-.67-14.85-1l-14.89-.92-14.87-1c-9.89-.66-19.8-1.29-29.68-2Z" transform="translate(-0.16 -0.05)"/><path class="cls-23" d="M.36,653.61c10.14-.18,20.28-.3,30.42-.45L46,653l15.21-.15c5.07-.05,10.14-.14,15.21-.21s10.13-.08,15.2,0,10.14.18,15.21.33,10.14.36,15.2.68v.22c-5.06.32-10.13.51-15.2.67s-10.14.26-15.21.33-10.14.06-15.2,0-10.14-.17-15.21-.21L46,654.46l-15.2-.19c-10.14-.15-20.28-.26-30.42-.44Z" transform="translate(-0.16 -0.05)"/><path class="cls-23" d="M8,679.12c9.88-.69,19.79-1.32,29.68-2l14.87-.95,14.89-.92c5-.3,9.9-.65,14.85-1s9.93-.59,15-.78,10.08-.34,15.17-.45,10.19-.16,15.37-.1l.14.22c-4.81.57-9.68,1-14.58,1.43s-9.83.77-14.78,1.09-10,.57-15,.76-10.08.35-15.1.56l-15.07.63-15.08.58c-10.08.37-20.13.77-30.22,1.11Z" transform="translate(-0.16 -0.05)"/><path class="cls-24" d="M30.61,703.86c9.32-1.18,18.7-2.3,28.06-3.45l14.07-1.69,14.11-1.66c4.71-.55,9.37-1.14,14.05-1.72s9.43-1.08,14.27-1.52,9.73-.85,14.67-1.21,9.95-.68,15.08-.89l.27.21c-4.39.81-8.93,1.5-13.5,2.15s-9.22,1.26-13.91,1.83-9.46,1.06-14.3,1.5-9.72.86-14.54,1.32l-14.47,1.38L60,701.45c-9.7.87-19.37,1.77-29.1,2.62Z" transform="translate(-0.16 -0.05)"/><path class="cls-24" d="M67.65,727.08c8.48-1.64,17.06-3.22,25.58-4.82l12.85-2.38L119,717.53c4.31-.78,8.54-1.6,12.8-2.4s8.65-1.55,13.15-2.23,9.08-1.33,13.73-1.93,9.39-1.17,14.33-1.64l.38.2c-3.84,1-7.9,1.92-12,2.8s-8.33,1.7-12.61,2.5-8.68,1.53-13.19,2.21-9.06,1.33-13.53,2l-13.43,2.09-13.48,2.06c-9,1.35-18,2.72-27.1,4Z" transform="translate(-0.16 -0.05)"/><path class="cls-24" d="M118,748.06c7.37-2,14.88-4,22.32-6l11.24-3,11.32-3c3.78-1,7.47-2,11.18-3s7.6-2,11.63-2.86,8.14-1.77,12.37-2.6,8.55-1.63,13.13-2.33l.49.17c-3.18,1.19-6.63,2.29-10.16,3.36s-7.19,2.11-10.93,3.11-7.64,1.94-11.67,2.84-8.13,1.77-12.12,2.69l-12,2.73-12.05,2.71c-8.1,1.79-16.12,3.6-24.28,5.36Z" transform="translate(-0.16 -0.05)"/><path class="cls-24" d="M180,766.19c6.05-2.38,12.25-4.72,18.38-7.09l9.29-3.51,9.38-3.5c3.13-1.16,6.16-2.35,9.22-3.53s6.31-2.31,9.75-3.4,7-2.16,10.63-3.19,7.45-2,11.54-3l.59.15c-2.42,1.34-5.16,2.59-8,3.83s-5.84,2.43-8.92,3.61-6.36,2.3-9.81,3.39-6.94,2.16-10.33,3.26l-10.16,3.3-10.26,3.28c-6.91,2.17-13.74,4.36-20.72,6.51Z" transform="translate(-0.16 -0.05)"/><path class="cls-24" d="M251.88,780.89c4.54-2.65,9.26-5.27,13.89-7.9l7.05-3.94,7.16-3.91c2.4-1.31,4.67-2.63,7-3.95s4.83-2.6,7.57-3.85,5.58-2.47,8.57-3.67,6.13-2.39,9.61-3.51l.66.11a47.15,47.15,0,0,1-5.6,4.18c-2.08,1.36-4.3,2.69-6.64,4s-4.89,2.59-7.63,3.83-5.56,2.48-8.23,3.74l-8,3.76-8.15,3.75c-5.52,2.49-10.93,5-16.53,7.46Z" transform="translate(-0.16 -0.05)"/><path class="cls-24" d="M331.43,791.73c2.89-2.84,6-5.66,9-8.49L345,779l4.72-4.22c1.58-1.4,3-2.82,4.52-4.24a47.84,47.84,0,0,1,5.17-4.17q2.91-2.05,6.25-4.06a81.79,81.79,0,0,1,7.37-3.93l.72.07a21,21,0,0,1-3,4.4,50.16,50.16,0,0,1-4.15,4.28,47.82,47.82,0,0,1-5.23,4.17c-2,1.36-4,2.72-5.88,4.09l-5.69,4.12-5.79,4.1c-4,2.73-7.8,5.47-11.84,8.19Z" transform="translate(-0.16 -0.05)"/><path class="cls-24" d="M416.22,798.38c1.16-3,2.52-5.88,3.78-8.82l2-4.4,2.13-4.39c.72-1.46,1.3-2.94,1.93-4.4a20.62,20.62,0,0,1,2.6-4.37,45.39,45.39,0,0,1,3.74-4.32,39,39,0,0,1,4.92-4.25l.75,0a12.63,12.63,0,0,1-.36,4.49,25.53,25.53,0,0,1-1.54,4.42,21.36,21.36,0,0,1-2.68,4.37c-1.13,1.44-2.31,2.88-3.35,4.33L427,785.42l-3.26,4.34c-2.26,2.88-4.42,5.77-6.78,8.66Z" transform="translate(-0.16 -0.05)"/><path class="cls-24" d="M503.68,800.63c-.61-3-1-5.92-1.53-8.87l-.63-4.44-.51-4.43c-.16-1.48-.47-3-.73-4.44a14,14,0,0,1,0-4.43,23.27,23.27,0,0,1,1.11-4.44,17,17,0,0,1,2.32-4.43h.76a17,17,0,0,1,2.31,4.43,23.31,23.31,0,0,1,1.12,4.44,13.72,13.72,0,0,1,0,4.43c-.25,1.48-.56,3-.72,4.44l-.51,4.43-.63,4.44c-.52,3-.92,5.91-1.53,8.87Z" transform="translate(-0.16 -0.05)"/><path class="cls-24" d="M591.15,798.42c-2.36-2.89-4.52-5.78-6.78-8.66l-3.26-4.34L578,781.08c-1-1.45-2.22-2.89-3.36-4.33a21.75,21.75,0,0,1-2.67-4.37,25.53,25.53,0,0,1-1.54-4.42,12.63,12.63,0,0,1-.36-4.49l.75,0a39,39,0,0,1,4.92,4.25,45.39,45.39,0,0,1,3.74,4.32,21,21,0,0,1,2.6,4.37c.63,1.46,1.21,2.94,1.93,4.4l2.13,4.39,2,4.4c1.26,2.94,2.62,5.87,3.78,8.82Z" transform="translate(-0.16 -0.05)"/><path class="cls-24" d="M676,791.81c-4-2.72-7.89-5.46-11.84-8.19l-5.79-4.1-5.69-4.12c-1.88-1.37-3.9-2.73-5.88-4.09a49,49,0,0,1-5.24-4.17,53.4,53.4,0,0,1-4.15-4.28,20.58,20.58,0,0,1-3-4.4l.71-.07a80.69,80.69,0,0,1,7.38,3.93q3.35,2,6.25,4.06a47.84,47.84,0,0,1,5.17,4.17c1.49,1.42,2.94,2.84,4.52,4.24l4.71,4.22,4.61,4.23c3,2.83,6.08,5.65,9,8.49Z" transform="translate(-0.16 -0.05)"/><path class="cls-24" d="M755.58,781c-5.6-2.47-11-5-16.53-7.46l-8.15-3.75-8-3.76c-2.67-1.26-5.47-2.5-8.23-3.74s-5.3-2.52-7.63-3.83-4.56-2.65-6.64-4a47.15,47.15,0,0,1-5.6-4.18l.66-.11c3.48,1.12,6.6,2.3,9.61,3.51s5.84,2.43,8.57,3.67,5.25,2.53,7.57,3.85,4.58,2.64,7,3.95l7.15,3.91,7.06,3.94c4.63,2.63,9.35,5.25,13.89,7.9Z" transform="translate(-0.16 -0.05)"/><path class="cls-24" d="M827.54,766.33c-7-2.15-13.81-4.34-20.72-6.51l-10.26-3.28-10.17-3.3c-3.38-1.1-6.87-2.18-10.33-3.26s-6.72-2.22-9.8-3.39-6.06-2.38-8.92-3.61-5.58-2.49-8-3.83l.58-.15c4.1.93,7.87,1.94,11.55,3s7.2,2.1,10.63,3.19,6.68,2.22,9.75,3.4,6.08,2.37,9.22,3.53l9.38,3.5,9.29,3.51c6.12,2.37,12.33,4.71,18.38,7.09Z" transform="translate(-0.16 -0.05)"/><path class="cls-24" d="M889.67,748.23c-8.16-1.76-16.18-3.57-24.28-5.36l-12-2.71-12-2.73c-4-.92-8.07-1.8-12.12-2.69s-7.94-1.84-11.67-2.84-7.39-2-10.93-3.11-7-2.17-10.16-3.36l.49-.17c4.58.7,8.9,1.5,13.13,2.33s8.34,1.7,12.37,2.6,7.9,1.86,11.63,2.86,7.4,2,11.18,3l11.32,3,11.24,3c7.44,2,14.94,4,22.32,6Z" transform="translate(-0.16 -0.05)"/><path class="cls-24" d="M940.08,727.27c-9.08-1.33-18.06-2.7-27.1-4l-13.48-2.06-13.43-2.09c-4.47-.7-9-1.36-13.53-2s-8.91-1.41-13.19-2.21-8.48-1.63-12.61-2.5-8.17-1.79-12-2.8l.38-.2c4.94.47,9.66,1,14.33,1.64s9.22,1.25,13.72,1.93,8.89,1.43,13.15,2.23,8.5,1.62,12.81,2.4L902,719.88l12.86,2.38c8.52,1.6,17.1,3.18,25.57,4.82Z" transform="translate(-0.16 -0.05)"/><path class="cls-24" d="M977.25,704.07c-9.74-.85-19.4-1.75-29.1-2.62l-14.51-1.34-14.46-1.38c-4.82-.46-9.69-.88-14.54-1.32s-9.62-.93-14.3-1.5-9.33-1.18-13.91-1.83-9.11-1.34-13.5-2.15l.26-.21c5.14.21,10.13.53,15.08.89s9.84.76,14.68,1.21,9.59.95,14.27,1.52,9.34,1.17,14,1.72l14.11,1.66,14.07,1.69c9.35,1.15,18.74,2.27,28.06,3.45Z" transform="translate(-0.16 -0.05)"/><path class="cls-23" d="M1000,679.34c-10.09-.34-20.15-.74-30.22-1.11l-15.08-.58L939.67,677c-5-.21-10.06-.38-15.1-.56s-10-.44-15-.76-9.88-.68-14.78-1.09-9.77-.86-14.58-1.43l.14-.22c5.18-.06,10.29,0,15.37.1s10.14.26,15.17.45,10,.46,15,.78,9.89.68,14.85,1l14.89.92,14.86.95c9.9.66,19.81,1.29,29.69,2Z" transform="translate(-0.16 -0.05)"/><path class="cls-23" d="M1007.76,653.83c-10.14.18-20.28.29-30.42.44l-15.2.19-15.21.15c-5.07,0-10.14.13-15.21.21s-10.13.08-15.2,0-10.14-.17-15.21-.33-10.14-.35-15.21-.67v-.22c5.07-.32,10.14-.52,15.21-.68s10.14-.26,15.21-.33,10.13-.06,15.2,0,10.14.16,15.21.21l15.21.15,15.2.18c10.14.15,20.28.27,30.42.45Z" transform="translate(-0.16 -0.05)"/><path class="cls-23" d="M1000.17,628.31c-9.88.69-19.79,1.32-29.69,2l-14.86,1-14.89.92c-5,.31-9.9.65-14.85,1s-9.94.59-15,.78-10.08.35-15.17.45-10.19.16-15.37.11l-.14-.22c4.81-.57,9.68-1,14.58-1.44s9.83-.77,14.78-1.09,9.95-.57,15-.76,10.08-.35,15.1-.56l15.07-.62,15.08-.59c10.07-.37,20.13-.77,30.22-1.1Z" transform="translate(-0.16 -0.05)"/><path class="cls-23" d="M977.51,603.57c-9.32,1.18-18.71,2.3-28.06,3.46l-14.07,1.69-14.11,1.65c-4.71.55-9.37,1.14-14,1.72s-9.43,1.08-14.27,1.53-9.73.85-14.68,1.21-9.94.67-15.08.88l-.26-.21c4.39-.8,8.93-1.49,13.5-2.15s9.22-1.26,13.91-1.82,9.46-1.07,14.3-1.51,9.72-.86,14.54-1.32l14.46-1.37L948.15,606c9.7-.87,19.36-1.77,29.1-2.61Z" transform="translate(-0.16 -0.05)"/><path class="cls-23" d="M940.46,580.36c-8.47,1.63-17.05,3.21-25.57,4.82L902,587.55l-12.91,2.35c-4.31.78-8.54,1.6-12.81,2.4s-8.64,1.55-13.15,2.23-9.07,1.33-13.72,1.93-9.39,1.17-14.33,1.64l-.38-.19c3.84-1,7.9-1.93,12-2.81s8.33-1.7,12.61-2.5,8.68-1.53,13.19-2.2,9.06-1.34,13.53-2l13.43-2.09L913,584.21c9-1.34,18-2.72,27.1-4.05Z" transform="translate(-0.16 -0.05)"/><path class="cls-23" d="M890.16,559.37c-7.38,2-14.88,4-22.32,6l-11.24,3-11.32,3c-3.78,1-7.47,2-11.18,3s-7.6,2-11.63,2.86-8.14,1.77-12.37,2.6-8.55,1.63-13.13,2.34l-.49-.17c3.18-1.2,6.63-2.3,10.16-3.37s7.19-2.1,10.93-3.1,7.63-1.95,11.67-2.85,8.13-1.77,12.12-2.68l12-2.74,12-2.71c8.1-1.79,16.12-3.6,24.28-5.36Z" transform="translate(-0.16 -0.05)"/><path class="cls-22" d="M828.12,541.25c-6,2.38-12.26,4.72-18.38,7.08l-9.29,3.51-9.38,3.5c-3.14,1.16-6.16,2.35-9.22,3.53s-6.31,2.32-9.75,3.41-7,2.15-10.63,3.18-7.45,2-11.55,3l-.58-.15c2.42-1.33,5.16-2.59,8-3.83s5.83-2.43,8.92-3.6,6.36-2.31,9.8-3.39,7-2.16,10.33-3.27l10.17-3.3,10.26-3.28c6.91-2.17,13.73-4.36,20.72-6.51Z" transform="translate(-0.16 -0.05)"/><path class="cls-22" d="M756.24,526.54c-4.54,2.65-9.26,5.27-13.89,7.91l-7.06,3.93-7.15,3.92c-2.4,1.3-4.67,2.62-7,3.94s-4.84,2.6-7.57,3.85-5.58,2.47-8.57,3.68-6.13,2.38-9.61,3.5l-.66-.11a47.15,47.15,0,0,1,5.6-4.18q3.12-2,6.64-4c2.33-1.32,4.89-2.59,7.63-3.84s5.56-2.48,8.23-3.73l8-3.77,8.15-3.75c5.51-2.48,10.93-5,16.53-7.46Z" transform="translate(-0.16 -0.05)"/><path class="cls-22" d="M676.69,515.7c-2.89,2.84-6,5.66-9,8.49l-4.61,4.23-4.71,4.22c-1.58,1.41-3,2.82-4.52,4.24a46.66,46.66,0,0,1-5.17,4.17q-2.91,2.06-6.25,4.06a80.69,80.69,0,0,1-7.38,3.93l-.71-.07a20.58,20.58,0,0,1,3-4.4,53.4,53.4,0,0,1,4.15-4.28,47.71,47.71,0,0,1,5.24-4.16c2-1.37,4-2.73,5.88-4.1l5.69-4.12,5.79-4.1c4-2.73,7.8-5.47,11.84-8.18Z" transform="translate(-0.16 -0.05)"/><path class="cls-22" d="M591.9,509.06c-1.16,2.94-2.52,5.87-3.78,8.81l-2,4.4L584,526.66c-.72,1.47-1.3,2.94-1.93,4.41a21.31,21.31,0,0,1-2.6,4.37,46.57,46.57,0,0,1-3.74,4.31,38.16,38.16,0,0,1-4.92,4.25l-.75,0a12.56,12.56,0,0,1,.36-4.48,25.34,25.34,0,0,1,1.54-4.43,21.75,21.75,0,0,1,2.67-4.37c1.14-1.44,2.32-2.88,3.36-4.33l3.15-4.34,3.26-4.33c2.26-2.89,4.42-5.78,6.78-8.66Z" transform="translate(-0.16 -0.05)"/></g><path class="cls-3" d="M515.33,415.13s0,14.7,17.66,16.23c0,0,19.85-.29,22-19.34,0,0-3-17.1,11.79-26.48,0,0,16.8-9.31,28.8,6.58,0,0,4.8,9,1.09,15,0,0-9.6,10.74-1.75,18.16,0,0,15.93,6.19,24.22-10.54,0,0,4.14-10,2.84-16.08,0,0-1.53-12.87,5-13.75,0,0,16.59-3.36,15.71,22.21,0,0,1.53,11.61-17,32.12,0,0-10.25,13.75-.65,27.93,0,0,13.31,10.69,26.62,0,0,0,9.6-16.58,22.47-17.67,0,0,18.76.65,15.27,24.21,0,0-2,8.08,4.8,10.48,0,0,11.35,2,12.22-14.18,0,0,1.09-9.39,0-15.93,0,0-2.4-12.66,12-15.49,0,0,12.66.87,12.66,17.89,0,0-1.31,18.33-28.59,35.56,0,0-18.32,10.27-20.29,22.7a85,85,0,0,0,1.31,8.5s2.51,10.21-10.69,12.22c0,0-10.91,1-8.29,16.77,0,0,5,12.9,18.55,7.23,0,0,15.92-9,28.36,3.22,0,0,12.87,22.31-7,31.25,0,0-14.4,3.71-18.55-11.56,0,0-5.81-11.35-18.5-5.24,0,0-11.82,7.78-2.44,26.36,0,0,3.49,4.95,8.94,6,0,0,15.68,1.65,9.17,21.53,0,0-8.93,21.83-33.27,20.3,0,0-6.14,1.08-13.39-4.14,0,0-14.22-7-22.94,1.74,0,0-5.46,3.06-4.15,13.1,0,0,0,7.11-8.06,8,0,0-4.6,0-6.67,1.46,0,0-6.87,2.93-10.58-2.08a14.39,14.39,0,0,1,5.19-15.3s7.21-17.23-11.32-16.89S509.42,423,509.42,423Z" transform="translate(-0.16 -0.05)"/><path class="cls-4" d="M470.8,380.4a11.55,11.55,0,0,0-4.79-5.55h-.18c-5-3.23-1.5-8.65-1.5-8.65h0c1.25-1.3,3.29-4.27,3-9.81,0,0,1.31-18.19-8.72-14.26,0,0-15.28,2.73-14.84,30.16,0,0,.87,3.42,6.11,8.12,0,0,6.11,3.23,5.45,8.88,0,0-1.52,5.86,5.46,8.26,0,0,4.58.44,6.76-6.33C467.53,391.21,473.42,389,470.8,380.4Z" transform="translate(-0.16 -0.05)"/><path class="cls-5" d="M572.91,338.85a7.55,7.55,0,0,1-5.67,5.45s-7.61.92-7,12.24c0,0,.32,4.78,7.74,3.62,0,0,10.18.14,11.2-13.24,0,0,1.45-6.11-3.2-10.18A3.25,3.25,0,0,0,572.91,338.85Z" transform="translate(-0.16 -0.05)"/><path class="cls-5" d="M519.94,412s-11.23,9.07,0,23.11-11.23,10.26-11.23,10.26l-8.22-21.23,4-9.45,4.25-2.69" transform="translate(-0.16 -0.05)"/><path class="cls-5" d="M665.21,490.38a4.8,4.8,0,0,0-5.57,4.9,6,6,0,0,0,2.78,3.28s3.88.65,4.86-2.84A5,5,0,0,0,665.21,490.38Z" transform="translate(-0.16 -0.05)"/><path class="cls-5" d="M411.46,418.76s-4.22,1.18-3.2,5.4c0,0,.44,3.92,4.8,3.2,0,0,4.16-2,2.8-5.53C415.86,421.83,414.81,418.31,411.46,418.76Z" transform="translate(-0.16 -0.05)"/><path class="cls-3" d="M290.73,399.87s-9.89,2.32-9.89,14.11c0,0,0,10.76,5,15.85a9.2,9.2,0,0,1,1.89,4.36s0,3.64,3.05,3.49c0,0,2.48-1.45,1.75-6.1,0,0-.87-4.51,2.33-6.4,0,0,6.25-5.24,6.25-12.51C301.06,412.67,300.91,401.18,290.73,399.87Z" transform="translate(-0.16 -0.05)"/><path class="cls-3" d="M344.55,344.45s-17.74,1.16-16.58,21.67c0,0,.58,11.78,11.49,22.26,0,0,8.44,7,6.11,13.52,0,0-1.83,4.22-8.63,5.53,0,0-6.93,3.2-3.73,12.07,0,0,2.18,5.38,9.74,4.66a11.89,11.89,0,0,0,7.56-5.38s3.35-5.1,7.71-5.24c0,0,5.68.29,9.17,3.49A12.56,12.56,0,0,0,380,424.16s12.83-1.45,9.63-12.14a32.82,32.82,0,0,0-12.07-8.37s-8.44-3.2-11.06-8.29a21.38,21.38,0,0,0-7.48-8.88s-6.89-1.71,0-16.93C359,369.55,365.64,346.78,344.55,344.45Z" transform="translate(-0.16 -0.05)"/><path class="cls-3" d="M457.61,445.86S471.46,403,461.86,423a29.77,29.77,0,0,1-5,7.43l.75-3A22.06,22.06,0,0,1,454,433.1c-10.24,8.15-23.06,5.53-23.06,5.53-2.94-2.53-11.21-8.55-17.73-2.91,0,0-10.7,10.26-16.15.22,0,0-7.7-8.29-17.05-5.24,0,0-9.57,1.57-8.48,12a2.52,2.52,0,0,0,2.62,3.14s4.73-2.28,5.86,1c0,0,.47,4.52-5.86,3.9,0,0-9.16-2.81-12.65,6.57,0,0-2.4,5.89,2.18,10,0,0,7,10.69-2.81,17.45a10.91,10.91,0,0,1-6.57-1.09s-6.81-.6-8.95,0c0,0-5.8-.47-7.16-7.21a15.62,15.62,0,0,0-10.29-9.81s-8.51.82-5.24-15.95c0,0,.44-17.87-17.67-15.25,0,0-10,2.18-7.86,17.89,0,0,2,8.29,12.66,13.31,0,0,9.38,2.18,8.29,11.57,0,0,.22,3.05-2.84,8.94,0,0-4.58,7.2,1.53,12.22a8.34,8.34,0,0,0,8.94,0,6.08,6.08,0,0,1,7.42,2.4s6.56,11.35-1.3,26.18c0,0-7.64,10.7-20.08,11.57,0,0-17,4.06-22.25,26.47,0,0-.22,7.05-1.53,10.14,0,0-6.4,15.73,9.24,24a10.93,10.93,0,0,1,6.69,5.67,19.67,19.67,0,0,0,21.38,9.18s8.73-3.29,10.25-9.61c1.3-5.38-6-10.74-8.3-12.24a1,1,0,0,0-.64-.41c-3-.91-7.37,0-7.37,0-9,.46-10.49-7.76-10.71-9.56.23-2.8,1.81-11.27,12.75-14,0,0,2.38,1.7,6.47-2.75,0,0,4.31-2.66,5.84,4.85,0,0-1.53,4.23,4.36,9A14,14,0,0,1,346.32,592s.12,6.41-4.46,17.49c0,0-7.64,11.29-2,22a12.11,12.11,0,0,0,12,4.86,8.78,8.78,0,0,1,9.15,1c.36.35,1.29,1.64,2.35,6,.73,5.72,4.09,16.65,18.82,22.12,0,0,18.55,5.5,24.22-5.88,0,0,3.93-4.28-1.53-8.38,0,0-11.67-6.19,1.42-14,6.18-3.7,4.12-5.17.22-5.69L452.7,447.08Z" transform="translate(-0.16 -0.05)"/><path class="cls-5" d="M547.82,365s-15.27-7-19.42,14.18c0,0-2.61,13.31-10,21.17,0,0-3,2.6-5.28,1.63h0c-2.33-1.3-2.15-4.25-1.83-5.89.1-.34.2-.73.29-1.15h0c.4-2,.33-4.66-2.34-5.69,0,0-8.13-.59-9.19,5.69,0,0-1.16,13.76-15.91,12.64,0,0-3.92-2.43-4.14-4.62,0,0-6.29-6.32-14.49-.43,0,0-10.82,5.67-10.82,30.11,0,0,.76,20.94-16.09,22.69,0,0-10.31,1.52-13.36-2.4a5.92,5.92,0,0,0-5-2.62c-12.88,6.76-5.46-6.18-5.46-6.18s4.58-5.17,0-10.18c0,0-9.66-4.62-16.14,6.54,0,0-5.68,10,0,16.58a15.92,15.92,0,0,0,4.36,2.4s2.84,1.31,1.53,6.11c0,0-2,4.58-8.41,4.58,0,0-4.68.66-4.25,5.24,0,0-.58,3.05,2.66,6.11,0,0,5.63,3.71,3.45,8.51,0,0-4.58,6.33-11.56,3.49,0,0-8.07-5.3-15.06.73,0,0-4.36,2.76-4.8,11.05,0,0,1.53,2.74-2.61,7,0,0-7.84,5.58-4.59,17.75,0,0,5.68,8.42,5.68,13,0,0,.6,6.42-6.47,6.47,0,0-9.57-1.26-11.7,11.62,0,0-4.09,14.83,11.19,18.32,0,0,4.79.44,7-7.2,0,0,2.91-3.49,6.15-3.49a4.4,4.4,0,0,1,3,4.15s.07,5.39,6.55,6.55c0,0,7.12-.65,8.47,5.23,0,0,1.56,6.64-6.51,11.17,0,0-9.65,8.64-5,24a36.51,36.51,0,0,0,32.73,19.74s12.6-2.59,18,7.23c0,0,1.49,15.15,11.67,17.67,0,0,21.84,6.55,38.32-15.71L493.4,456l2-17.48,15.78.46s-12-9.81,0-21.81c0,0,12.22-4.8,14.4-12.88,0,0-2-10.11,8.73-12.18,0,0,17.89.16,18.54-11.72C552.84,380.4,554.37,368.74,547.82,365Z" transform="translate(-0.16 -0.05)"/><path class="cls-5" d="M535.28,445.86s.37,23.51,18.49,17.92c0,0,38.49-26.24,59.44-1.8a38.94,38.94,0,0,1-4.37,29.67s-6.4,14.09,1.17,20.71c0,0,15.87,10.31,25.82,2.22,0,0,3.85-11.88,10.1-12.46,0,0,10-2,11.2,8.15,0,0,2.23,16.4-16,19.84,0,0-13.67,1.13-17.14,17,0,0-2.88,14.27,9.63,19.42,0,0,14.25,6.35,9.89,20,0,0-3.2,11.86-17.75,11.88,0,0-15.36,3.59-17.43,18,0,0-.31,12.61-8.46,17.56,0,0-11.52,6-21.91,3.3,0,0-25.8-.68-36.27,19.1L500,541.76l27.37-94.62Z" transform="translate(-0.16 -0.05)"/><path class="cls-4" d="M473.34,447.78s-29.15,10.51-30.46,31.93c0,0,2.78,10.45-2.92,15.3a10.52,10.52,0,0,1-12.37,2.19s-17.26-7.43-26.95,11.36c0,0-13.87,17.93,0,36.29A14.55,14.55,0,0,0,411,549.59s16.24-1.49,18.59,9.78c0,0,.18,7.43-11.6,12.29,0,0-8.3,5.59-4.59,15.19a19.39,19.39,0,0,0,14.17,9.42s13.27,9.39,6.64,23.14c0,0-9.64,8.63-2,21.69,0,0,7.15,18.23,38.37,13.46,0,0,27.27-13.07,39.5,9,0,0,2.27,11.33,12.49,12.33,0,0,12.45,0,15.91-12.19,0,0,1.08-2.47,5.21-6.2,0,0,14.51-3.82,8.13-16.4,0,0-3.12-3.32-1.7-7.45,0,0,.84-5.58-3.09-8.21a22,22,0,0,0-4.8-1.89s-2.91-.61-1.89-7.62c0,0,2.77-13,14.84-10,0,0,6.4,1.89,9.74,5.39,0,0,12.14,5.68,20.4-4.37,0,0,7.68-12.25-1.2-18.37a60,60,0,0,0-7.12-3.2s-9.31-1.31-11.49-14.87c0,0-1.27-9.62-2.75-13.84,0,0-4.67-10.64,2.6-20a17.89,17.89,0,0,1,13.38-6.35s8.15,2.71,12.08-3.34c0,0,1.14-2.35,0-4.15,0,0-3.53-2.77-1.11-5.76a6,6,0,0,0,2.6-5.76,13.09,13.09,0,0,0-3.68-4.37s-2-1.75-2-3.64c0,0-2.54-5.69-11.67-1.75,0,0-3.61,3.21-8.41,0,0,0-3.78-2.92-1.3-8.74a19,19,0,0,0-.15-7.29s-1.89-7,8.29-10.35c0,0,10.76,1.31,14.26-8,0,0,3.58-12.66-4.9-17,0,0-7.76-7-19.83-.31,0,0-4.8,3.06-8.73,12.54,0,0-1.89,9.47-8.44,9.76,0,0-6.4-.58-5.67-6.7,0,0,1.17-2.33-1.6-5.4,0,0-3.93.15-2.76-10.63,0,0,1.31-7.44-3.49-12.25,0,0-9.48-9.46-20.74-3.63,0,0-14.9,8.81-19.7-12.62,0,0-4.8-11.58-14.18-10.71,0,0-7.64,4.16-5.46,14a33.88,33.88,0,0,0,8.73,8.09S491.37,440.76,473.34,447.78Z" transform="translate(-0.16 -0.05)"/><path class="cls-3" d="M645.93,379.07s-3.34,1.16-1.89,6c0,0,1.31,2.33,4.66,1.45,0,0,5.09-2,4.36-5.23C653.06,381.25,651.46,378.19,645.93,379.07Z" transform="translate(-0.16 -0.05)"/><path class="cls-3" d="M741.62,562.83s-6.09,1.28-4.49,11.16c0,0,.88,3.91,4.73,3.91,0,0,9.24-.72,9.09-10.62A8.52,8.52,0,0,0,741.62,562.83Z" transform="translate(-0.16 -0.05)"/><path class="cls-6" d="M416.62,554.6s-4.29,5.6-7.78,8c0,0-1.53,2.68,2.4,1.47,0,0,7.3,1,8.45-5.68C419.69,558.44,421.12,551.31,416.62,554.6Z" transform="translate(-0.16 -0.05)"/><path class="cls-6" d="M576.19,549.56s-6.71,7.15-3.46,13.09c0,0,5.7,1.31,5.89-8C578.62,554.6,579.46,548.2,576.19,549.56Z" transform="translate(-0.16 -0.05)"/><path class="cls-6" d="M492.38,584.06s-3.23,2.17-5.9.43c0,0-4.8-4.88-6.32.94,0,0-1.09,6.42,3.16,7,0,0,.85.19,3.42-1.69a4.44,4.44,0,0,1,2.9-1.58A1.39,1.39,0,0,1,491,590s1.39,1.8,3.18-.22A4.7,4.7,0,0,0,492.38,584.06Z" transform="translate(-0.16 -0.05)"/><path class="cls-25" d="M718.44,438.56c-14.4,2.83-12,15.49-12,15.49,1.09,6.54,0,15.93,0,15.93-.87,16.14-12.22,14.18-12.22,14.18-6.76-2.4-4.8-10.48-4.8-10.48,3.49-23.56-15.27-24.21-15.27-24.21-12.87,1.09-22.47,17.67-22.47,17.67-13.31,10.69-26.62,0-26.62,0-9.6-14.18.65-27.93.65-27.93,18.55-20.51,17-32.12,17-32.12.88-25.57-15.71-22.21-15.71-22.21-6.54.88-5,13.75-5,13.75,1.3,6.11-2.84,16.08-2.84,16.08C610.88,431.44,595,425.25,595,425.25c-7.85-7.42,1.75-18.16,1.75-18.16,3.71-5.93-1.09-15-1.09-15-12-15.89-28.81-6.58-28.81-6.58C552,394.92,555,412,555,412c-2.18,19.05-22,19.34-22,19.34-12.52-1.08-16.16-8.77-17.22-13.17a15,15,0,0,1,4.17-6.17c2.51-2,4.8-4.64,5.63-7.72,0,0-2-10.11,8.73-12.18,0,0,17.89.16,18.54-11.72,0,0,1.53-11.66-5-15.37,0,0-15.27-7-19.41,14.18,0,0-2.62,13.31-10,21.17,0,0-3,2.6-5.28,1.63h0c-2.33-1.3-2.15-4.25-1.83-5.89.1-.34.2-.73.29-1.15h0c.4-2,.33-4.66-2.34-5.69,0,0-8.13-.59-9.19,5.69,0,0-1.16,13.76-15.91,12.64,0,0-3.92-2.43-4.14-4.62,0,0-6.29-6.32-14.49-.43,0,0-10.7,5.62-10.82,29.72l-.66.82c-10.24,8.15-23.06,5.53-23.06,5.53-2.66-2.29-9.7-7.44-15.85-4.21a4.94,4.94,0,0,0-.36-.44s-8.73-4.17-15.16,5a9.45,9.45,0,0,1-2.51-3.06s-7.7-8.29-17.05-5.24c0,0-9.57,1.57-8.48,12a2.52,2.52,0,0,0,2.62,3.14s4.73-2.28,5.86,1c0,0,.47,4.52-5.86,3.9,0,0-9.16-2.81-12.65,6.57,0,0-2.4,5.89,2.18,10,0,0,7,10.69-2.81,17.45a10.91,10.91,0,0,1-6.57-1.09s-6.81-.6-8.95,0c0,0-5.8-.47-7.16-7.21a15.62,15.62,0,0,0-10.29-9.81s-8.51.82-5.24-15.95c0,0,.44-17.87-17.67-15.25,0,0-10,2.18-7.86,17.89,0,0,2,8.29,12.66,13.31,0,0,9.38,2.18,8.29,11.57,0,0,.22,3.05-2.84,8.94,0,0-4.58,7.2,1.53,12.22a8.34,8.34,0,0,0,8.94,0,6.08,6.08,0,0,1,7.42,2.4s6.56,11.35-1.3,26.18c0,0-7.64,10.7-20.08,11.57,0,0-17,4.06-22.25,26.47,0,0-.22,7.05-1.53,10.14,0,0-6.4,15.73,9.24,24a10.93,10.93,0,0,1,6.69,5.67,19.67,19.67,0,0,0,21.38,9.18s8.73-3.29,10.25-9.61c1.3-5.38-6-10.74-8.3-12.24a1,1,0,0,0-.64-.41c-3-.91-7.37,0-7.37,0-9,.46-10.49-7.76-10.71-9.56.23-2.8,1.81-11.27,12.75-14,0,0,2.38,1.7,6.47-2.75,0,0,4.31-2.66,5.84,4.85,0,0-1.53,4.23,4.36,9A14,14,0,0,1,346.32,592s.12,6.41-4.46,17.49c0,0-7.64,11.29-2,22a12.11,12.11,0,0,0,12,4.86,8.78,8.78,0,0,1,9.15,1c.36.35,1.29,1.64,2.35,6,.73,5.72,4.09,16.65,18.82,22.12,0,0,18.55,5.5,24.22-5.88,0,0,3.93-4.28-1.53-8.38,0,0-9.84-5.23-1.28-12.16a41.75,41.75,0,0,0,6.74.62s12.6-2.59,18,7.23c0,0,1.49,15.15,11.67,17.67,0,0,19.11,5.72,35.06-11.75,8.27-2.63,25.85-5.8,35,10.72,0,0,2.27,11.33,12.48,12.33,0,0,12.46,0,15.92-12.19,0,0,1.08-2.47,5.21-6.2,0,0,12.12-3.2,9.32-13.37,11.43-7.28,24.91-6.93,24.91-6.93a23,23,0,0,0,6,.7c10.72,3.19,5.29,16.19,5.29,16.19a14.39,14.39,0,0,0-5.19,15.3c3.71,5,10.58,2.08,10.58,2.08,2.07-1.42,6.67-1.46,6.67-1.46,8.09-.92,8.06-8,8.06-8-1.31-10,4.15-13.1,4.15-13.1,8.72-8.72,22.94-1.74,22.94-1.74,7.25,5.22,13.39,4.14,13.39,4.14,24.34,1.53,33.27-20.3,33.27-20.3,6.51-19.88-9.17-21.53-9.17-21.53-5.45-1-8.94-6-8.94-6-9.38-18.58,2.44-26.36,2.44-26.36,12.69-6.11,18.5,5.24,18.5,5.24,4.15,15.27,18.55,11.56,18.55,11.56,19.85-8.94,7-31.25,7-31.25-12.44-12.27-28.36-3.22-28.36-3.22-13.53,5.67-18.55-7.23-18.55-7.23-2.62-15.73,8.29-16.77,8.29-16.77,13.2-2,10.69-12.22,10.69-12.22a85,85,0,0,1-1.31-8.5c2-12.43,20.29-22.7,20.29-22.7,27.28-17.23,28.59-35.56,28.59-35.56C731.1,439.43,718.44,438.56,718.44,438.56Z" transform="translate(-0.16 -0.05)"/><path class="cls-26" d="M449.86,380.4s6.11,3.23,5.45,8.88c0,0-1.52,5.86,5.46,8.26,0,0,4.58.44,6.76-6.33,0,0,5.89-2.2,3.27-10.81a11.55,11.55,0,0,0-4.79-5.55h-.18c-5-3.23-1.5-8.65-1.5-8.65,1.25-1.3,3.29-4.27,3-9.81,0,0,1.31-18.19-8.72-14.26,0,0-15.28,2.73-14.84,30.16C443.75,372.28,444.62,375.7,449.86,380.4Z" transform="translate(-0.16 -0.05)"/><path class="cls-27" d="M568,360.16s10.18.14,11.2-13.24c0,0,1.45-6.11-3.2-10.18a3.25,3.25,0,0,0-3.06,2.11,7.55,7.55,0,0,1-5.67,5.45s-7.61.92-7,12.24C560.23,356.54,560.55,361.32,568,360.16Z" transform="translate(-0.16 -0.05)"/><path class="cls-28" d="M413.06,427.36s4.16-2,2.8-5.53c0,0-1.06-3.52-4.4-3.07,0,0-4.22,1.18-3.2,5.4C408.26,424.16,408.7,428.08,413.06,427.36Z" transform="translate(-0.16 -0.05)"/><path class="cls-29" d="M290.73,437.68s2.47-1.45,1.75-6.1c0,0-.87-4.51,2.32-6.4,0,0,6.26-5.24,6.26-12.51,0,0-.15-11.49-10.33-12.8,0,0-9.89,2.32-9.89,14.11,0,0,0,10.76,5,15.85a9.2,9.2,0,0,1,1.89,4.36S287.68,437.83,290.73,437.68Z" transform="translate(-0.16 -0.05)"/><path class="cls-30" d="M339.46,388.38s8.44,7,6.11,13.52c0,0-1.83,4.22-8.63,5.53,0,0-6.93,3.2-3.74,12.07,0,0,2.19,5.38,9.75,4.66a11.89,11.89,0,0,0,7.56-5.38s3.35-5.1,7.71-5.24c0,0,5.68.29,9.17,3.49A12.56,12.56,0,0,0,380,424.16s12.83-1.45,9.63-12.14a32.82,32.82,0,0,0-12.07-8.37s-8.44-3.2-11.06-8.29a21.38,21.38,0,0,0-7.48-8.88s-6.89-1.71,0-16.93c0,0,6.61-22.77-14.48-25.1,0,0-17.75,1.16-16.58,21.67C328,366.12,328.55,377.9,339.46,388.38Z" transform="translate(-0.16 -0.05)"/><path class="cls-31" d="M648.7,386.48s5.09-2,4.36-5.23c0,0-1.6-3.06-7.13-2.18,0,0-3.34,1.16-1.89,6C644,385,645.35,387.36,648.7,386.48Z" transform="translate(-0.16 -0.05)"/><path class="cls-32" d="M741.62,562.83s-6.09,1.28-4.49,11.16c0,0,.88,3.91,4.73,3.91,0,0,9.24-.72,9.09-10.62A8.52,8.52,0,0,0,741.62,562.83Z" transform="translate(-0.16 -0.05)"/><g class="cls-33"><path class="cls-34" d="M718.44,438.56c-14.4,2.83-12,15.49-12,15.49,1.09,6.54,0,15.93,0,15.93-.87,16.14-12.22,14.18-12.22,14.18-6.76-2.4-4.8-10.48-4.8-10.48,3.49-23.56-15.27-24.21-15.27-24.21-12.87,1.09-22.47,17.67-22.47,17.67-13.31,10.69-26.62,0-26.62,0-9.6-14.18.65-27.93.65-27.93,18.55-20.51,17-32.12,17-32.12.88-25.57-15.71-22.21-15.71-22.21-6.54.88-5,13.75-5,13.75,1.3,6.11-2.84,16.08-2.84,16.08C610.88,431.44,595,425.25,595,425.25c-7.85-7.42,1.75-18.16,1.75-18.16,3.71-5.93-1.09-15-1.09-15-12-15.89-28.81-6.58-28.81-6.58C552,394.92,555,412,555,412c-2.18,19.05-22,19.34-22,19.34-12.52-1.08-16.16-8.77-17.22-13.17a15,15,0,0,1,4.17-6.17c2.51-2,4.8-4.64,5.63-7.72,0,0-2-10.11,8.73-12.18,0,0,17.89.16,18.54-11.72,0,0,1.53-11.66-5-15.37,0,0-15.27-7-19.41,14.18,0,0-2.62,13.31-10,21.17,0,0-3,2.6-5.28,1.63h0c-2.33-1.3-2.15-4.25-1.83-5.89.1-.34.2-.73.29-1.15h0c.4-2,.33-4.66-2.34-5.69,0,0-8.13-.59-9.19,5.69,0,0-1.16,13.76-15.91,12.64,0,0-3.92-2.43-4.14-4.62,0,0-6.29-6.32-14.49-.43,0,0-10.7,5.62-10.82,29.72l-.66.82c-10.24,8.15-23.06,5.53-23.06,5.53-2.66-2.29-9.7-7.44-15.85-4.21a4.94,4.94,0,0,0-.36-.44s-8.73-4.17-15.16,5a9.45,9.45,0,0,1-2.51-3.06s-7.7-8.29-17.05-5.24c0,0-9.57,1.57-8.48,12a2.52,2.52,0,0,0,2.62,3.14s4.73-2.28,5.86,1c0,0,.47,4.52-5.86,3.9,0,0-9.16-2.81-12.65,6.57,0,0-2.4,5.89,2.18,10,0,0,7,10.69-2.81,17.45a10.91,10.91,0,0,1-6.57-1.09s-6.81-.6-8.95,0c0,0-5.8-.47-7.16-7.21a15.62,15.62,0,0,0-10.29-9.81s-8.51.82-5.24-15.95c0,0,.44-17.87-17.67-15.25,0,0-10,2.18-7.86,17.89,0,0,2,8.29,12.66,13.31,0,0,9.38,2.18,8.29,11.57,0,0,.22,3.05-2.84,8.94,0,0-4.58,7.2,1.53,12.22a8.34,8.34,0,0,0,8.94,0,6.08,6.08,0,0,1,7.42,2.4s6.56,11.35-1.3,26.18c0,0-7.64,10.7-20.08,11.57,0,0-17,4.06-22.25,26.47,0,0-.22,7.05-1.53,10.14,0,0-6.4,15.73,9.24,24a10.93,10.93,0,0,1,6.69,5.67,19.67,19.67,0,0,0,21.38,9.18s8.73-3.29,10.25-9.61c1.3-5.38-6-10.74-8.3-12.24a1,1,0,0,0-.64-.41c-3-.91-7.37,0-7.37,0-9,.46-10.49-7.76-10.71-9.56.23-2.8,1.81-11.27,12.75-14,0,0,2.38,1.7,6.47-2.75,0,0,4.31-2.66,5.84,4.85,0,0-1.53,4.23,4.36,9A14,14,0,0,1,346.32,592s.12,6.41-4.46,17.49c0,0-7.64,11.29-2,22a12.11,12.11,0,0,0,12,4.86,8.78,8.78,0,0,1,9.15,1c.36.35,1.29,1.64,2.35,6,.73,5.72,4.09,16.65,18.82,22.12,0,0,18.55,5.5,24.22-5.88,0,0,3.93-4.28-1.53-8.38,0,0-9.84-5.23-1.28-12.16a41.75,41.75,0,0,0,6.74.62s12.6-2.59,18,7.23c0,0,1.49,15.15,11.67,17.67,0,0,19.11,5.72,35.06-11.75,8.27-2.63,25.85-5.8,35,10.72,0,0,2.27,11.33,12.48,12.33,0,0,12.46,0,15.92-12.19,0,0,1.08-2.47,5.21-6.2,0,0,12.12-3.2,9.32-13.37,11.43-7.28,24.91-6.93,24.91-6.93a23,23,0,0,0,6,.7c10.72,3.19,5.29,16.19,5.29,16.19a14.39,14.39,0,0,0-5.19,15.3c3.71,5,10.58,2.08,10.58,2.08,2.07-1.42,6.67-1.46,6.67-1.46,8.09-.92,8.06-8,8.06-8-1.31-10,4.15-13.1,4.15-13.1,8.72-8.72,22.94-1.74,22.94-1.74,7.25,5.22,13.39,4.14,13.39,4.14,24.34,1.53,33.27-20.3,33.27-20.3,6.51-19.88-9.17-21.53-9.17-21.53-5.45-1-8.94-6-8.94-6-9.38-18.58,2.44-26.36,2.44-26.36,12.69-6.11,18.5,5.24,18.5,5.24,4.15,15.27,18.55,11.56,18.55,11.56,19.85-8.94,7-31.25,7-31.25-12.44-12.27-28.36-3.22-28.36-3.22-13.53,5.67-18.55-7.23-18.55-7.23-2.62-15.73,8.29-16.77,8.29-16.77,13.2-2,10.69-12.22,10.69-12.22a85,85,0,0,1-1.31-8.5c2-12.43,20.29-22.7,20.29-22.7,27.28-17.23,28.59-35.56,28.59-35.56C731.1,439.43,718.44,438.56,718.44,438.56Z" transform="translate(-0.16 -0.05)"/><path class="cls-35" d="M449.86,380.4s6.11,3.23,5.45,8.88c0,0-1.52,5.86,5.46,8.26,0,0,4.58.44,6.76-6.33,0,0,5.89-2.2,3.27-10.81a11.55,11.55,0,0,0-4.79-5.55h-.18c-5-3.23-1.5-8.65-1.5-8.65,1.25-1.3,3.29-4.27,3-9.81,0,0,1.31-18.19-8.72-14.26,0,0-15.28,2.73-14.84,30.16C443.75,372.28,444.62,375.7,449.86,380.4Z" transform="translate(-0.16 -0.05)"/><path class="cls-36" d="M568,360.16s10.18.14,11.2-13.24c0,0,1.45-6.11-3.2-10.18a3.25,3.25,0,0,0-3.06,2.11,7.55,7.55,0,0,1-5.67,5.45s-7.61.92-7,12.24C560.23,356.54,560.55,361.32,568,360.16Z" transform="translate(-0.16 -0.05)"/><path class="cls-37" d="M413.06,427.36s4.16-2,2.8-5.53c0,0-1.06-3.52-4.4-3.07,0,0-4.22,1.18-3.2,5.4C408.26,424.16,408.7,428.08,413.06,427.36Z" transform="translate(-0.16 -0.05)"/><path class="cls-38" d="M290.73,437.68s2.47-1.45,1.75-6.1c0,0-.87-4.51,2.32-6.4,0,0,6.26-5.24,6.26-12.51,0,0-.15-11.49-10.33-12.8,0,0-9.89,2.32-9.89,14.11,0,0,0,10.76,5,15.85a9.2,9.2,0,0,1,1.89,4.36S287.68,437.83,290.73,437.68Z" transform="translate(-0.16 -0.05)"/><path class="cls-39" d="M339.46,388.38s8.44,7,6.11,13.52c0,0-1.83,4.22-8.63,5.53,0,0-6.93,3.2-3.74,12.07,0,0,2.19,5.38,9.75,4.66a11.89,11.89,0,0,0,7.56-5.38s3.35-5.1,7.71-5.24c0,0,5.68.29,9.17,3.49A12.56,12.56,0,0,0,380,424.16s12.83-1.45,9.63-12.14a32.82,32.82,0,0,0-12.07-8.37s-8.44-3.2-11.06-8.29a21.38,21.38,0,0,0-7.48-8.88s-6.89-1.71,0-16.93c0,0,6.61-22.77-14.48-25.1,0,0-17.75,1.16-16.58,21.67C328,366.12,328.55,377.9,339.46,388.38Z" transform="translate(-0.16 -0.05)"/><path class="cls-40" d="M648.7,386.48s5.09-2,4.36-5.23c0,0-1.6-3.06-7.13-2.18,0,0-3.34,1.16-1.89,6C644,385,645.35,387.36,648.7,386.48Z" transform="translate(-0.16 -0.05)"/><path class="cls-41" d="M741.62,562.83s-6.09,1.28-4.49,11.16c0,0,.88,3.91,4.73,3.91,0,0,9.24-.72,9.09-10.62A8.52,8.52,0,0,0,741.62,562.83Z" transform="translate(-0.16 -0.05)"/></g></g></g></svg>