<svg xmlns="http://www.w3.org/2000/svg" xmlns:xlink="http://www.w3.org/1999/xlink" viewBox="0 0 1027 1172"><defs><style>.cls-1{isolation:isolate;}.cls-2{opacity:0.3;}.cls-3{fill:url(#linear-gradient);}.cls-4{fill:#d66d34;}.cls-5{fill:#e27b39;}.cls-6{fill:#ec8c3a;}.cls-7{fill:#593e36;}.cls-8{fill:#7f4b41;}.cls-9{mix-blend-mode:overlay;}.cls-10{fill:url(#linear-gradient-2);}.cls-11{fill:url(#linear-gradient-3);}.cls-12{fill:url(#linear-gradient-4);}.cls-13{fill:url(#linear-gradient-5);}.cls-14{fill:url(#linear-gradient-6);}.cls-15{fill:url(#linear-gradient-7);}.cls-16{fill:url(#linear-gradient-8);}.cls-17{fill:url(#linear-gradient-9);}.cls-18{fill:url(#linear-gradient-10);}.cls-19{fill:url(#linear-gradient-11);}.cls-20{fill:url(#linear-gradient-12);}.cls-21{fill:url(#linear-gradient-13);}.cls-22{fill:url(#linear-gradient-14);}.cls-23{fill:url(#linear-gradient-15);}.cls-24{fill:url(#linear-gradient-16);}.cls-25{fill:url(#linear-gradient-17);}.cls-26{fill:url(#linear-gradient-18);}.cls-27{opacity:0.7;}.cls-28{fill:url(#linear-gradient-19);}.cls-29{fill:url(#linear-gradient-20);}.cls-30{fill:url(#linear-gradient-21);}.cls-31{opacity:0.6;}.cls-32{fill:#b78f6a;}.cls-33{fill:#d5b392;}.cls-34{fill:#f6d7b3;}.cls-35{fill:url(#linear-gradient-23);}.cls-36{fill:url(#linear-gradient-24);}.cls-37{fill:url(#linear-gradient-25);}.cls-38{fill:url(#linear-gradient-26);}.cls-39{fill:url(#linear-gradient-27);}.cls-40{fill:url(#linear-gradient-28);}.cls-41{fill:url(#linear-gradient-29);}.cls-42{fill:url(#linear-gradient-30);}.cls-43{fill:url(#linear-gradient-31);}.cls-44{fill:url(#linear-gradient-32);}.cls-45{fill:url(#linear-gradient-33);}</style><linearGradient id="linear-gradient" x1="494.49" y1="1563.86" x2="494.49" y2="1563.86" gradientTransform="matrix(1, 0, 0, -1, 0, 2471.52)" gradientUnits="userSpaceOnUse"><stop offset="0" stop-color="#332f2f" stop-opacity="0"/><stop offset="1" stop-color="#2f2f3f" stop-opacity="0.6"/></linearGradient><linearGradient id="linear-gradient-2" x1="558.64" y1="1562.99" x2="552.35" y2="1787.38" gradientTransform="matrix(1, 0, 0, -1, 0, 2471.52)" gradientUnits="userSpaceOnUse"><stop offset="0" stop-color="#455b6b" stop-opacity="0"/><stop offset="1" stop-color="#455b6b"/></linearGradient><linearGradient id="linear-gradient-3" x1="506.86" y1="1561.54" x2="500.57" y2="1785.93" xlink:href="#linear-gradient-2"/><linearGradient id="linear-gradient-4" x1="322.27" y1="1556.37" x2="315.98" y2="1780.75" gradientTransform="matrix(1, 0, 0, -1, -0.16, 2471.47)" xlink:href="#linear-gradient-2"/><linearGradient id="linear-gradient-5" x1="499.38" y1="1561.33" x2="493.09" y2="1785.72" xlink:href="#linear-gradient-2"/><linearGradient id="linear-gradient-6" x1="653.01" y1="1565.64" x2="646.72" y2="1790.03" xlink:href="#linear-gradient-2"/><linearGradient id="linear-gradient-7" x1="309.33" y1="1498.82" x2="1301.25" y2="1536.57" xlink:href="#linear-gradient"/><linearGradient id="linear-gradient-8" x1="303.19" y1="1660.17" x2="1295.11" y2="1697.92" xlink:href="#linear-gradient"/><linearGradient id="linear-gradient-9" x1="305.66" y1="1595.25" x2="1297.58" y2="1633" gradientTransform="matrix(1, 0, 0, -1, -0.16, 2471.47)" xlink:href="#linear-gradient"/><linearGradient id="linear-gradient-10" x1="308.15" y1="1529.92" x2="1300.07" y2="1567.67" xlink:href="#linear-gradient"/><linearGradient id="linear-gradient-11" x1="307.2" y1="1554.87" x2="1299.12" y2="1592.62" xlink:href="#linear-gradient"/><linearGradient id="linear-gradient-12" x1="500.05" y1="660.57" x2="500.05" y2="889.85" gradientUnits="userSpaceOnUse"><stop offset="0" stop-color="#332f2f" stop-opacity="0"/><stop offset="1" stop-color="#2f2f3f"/></linearGradient><linearGradient id="linear-gradient-13" x1="560.14" y1="660.57" x2="560.14" y2="889.85" xlink:href="#linear-gradient-12"/><linearGradient id="linear-gradient-14" x1="503.98" y1="660.57" x2="503.98" y2="889.85" xlink:href="#linear-gradient-12"/><linearGradient id="linear-gradient-15" x1="321.16" y1="660.57" x2="321.16" y2="889.85" xlink:href="#linear-gradient-12"/><linearGradient id="linear-gradient-16" x1="652.97" y1="660.57" x2="652.97" y2="889.85" xlink:href="#linear-gradient-12"/><linearGradient id="linear-gradient-17" x1="-5190.08" y1="2926.05" x2="-5043.31" y2="3017.95" gradientTransform="matrix(1, 0, 0, 0, -0.16, 0)" xlink:href="#linear-gradient"/><linearGradient id="linear-gradient-18" x1="-4986.58" y1="4436.3" x2="-4839.81" y2="4528.2" gradientTransform="matrix(1, 0, 0, 0, -0.16, 0)" xlink:href="#linear-gradient"/><linearGradient id="linear-gradient-19" x1="507.25" y1="581.51" x2="498.53" y2="778.75" gradientUnits="userSpaceOnUse"><stop offset="0" stop-color="#916c3f"/><stop offset="1" stop-color="#f2d3af"/></linearGradient><linearGradient id="linear-gradient-20" x1="507.25" y1="581.51" x2="498.53" y2="778.75" xlink:href="#linear-gradient-19"/><linearGradient id="linear-gradient-21" x1="507.26" y1="581.51" x2="498.53" y2="778.75" xlink:href="#linear-gradient-19"/><linearGradient id="linear-gradient-23" x1="494.19" y1="419.21" x2="494.19" y2="419.21" gradientTransform="matrix(1, 0, 0, 1, 0, 0)" xlink:href="#linear-gradient"/><linearGradient id="linear-gradient-24" x1="558.34" y1="418.35" x2="552.05" y2="642.73" gradientTransform="matrix(1, 0, 0, 1, 0, 0)" xlink:href="#linear-gradient-2"/><linearGradient id="linear-gradient-25" x1="506.55" y1="416.89" x2="500.26" y2="641.28" gradientTransform="matrix(1, 0, 0, 1, 0, 0)" xlink:href="#linear-gradient-2"/><linearGradient id="linear-gradient-26" x1="321.81" y1="411.67" x2="315.52" y2="636.06" gradientTransform="matrix(1, 0, 0, 1, 0, 0)" xlink:href="#linear-gradient-2"/><linearGradient id="linear-gradient-27" x1="499.08" y1="416.68" x2="492.78" y2="641.07" gradientTransform="matrix(1, 0, 0, 1, 0, 0)" xlink:href="#linear-gradient-2"/><linearGradient id="linear-gradient-28" x1="652.7" y1="420.99" x2="646.41" y2="645.38" gradientTransform="matrix(1, 0, 0, 1, 0, 0)" xlink:href="#linear-gradient-2"/><linearGradient id="linear-gradient-29" x1="309.02" y1="354.18" x2="1300.95" y2="391.93" gradientTransform="matrix(1, 0, 0, 1, 0, 0)" xlink:href="#linear-gradient"/><linearGradient id="linear-gradient-30" x1="302.88" y1="515.52" x2="1294.81" y2="553.27" gradientTransform="matrix(1, 0, 0, 1, 0, 0)" xlink:href="#linear-gradient"/><linearGradient id="linear-gradient-31" x1="305.2" y1="450.56" x2="1297.12" y2="488.31" gradientTransform="matrix(1, 0, 0, 1, 0, 0)" xlink:href="#linear-gradient"/><linearGradient id="linear-gradient-32" x1="307.84" y1="385.28" x2="1299.76" y2="423.03" gradientTransform="matrix(1, 0, 0, 1, 0, 0)" xlink:href="#linear-gradient"/><linearGradient id="linear-gradient-33" x1="306.89" y1="410.23" x2="1298.81" y2="447.97" gradientTransform="matrix(1, 0, 0, 1, 0, 0)" xlink:href="#linear-gradient"/></defs><g class="cls-1"><g id="Layer_1" data-name="Layer 1"><g class="cls-2"><path class="cls-3" d="M494.49,907.66" transform="translate(-0.16 -0.05)"/><path class="cls-4" d="M475.07,887.28s-11.34-10.33-16.29,0a15.45,15.45,0,0,0,0,6.11s1.31,3.49-3.78,5.82c0,0-16.29,4.51-22.55-10.76,0,0-1.16-7.28-10-8.3,0,0-12.8-2.9-19.64,12.22l-2.91,5.68s-6.1,19.2-25.81,16c0,0-8.81-5.68-2.7-16.15,0,0,3.93-7.71,12.51-10.18,0,0,9.6.58,9.31-9.6,0,0-1.45-9.6-11.78-9.6,0,0-7.42-1.75-9.89-8.29,0,0-2.33-5.53-.44-9.17,0,0,2.38-3.63-1.87-6,0,0-4.38-1.6-6.27-5.09,0,0-1.75-4.07-8.44-1.89,0,0-13.09-1-16.87,13.38,0,0-2.18,5.67-10.77,5.82,0,0-18.32-.29-18.47-14.4,0,0,1.6-16.29,26.18-12.51,0,0,10.6,2.86,14.4-6.4,0,0,2.18-5.82-2.32-10.18,0,0-8-7-4.66-14.18,0,0,11.06-1.7,10.91-8.74,0,0-.72-11.16-21.16-14,0,0-19.71-5.07-19-26,0,0,.13-15.43,22.55-23.71,0,0,14.4-2.42,16.58-13.14,0,0-1.74-23.52,11.06-35.15,0,0,6.55-3.2,9.46-8.3,0,0,2.46-6.83,14.83-6.83,0,0,3.74,2,10.45,0,0,0,9.41-7.65,18.1-2.88,0,0,5.05,5.21,11.88,4Z" transform="translate(-0.16 -0.05)"/><path class="cls-5" d="M486.42,900.56s-2.91-.77-3.64-3.24a2.92,2.92,0,0,0-3.64-2.18s-4.8.81-5.23-4.76c0,0,1.31-2.66-1.75-4.84,0,0-4.92-.88-4.93-11.2,0,0,.13-6.69-7.72-7.71,0,0-6.26-.73-8.44,3.92a6.72,6.72,0,0,1-6,4.51s-16.44,1.6-20.07-17c0,0,1.45-12.51-7-15.57,0,0-5.38-2.18-9-2.18,0,0-7.86-1.6-10.62-8.44a45.31,45.31,0,0,1-.69-30s2.87-12.62-8.91-19.23c0,0-12.8-7.49-7.71-22.25,0,0,6.83-6.63,6-14.63,0,0-2-17.6,18.62-26.9,0,0,9-2,8.51-10.48,0,0-1.1-3.83,2.32-7.88a9.72,9.72,0,0,0,3.07-8s-8.66-20.72,7.48-32c0,0,20.22-14.22,32.87,10.51L495.3,877.54l4.62,7.12-4.62,17.6Z" transform="translate(-0.16 -0.05)"/><path class="cls-5" d="M500.89,910.26a6,6,0,0,1-.11-.77c-.14-1.4-.07-4.26,2.66-4.85,0,0,4.5-3.39,11.34,9,0,0,2.88,7.07,4.64,8a16,16,0,0,1,2.92,10.94s1.17,17.89,17.31,20.36a10.47,10.47,0,0,0,9-2.76s4.07-8.29-4.65-14.4c0,0-9.89-1.89-12.66-9.89,0,0,.29-12.41-14.11-21.19a7.55,7.55,0,0,1-2.69-5.78s-.65-3.21-2.11-4.56c0,0-4.94-4.23,1.75-8s-8.44,0-8.44,0l-6.23,10.36-4.23,12.18" transform="translate(-0.16 -0.05)"/><path class="cls-5" d="M560.45,970.05A4.56,4.56,0,0,1,558,967a11.23,11.23,0,0,0-1.45-3,5.6,5.6,0,0,1,0-5.53s.29-2,3.92-2.18c0,0,4.66.29,3.93,7.71C564.38,963.94,564.24,969.32,560.45,970.05Z" transform="translate(-0.16 -0.05)"/><path class="cls-4" d="M699.58,771.82c-.63,6.68-7.38,7.52-7.38,7.52-5.85-1.4-9.62,3.74-9.62,3.74a9.55,9.55,0,0,1-5.08,2.24c-13.58,1.74-12.71,8.38-12.71,8.38-2.5,6.41,5.77,11.53,5.77,11.53,17.68,8.14,16.37,23.94,16.37,23.94-2.62,18.77-20.29,22-20.29,22-9.17,5.24-4.15,16.36-4.15,16.36,4.15,14-7.64,18.7-7.64,18.7-12.43,4.52-16.86-9.1-16.86-9.1-5.09-9.82-12.81-5.32-12.81-5.32-10.69,8.42-1.66,18.53-1.66,18.53,9,9.94-1.25,15.37-1.25,15.37a11.88,11.88,0,0,0-4.49,3.57c-1.29,2-5,2.33-5,2.33-14.39,1.09-15-11.68-15-11.68.87-9.06-9-11-9-11-11.78.2-12.65,7-12.65,7a21.63,21.63,0,0,1-14.84,11.71c-9.16,2.56-15-8.45-15-8.45a6.3,6.3,0,0,0-6-3.25h0a11.88,11.88,0,0,0-2.66.33,3.2,3.2,0,0,0-1.66,1c-1.53,1.85-5.18,2.72-5.18,2.72a11.44,11.44,0,0,1-2.63.33h-.7c-2.54-.23-3.39,1.12-3.68,2-.07.3-.12.56-.15.76h0c0,.23,0,.38,0,.38-.66,6.2-4.09,5.87-4.09,5.87l-16.61-21.24L551.65,666.4c27.49-25.1,49.53-1.08,49.53-1.08,6.11,3.71,13.53,1.49,13.53,1.49,8.07-.69,5.45,6.43,5.45,6.43-2.18,9.89,2.62,11.5,2.62,11.5a44.92,44.92,0,0,1,30.11,7.78c9,8.28,5.67,19.61,5.67,19.61-1.31,4.92-.65,7.08-.65,7.08,5.31,31.57,29.67,32.65,29.67,32.65,11.56,5.15,8.14,11.73,8.14,11.73C695.34,767.82,699.58,771.82,699.58,771.82Z" transform="translate(-0.16 -0.05)"/><path class="cls-5" d="M621.38,729.46c-4.31,2.33-7.77,11-7.77,11-1.91,16,11.2,28.27,11.2,28.27a40.59,40.59,0,0,1,10.48,33.47c-2.41,8-14.63,12.43-14.63,12.43-7.8,3.42-10.4,16-10.4,16a30.87,30.87,0,0,0,5.87,22.3c4.47,9.28.35,14,.35,14a14.45,14.45,0,0,1-13.72.46c-5.33-5.06-11.82-2.11-11.82-2.11-3.69,1-5.94,6.56-5.94,6.56-3.93,9.84-12,11.39-12,11.39a20.88,20.88,0,0,1-19.85-6.73c-6-5.29-17.58,4.64-17.58,4.64l-26.84-43.82s-9-151.19.16-164.55c.16-.24.34-.46.51-.69l-2.51-7.46s10-13.34,28.77-4.22c0,0,6.77,1.6,11.88-3a16.23,16.23,0,0,1,14.75-2.19s9,2.63,10.29,11.81c0,0,1.61,7.55,15.36,4.19C608.58,675,606,698.77,606,698.77c1.13,6.75,10.18,9.19,10.18,9.19,7.8,4,10.45,9.69,10.45,9.69C629.25,725.48,621.38,729.46,621.38,729.46Z" transform="translate(-0.16 -0.05)"/><path class="cls-6" d="M496.66,893s.44-7.93-8.32-9.34c0,0-10.78-2.29-13.26-17.42,0,0-1.42-14.25-13.88-18,0,0-18.56-1.45-24.38-14.83,0,0-10.48-21-3.2-35.49,0,0,8.84-11.45,4.85-19.26,0,0-5.73-9-14.45-12.16,0,0-11.21-8.41-7.5-21.95,0,0,2-8.75,8.66-10.86,0,0,16-.35,17.46-14.32,0,0-4.49-21.34,6.54-34.91,0,0,10.95-12.11,8.78-17.56,0,0-1.84-6.64,3.06-10.68,0,0,8.16-5.29,13.66,2.37,0,0,7.39,6.34,18.54,2,0,0,9.73-6.61,19.43-7.21,0,0,11.75,1.31,14.93,7.46a8.91,8.91,0,0,0,8.29,8.67s12.12-.09,15.3,12.24c0,0,3.17,10.59-5.84,16.7,0,0-6.27,2.21-4.14,8.13,0,0,2.06,4,3.23,4.87,0,0,8.18,9.4,5.56,20.74,0,0,.29,3.49-6.11,14.55,0,0-10.47,15.35,1.46,28.18,0,0,5.23,6.14,18,16.91,0,0,11,6.69,11.46,18,0,0-1,5-6,6.11a8.66,8.66,0,0,1-4-4s-6.69-3.83-8.44,4a13,13,0,0,0,5,9.31s12.32,9.31,5,23.57c0,0-7,13.09-15.77,11.92,0,0-2,.29-4.94-2.61,0,0-7-4.37-8.15,4.65a24.86,24.86,0,0,0,1.27,10.47s.68,13.76-11.64,17.21c0,0-8.25,2.08-15.81,0,0,0-6.91-2.19-6.93,3.92a7.09,7.09,0,0,1-3.64,6.26,9.21,9.21,0,0,0,2.82,11.19,7.31,7.31,0,0,1,1.77,8.23s-4.49,3.75-8.09,0a8.27,8.27,0,0,1-1.31-4.84s.22-5.48-5.35-4.88c0,0-5.36.19-2.62,9.46,0,0,2.27,5,.7,8.94,0,0-1,2-4.5,2.73,0,0-6.24-1.12-6.29,5.93,0,0,2.35,4-1.91,7.16,0,0-5.52,3.93-10.56-.76,0,0-6.09-5.67,0-19.86a38.41,38.41,0,0,1,10.13-8.4s5-2.29,3.82-7.09c0,0,.43-8.07,8.4-9.16S496.66,893,496.66,893Z" transform="translate(-0.16 -0.05)"/><circle class="cls-4" cx="321.01" cy="875.63" r="8.02"/><path class="cls-6" d="M499.53,937.1s-3.76-1.45-2.87-4.51a4.27,4.27,0,0,1,5.1-.58,3.18,3.18,0,0,1,1.53,4.14A6.24,6.24,0,0,1,499.53,937.1Z" transform="translate(-0.16 -0.05)"/><path class="cls-4" d="M652.78,908.48s-5.34,1.75-6.87-3.27c0,0-1-6,4.36-7,0,0,8.29-1.56,9.71,5.27,0,0,1,4.15-2.84,5.28C657.14,908.78,654.2,907.39,652.78,908.48Z" transform="translate(-0.16 -0.05)"/><path class="cls-7" d="M426,783.33s-1.86-7.83-6.39-9.79c0,0-6.26-.49-6.26-4.5,0,0,2.21-3.89,8.41.08a17.64,17.64,0,0,1,7.51,17.72S426.2,787.46,426,783.33Z" transform="translate(-0.16 -0.05)"/><path class="cls-7" d="M576.09,784.66s-2.14-1.27-2.82-6.09a13.18,13.18,0,0,0-2.32-7.65s-3.53-4.37,1.68-6.11a7.22,7.22,0,0,0,5.59-.73s7.58-2.16,7.63,5C585.85,769,584.38,783.35,576.09,784.66Z" transform="translate(-0.16 -0.05)"/><path class="cls-7" d="M508.6,744.47a7.94,7.94,0,0,1-5.32,3.7,13.09,13.09,0,0,1-4.41-1.88h0l-.05,0a9.6,9.6,0,0,0-1.23-.94A53.46,53.46,0,0,0,508.6,744.47Z" transform="translate(-0.16 -0.05)"/><path class="cls-7" d="M490.83,745.58h0l0,0h0c-1.43,1.41-3.88,3.58-5.57,3.64,0,0-5.32.26-4.5-7a57.82,57.82,0,0,0,11.1,2.57A5,5,0,0,0,490.83,745.58Z" transform="translate(-0.16 -0.05)"/><path class="cls-7" d="M497.58,745.31a54.28,54.28,0,0,1-5.76-.45A5.32,5.32,0,0,1,497.58,745.31Z" transform="translate(-0.16 -0.05)"/><path class="cls-8" d="M489.54,737.26a9.53,9.53,0,0,0,5.78,3.09l1.06.08h.15a5.4,5.4,0,0,0,3.58-1.6s2.66-2.49,4.45-3.05c1.55-.66,4.36-1.25,5.37,2.42a11.09,11.09,0,0,1-1.33,6.28,53.46,53.46,0,0,1-11,.84,5.32,5.32,0,0,0-5.76-.45,57.82,57.82,0,0,1-11.1-2.57,17.69,17.69,0,0,1,.35-2S483,734,489.54,737.26Z" transform="translate(-0.16 -0.05)"/><g class="cls-9"><path class="cls-10" d="M560.45,956.23s4.66.29,3.93,7.71c0,0-.14,5.38-3.93,6.11A4.56,4.56,0,0,1,558,967a10.89,10.89,0,0,0-1.45-3,5.6,5.6,0,0,1,0-5.53S556.82,956.37,560.45,956.23Z" transform="translate(-0.16 -0.05)"/><path class="cls-11" d="M699.58,771.82c-.63,6.68-7.38,7.52-7.38,7.52-5.85-1.4-9.62,3.74-9.62,3.74a9.55,9.55,0,0,1-5.08,2.24c-13.58,1.74-12.71,8.38-12.71,8.38-2.5,6.41,5.77,11.53,5.77,11.53,17.68,8.14,16.37,23.94,16.37,23.94-2.62,18.77-20.29,22-20.29,22-9.17,5.24-4.15,16.36-4.15,16.36,4.15,14-7.64,18.7-7.64,18.7-12.43,4.52-16.86-9.1-16.86-9.1-5.09-9.82-12.81-5.32-12.81-5.32-10.69,8.42-1.66,18.53-1.66,18.53,9,9.94-1.25,15.37-1.25,15.37a11.88,11.88,0,0,0-4.49,3.57c-1.29,2-5,2.33-5,2.33-14.4,1.09-15.06-11.68-15.06-11.68.87-9.06-8.94-11-8.94-11-11.79.2-12.66,7-12.66,7a21.63,21.63,0,0,1-14.84,11.71c-9.16,2.56-15-8.45-15-8.45a6.3,6.3,0,0,0-6-3.25h0a11.88,11.88,0,0,0-2.66.33,3.2,3.2,0,0,0-1.66,1c-1.53,1.85-5.18,2.72-5.18,2.72a11.44,11.44,0,0,1-2.63.33h-.7c-2.54-.23-3.39,1.12-3.68,2-.07.3-.12.56-.15.76h0c0,.23,0,.38,0,.38a8.47,8.47,0,0,1-1.58,4.57c9.65,8.27,9.43,17.81,9.43,17.81,2.77,8,12.66,9.89,12.66,9.89,8.73,6.11,4.65,14.4,4.65,14.4a10.47,10.47,0,0,1-9,2.76c-16.14-2.47-17.3-20.36-17.3-20.36a16,16,0,0,0-2.93-10.94c-1.76-.9-4.64-8-4.64-8-6.83-12.36-11.34-9-11.34-9-2.1.45-2.62,2.24-2.69,3.69a9.77,9.77,0,0,0,2.8,3.42,7.31,7.31,0,0,1,1.76,8.23s-4.49,3.75-8.09,0a8.27,8.27,0,0,1-1.31-4.84s.22-5.48-5.35-4.88c0,0-5.36.19-2.61,9.46,0,0,2.26,5,.69,8.94,0,0-1,2-4.5,2.73,0,0-6.24-1.12-6.29,5.93,0,0,2.35,4-1.9,7.16,0,0-5.53,3.93-10.57-.76,0,0-6.09-5.67,0-19.86a38.41,38.41,0,0,1,10.13-8.4s5-2.29,3.82-7.09c0,0,.33-6.12,5.68-8.42a4.67,4.67,0,0,1-2.23-2.63,2.92,2.92,0,0,0-3.64-2.18s-4.79.81-5.23-4.76c0,0,1.31-2.66-1.75-4.84a4.7,4.7,0,0,1-2.48-1.76c-3.62-1.62-8.21-2.12-10.9,3.5a15.45,15.45,0,0,0,0,6.11s1.31,3.49-3.78,5.82c0,0-16.29,4.51-22.55-10.76,0,0-1.16-7.28-10-8.3,0,0-12.8-2.9-19.64,12.22l-2.91,5.68s-6.1,19.2-25.81,16c0,0-8.81-5.68-2.7-16.15,0,0,3.93-7.71,12.51-10.18,0,0,9.6.58,9.31-9.6,0,0-1.45-9.6-11.78-9.6,0,0-7.42-1.75-9.89-8.29,0,0-2.33-5.53-.44-9.17,0,0,2.38-3.63-1.87-6,0,0-4.38-1.6-6.27-5.09,0,0-1.75-4.07-8.44-1.89,0,0-13.09-1-16.87,13.38,0,0-2.18,5.67-10.77,5.82,0,0-18.32-.29-18.47-14.4,0,0,1.6-16.29,26.18-12.51,0,0,10.6,2.86,14.4-6.4,0,0,2.18-5.82-2.32-10.18,0,0-8-7-4.66-14.18,0,0,11.06-1.7,10.91-8.74,0,0-.72-11.16-21.16-14,0,0-19.71-5.07-19-26,0,0,.12-15.43,22.54-23.71,0,0,14.4-2.42,16.58-13.14,0,0-1.74-23.52,11.06-35.15,0,0,6.55-3.2,9.46-8.3,0,0,2.46-6.83,14.83-6.83,0,0,3.74,2,10.45,0,0,0,9.41-7.65,18.1-2.88a15.94,15.94,0,0,0,6.75,3.8,23.58,23.58,0,0,1,4.55-4.16s18.47-13,31.15,7.46a3.81,3.81,0,0,0-.26-1.13s-1.84-6.64,3.06-10.68c0,0,8.16-5.29,13.66,2.37,0,0,7.39,6.34,18.54,2,0,0,9.73-6.61,19.43-7.21,0,0,7.13.79,11.79,4.06a29.65,29.65,0,0,1,11.23,3.14s6.77,1.6,11.88-3a16.23,16.23,0,0,1,14.75-2.19,15.53,15.53,0,0,1,3.76,1.84c20.39-7.86,35.12,8.19,35.12,8.19,6.11,3.71,13.53,1.49,13.53,1.49,8.07-.69,5.45,6.43,5.45,6.43-2.18,9.89,2.62,11.5,2.62,11.5a44.92,44.92,0,0,1,30.11,7.78c9,8.28,5.67,19.61,5.67,19.61-1.31,4.92-.65,7.08-.65,7.08,5.31,31.57,29.67,32.65,29.67,32.65,11.56,5.15,8.14,11.73,8.14,11.73C695.34,767.82,699.58,771.82,699.58,771.82Z" transform="translate(-0.16 -0.05)"/><circle class="cls-12" cx="321.01" cy="875.63" r="8.02"/><path class="cls-13" d="M501.76,932a3.18,3.18,0,0,1,1.53,4.14,6.24,6.24,0,0,1-3.76,1s-3.76-1.45-2.87-4.51A4.27,4.27,0,0,1,501.76,932Z" transform="translate(-0.16 -0.05)"/><path class="cls-14" d="M650.27,898.23s8.29-1.56,9.71,5.27c0,0,1,4.15-2.84,5.28,0,0-2.94-1.39-4.36-.3,0,0-5.34,1.75-6.87-3.27C645.91,905.21,644.93,899.21,650.27,898.23Z" transform="translate(-0.16 -0.05)"/></g><path class="cls-15" d="M560.45,956.23s4.66.29,3.93,7.71c0,0-.14,5.38-3.93,6.11A4.56,4.56,0,0,1,558,967a10.89,10.89,0,0,0-1.45-3,5.6,5.6,0,0,1,0-5.53S556.82,956.37,560.45,956.23Z" transform="translate(-0.16 -0.05)"/><path class="cls-16" d="M699.58,771.82c-.63,6.68-7.38,7.52-7.38,7.52-5.85-1.4-9.62,3.74-9.62,3.74a9.55,9.55,0,0,1-5.08,2.24c-13.58,1.74-12.71,8.38-12.71,8.38-2.5,6.41,5.77,11.53,5.77,11.53,17.68,8.14,16.37,23.94,16.37,23.94-2.62,18.77-20.29,22-20.29,22-9.17,5.24-4.15,16.36-4.15,16.36,4.15,14-7.64,18.7-7.64,18.7-12.43,4.52-16.86-9.1-16.86-9.1-5.09-9.82-12.81-5.32-12.81-5.32-10.69,8.42-1.66,18.53-1.66,18.53,9,9.94-1.25,15.37-1.25,15.37a11.88,11.88,0,0,0-4.49,3.57c-1.29,2-5,2.33-5,2.33-14.4,1.09-15.06-11.68-15.06-11.68.87-9.06-8.94-11-8.94-11-11.79.2-12.66,7-12.66,7a21.63,21.63,0,0,1-14.84,11.71c-9.16,2.56-15-8.45-15-8.45a6.3,6.3,0,0,0-6-3.25h0a11.88,11.88,0,0,0-2.66.33,3.2,3.2,0,0,0-1.66,1c-1.53,1.85-5.18,2.72-5.18,2.72a11.44,11.44,0,0,1-2.63.33h-.7c-2.54-.23-3.39,1.12-3.68,2-.07.3-.12.56-.15.76h0c0,.23,0,.38,0,.38a8.47,8.47,0,0,1-1.58,4.57c9.65,8.27,9.43,17.81,9.43,17.81,2.77,8,12.66,9.89,12.66,9.89,8.73,6.11,4.65,14.4,4.65,14.4a10.47,10.47,0,0,1-9,2.76c-16.14-2.47-17.3-20.36-17.3-20.36a16,16,0,0,0-2.93-10.94c-1.76-.9-4.64-8-4.64-8-6.83-12.36-11.34-9-11.34-9-2.1.45-2.62,2.24-2.69,3.69a9.77,9.77,0,0,0,2.8,3.42,7.31,7.31,0,0,1,1.76,8.23s-4.49,3.75-8.09,0a8.27,8.27,0,0,1-1.31-4.84s.22-5.48-5.35-4.88c0,0-5.36.19-2.61,9.46,0,0,2.26,5,.69,8.94,0,0-1,2-4.5,2.73,0,0-6.24-1.12-6.29,5.93,0,0,2.35,4-1.9,7.16,0,0-5.53,3.93-10.57-.76,0,0-6.09-5.67,0-19.86a38.41,38.41,0,0,1,10.13-8.4s5-2.29,3.82-7.09c0,0,.33-6.12,5.68-8.42a4.67,4.67,0,0,1-2.23-2.63,2.92,2.92,0,0,0-3.64-2.18s-4.79.81-5.23-4.76c0,0,1.31-2.66-1.75-4.84a4.7,4.7,0,0,1-2.48-1.76c-3.62-1.62-8.21-2.12-10.9,3.5a15.45,15.45,0,0,0,0,6.11s1.31,3.49-3.78,5.82c0,0-16.29,4.51-22.55-10.76,0,0-1.16-7.28-10-8.3,0,0-12.8-2.9-19.64,12.22l-2.91,5.68s-6.1,19.2-25.81,16c0,0-8.81-5.68-2.7-16.15,0,0,3.93-7.71,12.51-10.18,0,0,9.6.58,9.31-9.6,0,0-1.45-9.6-11.78-9.6,0,0-7.42-1.75-9.89-8.29,0,0-2.33-5.53-.44-9.17,0,0,2.38-3.63-1.87-6,0,0-4.38-1.6-6.27-5.09,0,0-1.75-4.07-8.44-1.89,0,0-13.09-1-16.87,13.38,0,0-2.18,5.67-10.77,5.82,0,0-18.32-.29-18.47-14.4,0,0,1.6-16.29,26.18-12.51,0,0,10.6,2.86,14.4-6.4,0,0,2.18-5.82-2.32-10.18,0,0-8-7-4.66-14.18,0,0,11.06-1.7,10.91-8.74,0,0-.72-11.16-21.16-14,0,0-19.71-5.07-19-26,0,0,.12-15.43,22.54-23.71,0,0,14.4-2.42,16.58-13.14,0,0-1.74-23.52,11.06-35.15,0,0,6.55-3.2,9.46-8.3,0,0,2.46-6.83,14.83-6.83,0,0,3.74,2,10.45,0,0,0,9.41-7.65,18.1-2.88a15.94,15.94,0,0,0,6.75,3.8,23.58,23.58,0,0,1,4.55-4.16s18.47-13,31.15,7.46a3.81,3.81,0,0,0-.26-1.13s-1.84-6.64,3.06-10.68c0,0,8.16-5.29,13.66,2.37,0,0,7.39,6.34,18.54,2,0,0,9.73-6.61,19.43-7.21,0,0,7.13.79,11.79,4.06a29.65,29.65,0,0,1,11.23,3.14s6.77,1.6,11.88-3a16.23,16.23,0,0,1,14.75-2.19,15.53,15.53,0,0,1,3.76,1.84c20.39-7.86,35.12,8.19,35.12,8.19,6.11,3.71,13.53,1.49,13.53,1.49,8.07-.69,5.45,6.43,5.45,6.43-2.18,9.89,2.62,11.5,2.62,11.5a44.92,44.92,0,0,1,30.11,7.78c9,8.28,5.67,19.61,5.67,19.61-1.31,4.92-.65,7.08-.65,7.08,5.31,31.57,29.67,32.65,29.67,32.65,11.56,5.15,8.14,11.73,8.14,11.73C695.34,767.82,699.58,771.82,699.58,771.82Z" transform="translate(-0.16 -0.05)"/><circle class="cls-17" cx="321.01" cy="875.63" r="8.02"/><path class="cls-18" d="M501.76,932a3.18,3.18,0,0,1,1.53,4.14,6.24,6.24,0,0,1-3.76,1s-3.76-1.45-2.87-4.51A4.27,4.27,0,0,1,501.76,932Z" transform="translate(-0.16 -0.05)"/><path class="cls-19" d="M650.27,898.23s8.29-1.56,9.71,5.27c0,0,1,4.15-2.84,5.28,0,0-2.94-1.39-4.36-.3,0,0-5.34,1.75-6.87-3.27C645.91,905.21,644.93,899.21,650.27,898.23Z" transform="translate(-0.16 -0.05)"/></g><path class="cls-20" d="M501.76,932a5.44,5.44,0,0,0-1.14-.41,4.08,4.08,0,0,0-1-.14,4.12,4.12,0,0,0-2.77.95,1.83,1.83,0,0,0-.19.18c-.89,3.06,2.87,4.51,2.87,4.51a3.24,3.24,0,0,0,.69,0,5.05,5.05,0,0,0,.68-.06,7.29,7.29,0,0,0,1.69-.55,5.78,5.78,0,0,0,.7-.38,3.39,3.39,0,0,0,.17-.51,3.11,3.11,0,0,0,.12-.92,2.41,2.41,0,0,0-.13-.78A3.56,3.56,0,0,0,501.76,932Z" transform="translate(-0.16 -0.05)"/><path class="cls-21" d="M563.79,958.86a4.51,4.51,0,0,0-.33-.62,4.67,4.67,0,0,0-.77-.94,4.42,4.42,0,0,0-.8-.59,3.7,3.7,0,0,0-1.44-.48h0a7.13,7.13,0,0,0-1.71.25l-.43.15a5.06,5.06,0,0,0-.7.35,3.37,3.37,0,0,0-.48.39,2,2,0,0,0-.6,1,5.6,5.6,0,0,0,0,5.53l.17.27a11.46,11.46,0,0,1,1.26,2.71.31.31,0,0,0,0,.07,4.47,4.47,0,0,0,2.15,2.89l.24.12.08,0h0c3.79-.73,3.93-6.11,3.93-6.11,0-.47.07-.9.08-1.31A8.68,8.68,0,0,0,563.79,958.86Z" transform="translate(-0.16 -0.05)"/><path class="cls-22" d="M695.72,763.59s3.42-6.58-8.14-11.73c0,0-24.36-1.08-29.67-32.65,0,0-.66-2.16.65-7.08,0,0,3.29-11.33-5.67-19.61a45.19,45.19,0,0,0-25.33-8,39.24,39.24,0,0,0-4.78.26s-4.8-1.61-2.62-11.5c0,0,2.46-6.68-4.73-6.47l-.72,0a20.32,20.32,0,0,1-5.49.66,16,16,0,0,1-8-2.15h0l0,0,0,0-.11-.12,0,0-.47-.47,0,0-.35-.33h0c-.27-.25-.59-.53-1-.85h0c-4.7-4-17.16-12.44-33.09-6.31l-.8-.49-.27-.14c-.16-.1-.33-.19-.49-.27l-.27-.14-.4-.19-.25-.11-.33-.14-.2-.08-.27-.11-.14-.05-.2-.07h-.05l-.09,0a15.7,15.7,0,0,0-5.83-.9A16.76,16.76,0,0,0,550,656l-.73.37a13,13,0,0,0-1.74,1.1,11.58,11.58,0,0,1-1,.79,12.4,12.4,0,0,1-2,1.19,14.23,14.23,0,0,1-5.71,1.28,13.74,13.74,0,0,1-3.18-.27q-.84-.4-1.65-.75l-.56-.23c-.35-.14-.69-.28-1-.4l-.68-.25-.85-.28-.75-.22-.73-.2-.79-.2-.63-.13-.82-.16-.53-.08q-.43-.08-.87-.12l-.38,0-1-.08c-.27-.19-.55-.37-.83-.54l-.13-.08q-.42-.26-.87-.48l-.06,0q-.43-.23-.87-.42l-.09,0-.92-.4-.11,0-.9-.34h0c-.31-.11-.61-.22-.92-.31l-.12,0c-.6-.19-1.18-.36-1.74-.5l-.11,0c-.55-.14-1.07-.26-1.54-.36l-.09,0-.65-.12h-.05l-.54-.1h0l-.46-.07h-.06l-.33-.05h0l-.23,0h-.08c-9.7.6-19.43,7.21-19.43,7.21a21.49,21.49,0,0,1-6.74,1.51l-.86,0c-.57,0-1.12,0-1.64,0s-1-.11-1.53-.19a16.87,16.87,0,0,1-7.77-3.27,9.78,9.78,0,0,0-4.46-3.6c-.19-.08-.38-.14-.57-.2a9.14,9.14,0,0,0-2.27-.35,12.38,12.38,0,0,0-6.36,1.78c-4.9,4-3.06,10.68-3.06,10.68a3.5,3.5,0,0,1,.17.55h0a2.61,2.61,0,0,1,.09.57h0c-.39-.63-.78-1.22-1.18-1.79l0,0c-.4-.55-.8-1.08-1.2-1.58l-.05-.06c-.4-.49-.8-1-1.21-1.39l-.05-.06q-.62-.66-1.23-1.23l0,0c-.42-.39-.84-.75-1.25-1.09l-.05,0c-.42-.34-.85-.65-1.27-.94l0,0a18.27,18.27,0,0,0-10.33-3.23h0c-.41,0-.8,0-1.2,0h0c-.39,0-.78,0-1.16.1h0c-.38,0-.76.09-1.13.15h0a24.76,24.76,0,0,0-5.83,1.73h0l-.75.33h0l-.65.32h0l-.57.3,0,0-.49.27,0,0-.41.24,0,0-.32.19,0,0-.23.15h0l-.14.1h0l0,0h0c-.47.34-.92.67-1.35,1s-.56.48-.83.72l-.35.3c-.35.32-.68.65-1,1l-.06.06q-.5.53-1,1.08A16,16,0,0,1,415.9,661l0,0-.11-.11a12.74,12.74,0,0,0-4.09-1.4c-.27,0-.54-.08-.81-.1a14.17,14.17,0,0,0-1.59-.06l-.79,0a16.63,16.63,0,0,0-2.26.34,22.94,22.94,0,0,0-8.56,4.06,20.17,20.17,0,0,1-5.4.9,12.46,12.46,0,0,1-4.36-.62,4.16,4.16,0,0,1-.69-.28l-1.13,0c-5.51.19-8.9,1.79-10.92,3.4a4.16,4.16,0,0,0-.39.32,8.33,8.33,0,0,0-2.39,3.09,22,22,0,0,1-7.24,7,23.94,23.94,0,0,1-2.22,1.29,25.81,25.81,0,0,0-4.15,4.85,35.5,35.5,0,0,0-4.09,8.46A62.49,62.49,0,0,0,351.87,714a14.35,14.35,0,0,1-6.2,8.87c-.72.49-1.45.94-2.18,1.34-.49.26-1,.5-1.45.73l-.71.31c-.53.23-1.05.44-1.54.62a28.25,28.25,0,0,1-4.5,1.27c-22.42,8.28-22.54,23.71-22.54,23.71-.73,20.94,19,26,19,26a39.26,39.26,0,0,1,11.93,3.41c.37.19.72.37,1.06.56a22,22,0,0,1,2.69,1.74c.26.2.51.4.74.6a16.42,16.42,0,0,1,2.31,2.38c.3.39.57.77.8,1.13a10,10,0,0,1,1.63,4.23c.11,5.06-5.57,7.36-8.78,8.25l-.77.2-.63.15-.25,0-.35.06-.13,0c-.1.22-.2.45-.28.67a8.66,8.66,0,0,0-.37,1.34,7.42,7.42,0,0,0-.15,1.32c-.23,5.88,5.46,10.85,5.46,10.85C351.14,818.19,349,824,349,824c-2.37,5.79-7.4,6.84-10.84,6.82a15.73,15.73,0,0,1-3.56-.42,45.41,45.41,0,0,0-6.32-.56,24.74,24.74,0,0,0-11.75,2.3,15.62,15.62,0,0,0-2.78,1.78,14.47,14.47,0,0,0-1.46,1.32,14.22,14.22,0,0,0-1.16,1.36c-.34.45-.64.91-.91,1.35a13.5,13.5,0,0,0-1.8,5c.15,14.11,18.47,14.4,18.47,14.4h0a14.34,14.34,0,0,0,6.3-1.42,8.09,8.09,0,0,0,.88-.49,8.91,8.91,0,0,0,3.59-3.91,21.52,21.52,0,0,1,1.81-4.71,16.36,16.36,0,0,1,14.49-8.69c.37,0,.57,0,.57,0h0a12.32,12.32,0,0,1,3.26-.64,6.22,6.22,0,0,1,3.47.77,4.78,4.78,0,0,1,.44.29,4.1,4.1,0,0,1,1.27,1.47,10.09,10.09,0,0,0,2.81,3.14,15.1,15.1,0,0,0,2,1.26,12.12,12.12,0,0,0,1.48.69c4.25,2.33,1.87,6,1.87,6a4.87,4.87,0,0,0-.3.71,6.89,6.89,0,0,0-.36,1.49,15.63,15.63,0,0,0,1.1,7c2.47,6.54,9.89,8.29,9.89,8.29,10.33,0,11.78,9.6,11.78,9.6.26,9.23-7.59,9.61-9.07,9.6h-.24a21.77,21.77,0,0,0-11.76,8.94c-.5.76-.75,1.24-.75,1.24-6.11,10.47,2.7,16.15,2.7,16.15a26.43,26.43,0,0,0,3.53.34c16.92.53,22.28-16.34,22.28-16.34l2.91-5.68c4.91-10.87,12.91-12.42,17-12.44a12.64,12.64,0,0,1,2.62.22,11.56,11.56,0,0,1,7.76,3.8,10.63,10.63,0,0,1,1.06,1.45,9.43,9.43,0,0,1,1.21,3.05,20.76,20.76,0,0,0,1.29,2.63c.23.41.47.79.72,1.16,4.2,6.26,10.53,7.57,15.06,7.59.53,0,1,0,1.51,0a21,21,0,0,0,4-.58,6.93,6.93,0,0,0,3.43-2.87,3.8,3.8,0,0,0,.35-3,15.45,15.45,0,0,1,0-6.11,10.61,10.61,0,0,1,.51-.95c0-.09.11-.17.17-.26s.24-.38.37-.56l.22-.27c.12-.15.24-.3.36-.43l.25-.25.36-.34.27-.21.36-.27.28-.17.38-.21.28-.14.41-.16.27-.09.44-.11.25-.05.49-.07.21,0c.2,0,.4,0,.6,0h.11a9.77,9.77,0,0,1,2.91.54h0l.7.25h0l.68.28h0a4.7,4.7,0,0,0,2.48,1.76,4.11,4.11,0,0,1,2,3.58,3.32,3.32,0,0,1-.27,1.26,8.77,8.77,0,0,0,.13,1,5.4,5.4,0,0,0,.87,2.12,3.94,3.94,0,0,0,1.31,1.16,5.06,5.06,0,0,0,2.92.51,3.32,3.32,0,0,1,2,.15,3.08,3.08,0,0,1,1.65,2c.05.16.11.31.17.46l.06.11.15.3.09.14.16.24.1.12.19.22.1.1.21.21.09.08.24.19.06,0,.27.2,0,0,.3.19-.35.17c-.2.1-.41.19-.59.3s-.35.23-.52.34l-.37.25a5.63,5.63,0,0,0-.45.38l-.32.28c-.14.14-.27.27-.39.41l-.27.3c-.12.14-.23.28-.34.43l-.21.3c-.1.15-.2.3-.29.45s-.11.19-.17.29-.17.3-.25.46a2,2,0,0,0-.1.21c-.18.4-.34.78-.47,1.15v0c-.05.15-.09.3-.14.44s0,.16-.07.23l-.09.38-.06.22c0,.12-.05.22-.07.32l0,.21c0,.09,0,.17-.05.25s0,.11,0,.16l0,.18a.37.37,0,0,1,0,.11c0,.11,0,.18,0,.18,1.2,4.8-3.82,7.09-3.82,7.09a38.41,38.41,0,0,0-10.13,8.4c-6.09,14.19,0,19.86,0,19.86a8,8,0,0,0,5.56,2.3,9.49,9.49,0,0,0,5-1.54c4.25-3.16,1.9-7.16,1.9-7.16,0-2.64.91-4.14,2-5a4.7,4.7,0,0,1,1.15-.64,6.14,6.14,0,0,1,2.15-.38,5.58,5.58,0,0,1,1,.06h0a9.78,9.78,0,0,0,1.34-.39c.25-.09.48-.19.7-.29a5.85,5.85,0,0,0,.56-.29,4.92,4.92,0,0,0,1.9-1.76c1.57-3.92-.69-8.94-.69-8.94-2.75-9.27,2.61-9.46,2.61-9.46a8.58,8.58,0,0,1,1,0,4.22,4.22,0,0,1,2.94,1.12,5.48,5.48,0,0,1,1.43,3.75v.06h0a8.6,8.6,0,0,0,1.25,4.76l.06.08a5.48,5.48,0,0,0,1.38,1.07,4.67,4.67,0,0,0,2.09.59,7.63,7.63,0,0,0,4.62-1.66,7.31,7.31,0,0,0-1.76-8.23l-.05,0a10.69,10.69,0,0,1-.92-.82c-.18-.18-.33-.36-.49-.54l-.27-.32a8.77,8.77,0,0,1-.54-.75l-.06-.1a8.08,8.08,0,0,1-.47-.85h0c0-.17,0-.35,0-.53a.08.08,0,0,0,0,0c0-.17.06-.34.09-.51l0,0a4.91,4.91,0,0,1,.15-.51.36.36,0,0,0,0-.09,4.25,4.25,0,0,1,.21-.43l0-.06a4.25,4.25,0,0,1,.31-.43l.08-.09a4.26,4.26,0,0,1,.38-.35l0,0a2.81,2.81,0,0,1,.51-.29l.14-.06a3.43,3.43,0,0,1,.64-.21,2.74,2.74,0,0,1,1.51-.42c1.86-.05,5.34,1.28,9.83,9.39,0,0,2.88,7.07,4.64,8a16,16,0,0,1,2.92,10.94s1.17,17.89,17.31,20.36a7.26,7.26,0,0,0,1.71.16h.55a11.56,11.56,0,0,0,2-.31,11.19,11.19,0,0,0,4.77-2.6,9.94,9.94,0,0,0,.68-2.11,12.11,12.11,0,0,0,.25-1.78c0-.16,0-.33,0-.5.06-2.9-1-6.77-5.6-10,0,0-7-1.35-10.9-6.57a12.22,12.22,0,0,1-1.76-3.32v0h0v-.32a.37.37,0,0,1,0-.11.62.62,0,0,0,0-.13.71.71,0,0,0,0-.14.81.81,0,0,0,0-.15s0-.1,0-.16,0-.12,0-.18a1.11,1.11,0,0,0,0-.17c0-.14,0-.28,0-.44l0-.19c0-.08,0-.16,0-.25a2.07,2.07,0,0,0,0-.22,2.56,2.56,0,0,0-.05-.27c0-.08,0-.16,0-.24s0-.2-.07-.3,0-.17-.05-.25,0-.22-.08-.33,0-.17-.07-.26a2.58,2.58,0,0,0-.09-.35c0-.08,0-.17-.07-.26l-.11-.38a1.87,1.87,0,0,1-.07-.22q-.17-.51-.36-1.05v0l-.18-.45-.1-.27c-.06-.14-.13-.29-.19-.44s-.08-.2-.13-.3-.13-.3-.2-.45l-.15-.31c-.08-.15-.15-.31-.23-.46s-.11-.21-.17-.32l-.25-.47-.18-.32-.28-.49-.18-.28c-.36-.59-.76-1.19-1.21-1.79l-.24-.34c-.12-.16-.25-.31-.38-.47s-.19-.25-.29-.37l-.39-.47L525,911l-.42-.47-.36-.37c-.14-.16-.29-.31-.45-.47l-.39-.38-.47-.46-.43-.38-.51-.45a4.85,4.85,0,0,0,.3-.41,1.3,1.3,0,0,1,.1-.15c.07-.12.14-.24.21-.38a1.3,1.3,0,0,1,.08-.17c.09-.19.18-.39.26-.6v0c.08-.23.16-.47.23-.73l.06-.23c.05-.2.1-.41.14-.64s0-.17,0-.26c0-.31.1-.63.14-1,0,0,0-.15,0-.38h0c0-.2.08-.46.15-.76a2.87,2.87,0,0,1,2.81-2,5.11,5.11,0,0,1,.87,0h.7a11.44,11.44,0,0,0,2.63-.33s3.65-.87,5.18-2.72a3.2,3.2,0,0,1,1.66-1,11.88,11.88,0,0,1,2.66-.33h0a6.31,6.31,0,0,1,6,3.25s4.84,9,12.57,8.83a10.17,10.17,0,0,0,2.48-.38A21.63,21.63,0,0,0,576.09,896s.87-6.81,12.66-7c0,0,9.81,2,8.94,11,0,0,.61,12,13.74,11.74l1.32-.06s3.74-.3,5-2.33a11.88,11.88,0,0,1,4.49-3.57s10.28-5.43,1.25-15.37c0,0-9-10.11,1.66-18.53a9,9,0,0,1,4-1c2.64,0,6.08,1.14,8.79,6.35,0,0,3.15,9.7,11.61,10a13.7,13.7,0,0,0,5.25-.91s11.79-4.73,7.64-18.7c0,0-5-11.12,4.15-16.36,0,0,17.67-3.27,20.29-22,0,0,1.31-15.8-16.37-23.94,0,0-8.27-5.12-5.77-11.53,0,0-.87-6.64,12.71-8.38a9.55,9.55,0,0,0,5.08-2.24s2.88-3.93,7.53-4a8.66,8.66,0,0,1,2.09.24h0s6.75-.84,7.38-7.52C699.58,771.82,695.34,767.82,695.72,763.59Z" transform="translate(-0.16 -0.05)"/><path class="cls-23" d="M323.15,867.91a7.12,7.12,0,0,0-.92-.18,7.59,7.59,0,0,0-1.07-.08h0a8.07,8.07,0,1,0,2,.26Z" transform="translate(-0.16 -0.05)"/><path class="cls-24" d="M652.24,898.07a12.55,12.55,0,0,0-2,.16,5.21,5.21,0,0,0-2.94,1.5,5.58,5.58,0,0,0-.44.55,6.69,6.69,0,0,0-1,3.51,7.72,7.72,0,0,0,.07,1.42,5.29,5.29,0,0,0,1.2,2.16,4.72,4.72,0,0,0,3.37,1.4,7.17,7.17,0,0,0,2.3-.29,2.47,2.47,0,0,1,1.64-.41,5.62,5.62,0,0,1,1.08.15l.33.08a8.82,8.82,0,0,1,1.31.48h0a4.28,4.28,0,0,0,1.45-.73,4.08,4.08,0,0,0,1.5-3.18,5.62,5.62,0,0,0-.11-1.37C659,898.8,654.78,898.07,652.24,898.07Z" transform="translate(-0.16 -0.05)"/><rect class="cls-25" width="53"/><rect class="cls-26" x="974" y="1172" width="53"/><g class="cls-27"><path class="cls-28" d="M808.4,653.94l.45-.22L768,633.09V609.65l.69-.35-.45-.22h-1.38l-69.58-11.72L656.9,577l-.45-.23H574.79L505.2,565l-.69-.35h-.9l-.69.35-69.59,11.72H351.67l-40.84,20.63-69.58,11.72h-1.39l-.44.22.69.35v23.44l-40.39,20.4-.45.23,40.84,20.62v23.44l-.69.35.44.23h1.39l69.58,11.71,40.39,20.41.45.22h81.66l69.59,11.72.69.35h.9l.69-.35,69.59-11.72h81.66l40.84-20.63,69.58-11.71h1.38l.45-.23-.69-.35V674.35ZM590.63,697.45H417.49l-86.56-43.73L417.49,610H590.63l86.56,43.74Zm46.75-65.66,93.35-15.72,10.49,5.3L679,652.81Zm91.8-16.51L635.83,631l-41.61-21H718.68Zm-140.35-6.2H505.62V577.64h21ZM502.5,577.64v31.44H419.29l62.23-31.44ZM413.9,610l-41.61,21-93.35-15.72,10.49-5.3Zm-136.51,6.09,93.34,15.72-41.6,21L266.9,621.37Zm51.74,38.55,41.6,21-93.34,15.72-10.49-5.3Zm-50.19,37.53,93.35-15.72,41.61,21H289.43Zm140.35,6.21H502.5v31.43h-21Zm86.33,31.43V698.36h83.21L526.6,729.79Zm88.6-32.34,41.61-21,93.35,15.72-10.5,5.3Zm136.51-6.09-93.35-15.72,41.61-21,62.23,31.44Zm2.7-75.74,28.77-4.85L743,620.46Zm-1.56-.79L722.28,610h38.37Zm-226.25-38.1V567l19.18,9.69Zm-3.12,0H483.32L502.5,567Zm-226.25,38.1L247.47,610h38.37Zm-1.56.79-9.59,4.84-19.18-9.69Zm0,76.2-28.77,4.84L265.1,687Zm1.56.78,9.59,4.85H247.47ZM502.5,730.7v9.69l-19.18-9.69Zm3.12,0H524.8l-19.18,9.69Zm226.25-38.1,28.78,4.85H722.28Zm1.56-.78L743,687l19.18,9.69Zm-141-82.74-62.23-31.44H574L695,598l21.88,11.06Zm-176.72,0H291.23L313.11,598l121.06-20.38h43.76Zm-88.37,44.64L265.1,685.15l-21.88-11V633.33l21.88-11.05Zm88.37,44.64,62.23,31.43H434.17L313.11,709.41l-21.88-11Zm176.72,0H716.89l-21.88,11L574,729.79H530.19Zm88.37-44.64L743,622.28l21.88,11.05V674.1l-21.88,11ZM768,634.9l37.24,18.82L768,672.53Zm-23.19-13.53,20.08-10.15v20.3Zm-24.34-12.29L700.4,598.93l60.25,10.15Zm-140.3-31.44h74.48l37.23,18.81Zm-51.79-.91-20.08-10.15,60.25,10.15Zm-48.67,0H439.56l60.25-10.15Zm-163.5,19.72,37.24-18.81h74.48Zm-28.58,12.63H247.47l60.25-10.15ZM263.3,621.37l-20.08,10.15v-20.3Zm-23.19,51.16-37.24-18.81,37.24-18.82Zm23.19,13.53-20.08,10.15V675.92Zm24.34,12.3,20.08,10.14-60.25-10.14Zm140.3,31.43H353.46L316.22,711Zm51.78.91,20.09,10.15L439.56,730.7Zm48.67,0h40.17l-60.25,10.15ZM691.89,711l-37.23,18.81H580.18Zm28.59-12.62h40.17L700.4,708.5Zm24.34-12.3,20.08-10.14v20.29Z" transform="translate(-0.16 -0.05)"/><path class="cls-29" d="M584.73,613H423.38l-80.22,40.53-.45.23,80.22,40.52.45.23H584.73L665,653.94l.45-.22-80.23-40.53Zm-220.4,40.76c0,4.36,2.37,8.56,6.74,12.51L346.3,653.72l24.77-12.52C366.7,645.15,364.33,649.35,364.33,653.72Zm3.11,0c0-22,61.29-39.85,136.62-39.85s136.62,17.87,136.62,39.85-61.29,39.84-136.62,39.84S367.44,675.69,367.44,653.72Zm276.35,0c0-4.37-2.37-8.57-6.74-12.52l24.77,12.52-24.77,12.51C641.42,662.28,643.79,658.08,643.79,653.72ZM533.42,613.87h49.52l24.94,12.6C588.54,620.21,562.66,615.7,533.42,613.87Zm-133.18,12.6,24.94-12.6H474.7C445.45,615.7,419.58,620.21,400.24,626.47Zm74.46,67.09H425.18L400.24,681C419.58,687.22,445.45,691.73,474.7,693.56ZM607.88,681l-24.94,12.6H533.42C562.66,691.73,588.54,687.23,607.88,681Z" transform="translate(-0.16 -0.05)"/><path class="cls-30" d="M504.06,666.48c23.9,0,43.35-5.68,43.35-12.65S528,641.19,504.06,641.19s-43.35,5.67-43.35,12.64S480.16,666.48,504.06,666.48Zm0-22.57c18.75,0,34,4.45,34,9.92s-15.26,9.92-34,9.92-34-4.45-34-9.92S485.31,643.91,504.06,643.91Z" transform="translate(-0.16 -0.05)"/><path class="cls-30" d="M562.35,653.83c0-9.37-26.15-17-58.29-17s-58.3,7.63-58.3,17,26.16,17,58.3,17S562.35,663.21,562.35,653.83Zm-58.29-16.09c30.43,0,55.18,7.22,55.18,16.09s-24.75,16.1-55.18,16.1-55.18-7.22-55.18-16.1S473.63,637.74,504.06,637.74Z" transform="translate(-0.16 -0.05)"/></g><g class="cls-31"><path class="cls-32" d="M504.44,506.8c.61,3,1,5.92,1.53,8.88l.63,4.43.51,4.44c.16,1.47.47,3,.72,4.43a13.78,13.78,0,0,1,0,4.44,23.4,23.4,0,0,1-1.12,4.43,17.18,17.18,0,0,1-2.31,4.44h-.76a17.23,17.23,0,0,1-2.32-4.44,23.36,23.36,0,0,1-1.11-4.43,14.07,14.07,0,0,1,0-4.44c.26-1.48.57-3,.73-4.43l.51-4.44.63-4.43c.52-3,.92-5.92,1.53-8.88Z" transform="translate(-0.16 -0.05)"/><path class="cls-32" d="M417,509c2.36,2.88,4.52,5.77,6.78,8.66L427,522l3.15,4.34c1,1.45,2.22,2.89,3.35,4.33a21.36,21.36,0,0,1,2.68,4.37,25.34,25.34,0,0,1,1.54,4.43,12.56,12.56,0,0,1,.36,4.48l-.75,0a38.16,38.16,0,0,1-4.92-4.25,46.57,46.57,0,0,1-3.74-4.31,20.87,20.87,0,0,1-2.6-4.37c-.63-1.47-1.21-2.94-1.93-4.41L422,522.27l-2-4.4c-1.26-2.94-2.62-5.87-3.78-8.81Z" transform="translate(-0.16 -0.05)"/><path class="cls-32" d="M332.14,515.63c4,2.71,7.89,5.45,11.84,8.18l5.79,4.1,5.69,4.12c1.88,1.37,3.9,2.73,5.88,4.1a46.63,46.63,0,0,1,5.23,4.16,50.16,50.16,0,0,1,4.15,4.28,21,21,0,0,1,3,4.4L373,549a81.79,81.79,0,0,1-7.37-3.93q-3.35-2-6.25-4.06a46.66,46.66,0,0,1-5.17-4.17c-1.49-1.42-2.94-2.83-4.52-4.24L345,528.42l-4.6-4.23c-3-2.83-6.08-5.65-9-8.49Z" transform="translate(-0.16 -0.05)"/><path class="cls-32" d="M252.54,526.43c5.6,2.47,11,5,16.53,7.46l8.15,3.75,8,3.77c2.67,1.25,5.47,2.49,8.23,3.73s5.3,2.52,7.63,3.84,4.56,2.64,6.64,4a47.15,47.15,0,0,1,5.6,4.18l-.66.11c-3.48-1.12-6.6-2.3-9.61-3.5s-5.84-2.43-8.57-3.68-5.25-2.53-7.57-3.85-4.58-2.64-7-3.94l-7.16-3.92-7.05-3.93c-4.63-2.64-9.35-5.26-13.89-7.91Z" transform="translate(-0.16 -0.05)"/><path class="cls-32" d="M180.58,541.1c7,2.15,13.81,4.34,20.72,6.51l10.26,3.28,10.16,3.3c3.39,1.11,6.88,2.18,10.33,3.27s6.73,2.21,9.81,3.39,6.06,2.37,8.92,3.6,5.58,2.5,8,3.83l-.59.15c-4.09-.93-7.87-1.94-11.54-3s-7.21-2.09-10.63-3.18-6.68-2.23-9.75-3.41-6.09-2.37-9.22-3.53l-9.38-3.5-9.29-3.51c-6.13-2.36-12.33-4.7-18.38-7.08Z" transform="translate(-0.16 -0.05)"/><path class="cls-33" d="M118.45,559.2c8.16,1.76,16.18,3.57,24.28,5.36l12.05,2.71,12,2.74c4,.91,8.07,1.79,12.12,2.68s7.93,1.85,11.67,2.85,7.39,2,10.93,3.1,7,2.17,10.16,3.37l-.49.17c-4.58-.71-8.9-1.51-13.13-2.34s-8.35-1.7-12.37-2.6-7.9-1.85-11.63-2.86-7.4-2-11.18-3l-11.32-3-11.24-3c-7.44-2-15-4-22.32-6Z" transform="translate(-0.16 -0.05)"/><path class="cls-33" d="M68,580.16c9.08,1.33,18.06,2.71,27.1,4.05l13.48,2.06,13.43,2.09c4.47.7,9,1.36,13.53,2s8.91,1.41,13.19,2.2,8.48,1.63,12.61,2.5,8.17,1.79,12,2.81l-.38.19c-4.94-.47-9.66-1-14.33-1.64s-9.22-1.25-13.73-1.93-8.88-1.43-13.15-2.23-8.49-1.62-12.8-2.4l-12.92-2.35-12.85-2.37c-8.52-1.61-17.1-3.19-25.58-4.82Z" transform="translate(-0.16 -0.05)"/><path class="cls-33" d="M30.87,603.37c9.73.84,19.4,1.74,29.1,2.61l14.5,1.35,14.47,1.37c4.82.46,9.69.88,14.54,1.32s9.62.94,14.3,1.51,9.33,1.17,13.91,1.82,9.11,1.35,13.5,2.15l-.27.21c-5.13-.21-10.13-.53-15.08-.88s-9.83-.77-14.67-1.21-9.59-1-14.27-1.53-9.34-1.17-14.05-1.72l-14.11-1.65L58.67,607c-9.36-1.16-18.74-2.28-28.06-3.46Z" transform="translate(-0.16 -0.05)"/><path class="cls-33" d="M8.08,628.1c10.09.33,20.14.73,30.22,1.1l15.08.59,15.07.62c5,.21,10.06.38,15.1.56s10,.44,15,.76,9.88.68,14.78,1.09,9.77.87,14.58,1.44l-.14.22c-5.18,0-10.29,0-15.37-.11s-10.14-.26-15.17-.45-10-.45-15-.78-9.89-.67-14.85-1l-14.89-.92-14.87-1c-9.89-.66-19.8-1.29-29.68-2Z" transform="translate(-0.16 -0.05)"/><path class="cls-33" d="M.36,653.61c10.14-.18,20.28-.3,30.42-.45L46,653l15.21-.15c5.07-.05,10.14-.14,15.21-.21s10.13-.08,15.2,0,10.14.18,15.21.33,10.14.36,15.2.68v.22c-5.06.32-10.13.51-15.2.67s-10.14.26-15.21.33-10.14.06-15.2,0-10.14-.17-15.21-.21L46,654.46l-15.2-.19c-10.14-.15-20.28-.26-30.42-.44Z" transform="translate(-0.16 -0.05)"/><path class="cls-33" d="M8,679.12c9.88-.69,19.79-1.32,29.68-2l14.87-.95,14.89-.92c5-.3,9.9-.65,14.85-1s9.93-.59,15-.78,10.08-.34,15.17-.45,10.19-.16,15.37-.1l.14.22c-4.81.57-9.68,1-14.58,1.43s-9.83.77-14.78,1.09-10,.57-15,.76-10.08.35-15.1.56l-15.07.63-15.08.58c-10.08.37-20.13.77-30.22,1.11Z" transform="translate(-0.16 -0.05)"/><path class="cls-34" d="M30.61,703.86c9.32-1.18,18.7-2.3,28.06-3.45l14.07-1.69,14.11-1.66c4.71-.55,9.37-1.14,14.05-1.72s9.43-1.08,14.27-1.52,9.73-.85,14.67-1.21,9.95-.68,15.08-.89l.27.21c-4.39.81-8.93,1.5-13.5,2.15s-9.22,1.26-13.91,1.83-9.46,1.06-14.3,1.5-9.72.86-14.54,1.32l-14.47,1.38L60,701.45c-9.7.87-19.37,1.77-29.1,2.62Z" transform="translate(-0.16 -0.05)"/><path class="cls-34" d="M67.65,727.08c8.48-1.64,17.06-3.22,25.58-4.82l12.85-2.38L119,717.53c4.31-.78,8.54-1.6,12.8-2.4s8.65-1.55,13.15-2.23,9.08-1.33,13.73-1.93,9.39-1.17,14.33-1.64l.38.2c-3.84,1-7.9,1.92-12,2.8s-8.33,1.7-12.61,2.5-8.68,1.53-13.19,2.21-9.06,1.33-13.53,2l-13.43,2.09-13.48,2.06c-9,1.35-18,2.72-27.1,4Z" transform="translate(-0.16 -0.05)"/><path class="cls-34" d="M118,748.06c7.37-2,14.88-4,22.32-6l11.24-3,11.32-3c3.78-1,7.47-2,11.18-3s7.6-2,11.63-2.86,8.14-1.77,12.37-2.6,8.55-1.63,13.13-2.33l.49.17c-3.18,1.19-6.63,2.29-10.16,3.36s-7.19,2.11-10.93,3.11-7.64,1.94-11.67,2.84-8.13,1.77-12.12,2.69l-12,2.73-12.05,2.71c-8.1,1.79-16.12,3.6-24.28,5.36Z" transform="translate(-0.16 -0.05)"/><path class="cls-34" d="M180,766.19c6.05-2.38,12.25-4.72,18.38-7.09l9.29-3.51,9.38-3.5c3.13-1.16,6.16-2.35,9.22-3.53s6.31-2.31,9.75-3.4,7-2.16,10.63-3.19,7.45-2,11.54-3l.59.15c-2.42,1.34-5.16,2.59-8,3.83s-5.84,2.43-8.92,3.61-6.36,2.3-9.81,3.39-6.94,2.16-10.33,3.26l-10.16,3.3-10.26,3.28c-6.91,2.17-13.74,4.36-20.72,6.51Z" transform="translate(-0.16 -0.05)"/><path class="cls-34" d="M251.88,780.89c4.54-2.65,9.26-5.27,13.89-7.9l7.05-3.94,7.16-3.91c2.4-1.31,4.67-2.63,7-3.95s4.83-2.6,7.57-3.85,5.58-2.47,8.57-3.67,6.13-2.39,9.61-3.51l.66.11a47.15,47.15,0,0,1-5.6,4.18c-2.08,1.36-4.3,2.69-6.64,4s-4.89,2.59-7.63,3.83-5.56,2.48-8.23,3.74l-8,3.76-8.15,3.75c-5.52,2.49-10.93,5-16.53,7.46Z" transform="translate(-0.16 -0.05)"/><path class="cls-34" d="M331.43,791.73c2.89-2.84,6-5.66,9-8.49L345,779l4.72-4.22c1.58-1.4,3-2.82,4.52-4.24a47.84,47.84,0,0,1,5.17-4.17q2.91-2.05,6.25-4.06a81.79,81.79,0,0,1,7.37-3.93l.72.07a21,21,0,0,1-3,4.4,50.16,50.16,0,0,1-4.15,4.28,47.82,47.82,0,0,1-5.23,4.17c-2,1.36-4,2.72-5.88,4.09l-5.69,4.12-5.79,4.1c-4,2.73-7.8,5.47-11.84,8.19Z" transform="translate(-0.16 -0.05)"/><path class="cls-34" d="M416.22,798.38c1.16-3,2.52-5.88,3.78-8.82l2-4.4,2.13-4.39c.72-1.46,1.3-2.94,1.93-4.4a20.62,20.62,0,0,1,2.6-4.37,45.39,45.39,0,0,1,3.74-4.32,39,39,0,0,1,4.92-4.25l.75,0a12.63,12.63,0,0,1-.36,4.49,25.53,25.53,0,0,1-1.54,4.42,21.36,21.36,0,0,1-2.68,4.37c-1.13,1.44-2.31,2.88-3.35,4.33L427,785.42l-3.26,4.34c-2.26,2.88-4.42,5.77-6.78,8.66Z" transform="translate(-0.16 -0.05)"/><path class="cls-34" d="M503.68,800.63c-.61-3-1-5.92-1.53-8.87l-.63-4.44-.51-4.43c-.16-1.48-.47-3-.73-4.44a14,14,0,0,1,0-4.43,23.27,23.27,0,0,1,1.11-4.44,17,17,0,0,1,2.32-4.43h.76a17,17,0,0,1,2.31,4.43,23.31,23.31,0,0,1,1.12,4.44,13.72,13.72,0,0,1,0,4.43c-.25,1.48-.56,3-.72,4.44l-.51,4.43-.63,4.44c-.52,3-.92,5.91-1.53,8.87Z" transform="translate(-0.16 -0.05)"/><path class="cls-34" d="M591.15,798.42c-2.36-2.89-4.52-5.78-6.78-8.66l-3.26-4.34L578,781.08c-1-1.45-2.22-2.89-3.36-4.33a21.75,21.75,0,0,1-2.67-4.37,25.53,25.53,0,0,1-1.54-4.42,12.63,12.63,0,0,1-.36-4.49l.75,0a39,39,0,0,1,4.92,4.25,45.39,45.39,0,0,1,3.74,4.32,21,21,0,0,1,2.6,4.37c.63,1.46,1.21,2.94,1.93,4.4l2.13,4.39,2,4.4c1.26,2.94,2.62,5.87,3.78,8.82Z" transform="translate(-0.16 -0.05)"/><path class="cls-34" d="M676,791.81c-4-2.72-7.89-5.46-11.84-8.19l-5.79-4.1-5.69-4.12c-1.88-1.37-3.9-2.73-5.88-4.09a49,49,0,0,1-5.24-4.17,53.4,53.4,0,0,1-4.15-4.28,20.58,20.58,0,0,1-3-4.4l.71-.07a80.69,80.69,0,0,1,7.38,3.93q3.35,2,6.25,4.06a47.84,47.84,0,0,1,5.17,4.17c1.49,1.42,2.94,2.84,4.52,4.24l4.71,4.22,4.61,4.23c3,2.83,6.08,5.65,9,8.49Z" transform="translate(-0.16 -0.05)"/><path class="cls-34" d="M755.58,781c-5.6-2.47-11-5-16.53-7.46l-8.15-3.75-8-3.76c-2.67-1.26-5.47-2.5-8.23-3.74s-5.3-2.52-7.63-3.83-4.56-2.65-6.64-4a47.15,47.15,0,0,1-5.6-4.18l.66-.11c3.48,1.12,6.6,2.3,9.61,3.51s5.84,2.43,8.57,3.67,5.25,2.53,7.57,3.85,4.58,2.64,7,3.95l7.15,3.91,7.06,3.94c4.63,2.63,9.35,5.25,13.89,7.9Z" transform="translate(-0.16 -0.05)"/><path class="cls-34" d="M827.54,766.33c-7-2.15-13.81-4.34-20.72-6.51l-10.26-3.28-10.17-3.3c-3.38-1.1-6.87-2.18-10.33-3.26s-6.72-2.22-9.8-3.39-6.06-2.38-8.92-3.61-5.58-2.49-8-3.83l.58-.15c4.1.93,7.87,1.94,11.55,3s7.2,2.1,10.63,3.19,6.68,2.22,9.75,3.4,6.08,2.37,9.22,3.53l9.38,3.5,9.29,3.51c6.12,2.37,12.33,4.71,18.38,7.09Z" transform="translate(-0.16 -0.05)"/><path class="cls-34" d="M889.67,748.23c-8.16-1.76-16.18-3.57-24.28-5.36l-12-2.71-12-2.73c-4-.92-8.07-1.8-12.12-2.69s-7.94-1.84-11.67-2.84-7.39-2-10.93-3.11-7-2.17-10.16-3.36l.49-.17c4.58.7,8.9,1.5,13.13,2.33s8.34,1.7,12.37,2.6,7.9,1.86,11.63,2.86,7.4,2,11.18,3l11.32,3,11.24,3c7.44,2,14.94,4,22.32,6Z" transform="translate(-0.16 -0.05)"/><path class="cls-34" d="M940.08,727.27c-9.08-1.33-18.06-2.7-27.1-4l-13.48-2.06-13.43-2.09c-4.47-.7-9-1.36-13.53-2s-8.91-1.41-13.19-2.21-8.48-1.63-12.61-2.5-8.17-1.79-12-2.8l.38-.2c4.94.47,9.66,1,14.33,1.64s9.22,1.25,13.72,1.93,8.89,1.43,13.15,2.23,8.5,1.62,12.81,2.4L902,719.88l12.86,2.38c8.52,1.6,17.1,3.18,25.57,4.82Z" transform="translate(-0.16 -0.05)"/><path class="cls-34" d="M977.25,704.07c-9.74-.85-19.4-1.75-29.1-2.62l-14.51-1.34-14.46-1.38c-4.82-.46-9.69-.88-14.54-1.32s-9.62-.93-14.3-1.5-9.33-1.18-13.91-1.83-9.11-1.34-13.5-2.15l.26-.21c5.14.21,10.13.53,15.08.89s9.84.76,14.68,1.21,9.59.95,14.27,1.52,9.34,1.17,14,1.72l14.11,1.66,14.07,1.69c9.35,1.15,18.74,2.27,28.06,3.45Z" transform="translate(-0.16 -0.05)"/><path class="cls-33" d="M1000,679.34c-10.09-.34-20.15-.74-30.22-1.11l-15.08-.58L939.67,677c-5-.21-10.06-.38-15.1-.56s-10-.44-15-.76-9.88-.68-14.78-1.09-9.77-.86-14.58-1.43l.14-.22c5.18-.06,10.29,0,15.37.1s10.14.26,15.17.45,10,.46,15,.78,9.89.68,14.85,1l14.89.92,14.86.95c9.9.66,19.81,1.29,29.69,2Z" transform="translate(-0.16 -0.05)"/><path class="cls-33" d="M1007.76,653.83c-10.14.18-20.28.29-30.42.44l-15.2.19-15.21.15c-5.07,0-10.14.13-15.21.21s-10.13.08-15.2,0-10.14-.17-15.21-.33-10.14-.35-15.21-.67v-.22c5.07-.32,10.14-.52,15.21-.68s10.14-.26,15.21-.33,10.13-.06,15.2,0,10.14.16,15.21.21l15.21.15,15.2.18c10.14.15,20.28.27,30.42.45Z" transform="translate(-0.16 -0.05)"/><path class="cls-33" d="M1000.17,628.31c-9.88.69-19.79,1.32-29.69,2l-14.86,1-14.89.92c-5,.31-9.9.65-14.85,1s-9.94.59-15,.78-10.08.35-15.17.45-10.19.16-15.37.11l-.14-.22c4.81-.57,9.68-1,14.58-1.44s9.83-.77,14.78-1.09,9.95-.57,15-.76,10.08-.35,15.1-.56l15.07-.62,15.08-.59c10.07-.37,20.13-.77,30.22-1.1Z" transform="translate(-0.16 -0.05)"/><path class="cls-33" d="M977.51,603.57c-9.32,1.18-18.71,2.3-28.06,3.46l-14.07,1.69-14.11,1.65c-4.71.55-9.37,1.14-14,1.72s-9.43,1.08-14.27,1.53-9.73.85-14.68,1.21-9.94.67-15.08.88l-.26-.21c4.39-.8,8.93-1.49,13.5-2.15s9.22-1.26,13.91-1.82,9.46-1.07,14.3-1.51,9.72-.86,14.54-1.32l14.46-1.37L948.15,606c9.7-.87,19.36-1.77,29.1-2.61Z" transform="translate(-0.16 -0.05)"/><path class="cls-33" d="M940.46,580.36c-8.47,1.63-17.05,3.21-25.57,4.82L902,587.55l-12.91,2.35c-4.31.78-8.54,1.6-12.81,2.4s-8.64,1.55-13.15,2.23-9.07,1.33-13.72,1.93-9.39,1.17-14.33,1.64l-.38-.19c3.84-1,7.9-1.93,12-2.81s8.33-1.7,12.61-2.5,8.68-1.53,13.19-2.2,9.06-1.34,13.53-2l13.43-2.09L913,584.21c9-1.34,18-2.72,27.1-4.05Z" transform="translate(-0.16 -0.05)"/><path class="cls-33" d="M890.16,559.37c-7.38,2-14.88,4-22.32,6l-11.24,3-11.32,3c-3.78,1-7.47,2-11.18,3s-7.6,2-11.63,2.86-8.14,1.77-12.37,2.6-8.55,1.63-13.13,2.34l-.49-.17c3.18-1.2,6.63-2.3,10.16-3.37s7.19-2.1,10.93-3.1,7.63-1.95,11.67-2.85,8.13-1.77,12.12-2.68l12-2.74,12-2.71c8.1-1.79,16.12-3.6,24.28-5.36Z" transform="translate(-0.16 -0.05)"/><path class="cls-32" d="M828.12,541.25c-6,2.38-12.26,4.72-18.38,7.08l-9.29,3.51-9.38,3.5c-3.14,1.16-6.16,2.35-9.22,3.53s-6.31,2.32-9.75,3.41-7,2.15-10.63,3.18-7.45,2-11.55,3l-.58-.15c2.42-1.33,5.16-2.59,8-3.83s5.83-2.43,8.92-3.6,6.36-2.31,9.8-3.39,7-2.16,10.33-3.27l10.17-3.3,10.26-3.28c6.91-2.17,13.73-4.36,20.72-6.51Z" transform="translate(-0.16 -0.05)"/><path class="cls-32" d="M756.24,526.54c-4.54,2.65-9.26,5.27-13.89,7.91l-7.06,3.93-7.15,3.92c-2.4,1.3-4.67,2.62-7,3.94s-4.84,2.6-7.57,3.85-5.58,2.47-8.57,3.68-6.13,2.38-9.61,3.5l-.66-.11a47.15,47.15,0,0,1,5.6-4.18q3.12-2,6.64-4c2.33-1.32,4.89-2.59,7.63-3.84s5.56-2.48,8.23-3.73l8-3.77,8.15-3.75c5.51-2.48,10.93-5,16.53-7.46Z" transform="translate(-0.16 -0.05)"/><path class="cls-32" d="M676.69,515.7c-2.89,2.84-6,5.66-9,8.49l-4.61,4.23-4.71,4.22c-1.58,1.41-3,2.82-4.52,4.24a46.66,46.66,0,0,1-5.17,4.17q-2.91,2.06-6.25,4.06a80.69,80.69,0,0,1-7.38,3.93l-.71-.07a20.58,20.58,0,0,1,3-4.4,53.4,53.4,0,0,1,4.15-4.28,47.71,47.71,0,0,1,5.24-4.16c2-1.37,4-2.73,5.88-4.1l5.69-4.12,5.79-4.1c4-2.73,7.8-5.47,11.84-8.18Z" transform="translate(-0.16 -0.05)"/><path class="cls-32" d="M591.9,509.06c-1.16,2.94-2.52,5.87-3.78,8.81l-2,4.4L584,526.66c-.72,1.47-1.3,2.94-1.93,4.41a21.31,21.31,0,0,1-2.6,4.37,46.57,46.57,0,0,1-3.74,4.31,38.16,38.16,0,0,1-4.92,4.25l-.75,0a12.56,12.56,0,0,1,.36-4.48,25.34,25.34,0,0,1,1.54-4.43,21.75,21.75,0,0,1,2.67-4.37c1.14-1.44,2.32-2.88,3.36-4.33l3.15-4.34,3.26-4.33c2.26-2.89,4.42-5.78,6.78-8.66Z" transform="translate(-0.16 -0.05)"/></g><path class="cls-35" d="M494.19,419.21" transform="translate(-0.16 -0.05)"/><path class="cls-4" d="M474.77,439.59s-11.35,10.33-16.29,0a15.45,15.45,0,0,1,0-6.11s1.31-3.49-3.79-5.82c0,0-16.29-4.51-22.54,10.77,0,0-1.16,7.27-10,8.29,0,0-12.8,2.91-19.63-12.22l-2.91-5.67s-6.11-19.2-25.82-16c0,0-8.8,5.67-2.69,16.14,0,0,3.93,7.71,12.51,10.18,0,0,9.6-.58,9.31,9.6,0,0-1.46,9.6-11.79,9.6,0,0-7.41,1.75-9.89,8.29,0,0-2.32,5.53-.43,9.17,0,0,2.37,3.63-1.87,6,0,0-4.39,1.6-6.28,5.09,0,0-1.74,4.07-8.43,1.89,0,0-13.1,1-16.88-13.38,0,0-2.18-5.67-10.76-5.82,0,0-18.33.29-18.47,14.4,0,0,1.6,16.29,26.18,12.51,0,0,10.59-2.86,14.4,6.4,0,0,2.18,5.82-2.33,10.18,0,0-8,7-4.65,14.19,0,0,11.06,1.69,10.91,8.74,0,0-.72,11.15-21.16,14,0,0-19.72,5.07-19,26,0,0,.13,15.42,22.55,23.7,0,0,14.4,2.42,16.58,13.14,0,0-1.75,23.52,11.05,35.16,0,0,6.56,3.2,9.46,8.29,0,0,2.47,6.83,14.83,6.83,0,0,3.75-2,10.46,0,0,0,9.41,7.65,18.09,2.88,0,0,5.05-5.2,11.89-4Z" transform="translate(-0.16 -0.05)"/><path class="cls-5" d="M486.11,426.31s-2.91.77-3.63,3.24a2.93,2.93,0,0,1-3.64,2.18s-4.8-.81-5.24,4.76c0,0,1.31,2.66-1.74,4.84,0,0-4.93.88-4.94,11.2,0,0,.14,6.7-7.72,7.71,0,0-6.25.73-8.43-3.92a6.74,6.74,0,0,0-6-4.51s-16.43-1.6-20.07,17c0,0,1.46,12.5-7,15.56,0,0-5.38,2.18-9,2.18,0,0-7.85,1.6-10.62,8.44a45.35,45.35,0,0,0-.68,30s2.86,12.62-8.92,19.23c0,0-12.8,7.49-7.71,22.26,0,0,6.84,6.62,6,14.62,0,0-2,17.6,18.62,26.91,0,0,9,2,8.51,10.47,0,0-1.11,3.83,2.32,7.88a9.75,9.75,0,0,1,3.07,8s-8.67,20.72,7.48,32c0,0,20.22,14.22,32.87-10.51L495,449.33l4.63-7.12L495,424.61Z" transform="translate(-0.16 -0.05)"/><path class="cls-5" d="M500.58,416.61s-.06.3-.11.77c-.14,1.4-.07,4.26,2.66,4.85,0,0,4.51,3.4,11.35-9,0,0,2.88-7.07,4.64-8A16,16,0,0,0,522,394.35s1.16-17.89,17.31-20.36a10.51,10.51,0,0,1,9,2.76s4.07,8.29-4.66,14.4c0,0-9.89,1.89-12.65,9.89,0,0,.29,12.41-14.11,21.19a7.54,7.54,0,0,0-2.7,5.78s-.65,3.21-2.1,4.56c0,0-4.95,4.24,1.74,8s-8.43,0-8.43,0l-6.23-10.36L495,418.06" transform="translate(-0.16 -0.05)"/><path class="cls-5" d="M560.15,356.83a4.51,4.51,0,0,0-2.47,3.05,11.09,11.09,0,0,1-1.46,3.05,5.6,5.6,0,0,0,0,5.53s.29,2,3.93,2.18c0,0,4.65-.29,3.93-7.71C564.08,362.93,563.93,357.55,560.15,356.83Z" transform="translate(-0.16 -0.05)"/><path class="cls-4" d="M699.28,555.05c-.64-6.67-7.39-7.52-7.39-7.52-5.85,1.4-9.61-3.74-9.61-3.74a9.59,9.59,0,0,0-5.09-2.24c-13.57-1.74-12.71-8.38-12.71-8.38-2.5-6.41,5.78-11.53,5.78-11.53,17.67-8.14,16.36-23.94,16.36-23.94-2.62-18.77-20.29-22-20.29-22-9.16-5.23-4.14-16.36-4.14-16.36,4.14-14-7.64-18.7-7.64-18.7-12.44-4.52-16.87,9.1-16.87,9.1-5.09,9.82-12.8,5.32-12.8,5.32-10.69-8.42-1.67-18.53-1.67-18.53,9-9.93-1.24-15.37-1.24-15.37a11.88,11.88,0,0,1-4.49-3.57c-1.29-2-5-2.32-5-2.32-14.4-1.1-15.05,11.67-15.05,11.67.87,9.06-8.95,11-8.95,11-11.78-.2-12.66-7-12.66-7A21.63,21.63,0,0,0,561,419.21c-9.16-2.56-15.06,8.45-15.06,8.45a6.32,6.32,0,0,1-6,3.26h0a11.82,11.82,0,0,1-2.66-.34,3.16,3.16,0,0,1-1.65-.95c-1.53-1.86-5.19-2.73-5.19-2.73a10.81,10.81,0,0,0-2.63-.32h-.69c-2.54.23-3.4-1.12-3.68-2a6.27,6.27,0,0,1-.15-.76h0l0-.37c-.65-6.2-4.08-5.88-4.08-5.88L502.5,438.79l48.85,221.68c27.49,25.1,49.53,1.08,49.53,1.08,6.11-3.71,13.52-1.49,13.52-1.49,8.08.69,5.46-6.43,5.46-6.43-2.18-9.89,2.62-11.5,2.62-11.5a45,45,0,0,0,30.11-7.78c8.95-8.27,5.67-19.61,5.67-19.61-1.31-4.92-.66-7.08-.66-7.08,5.32-31.57,29.68-32.65,29.68-32.65,11.56-5.15,8.13-11.73,8.13-11.73C695,559.05,699.28,555.05,699.28,555.05Z" transform="translate(-0.16 -0.05)"/><path class="cls-5" d="M621.07,597.41c-4.3-2.33-7.77-11-7.77-11-1.9-16,11.2-28.27,11.2-28.27A40.58,40.58,0,0,0,635,524.65c-2.41-8-14.64-12.43-14.64-12.43-7.79-3.42-10.4-16-10.4-16a30.87,30.87,0,0,1,5.87-22.3c4.48-9.28.35-14,.35-14a14.43,14.43,0,0,0-13.71-.46c-5.34,5.06-11.83,2.12-11.83,2.12-3.68-1-5.93-6.57-5.93-6.57-3.94-9.84-12-11.38-12-11.38a20.85,20.85,0,0,0-19.84,6.72c-6.05,5.29-17.58-4.64-17.58-4.64l-26.85,43.82s-9,151.19.16,164.55l.51.7-2.51,7.45s10,13.34,28.77,4.22c0,0,6.78-1.6,11.89,3A16.21,16.21,0,0,0,562,671.58s9-2.63,10.29-11.81c0,0,1.6-7.55,15.35-4.19,20.64-3.67,18.07-27.48,18.07-27.48,1.12-6.75,10.17-9.19,10.17-9.19,7.81-4,10.45-9.69,10.45-9.69C629,601.39,621.07,597.41,621.07,597.41Z" transform="translate(-0.16 -0.05)"/><path class="cls-6" d="M496.35,433.92s.45,7.93-8.31,9.34c0,0-10.78,2.29-13.27,17.42,0,0-1.42,14.25-13.87,18,0,0-18.57,1.45-24.39,14.83,0,0-10.47,21-3.2,35.49,0,0,8.84,11.46,4.86,19.26,0,0-5.73,9-14.46,12.16,0,0-11.21,8.41-7.49,21.95,0,0,2,8.76,8.66,10.86,0,0,16,.36,17.45,14.32,0,0-4.48,21.35,6.55,34.91,0,0,10.95,12.11,8.78,17.56,0,0-1.84,6.64,3,10.69,0,0,8.17,5.28,13.66-2.38,0,0,7.39-6.34,18.54-2,0,0,9.73,6.61,19.43,7.21,0,0,11.76-1.31,14.94-7.46a8.91,8.91,0,0,1,8.29-8.67s12.12.09,15.29-12.24c0,0,3.18-10.59-5.84-16.7,0,0-6.27-2.21-4.13-8.13,0,0,2.05-4,3.22-4.87,0,0,8.18-9.4,5.57-20.74,0,0,.29-3.49-6.11-14.55,0,0-10.48-15.35,1.45-28.18,0,0,5.24-6.14,18-16.91,0,0,11-6.69,11.46-18,0,0-1-5-6-6.11a8.7,8.7,0,0,0-4,4s-6.69,3.83-8.43-4A13.06,13.06,0,0,1,561,501.7s12.33-9.31,5-23.57c0,0-7-13.09-15.76-11.92,0,0-2-.29-5,2.62,0,0-7,4.36-8.14-4.66a24.68,24.68,0,0,1,1.27-10.47s.68-13.76-11.64-17.21c0,0-8.25-2.08-15.81,0,0,0-6.92,2.19-6.93-3.92a7.09,7.09,0,0,0-3.64-6.26,9.21,9.21,0,0,1,2.82-11.19,7.33,7.33,0,0,0,1.77-8.23s-4.5-3.74-8.1,0a8.27,8.27,0,0,0-1.31,4.84s.23,5.49-5.34,4.88c0,0-5.36-.19-2.62-9.46,0,0,2.27-5,.7-8.94,0,0-1-2-4.51-2.73,0,0-6.24,1.12-6.29-5.93,0,0,2.35-4-1.9-7.16,0,0-5.53-3.93-10.56.76,0,0-6.09,5.68,0,19.86a38.46,38.46,0,0,0,10.12,8.4s5,2.29,3.82,7.09c0,0,.44,8.08,8.4,9.16S496.35,433.92,496.35,433.92Z" transform="translate(-0.16 -0.05)"/><circle class="cls-4" cx="320.7" cy="451.15" r="8.02"/><path class="cls-6" d="M499.23,389.77s-3.76,1.46-2.88,4.51a4.29,4.29,0,0,0,5.11.58,3.18,3.18,0,0,0,1.53-4.14A6.27,6.27,0,0,0,499.23,389.77Z" transform="translate(-0.16 -0.05)"/><path class="cls-4" d="M652.48,418.39s-5.35-1.75-6.88,3.27c0,0-1,6,4.37,7,0,0,8.29,1.56,9.71-5.27,0,0,1-4.15-2.84-5.27C656.84,418.1,653.89,419.48,652.48,418.39Z" transform="translate(-0.16 -0.05)"/><path class="cls-7" d="M425.68,543.54s-1.87,7.83-6.39,9.79c0,0-6.27.49-6.27,4.5,0,0,2.21,3.89,8.41-.08A17.64,17.64,0,0,0,429,540S425.89,539.41,425.68,543.54Z" transform="translate(-0.16 -0.05)"/><path class="cls-7" d="M575.78,542.21s-2.14,1.27-2.81,6.09a13.18,13.18,0,0,1-2.32,7.65s-3.53,4.37,1.67,6.11a7.22,7.22,0,0,1,5.59.73s7.58,2.16,7.64-5C585.55,557.83,584.07,543.52,575.78,542.21Z" transform="translate(-0.16 -0.05)"/><path class="cls-7" d="M508.29,582.4a8,8,0,0,0-5.31-3.7,13.09,13.09,0,0,0-4.41,1.88h0a.1.1,0,0,0-.05,0,11.43,11.43,0,0,1-1.24.93A53.36,53.36,0,0,1,508.29,582.4Z" transform="translate(-0.16 -0.05)"/><path class="cls-7" d="M490.53,581.29h0l0,0h0c-1.43-1.41-3.88-3.58-5.57-3.64,0,0-5.32-.26-4.49,7a57.64,57.64,0,0,1,11.1-2.57A5,5,0,0,1,490.53,581.29Z" transform="translate(-0.16 -0.05)"/><path class="cls-7" d="M497.27,581.56a54.09,54.09,0,0,0-5.75.45A5.31,5.31,0,0,0,497.27,581.56Z" transform="translate(-0.16 -0.05)"/><path class="cls-8" d="M489.23,589.61a9.57,9.57,0,0,1,5.78-3.09l1.06-.08h.15a5.41,5.41,0,0,1,3.59,1.61s2.66,2.48,4.45,3c1.54.66,4.35,1.26,5.36-2.42a11.09,11.09,0,0,0-1.33-6.28,53.36,53.36,0,0,0-11-.84,5.31,5.31,0,0,1-5.75.45,57.64,57.64,0,0,0-11.1,2.57,17.53,17.53,0,0,0,.34,2S482.69,592.88,489.23,589.61Z" transform="translate(-0.16 -0.05)"/><g class="cls-9"><path class="cls-36" d="M560.15,370.64s4.65-.29,3.93-7.71c0,0-.15-5.38-3.93-6.1a4.51,4.51,0,0,0-2.47,3.05,11.09,11.09,0,0,1-1.46,3.05,5.6,5.6,0,0,0,0,5.53S556.51,370.5,560.15,370.64Z" transform="translate(-0.16 -0.05)"/><path class="cls-37" d="M699.28,555.05c-.64-6.67-7.39-7.52-7.39-7.52-5.85,1.4-9.61-3.74-9.61-3.74a9.59,9.59,0,0,0-5.09-2.24c-13.57-1.74-12.71-8.38-12.71-8.38-2.5-6.41,5.78-11.53,5.78-11.53,17.67-8.14,16.36-23.94,16.36-23.94-2.62-18.77-20.29-22-20.29-22-9.16-5.23-4.14-16.36-4.14-16.36,4.14-14-7.64-18.7-7.64-18.7-12.44-4.52-16.87,9.1-16.87,9.1-5.09,9.82-12.8,5.32-12.8,5.32-10.69-8.42-1.67-18.53-1.67-18.53,9-9.93-1.24-15.37-1.24-15.37a11.88,11.88,0,0,1-4.49-3.57c-1.29-2-5-2.32-5-2.32-14.4-1.1-15.05,11.67-15.05,11.67.87,9.06-8.95,11-8.95,11-11.78-.2-12.66-7-12.66-7A21.63,21.63,0,0,0,561,419.21c-9.16-2.56-15.06,8.45-15.06,8.45a6.32,6.32,0,0,1-6,3.26h0a11.82,11.82,0,0,1-2.66-.34,3.16,3.16,0,0,1-1.65-.95c-1.53-1.86-5.19-2.73-5.19-2.73a10.81,10.81,0,0,0-2.63-.32h-.69c-2.54.23-3.4-1.12-3.68-2a6.27,6.27,0,0,1-.15-.76h0l0-.37a8.52,8.52,0,0,0-1.57-4.58c9.65-8.27,9.43-17.81,9.43-17.81,2.76-8,12.65-9.89,12.65-9.89,8.73-6.11,4.66-14.4,4.66-14.4a10.51,10.51,0,0,0-9-2.76C523.2,376.46,522,394.35,522,394.35a16,16,0,0,1-2.92,10.94c-1.76.9-4.64,8-4.64,8-6.84,12.37-11.35,9-11.35,9-2.09-.45-2.62-2.24-2.69-3.68a9.71,9.71,0,0,1,2.8-3.43,7.33,7.33,0,0,0,1.77-8.23s-4.5-3.74-8.1,0a8.27,8.27,0,0,0-1.31,4.84s.23,5.49-5.34,4.88c0,0-5.36-.19-2.62-9.46,0,0,2.27-5,.7-8.94,0,0-1-2-4.51-2.73,0,0-6.24,1.12-6.29-5.93,0,0,2.35-4-1.9-7.16,0,0-5.53-3.93-10.56.76,0,0-6.09,5.68,0,19.86a38.46,38.46,0,0,0,10.12,8.4s5,2.29,3.82,7.09c0,0,.34,6.12,5.69,8.42a4.6,4.6,0,0,0-2.23,2.63,2.93,2.93,0,0,1-3.64,2.18s-4.8-.81-5.24,4.76c0,0,1.31,2.66-1.74,4.84a4.7,4.7,0,0,0-2.49,1.76c-3.62,1.62-8.2,2.12-10.89-3.5a15.45,15.45,0,0,1,0-6.11s1.31-3.49-3.79-5.82c0,0-16.29-4.51-22.54,10.77,0,0-1.16,7.27-10,8.29,0,0-12.8,2.91-19.63-12.22l-2.91-5.67s-6.11-19.2-25.82-16c0,0-8.8,5.67-2.69,16.14,0,0,3.93,7.71,12.51,10.18,0,0,9.6-.58,9.31,9.6,0,0-1.46,9.6-11.79,9.6,0,0-7.41,1.75-9.89,8.29,0,0-2.32,5.53-.43,9.17,0,0,2.37,3.63-1.87,6,0,0-4.39,1.6-6.28,5.09,0,0-1.74,4.07-8.43,1.89,0,0-13.1,1-16.88-13.38,0,0-2.18-5.67-10.76-5.82,0,0-18.33.29-18.47,14.4,0,0,1.6,16.29,26.18,12.51,0,0,10.59-2.86,14.4,6.4,0,0,2.18,5.82-2.33,10.18,0,0-8,7-4.65,14.19,0,0,11.06,1.69,10.91,8.74,0,0-.72,11.15-21.16,14,0,0-19.72,5.07-19,26,0,0,.13,15.42,22.55,23.7,0,0,14.4,2.42,16.58,13.14,0,0-1.75,23.52,11.05,35.16,0,0,6.56,3.2,9.46,8.29,0,0,2.47,6.83,14.83,6.83,0,0,3.75-2,10.46,0,0,0,9.41,7.65,18.09,2.88a16,16,0,0,1,6.75-3.79,23.64,23.64,0,0,0,4.56,4.15s18.47,13,31.15-7.46a4.14,4.14,0,0,1-.26,1.13s-1.84,6.64,3,10.69c0,0,8.17,5.28,13.66-2.38,0,0,7.39-6.34,18.54-2,0,0,9.73,6.61,19.43,7.21,0,0,7.14-.79,11.79-4.06a29.42,29.42,0,0,0,11.23-3.14s6.78-1.6,11.89,3A16.21,16.21,0,0,0,562,671.58a15.75,15.75,0,0,0,3.75-1.83c20.4,7.85,35.13-8.2,35.13-8.2,6.11-3.71,13.52-1.49,13.52-1.49,8.08.69,5.46-6.43,5.46-6.43-2.18-9.89,2.62-11.5,2.62-11.5a45,45,0,0,0,30.11-7.78c8.95-8.27,5.67-19.61,5.67-19.61-1.31-4.92-.66-7.08-.66-7.08,5.32-31.57,29.68-32.65,29.68-32.65,11.56-5.15,8.13-11.73,8.13-11.73C695,559.05,699.28,555.05,699.28,555.05Z" transform="translate(-0.16 -0.05)"/><circle class="cls-38" cx="320.7" cy="451.15" r="8.02"/><path class="cls-39" d="M501.46,394.86a3.18,3.18,0,0,0,1.53-4.14,6.27,6.27,0,0,0-3.76-1s-3.76,1.46-2.88,4.51A4.29,4.29,0,0,0,501.46,394.86Z" transform="translate(-0.16 -0.05)"/><path class="cls-40" d="M650,428.64s8.29,1.56,9.71-5.27c0,0,1-4.15-2.84-5.27,0,0-3,1.38-4.36.29,0,0-5.35-1.75-6.88,3.27C645.6,421.66,644.62,427.66,650,428.64Z" transform="translate(-0.16 -0.05)"/></g><path class="cls-41" d="M560.15,370.64s4.65-.29,3.93-7.71c0,0-.15-5.38-3.93-6.1a4.51,4.51,0,0,0-2.47,3.05,11.09,11.09,0,0,1-1.46,3.05,5.6,5.6,0,0,0,0,5.53S556.51,370.5,560.15,370.64Z" transform="translate(-0.16 -0.05)"/><path class="cls-42" d="M699.28,555.05c-.64-6.67-7.39-7.52-7.39-7.52-5.85,1.4-9.61-3.74-9.61-3.74a9.59,9.59,0,0,0-5.09-2.24c-13.57-1.74-12.71-8.38-12.71-8.38-2.5-6.41,5.78-11.53,5.78-11.53,17.67-8.14,16.36-23.94,16.36-23.94-2.62-18.77-20.29-22-20.29-22-9.16-5.23-4.14-16.36-4.14-16.36,4.14-14-7.64-18.7-7.64-18.7-12.44-4.52-16.87,9.1-16.87,9.1-5.09,9.82-12.8,5.32-12.8,5.32-10.69-8.42-1.67-18.53-1.67-18.53,9-9.93-1.24-15.37-1.24-15.37a11.88,11.88,0,0,1-4.49-3.57c-1.29-2-5-2.32-5-2.32-14.4-1.1-15.05,11.67-15.05,11.67.87,9.06-8.95,11-8.95,11-11.78-.2-12.66-7-12.66-7A21.63,21.63,0,0,0,561,419.21c-9.16-2.56-15.06,8.45-15.06,8.45a6.32,6.32,0,0,1-6,3.26h0a11.82,11.82,0,0,1-2.66-.34,3.16,3.16,0,0,1-1.65-.95c-1.53-1.86-5.19-2.73-5.19-2.73a10.81,10.81,0,0,0-2.63-.32h-.69c-2.54.23-3.4-1.12-3.68-2a6.27,6.27,0,0,1-.15-.76h0l0-.37a8.52,8.52,0,0,0-1.57-4.58c9.65-8.27,9.43-17.81,9.43-17.81,2.76-8,12.65-9.89,12.65-9.89,8.73-6.11,4.66-14.4,4.66-14.4a10.51,10.51,0,0,0-9-2.76C523.2,376.46,522,394.35,522,394.35a16,16,0,0,1-2.92,10.94c-1.76.9-4.64,8-4.64,8-6.84,12.37-11.35,9-11.35,9-2.09-.45-2.62-2.24-2.69-3.68a9.71,9.71,0,0,1,2.8-3.43,7.33,7.33,0,0,0,1.77-8.23s-4.5-3.74-8.1,0a8.27,8.27,0,0,0-1.31,4.84s.23,5.49-5.34,4.88c0,0-5.36-.19-2.62-9.46,0,0,2.27-5,.7-8.94,0,0-1-2-4.51-2.73,0,0-6.24,1.12-6.29-5.93,0,0,2.35-4-1.9-7.16,0,0-5.53-3.93-10.56.76,0,0-6.09,5.68,0,19.86a38.46,38.46,0,0,0,10.12,8.4s5,2.29,3.82,7.09c0,0,.34,6.12,5.69,8.42a4.6,4.6,0,0,0-2.23,2.63,2.93,2.93,0,0,1-3.64,2.18s-4.8-.81-5.24,4.76c0,0,1.31,2.66-1.74,4.84a4.7,4.7,0,0,0-2.49,1.76c-3.62,1.62-8.2,2.12-10.89-3.5a15.45,15.45,0,0,1,0-6.11s1.31-3.49-3.79-5.82c0,0-16.29-4.51-22.54,10.77,0,0-1.16,7.27-10,8.29,0,0-12.8,2.91-19.63-12.22l-2.91-5.67s-6.11-19.2-25.82-16c0,0-8.8,5.67-2.69,16.14,0,0,3.93,7.71,12.51,10.18,0,0,9.6-.58,9.31,9.6,0,0-1.46,9.6-11.79,9.6,0,0-7.41,1.75-9.89,8.29,0,0-2.32,5.53-.43,9.17,0,0,2.37,3.63-1.87,6,0,0-4.39,1.6-6.28,5.09,0,0-1.74,4.07-8.43,1.89,0,0-13.1,1-16.88-13.38,0,0-2.18-5.67-10.76-5.82,0,0-18.33.29-18.47,14.4,0,0,1.6,16.29,26.18,12.51,0,0,10.59-2.86,14.4,6.4,0,0,2.18,5.82-2.33,10.18,0,0-8,7-4.65,14.19,0,0,11.06,1.69,10.91,8.74,0,0-.72,11.15-21.16,14,0,0-19.72,5.07-19,26,0,0,.13,15.42,22.55,23.7,0,0,14.4,2.42,16.58,13.14,0,0-1.75,23.52,11.05,35.16,0,0,6.56,3.2,9.46,8.29,0,0,2.47,6.83,14.83,6.83,0,0,3.75-2,10.46,0,0,0,9.41,7.65,18.09,2.88a16,16,0,0,1,6.75-3.79,23.64,23.64,0,0,0,4.56,4.15s18.47,13,31.15-7.46a4.14,4.14,0,0,1-.26,1.13s-1.84,6.64,3,10.69c0,0,8.17,5.28,13.66-2.38,0,0,7.39-6.34,18.54-2,0,0,9.73,6.61,19.43,7.21,0,0,7.14-.79,11.79-4.06a29.42,29.42,0,0,0,11.23-3.14s6.78-1.6,11.89,3A16.21,16.21,0,0,0,562,671.58a15.75,15.75,0,0,0,3.75-1.83c20.4,7.85,35.13-8.2,35.13-8.2,6.11-3.71,13.52-1.49,13.52-1.49,8.08.69,5.46-6.43,5.46-6.43-2.18-9.89,2.62-11.5,2.62-11.5a45,45,0,0,0,30.11-7.78c8.95-8.27,5.67-19.61,5.67-19.61-1.31-4.92-.66-7.08-.66-7.08,5.32-31.57,29.68-32.65,29.68-32.65,11.56-5.15,8.13-11.73,8.13-11.73C695,559.05,699.28,555.05,699.28,555.05Z" transform="translate(-0.16 -0.05)"/><circle class="cls-43" cx="320.7" cy="451.15" r="8.02"/><path class="cls-44" d="M501.46,394.86a3.18,3.18,0,0,0,1.53-4.14,6.27,6.27,0,0,0-3.76-1s-3.76,1.46-2.88,4.51A4.29,4.29,0,0,0,501.46,394.86Z" transform="translate(-0.16 -0.05)"/><path class="cls-45" d="M650,428.64s8.29,1.56,9.71-5.27c0,0,1-4.15-2.84-5.27,0,0-3,1.38-4.36.29,0,0-5.35-1.75-6.88,3.27C645.6,421.66,644.62,427.66,650,428.64Z" transform="translate(-0.16 -0.05)"/></g></g></svg>