<svg xmlns="http://www.w3.org/2000/svg" xmlns:xlink="http://www.w3.org/1999/xlink" viewBox="0 0 1027 1172"><defs><style>.cls-1{isolation:isolate;}.cls-2{opacity:0.3;}.cls-3{fill:#d66d34;}.cls-4{fill:#e27b39;}.cls-5{fill:#ec8c3a;}.cls-6{fill:none;stroke:#d66d34;stroke-miterlimit:10;}.cls-7{fill:url(#linear-gradient);}.cls-8{fill:url(#linear-gradient-2);}.cls-9{fill:url(#linear-gradient-3);}.cls-10{fill:url(#linear-gradient-4);}.cls-11{fill:url(#linear-gradient-5);}.cls-12{fill:url(#linear-gradient-6);}.cls-13{fill:url(#linear-gradient-7);}.cls-14{fill:url(#linear-gradient-8);}.cls-15{fill:url(#linear-gradient-9);}.cls-16{fill:url(#linear-gradient-10);}.cls-17{fill:url(#linear-gradient-11);}.cls-18{fill:url(#linear-gradient-12);}.cls-19{fill:url(#linear-gradient-13);}.cls-20{fill:url(#linear-gradient-14);}.cls-21{fill:url(#linear-gradient-15);}.cls-22{fill:url(#linear-gradient-16);}.cls-23{fill:url(#linear-gradient-17);}.cls-24{opacity:0.7;}.cls-25{fill:url(#linear-gradient-18);}.cls-26{fill:url(#linear-gradient-19);}.cls-27{fill:url(#linear-gradient-20);}.cls-28{opacity:0.6;}.cls-29{fill:#b78f6a;}.cls-30{fill:#d5b392;}.cls-31{fill:#f6d7b3;}.cls-32{fill:url(#linear-gradient-22);}.cls-33{fill:url(#linear-gradient-23);}.cls-34{fill:url(#linear-gradient-24);}.cls-35{fill:url(#linear-gradient-25);}.cls-36{fill:url(#linear-gradient-26);}.cls-37{fill:url(#linear-gradient-27);}.cls-38{fill:url(#linear-gradient-28);}.cls-39{fill:url(#linear-gradient-29);}.cls-40{fill:url(#linear-gradient-30);}.cls-41{fill:url(#linear-gradient-31);}.cls-42{fill:url(#linear-gradient-32);}.cls-43{fill:url(#linear-gradient-33);}.cls-44{fill:url(#linear-gradient-34);}.cls-45{fill:url(#linear-gradient-35);}.cls-46{fill:url(#linear-gradient-36);}.cls-47{mix-blend-mode:overlay;}.cls-48{fill:url(#linear-gradient-37);}.cls-49{fill:url(#linear-gradient-38);}.cls-50{fill:url(#linear-gradient-39);}.cls-51{fill:url(#linear-gradient-40);}.cls-52{fill:url(#linear-gradient-41);}.cls-53{fill:url(#linear-gradient-42);}.cls-54{fill:url(#linear-gradient-43);}.cls-55{fill:url(#linear-gradient-44);}.cls-56{fill:url(#linear-gradient-45);}.cls-57{fill:url(#linear-gradient-46);}.cls-58{fill:url(#linear-gradient-47);}.cls-59{fill:url(#linear-gradient-48);}.cls-60{fill:url(#linear-gradient-49);}.cls-61{fill:url(#linear-gradient-50);}.cls-62{fill:url(#linear-gradient-51);}</style><linearGradient id="linear-gradient" x1="423.01" y1="611.38" x2="456.57" y2="904.98" gradientUnits="userSpaceOnUse"><stop offset="0" stop-color="#332f2f" stop-opacity="0"/><stop offset="1" stop-color="#2f2f3f"/></linearGradient><linearGradient id="linear-gradient-2" x1="491.41" y1="603.57" x2="524.97" y2="897.16" xlink:href="#linear-gradient"/><linearGradient id="linear-gradient-3" x1="732.59" y1="576" x2="766.14" y2="869.6" xlink:href="#linear-gradient"/><linearGradient id="linear-gradient-4" x1="621.14" y1="588.74" x2="654.69" y2="882.33" xlink:href="#linear-gradient"/><linearGradient id="linear-gradient-5" x1="309.13" y1="624.4" x2="342.68" y2="917.99" xlink:href="#linear-gradient"/><linearGradient id="linear-gradient-6" x1="398.58" y1="614.18" x2="432.13" y2="907.77" xlink:href="#linear-gradient"/><linearGradient id="linear-gradient-7" x1="589.61" y1="592.34" x2="623.17" y2="885.94" xlink:href="#linear-gradient"/><linearGradient id="linear-gradient-8" x1="540.99" y1="597.9" x2="574.54" y2="891.49" xlink:href="#linear-gradient"/><linearGradient id="linear-gradient-9" x1="411.53" y1="612.7" x2="445.08" y2="906.29" xlink:href="#linear-gradient"/><linearGradient id="linear-gradient-10" x1="173.45" y1="639.91" x2="207" y2="933.5" xlink:href="#linear-gradient"/><linearGradient id="linear-gradient-11" x1="289.42" y1="626.65" x2="322.98" y2="920.24" xlink:href="#linear-gradient"/><linearGradient id="linear-gradient-12" x1="256.95" y1="630.36" x2="290.51" y2="923.95" xlink:href="#linear-gradient"/><linearGradient id="linear-gradient-13" x1="223.15" y1="634.22" x2="256.71" y2="927.82" xlink:href="#linear-gradient"/><linearGradient id="linear-gradient-14" x1="417.63" y1="612" x2="451.18" y2="905.59" xlink:href="#linear-gradient"/><linearGradient id="linear-gradient-15" x1="603.07" y1="590.81" x2="636.62" y2="884.4" xlink:href="#linear-gradient"/><linearGradient id="linear-gradient-16" x1="-5190.08" y1="2926.05" x2="-5043.31" y2="3017.95" gradientTransform="matrix(1, 0, 0, 0, -0.16, 0)" gradientUnits="userSpaceOnUse"><stop offset="0" stop-color="#332f2f" stop-opacity="0"/><stop offset="1" stop-color="#2f2f3f" stop-opacity="0.6"/></linearGradient><linearGradient id="linear-gradient-17" x1="-4986.58" y1="4436.3" x2="-4839.81" y2="4528.2" xlink:href="#linear-gradient-16"/><linearGradient id="linear-gradient-18" x1="507.25" y1="581.51" x2="498.53" y2="778.75" gradientUnits="userSpaceOnUse"><stop offset="0" stop-color="#916c3f"/><stop offset="1" stop-color="#f2d3af"/></linearGradient><linearGradient id="linear-gradient-19" x1="507.25" y1="581.51" x2="498.53" y2="778.75" xlink:href="#linear-gradient-18"/><linearGradient id="linear-gradient-20" x1="507.26" y1="581.51" x2="498.53" y2="778.75" xlink:href="#linear-gradient-18"/><linearGradient id="linear-gradient-22" x1="175.39" y1="505.18" x2="1481.52" y2="603.54" gradientTransform="matrix(1, 0, 0, 1, 0, 0)" xlink:href="#linear-gradient-16"/><linearGradient id="linear-gradient-23" x1="176.35" y1="492.48" x2="2032.97" y2="632.29" gradientTransform="matrix(1, 0, 0, 1, 0, 0)" xlink:href="#linear-gradient-16"/><linearGradient id="linear-gradient-24" x1="185.12" y1="375.96" x2="2041.74" y2="515.77" gradientTransform="matrix(1, 0, 0, 1, 0, 0)" xlink:href="#linear-gradient-16"/><linearGradient id="linear-gradient-25" x1="177.38" y1="478.84" x2="2034" y2="618.64" gradientTransform="matrix(1, 0, 0, 1, 0, 0)" xlink:href="#linear-gradient-16"/><linearGradient id="linear-gradient-26" x1="175.13" y1="508.67" x2="2031.75" y2="648.47" gradientTransform="matrix(1, 0, 0, 1, 0, 0)" xlink:href="#linear-gradient-16"/><linearGradient id="linear-gradient-27" x1="178.92" y1="458.39" x2="2035.54" y2="598.19" gradientTransform="matrix(1, 0, 0, 1, 0, 0)" xlink:href="#linear-gradient-16"/><linearGradient id="linear-gradient-28" x1="188.63" y1="329.37" x2="2045.25" y2="469.17" gradientTransform="matrix(1, 0, 0, 1, 0, 0)" xlink:href="#linear-gradient-16"/><linearGradient id="linear-gradient-29" x1="184.3" y1="386.92" x2="2040.92" y2="526.73" gradientTransform="matrix(1, 0, 0, 1, 0, 0)" xlink:href="#linear-gradient-16"/><linearGradient id="linear-gradient-30" x1="189.78" y1="314.1" x2="2046.4" y2="453.91" gradientTransform="matrix(1, 0, 0, 1, 0, 0)" xlink:href="#linear-gradient-16"/><linearGradient id="linear-gradient-31" x1="184.47" y1="384.61" x2="2041.09" y2="524.42" gradientTransform="matrix(1, 0, 0, 1, 0, 0)" xlink:href="#linear-gradient-16"/><linearGradient id="linear-gradient-32" x1="187.33" y1="346.64" x2="2043.95" y2="486.44" gradientTransform="matrix(1, 0, 0, 1, 0, 0)" xlink:href="#linear-gradient-16"/><linearGradient id="linear-gradient-33" x1="193.83" y1="260.38" x2="2050.45" y2="400.19" gradientTransform="matrix(1, 0, 0, 1, 0, 0)" xlink:href="#linear-gradient-16"/><linearGradient id="linear-gradient-34" x1="195.93" y1="232.46" x2="2052.55" y2="372.26" gradientTransform="matrix(1, 0, 0, 1, 0, 0)" xlink:href="#linear-gradient-16"/><linearGradient id="linear-gradient-35" x1="196.21" y1="228.68" x2="2052.83" y2="368.48" gradientTransform="matrix(1, 0, 0, 1, 0, 0)" xlink:href="#linear-gradient-16"/><linearGradient id="linear-gradient-36" x1="192.93" y1="272.25" x2="2049.55" y2="412.06" gradientTransform="matrix(1, 0, 0, 1, 0, 0)" xlink:href="#linear-gradient-16"/><linearGradient id="linear-gradient-37" x1="134.54" y1="356.09" x2="961" y2="823.85" gradientUnits="userSpaceOnUse"><stop offset="0" stop-color="#455b6b" stop-opacity="0"/><stop offset="1" stop-color="#455b6b"/></linearGradient><linearGradient id="linear-gradient-38" x1="149.78" y1="329.18" x2="1103.25" y2="868.83" xlink:href="#linear-gradient-37"/><linearGradient id="linear-gradient-39" x1="251.25" y1="149.9" x2="1204.72" y2="689.55" xlink:href="#linear-gradient-37"/><linearGradient id="linear-gradient-40" x1="188.42" y1="260.9" x2="1141.9" y2="800.55" xlink:href="#linear-gradient-37"/><linearGradient id="linear-gradient-41" x1="109.04" y1="401.15" x2="1062.52" y2="940.81" xlink:href="#linear-gradient-37"/><linearGradient id="linear-gradient-42" x1="150.64" y1="327.65" x2="1104.12" y2="867.3" xlink:href="#linear-gradient-37"/><linearGradient id="linear-gradient-43" x1="249.79" y1="152.47" x2="1203.27" y2="692.12" xlink:href="#linear-gradient-37"/><linearGradient id="linear-gradient-44" x1="213.58" y1="216.45" x2="1167.06" y2="756.1" xlink:href="#linear-gradient-37"/><linearGradient id="linear-gradient-45" x1="218.95" y1="206.96" x2="1172.43" y2="746.61" xlink:href="#linear-gradient-37"/><linearGradient id="linear-gradient-46" x1="138.28" y1="349.49" x2="1091.76" y2="889.14" xlink:href="#linear-gradient-37"/><linearGradient id="linear-gradient-47" x1="181.03" y1="273.96" x2="1134.51" y2="813.61" xlink:href="#linear-gradient-37"/><linearGradient id="linear-gradient-48" x1="210.68" y1="221.57" x2="1164.16" y2="761.22" xlink:href="#linear-gradient-37"/><linearGradient id="linear-gradient-49" x1="217.25" y1="209.97" x2="1170.72" y2="749.62" xlink:href="#linear-gradient-37"/><linearGradient id="linear-gradient-50" x1="261.62" y1="131.57" x2="1215.1" y2="671.22" xlink:href="#linear-gradient-37"/><linearGradient id="linear-gradient-51" x1="279.12" y1="100.66" x2="1232.59" y2="640.31" xlink:href="#linear-gradient-37"/></defs><g class="cls-1"><g id="Layer_1" data-name="Layer 1"><g class="cls-2"><path class="cls-3" d="M565.82,721.64s-27.37,16.69-21.7,36.76-6.83,25.31-6.83,25.31c-10.77,4.8-18.62-7.58-18.62-7.58-9.3-7.59-15.4,1.47-15.4,1.47-1.95,5-16.49,6.11-16.49,6.11-15.88,2.18-22.42-12.22-22.42-12.22-4.27-16.58-19.8-19.86-19.8-19.86,14-5.13,20.69-12.22,23.12-19.75l-3.32.68L435.85,723c1.3.41,10,2.66,13.88-9.44,0,0,.87-13.3-12.43-16.09-10.18-2.14,3.82-10.61,11-14.47-4.36-9.43-8.42-23.37,9.62-17a40.22,40.22,0,0,0,7.18,1.82l-.71-3.75s5.19,3.86,15.3,3.23a17.78,17.78,0,0,0,7.12-6.71s3.92-12.1,20.74-6a20.58,20.58,0,0,1,2.41,1c1.19-.8,1.85-1.3,1.85-1.3l29.75,2c4.65,22.48,17.43,21.82,17.43,21.82,9.11,3.43,13.06,14.43,13.06,14.43C578.54,706.09,565.82,721.64,565.82,721.64Z" transform="translate(-0.16 -0.05)"/><path class="cls-3" d="M435.85,723l-.16,0Z" transform="translate(-0.16 -0.05)"/><path class="cls-4" d="M595.37,737.67s-5.73,2.59-9.59-.27c0,0-11.3-7.48-19.17-1.2h0c-2.75,2.47-6.72,8.24.2,17.84,0,0,7.86,6.76,10.69,8.73,0,0,8.73,8.07,2.84,21.16,0,0-17.24,16.8-36.65-5.24,0,0-14.42-27.49-32.2-20.07,0,0-15.24,14,1.6,34.91,0,0,8.12,12.44,3.11,22.47,0,0-6.92,11.78-19.83,6.77,0,0-12.47-4.59-3.52-35.35,0,0,8.07-16.8-9.16-18.33,0,0-8.39-1.74-12.38-7.85,0,0-3.29-5.87-17.95-3.93,0,0-31.42,2.22-39.27-11.76,0,0-9.39-13.11,0-21.4,0,0,10.69-4.29,21.6-1.16,0,0,14.61,7.88,22-6,0,0,1.88-11-12.22-17.74,0,0-11.56-2.85-16.36-2.85,0,0-19.85-3.2-15.93-25.49,0,0,6-20.39,29.81-16.54,0,0,14.48,2.76,25.83,13.45,0,0,10.69,8.29,21.82,2.4,0,0,8.21-7.13,6.29-17.53,0,0,1.08-14.13,12.12-14.13a15.33,15.33,0,0,0,11.48-.9s9.3-6,23,1.72c0,0,15.64,8.36,11.27,24.51,0,0-1.74,4.14-7,9.16,0,0-5.67,5.46.44,15.06,0,0,7.43,5,7.31,13.52,0,0,2.07,8,9.49,7.57,0,0,8.72,2.25,16.8-6.47,0,0,9.16-8,16.58,6.47C598.45,709.24,606.69,728.54,595.37,737.67Z" transform="translate(-0.16 -0.05)"/><path class="cls-5" d="M545.58,718.55s-8.82,1.66-13.42,7.41c-4.68,7.11,4.72,8.9,4.72,8.9,9.63,2.06,8.7,8.71,8.7,8.71-5.24,10.47-18.33,8.18-18.33,8.18s-7-3.53-8.58,1.71a3.61,3.61,0,0,1-2.13,4.35c-.09.15-.32.28-.77.33l-.13,0-.41.13c-1.22.55-2,2.37-2.45,3.88a17.08,17.08,0,0,1-.51,2.21h0a13.14,13.14,0,0,1-11.78,9.42c-9-1.45-9-12.22-9-12.22s.23-5.84-3.81-9.73a23.37,23.37,0,0,0-3.65-2.34,7.22,7.22,0,0,1-1.16-.59,55.18,55.18,0,0,0-9.7-3.46s-7.57-3.49-7-10.7c0,0,1.06-12.54,14.59-13.11l-.05,0s9.78-.33,12.22-6.66c.25-.89,1.94-8.09-8.61-11.29a36,36,0,0,0-3.82-.58,12.82,12.82,0,0,1-1.57-.53c-3.28-1.33-10.52-5.42-9.56-15.45,0,0,.64-9.32,9.57-11.1h0a6.43,6.43,0,0,0,4.84-5.07s3.42-5.79,9.32-4.78a9.88,9.88,0,0,1,5.28,2.53s4.94,11.94,14.73,7.1c9.83-5.3,15.25,1.87,15.25,1.87a13.17,13.17,0,0,1-.08,13s-10.61,8.21-3.63,16.18c0,0,4.14,5.06,12.25,1a15.85,15.85,0,0,1,2.86-1.09h0c9.14-3.86,10.78,4.15,10.78,4.15C550.09,718,545.58,718.55,545.58,718.55Z" transform="translate(-0.16 -0.05)"/><path class="cls-4" d="M766.09,824a47.51,47.51,0,0,0,18.32,11.45s5.68.88,7.13,5c0,0,.15,6.54,18.33,13.23,0,0,15,5.82,18,7.86,0,0,3.93,2.47,6.55,0,0,0,4.65-4.8,5.09-8.58,0,0,.29-13.53-18.47-24.15,0,0-16.58-11.93-20.08-25.31,0,0-.29-6.54-3.63-10.62,0,0-8.93-9.3-12.25-11.49A9.35,9.35,0,0,1,783,776s-.44-4.94-11.93-7.85a18.68,18.68,0,0,1-4.94-8.88s-1.75-5.67-4.22-3.78c0,0-3.06,1-3.2,7.57,0,0,.43,2.89-3.64,1.88,0,0-5.44-1.59-5.34,3.5,0,0-2.08,9.35,1.41,22.54,0,0,1.58,4.35,5.08,15.41l1.47,6.12Z" transform="translate(-0.16 -0.05)"/><path class="cls-3" d="M635.71,739.77s-6.3-2.34-5.57-7.88c0,0,2.46-6.27,9.35-2.58,0,0,6.77,3,6,8.24C645.52,737.55,642.88,742.23,635.71,739.77Z" transform="translate(-0.16 -0.05)"/><path class="cls-5" d="M764.49,854.4a5.61,5.61,0,0,1-4.57,2.4s-7.87,2.62-3.51,15.06c0,0,9.91,15.71-1.48,24.65,0,0-5.28,5.89-5.94,6.11,0,0-7.85-4-22.9-31.89,0,0-1.53-6.29-2.62-12.62,0,0-3.24-18.77-5.89-21.92,0,0-6.33-4.26-10.91-8.19,0,0-12.88-15-19.42-28.36,0,0-9.82-22.26-7.2-34.69,0,0,5.45-.44,15.05,5.45a12.85,12.85,0,0,0,4.37,1.09s3.92,1.09,7.63,9.6c0,0,1.1,2.93,7.2,2.23,0,0,1.75.39,1.75-4,0,0-.87-5.24,2-5.24,0,0,4.8.44,6.55,2.62a30,30,0,0,0-.32,3h0c-.17,4.43,1.62,5.59,2.74,5.88a3.82,3.82,0,0,1,.84.1h0c1.37.28,3.25,1.3,5.24,4.29,0,0,5.67,7.85,10.91,8.29l17.45,26.18-1.51,5.23S768.63,849,764.49,854.4Z" transform="translate(-0.16 -0.05)"/><path class="cls-3" d="M770.16,836.07s-5.89,1.75-11.57-8.5c0,0-15.7-26.84-20.29-37.1,0,0-2.4-5.23,0-6.54,0,0,2.4-2.84,8.08,3.71C746.38,787.64,782.16,826.69,770.16,836.07Z" transform="translate(-0.16 -0.05)"/><path class="cls-6" d="M769.71,834.79" transform="translate(-0.16 -0.05)"/><path class="cls-4" d="M290.59,717s-26.4,22.61-18.1,39.84c0,0,6.79,3.93,16.81-5.12,0,0,7.63-6.88,15.7-8.62,0,0,16.14-2.84,26.61-15.71l3.3-18.18Z" transform="translate(-0.16 -0.05)"/><path class="cls-3" d="M303.69,715.07s-10.55,4.39-17.6,3.79c0,0-2.85-8.43,31.22-12.7l6.66,3.08Z" transform="translate(-0.16 -0.05)"/><path class="cls-5" d="M362.15,715.15c7.08,2.81,11.27,10.8,11.27,10.8-.53,9.45-11.7,10.79-11.7,10.79-42.76,5.83-58-21.67-58-21.67s3.24-4.19,7.49-5a46.53,46.53,0,0,0,7.9-5.31,17.15,17.15,0,0,1,1.75-1.62v0h0c2.1-1.67,3.09-1.4,3.09-1.4,6.4,1.79,18.36,1.39,18.36,1.39,16.8-3.14,23.35,0,23.35,0-.68,4.91-6.76,3.36-6.76,3.36-6.33-1.52-7.21,2.77-7.21,2.77C350.81,714.85,362.15,715.15,362.15,715.15Z" transform="translate(-0.16 -0.05)"/><path class="cls-3" d="M413.79,779.48s-5.09-2.75-2.69-10c0,0,.66-5.81,7.35-6,0,0,5.12,1,4.3,10.32C422.75,773.82,419.61,780.2,413.79,779.48Z" transform="translate(-0.16 -0.05)"/><path class="cls-3" d="M626.3,892.07s-1.49,2-5.38-4.36c0,0-6.83-6,0-8.65,0,0,4.39-1,6.34,5.23C627.26,884.29,630.23,890.33,626.3,892.07Z" transform="translate(-0.16 -0.05)"/><path class="cls-3" d="M579.74,842.22v.06h0a2.85,2.85,0,0,1-1.27,1.53c-2.47,1.62-6.84.92-6.84.92-6.11-1-7.56-9.38-7.56-9.38s-.18-2.22-.12-4.38c0-.06,0-3.89-2.3-5a2.15,2.15,0,0,0-2.59,1.86,2.74,2.74,0,0,0-.08.43s-1.17,2.18-2.62-.73c0,0-1.45-8.14,8-8.58,0,0,11.63.11,11.64,12.46-.66,4.89,1.31,6,1.31,6a6.43,6.43,0,0,1,2.45,4.34A1.4,1.4,0,0,1,579.74,842.22Z" transform="translate(-0.16 -0.05)"/><path class="cls-3" d="M442.45,920.15s-3.35-2.18-1.89-8c0,0,2-7.42,8-5.38,0,0,6,3.92,1.31,9.74,0,0-2.91,2.62-3.35,5.38C446.52,921.89,444.58,923.91,442.45,920.15Z" transform="translate(-0.16 -0.05)"/><path class="cls-4" d="M204.44,865.28s2.37-.08-1.55,9.58c0,0-3.93,16.48,0,20.7,0,0,10.25,5.53,20-18,0,0,4.91-9.47,8.84-12.25,0,0,11.43-5.62,8.77-12.83,0,0-4.41-2.41-1.79-5.61,0,0,6.35,1.27,7.83-4.17,0,0,1.22-4.27-6.22-3.69,0,0-3.07.88-6,7.86,0,0-.29,4.15-5.52,1.64,0,0-3.28-5.71-12.41-1.93Z" transform="translate(-0.16 -0.05)"/><path class="cls-3" d="M198.09,863.13s4.19,8.3,14-4.77c0,0,7.42-9.44,7-14.55C219,843.81,218.59,835.64,198.09,863.13Z" transform="translate(-0.16 -0.05)"/><path class="cls-5" d="M198.09,863.13a40.16,40.16,0,0,1-18.19,4.64s-3.49-1.15-11.64,1.47c0,0-16,3.76-19-3.58,0,0-1.74-7.75,10.91-13.21,0,0,24.87-6.91,35.78-16.88,0,0,8.29-10,15.28-8.69,0,0,8.29,1.93,3.93,18C215.11,844.88,210.74,855.71,198.09,863.13Z" transform="translate(-0.16 -0.05)"/><path class="cls-4" d="M327,903.06s6.33,3.49,5,18.11c0,0-3.22,16.58,9.41,20.5,0,0,15-2.61,20.92-24.21,0,0,1.09-13.75,4.14-18.11,0,0,16.8-23.35,14.18-35.35,0,0-2.61-3.89-15.71,9,0,0-9.38,7.19-16.14,7.84a35.06,35.06,0,0,0-14.4,8.73Z" transform="translate(-0.16 -0.05)"/><path class="cls-3" d="M321.87,904.15s-4.44,4.14-2.91,8.07c0,0,2.62,1.91,8.29-5.81,0,0,14.92-23,14.18-31.55C341.43,874.86,338.52,874,321.87,904.15Z" transform="translate(-0.16 -0.05)"/><path class="cls-5" d="M331.47,882.8s-.84,13.84-9.6,21.35c0,0-17.31,19.49-47.35,21.23,0,0-9.67,2.91-14.91,0,0,0-4.24-8.14,11.26-21.23,0,0,5.86-5.49,10.84-10.88,2.83-3.25,6.4-8.2,6.23-12.25A8.4,8.4,0,0,1,288,879a5.1,5.1,0,0,1,2.44-4.1s2.74-2.13,5.81,2.12h0a7.13,7.13,0,0,0,4.19,3.09,5.71,5.71,0,0,0,2.78-.27l.48-.19a6.81,6.81,0,0,0,1.26-.76s2.19-4.18-2.11-8.64c0,0-2.68-5.91,0-9.11a11.83,11.83,0,0,1,7.34-4.36s6.11-.87,7-12.8c0,0-.22-4.79,4.66-5C321.87,838.93,339.32,840.8,331.47,882.8Z" transform="translate(-0.16 -0.05)"/><path class="cls-4" d="M292.59,985.46s-1.81-1.35-.67-5a7.61,7.61,0,0,1,6.71-6.41s6.23.48,2.42,6.5C301.05,980.52,297.14,985.57,292.59,985.46Z" transform="translate(-0.16 -0.05)"/><path class="cls-4" d="M269,1015.89s1.08,10.66,7.4,11.09c0,0,3.28-.21,3.49-7.2,0,0-.88-5,2.18-7.85,0,0,7.31-5.24,6.33-13.86,0,0-1.52-5.67-7.42,3.39,0,0-3.05,3.6-6.65,3.27S269,1015.89,269,1015.89Z" transform="translate(-0.16 -0.05)"/><path class="cls-3" d="M268.34,1007.78s-4.58,7.86-3.27,9.39c0,0,2.62,3.7,8.94-9.39C274,1007.78,279.69,990.77,268.34,1007.78Z" transform="translate(-0.16 -0.05)"/><path class="cls-5" d="M263.1,1015.42s-11.78,8.73-19.63,3.71c0,0-1.11-8.07,10.68-12,0,0,6.34-1.53,6.12-6.11,0,0-1.75-7.85,3.92-8.51,0,0,8.95,2.21,6.77,14.09C271,1006.6,267.47,1012.81,263.1,1015.42Z" transform="translate(-0.16 -0.05)"/><path class="cls-4" d="M466.13,1020.68s-14,25.29-43.29,20.92c0,0-10.66-3.71,1.86-18a23.78,23.78,0,0,1,2.48-2.92,15.51,15.51,0,0,0,6.53-11.74s1.49-7.92,3.59-16.43a22.42,22.42,0,0,0-5.08-14.41s-7.36-19,5.08-20.72c0,0,13.88,1.43,19.55,16.64,0,0,5.67,15.65,11.78,18.49C468.63,992.51,475,1005.44,466.13,1020.68Z" transform="translate(-0.16 -0.05)"/><path class="cls-4" d="M501.86,1003.26a19.19,19.19,0,0,0,4.3,4.74c6.76,7.64,7,27.49,7,27.49,0,4.8-5.89,3.49-5.89,3.49-24,0-34.3-22.47-34.3-22.47s-7.81-16.58-3.66-20.29,6.76-12,6.76-12c4.58-11.78,8.29-15.05,8.29-15.05,4.58-3.06,6.76.21,6.76.21,3.06,3.06,5.46,3.06,5.46,3.06,3.15-1.11,1.21-5.52.55-6.83l-.17-.32,0-.06h0c-1.27-2.68.08-3.92.08-3.92,3.06-.44,5.9,2.62,5.9,2.62,6.76,10.25,1.31,18.76,1.31,18.76S495.5,992.75,501.86,1003.26Z" transform="translate(-0.16 -0.05)"/><path class="cls-3" d="M470.83,1021.31s-3.08-.65-3.29-17.89c0,0-2-12.65,1.65-15.93,0,0,4,2.62,3.8,16.91C473,1004.4,474.34,1020.44,470.83,1021.31Z" transform="translate(-0.16 -0.05)"/><path class="cls-4" d="M645.94,950a21.1,21.1,0,0,1,14.25,7.4s11.64,16.29,23.86,9.6c0,0,10.89-4.34-4.44-18.6,0,0-15.63-7.58-16.8-19.21,0,0-2-14.84-16.87-20.66,0,0-3.2.46-3.2-2.1,0,0-4.15-7.21-9.2-1.68,0,0-3,7,2.22,16.31,0,0,2.91,6.38,1.16,12.2Z" transform="translate(-0.16 -0.05)"/><path class="cls-5" d="M644.41,952c-1.71,6.38-7,20-7,20-.91,3.17-3.78,10.72-10.57,10.2,0,0-3.91-2-5.23-10.92a44,44,0,0,0-1.32-13.11,5.94,5.94,0,0,1-.23-.86,43.32,43.32,0,0,0-2.26-6.41,31.71,31.71,0,0,0-7.68-9.13c-5.72-5.29-10.27-14.15-10.27-14.15s-6.61-13,12-7c0,0,11.34,6,15,6,0,0,5.09.33,8.88,7.61l7.3,14.82A2.11,2.11,0,0,1,644.41,952Z" transform="translate(-0.16 -0.05)"/><path class="cls-3" d="M647.69,955.06s-3.2-.29-9.9-15.42c0,0-4.12-8.77-4.25-12.51,0,0,2.8-2.33,9.49,11.93C643,939.06,650,951.86,647.69,955.06Z" transform="translate(-0.16 -0.05)"/><path class="cls-3" d="M769,833.81a38.63,38.63,0,0,1,1.35,3.73c.41,1.26.75,2.53,1,3.81s.48,2.59.77,3.87.54,2.56.91,3.86c0,0,0,0,.06,0a0,0,0,0,0,0,0,15.53,15.53,0,0,0,0-4,21.12,21.12,0,0,0-1-3.91,39.8,39.8,0,0,0-3.08-7.38.05.05,0,0,0-.09,0Z" transform="translate(-0.16 -0.05)"/><path class="cls-3" d="M769,833.46a40.14,40.14,0,0,0,5.22,6.06,21.1,21.1,0,0,0,3.05,2.62,15.07,15.07,0,0,0,3.6,1.83,0,0,0,0,0,.06,0,0,0,0,0,0,0-.05c-1-.92-2-1.7-3-2.55s-2.1-1.57-3.12-2.42-2-1.72-2.93-2.64A39.19,39.19,0,0,1,769,833.4a.06.06,0,0,0-.07,0A0,0,0,0,0,769,833.46Z" transform="translate(-0.16 -0.05)"/><path class="cls-3" d="M646.7,953.25a18.62,18.62,0,0,1,.63,1.77c.2.6.36,1.2.5,1.81s.23,1.22.37,1.83.25,1.21.43,1.83c0,0,0,0,0,0l0,0a7.18,7.18,0,0,0,0-1.91,10.43,10.43,0,0,0-.46-1.85,19.89,19.89,0,0,0-1.46-3.5h0S646.69,953.24,646.7,953.25Z" transform="translate(-0.16 -0.05)"/><path class="cls-3" d="M646.68,953.26a19.88,19.88,0,0,0,2.48,2.87,10,10,0,0,0,1.44,1.24,7.25,7.25,0,0,0,1.71.87s0,0,0,0,0,0,0,0c-.47-.44-1-.81-1.44-1.21s-1-.74-1.48-1.14-.94-.82-1.39-1.26a18.6,18.6,0,0,1-1.3-1.36h0A.06.06,0,0,0,646.68,953.26Z" transform="translate(-0.16 -0.05)"/><path class="cls-3" d="M470.51,1019.23a22.85,22.85,0,0,1-.37,2.32c-.14.76-.32,1.52-.53,2.27s-.49,1.48-.7,2.22-.45,1.49-.63,2.27a.05.05,0,0,0,0,0l0,0a9,9,0,0,0,1.13-2.1,13,13,0,0,0,.6-2.3,24.76,24.76,0,0,0,.5-4.7,0,0,0,0,0,0,0A0,0,0,0,0,470.51,1019.23Z" transform="translate(-0.16 -0.05)"/><path class="cls-3" d="M470.59,1019a23.73,23.73,0,0,0,1,4.63,12.66,12.66,0,0,0,.84,2.22,9.13,9.13,0,0,0,1.34,2,0,0,0,0,0,0,0,.06.06,0,0,0,0,0c-.26-.76-.58-1.46-.86-2.19s-.64-1.41-.93-2.13-.54-1.46-.77-2.21-.44-1.5-.6-2.27l0,0A0,0,0,0,0,470.59,1019Z" transform="translate(-0.16 -0.05)"/><path class="cls-3" d="M266.52,1016.13a11.87,11.87,0,0,1-1.06.81c-.36.26-.74.5-1.12.73s-.78.42-1.16.65-.77.44-1.15.69c0,0,0,0,0,0h0a5.39,5.39,0,0,0,1.3-.44,7.57,7.57,0,0,0,1.15-.71,14.26,14.26,0,0,0,2.06-1.74v0Z" transform="translate(-0.16 -0.05)"/><path class="cls-3" d="M266.63,1016.09a13.47,13.47,0,0,0-1.41,2.25,6.53,6.53,0,0,0-.53,1.22,5.38,5.38,0,0,0-.23,1.31h0c.19-.4.33-.81.5-1.21s.29-.81.46-1.22.35-.79.55-1.18a13,13,0,0,1,.65-1.15,0,0,0,0,0,0,0Z" transform="translate(-0.16 -0.05)"/><path class="cls-3" d="M320.6,910c-.52.57-1.07,1.1-1.64,1.62s-1.14,1-1.74,1.48-1.24.89-1.84,1.35-1.22.91-1.81,1.43a0,0,0,0,0,0,0h0a9.27,9.27,0,0,0,2.11-1,13.51,13.51,0,0,0,1.81-1.47,23.07,23.07,0,0,0,3.12-3.43,0,0,0,0,0,0,0Z" transform="translate(-0.16 -0.05)"/><path class="cls-3" d="M320.77,909.94a24,24,0,0,0-1.9,4.23,11.66,11.66,0,0,0-.63,2.24,9.09,9.09,0,0,0-.09,2.33s0,0,0,0l0,0c.24-.75.39-1.49.59-2.23s.32-1.48.51-2.22.42-1.47.67-2.19.53-1.44.84-2.14a0,0,0,0,0,0,0S320.78,909.93,320.77,909.94Z" transform="translate(-0.16 -0.05)"/><path class="cls-3" d="M201.9,863.27c-.61.35-1.25.66-1.89,1s-1.3.55-2,.79-1.34.41-2,.64-1.32.44-2,.72c0,0,0,0,0,0h0a8,8,0,0,0,2.13-.26,11.08,11.08,0,0,0,2-.76,20.83,20.83,0,0,0,3.72-2.08s0,0,0,0Z" transform="translate(-0.16 -0.05)"/><path class="cls-3" d="M202.08,863.24a22.11,22.11,0,0,0-2.89,3.14,12,12,0,0,0-1.2,1.77,8.62,8.62,0,0,0-.75,2s0,0,0,0h0c.43-.58.78-1.19,1.17-1.77s.7-1.21,1.08-1.8.79-1.16,1.23-1.71a19.13,19.13,0,0,1,1.35-1.63,0,0,0,0,0,0,0Z" transform="translate(-0.16 -0.05)"/><path class="cls-3" d="M289.39,715.45a29,29,0,0,1-2.65,1.76c-.9.56-1.83,1.08-2.77,1.55s-1.93.87-2.87,1.34-1.9.91-2.84,1.45a0,0,0,0,0,0,.06l0,0a12.49,12.49,0,0,0,3.14-.8,17.32,17.32,0,0,0,2.86-1.5,32.8,32.8,0,0,0,5.16-3.82,0,0,0,0,0,0,0A0,0,0,0,0,289.39,715.45Z" transform="translate(-0.16 -0.05)"/><path class="cls-3" d="M289.66,715.37a32.15,32.15,0,0,0-3.73,5.22,17.7,17.7,0,0,0-1.46,2.88,12.32,12.32,0,0,0-.74,3.16s0,0,0,0l0,0c.53-.95.94-1.92,1.41-2.87s.82-1.93,1.29-2.88,1-1.89,1.5-2.8a31.28,31.28,0,0,1,1.72-2.68,0,0,0,0,0,0-.06A0,0,0,0,0,289.66,715.37Z" transform="translate(-0.16 -0.05)"/></g><path class="cls-7" d="M435.85,723l-.16,0Z" transform="translate(-0.16 -0.05)"/><path class="cls-8" d="M595.37,737.67s-5.73,2.58-9.59-.27c0,0-11.3-7.48-19.17-1.2-2.75,2.47-6.72,8.24.2,17.84,0,0,7.86,6.76,10.69,8.73,0,0,8.73,8.07,2.84,21.16,0,0-17.24,16.8-36.65-5.24l-.45-.8a13.89,13.89,0,0,1-6,5.82c-10.77,4.8-18.62-7.58-18.62-7.58-6.18-5-10.95-2.73-13.45-.62.31,5.11,2.38,11.19,7.87,18,0,0,8.12,12.44,3.11,22.47,0,0-6.92,11.78-19.83,6.77,0,0-12.47-4.59-3.52-35.35a22.66,22.66,0,0,0,1.55-4.92,55.21,55.21,0,0,1-7.62,1.21c-15.88,2.18-22.42-12.22-22.42-12.22a26.82,26.82,0,0,0-9.1-14.39c-.62.06-1.24.12-1.9.21,0,0-31.42,2.22-39.27-11.76,0,0-9.39-13.11,0-21.4,0,0,10.69-4.29,21.6-1.16a21.91,21.91,0,0,0,5.69,1.9L435.85,723c1.3.41,10,2.66,13.88-9.44,0,0,.87-13.3-12.43-16.09h0a51.14,51.14,0,0,0-8.13-1.06s-19.85-3.2-15.93-25.49c0,0,6-20.39,29.81-16.54a58.58,58.58,0,0,1,21.34,9.71h0s5.19,3.86,15.3,3.23a17.78,17.78,0,0,0,7.12-6.71A12.13,12.13,0,0,1,497,653a2.36,2.36,0,0,1,0-.28S498,638.6,509.08,638.6a15.33,15.33,0,0,0,11.48-.9s9.3-6,23,1.72c0,0,15.64,8.36,11.27,24.51a30.39,30.39,0,0,1-6.3,8.49c5.06,6,10.45,5.69,10.45,5.69,9.11,3.43,13.06,14.43,13.06,14.43,2.64,5.47,2.13,11.26.59,16.23a20.67,20.67,0,0,0,9.26-6s9.16-8,16.58,6.47C598.45,709.24,606.69,728.54,595.37,737.67Z" transform="translate(-0.16 -0.05)"/><path class="cls-9" d="M839.54,853c-.44,3.78-5.09,8.58-5.09,8.58-2.62,2.47-6.55,0-6.55,0-3-2-18-7.86-18-7.86-18.18-6.69-18.33-13.23-18.33-13.23-1.45-4.07-7.13-5-7.13-5a48.52,48.52,0,0,1-11.83-6,7.55,7.55,0,0,1-1.69,5.93c.29.29.58.59.88.87.94.93,1.92,1.81,2.93,2.65s2.1,1.59,3.12,2.42,2,1.63,3,2.55a0,0,0,0,1,0,.05,0,0,0,0,1-.06,0,15.07,15.07,0,0,1-3.6-1.83,21.1,21.1,0,0,1-3.05-2.62,43.05,43.05,0,0,1-3.55-3.85,4,4,0,0,1-.43.37,42.5,42.5,0,0,1,1.95,5.1,21.12,21.12,0,0,1,1,3.91,15.53,15.53,0,0,1,0,4,0,0,0,0,1,0,0s-.05,0-.06,0c-.37-1.3-.6-2.58-.91-3.86s-.47-2.58-.77-3.87-.64-2.55-1-3.81c-.15-.47-.31-.94-.47-1.4-1.17.17-5.47.27-9.93-6.4h0s8.71,19.21,4.57,24.66a5.61,5.61,0,0,1-4.57,2.4s-7.87,2.62-3.51,15.06c0,0,9.91,15.71-1.48,24.65,0,0-5.28,5.89-5.94,6.11,0,0-7.85-4-22.9-31.89,0,0-1.53-6.29-2.62-12.62,0,0-3.24-18.77-5.89-21.92,0,0-6.33-4.26-10.91-8.19,0,0-12.88-15-19.42-28.36,0,0-9.82-22.26-7.2-34.69,0,0,5.45-.44,15.05,5.45a12.85,12.85,0,0,0,4.37,1.09s3.92,1.09,7.63,9.6c0,0,1.1,2.93,7.2,2.23,0,0,1.75.39,1.75-4,0,0-.87-5.24,2-5.24,0,0,4.8.44,6.55,2.62a30,30,0,0,0-.32,3c-.17,4.43,1.62,5.59,2.74,5.88a3.82,3.82,0,0,1,.84.1h0c1.37.28,3.25,1.3,5.24,4.29,0,0,4.3,6,8.87,7.78-1.49-2.85-2.77-5.4-3.64-7.35,0,0-2.4-5.23,0-6.54,0,0,2.4-2.84,8.08,3.71,0,0,2.5,2.73,6,6.92-.84-2.48-1.24-3.58-1.24-3.58-3.49-13.19-1.41-22.54-1.41-22.54-.1-5.09,5.34-3.5,5.34-3.5,4.07,1,3.64-1.88,3.64-1.88.14-6.55,3.2-7.57,3.2-7.57,2.47-1.89,4.22,3.78,4.22,3.78a18.68,18.68,0,0,0,4.94,8.88C782.52,771.06,783,776,783,776a9.35,9.35,0,0,0,2.15,5.38c3.32,2.19,12.25,11.49,12.25,11.49C800.7,797,801,803.49,801,803.49c3.5,13.38,20.08,25.31,20.08,25.31C839.83,839.42,839.54,853,839.54,853Z" transform="translate(-0.16 -0.05)"/><path class="cls-10" d="M635.71,739.77s-6.3-2.34-5.57-7.88c0,0,2.46-6.27,9.35-2.58,0,0,6.77,3,6,8.24C645.52,737.55,642.88,742.23,635.71,739.77Z" transform="translate(-0.16 -0.05)"/><path class="cls-11" d="M373.42,726s-4.19-8-11.27-10.8c0,0-11.34-.3-10.47-5.91,0,0,.88-4.29,7.21-2.77,0,0,6.08,1.55,6.76-3.36,0,0-6.55-3.14-23.35,0,0,0-12,.4-18.36-1.39,0,0-1-.27-3.09,1.4h0l0,0a17.15,17.15,0,0,0-1.75,1.62c-.59.5-1.19,1-1.78,1.41-25.83,3.24-30.43,8.87-31.15,11.4-.71.42-1.44.83-2.18,1.2-1,.48-1.93.87-2.87,1.34s-1.9.91-2.84,1.45a0,0,0,0,0,0,.06l0,0a12.49,12.49,0,0,0,3.14-.8,17.32,17.32,0,0,0,2.86-1.5c.6-.36,1.18-.75,1.76-1.14a2,2,0,0,0,0,.67l.89,0c-.36.55-.72,1.11-1.05,1.68a22.84,22.84,0,0,0-1.17,2.18c-7.24,7.82-18,22.24-12.27,34.1,0,0,6.79,3.93,16.81-5.12,0,0,7.63-6.88,15.7-8.62a50.48,50.48,0,0,0,21-10.08c8.81,3.62,20.52,5.76,35.72,3.69C361.72,736.74,372.89,735.4,373.42,726ZM286.5,720.9c.32-.67.68-1.33,1-2l1,0c-.61.58-1.32,1.28-2.12,2.1A.2.2,0,0,1,286.5,720.9Z" transform="translate(-0.16 -0.05)"/><path class="cls-12" d="M418.45,763.5s5.12,1,4.3,10.32c0,0-3.14,6.38-9,5.66,0,0-5.09-2.75-2.69-10C411.1,769.46,411.76,763.65,418.45,763.5Z" transform="translate(-0.16 -0.05)"/><path class="cls-13" d="M626.3,892.07s-1.49,2-5.38-4.36c0,0-6.83-6,0-8.65,0,0,4.39-1,6.34,5.23C627.26,884.29,630.23,890.33,626.3,892.07Z" transform="translate(-0.16 -0.05)"/><path class="cls-14" d="M564.34,818.91S576,819,576,831.37c-.66,4.89,1.31,6,1.31,6a6.43,6.43,0,0,1,2.45,4.34,1.4,1.4,0,0,1,0,.5v.06h0a2.85,2.85,0,0,1-1.27,1.53c-2.47,1.62-6.84.92-6.84.92-6.11-1-7.56-9.38-7.56-9.38s-.18-2.22-.12-4.38c0-.06,0-3.89-2.3-5a2.15,2.15,0,0,0-2.59,1.86,2.74,2.74,0,0,0-.08.43s-1.17,2.18-2.62-.73C556.34,827.49,554.89,819.35,564.34,818.91Z" transform="translate(-0.16 -0.05)"/><path class="cls-15" d="M446.52,921.89s-1.94,2-4.07-1.74c0,0-3.35-2.18-1.89-8,0,0,2-7.42,8-5.38,0,0,6,3.92,1.31,9.74C449.87,916.51,447,919.13,446.52,921.89Z" transform="translate(-0.16 -0.05)"/><path class="cls-16" d="M238.67,846.84c-2.62,3.2,1.79,5.61,1.79,5.61,2.66,7.21-8.77,12.83-8.77,12.83-3.93,2.78-8.84,12.25-8.84,12.25-9.71,23.56-20,18-20,18-3.93-4.22,0-20.7,0-20.7,3.92-9.66,1.55-9.58,1.55-9.58h0a4.9,4.9,0,0,1-4,.07c-.32.42-.63.84-.92,1.28s-.71,1.21-1.08,1.8-.74,1.19-1.17,1.77h0s0,0,0,0a8.62,8.62,0,0,1,.75-2,12,12,0,0,1,1.2-1.77c.31-.41.65-.79,1-1.18a4.09,4.09,0,0,1-.67-.44c-.43.22-.85.45-1.29.64a11.08,11.08,0,0,1-2,.76,8,8,0,0,1-2.13.26h0s0,0,0,0c.67-.28,1.34-.48,2-.72s1.34-.4,2-.64c.4-.14.78-.31,1.17-.48a5.2,5.2,0,0,1-1.13-1.4,40.16,40.16,0,0,1-18.19,4.64s-3.49-1.15-11.64,1.47c0,0-16,3.76-19-3.58,0,0-1.74-7.75,10.91-13.21,0,0,24.87-6.91,35.78-16.88,0,0,8.29-10,15.28-8.69,0,0,7.86,1.84,4.24,16.78,3.47-2.29,3.61.15,3.61.15a7,7,0,0,1-.14,1.9c7.21-1.85,9.89,2.77,9.89,2.77,5.23,2.51,5.52-1.64,5.52-1.64,2.91-7,6-7.86,6-7.86,7.44-.58,6.22,3.69,6.22,3.69C245,848.11,238.67,846.84,238.67,846.84Z" transform="translate(-0.16 -0.05)"/><path class="cls-17" d="M362.38,917.46c-5.89,21.6-20.92,24.21-20.92,24.21-12.63-3.92-9.41-20.5-9.41-20.5.89-9.93-1.74-14.73-3.53-16.78-.78,1.27-1.27,2-1.27,2-3.75,5.1-6.16,6-7.36,6-.21.62-.41,1.25-.58,1.88s-.32,1.49-.51,2.22-.35,1.48-.59,2.23l0,0s0,0,0,0a9.09,9.09,0,0,1,.09-2.33,11.66,11.66,0,0,1,.63-2.24c.2-.6.44-1.18.69-1.76a1.42,1.42,0,0,1-.6-.19s0-.08,0-.12c-.45.48-.91.95-1.4,1.4a13.51,13.51,0,0,1-1.81,1.47,9.27,9.27,0,0,1-2.11,1h0a0,0,0,0,1,0,0c.59-.52,1.21-.95,1.81-1.43s1.24-.87,1.84-1.35,1.09-.89,1.61-1.36c-.79-2.85,1.31-5.72,2.41-7a73.25,73.25,0,0,1-46.72,20.58s-9.67,2.91-14.91,0c0,0-4.24-8.14,11.26-21.23,0,0,5.86-5.49,10.84-10.88,2.83-3.25,6.4-8.2,6.23-12.25A8.4,8.4,0,0,1,288,879a5.1,5.1,0,0,1,2.44-4.1s2.74-2.13,5.81,2.12h0a7.09,7.09,0,0,0,4.19,3.09,5.71,5.71,0,0,0,2.78-.27l.48-.19a6.81,6.81,0,0,0,1.26-.76s2.19-4.18-2.11-8.64c0,0-2.68-5.91,0-9.11a11.83,11.83,0,0,1,7.34-4.36s6.11-.87,7-12.8c0,0-.22-4.79,4.66-5,0,0,17.45,1.87,9.6,43.87a38,38,0,0,1-1.23,6.83c9.31-15.28,11.19-14.77,11.19-14.77.23,2.71-1.1,6.86-3,11.26a34.1,34.1,0,0,1,10.45-5.32C355.61,880.15,365,873,365,873c13.1-12.85,15.71-9,15.71-9,2.62,12-14.18,35.35-14.18,35.35C363.47,903.71,362.38,917.46,362.38,917.46Z" transform="translate(-0.16 -0.05)"/><path class="cls-18" d="M298.63,974s6.23.48,2.41,6.5c0,0-3.9,5.05-8.45,4.94,0,0-1.81-1.35-.68-5A7.63,7.63,0,0,1,298.63,974Z" transform="translate(-0.16 -0.05)"/><path class="cls-19" d="M264.19,992.51s7.4,1.83,7.1,11.1c4.94-6.47,4.44-2.26,3.6,1.13,3.35,0,6.1-3.28,6.1-3.28,5.9-9.06,7.42-3.39,7.42-3.39,1,8.62-6.33,13.86-6.33,13.86-3.06,2.84-2.18,7.85-2.18,7.85-.21,7-3.49,7.2-3.49,7.2-6.32-.43-7.4-11.09-7.4-11.09h0c-1.49,1.62-2.53,1.86-3.16,1.73-.14.27-.27.55-.39.82s-.29.82-.46,1.22-.31.81-.5,1.21h0a5.38,5.38,0,0,1,.23-1.31,6.53,6.53,0,0,1,.53-1.22c.13-.26.28-.52.43-.77a1.53,1.53,0,0,1-.43-.24c-.24.19-.48.38-.73.56a7.57,7.57,0,0,1-1.15.71,5.39,5.39,0,0,1-1.3.44h0s0,0,0,0c.38-.25.77-.46,1.15-.69s.78-.42,1.16-.65.5-.32.75-.48l0,0c-.49-.57-.16-2,.44-3.59a14.8,14.8,0,0,1-2.41,1.84s-11.78,8.73-19.63,3.71c0,0-1.11-8.07,10.68-12,0,0,6.34-1.53,6.12-6.11C260.27,1001,258.52,993.17,264.19,992.51Z" transform="translate(-0.16 -0.05)"/><path class="cls-20" d="M427.18,1020.68a15.51,15.51,0,0,0,6.53-11.74s1.49-7.92,3.59-16.43a22.42,22.42,0,0,0-5.08-14.41s-7.36-19,5.08-20.72c0,0,13.88,1.43,19.55,16.64,0,0,4.9,13.52,10.5,17.7a7.48,7.48,0,0,1,1.83-4.23s1.63,1.07,2.76,5.51a41.06,41.06,0,0,0,4.11-8.78c4.58-11.78,8.29-15.05,8.29-15.05,4.58-3.06,6.76.21,6.76.21,3.06,3.06,5.46,3.06,5.46,3.06,3.15-1.11,1.21-5.52.55-6.83l-.17-.32,0-.06h0c-1.27-2.68.08-3.92.08-3.92,3.06-.44,5.9,2.62,5.9,2.62,6.76,10.25,1.31,18.76,1.31,18.76s-8.7,10.06-2.34,20.57a19.19,19.19,0,0,0,4.3,4.74c6.76,7.64,7,27.49,7,27.49,0,4.8-5.89,3.49-5.89,3.49-24,0-34.3-22.47-34.3-22.47h0c-.28,2.24-.81,4-1.74,4.64l0,.16c.23.75.49,1.49.77,2.21s.64,1.42.93,2.13.6,1.43.86,2.19a.06.06,0,0,1,0,0,0,0,0,0,1,0,0,9.13,9.13,0,0,1-1.34-2,12.66,12.66,0,0,1-.84-2.22c-.25-.79-.46-1.6-.63-2.41l-.12,0a.83.83,0,0,1-.35-.24,27.35,27.35,0,0,1-.41,2.86,13,13,0,0,1-.6,2.3,9,9,0,0,1-1.13,2.1l0,0a.05.05,0,0,1,0,0c.18-.78.42-1.52.63-2.27s.49-1.47.7-2.22.39-1.51.53-2.27c.05-.24.09-.47.13-.7-.48-.6-1.19-2-1.77-5.06a37,37,0,0,1-2.37,4.89s-14,25.29-43.29,20.92c0,0-10.66-3.71,1.86-18A23.78,23.78,0,0,1,427.18,1020.68Z" transform="translate(-0.16 -0.05)"/><path class="cls-21" d="M684.05,967c-12.22,6.69-23.86-9.6-23.86-9.6a21.78,21.78,0,0,0-12.49-7.19,8.08,8.08,0,0,1,.25,4.33l.07.07c.45.44.91.86,1.39,1.26s1,.75,1.48,1.14,1,.77,1.44,1.21c0,0,0,0,0,0s0,0,0,0a7.25,7.25,0,0,1-1.71-.87,10,10,0,0,1-1.44-1.24,18.65,18.65,0,0,1-1.3-1.37,2.14,2.14,0,0,1-.17.3l-.1,0c.22.56.43,1.12.61,1.7a10.43,10.43,0,0,1,.46,1.85,7.18,7.18,0,0,1,0,1.91l0,0s0,0,0,0c-.18-.62-.29-1.22-.43-1.83s-.22-1.22-.37-1.83-.3-1.21-.5-1.81c0,0,0-.08,0-.12a10.16,10.16,0,0,1-2.87-2.95,0,0,0,0,1,0,0c-1.71,6.38-7,20-7,20-.91,3.17-3.78,10.72-10.57,10.2,0,0-3.91-2-5.23-10.91a44,44,0,0,0-1.32-13.12,5.94,5.94,0,0,1-.23-.86,43.32,43.32,0,0,0-2.26-6.41,31.71,31.71,0,0,0-7.68-9.13c-5.72-5.29-10.27-14.15-10.27-14.15s-6.61-13,12-7c0,0,11.34,6,15,6,0,0,4.65.32,8.36,6.69a23.74,23.74,0,0,1-1.63-6.22s1.21-1,3.93,2.34a22.09,22.09,0,0,0-1.71-8.43c-5.24-9.28-2.22-16.31-2.22-16.31,5.05-5.53,9.2,1.68,9.2,1.68,0,2.56,3.2,2.1,3.2,2.1,14.84,5.82,16.87,20.66,16.87,20.66,1.17,11.63,16.8,19.21,16.8,19.21C694.94,962.64,684.05,967,684.05,967Z" transform="translate(-0.16 -0.05)"/><rect class="cls-22" width="53"/><rect class="cls-23" x="974" y="1172" width="53"/><g class="cls-24"><path class="cls-25" d="M808.4,653.94l.45-.22L768,633.09V609.65l.69-.35-.45-.22h-1.38l-69.58-11.72L656.9,577l-.45-.23H574.79L505.2,565l-.69-.35h-.9l-.69.35-69.59,11.72H351.67l-40.84,20.63-69.58,11.72h-1.39l-.44.22.69.35v23.44l-40.39,20.4-.45.23,40.84,20.62v23.44l-.69.35.44.23h1.39l69.58,11.71,40.39,20.41.45.22h81.66l69.59,11.72.69.35h.9l.69-.35,69.59-11.72h81.66l40.84-20.63,69.58-11.71h1.38l.45-.23-.69-.35V674.35ZM590.63,697.45H417.49l-86.56-43.73L417.49,610H590.63l86.56,43.74Zm46.75-65.66,93.35-15.72,10.49,5.3L679,652.81Zm91.8-16.51L635.83,631l-41.61-21H718.68Zm-140.35-6.2H505.62V577.64h21ZM502.5,577.64v31.44H419.29l62.23-31.44ZM413.9,610l-41.61,21-93.35-15.72,10.49-5.3Zm-136.51,6.09,93.34,15.72-41.6,21L266.9,621.37Zm51.74,38.55,41.6,21-93.34,15.72-10.49-5.3Zm-50.19,37.53,93.35-15.72,41.61,21H289.43Zm140.35,6.21H502.5v31.43h-21Zm86.33,31.43V698.36h83.21L526.6,729.79Zm88.6-32.34,41.61-21,93.35,15.72-10.5,5.3Zm136.51-6.09-93.35-15.72,41.61-21,62.23,31.44Zm2.7-75.74,28.77-4.85L743,620.46Zm-1.56-.79L722.28,610h38.37Zm-226.25-38.1V567l19.18,9.69Zm-3.12,0H483.32L502.5,567Zm-226.25,38.1L247.47,610h38.37Zm-1.56.79-9.59,4.84-19.18-9.69Zm0,76.2-28.77,4.84L265.1,687Zm1.56.78,9.59,4.85H247.47ZM502.5,730.7v9.69l-19.18-9.69Zm3.12,0H524.8l-19.18,9.69Zm226.25-38.1,28.78,4.85H722.28Zm1.56-.78L743,687l19.18,9.69Zm-141-82.74-62.23-31.44H574L695,598l21.88,11.06Zm-176.72,0H291.23L313.11,598l121.06-20.38h43.76Zm-88.37,44.64L265.1,685.15l-21.88-11V633.33l21.88-11.05Zm88.37,44.64,62.23,31.43H434.17L313.11,709.41l-21.88-11Zm176.72,0H716.89l-21.88,11L574,729.79H530.19Zm88.37-44.64L743,622.28l21.88,11.05V674.1l-21.88,11ZM768,634.9l37.24,18.82L768,672.53Zm-23.19-13.53,20.08-10.15v20.3Zm-24.34-12.29L700.4,598.93l60.25,10.15Zm-140.3-31.44h74.48l37.23,18.81Zm-51.79-.91-20.08-10.15,60.25,10.15Zm-48.67,0H439.56l60.25-10.15Zm-163.5,19.72,37.24-18.81h74.48Zm-28.58,12.63H247.47l60.25-10.15ZM263.3,621.37l-20.08,10.15v-20.3Zm-23.19,51.16-37.24-18.81,37.24-18.82Zm23.19,13.53-20.08,10.15V675.92Zm24.34,12.3,20.08,10.14-60.25-10.14Zm140.3,31.43H353.46L316.22,711Zm51.78.91,20.09,10.15L439.56,730.7Zm48.67,0h40.17l-60.25,10.15ZM691.89,711l-37.23,18.81H580.18Zm28.59-12.62h40.17L700.4,708.5Zm24.34-12.3,20.08-10.14v20.29Z" transform="translate(-0.16 -0.05)"/><path class="cls-26" d="M584.73,613H423.38l-80.22,40.53-.45.23,80.22,40.52.45.23H584.73L665,653.94l.45-.22-80.23-40.53Zm-220.4,40.76c0,4.36,2.37,8.56,6.74,12.51L346.3,653.72l24.77-12.52C366.7,645.15,364.33,649.35,364.33,653.72Zm3.11,0c0-22,61.29-39.85,136.62-39.85s136.62,17.87,136.62,39.85-61.29,39.84-136.62,39.84S367.44,675.69,367.44,653.72Zm276.35,0c0-4.37-2.37-8.57-6.74-12.52l24.77,12.52-24.77,12.51C641.42,662.28,643.79,658.08,643.79,653.72ZM533.42,613.87h49.52l24.94,12.6C588.54,620.21,562.66,615.7,533.42,613.87Zm-133.18,12.6,24.94-12.6H474.7C445.45,615.7,419.58,620.21,400.24,626.47Zm74.46,67.09H425.18L400.24,681C419.58,687.22,445.45,691.73,474.7,693.56ZM607.88,681l-24.94,12.6H533.42C562.66,691.73,588.54,687.23,607.88,681Z" transform="translate(-0.16 -0.05)"/><path class="cls-27" d="M504.06,666.48c23.9,0,43.35-5.68,43.35-12.65S528,641.19,504.06,641.19s-43.35,5.67-43.35,12.64S480.16,666.48,504.06,666.48Zm0-22.57c18.75,0,34,4.45,34,9.92s-15.26,9.92-34,9.92-34-4.45-34-9.92S485.31,643.91,504.06,643.91Z" transform="translate(-0.16 -0.05)"/><path class="cls-27" d="M562.35,653.83c0-9.37-26.15-17-58.29-17s-58.3,7.63-58.3,17,26.16,17,58.3,17S562.35,663.21,562.35,653.83Zm-58.29-16.09c30.43,0,55.18,7.22,55.18,16.09s-24.75,16.1-55.18,16.1-55.18-7.22-55.18-16.1S473.63,637.74,504.06,637.74Z" transform="translate(-0.16 -0.05)"/></g><g class="cls-28"><path class="cls-29" d="M504.44,506.8c.61,3,1,5.92,1.53,8.88l.63,4.43.51,4.44c.16,1.47.47,3,.72,4.43a13.78,13.78,0,0,1,0,4.44,23.4,23.4,0,0,1-1.12,4.43,17.18,17.18,0,0,1-2.31,4.44h-.76a17.23,17.23,0,0,1-2.32-4.44,23.36,23.36,0,0,1-1.11-4.43,14.07,14.07,0,0,1,0-4.44c.26-1.48.57-3,.73-4.43l.51-4.44.63-4.43c.52-3,.92-5.92,1.53-8.88Z" transform="translate(-0.16 -0.05)"/><path class="cls-29" d="M417,509c2.36,2.88,4.52,5.77,6.78,8.66L427,522l3.15,4.34c1,1.45,2.22,2.89,3.35,4.33a21.36,21.36,0,0,1,2.68,4.37,25.34,25.34,0,0,1,1.54,4.43,12.56,12.56,0,0,1,.36,4.48l-.75,0a38.16,38.16,0,0,1-4.92-4.25,46.57,46.57,0,0,1-3.74-4.31,20.87,20.87,0,0,1-2.6-4.37c-.63-1.47-1.21-2.94-1.93-4.41L422,522.27l-2-4.4c-1.26-2.94-2.62-5.87-3.78-8.81Z" transform="translate(-0.16 -0.05)"/><path class="cls-29" d="M332.14,515.63c4,2.71,7.89,5.45,11.84,8.18l5.79,4.1,5.69,4.12c1.88,1.37,3.9,2.73,5.88,4.1a46.63,46.63,0,0,1,5.23,4.16,50.16,50.16,0,0,1,4.15,4.28,21,21,0,0,1,3,4.4L373,549a81.79,81.79,0,0,1-7.37-3.93q-3.35-2-6.25-4.06a46.66,46.66,0,0,1-5.17-4.17c-1.49-1.42-2.94-2.83-4.52-4.24L345,528.42l-4.6-4.23c-3-2.83-6.08-5.65-9-8.49Z" transform="translate(-0.16 -0.05)"/><path class="cls-29" d="M252.54,526.43c5.6,2.47,11,5,16.53,7.46l8.15,3.75,8,3.77c2.67,1.25,5.47,2.49,8.23,3.73s5.3,2.52,7.63,3.84,4.56,2.64,6.64,4a47.15,47.15,0,0,1,5.6,4.18l-.66.11c-3.48-1.12-6.6-2.3-9.61-3.5s-5.84-2.43-8.57-3.68-5.25-2.53-7.57-3.85-4.58-2.64-7-3.94l-7.16-3.92-7.05-3.93c-4.63-2.64-9.35-5.26-13.89-7.91Z" transform="translate(-0.16 -0.05)"/><path class="cls-29" d="M180.58,541.1c7,2.15,13.81,4.34,20.72,6.51l10.26,3.28,10.16,3.3c3.39,1.11,6.88,2.18,10.33,3.27s6.73,2.21,9.81,3.39,6.06,2.37,8.92,3.6,5.58,2.5,8,3.83l-.59.15c-4.09-.93-7.87-1.94-11.54-3s-7.21-2.09-10.63-3.18-6.68-2.23-9.75-3.41-6.09-2.37-9.22-3.53l-9.38-3.5-9.29-3.51c-6.13-2.36-12.33-4.7-18.38-7.08Z" transform="translate(-0.16 -0.05)"/><path class="cls-30" d="M118.45,559.2c8.16,1.76,16.18,3.57,24.28,5.36l12.05,2.71,12,2.74c4,.91,8.07,1.79,12.12,2.68s7.93,1.85,11.67,2.85,7.39,2,10.93,3.1,7,2.17,10.16,3.37l-.49.17c-4.58-.71-8.9-1.51-13.13-2.34s-8.35-1.7-12.37-2.6-7.9-1.85-11.63-2.86-7.4-2-11.18-3l-11.32-3-11.24-3c-7.44-2-15-4-22.32-6Z" transform="translate(-0.16 -0.05)"/><path class="cls-30" d="M68,580.16c9.08,1.33,18.06,2.71,27.1,4.05l13.48,2.06,13.43,2.09c4.47.7,9,1.36,13.53,2s8.91,1.41,13.19,2.2,8.48,1.63,12.61,2.5,8.17,1.79,12,2.81l-.38.19c-4.94-.47-9.66-1-14.33-1.64s-9.22-1.25-13.73-1.93-8.88-1.43-13.15-2.23-8.49-1.62-12.8-2.4l-12.92-2.35-12.85-2.37c-8.52-1.61-17.1-3.19-25.58-4.82Z" transform="translate(-0.16 -0.05)"/><path class="cls-30" d="M30.87,603.37c9.73.84,19.4,1.74,29.1,2.61l14.5,1.35,14.47,1.37c4.82.46,9.69.88,14.54,1.32s9.62.94,14.3,1.51,9.33,1.17,13.91,1.82,9.11,1.35,13.5,2.15l-.27.21c-5.13-.21-10.13-.53-15.08-.88s-9.83-.77-14.67-1.21-9.59-1-14.27-1.53-9.34-1.17-14.05-1.72l-14.11-1.65L58.67,607c-9.36-1.16-18.74-2.28-28.06-3.46Z" transform="translate(-0.16 -0.05)"/><path class="cls-30" d="M8.08,628.1c10.09.33,20.14.73,30.22,1.1l15.08.59,15.07.62c5,.21,10.06.38,15.1.56s10,.44,15,.76,9.88.68,14.78,1.09,9.77.87,14.58,1.44l-.14.22c-5.18,0-10.29,0-15.37-.11s-10.14-.26-15.17-.45-10-.45-15-.78-9.89-.67-14.85-1l-14.89-.92-14.87-1c-9.89-.66-19.8-1.29-29.68-2Z" transform="translate(-0.16 -0.05)"/><path class="cls-30" d="M.36,653.61c10.14-.18,20.28-.3,30.42-.45L46,653l15.21-.15c5.07-.05,10.14-.14,15.21-.21s10.13-.08,15.2,0,10.14.18,15.21.33,10.14.36,15.2.68v.22c-5.06.32-10.13.51-15.2.67s-10.14.26-15.21.33-10.14.06-15.2,0-10.14-.17-15.21-.21L46,654.46l-15.2-.19c-10.14-.15-20.28-.26-30.42-.44Z" transform="translate(-0.16 -0.05)"/><path class="cls-30" d="M8,679.12c9.88-.69,19.79-1.32,29.68-2l14.87-.95,14.89-.92c5-.3,9.9-.65,14.85-1s9.93-.59,15-.78,10.08-.34,15.17-.45,10.19-.16,15.37-.1l.14.22c-4.81.57-9.68,1-14.58,1.43s-9.83.77-14.78,1.09-10,.57-15,.76-10.08.35-15.1.56l-15.07.63-15.08.58c-10.08.37-20.13.77-30.22,1.11Z" transform="translate(-0.16 -0.05)"/><path class="cls-31" d="M30.61,703.86c9.32-1.18,18.7-2.3,28.06-3.45l14.07-1.69,14.11-1.66c4.71-.55,9.37-1.14,14.05-1.72s9.43-1.08,14.27-1.52,9.73-.85,14.67-1.21,9.95-.68,15.08-.89l.27.21c-4.39.81-8.93,1.5-13.5,2.15s-9.22,1.26-13.91,1.83-9.46,1.06-14.3,1.5-9.72.86-14.54,1.32l-14.47,1.38L60,701.45c-9.7.87-19.37,1.77-29.1,2.62Z" transform="translate(-0.16 -0.05)"/><path class="cls-31" d="M67.65,727.08c8.48-1.64,17.06-3.22,25.58-4.82l12.85-2.38L119,717.53c4.31-.78,8.54-1.6,12.8-2.4s8.65-1.55,13.15-2.23,9.08-1.33,13.73-1.93,9.39-1.17,14.33-1.64l.38.2c-3.84,1-7.9,1.92-12,2.8s-8.33,1.7-12.61,2.5-8.68,1.53-13.19,2.21-9.06,1.33-13.53,2l-13.43,2.09-13.48,2.06c-9,1.35-18,2.72-27.1,4Z" transform="translate(-0.16 -0.05)"/><path class="cls-31" d="M118,748.06c7.37-2,14.88-4,22.32-6l11.24-3,11.32-3c3.78-1,7.47-2,11.18-3s7.6-2,11.63-2.86,8.14-1.77,12.37-2.6,8.55-1.63,13.13-2.33l.49.17c-3.18,1.19-6.63,2.29-10.16,3.36s-7.19,2.11-10.93,3.11-7.64,1.94-11.67,2.84-8.13,1.77-12.12,2.69l-12,2.73-12.05,2.71c-8.1,1.79-16.12,3.6-24.28,5.36Z" transform="translate(-0.16 -0.05)"/><path class="cls-31" d="M180,766.19c6.05-2.38,12.25-4.72,18.38-7.09l9.29-3.51,9.38-3.5c3.13-1.16,6.16-2.35,9.22-3.53s6.31-2.31,9.75-3.4,7-2.16,10.63-3.19,7.45-2,11.54-3l.59.15c-2.42,1.34-5.16,2.59-8,3.83s-5.84,2.43-8.92,3.61-6.36,2.3-9.81,3.39-6.94,2.16-10.33,3.26l-10.16,3.3-10.26,3.28c-6.91,2.17-13.74,4.36-20.72,6.51Z" transform="translate(-0.16 -0.05)"/><path class="cls-31" d="M251.88,780.89c4.54-2.65,9.26-5.27,13.89-7.9l7.05-3.94,7.16-3.91c2.4-1.31,4.67-2.63,7-3.95s4.83-2.6,7.57-3.85,5.58-2.47,8.57-3.67,6.13-2.39,9.61-3.51l.66.11a47.15,47.15,0,0,1-5.6,4.18c-2.08,1.36-4.3,2.69-6.64,4s-4.89,2.59-7.63,3.83-5.56,2.48-8.23,3.74l-8,3.76-8.15,3.75c-5.52,2.49-10.93,5-16.53,7.46Z" transform="translate(-0.16 -0.05)"/><path class="cls-31" d="M331.43,791.73c2.89-2.84,6-5.66,9-8.49L345,779l4.72-4.22c1.58-1.4,3-2.82,4.52-4.24a47.84,47.84,0,0,1,5.17-4.17q2.91-2.05,6.25-4.06a81.79,81.79,0,0,1,7.37-3.93l.72.07a21,21,0,0,1-3,4.4,50.16,50.16,0,0,1-4.15,4.28,47.82,47.82,0,0,1-5.23,4.17c-2,1.36-4,2.72-5.88,4.09l-5.69,4.12-5.79,4.1c-4,2.73-7.8,5.47-11.84,8.19Z" transform="translate(-0.16 -0.05)"/><path class="cls-31" d="M416.22,798.38c1.16-3,2.52-5.88,3.78-8.82l2-4.4,2.13-4.39c.72-1.46,1.3-2.94,1.93-4.4a20.62,20.62,0,0,1,2.6-4.37,45.39,45.39,0,0,1,3.74-4.32,39,39,0,0,1,4.92-4.25l.75,0a12.63,12.63,0,0,1-.36,4.49,25.53,25.53,0,0,1-1.54,4.42,21.36,21.36,0,0,1-2.68,4.37c-1.13,1.44-2.31,2.88-3.35,4.33L427,785.42l-3.26,4.34c-2.26,2.88-4.42,5.77-6.78,8.66Z" transform="translate(-0.16 -0.05)"/><path class="cls-31" d="M503.68,800.63c-.61-3-1-5.92-1.53-8.87l-.63-4.44-.51-4.43c-.16-1.48-.47-3-.73-4.44a14,14,0,0,1,0-4.43,23.27,23.27,0,0,1,1.11-4.44,17,17,0,0,1,2.32-4.43h.76a17,17,0,0,1,2.31,4.43,23.31,23.31,0,0,1,1.12,4.44,13.72,13.72,0,0,1,0,4.43c-.25,1.48-.56,3-.72,4.44l-.51,4.43-.63,4.44c-.52,3-.92,5.91-1.53,8.87Z" transform="translate(-0.16 -0.05)"/><path class="cls-31" d="M591.15,798.42c-2.36-2.89-4.52-5.78-6.78-8.66l-3.26-4.34L578,781.08c-1-1.45-2.22-2.89-3.36-4.33a21.75,21.75,0,0,1-2.67-4.37,25.53,25.53,0,0,1-1.54-4.42,12.63,12.63,0,0,1-.36-4.49l.75,0a39,39,0,0,1,4.92,4.25,45.39,45.39,0,0,1,3.74,4.32,21,21,0,0,1,2.6,4.37c.63,1.46,1.21,2.94,1.93,4.4l2.13,4.39,2,4.4c1.26,2.94,2.62,5.87,3.78,8.82Z" transform="translate(-0.16 -0.05)"/><path class="cls-31" d="M676,791.81c-4-2.72-7.89-5.46-11.84-8.19l-5.79-4.1-5.69-4.12c-1.88-1.37-3.9-2.73-5.88-4.09a49,49,0,0,1-5.24-4.17,53.4,53.4,0,0,1-4.15-4.28,20.58,20.58,0,0,1-3-4.4l.71-.07a80.69,80.69,0,0,1,7.38,3.93q3.35,2,6.25,4.06a47.84,47.84,0,0,1,5.17,4.17c1.49,1.42,2.94,2.84,4.52,4.24l4.71,4.22,4.61,4.23c3,2.83,6.08,5.65,9,8.49Z" transform="translate(-0.16 -0.05)"/><path class="cls-31" d="M755.58,781c-5.6-2.47-11-5-16.53-7.46l-8.15-3.75-8-3.76c-2.67-1.26-5.47-2.5-8.23-3.74s-5.3-2.52-7.63-3.83-4.56-2.65-6.64-4a47.15,47.15,0,0,1-5.6-4.18l.66-.11c3.48,1.12,6.6,2.3,9.61,3.51s5.84,2.43,8.57,3.67,5.25,2.53,7.57,3.85,4.58,2.64,7,3.95l7.15,3.91,7.06,3.94c4.63,2.63,9.35,5.25,13.89,7.9Z" transform="translate(-0.16 -0.05)"/><path class="cls-31" d="M827.54,766.33c-7-2.15-13.81-4.34-20.72-6.51l-10.26-3.28-10.17-3.3c-3.38-1.1-6.87-2.18-10.33-3.26s-6.72-2.22-9.8-3.39-6.06-2.38-8.92-3.61-5.58-2.49-8-3.83l.58-.15c4.1.93,7.87,1.94,11.55,3s7.2,2.1,10.63,3.19,6.68,2.22,9.75,3.4,6.08,2.37,9.22,3.53l9.38,3.5,9.29,3.51c6.12,2.37,12.33,4.71,18.38,7.09Z" transform="translate(-0.16 -0.05)"/><path class="cls-31" d="M889.67,748.23c-8.16-1.76-16.18-3.57-24.28-5.36l-12-2.71-12-2.73c-4-.92-8.07-1.8-12.12-2.69s-7.94-1.84-11.67-2.84-7.39-2-10.93-3.11-7-2.17-10.16-3.36l.49-.17c4.58.7,8.9,1.5,13.13,2.33s8.34,1.7,12.37,2.6,7.9,1.86,11.63,2.86,7.4,2,11.18,3l11.32,3,11.24,3c7.44,2,14.94,4,22.32,6Z" transform="translate(-0.16 -0.05)"/><path class="cls-31" d="M940.08,727.27c-9.08-1.33-18.06-2.7-27.1-4l-13.48-2.06-13.43-2.09c-4.47-.7-9-1.36-13.53-2s-8.91-1.41-13.19-2.21-8.48-1.63-12.61-2.5-8.17-1.79-12-2.8l.38-.2c4.94.47,9.66,1,14.33,1.64s9.22,1.25,13.72,1.93,8.89,1.43,13.15,2.23,8.5,1.62,12.81,2.4L902,719.88l12.86,2.38c8.52,1.6,17.1,3.18,25.57,4.82Z" transform="translate(-0.16 -0.05)"/><path class="cls-31" d="M977.25,704.07c-9.74-.85-19.4-1.75-29.1-2.62l-14.51-1.34-14.46-1.38c-4.82-.46-9.69-.88-14.54-1.32s-9.62-.93-14.3-1.5-9.33-1.18-13.91-1.83-9.11-1.34-13.5-2.15l.26-.21c5.14.21,10.13.53,15.08.89s9.84.76,14.68,1.21,9.59.95,14.27,1.52,9.34,1.17,14,1.72l14.11,1.66,14.07,1.69c9.35,1.15,18.74,2.27,28.06,3.45Z" transform="translate(-0.16 -0.05)"/><path class="cls-30" d="M1000,679.34c-10.09-.34-20.15-.74-30.22-1.11l-15.08-.58L939.67,677c-5-.21-10.06-.38-15.1-.56s-10-.44-15-.76-9.88-.68-14.78-1.09-9.77-.86-14.58-1.43l.14-.22c5.18-.06,10.29,0,15.37.1s10.14.26,15.17.45,10,.46,15,.78,9.89.68,14.85,1l14.89.92,14.86.95c9.9.66,19.81,1.29,29.69,2Z" transform="translate(-0.16 -0.05)"/><path class="cls-30" d="M1007.76,653.83c-10.14.18-20.28.29-30.42.44l-15.2.19-15.21.15c-5.07,0-10.14.13-15.21.21s-10.13.08-15.2,0-10.14-.17-15.21-.33-10.14-.35-15.21-.67v-.22c5.07-.32,10.14-.52,15.21-.68s10.14-.26,15.21-.33,10.13-.06,15.2,0,10.14.16,15.21.21l15.21.15,15.2.18c10.14.15,20.28.27,30.42.45Z" transform="translate(-0.16 -0.05)"/><path class="cls-30" d="M1000.17,628.31c-9.88.69-19.79,1.32-29.69,2l-14.86,1-14.89.92c-5,.31-9.9.65-14.85,1s-9.94.59-15,.78-10.08.35-15.17.45-10.19.16-15.37.11l-.14-.22c4.81-.57,9.68-1,14.58-1.44s9.83-.77,14.78-1.09,9.95-.57,15-.76,10.08-.35,15.1-.56l15.07-.62,15.08-.59c10.07-.37,20.13-.77,30.22-1.1Z" transform="translate(-0.16 -0.05)"/><path class="cls-30" d="M977.51,603.57c-9.32,1.18-18.71,2.3-28.06,3.46l-14.07,1.69-14.11,1.65c-4.71.55-9.37,1.14-14,1.72s-9.43,1.08-14.27,1.53-9.73.85-14.68,1.21-9.94.67-15.08.88l-.26-.21c4.39-.8,8.93-1.49,13.5-2.15s9.22-1.26,13.91-1.82,9.46-1.07,14.3-1.51,9.72-.86,14.54-1.32l14.46-1.37L948.15,606c9.7-.87,19.36-1.77,29.1-2.61Z" transform="translate(-0.16 -0.05)"/><path class="cls-30" d="M940.46,580.36c-8.47,1.63-17.05,3.21-25.57,4.82L902,587.55l-12.91,2.35c-4.31.78-8.54,1.6-12.81,2.4s-8.64,1.55-13.15,2.23-9.07,1.33-13.72,1.93-9.39,1.17-14.33,1.64l-.38-.19c3.84-1,7.9-1.93,12-2.81s8.33-1.7,12.61-2.5,8.68-1.53,13.19-2.2,9.06-1.34,13.53-2l13.43-2.09L913,584.21c9-1.34,18-2.72,27.1-4.05Z" transform="translate(-0.16 -0.05)"/><path class="cls-30" d="M890.16,559.37c-7.38,2-14.88,4-22.32,6l-11.24,3-11.32,3c-3.78,1-7.47,2-11.18,3s-7.6,2-11.63,2.86-8.14,1.77-12.37,2.6-8.55,1.63-13.13,2.34l-.49-.17c3.18-1.2,6.63-2.3,10.16-3.37s7.19-2.1,10.93-3.1,7.63-1.95,11.67-2.85,8.13-1.77,12.12-2.68l12-2.74,12-2.71c8.1-1.79,16.12-3.6,24.28-5.36Z" transform="translate(-0.16 -0.05)"/><path class="cls-29" d="M828.12,541.25c-6,2.38-12.26,4.72-18.38,7.08l-9.29,3.51-9.38,3.5c-3.14,1.16-6.16,2.35-9.22,3.53s-6.31,2.32-9.75,3.41-7,2.15-10.63,3.18-7.45,2-11.55,3l-.58-.15c2.42-1.33,5.16-2.59,8-3.83s5.83-2.43,8.92-3.6,6.36-2.31,9.8-3.39,7-2.16,10.33-3.27l10.17-3.3,10.26-3.28c6.91-2.17,13.73-4.36,20.72-6.51Z" transform="translate(-0.16 -0.05)"/><path class="cls-29" d="M756.24,526.54c-4.54,2.65-9.26,5.27-13.89,7.91l-7.06,3.93-7.15,3.92c-2.4,1.3-4.67,2.62-7,3.94s-4.84,2.6-7.57,3.85-5.58,2.47-8.57,3.68-6.13,2.38-9.61,3.5l-.66-.11a47.15,47.15,0,0,1,5.6-4.18q3.12-2,6.64-4c2.33-1.32,4.89-2.59,7.63-3.84s5.56-2.48,8.23-3.73l8-3.77,8.15-3.75c5.51-2.48,10.93-5,16.53-7.46Z" transform="translate(-0.16 -0.05)"/><path class="cls-29" d="M676.69,515.7c-2.89,2.84-6,5.66-9,8.49l-4.61,4.23-4.71,4.22c-1.58,1.41-3,2.82-4.52,4.24a46.66,46.66,0,0,1-5.17,4.17q-2.91,2.06-6.25,4.06a80.69,80.69,0,0,1-7.38,3.93l-.71-.07a20.58,20.58,0,0,1,3-4.4,53.4,53.4,0,0,1,4.15-4.28,47.71,47.71,0,0,1,5.24-4.16c2-1.37,4-2.73,5.88-4.1l5.69-4.12,5.79-4.1c4-2.73,7.8-5.47,11.84-8.18Z" transform="translate(-0.16 -0.05)"/><path class="cls-29" d="M591.9,509.06c-1.16,2.94-2.52,5.87-3.78,8.81l-2,4.4L584,526.66c-.72,1.47-1.3,2.94-1.93,4.41a21.31,21.31,0,0,1-2.6,4.37,46.57,46.57,0,0,1-3.74,4.31,38.16,38.16,0,0,1-4.92,4.25l-.75,0a12.56,12.56,0,0,1,.36-4.48,25.34,25.34,0,0,1,1.54-4.43,21.75,21.75,0,0,1,2.67-4.37c1.14-1.44,2.32-2.88,3.36-4.33l3.15-4.34,3.26-4.33c2.26-2.89,4.42-5.78,6.78-8.66Z" transform="translate(-0.16 -0.05)"/></g><path class="cls-3" d="M562.17,525.89s-27.37-16.69-21.7-36.76-6.84-25.31-6.84-25.31C522.87,459,515,471.41,515,471.41c-9.3,7.58-15.4-1.48-15.4-1.48-1.95-5-16.49-6.11-16.49-6.11C467.25,461.64,460.71,476,460.71,476c-4.27,16.58-19.8,19.86-19.8,19.86,14,5.13,20.69,12.22,23.12,19.75l-3.32-.68-28.51,9.52c1.3-.41,10-2.66,13.88,9.44,0,0,.87,13.3-12.43,16.09-10.18,2.14,3.82,10.61,11,14.47-4.36,9.43-8.42,23.37,9.61,17a40.66,40.66,0,0,1,7.18-1.82l-.7,3.75s5.19-3.86,15.3-3.23a17.76,17.76,0,0,1,7.12,6.72s3.92,12.09,20.74,6a21.33,21.33,0,0,0,2.41-1c1.19.8,1.84,1.3,1.84,1.3l29.76-2c4.65-22.48,17.43-21.82,17.43-21.82C564.42,566,568.37,555,568.37,555,574.89,541.44,562.17,525.89,562.17,525.89Z" transform="translate(-0.16 -0.05)"/><path class="cls-3" d="M432.2,524.49l-.17,0Z" transform="translate(-0.16 -0.05)"/><path class="cls-4" d="M591.71,509.86s-5.72-2.58-9.58.27c0,0-11.3,7.48-19.17,1.2h0c-2.75-2.47-6.72-8.24.2-17.84,0,0,7.86-6.76,10.69-8.72,0,0,8.73-8.08,2.84-21.17,0,0-17.24-16.8-36.66,5.24,0,0-14.41,27.49-32.19,20.07,0,0-15.24-14,1.6-34.91,0,0,8.12-12.43,3.1-22.47,0,0-6.91-11.78-19.82-6.76,0,0-12.47,4.58-3.52,35.34,0,0,8.07,16.8-9.17,18.33,0,0-8.38,1.74-12.37,7.85,0,0-3.29,5.87-18,3.93,0,0-31.42-2.22-39.28,11.76,0,0-9.38,13.11,0,21.4,0,0,10.7,4.29,21.6,1.16,0,0,14.62-7.88,22,6,0,0,1.88,11-12.22,17.74,0,0-11.56,2.85-16.36,2.85,0,0-19.86,3.2-15.93,25.49,0,0,5.95,20.4,29.81,16.55,0,0,14.48-2.76,25.83-13.46,0,0,10.69-8.29,21.82-2.4,0,0,8.21,7.13,6.29,17.53,0,0,1.08,14.13,12.12,14.13a15.3,15.3,0,0,1,11.48.91s9.3,6,23-1.73c0,0,15.64-8.36,11.27-24.51,0,0-1.74-4.14-7-9.16,0,0-5.67-5.46.44-15.06,0,0,7.42-5,7.31-13.52,0,0,2.07-7.94,9.49-7.57,0,0,8.72-2.25,16.8,6.48,0,0,9.16,8,16.58-6.48C594.8,538.29,603,519,591.71,509.86Z" transform="translate(-0.16 -0.05)"/><path class="cls-5" d="M541.93,529s-8.82-1.66-13.42-7.41c-4.68-7.11,4.72-8.9,4.72-8.9,9.63-2.06,8.7-8.7,8.7-8.7-5.24-10.48-18.33-8.19-18.33-8.19s-7,3.53-8.58-1.71a3.61,3.61,0,0,0-2.13-4.35c-.09-.15-.32-.28-.77-.33l-.13,0-.41-.13c-1.22-.56-2-2.38-2.45-3.89a17.08,17.08,0,0,0-.51-2.21h0a13.15,13.15,0,0,0-11.79-9.42c-9,1.46-9,12.22-9,12.22s.23,5.84-3.81,9.74a24.13,24.13,0,0,1-3.65,2.33,8.15,8.15,0,0,0-1.16.59,55.18,55.18,0,0,1-9.7,3.46s-7.57,3.5-7,10.71c0,0,1.06,12.53,14.59,13.1l-.05,0s9.78.34,12.21,6.66c.26.89,1.95,8.09-8.61,11.3a38.29,38.29,0,0,1-3.81.57,12.82,12.82,0,0,0-1.57.53c-3.28,1.33-10.52,5.42-9.56,15.45,0,0,.64,9.32,9.57,11.11h0a6.44,6.44,0,0,1,4.84,5.07s3.41,5.79,9.32,4.78a9.81,9.81,0,0,0,5.28-2.53s4.94-11.94,14.73-7.09c9.83,5.3,15.24-1.88,15.24-1.88a13.18,13.18,0,0,0-.07-13S514,548.7,521,540.73c0,0,4.14-5.06,12.25-1a15.85,15.85,0,0,0,2.86,1.09h0c9.14,3.86,10.78-4.15,10.78-4.15C546.43,529.57,541.93,529,541.93,529Z" transform="translate(-0.16 -0.05)"/><path class="cls-4" d="M762.44,423.49A47.64,47.64,0,0,1,780.76,412s5.67-.87,7.13-5c0,0,.14-6.54,18.33-13.23,0,0,15-5.82,18-7.86,0,0,3.93-2.47,6.55,0,0,0,4.65,4.8,5.09,8.58,0,0,.29,13.53-18.47,24.15,0,0-16.59,11.93-20.08,25.31,0,0-.29,6.54-3.63,10.62,0,0-8.94,9.31-12.25,11.49a9.35,9.35,0,0,0-2.15,5.38s-.44,4.94-11.93,7.85a18.68,18.68,0,0,0-4.94,8.88s-1.75,5.67-4.22,3.78c0,0-3.06-1-3.2-7.57,0,0,.43-2.89-3.64-1.88,0,0-5.44,1.59-5.34-3.5,0,0-2.08-9.35,1.41-22.54,0,0,1.58-4.35,5.08-15.41L754,435Z" transform="translate(-0.16 -0.05)"/><path class="cls-3" d="M632.06,507.76s-6.31,2.34-5.57,7.88c0,0,2.46,6.27,9.35,2.58,0,0,6.77-3,6-8.24C641.87,510,639.23,505.3,632.06,507.76Z" transform="translate(-0.16 -0.05)"/><path class="cls-5" d="M760.83,393.13a5.58,5.58,0,0,0-4.56-2.4s-7.87-2.62-3.51-15.06c0,0,9.91-15.7-1.48-24.65,0,0-5.28-5.89-5.94-6.11,0,0-7.85,4-22.91,31.89,0,0-1.52,6.29-2.61,12.62,0,0-3.24,18.77-5.89,21.92,0,0-6.33,4.26-10.91,8.19,0,0-12.88,15.05-19.42,28.36,0,0-9.82,22.26-7.2,34.69,0,0,5.45.44,15.05-5.45a12.85,12.85,0,0,1,4.37-1.09s3.92-1.09,7.63-9.6c0,0,1.09-2.92,7.2-2.23,0,0,1.75-.39,1.75,4,0,0-.87,5.24,2,5.24,0,0,4.8-.44,6.55-2.62a30,30,0,0,1-.32-3h0c-.17-4.43,1.62-5.58,2.73-5.88a3.84,3.84,0,0,0,.85-.1h0c1.37-.28,3.24-1.3,5.24-4.29,0,0,5.67-7.85,10.91-8.29L757.78,423l-1.51-5.23S765,398.58,760.83,393.13Z" transform="translate(-0.16 -0.05)"/><path class="cls-3" d="M766.51,411.46s-5.89-1.75-11.57,8.51c0,0-15.71,26.83-20.29,37.09,0,0-2.4,5.23,0,6.54,0,0,2.4,2.84,8.08-3.71C742.73,459.89,778.51,420.84,766.51,411.46Z" transform="translate(-0.16 -0.05)"/><path class="cls-6" d="M766.06,412.74" transform="translate(-0.16 -0.05)"/><path class="cls-4" d="M286.94,530.5s-26.4-22.61-18.11-39.84c0,0,6.8-3.93,16.82,5.12,0,0,7.63,6.88,15.7,8.62,0,0,16.14,2.84,26.61,15.71l3.3,18.18Z" transform="translate(-0.16 -0.05)"/><path class="cls-3" d="M300,532.46s-10.54-4.39-17.59-3.79c0,0-2.85,8.43,31.22,12.7l6.66-3.08Z" transform="translate(-0.16 -0.05)"/><path class="cls-5" d="M358.5,532.38c7.08-2.81,11.27-10.8,11.27-10.8-.53-9.45-11.7-10.79-11.7-10.79-42.76-5.83-58,21.67-58,21.67s3.25,4.2,7.5,5a46.53,46.53,0,0,1,7.9,5.31,17.15,17.15,0,0,0,1.75,1.62v0h0c2.09,1.67,3.09,1.4,3.09,1.4,6.4-1.78,18.36-1.39,18.36-1.39,16.8,3.14,23.35,0,23.35,0-.69-4.91-6.77-3.36-6.77-3.36-6.32,1.52-7.2-2.77-7.2-2.77C347.16,532.68,358.5,532.38,358.5,532.38Z" transform="translate(-0.16 -0.05)"/><path class="cls-3" d="M410.14,468.05s-5.1,2.75-2.69,10c0,0,.66,5.81,7.35,6,0,0,5.12-1,4.3-10.32C419.1,473.71,416,467.33,410.14,468.05Z" transform="translate(-0.16 -0.05)"/><path class="cls-3" d="M622.65,355.46s-1.49-2-5.38,4.36c0,0-6.84,6,0,8.65,0,0,4.39,1,6.34-5.22C623.61,363.25,626.58,357.2,622.65,355.46Z" transform="translate(-0.16 -0.05)"/><path class="cls-3" d="M576.09,405.31v-.06h0a2.85,2.85,0,0,0-1.27-1.53c-2.47-1.62-6.84-.92-6.84-.92-6.11,1-7.56,9.38-7.56,9.38s-.18,2.22-.12,4.38c0,.07,0,3.89-2.31,5a2.15,2.15,0,0,1-2.58-1.86,2.74,2.74,0,0,1-.08-.43s-1.17-2.18-2.62.73c0,0-1.46,8.14,8,8.58,0,0,11.63-.1,11.64-12.45-.66-4.9,1.3-6,1.3-6a6.39,6.39,0,0,0,2.46-4.34A1.4,1.4,0,0,0,576.09,405.31Z" transform="translate(-0.16 -0.05)"/><path class="cls-3" d="M438.8,327.38s-3.35,2.19-1.89,8c0,0,2,7.42,8,5.39,0,0,6-3.93,1.31-9.75,0,0-2.91-2.62-3.35-5.38C442.87,325.64,440.93,323.62,438.8,327.38Z" transform="translate(-0.16 -0.05)"/><path class="cls-4" d="M200.78,382.25s2.38.08-1.55-9.57c0,0-3.92-16.49,0-20.71,0,0,10.26-5.53,20,18,0,0,4.91,9.47,8.83,12.25,0,0,11.44,5.62,8.78,12.83,0,0-4.41,2.41-1.79,5.61,0,0,6.35-1.26,7.83,4.17,0,0,1.22,4.27-6.22,3.69,0,0-3.07-.88-6-7.86,0,0-.29-4.15-5.52-1.64,0,0-3.28,5.72-12.41,1.93Z" transform="translate(-0.16 -0.05)"/><path class="cls-3" d="M194.43,384.4s4.2-8.3,14,4.77c0,0,7.42,9.44,7,14.55C215.38,403.72,214.94,411.89,194.43,384.4Z" transform="translate(-0.16 -0.05)"/><path class="cls-5" d="M194.43,384.4a40.09,40.09,0,0,0-18.18-4.64s-3.49,1.15-11.64-1.47c0,0-16-3.76-19.05,3.58,0,0-1.74,7.75,10.91,13.21,0,0,24.87,6.91,35.78,16.88,0,0,8.29,10,15.28,8.69,0,0,8.29-1.93,3.92-18C211.45,402.65,207.09,391.82,194.43,384.4Z" transform="translate(-0.16 -0.05)"/><path class="cls-4" d="M323.38,344.47s6.33-3.49,5-18.1c0,0-3.22-16.59,9.41-20.51,0,0,15,2.61,20.92,24.21,0,0,1.09,13.75,4.14,18.11,0,0,16.8,23.35,14.18,35.35,0,0-2.62,3.89-15.71-9,0,0-9.38-7.19-16.14-7.84A35,35,0,0,1,330.8,358Z" transform="translate(-0.16 -0.05)"/><path class="cls-3" d="M318.22,343.38s-4.44-4.14-2.91-8.07c0,0,2.62-1.91,8.29,5.81,0,0,14.91,23,14.18,31.56C337.78,372.68,334.87,373.49,318.22,343.38Z" transform="translate(-0.16 -0.05)"/><path class="cls-5" d="M327.82,364.73s-.84-13.83-9.6-21.35c0,0-17.31-19.49-47.35-21.23,0,0-9.67-2.91-14.91,0,0,0-4.24,8.14,11.26,21.23,0,0,5.86,5.5,10.84,10.88,2.82,3.25,6.4,8.2,6.23,12.25a7.92,7.92,0,0,0,.1,2.06,5.14,5.14,0,0,0,2.43,4.11s2.75,2.12,5.82-2.13h0a7.13,7.13,0,0,1,4.18-3.09,5.86,5.86,0,0,1,2.79.27l.48.19a6.81,6.81,0,0,1,1.26.76s2.19,4.18-2.11,8.64c0,0-2.68,5.91,0,9.11a11.79,11.79,0,0,0,7.34,4.36s6.11.87,7,12.8c0,0-.22,4.79,4.66,5C318.22,408.6,335.67,406.73,327.82,364.73Z" transform="translate(-0.16 -0.05)"/><path class="cls-4" d="M288.94,262.07s-1.81,1.35-.68,5a7.63,7.63,0,0,0,6.72,6.41s6.22-.48,2.41-6.5C297.39,267,293.49,262,288.94,262.07Z" transform="translate(-0.16 -0.05)"/><path class="cls-4" d="M265.36,231.64s1.07-10.66,7.4-11.09c0,0,3.27.22,3.49,7.2,0,0-.88,5,2.18,7.85,0,0,7.31,5.24,6.33,13.86,0,0-1.53,5.67-7.42-3.39,0,0-3-3.6-6.65-3.27S265.36,231.64,265.36,231.64Z" transform="translate(-0.16 -0.05)"/><path class="cls-3" d="M264.69,239.75s-4.58-7.86-3.27-9.38c0,0,2.61-3.71,8.94,9.38C270.36,239.75,276,256.77,264.69,239.75Z" transform="translate(-0.16 -0.05)"/><path class="cls-5" d="M259.45,232.11s-11.78-8.73-19.63-3.71c0,0-1.11,8.07,10.68,12,0,0,6.33,1.53,6.12,6.11,0,0-1.75,7.86,3.92,8.51,0,0,8.95-2.21,6.77-14.09C267.31,240.93,263.82,234.72,259.45,232.11Z" transform="translate(-0.16 -0.05)"/><path class="cls-4" d="M462.48,226.85s-14-25.28-43.29-20.92c0,0-10.66,3.71,1.86,18a22.26,22.26,0,0,0,2.48,2.92,15.52,15.52,0,0,1,6.53,11.75s1.49,7.91,3.59,16.42a22.52,22.52,0,0,1-5.08,14.42s-7.36,19,5.08,20.71c0,0,13.88-1.43,19.55-16.64,0,0,5.67-15.65,11.78-18.49C465,255,471.32,242.09,462.48,226.85Z" transform="translate(-0.16 -0.05)"/><path class="cls-4" d="M498.21,244.27a19,19,0,0,1,4.3-4.74c6.76-7.64,7-27.49,7-27.49,0-4.8-5.89-3.49-5.89-3.49-24,0-34.3,22.48-34.3,22.48s-7.81,16.57-3.67,20.28,6.77,12,6.77,12c4.58,11.78,8.29,15.06,8.29,15.06,4.58,3.05,6.76-.22,6.76-.22,3.06-3.06,5.46-3.06,5.46-3.06,3.14,1.11,1.21,5.52.54,6.83-.06.11-.11.22-.16.32l0,.06h0c-1.27,2.68.08,3.92.08,3.92,3.06.44,5.89-2.62,5.89-2.62,6.77-10.25,1.31-18.76,1.31-18.76S491.85,254.79,498.21,244.27Z" transform="translate(-0.16 -0.05)"/><path class="cls-3" d="M467.18,226.22s-3.08.65-3.29,17.89c0,0-1.95,12.66,1.64,15.93,0,0,4-2.62,3.81-16.91C469.34,243.13,470.69,227.09,467.18,226.22Z" transform="translate(-0.16 -0.05)"/><path class="cls-4" d="M642.29,297.55a21.1,21.1,0,0,0,14.25-7.4s11.64-16.29,23.86-9.6c0,0,10.89,4.34-4.45,18.6,0,0-15.62,7.58-16.79,19.22,0,0-2,14.83-16.87,20.65,0,0-3.2-.46-3.2,2.1,0,0-4.15,7.21-9.2,1.68,0,0-3-7,2.22-16.31,0,0,2.91-6.38,1.16-12.2Z" transform="translate(-0.16 -0.05)"/><path class="cls-5" d="M640.76,295.55c-1.71-6.38-7-20-7-20.05-.91-3.17-3.78-10.72-10.57-10.2,0,0-3.91,2-5.23,10.92a44,44,0,0,1-1.32,13.11,5.94,5.94,0,0,0-.23.86,44.5,44.5,0,0,1-2.26,6.41,31.78,31.78,0,0,1-7.69,9.14c-5.72,5.28-10.26,14.14-10.26,14.14s-6.61,13,12,7c0,0,11.34-6,15-6,0,0,5.09-.33,8.87-7.61l7.31-14.82A2.11,2.11,0,0,0,640.76,295.55Z" transform="translate(-0.16 -0.05)"/><path class="cls-3" d="M644,292.47s-3.2.3-9.89,15.42c0,0-4.12,8.77-4.25,12.51,0,0,2.8,2.33,9.49-11.93C639.38,308.47,646.36,295.67,644,292.47Z" transform="translate(-0.16 -0.05)"/><path class="cls-3" d="M765.32,413.72c.51-1.22.95-2.47,1.35-3.73s.75-2.53,1.05-3.81.48-2.59.77-3.87.54-2.56.91-3.86c0,0,0-.05.06,0a0,0,0,0,1,0,0,15.61,15.61,0,0,1,0,4,21.21,21.21,0,0,1-1,3.9,39.8,39.8,0,0,1-3.08,7.38.05.05,0,0,1-.09,0Z" transform="translate(-0.16 -0.05)"/><path class="cls-3" d="M765.3,414.07a39.58,39.58,0,0,1,5.22-6.06,21.19,21.19,0,0,1,3.05-2.62,15.58,15.58,0,0,1,3.59-1.83.05.05,0,0,1,.07,0,0,0,0,0,1,0,.05c-1,.92-2,1.71-3.05,2.55s-2.09,1.57-3.11,2.42-2,1.72-2.93,2.65a37.15,37.15,0,0,0-2.74,2.87,0,0,0,0,1-.08-.06Z" transform="translate(-0.16 -0.05)"/><path class="cls-3" d="M643,294.28a16.27,16.27,0,0,0,.64-1.77c.2-.6.36-1.2.5-1.81s.23-1.22.36-1.83.26-1.21.44-1.83c0,0,0,0,0,0l0,0a7.18,7.18,0,0,1,0,1.91,10.43,10.43,0,0,1-.46,1.85,19.89,19.89,0,0,1-1.46,3.5h0A0,0,0,0,1,643,294.28Z" transform="translate(-0.16 -0.05)"/><path class="cls-3" d="M643,294.27a19.28,19.28,0,0,1,2.48-2.87,10,10,0,0,1,1.44-1.24,7.25,7.25,0,0,1,1.71-.87l0,0s0,0,0,0c-.47.44-1,.81-1.45,1.21s-1,.75-1.47,1.15a18.23,18.23,0,0,0-1.39,1.25c-.45.43-.89.89-1.3,1.36h0A.06.06,0,0,1,643,294.27Z" transform="translate(-0.16 -0.05)"/><path class="cls-3" d="M466.85,228.3a20.33,20.33,0,0,0-.36-2.32c-.14-.76-.32-1.52-.53-2.27s-.49-1.48-.7-2.22-.45-1.49-.63-2.27c0,0,0,0,0,0s0,0,0,0a9.25,9.25,0,0,1,1.13,2.1,13,13,0,0,1,.6,2.3,24,24,0,0,1,.49,4.7,0,0,0,0,1,0,0Z" transform="translate(-0.16 -0.05)"/><path class="cls-3" d="M466.94,228.49a23.73,23.73,0,0,1,1-4.63,12.66,12.66,0,0,1,.84-2.22,8.79,8.79,0,0,1,1.34-2s0,0,0,0,0,0,0,0c-.26.76-.58,1.46-.86,2.19s-.64,1.41-.93,2.13-.54,1.46-.77,2.21-.44,1.5-.6,2.27l0,0A0,0,0,0,1,466.94,228.49Z" transform="translate(-0.16 -0.05)"/><path class="cls-3" d="M262.87,231.4c-.34-.29-.7-.56-1.06-.81s-.74-.5-1.12-.73-.78-.42-1.16-.65-.77-.43-1.15-.69c0,0,0,0,0,0h0a5.17,5.17,0,0,1,1.29.44,7.2,7.2,0,0,1,1.16.71,13.67,13.67,0,0,1,2.05,1.74s0,0,0,0Z" transform="translate(-0.16 -0.05)"/><path class="cls-3" d="M263,231.44a12.85,12.85,0,0,1-1.41-2.25A7.32,7.32,0,0,1,261,228a5.28,5.28,0,0,1-.22-1.31h0c.2.4.34.81.51,1.21s.29.81.46,1.22.35.8.55,1.18a11.74,11.74,0,0,0,.65,1.15,0,0,0,0,1,0,0Z" transform="translate(-0.16 -0.05)"/><path class="cls-3" d="M317,337.49c-.52-.57-1.07-1.1-1.64-1.62s-1.14-1-1.74-1.48-1.24-.89-1.84-1.35-1.22-.91-1.81-1.43c0,0,0,0,0,0h0a9.3,9.3,0,0,1,2.11,1,12.71,12.71,0,0,1,1.81,1.46,23.07,23.07,0,0,1,3.12,3.43,0,0,0,0,1,0,0A0,0,0,0,1,317,337.49Z" transform="translate(-0.16 -0.05)"/><path class="cls-3" d="M317.12,337.59a23.5,23.5,0,0,1-1.9-4.22,12,12,0,0,1-.63-2.25,8.66,8.66,0,0,1-.09-2.33,0,0,0,0,1,0,0s0,0,0,0c.24.75.39,1.49.59,2.23s.31,1.48.51,2.22.42,1.47.67,2.19.52,1.44.84,2.14c0,0,0,0,0,0S317.13,337.6,317.12,337.59Z" transform="translate(-0.16 -0.05)"/><path class="cls-3" d="M198.25,384.26a18.63,18.63,0,0,0-1.9-.94c-.64-.3-1.29-.56-1.95-.8s-1.34-.41-2-.64-1.32-.44-2-.72a.05.05,0,0,1,0,0h0a8,8,0,0,1,2.13.26,11.08,11.08,0,0,1,2,.76,20.83,20.83,0,0,1,3.72,2.08.06.06,0,0,1,0,0Z" transform="translate(-0.16 -0.05)"/><path class="cls-3" d="M198.43,384.29a22.11,22.11,0,0,1-2.89-3.14,12,12,0,0,1-1.2-1.77,8.46,8.46,0,0,1-.75-2s0,0,0,0h0c.43.59.78,1.19,1.16,1.77s.71,1.21,1.09,1.8.79,1.16,1.22,1.72.88,1.1,1.36,1.62a0,0,0,0,1,0,0Z" transform="translate(-0.16 -0.05)"/><path class="cls-3" d="M285.74,532.08a31.21,31.21,0,0,0-2.65-1.76c-.91-.56-1.83-1.08-2.77-1.55s-1.93-.87-2.87-1.34-1.9-.91-2.84-1.45a0,0,0,0,1,0-.05.05.05,0,0,1,0,0,12.49,12.49,0,0,1,3.14.8,16.64,16.64,0,0,1,2.86,1.51,32.13,32.13,0,0,1,5.16,3.81s0,0,0,.06Z" transform="translate(-0.16 -0.05)"/><path class="cls-3" d="M286,532.16a32.15,32.15,0,0,1-3.73-5.22,17.7,17.7,0,0,1-1.46-2.88,12.13,12.13,0,0,1-.74-3.16s0,0,0,0l0,0c.53,1,.94,1.92,1.41,2.87s.82,1.93,1.29,2.88,1,1.89,1.5,2.8a31.28,31.28,0,0,0,1.72,2.68s0,0,0,.06A0,0,0,0,1,286,532.16Z" transform="translate(-0.16 -0.05)"/><path class="cls-32" d="M432.2,524.49l-.17,0Z" transform="translate(-0.16 -0.05)"/><path class="cls-33" d="M591.71,509.86s-5.72-2.58-9.58.27c0,0-11.3,7.48-19.17,1.2-2.75-2.47-6.72-8.24.2-17.84,0,0,7.86-6.76,10.69-8.72,0,0,8.73-8.08,2.84-21.17,0,0-17.24-16.8-36.66,5.24,0,0-.15.29-.44.8a13.88,13.88,0,0,0-6-5.82C522.87,459,515,471.41,515,471.41c-6.18,5-10.95,2.73-13.45.61.31-5.11,2.38-11.19,7.87-18,0,0,8.12-12.43,3.1-22.47,0,0-6.91-11.78-19.82-6.76,0,0-12.47,4.58-3.52,35.34a22.66,22.66,0,0,1,1.55,4.92,57.31,57.31,0,0,0-7.62-1.21C467.25,461.64,460.71,476,460.71,476a26.83,26.83,0,0,1-9.11,14.39c-.61-.06-1.23-.12-1.89-.21,0,0-31.42-2.22-39.28,11.76,0,0-9.38,13.11,0,21.4,0,0,10.7,4.29,21.6,1.16a22.08,22.08,0,0,1,5.7-1.9l-5.53,1.85c1.3-.41,10-2.66,13.88,9.44,0,0,.87,13.3-12.43,16.09h0a51.28,51.28,0,0,1-8.13,1.06s-19.86,3.2-15.93,25.49c0,0,5.95,20.4,29.81,16.55a58.71,58.71,0,0,0,21.34-9.72h0s5.19-3.86,15.3-3.23a17.76,17.76,0,0,1,7.12,6.72,12.13,12.13,0,0,0,10.22,7.62,2.7,2.7,0,0,0,0,.28s1.08,14.13,12.12,14.13a15.3,15.3,0,0,1,11.48.91s9.3,6,23-1.73c0,0,15.64-8.36,11.27-24.51a30.39,30.39,0,0,0-6.3-8.49c5.06-6,10.45-5.69,10.45-5.69C564.42,566,568.37,555,568.37,555c2.63-5.47,2.13-11.27.59-16.24a20.62,20.62,0,0,1,9.26,6s9.16,8,16.58-6.48C594.8,538.29,603,519,591.71,509.86Z" transform="translate(-0.16 -0.05)"/><path class="cls-34" d="M835.89,394.58c-.44-3.78-5.09-8.58-5.09-8.58-2.62-2.47-6.55,0-6.55,0-3,2-18,7.86-18,7.86-18.19,6.69-18.33,13.23-18.33,13.23-1.46,4.08-7.13,5-7.13,5a48.52,48.52,0,0,0-11.83,6,7.5,7.5,0,0,0-1.7-5.92c.3-.3.59-.6.89-.88.94-.93,1.92-1.81,2.93-2.65s2.1-1.59,3.11-2.42,2.06-1.63,3.05-2.55a0,0,0,0,0,0-.05.05.05,0,0,0-.07,0,15.58,15.58,0,0,0-3.59,1.83,21.19,21.19,0,0,0-3.05,2.62,41.62,41.62,0,0,0-3.55,3.85,5.2,5.2,0,0,0-.43-.37,42.5,42.5,0,0,0,2-5.1,21.21,21.21,0,0,0,1-3.9,15.61,15.61,0,0,0,0-4,0,0,0,0,0,0,0s-.05,0-.06,0c-.37,1.3-.6,2.59-.91,3.86s-.47,2.58-.77,3.87-.65,2.55-1.05,3.81c-.15.47-.31.94-.47,1.41-1.17-.18-5.47-.28-9.93,6.39h0s8.71-19.21,4.56-24.66a5.58,5.58,0,0,0-4.56-2.4s-7.87-2.62-3.51-15.06c0,0,9.91-15.7-1.48-24.65,0,0-5.28-5.89-5.94-6.11,0,0-7.85,4-22.91,31.89,0,0-1.52,6.29-2.61,12.62,0,0-3.24,18.77-5.89,21.92,0,0-6.33,4.26-10.91,8.19,0,0-12.88,15.05-19.42,28.36,0,0-9.82,22.26-7.2,34.69,0,0,5.45.44,15.05-5.45a12.85,12.85,0,0,1,4.37-1.09s3.92-1.09,7.63-9.6c0,0,1.09-2.92,7.2-2.23,0,0,1.75-.39,1.75,4,0,0-.87,5.24,2,5.24,0,0,4.8-.44,6.55-2.62a30,30,0,0,1-.32-3c-.17-4.43,1.62-5.58,2.73-5.88a4.48,4.48,0,0,0,.85-.09h0c1.37-.28,3.24-1.3,5.24-4.29,0,0,4.3-5.95,8.87-7.78-1.49,2.85-2.77,5.4-3.64,7.35,0,0-2.4,5.23,0,6.54,0,0,2.4,2.84,8.08-3.71,0,0,2.5-2.73,6-6.92-.84,2.48-1.24,3.58-1.24,3.58C744,469.74,746,479.09,746,479.09c-.1,5.09,5.34,3.5,5.34,3.5,4.07-1,3.64,1.88,3.64,1.88.14,6.55,3.2,7.57,3.2,7.57,2.47,1.89,4.22-3.78,4.22-3.78a18.68,18.68,0,0,1,4.94-8.88c11.49-2.91,11.93-7.85,11.93-7.85a9.35,9.35,0,0,1,2.15-5.38c3.31-2.18,12.25-11.49,12.25-11.49,3.34-4.08,3.63-10.62,3.63-10.62,3.49-13.38,20.08-25.31,20.08-25.31C836.18,408.11,835.89,394.58,835.89,394.58Z" transform="translate(-0.16 -0.05)"/><path class="cls-35" d="M632.06,507.76s-6.31,2.34-5.57,7.88c0,0,2.46,6.27,9.35,2.58,0,0,6.77-3,6-8.24C641.87,510,639.23,505.3,632.06,507.76Z" transform="translate(-0.16 -0.05)"/><path class="cls-36" d="M358.07,510.79c-15.2-2.07-26.91.07-35.72,3.69a50.48,50.48,0,0,0-21-10.08c-8.07-1.74-15.7-8.62-15.7-8.62-10-9-16.82-5.12-16.82-5.12-5.7,11.87,5,26.28,12.28,34.1a21.69,21.69,0,0,0,1.17,2.18c.33.57.68,1.13,1.05,1.69-.3,0-.6,0-.89,0a2,2,0,0,0-.05.67c-.58-.39-1.16-.77-1.76-1.13a16.64,16.64,0,0,0-2.86-1.51,12.49,12.49,0,0,0-3.14-.8.05.05,0,0,0,0,0,0,0,0,0,0,0,.05c.94.54,1.9,1,2.84,1.45s1.92.86,2.87,1.34c.74.37,1.47.78,2.18,1.2.72,2.54,5.32,8.16,31.15,11.4.59.44,1.19.91,1.78,1.41a17.15,17.15,0,0,0,1.75,1.62v0h0c2.09,1.67,3.09,1.4,3.09,1.4,6.4-1.78,18.36-1.39,18.36-1.39,16.8,3.14,23.35,0,23.35,0-.69-4.91-6.77-3.36-6.77-3.36-6.32,1.52-7.2-2.77-7.2-2.77-.87-5.61,10.47-5.91,10.47-5.91,7.08-2.81,11.27-10.8,11.27-10.8C369.24,512.13,358.07,510.79,358.07,510.79Zm-75.26,15.76c.8.82,1.51,1.52,2.12,2.1l-1,0c-.37-.66-.72-1.31-1-2A.2.2,0,0,1,282.81,526.55Z" transform="translate(-0.16 -0.05)"/><path class="cls-37" d="M414.8,484s5.12-1,4.3-10.32c0,0-3.14-6.38-9-5.66,0,0-5.1,2.75-2.69,10C407.45,478.07,408.11,483.88,414.8,484Z" transform="translate(-0.16 -0.05)"/><path class="cls-38" d="M622.65,355.46s-1.49-2-5.38,4.36c0,0-6.84,6,0,8.65,0,0,4.39,1,6.34-5.22C623.61,363.25,626.58,357.2,622.65,355.46Z" transform="translate(-0.16 -0.05)"/><path class="cls-39" d="M560.69,428.62s11.63-.1,11.64-12.45c-.66-4.9,1.3-6,1.3-6a6.39,6.39,0,0,0,2.46-4.34,1.4,1.4,0,0,0,0-.5v-.06h0a2.85,2.85,0,0,0-1.27-1.53c-2.47-1.62-6.84-.92-6.84-.92-6.11,1-7.56,9.38-7.56,9.38s-.18,2.22-.12,4.38c0,.07,0,3.89-2.31,5a2.15,2.15,0,0,1-2.58-1.86,2.74,2.74,0,0,1-.08-.43s-1.17-2.18-2.62.73C552.69,420,551.23,428.18,560.69,428.62Z" transform="translate(-0.16 -0.05)"/><path class="cls-40" d="M442.87,325.64s-1.94-2-4.07,1.74c0,0-3.35,2.19-1.89,8,0,0,2,7.42,8,5.39,0,0,6-3.93,1.31-9.75C446.22,331,443.31,328.4,442.87,325.64Z" transform="translate(-0.16 -0.05)"/><path class="cls-41" d="M235,400.69c-2.62-3.2,1.79-5.61,1.79-5.61,2.66-7.21-8.78-12.83-8.78-12.83-3.92-2.78-8.83-12.25-8.83-12.25-9.71-23.56-20-18-20-18-3.92,4.22,0,20.71,0,20.71,3.93,9.65,1.56,9.57,1.56,9.57h0a4.92,4.92,0,0,0-4-.07c-.31-.42-.62-.84-.91-1.28-.38-.59-.71-1.21-1.08-1.8s-.74-1.18-1.17-1.77h0s0,0,0,0a8.46,8.46,0,0,0,.75,2,12,12,0,0,0,1.2,1.77c.31.41.65.79,1,1.18a4.09,4.09,0,0,0-.67.44c-.43-.22-.85-.45-1.29-.64a11.08,11.08,0,0,0-2-.76,8,8,0,0,0-2.13-.26h0a.05.05,0,0,0,0,0c.67.28,1.33.48,2,.72s1.34.41,2,.64c.4.14.78.32,1.17.48a5.37,5.37,0,0,0-1.14,1.4,40.09,40.09,0,0,0-18.18-4.64s-3.49,1.15-11.64-1.47c0,0-16-3.76-19.05,3.58,0,0-1.74,7.75,10.91,13.21,0,0,24.87,6.91,35.78,16.88,0,0,8.29,10,15.28,8.69,0,0,7.86-1.84,4.23-16.78,3.48,2.29,3.62-.15,3.62-.15a6.66,6.66,0,0,0-.15-1.9c7.22,1.85,9.9-2.77,9.9-2.77,5.23-2.51,5.52,1.64,5.52,1.64,2.91,7,6,7.86,6,7.86,7.44.58,6.22-3.69,6.22-3.69C241.37,399.43,235,400.69,235,400.69Z" transform="translate(-0.16 -0.05)"/><path class="cls-42" d="M358.73,330.07c-5.9-21.6-20.92-24.21-20.92-24.21-12.63,3.92-9.41,20.51-9.41,20.51.89,9.92-1.75,14.72-3.53,16.77-.78-1.27-1.27-2-1.27-2-3.75-5.1-6.16-6-7.36-6-.22-.62-.41-1.25-.58-1.88s-.32-1.49-.51-2.22-.35-1.48-.59-2.23c0,0,0,0,0,0a0,0,0,0,0,0,0,8.66,8.66,0,0,0,.09,2.33,12,12,0,0,0,.63,2.25c.2.59.44,1.17.69,1.75a1.42,1.42,0,0,0-.6.19s0,.08,0,.12c-.45-.48-.91-.95-1.4-1.4a12.71,12.71,0,0,0-1.81-1.46,9.3,9.3,0,0,0-2.11-1h0s0,0,0,0c.59.52,1.21,1,1.81,1.43s1.24.88,1.84,1.35,1.09.89,1.61,1.37c-.79,2.84,1.31,5.71,2.41,7a73.25,73.25,0,0,0-46.72-20.58s-9.67-2.91-14.91,0c0,0-4.24,8.14,11.26,21.23,0,0,5.86,5.5,10.84,10.88,2.82,3.25,6.4,8.2,6.23,12.25a7.92,7.92,0,0,0,.1,2.06,5.14,5.14,0,0,0,2.43,4.11s2.75,2.12,5.82-2.13h0a7.13,7.13,0,0,1,4.18-3.09,5.86,5.86,0,0,1,2.79.27l.48.19a6.81,6.81,0,0,1,1.26.76s2.19,4.18-2.11,8.64c0,0-2.68,5.91,0,9.11a11.79,11.79,0,0,0,7.34,4.36s6.11.87,7,12.8c0,0-.22,4.79,4.66,5,0,0,17.45-1.87,9.6-43.87a38,38,0,0,0-1.23-6.83c9.31,15.28,11.19,14.78,11.19,14.78.23-2.72-1.1-6.86-3-11.27a34.1,34.1,0,0,0,10.45,5.32c6.76.65,16.14,7.84,16.14,7.84,13.09,12.85,15.71,9,15.71,9,2.62-12-14.18-35.35-14.18-35.35C359.82,343.82,358.73,330.07,358.73,330.07Z" transform="translate(-0.16 -0.05)"/><path class="cls-43" d="M295,273.51s6.22-.48,2.41-6.5c0,0-3.9-5.05-8.45-4.94,0,0-1.81,1.35-.68,5A7.63,7.63,0,0,0,295,273.51Z" transform="translate(-0.16 -0.05)"/><path class="cls-44" d="M260.54,255s7.4-1.83,7.1-11.1c4.94,6.47,4.44,2.26,3.6-1.13,3.35.05,6.1,3.28,6.1,3.28,5.89,9.06,7.42,3.39,7.42,3.39,1-8.62-6.33-13.86-6.33-13.86-3.06-2.83-2.18-7.85-2.18-7.85-.22-7-3.49-7.2-3.49-7.2-6.33.43-7.4,11.09-7.4,11.09h0c-1.49-1.62-2.53-1.86-3.17-1.73-.13-.27-.26-.54-.38-.82s-.29-.82-.46-1.22-.31-.81-.5-1.21h0A5.28,5.28,0,0,0,261,228a7.32,7.32,0,0,0,.54,1.22c.13.26.28.52.43.77a1.53,1.53,0,0,0-.43.24c-.24-.19-.48-.38-.73-.56a7.2,7.2,0,0,0-1.16-.71,5.17,5.17,0,0,0-1.29-.44h0s0,0,0,0c.38.26.77.46,1.15.69s.78.42,1.16.65.5.32.74.48v0c-.49.56-.16,2,.44,3.58a14.8,14.8,0,0,0-2.41-1.84s-11.78-8.73-19.63-3.71c0,0-1.11,8.07,10.68,12,0,0,6.33,1.53,6.12,6.11C256.62,246.51,254.87,254.37,260.54,255Z" transform="translate(-0.16 -0.05)"/><path class="cls-45" d="M423.53,226.85a15.52,15.52,0,0,1,6.53,11.75s1.49,7.91,3.59,16.42a22.52,22.52,0,0,1-5.08,14.42s-7.36,19,5.08,20.71c0,0,13.88-1.43,19.55-16.64,0,0,4.9-13.52,10.5-17.7a7.48,7.48,0,0,0,1.83,4.23s1.63-1.07,2.76-5.51a41.64,41.64,0,0,1,4.11,8.78c4.58,11.78,8.29,15.06,8.29,15.06,4.58,3.05,6.76-.22,6.76-.22,3.06-3.06,5.46-3.06,5.46-3.06,3.14,1.11,1.21,5.52.54,6.83-.06.11-.11.22-.16.32l0,.06h0c-1.27,2.68.08,3.92.08,3.92,3.06.44,5.89-2.62,5.89-2.62,6.77-10.25,1.31-18.76,1.31-18.76s-8.69-10-2.33-20.57a19,19,0,0,1,4.3-4.74c6.76-7.64,7-27.49,7-27.49,0-4.8-5.89-3.49-5.89-3.49-24,0-34.3,22.48-34.3,22.48h0c-.28-2.24-.81-4.05-1.74-4.64,0,0,0-.11,0-.16.23-.75.49-1.48.77-2.21s.64-1.42.93-2.13.6-1.43.86-2.19c0,0,0,0,0,0s0,0,0,0a8.79,8.79,0,0,0-1.34,2,12.66,12.66,0,0,0-.84,2.22c-.25.8-.46,1.6-.63,2.41l-.12-.05a.83.83,0,0,0-.35.24,27.35,27.35,0,0,0-.41-2.86,13,13,0,0,0-.6-2.3,9.25,9.25,0,0,0-1.13-2.1s0,0,0,0,0,0,0,0c.18.78.42,1.52.63,2.27s.49,1.47.7,2.22.39,1.51.53,2.27c.05.24.09.47.13.7-.48.6-1.19,2-1.77,5.07a36.47,36.47,0,0,0-2.37-4.9s-14-25.28-43.29-20.92c0,0-10.66,3.71,1.86,18A23.06,23.06,0,0,0,423.53,226.85Z" transform="translate(-0.16 -0.05)"/><path class="cls-46" d="M680.4,280.55c-12.22-6.69-23.86,9.6-23.86,9.6a21.87,21.87,0,0,1-12.49,7.2,8.11,8.11,0,0,0,.25-4.34.46.46,0,0,0,.07-.07c.44-.44.91-.86,1.39-1.26s1-.75,1.48-1.14,1-.77,1.44-1.21c0,0,0,0,0,0l0,0a7.25,7.25,0,0,0-1.71.87,10,10,0,0,0-1.44,1.24,18.65,18.65,0,0,0-1.3,1.37,1.49,1.49,0,0,0-.18-.3l-.09,0c.22-.56.43-1.12.61-1.7A10.43,10.43,0,0,0,645,289a7.18,7.18,0,0,0,0-1.91l0,0s0,0,0,0c-.18.62-.29,1.23-.44,1.83s-.22,1.22-.36,1.83-.3,1.21-.5,1.81c0,0,0,.08,0,.12a10,10,0,0,0-2.87,2.95,0,0,0,0,1,0,0c-1.71-6.38-7-20-7-20.05-.91-3.17-3.78-10.72-10.57-10.2,0,0-3.91,2-5.23,10.92a44,44,0,0,1-1.32,13.11,5.94,5.94,0,0,0-.23.86,44.5,44.5,0,0,1-2.26,6.41,31.66,31.66,0,0,1-7.69,9.13c-5.72,5.29-10.26,14.15-10.26,14.15s-6.61,13,12,7c0,0,11.34-6,15-6,0,0,4.64-.32,8.36-6.69a23.35,23.35,0,0,0-1.63,6.22s1.21,1,3.93-2.34a22.09,22.09,0,0,1-1.71,8.43c-5.24,9.28-2.22,16.31-2.22,16.31,5.05,5.53,9.2-1.68,9.2-1.68,0-2.56,3.2-2.1,3.2-2.1,14.84-5.82,16.87-20.65,16.87-20.65,1.17-11.64,16.79-19.22,16.79-19.22C691.29,284.89,680.4,280.55,680.4,280.55Z" transform="translate(-0.16 -0.05)"/><g class="cls-47"><path class="cls-48" d="M432.2,524.49l-.17,0Z" transform="translate(-0.16 -0.05)"/><path class="cls-49" d="M591.71,509.86s-5.72-2.58-9.58.27c0,0-11.3,7.48-19.17,1.2-2.75-2.47-6.72-8.24.2-17.84,0,0,7.86-6.76,10.69-8.72,0,0,8.73-8.08,2.84-21.17,0,0-17.24-16.8-36.66,5.24,0,0-.15.29-.44.8a13.88,13.88,0,0,0-6-5.82C522.87,459,515,471.41,515,471.41c-6.18,5-10.95,2.73-13.45.61.31-5.11,2.38-11.19,7.87-18,0,0,8.12-12.43,3.1-22.47,0,0-6.91-11.78-19.82-6.76,0,0-12.47,4.58-3.52,35.34a22.66,22.66,0,0,1,1.55,4.92,57.31,57.31,0,0,0-7.62-1.21C467.25,461.64,460.71,476,460.71,476a26.83,26.83,0,0,1-9.11,14.39c-.61-.06-1.23-.12-1.89-.21,0,0-31.42-2.22-39.28,11.76,0,0-9.38,13.11,0,21.4,0,0,10.7,4.29,21.6,1.16a22.08,22.08,0,0,1,5.7-1.9l-5.53,1.85c1.3-.41,10-2.66,13.88,9.44,0,0,.87,13.3-12.43,16.09h0a51.28,51.28,0,0,1-8.13,1.06s-19.86,3.2-15.93,25.49c0,0,5.95,20.4,29.81,16.55a58.71,58.71,0,0,0,21.34-9.72h0s5.19-3.86,15.3-3.23a17.76,17.76,0,0,1,7.12,6.72,12.13,12.13,0,0,0,10.22,7.62,2.7,2.7,0,0,0,0,.28s1.08,14.13,12.12,14.13a15.3,15.3,0,0,1,11.48.91s9.3,6,23-1.73c0,0,15.64-8.36,11.27-24.51a30.39,30.39,0,0,0-6.3-8.49c5.06-6,10.45-5.69,10.45-5.69C564.42,566,568.37,555,568.37,555c2.63-5.47,2.13-11.27.59-16.24a20.62,20.62,0,0,1,9.26,6s9.16,8,16.58-6.48C594.8,538.29,603,519,591.71,509.86Z" transform="translate(-0.16 -0.05)"/><path class="cls-50" d="M835.89,394.58c-.44-3.78-5.09-8.58-5.09-8.58-2.62-2.47-6.55,0-6.55,0-3,2-18,7.86-18,7.86-18.19,6.69-18.33,13.23-18.33,13.23-1.46,4.08-7.13,5-7.13,5a48.52,48.52,0,0,0-11.83,6,7.5,7.5,0,0,0-1.7-5.92c.3-.3.59-.6.89-.88.94-.93,1.92-1.81,2.93-2.65s2.1-1.59,3.11-2.42,2.06-1.63,3.05-2.55a0,0,0,0,0,0-.05.05.05,0,0,0-.07,0,15.58,15.58,0,0,0-3.59,1.83,21.19,21.19,0,0,0-3.05,2.62,41.62,41.62,0,0,0-3.55,3.85,5.2,5.2,0,0,0-.43-.37,42.5,42.5,0,0,0,2-5.1,21.21,21.21,0,0,0,1-3.9,15.61,15.61,0,0,0,0-4,0,0,0,0,0,0,0s-.05,0-.06,0c-.37,1.3-.6,2.59-.91,3.86s-.47,2.58-.77,3.87-.65,2.55-1.05,3.81c-.15.47-.31.94-.47,1.41-1.17-.18-5.47-.28-9.93,6.39h0s8.71-19.21,4.56-24.66a5.58,5.58,0,0,0-4.56-2.4s-7.87-2.62-3.51-15.06c0,0,9.91-15.7-1.48-24.65,0,0-5.28-5.89-5.94-6.11,0,0-7.85,4-22.91,31.89,0,0-1.52,6.29-2.61,12.62,0,0-3.24,18.77-5.89,21.92,0,0-6.33,4.26-10.91,8.19,0,0-12.88,15.05-19.42,28.36,0,0-9.82,22.26-7.2,34.69,0,0,5.45.44,15.05-5.45a12.85,12.85,0,0,1,4.37-1.09s3.92-1.09,7.63-9.6c0,0,1.09-2.92,7.2-2.23,0,0,1.75-.39,1.75,4,0,0-.87,5.24,2,5.24,0,0,4.8-.44,6.55-2.62a30,30,0,0,1-.32-3c-.17-4.43,1.62-5.58,2.73-5.88a4.48,4.48,0,0,0,.85-.09h0c1.37-.28,3.24-1.3,5.24-4.29,0,0,4.3-5.95,8.87-7.78-1.49,2.85-2.77,5.4-3.64,7.35,0,0-2.4,5.23,0,6.54,0,0,2.4,2.84,8.08-3.71,0,0,2.5-2.73,6-6.92-.84,2.48-1.24,3.58-1.24,3.58C744,469.74,746,479.09,746,479.09c-.1,5.09,5.34,3.5,5.34,3.5,4.07-1,3.64,1.88,3.64,1.88.14,6.55,3.2,7.57,3.2,7.57,2.47,1.89,4.22-3.78,4.22-3.78a18.68,18.68,0,0,1,4.94-8.88c11.49-2.91,11.93-7.85,11.93-7.85a9.35,9.35,0,0,1,2.15-5.38c3.31-2.18,12.25-11.49,12.25-11.49,3.34-4.08,3.63-10.62,3.63-10.62,3.49-13.38,20.08-25.31,20.08-25.31C836.18,408.11,835.89,394.58,835.89,394.58Z" transform="translate(-0.16 -0.05)"/><path class="cls-51" d="M632.06,507.76s-6.31,2.34-5.57,7.88c0,0,2.46,6.27,9.35,2.58,0,0,6.77-3,6-8.24C641.87,510,639.23,505.3,632.06,507.76Z" transform="translate(-0.16 -0.05)"/><path class="cls-52" d="M358.07,510.79c-15.2-2.07-26.91.07-35.72,3.69a50.48,50.48,0,0,0-21-10.08c-8.07-1.74-15.7-8.62-15.7-8.62-10-9-16.82-5.12-16.82-5.12-5.7,11.87,5,26.28,12.28,34.1a21.69,21.69,0,0,0,1.17,2.18c.33.57.68,1.13,1.05,1.69-.3,0-.6,0-.89,0a2,2,0,0,0-.05.67c-.58-.39-1.16-.77-1.76-1.13a16.64,16.64,0,0,0-2.86-1.51,12.49,12.49,0,0,0-3.14-.8.05.05,0,0,0,0,0,0,0,0,0,0,0,.05c.94.54,1.9,1,2.84,1.45s1.92.86,2.87,1.34c.74.37,1.47.78,2.18,1.2.72,2.54,5.32,8.16,31.15,11.4.59.44,1.19.91,1.78,1.41a17.15,17.15,0,0,0,1.75,1.62v0h0c2.09,1.67,3.09,1.4,3.09,1.4,6.4-1.78,18.36-1.39,18.36-1.39,16.8,3.14,23.35,0,23.35,0-.69-4.91-6.77-3.36-6.77-3.36-6.32,1.52-7.2-2.77-7.2-2.77-.87-5.61,10.47-5.91,10.47-5.91,7.08-2.81,11.27-10.8,11.27-10.8C369.24,512.13,358.07,510.79,358.07,510.79Zm-75.26,15.76c.8.82,1.51,1.52,2.12,2.1l-1,0c-.37-.66-.72-1.31-1-2A.2.2,0,0,1,282.81,526.55Z" transform="translate(-0.16 -0.05)"/><path class="cls-53" d="M414.8,484s5.12-1,4.3-10.32c0,0-3.14-6.38-9-5.66,0,0-5.1,2.75-2.69,10C407.45,478.07,408.11,483.88,414.8,484Z" transform="translate(-0.16 -0.05)"/><path class="cls-54" d="M622.65,355.46s-1.49-2-5.38,4.36c0,0-6.84,6,0,8.65,0,0,4.39,1,6.34-5.22C623.61,363.25,626.58,357.2,622.65,355.46Z" transform="translate(-0.16 -0.05)"/><path class="cls-55" d="M560.69,428.62s11.63-.1,11.64-12.45c-.66-4.9,1.3-6,1.3-6a6.39,6.39,0,0,0,2.46-4.34,1.4,1.4,0,0,0,0-.5v-.06h0a2.85,2.85,0,0,0-1.27-1.53c-2.47-1.62-6.84-.92-6.84-.92-6.11,1-7.56,9.38-7.56,9.38s-.18,2.22-.12,4.38c0,.07,0,3.89-2.31,5a2.15,2.15,0,0,1-2.58-1.86,2.74,2.74,0,0,1-.08-.43s-1.17-2.18-2.62.73C552.69,420,551.23,428.18,560.69,428.62Z" transform="translate(-0.16 -0.05)"/><path class="cls-56" d="M442.87,325.64s-1.94-2-4.07,1.74c0,0-3.35,2.19-1.89,8,0,0,2,7.42,8,5.39,0,0,6-3.93,1.31-9.75C446.22,331,443.31,328.4,442.87,325.64Z" transform="translate(-0.16 -0.05)"/><path class="cls-57" d="M235,400.69c-2.62-3.2,1.79-5.61,1.79-5.61,2.66-7.21-8.78-12.83-8.78-12.83-3.92-2.78-8.83-12.25-8.83-12.25-9.71-23.56-20-18-20-18-3.92,4.22,0,20.71,0,20.71,3.93,9.65,1.56,9.57,1.56,9.57h0a4.92,4.92,0,0,0-4-.07c-.31-.42-.62-.84-.91-1.28-.38-.59-.71-1.21-1.08-1.8s-.74-1.18-1.17-1.77h0s0,0,0,0a8.46,8.46,0,0,0,.75,2,12,12,0,0,0,1.2,1.77c.31.41.65.79,1,1.18a4.09,4.09,0,0,0-.67.44c-.43-.22-.85-.45-1.29-.64a11.08,11.08,0,0,0-2-.76,8,8,0,0,0-2.13-.26h0a.05.05,0,0,0,0,0c.67.28,1.33.48,2,.72s1.34.41,2,.64c.4.14.78.32,1.17.48a5.37,5.37,0,0,0-1.14,1.4,40.09,40.09,0,0,0-18.18-4.64s-3.49,1.15-11.64-1.47c0,0-16-3.76-19.05,3.58,0,0-1.74,7.75,10.91,13.21,0,0,24.87,6.91,35.78,16.88,0,0,8.29,10,15.28,8.69,0,0,7.86-1.84,4.23-16.78,3.48,2.29,3.62-.15,3.62-.15a6.66,6.66,0,0,0-.15-1.9c7.22,1.85,9.9-2.77,9.9-2.77,5.23-2.51,5.52,1.64,5.52,1.64,2.91,7,6,7.86,6,7.86,7.44.58,6.22-3.69,6.22-3.69C241.37,399.43,235,400.69,235,400.69Z" transform="translate(-0.16 -0.05)"/><path class="cls-58" d="M358.73,330.07c-5.9-21.6-20.92-24.21-20.92-24.21-12.63,3.92-9.41,20.51-9.41,20.51.89,9.92-1.75,14.72-3.53,16.77-.78-1.27-1.27-2-1.27-2-3.75-5.1-6.16-6-7.36-6-.22-.62-.41-1.25-.58-1.88s-.32-1.49-.51-2.22-.35-1.48-.59-2.23c0,0,0,0,0,0a0,0,0,0,0,0,0,8.66,8.66,0,0,0,.09,2.33,12,12,0,0,0,.63,2.25c.2.59.44,1.17.69,1.75a1.42,1.42,0,0,0-.6.19s0,.08,0,.12c-.45-.48-.91-.95-1.4-1.4a12.71,12.71,0,0,0-1.81-1.46,9.3,9.3,0,0,0-2.11-1h0s0,0,0,0c.59.52,1.21,1,1.81,1.43s1.24.88,1.84,1.35,1.09.89,1.61,1.37c-.79,2.84,1.31,5.71,2.41,7a73.25,73.25,0,0,0-46.72-20.58s-9.67-2.91-14.91,0c0,0-4.24,8.14,11.26,21.23,0,0,5.86,5.5,10.84,10.88,2.82,3.25,6.4,8.2,6.23,12.25a7.92,7.92,0,0,0,.1,2.06,5.14,5.14,0,0,0,2.43,4.11s2.75,2.12,5.82-2.13h0a7.13,7.13,0,0,1,4.18-3.09,5.86,5.86,0,0,1,2.79.27l.48.19a6.81,6.81,0,0,1,1.26.76s2.19,4.18-2.11,8.64c0,0-2.68,5.91,0,9.11a11.79,11.79,0,0,0,7.34,4.36s6.11.87,7,12.8c0,0-.22,4.79,4.66,5,0,0,17.45-1.87,9.6-43.87a38,38,0,0,0-1.23-6.83c9.31,15.28,11.19,14.78,11.19,14.78.23-2.72-1.1-6.86-3-11.27a34.1,34.1,0,0,0,10.45,5.32c6.76.65,16.14,7.84,16.14,7.84,13.09,12.85,15.71,9,15.71,9,2.62-12-14.18-35.35-14.18-35.35C359.82,343.82,358.73,330.07,358.73,330.07Z" transform="translate(-0.16 -0.05)"/><path class="cls-59" d="M295,273.51s6.22-.48,2.41-6.5c0,0-3.9-5.05-8.45-4.94,0,0-1.81,1.35-.68,5A7.63,7.63,0,0,0,295,273.51Z" transform="translate(-0.16 -0.05)"/><path class="cls-60" d="M260.54,255s7.4-1.83,7.1-11.1c4.94,6.47,4.44,2.26,3.6-1.13,3.35.05,6.1,3.28,6.1,3.28,5.89,9.06,7.42,3.39,7.42,3.39,1-8.62-6.33-13.86-6.33-13.86-3.06-2.83-2.18-7.85-2.18-7.85-.22-7-3.49-7.2-3.49-7.2-6.33.43-7.4,11.09-7.4,11.09h0c-1.49-1.62-2.53-1.86-3.17-1.73-.13-.27-.26-.54-.38-.82s-.29-.82-.46-1.22-.31-.81-.5-1.21h0A5.28,5.28,0,0,0,261,228a7.32,7.32,0,0,0,.54,1.22c.13.26.28.52.43.77a1.53,1.53,0,0,0-.43.24c-.24-.19-.48-.38-.73-.56a7.2,7.2,0,0,0-1.16-.71,5.17,5.17,0,0,0-1.29-.44h0s0,0,0,0c.38.26.77.46,1.15.69s.78.42,1.16.65.5.32.74.48v0c-.49.56-.16,2,.44,3.58a14.8,14.8,0,0,0-2.41-1.84s-11.78-8.73-19.63-3.71c0,0-1.11,8.07,10.68,12,0,0,6.33,1.53,6.12,6.11C256.62,246.51,254.87,254.37,260.54,255Z" transform="translate(-0.16 -0.05)"/><path class="cls-61" d="M423.53,226.85a15.52,15.52,0,0,1,6.53,11.75s1.49,7.91,3.59,16.42a22.52,22.52,0,0,1-5.08,14.42s-7.36,19,5.08,20.71c0,0,13.88-1.43,19.55-16.64,0,0,4.9-13.52,10.5-17.7a7.48,7.48,0,0,0,1.83,4.23s1.63-1.07,2.76-5.51a41.64,41.64,0,0,1,4.11,8.78c4.58,11.78,8.29,15.06,8.29,15.06,4.58,3.05,6.76-.22,6.76-.22,3.06-3.06,5.46-3.06,5.46-3.06,3.14,1.11,1.21,5.52.54,6.83-.06.11-.11.22-.16.32l0,.06h0c-1.27,2.68.08,3.92.08,3.92,3.06.44,5.89-2.62,5.89-2.62,6.77-10.25,1.31-18.76,1.31-18.76s-8.69-10-2.33-20.57a19,19,0,0,1,4.3-4.74c6.76-7.64,7-27.49,7-27.49,0-4.8-5.89-3.49-5.89-3.49-24,0-34.3,22.48-34.3,22.48h0c-.28-2.24-.81-4.05-1.74-4.64,0,0,0-.11,0-.16.23-.75.49-1.48.77-2.21s.64-1.42.93-2.13.6-1.43.86-2.19c0,0,0,0,0,0s0,0,0,0a8.79,8.79,0,0,0-1.34,2,12.66,12.66,0,0,0-.84,2.22c-.25.8-.46,1.6-.63,2.41l-.12-.05a.83.83,0,0,0-.35.24,27.35,27.35,0,0,0-.41-2.86,13,13,0,0,0-.6-2.3,9.25,9.25,0,0,0-1.13-2.1s0,0,0,0,0,0,0,0c.18.78.42,1.52.63,2.27s.49,1.47.7,2.22.39,1.51.53,2.27c.05.24.09.47.13.7-.48.6-1.19,2-1.77,5.07a36.47,36.47,0,0,0-2.37-4.9s-14-25.28-43.29-20.92c0,0-10.66,3.71,1.86,18A23.06,23.06,0,0,0,423.53,226.85Z" transform="translate(-0.16 -0.05)"/><path class="cls-62" d="M680.4,280.55c-12.22-6.69-23.86,9.6-23.86,9.6a21.87,21.87,0,0,1-12.49,7.2,8.11,8.11,0,0,0,.25-4.34.46.46,0,0,0,.07-.07c.44-.44.91-.86,1.39-1.26s1-.75,1.48-1.14,1-.77,1.44-1.21c0,0,0,0,0,0l0,0a7.25,7.25,0,0,0-1.71.87,10,10,0,0,0-1.44,1.24,18.65,18.65,0,0,0-1.3,1.37,1.49,1.49,0,0,0-.18-.3l-.09,0c.22-.56.43-1.12.61-1.7A10.43,10.43,0,0,0,645,289a7.18,7.18,0,0,0,0-1.91l0,0s0,0,0,0c-.18.62-.29,1.23-.44,1.83s-.22,1.22-.36,1.83-.3,1.21-.5,1.81c0,0,0,.08,0,.12a10,10,0,0,0-2.87,2.95,0,0,0,0,1,0,0c-1.71-6.38-7-20-7-20.05-.91-3.17-3.78-10.72-10.57-10.2,0,0-3.91,2-5.23,10.92a44,44,0,0,1-1.32,13.11,5.94,5.94,0,0,0-.23.86,44.5,44.5,0,0,1-2.26,6.41,31.66,31.66,0,0,1-7.69,9.13c-5.72,5.29-10.26,14.15-10.26,14.15s-6.61,13,12,7c0,0,11.34-6,15-6,0,0,4.64-.32,8.36-6.69a23.35,23.35,0,0,0-1.63,6.22s1.21,1,3.93-2.34a22.09,22.09,0,0,1-1.71,8.43c-5.24,9.28-2.22,16.31-2.22,16.31,5.05,5.53,9.2-1.68,9.2-1.68,0-2.56,3.2-2.1,3.2-2.1,14.84-5.82,16.87-20.65,16.87-20.65,1.17-11.64,16.79-19.22,16.79-19.22C691.29,284.89,680.4,280.55,680.4,280.55Z" transform="translate(-0.16 -0.05)"/></g></g></g></svg>