<svg xmlns="http://www.w3.org/2000/svg" xmlns:xlink="http://www.w3.org/1999/xlink" viewBox="0 0 1027 1172"><defs><style>.cls-1{isolation:isolate;}.cls-2{opacity:0.3;}.cls-3{fill:#7f743e;}.cls-4{fill:#b49f38;}.cls-5{fill:#91874f;}.cls-6{fill:#d66d34;}.cls-7{fill:#e27b39;}.cls-8{fill:#593e36;}.cls-9{fill:#ec8c3a;}.cls-10{fill:#7f4b41;}.cls-11{fill:url(#linear-gradient);}.cls-12{opacity:0.7;}.cls-13{fill:url(#linear-gradient-2);}.cls-14{fill:url(#linear-gradient-3);}.cls-15{fill:url(#linear-gradient-4);}.cls-16{opacity:0.6;}.cls-17{fill:#b78f6a;}.cls-18{fill:#d5b392;}.cls-19{fill:#f6d7b3;}.cls-20{fill:url(#linear-gradient-6);}.cls-21{fill:url(#linear-gradient-7);}.cls-22{mix-blend-mode:overlay;fill:url(#linear-gradient-8);}.cls-23{fill:url(#linear-gradient-9);}</style><linearGradient id="linear-gradient" x1="502.52" y1="582.88" x2="502.52" y2="863.94" gradientUnits="userSpaceOnUse"><stop offset="0" stop-color="#332f2f" stop-opacity="0"/><stop offset="1" stop-color="#2f2f3f"/></linearGradient><linearGradient id="linear-gradient-2" x1="507.25" y1="581.51" x2="498.53" y2="778.75" gradientUnits="userSpaceOnUse"><stop offset="0" stop-color="#916c3f"/><stop offset="1" stop-color="#f2d3af"/></linearGradient><linearGradient id="linear-gradient-3" x1="507.25" y1="581.51" x2="498.53" y2="778.75" xlink:href="#linear-gradient-2"/><linearGradient id="linear-gradient-4" x1="507.26" y1="581.51" x2="498.53" y2="778.75" xlink:href="#linear-gradient-2"/><linearGradient id="linear-gradient-6" x1="-5190.08" y1="2926.05" x2="-5043.31" y2="3017.95" gradientTransform="matrix(1, 0, 0, 0, -0.16, 0)" gradientUnits="userSpaceOnUse"><stop offset="0" stop-color="#332f2f" stop-opacity="0"/><stop offset="1" stop-color="#2f2f3f" stop-opacity="0.6"/></linearGradient><linearGradient id="linear-gradient-7" x1="-4986.58" y1="4436.3" x2="-4839.81" y2="4528.2" xlink:href="#linear-gradient-6"/><linearGradient id="linear-gradient-8" x1="495.8" y1="393.39" x2="510.2" y2="689.24" gradientUnits="userSpaceOnUse"><stop offset="0" stop-color="#455b6b" stop-opacity="0"/><stop offset="1" stop-color="#455b6b"/></linearGradient><linearGradient id="linear-gradient-9" x1="353.34" y1="441.16" x2="1182" y2="981.81" gradientTransform="matrix(1, 0, 0, 1, 0, 0)" xlink:href="#linear-gradient-6"/></defs><g class="cls-1"><g id="Layer_1" data-name="Layer 1"><g class="cls-2"><path class="cls-3" d="M498,897.3s-.51,7.62,1.89,9a3.54,3.54,0,0,1,2.18,3.78s-1.38,4.58,2.91,9.53c0,0,6,7,4.64,15.42,0,0,.09,5.6,4.09,7.49a7.13,7.13,0,0,1,2.76,3.34s8.22,7.57,12.22,6.77c0,0,6-3.89-3-22.13a65.17,65.17,0,0,0-9.09-10.89s-8.22-4.37-7.49-9.82c0,0,1.34-5.92-1.31-8.51,0,0-5.27-3.38-5.4-5.58l-.28-1.84H496.8Z" transform="translate(-0.16 -0.05)"/><path class="cls-4" d="M485.15,896c-.91,0-2.06,1.52-2.06,1.52-3.86,2.4-5.63,0-5.63,0-.35-3.47,4.33-4,4.33-4a12.19,12.19,0,0,0,8.11-3.6l4.59.51C492.33,894.62,486.4,895.78,485.15,896Z" transform="translate(-0.16 -0.05)"/><path class="cls-5" d="M491.86,909.28c-4,3.17-2.84,9-2.84,9a11.1,11.1,0,0,1-10.61,7.22h0c-5.9.69-6.62,6.8-6.62,6.8h0a7.88,7.88,0,0,1-3.82,5.94c-3.93,1.09-2.18-12.33-2.18-12.33,1.07-2,.62-8.21.62-8.21.73-9,5.13-8.2,5.13-8.2,2.71-.06,3-2.91,3-2.91.88-4.81,6.76-5,6.76-5,4.8-1.42,4.74-4.73,4.74-4.73-.2-.63-.52-.84-.87-.83,1.25-.2,7.18-1.36,9.34-5.61l2.83.32C500.71,900.79,491.86,909.28,491.86,909.28Z" transform="translate(-0.16 -0.05)"/><path class="cls-6" d="M454.77,876.2s-24.58,13.74-49.46,3.26c0,0-10.05-5.63-13.53-11.76,0,0-6.27-9.15-16.59-10,0,0-27.48-3.36-33.44-22.71,0,0-4.36-16.29,1-26.76,0,0,3.49-2.47,4.51-5.53,0,0,1.38-5.06-4.95-6.25,0,0-7-3.06-6.11-12.51,0,0,.44-8.21-3.63-13.56,0,0-6.4-10.15-.88-21.64,0,0,2.77-7.56.59-13.67,0,0-5.49-19,1.89-29.76a80.88,80.88,0,0,0,7.28-12.3,20,20,0,0,1,14.39-10.14s7.42-1.77,10.34-7.88c0,0,27.15-44.21,68.41-18.61Z" transform="translate(-0.16 -0.05)"/><path class="cls-7" d="M483.09,886.5a41,41,0,0,1-33.43-5.09s-1.62-2.46-8.15-4.83c0,0-14.81-5.8-17.93-16.81,0,0-5.16-9.21-9.84-12.34,0,0-25.3-15.46-26.24-43.56,0,0,.47-9.36-1.56-12.78,0,0-11.21-21.71-8-33.17,0,0,3.12-8.73,6.09-13,0,0,5.93-6.13,5.62-17.76,0,0,.78-11.95,1.87-16.69,0,0,.57-4.14,1.35-8.7,0,0,1.31-10.92,10.37-21.93,0,0,14.21-11.38,16.71-17.88,0,0,10-20.79,29.82-20.63,0,0,27-.29,30.14,21.86Z" transform="translate(-0.16 -0.05)"/><path class="cls-6" d="M561.87,875.81a15.68,15.68,0,0,0,14.47,1.84A10.85,10.85,0,0,1,589,875.81s19.64,9,28.15-9.29c0,0-1.53-6.11,8.72-7.86,0,0,17.62-1.74,26.24-8.29,0,0,3.73-3,4.47-7.42,0,0-2.44-9.7.62-11.67,0,0,8.67-3.16,8.55-11.33,0,0-.55-11.69,5.2-18.89,0,0,8.16-15.41,2.92-27.77,0,0-7-9.1-4.14-18,0,0,3.45-4.72,1.22-14a15.92,15.92,0,0,1-1.45-12.67s5.25-24.89-25.3-36.55c0,0-11.94-8.56-13.3-17.53,0,0-.66-8.22-10.7-5.64,0,0-5.64,1.46-9.16-5.94,0,0-10.69-21.31-47.89-3.23Z" transform="translate(-0.16 -0.05)"/><path class="cls-7" d="M516.21,885s20.24,11.75,33.71,1.51c0,0,2.89-8.92,9.91-10.3a20.43,20.43,0,0,0,14-8.66s2.62-5.24,10-5.82c0,0,7.38-3.2,7.38-14.26,0,0,.53-7.85,5-11.05,0,0,11.92-10.76,7.68-25,0,0-6.65-7.31.91-12.67,0,0,4.13-6.24,4.92-16.71,0,0-.53-20.07-4-26.47,0,0-8.56-11.28-.31-25.86,0,0,11.21-19.63-7.1-37.62,0,0-8.19-6.19-9.55-21.75,0,0-2.4-19.5-25.84-23.28,0,0-13.88.58-19.69-2.62,0,0-19.66-7.27-29.34,11.64Z" transform="translate(-0.16 -0.05)"/><path class="cls-8" d="M430.1,789.3s-7.42-4.08-5.68-12.51c0,0,1.38-4.07-2.26-4.95,0,0-6.68-3.16-3.41-11.18,0,0,6.55-7.33,17.45-.58,0,0,9.21,4.56,5.59,20C441.79,780.13,438.17,790.17,430.1,789.3Z" transform="translate(-0.16 -0.05)"/><path class="cls-8" d="M574.55,783.17s-4.61,8.37-13.43,6.7c0,0-7.73-3.42-6.42-11.06,0,0,.74-3.85,2.18-5.07,0,0,1.77-1.55,1.31-5.79a10.52,10.52,0,0,1-.16-1.07v0a3.23,3.23,0,0,1-.06-1.24,9.63,9.63,0,0,1,3.15-7.48s12.34-4.55,15.22,8.72C576.34,766.86,578,776.63,574.55,783.17Z" transform="translate(-0.16 -0.05)"/><path class="cls-9" d="M486,889.91s-13.14-2.82-17.8-18.42c0,0-4.51-13.44-6.69-20.51,0,0-3.49-8.38-4.22-14.74,0,0-.8-17-5.93-28.09,0,0-8.61-19.14-11.52-23.62,0,0-4.49-8.22,2.47-11.62,0,0,10.16-.25,6.9-13.16,0,0-3.42-9.94-.87-19.38,0,0,3.71-9,2-16.81,0,0-.87-9.43,1.16-13.2a45.43,45.43,0,0,0,1.8-11.23s.83-19.22,8.25-33.23c0,0,2.73-6.88,3.18-9.7,0,0,3.5-11.69,14.56-16.5,0,0,4.31,1,6.74-1.64a27.24,27.24,0,0,1,28.89,7.19S531.58,661.66,530,681.4c0,0-1.73,7.22-1,10.54,0,0,2.32,8.63-.88,14.64,0,0-2.17,8.62.88,12.08,0,0,3.63,5.88.57,9.8,0,0-10,4.32-4.44,18.35,0,0,6,7,5,21.69,0,0-1.45,14.16-1.74,20.08,0,0-2.62,56-4.36,63.84a45.45,45.45,0,0,0-1.41,12.86s-3.89,30.59-18.26,30.46c0,0-4.47.3-7-1.72,0,0,.5-2.31-2.26-3.18C495.06,890.84,489.76,891.32,486,889.91Z" transform="translate(-0.16 -0.05)"/><path class="cls-10" d="M475.29,739.34a21.68,21.68,0,0,1,.2-3.91s1.4-7.07,7.57-5.72c0,0,8.8,4.62,12.83,3.1a11,11,0,0,0,6.87-3.27s9.06-3.92,14.68,0c0,0,4.57,3.83-.67,10.31C496.75,749.44,480.56,742.29,475.29,739.34Z" transform="translate(-0.16 -0.05)"/><path class="cls-8" d="M502.11,750.05a18,18,0,0,0-8.61-1.52s-5.57.21-8.41,1.52c0,0-9.32-.36-9.8-10.71,5.27,2.95,21.46,10.1,41.48.51-.22.27-.45.54-.7.82C516.07,740.67,510.4,748.74,502.11,750.05Z" transform="translate(-0.16 -0.05)"/></g><path class="cls-11" d="M673.82,773.29a22.14,22.14,0,0,1-1.28-1.95c-.08-.14-.16-.29-.25-.43-1.87-3.29-4.56-9.51-2.61-15.66,0,0,2.3-3.16,1.93-9.37a26.81,26.81,0,0,0-.71-4.6,15.78,15.78,0,0,1-1.7-11.62c.08-.35.15-.7.25-1,0,0,4.9-23.26-22.38-35.34-.94-.41-1.91-.82-2.92-1.2,0,0-11.94-8.57-13.3-17.54a6.4,6.4,0,0,0-.17-.92c0-.12-.07-.25-.11-.39a4.43,4.43,0,0,0-.15-.43c0-.13-.1-.26-.16-.4a5.28,5.28,0,0,0-.26-.54,8.21,8.21,0,0,0-.48-.78,6.22,6.22,0,0,0-3.46-2.39,9.09,9.09,0,0,0-2.57-.29,14.87,14.87,0,0,0-3.34.5,5.5,5.5,0,0,1-1.41.11c-1.91-.06-5.33-1-7.75-6l0-.05h0a.72.72,0,0,1-.07-.11v0l-.27-.46h0l-.22-.32h0c-.25-.36-.56-.8-1-1.29h0c-3-3.62-10.65-10.09-26-7.75h0c-1.39.21-2.85.5-4.37.87h0c-.45-.36-.92-.71-1.41-1.06l-.14-.1c-.46-.33-1-.65-1.46-1l-.12-.08a30.83,30.83,0,0,0-3.58-1.88l-.26-.11c-.53-.23-1.07-.45-1.63-.65-.19-.08-.4-.15-.6-.22-.47-.17-1-.32-1.45-.48l-.73-.21c-.5-.14-1-.28-1.56-.4l-.7-.17c-.77-.17-1.56-.33-2.38-.46,0,0-1.1.05-2.81,0h-.6c-1,0-2.18,0-3.44-.1-4.36-.22-9.74-.85-12.84-2.55l0,0h0l-.1,0-.12,0-.1,0-.19-.06-.09,0-.29-.08h0c-3.46-1-15.1-3.39-23.71,5.44l0,0-.71-.89-.1-.12-.61-.73-.07-.09c-.67-.77-1.21-1.38-1.6-1.79h0c-.12-.14-.23-.24-.31-.34l0,0-.27-.28A27.24,27.24,0,0,0,486,638.06c-2.43,2.6-6.74,1.64-6.74,1.64-.47.2-.91.42-1.35.64l-.32.17c-.42.23-.84.46-1.24.7h0c-.41.25-.8.51-1.18.77l-.28.2c-.36.26-.72.53-1.07.81h0c-.35.28-.68.57-1,.86l-.24.21-.91.88h0c-.3.3-.59.61-.87.92l-.19.22c-.27.3-.53.6-.77.91h0c-7.69-5-17.16-5.61-19.42-5.66h-.52c-.63,0-1.25,0-1.87,0l-.59.05c-.41,0-.82.07-1.22.12l-.69.11c-.35.05-.71.1-1.06.17l-.7.16-1,.22-.69.2-.94.28-.67.24-.9.33-.64.27-.88.38-.59.29-.87.44-.54.3c-.29.16-.58.32-.86.49l-.49.3-.85.55-.44.29-.85.61-.38.28-.85.67-.31.25c-.3.24-.59.48-.87.73l-.24.21-.89.81-.16.15c-.31.3-.61.59-.9.89l-.09.09c-.32.32-.63.64-.92,1h0a49.08,49.08,0,0,0-6.48-2.31l-.3-.08c-.42-.12-.84-.22-1.26-.32l-.42-.1c-.4-.09-.8-.18-1.19-.25l-.48-.1-1.13-.2-.51-.08-1.1-.14-.51-.06-1.09-.11-.5,0-1.08-.06-.48,0-1.07,0h-.46l-1.08,0-.41,0-1.1.07-.35,0-1.14.11-.24,0a41.66,41.66,0,0,0-7.9,1.74l-.13,0-1.07.37-.25.09-1,.38-.29.11-.95.4-.31.13-.92.41-.32.15-.88.43-.32.16c-.29.14-.59.29-.87.45l-.3.16-.87.47-.27.16-.86.5-.25.15-.87.53-.18.12-.9.58-.07.05a63.44,63.44,0,0,0-5.62,4.24l-.12.1-.71.62-.18.16-.65.58-.21.19-.6.56-.23.22-.57.54-.22.22-.54.54-.23.22-.51.53a2.28,2.28,0,0,0-.22.22l-.5.52-.19.21-.49.52-.17.19-.48.53-.14.16-.48.54-.09.11c-.91,1-1.71,2-2.39,2.9a1.47,1.47,0,0,0-.1.13l-.29.38-.14.18-.25.33-.14.19-.22.3-.15.2-.19.26-.13.19-.17.24-.12.16-.15.22-.11.16-.12.17-.11.16-.09.14-.08.13-.08.12-.07.1-.06.1-.07.11,0,0-.08.13a12.63,12.63,0,0,1-2.44,3.4c-.28.28-.57.54-.86.79a18.23,18.23,0,0,1-4.54,2.8,17.11,17.11,0,0,1-2.5.88,17.46,17.46,0,0,0-1.89.42,19.08,19.08,0,0,0-2.21.74,20.21,20.21,0,0,0-4.58,2.51,15.37,15.37,0,0,0-1.36,1.08l-.22.19a18.36,18.36,0,0,0-4.13,5.2c-.7,1.55-1.5,3.09-2.32,4.53-.41.72-.82,1.42-1.22,2.08s-.64,1-.94,1.52c-1.57,2.48-2.8,4.17-2.8,4.17a23.08,23.08,0,0,0-3.58,10.4c-.15,1.25-.23,2.49-.26,3.72A58.87,58.87,0,0,0,332.3,735a17.33,17.33,0,0,1,.77,7,27.61,27.61,0,0,1-.41,3.07,26.26,26.26,0,0,1-1,3.59,22.85,22.85,0,0,0-1.78,5.26c-.07.34-.13.67-.19,1-.1.66-.18,1.32-.22,2,0,.32,0,.64,0,1a24.2,24.2,0,0,0,3.12,12.46,15.59,15.59,0,0,1,2.16,4.06,27,27,0,0,1,1.47,9.5c-.87,9.46,6.11,12.51,6.11,12.51,4,.74,4.9,3,5.05,4.59,0,.16,0,.31,0,.45a5.34,5.34,0,0,1-.13,1.22l-.06.15a6.81,6.81,0,0,1-.34.78,7.14,7.14,0,0,1-.4.71c-.1.17-.22.34-.34.51a11.33,11.33,0,0,1-.74.94,16.47,16.47,0,0,1-2.63,2.43c-5.38,10.48-1,26.77-1,26.77,6,19.34,33.44,22.7,33.44,22.7a20.41,20.41,0,0,1,8.42,2.73,23.63,23.63,0,0,1,2.61,1.73,27.16,27.16,0,0,1,5.56,5.58c3.48,6.13,13.53,11.77,13.53,11.77h0c.69.29,1.38.55,2.07.81l.51.18c.69.25,1.38.48,2.06.69h0c.68.21,1.36.4,2,.57l.5.13c.68.17,1.36.33,2,.47h.06c.66.14,1.33.25,2,.36l.47.08,2,.27h.07c.65.07,1.29.13,1.94.18l.45,0c.66.05,1.31.08,2,.1h.09l1.85,0h.44c.63,0,1.26,0,1.88,0h.14c.58,0,1.15-.06,1.71-.1l.45,0c.6,0,1.19-.1,1.77-.16l.22,0,1.53-.19.47-.07,1.62-.25.33-.06,1.29-.25.52-.1,1.44-.31.45-.11,1-.24.58-.15,1.15-.31.67-.19.72-.21.65-.2.63-.2c.37-.12.74-.24,1.09-.37l.39-.13.73-.26h0a8.91,8.91,0,0,1,2.3,2c.69.45,1.37.86,2.06,1.25l.53.3c.63.35,1.26.67,1.89,1l.17.09c.68.32,1.35.61,2,.89l.53.22c.58.23,1.16.44,1.73.64l.29.11c.65.21,1.3.41,1.93.59l.53.14c.53.14,1.06.28,1.58.39l.37.09c.62.13,1.22.25,1.82.35l.49.07,1.46.21.39,0c.57.07,1.14.12,1.69.16l.42,0,1.35.06h2.21c.44,0,.87,0,1.29-.06h.27l1.41-.11h.13l1.23-.14.15,0c.87-.12,1.65-.25,2.34-.38h0a22.87,22.87,0,0,0,5.74,2.55h0l.13,0H486a12.38,12.38,0,0,0,1.5.45h0c.51.12,1,.22,1.56.3h0l-.51.4-.1.07c-.16.11-.32.23-.5.34l-.16.11c-.22.14-.45.29-.7.43l-.05,0c-.23.13-.47.25-.72.37l-.25.11c-.22.1-.45.2-.68.28l-.21.08a9.12,9.12,0,0,1-.93.28l-.24.06c-.26.06-.52.11-.8.15l-.3,0a9.48,9.48,0,0,1-1.08.07h0a6.9,6.9,0,0,0-1.46.36c-1.34.47-3.09,1.5-2.87,3.67a3.35,3.35,0,0,0,3.68.89,7.43,7.43,0,0,0,1.95-.89,6.5,6.5,0,0,1,1.21-1.17,1.72,1.72,0,0,1,.85-.35.78.78,0,0,1,.68.41,1.65,1.65,0,0,1,.19.42,3.81,3.81,0,0,1-.48,1.66,6.55,6.55,0,0,1-4.26,3.07,9.31,9.31,0,0,0-2.46.48,5.89,5.89,0,0,0-4.3,4.52,3.77,3.77,0,0,1-1.09,2.21,2.41,2.41,0,0,1-.52.36l-.09,0a3,3,0,0,1-1.28.29,2.81,2.81,0,0,0-1.36.2c-1.14.45-2.71,1.77-3.45,5.59a21.43,21.43,0,0,0-.32,2.41s0,.1,0,.26v0c0,.17,0,.41,0,.7.08,1.83.13,5.72-.67,7.23,0,0-.93,7.11.09,10.56.33,1.13.88,1.87,1.74,1.82a1.12,1.12,0,0,0,.35-.06,5.1,5.1,0,0,0,.76-.49c.18-.14.38-.31.59-.51a8,8,0,0,0,1.5-2c.07-.12.13-.25.2-.38a11,11,0,0,0,.43-1.08,10.2,10.2,0,0,0,.34-1.51h0a8.94,8.94,0,0,1,2.47-4.92l.12-.1a6.93,6.93,0,0,1,.84-.65,7.14,7.14,0,0,1,3.19-1.13h0a12.72,12.72,0,0,0,4.27-.79,10.72,10.72,0,0,0,6.34-6.44s-1.2-5.78,2.84-9l.06,0h0c.56-.55,5.24-5.4,6.05-11.92h0s-.51,7.62,1.89,9a3.34,3.34,0,0,1,1.17.77,3.66,3.66,0,0,1,1,3,9.18,9.18,0,0,0,.34,5.13,12.73,12.73,0,0,0,2.57,4.4,23.23,23.23,0,0,1,3.32,5.67,20.44,20.44,0,0,1,1.4,5.22,16.45,16.45,0,0,1-.08,4.53s.09,5.6,4.09,7.49a6.76,6.76,0,0,1,1.08.85,7.06,7.06,0,0,1,1.17,1.47,5.81,5.81,0,0,1,.51,1s1.09,1,2.65,2.22l.37.28c.33.26.69.52,1,.79,2.34,1.7,5.23,3.44,7.35,3.53h.06a3,3,0,0,0,.74,0,2.14,2.14,0,0,0,.24-.2,4.25,4.25,0,0,0,.72-1c1.25-2.16,2.54-7.86-3.94-21a65.17,65.17,0,0,0-9.09-10.89s-8.21-4.36-7.49-9.82a15.11,15.11,0,0,0,.28-2c0-.19,0-.4,0-.61a12.46,12.46,0,0,0-.05-2,9.12,9.12,0,0,0-.26-1.46c-.06-.22-.13-.45-.21-.67a4.93,4.93,0,0,0-1.11-1.75s-5.27-3.38-5.4-5.58h0c.42,0,.8,0,1.11,0h.84a9.44,9.44,0,0,0,1.2-.07l.36,0,.8-.16.39-.1.78-.26.32-.12c.35-.15.68-.31,1-.49a2.61,2.61,0,0,0,.28-.17c.23-.14.47-.28.7-.44s.27-.19.4-.29l.53-.42c.14-.12.28-.23.42-.36l.48-.45.52-.52c.21-.23.41-.45.61-.69s.33-.4.49-.6l.28-.35.49-.68.21-.3.51-.79,0,0c.61-1,1.17-2,1.7-3.07.11,0,.22.12.36.18l0,0,.39.2.14.07.57.28.44.21.23.1.49.23.25.11.55.24.26.11.61.25.28.11.67.26.27.11.75.27.26.1.87.3.18.06c1.1.37,2.29.71,3.53,1l.13,0,1.09.25.29.06,1,.19.35.06.94.15.39.06.94.11.4,0,1,.08.37,0,1.06,0h.3c.91,0,1.83,0,2.76-.1l.18,0c.39,0,.78-.08,1.17-.14l.41-.07c.31-.05.62-.1.93-.17l.49-.1.85-.21.53-.15.8-.26.54-.19.78-.31.53-.23c.27-.12.53-.25.79-.39l.5-.25c.28-.15.56-.32.83-.49l.42-.25c.41-.27.81-.55,1.21-.85h0a20.89,20.89,0,0,1,3.69-6.43,11.23,11.23,0,0,1,6.22-3.87H560l.37-.06h0L561,876h0l.75-.17.08,0h0a9.53,9.53,0,0,0,1.11.72,15.7,15.7,0,0,0,13.36,1.12h0l0-.06a10,10,0,0,1,1.66-1.3,10.56,10.56,0,0,1,5.71-1.7,10.89,10.89,0,0,1,2.46.27,13.5,13.5,0,0,1,2.73.95A28.58,28.58,0,0,0,599.83,878a21.61,21.61,0,0,0,3.45-.29c5.07-.86,10.36-3.78,13.82-11.23a5.52,5.52,0,0,1,2.57-5.58l.46-.31a11.2,11.2,0,0,1,1.7-.87l.67-.26a19.58,19.58,0,0,1,3.32-.83s1.35-.14,3.49-.47l.86-.14,1.53-.26c5.91-1.08,14.92-3.3,20.36-7.43a14.65,14.65,0,0,0,4.07-5.84,10,10,0,0,0,.4-1.57,37.71,37.71,0,0,1-.74-4.17c0-.31-.07-.62-.1-.93l0-.51c0-.33,0-.67,0-1v-.5a10.56,10.56,0,0,1,.34-2.75,3.11,3.11,0,0,1,1.2-1.81s7.42-2.72,8.43-9.6c0-.11,0-.22,0-.33a10.67,10.67,0,0,0,.07-1.4s-.55-11.68,5.2-18.88C670.9,801.07,679.06,785.66,673.82,773.29Z" transform="translate(-0.16 -0.05)"/><g class="cls-12"><path class="cls-13" d="M808.4,653.94l.45-.22L768,633.09V609.65l.69-.35-.45-.22h-1.38l-69.58-11.72L656.9,577l-.45-.23H574.79L505.2,565l-.69-.35h-.9l-.69.35-69.59,11.72H351.67l-40.84,20.63-69.58,11.72h-1.39l-.44.22.69.35v23.44l-40.39,20.4-.45.23,40.84,20.62v23.44l-.69.35.44.23h1.39l69.58,11.71,40.39,20.41.45.22h81.66l69.59,11.72.69.35h.9l.69-.35,69.59-11.72h81.66l40.84-20.63,69.58-11.71h1.38l.45-.23-.69-.35V674.35ZM590.63,697.45H417.49l-86.56-43.73L417.49,610H590.63l86.56,43.74Zm46.75-65.66,93.35-15.72,10.49,5.3L679,652.81Zm91.8-16.51L635.83,631l-41.61-21H718.68Zm-140.35-6.2H505.62V577.64h21ZM502.5,577.64v31.44H419.29l62.23-31.44ZM413.9,610l-41.61,21-93.35-15.72,10.49-5.3Zm-136.51,6.09,93.34,15.72-41.6,21L266.9,621.37Zm51.74,38.55,41.6,21-93.34,15.72-10.49-5.3Zm-50.19,37.53,93.35-15.72,41.61,21H289.43Zm140.35,6.21H502.5v31.43h-21Zm86.33,31.43V698.36h83.21L526.6,729.79Zm88.6-32.34,41.61-21,93.35,15.72-10.5,5.3Zm136.51-6.09-93.35-15.72,41.61-21,62.23,31.44Zm2.7-75.74,28.77-4.85L743,620.46Zm-1.56-.79L722.28,610h38.37Zm-226.25-38.1V567l19.18,9.69Zm-3.12,0H483.32L502.5,567Zm-226.25,38.1L247.47,610h38.37Zm-1.56.79-9.59,4.84-19.18-9.69Zm0,76.2-28.77,4.84L265.1,687Zm1.56.78,9.59,4.85H247.47ZM502.5,730.7v9.69l-19.18-9.69Zm3.12,0H524.8l-19.18,9.69Zm226.25-38.1,28.78,4.85H722.28Zm1.56-.78L743,687l19.18,9.69Zm-141-82.74-62.23-31.44H574L695,598l21.88,11.06Zm-176.72,0H291.23L313.11,598l121.06-20.38h43.76Zm-88.37,44.64L265.1,685.15l-21.88-11V633.33l21.88-11.05Zm88.37,44.64,62.23,31.43H434.17L313.11,709.41l-21.88-11Zm176.72,0H716.89l-21.88,11L574,729.79H530.19Zm88.37-44.64L743,622.28l21.88,11.05V674.1l-21.88,11ZM768,634.9l37.24,18.82L768,672.53Zm-23.19-13.53,20.08-10.15v20.3Zm-24.34-12.29L700.4,598.93l60.25,10.15Zm-140.3-31.44h74.48l37.23,18.81Zm-51.79-.91-20.08-10.15,60.25,10.15Zm-48.67,0H439.56l60.25-10.15Zm-163.5,19.72,37.24-18.81h74.48Zm-28.58,12.63H247.47l60.25-10.15ZM263.3,621.37l-20.08,10.15v-20.3Zm-23.19,51.16-37.24-18.81,37.24-18.82Zm23.19,13.53-20.08,10.15V675.92Zm24.34,12.3,20.08,10.14-60.25-10.14Zm140.3,31.43H353.46L316.22,711Zm51.78.91,20.09,10.15L439.56,730.7Zm48.67,0h40.17l-60.25,10.15ZM691.89,711l-37.23,18.81H580.18Zm28.59-12.62h40.17L700.4,708.5Zm24.34-12.3,20.08-10.14v20.29Z" transform="translate(-0.16 -0.05)"/><path class="cls-14" d="M584.73,613H423.38l-80.22,40.53-.45.23,80.22,40.52.45.23H584.73L665,653.94l.45-.22-80.23-40.53Zm-220.4,40.76c0,4.36,2.37,8.56,6.74,12.51L346.3,653.72l24.77-12.52C366.7,645.15,364.33,649.35,364.33,653.72Zm3.11,0c0-22,61.29-39.85,136.62-39.85s136.62,17.87,136.62,39.85-61.29,39.84-136.62,39.84S367.44,675.69,367.44,653.72Zm276.35,0c0-4.37-2.37-8.57-6.74-12.52l24.77,12.52-24.77,12.51C641.42,662.28,643.79,658.08,643.79,653.72ZM533.42,613.87h49.52l24.94,12.6C588.54,620.21,562.66,615.7,533.42,613.87Zm-133.18,12.6,24.94-12.6H474.7C445.45,615.7,419.58,620.21,400.24,626.47Zm74.46,67.09H425.18L400.24,681C419.58,687.22,445.45,691.73,474.7,693.56ZM607.88,681l-24.94,12.6H533.42C562.66,691.73,588.54,687.23,607.88,681Z" transform="translate(-0.16 -0.05)"/><path class="cls-15" d="M504.06,666.48c23.9,0,43.35-5.68,43.35-12.65S528,641.19,504.06,641.19s-43.35,5.67-43.35,12.64S480.16,666.48,504.06,666.48Zm0-22.57c18.75,0,34,4.45,34,9.92s-15.26,9.92-34,9.92-34-4.45-34-9.92S485.31,643.91,504.06,643.91Z" transform="translate(-0.16 -0.05)"/><path class="cls-15" d="M562.35,653.83c0-9.37-26.15-17-58.29-17s-58.3,7.63-58.3,17,26.16,17,58.3,17S562.35,663.21,562.35,653.83Zm-58.29-16.09c30.43,0,55.18,7.22,55.18,16.09s-24.75,16.1-55.18,16.1-55.18-7.22-55.18-16.1S473.63,637.74,504.06,637.74Z" transform="translate(-0.16 -0.05)"/></g><g class="cls-16"><path class="cls-17" d="M504.44,506.8c.61,3,1,5.92,1.53,8.88l.63,4.43.51,4.44c.16,1.47.47,3,.72,4.43a13.78,13.78,0,0,1,0,4.44,23.4,23.4,0,0,1-1.12,4.43,17.18,17.18,0,0,1-2.31,4.44h-.76a17.23,17.23,0,0,1-2.32-4.44,23.36,23.36,0,0,1-1.11-4.43,14.07,14.07,0,0,1,0-4.44c.26-1.48.57-3,.73-4.43l.51-4.44.63-4.43c.52-3,.92-5.92,1.53-8.88Z" transform="translate(-0.16 -0.05)"/><path class="cls-17" d="M417,509c2.36,2.88,4.52,5.77,6.78,8.66L427,522l3.15,4.34c1,1.45,2.22,2.89,3.35,4.33a21.36,21.36,0,0,1,2.68,4.37,25.34,25.34,0,0,1,1.54,4.43,12.56,12.56,0,0,1,.36,4.48l-.75,0a38.16,38.16,0,0,1-4.92-4.25,46.57,46.57,0,0,1-3.74-4.31,20.87,20.87,0,0,1-2.6-4.37c-.63-1.47-1.21-2.94-1.93-4.41L422,522.27l-2-4.4c-1.26-2.94-2.62-5.87-3.78-8.81Z" transform="translate(-0.16 -0.05)"/><path class="cls-17" d="M332.14,515.63c4,2.71,7.89,5.45,11.84,8.18l5.79,4.1,5.69,4.12c1.88,1.37,3.9,2.73,5.88,4.1a46.63,46.63,0,0,1,5.23,4.16,50.16,50.16,0,0,1,4.15,4.28,21,21,0,0,1,3,4.4L373,549a81.79,81.79,0,0,1-7.37-3.93q-3.35-2-6.25-4.06a46.66,46.66,0,0,1-5.17-4.17c-1.49-1.42-2.94-2.83-4.52-4.24L345,528.42l-4.6-4.23c-3-2.83-6.08-5.65-9-8.49Z" transform="translate(-0.16 -0.05)"/><path class="cls-17" d="M252.54,526.43c5.6,2.47,11,5,16.53,7.46l8.15,3.75,8,3.77c2.67,1.25,5.47,2.49,8.23,3.73s5.3,2.52,7.63,3.84,4.56,2.64,6.64,4a47.15,47.15,0,0,1,5.6,4.18l-.66.11c-3.48-1.12-6.6-2.3-9.61-3.5s-5.84-2.43-8.57-3.68-5.25-2.53-7.57-3.85-4.58-2.64-7-3.94l-7.16-3.92-7.05-3.93c-4.63-2.64-9.35-5.26-13.89-7.91Z" transform="translate(-0.16 -0.05)"/><path class="cls-17" d="M180.58,541.1c7,2.15,13.81,4.34,20.72,6.51l10.26,3.28,10.16,3.3c3.39,1.11,6.88,2.18,10.33,3.27s6.73,2.21,9.81,3.39,6.06,2.37,8.92,3.6,5.58,2.5,8,3.83l-.59.15c-4.09-.93-7.87-1.94-11.54-3s-7.21-2.09-10.63-3.18-6.68-2.23-9.75-3.41-6.09-2.37-9.22-3.53l-9.38-3.5-9.29-3.51c-6.13-2.36-12.33-4.7-18.38-7.08Z" transform="translate(-0.16 -0.05)"/><path class="cls-18" d="M118.45,559.2c8.16,1.76,16.18,3.57,24.28,5.36l12.05,2.71,12,2.74c4,.91,8.07,1.79,12.12,2.68s7.93,1.85,11.67,2.85,7.39,2,10.93,3.1,7,2.17,10.16,3.37l-.49.17c-4.58-.71-8.9-1.51-13.13-2.34s-8.35-1.7-12.37-2.6-7.9-1.85-11.63-2.86-7.4-2-11.18-3l-11.32-3-11.24-3c-7.44-2-15-4-22.32-6Z" transform="translate(-0.16 -0.05)"/><path class="cls-18" d="M68,580.16c9.08,1.33,18.06,2.71,27.1,4.05l13.48,2.06,13.43,2.09c4.47.7,9,1.36,13.53,2s8.91,1.41,13.19,2.2,8.48,1.63,12.61,2.5,8.17,1.79,12,2.81l-.38.19c-4.94-.47-9.66-1-14.33-1.64s-9.22-1.25-13.73-1.93-8.88-1.43-13.15-2.23-8.49-1.62-12.8-2.4l-12.92-2.35-12.85-2.37c-8.52-1.61-17.1-3.19-25.58-4.82Z" transform="translate(-0.16 -0.05)"/><path class="cls-18" d="M30.87,603.37c9.73.84,19.4,1.74,29.1,2.61l14.5,1.35,14.47,1.37c4.82.46,9.69.88,14.54,1.32s9.62.94,14.3,1.51,9.33,1.17,13.91,1.82,9.11,1.35,13.5,2.15l-.27.21c-5.13-.21-10.13-.53-15.08-.88s-9.83-.77-14.67-1.21-9.59-1-14.27-1.53-9.34-1.17-14.05-1.72l-14.11-1.65L58.67,607c-9.36-1.16-18.74-2.28-28.06-3.46Z" transform="translate(-0.16 -0.05)"/><path class="cls-18" d="M8.08,628.1c10.09.33,20.14.73,30.22,1.1l15.08.59,15.07.62c5,.21,10.06.38,15.1.56s10,.44,15,.76,9.88.68,14.78,1.09,9.77.87,14.58,1.44l-.14.22c-5.18,0-10.29,0-15.37-.11s-10.14-.26-15.17-.45-10-.45-15-.78-9.89-.67-14.85-1l-14.89-.92-14.87-1c-9.89-.66-19.8-1.29-29.68-2Z" transform="translate(-0.16 -0.05)"/><path class="cls-18" d="M.36,653.61c10.14-.18,20.28-.3,30.42-.45L46,653l15.21-.15c5.07-.05,10.14-.14,15.21-.21s10.13-.08,15.2,0,10.14.18,15.21.33,10.14.36,15.2.68v.22c-5.06.32-10.13.51-15.2.67s-10.14.26-15.21.33-10.14.06-15.2,0-10.14-.17-15.21-.21L46,654.46l-15.2-.19c-10.14-.15-20.28-.26-30.42-.44Z" transform="translate(-0.16 -0.05)"/><path class="cls-18" d="M8,679.12c9.88-.69,19.79-1.32,29.68-2l14.87-.95,14.89-.92c5-.3,9.9-.65,14.85-1s9.93-.59,15-.78,10.08-.34,15.17-.45,10.19-.16,15.37-.1l.14.22c-4.81.57-9.68,1-14.58,1.43s-9.83.77-14.78,1.09-10,.57-15,.76-10.08.35-15.1.56l-15.07.63-15.08.58c-10.08.37-20.13.77-30.22,1.11Z" transform="translate(-0.16 -0.05)"/><path class="cls-19" d="M30.61,703.86c9.32-1.18,18.7-2.3,28.06-3.45l14.07-1.69,14.11-1.66c4.71-.55,9.37-1.14,14.05-1.72s9.43-1.08,14.27-1.52,9.73-.85,14.67-1.21,9.95-.68,15.08-.89l.27.21c-4.39.81-8.93,1.5-13.5,2.15s-9.22,1.26-13.91,1.83-9.46,1.06-14.3,1.5-9.72.86-14.54,1.32l-14.47,1.38L60,701.45c-9.7.87-19.37,1.77-29.1,2.62Z" transform="translate(-0.16 -0.05)"/><path class="cls-19" d="M67.65,727.08c8.48-1.64,17.06-3.22,25.58-4.82l12.85-2.38L119,717.53c4.31-.78,8.54-1.6,12.8-2.4s8.65-1.55,13.15-2.23,9.08-1.33,13.73-1.93,9.39-1.17,14.33-1.64l.38.2c-3.84,1-7.9,1.92-12,2.8s-8.33,1.7-12.61,2.5-8.68,1.53-13.19,2.21-9.06,1.33-13.53,2l-13.43,2.09-13.48,2.06c-9,1.35-18,2.72-27.1,4Z" transform="translate(-0.16 -0.05)"/><path class="cls-19" d="M118,748.06c7.37-2,14.88-4,22.32-6l11.24-3,11.32-3c3.78-1,7.47-2,11.18-3s7.6-2,11.63-2.86,8.14-1.77,12.37-2.6,8.55-1.63,13.13-2.33l.49.17c-3.18,1.19-6.63,2.29-10.16,3.36s-7.19,2.11-10.93,3.11-7.64,1.94-11.67,2.84-8.13,1.77-12.12,2.69l-12,2.73-12.05,2.71c-8.1,1.79-16.12,3.6-24.28,5.36Z" transform="translate(-0.16 -0.05)"/><path class="cls-19" d="M180,766.19c6.05-2.38,12.25-4.72,18.38-7.09l9.29-3.51,9.38-3.5c3.13-1.16,6.16-2.35,9.22-3.53s6.31-2.31,9.75-3.4,7-2.16,10.63-3.19,7.45-2,11.54-3l.59.15c-2.42,1.34-5.16,2.59-8,3.83s-5.84,2.43-8.92,3.61-6.36,2.3-9.81,3.39-6.94,2.16-10.33,3.26l-10.16,3.3-10.26,3.28c-6.91,2.17-13.74,4.36-20.72,6.51Z" transform="translate(-0.16 -0.05)"/><path class="cls-19" d="M251.88,780.89c4.54-2.65,9.26-5.27,13.89-7.9l7.05-3.94,7.16-3.91c2.4-1.31,4.67-2.63,7-3.95s4.83-2.6,7.57-3.85,5.58-2.47,8.57-3.67,6.13-2.39,9.61-3.51l.66.11a47.15,47.15,0,0,1-5.6,4.18c-2.08,1.36-4.3,2.69-6.64,4s-4.89,2.59-7.63,3.83-5.56,2.48-8.23,3.74l-8,3.76-8.15,3.75c-5.52,2.49-10.93,5-16.53,7.46Z" transform="translate(-0.16 -0.05)"/><path class="cls-19" d="M331.43,791.73c2.89-2.84,6-5.66,9-8.49L345,779l4.72-4.22c1.58-1.4,3-2.82,4.52-4.24a47.84,47.84,0,0,1,5.17-4.17q2.91-2.05,6.25-4.06a81.79,81.79,0,0,1,7.37-3.93l.72.07a21,21,0,0,1-3,4.4,50.16,50.16,0,0,1-4.15,4.28,47.82,47.82,0,0,1-5.23,4.17c-2,1.36-4,2.72-5.88,4.09l-5.69,4.12-5.79,4.1c-4,2.73-7.8,5.47-11.84,8.19Z" transform="translate(-0.16 -0.05)"/><path class="cls-19" d="M416.22,798.38c1.16-3,2.52-5.88,3.78-8.82l2-4.4,2.13-4.39c.72-1.46,1.3-2.94,1.93-4.4a20.62,20.62,0,0,1,2.6-4.37,45.39,45.39,0,0,1,3.74-4.32,39,39,0,0,1,4.92-4.25l.75,0a12.63,12.63,0,0,1-.36,4.49,25.53,25.53,0,0,1-1.54,4.42,21.36,21.36,0,0,1-2.68,4.37c-1.13,1.44-2.31,2.88-3.35,4.33L427,785.42l-3.26,4.34c-2.26,2.88-4.42,5.77-6.78,8.66Z" transform="translate(-0.16 -0.05)"/><path class="cls-19" d="M503.68,800.63c-.61-3-1-5.92-1.53-8.87l-.63-4.44-.51-4.43c-.16-1.48-.47-3-.73-4.44a14,14,0,0,1,0-4.43,23.27,23.27,0,0,1,1.11-4.44,17,17,0,0,1,2.32-4.43h.76a17,17,0,0,1,2.31,4.43,23.31,23.31,0,0,1,1.12,4.44,13.72,13.72,0,0,1,0,4.43c-.25,1.48-.56,3-.72,4.44l-.51,4.43-.63,4.44c-.52,3-.92,5.91-1.53,8.87Z" transform="translate(-0.16 -0.05)"/><path class="cls-19" d="M591.15,798.42c-2.36-2.89-4.52-5.78-6.78-8.66l-3.26-4.34L578,781.08c-1-1.45-2.22-2.89-3.36-4.33a21.75,21.75,0,0,1-2.67-4.37,25.53,25.53,0,0,1-1.54-4.42,12.63,12.63,0,0,1-.36-4.49l.75,0a39,39,0,0,1,4.92,4.25,45.39,45.39,0,0,1,3.74,4.32,21,21,0,0,1,2.6,4.37c.63,1.46,1.21,2.94,1.93,4.4l2.13,4.39,2,4.4c1.26,2.94,2.62,5.87,3.78,8.82Z" transform="translate(-0.16 -0.05)"/><path class="cls-19" d="M676,791.81c-4-2.72-7.89-5.46-11.84-8.19l-5.79-4.1-5.69-4.12c-1.88-1.37-3.9-2.73-5.88-4.09a49,49,0,0,1-5.24-4.17,53.4,53.4,0,0,1-4.15-4.28,20.58,20.58,0,0,1-3-4.4l.71-.07a80.69,80.69,0,0,1,7.38,3.93q3.35,2,6.25,4.06a47.84,47.84,0,0,1,5.17,4.17c1.49,1.42,2.94,2.84,4.52,4.24l4.71,4.22,4.61,4.23c3,2.83,6.08,5.65,9,8.49Z" transform="translate(-0.16 -0.05)"/><path class="cls-19" d="M755.58,781c-5.6-2.47-11-5-16.53-7.46l-8.15-3.75-8-3.76c-2.67-1.26-5.47-2.5-8.23-3.74s-5.3-2.52-7.63-3.83-4.56-2.65-6.64-4a47.15,47.15,0,0,1-5.6-4.18l.66-.11c3.48,1.12,6.6,2.3,9.61,3.51s5.84,2.43,8.57,3.67,5.25,2.53,7.57,3.85,4.58,2.64,7,3.95l7.15,3.91,7.06,3.94c4.63,2.63,9.35,5.25,13.89,7.9Z" transform="translate(-0.16 -0.05)"/><path class="cls-19" d="M827.54,766.33c-7-2.15-13.81-4.34-20.72-6.51l-10.26-3.28-10.17-3.3c-3.38-1.1-6.87-2.18-10.33-3.26s-6.72-2.22-9.8-3.39-6.06-2.38-8.92-3.61-5.58-2.49-8-3.83l.58-.15c4.1.93,7.87,1.94,11.55,3s7.2,2.1,10.63,3.19,6.68,2.22,9.75,3.4,6.08,2.37,9.22,3.53l9.38,3.5,9.29,3.51c6.12,2.37,12.33,4.71,18.38,7.09Z" transform="translate(-0.16 -0.05)"/><path class="cls-19" d="M889.67,748.23c-8.16-1.76-16.18-3.57-24.28-5.36l-12-2.71-12-2.73c-4-.92-8.07-1.8-12.12-2.69s-7.94-1.84-11.67-2.84-7.39-2-10.93-3.11-7-2.17-10.16-3.36l.49-.17c4.58.7,8.9,1.5,13.13,2.33s8.34,1.7,12.37,2.6,7.9,1.86,11.63,2.86,7.4,2,11.18,3l11.32,3,11.24,3c7.44,2,14.94,4,22.32,6Z" transform="translate(-0.16 -0.05)"/><path class="cls-19" d="M940.08,727.27c-9.08-1.33-18.06-2.7-27.1-4l-13.48-2.06-13.43-2.09c-4.47-.7-9-1.36-13.53-2s-8.91-1.41-13.19-2.21-8.48-1.63-12.61-2.5-8.17-1.79-12-2.8l.38-.2c4.94.47,9.66,1,14.33,1.64s9.22,1.25,13.72,1.93,8.89,1.43,13.15,2.23,8.5,1.62,12.81,2.4L902,719.88l12.86,2.38c8.52,1.6,17.1,3.18,25.57,4.82Z" transform="translate(-0.16 -0.05)"/><path class="cls-19" d="M977.25,704.07c-9.74-.85-19.4-1.75-29.1-2.62l-14.51-1.34-14.46-1.38c-4.82-.46-9.69-.88-14.54-1.32s-9.62-.93-14.3-1.5-9.33-1.18-13.91-1.83-9.11-1.34-13.5-2.15l.26-.21c5.14.21,10.13.53,15.08.89s9.84.76,14.68,1.21,9.59.95,14.27,1.52,9.34,1.17,14,1.72l14.11,1.66,14.07,1.69c9.35,1.15,18.74,2.27,28.06,3.45Z" transform="translate(-0.16 -0.05)"/><path class="cls-18" d="M1000,679.34c-10.09-.34-20.15-.74-30.22-1.11l-15.08-.58L939.67,677c-5-.21-10.06-.38-15.1-.56s-10-.44-15-.76-9.88-.68-14.78-1.09-9.77-.86-14.58-1.43l.14-.22c5.18-.06,10.29,0,15.37.1s10.14.26,15.17.45,10,.46,15,.78,9.89.68,14.85,1l14.89.92,14.86.95c9.9.66,19.81,1.29,29.69,2Z" transform="translate(-0.16 -0.05)"/><path class="cls-18" d="M1007.76,653.83c-10.14.18-20.28.29-30.42.44l-15.2.19-15.21.15c-5.07,0-10.14.13-15.21.21s-10.13.08-15.2,0-10.14-.17-15.21-.33-10.14-.35-15.21-.67v-.22c5.07-.32,10.14-.52,15.21-.68s10.14-.26,15.21-.33,10.13-.06,15.2,0,10.14.16,15.21.21l15.21.15,15.2.18c10.14.15,20.28.27,30.42.45Z" transform="translate(-0.16 -0.05)"/><path class="cls-18" d="M1000.17,628.31c-9.88.69-19.79,1.32-29.69,2l-14.86,1-14.89.92c-5,.31-9.9.65-14.85,1s-9.94.59-15,.78-10.08.35-15.17.45-10.19.16-15.37.11l-.14-.22c4.81-.57,9.68-1,14.58-1.44s9.83-.77,14.78-1.09,9.95-.57,15-.76,10.08-.35,15.1-.56l15.07-.62,15.08-.59c10.07-.37,20.13-.77,30.22-1.1Z" transform="translate(-0.16 -0.05)"/><path class="cls-18" d="M977.51,603.57c-9.32,1.18-18.71,2.3-28.06,3.46l-14.07,1.69-14.11,1.65c-4.71.55-9.37,1.14-14,1.72s-9.43,1.08-14.27,1.53-9.73.85-14.68,1.21-9.94.67-15.08.88l-.26-.21c4.39-.8,8.93-1.49,13.5-2.15s9.22-1.26,13.91-1.82,9.46-1.07,14.3-1.51,9.72-.86,14.54-1.32l14.46-1.37L948.15,606c9.7-.87,19.36-1.77,29.1-2.61Z" transform="translate(-0.16 -0.05)"/><path class="cls-18" d="M940.46,580.36c-8.47,1.63-17.05,3.21-25.57,4.82L902,587.55l-12.91,2.35c-4.31.78-8.54,1.6-12.81,2.4s-8.64,1.55-13.15,2.23-9.07,1.33-13.72,1.93-9.39,1.17-14.33,1.64l-.38-.19c3.84-1,7.9-1.93,12-2.81s8.33-1.7,12.61-2.5,8.68-1.53,13.19-2.2,9.06-1.34,13.53-2l13.43-2.09L913,584.21c9-1.34,18-2.72,27.1-4.05Z" transform="translate(-0.16 -0.05)"/><path class="cls-18" d="M890.16,559.37c-7.38,2-14.88,4-22.32,6l-11.24,3-11.32,3c-3.78,1-7.47,2-11.18,3s-7.6,2-11.63,2.86-8.14,1.77-12.37,2.6-8.55,1.63-13.13,2.34l-.49-.17c3.18-1.2,6.63-2.3,10.16-3.37s7.19-2.1,10.93-3.1,7.63-1.95,11.67-2.85,8.13-1.77,12.12-2.68l12-2.74,12-2.71c8.1-1.79,16.12-3.6,24.28-5.36Z" transform="translate(-0.16 -0.05)"/><path class="cls-17" d="M828.12,541.25c-6,2.38-12.26,4.72-18.38,7.08l-9.29,3.51-9.38,3.5c-3.14,1.16-6.16,2.35-9.22,3.53s-6.31,2.32-9.75,3.41-7,2.15-10.63,3.18-7.45,2-11.55,3l-.58-.15c2.42-1.33,5.16-2.59,8-3.83s5.83-2.43,8.92-3.6,6.36-2.31,9.8-3.39,7-2.16,10.33-3.27l10.17-3.3,10.26-3.28c6.91-2.17,13.73-4.36,20.72-6.51Z" transform="translate(-0.16 -0.05)"/><path class="cls-17" d="M756.24,526.54c-4.54,2.65-9.26,5.27-13.89,7.91l-7.06,3.93-7.15,3.92c-2.4,1.3-4.67,2.62-7,3.94s-4.84,2.6-7.57,3.85-5.58,2.47-8.57,3.68-6.13,2.38-9.61,3.5l-.66-.11a47.15,47.15,0,0,1,5.6-4.18q3.12-2,6.64-4c2.33-1.32,4.89-2.59,7.63-3.84s5.56-2.48,8.23-3.73l8-3.77,8.15-3.75c5.51-2.48,10.93-5,16.53-7.46Z" transform="translate(-0.16 -0.05)"/><path class="cls-17" d="M676.69,515.7c-2.89,2.84-6,5.66-9,8.49l-4.61,4.23-4.71,4.22c-1.58,1.41-3,2.82-4.52,4.24a46.66,46.66,0,0,1-5.17,4.17q-2.91,2.06-6.25,4.06a80.69,80.69,0,0,1-7.38,3.93l-.71-.07a20.58,20.58,0,0,1,3-4.4,53.4,53.4,0,0,1,4.15-4.28,47.71,47.71,0,0,1,5.24-4.16c2-1.37,4-2.73,5.88-4.1l5.69-4.12,5.79-4.1c4-2.73,7.8-5.47,11.84-8.18Z" transform="translate(-0.16 -0.05)"/><path class="cls-17" d="M591.9,509.06c-1.16,2.94-2.52,5.87-3.78,8.81l-2,4.4L584,526.66c-.72,1.47-1.3,2.94-1.93,4.41a21.31,21.31,0,0,1-2.6,4.37,46.57,46.57,0,0,1-3.74,4.31,38.16,38.16,0,0,1-4.92,4.25l-.75,0a12.56,12.56,0,0,1,.36-4.48,25.34,25.34,0,0,1,1.54-4.43,21.75,21.75,0,0,1,2.67-4.37c1.14-1.44,2.32-2.88,3.36-4.33l3.15-4.34,3.26-4.33c2.26-2.89,4.42-5.78,6.78-8.66Z" transform="translate(-0.16 -0.05)"/></g><rect class="cls-20" width="53"/><rect class="cls-21" x="974" y="1172" width="53"/><path class="cls-3" d="M499,416.39s-.52-7.62,1.88-9a3.56,3.56,0,0,0,2.19-3.79s-1.39-4.58,2.9-9.52c0,0,6-7.06,4.64-15.42,0,0,.09-5.6,4.09-7.49a7.18,7.18,0,0,0,2.77-3.35s8.21-7.56,12.21-6.76c0,0,6,3.89-3,22.13a64.62,64.62,0,0,1-9.09,10.89s-8.21,4.36-7.49,9.82c0,0,1.35,5.92-1.31,8.5,0,0-5.27,3.39-5.4,5.59l-.27,1.83h-5.32Z" transform="translate(-0.16 -0.05)"/><path class="cls-4" d="M486.21,417.71c-.91,0-2.06-1.52-2.06-1.52-3.86-2.4-5.63,0-5.63,0-.35,3.47,4.34,4,4.34,4a12.15,12.15,0,0,1,8.1,3.6l4.59-.51C493.39,419.07,487.46,417.91,486.21,417.71Z" transform="translate(-0.16 -0.05)"/><path class="cls-5" d="M492.92,404.4c-4-3.16-2.83-8.94-2.83-8.94a11.13,11.13,0,0,0-10.62-7.23h0c-5.89-.68-6.61-6.8-6.61-6.8h0A7.85,7.85,0,0,0,469,375.5c-3.92-1.1-2.18,12.32-2.18,12.32,1.07,2,.62,8.21.62,8.21.73,9,5.14,8.21,5.14,8.21,2.7.05,3,2.91,3,2.91.88,4.81,6.75,5,6.75,5,4.8,1.42,4.74,4.73,4.74,4.73-.2.62-.52.83-.87.83,1.25.2,7.18,1.36,9.34,5.6l2.83-.31C501.77,412.9,492.92,404.4,492.92,404.4Z" transform="translate(-0.16 -0.05)"/><path class="cls-6" d="M455.83,437.49s-24.58-13.74-49.45-3.27c0,0-10.06,5.64-13.54,11.77,0,0-6.27,9.14-16.58,10,0,0-27.48,3.37-33.45,22.71,0,0-4.36,16.29,1,26.77,0,0,3.49,2.47,4.51,5.52,0,0,1.38,5.07-4.94,6.26,0,0-7,3.05-6.11,12.51,0,0,.43,8.2-3.64,13.55,0,0-6.4,10.16-.87,21.65,0,0,2.76,7.56.58,13.67,0,0-5.48,19.05,1.89,29.76a81.64,81.64,0,0,1,7.29,12.29,20,20,0,0,0,14.38,10.15s7.42,1.76,10.35,7.87c0,0,27.14,44.22,68.4,18.62Z" transform="translate(-0.16 -0.05)"/><path class="cls-7" d="M484.15,427.18a41,41,0,0,0-33.43,5.09s-1.62,2.46-8.15,4.84c0,0-14.81,5.8-17.93,16.8,0,0-5.15,9.22-9.84,12.34,0,0-25.3,15.47-26.23,43.57,0,0,.47,9.35-1.56,12.78,0,0-11.22,21.71-8,33.16,0,0,3.12,8.73,6.09,13,0,0,5.94,6.12,5.62,17.76,0,0,.78,12,1.88,16.68,0,0,.56,4.15,1.34,8.71,0,0,1.31,10.92,10.37,21.92,0,0,14.21,11.38,16.71,17.88,0,0,10,20.79,29.83,20.64,0,0,27,.29,30.14-21.87Z" transform="translate(-0.16 -0.05)"/><path class="cls-6" d="M562.94,437.88A15.66,15.66,0,0,1,577.4,436,10.86,10.86,0,0,0,590,437.88s19.64-9,28.15,9.29c0,0-1.53,6.11,8.73,7.85,0,0,17.61,1.75,26.23,8.29,0,0,3.73,3.06,4.48,7.42,0,0-2.45,9.71.61,11.67,0,0,8.68,3.17,8.55,11.34,0,0-.55,11.68,5.21,18.88,0,0,8.15,15.41,2.92,27.78,0,0-7,9.1-4.15,18,0,0,3.45,4.71,1.23,14a15.92,15.92,0,0,0-1.46,12.68s5.25,24.89-25.3,36.54c0,0-11.94,8.56-13.29,17.53,0,0-.67,8.23-10.71,5.65,0,0-5.63-1.46-9.16,5.93,0,0-10.68,21.31-47.89,3.24Z" transform="translate(-0.16 -0.05)"/><path class="cls-7" d="M517.27,428.7S537.51,417,551,427.18c0,0,2.9,8.92,9.91,10.31a20.44,20.44,0,0,1,14,8.66s2.61,5.24,10,5.82c0,0,7.39,3.2,7.39,14.25,0,0,.53,7.86,5,11.06,0,0,11.93,10.76,7.69,25,0,0-6.66,7.31.91,12.67,0,0,4.12,6.24,4.92,16.71,0,0-.53,20.07-4,26.47,0,0-8.56,11.28-.3,25.86,0,0,11.2,19.63-7.1,37.61,0,0-8.2,6.2-9.56,21.75,0,0-2.39,19.51-25.84,23.29,0,0-13.87-.59-19.69,2.61,0,0-19.66,7.28-29.33-11.63Z" transform="translate(-0.16 -0.05)"/><path class="cls-8" d="M431.16,524.39s-7.42,4.08-5.67,12.51c0,0,1.37,4.07-2.26,4.94,0,0-6.69,3.17-3.42,11.19,0,0,6.55,7.33,17.46.58,0,0,9.2-4.57,5.58-20.06C442.85,533.55,439.23,523.52,431.16,524.39Z" transform="translate(-0.16 -0.05)"/><path class="cls-8" d="M575.61,530.51s-4.61-8.37-13.43-6.69c0,0-7.73,3.42-6.42,11.06,0,0,.74,3.84,2.18,5.07,0,0,1.78,1.54,1.31,5.79-.06.33-.12.68-.16,1.06v0a3.28,3.28,0,0,0-.06,1.25,9.69,9.69,0,0,0,3.15,7.48s12.34,4.55,15.22-8.73C577.4,546.82,579.11,537.06,575.61,530.51Z" transform="translate(-0.16 -0.05)"/><path class="cls-9" d="M487,423.78s-13.14,2.82-17.8,18.42c0,0-4.5,13.43-6.69,20.51,0,0-3.49,8.38-4.21,14.73,0,0-.81,17.05-5.93,28.1,0,0-8.62,19.14-11.53,23.62,0,0-4.48,8.21,2.47,11.62,0,0,10.16.24,6.9,13.16,0,0-3.42,9.94-.87,19.37,0,0,3.71,9,2,16.81,0,0-.87,9.44,1.17,13.21a46,46,0,0,1,1.8,11.23s.83,19.21,8.24,33.23c0,0,2.73,6.88,3.18,9.7,0,0,3.5,11.68,14.56,16.5,0,0,4.32-1,6.74,1.64a27.25,27.25,0,0,0,28.9-7.2S532.64,652,531,632.29c0,0-1.73-7.22-1-10.54,0,0,2.32-8.64-.88-14.65,0,0-2.17-8.61.88-12.08,0,0,3.63-5.88.58-9.8,0,0-10.05-4.31-4.44-18.34,0,0,6-7,5-21.69,0,0-1.46-14.17-1.75-20.08,0,0-2.62-56-4.36-63.84a45.23,45.23,0,0,1-1.4-12.86s-3.9-30.59-18.27-30.46c0,0-4.47-.31-7,1.72,0,0,.51,2.31-2.26,3.17C496.12,422.84,490.82,422.36,487,423.78Z" transform="translate(-0.16 -0.05)"/><path class="cls-10" d="M476.36,574.34a20.73,20.73,0,0,0,.2,3.91s1.39,7.08,7.57,5.72c0,0,8.79-4.61,12.83-3.09a11.09,11.09,0,0,1,6.87,3.26s9.05,3.93,14.67,0c0,0,4.57-3.82-.67-10.31C497.82,564.25,481.62,571.39,476.36,574.34Z" transform="translate(-0.16 -0.05)"/><path class="cls-8" d="M503.17,563.64a18.13,18.13,0,0,1-8.61,1.52s-5.57-.22-8.4-1.52c0,0-9.33.35-9.8,10.7,5.26-3,21.46-10.09,41.47-.51q-.32-.41-.69-.81S511.46,564.94,503.17,563.64Z" transform="translate(-0.16 -0.05)"/><path class="cls-22" d="M672,512.62c-5.76-7.2-5.21-18.88-5.21-18.88.13-8.17-8.55-11.34-8.55-11.34-3.06-2-.61-11.67-.61-11.67-.75-4.36-4.48-7.42-4.48-7.42-8.62-6.54-26.23-8.29-26.23-8.29-10.26-1.74-8.73-7.85-8.73-7.85-8.51-18.33-28.15-9.29-28.15-9.29A10.86,10.86,0,0,1,577.4,436a15.66,15.66,0,0,0-14.46,1.84h0a16.12,16.12,0,0,0-2.05-.39c-7-1.39-9.91-10.31-9.91-10.31-12.08-9.17-29.59-.68-33.08,1.17-2.81-5.73-6.84-10.45-12.5-10.4a13.4,13.4,0,0,0-1.95,0h0c.13-2.2,5.4-5.59,5.4-5.59,2.66-2.58,1.31-8.5,1.31-8.5-.72-5.46,7.49-9.82,7.49-9.82a64.62,64.62,0,0,0,9.09-10.89c9-18.24,3-22.13,3-22.13-4-.8-12.21,6.76-12.21,6.76a7.18,7.18,0,0,1-2.77,3.35c-4,1.89-4.09,7.49-4.09,7.49C512,387,506,394.08,506,394.08c-4.29,4.94-2.9,9.52-2.9,9.52a3.56,3.56,0,0,1-2.19,3.79c-2.4,1.38-1.88,9-1.88,9h0c-.85-6.94-6.11-12-6.11-12-4-3.16-2.83-8.94-2.83-8.94a11.13,11.13,0,0,0-10.62-7.23h0c-5.89-.68-6.61-6.8-6.61-6.8h0A7.85,7.85,0,0,0,469,375.5c-3.92-1.1-2.18,12.32-2.18,12.32,1.07,2,.62,8.21.62,8.21.73,9,5.14,8.21,5.14,8.21,2.7.05,3,2.91,3,2.91.88,4.81,6.75,5,6.75,5,4.8,1.42,4.74,4.73,4.74,4.73-.2.62-.52.83-.87.83-.91,0-2.06-1.52-2.06-1.52-3.86-2.4-5.63,0-5.63,0-.35,3.47,4.34,4,4.34,4a11.73,11.73,0,0,1,7.23,2.81,15.06,15.06,0,0,0-3.08.75,21.67,21.67,0,0,0-6,2.62,41.37,41.37,0,0,0-30.29,5.87,8.79,8.79,0,0,1-2.3,2c-9.15-3.29-25.53-7-42-.06,0,0-10.06,5.64-13.54,11.77,0,0-6.27,9.14-16.58,10,0,0-27.48,3.37-33.45,22.71,0,0-4.36,16.29,1,26.77,0,0,3.49,2.47,4.51,5.52,0,0,1.38,5.07-4.94,6.26,0,0-7,3.05-6.11,12.51,0,0,.43,8.2-3.64,13.55,0,0-6.4,10.16-.87,21.65,0,0,2.76,7.56.58,13.67,0,0-5.48,19.05,1.89,29.76a81.64,81.64,0,0,1,7.29,12.29,20,20,0,0,0,14.38,10.15s7.42,1.76,10.35,7.87c0,0,23.78,38.74,60.65,22.7,5,5.39,12.63,11,23,10.91,0,0,11.13.11,19.93-5.67a25.19,25.19,0,0,0,9.46,7.32s4.32-1,6.74,1.64a27.25,27.25,0,0,0,28.9-7.2,51.16,51.16,0,0,0,3.73-4.28c10.22,10.48,24.73,5.12,24.73,5.12,5.82-3.2,19.69-2.61,19.69-2.61a33.31,33.31,0,0,0,16-6.79c24.44,5.88,32-9.14,32-9.14,3.53-7.39,9.16-5.93,9.16-5.93,10,2.58,10.71-5.65,10.71-5.65,1.35-9,13.29-17.53,13.29-17.53,30.55-11.65,25.3-36.54,25.3-36.54A15.92,15.92,0,0,1,672,572.4c2.22-9.25-1.23-14-1.23-14-2.83-8.94,4.15-18,4.15-18C680.12,528,672,512.62,672,512.62Z" transform="translate(-0.16 -0.05)"/><path class="cls-23" d="M672,512.62c-5.76-7.2-5.21-18.88-5.21-18.88.13-8.17-8.55-11.34-8.55-11.34-3.06-2-.61-11.67-.61-11.67-.75-4.36-4.48-7.42-4.48-7.42-8.62-6.54-26.23-8.29-26.23-8.29-10.26-1.74-8.73-7.85-8.73-7.85-8.51-18.33-28.15-9.29-28.15-9.29A10.86,10.86,0,0,1,577.4,436a15.66,15.66,0,0,0-14.46,1.84h0a16.12,16.12,0,0,0-2.05-.39c-7-1.39-9.91-10.31-9.91-10.31-12.08-9.17-29.59-.68-33.08,1.17-2.81-5.73-6.84-10.45-12.5-10.4a13.4,13.4,0,0,0-1.95,0h0c.13-2.2,5.4-5.59,5.4-5.59,2.66-2.58,1.31-8.5,1.31-8.5-.72-5.46,7.49-9.82,7.49-9.82a64.62,64.62,0,0,0,9.09-10.89c9-18.24,3-22.13,3-22.13-4-.8-12.21,6.76-12.21,6.76a7.18,7.18,0,0,1-2.77,3.35c-4,1.89-4.09,7.49-4.09,7.49C512,387,506,394.08,506,394.08c-4.29,4.94-2.9,9.52-2.9,9.52a3.56,3.56,0,0,1-2.19,3.79c-2.4,1.38-1.88,9-1.88,9h0c-.85-6.94-6.11-12-6.11-12-4-3.16-2.83-8.94-2.83-8.94a11.13,11.13,0,0,0-10.62-7.23h0c-5.89-.68-6.61-6.8-6.61-6.8h0A7.85,7.85,0,0,0,469,375.5c-3.92-1.1-2.18,12.32-2.18,12.32,1.07,2,.62,8.21.62,8.21.73,9,5.14,8.21,5.14,8.21,2.7.05,3,2.91,3,2.91.88,4.81,6.75,5,6.75,5,4.8,1.42,4.74,4.73,4.74,4.73-.2.62-.52.83-.87.83-.91,0-2.06-1.52-2.06-1.52-3.86-2.4-5.63,0-5.63,0-.35,3.47,4.34,4,4.34,4a11.73,11.73,0,0,1,7.23,2.81,15.06,15.06,0,0,0-3.08.75,21.67,21.67,0,0,0-6,2.62,41.37,41.37,0,0,0-30.29,5.87,8.79,8.79,0,0,1-2.3,2c-9.15-3.29-25.53-7-42-.06,0,0-10.06,5.64-13.54,11.77,0,0-6.27,9.14-16.58,10,0,0-27.48,3.37-33.45,22.71,0,0-4.36,16.29,1,26.77,0,0,3.49,2.47,4.51,5.52,0,0,1.38,5.07-4.94,6.26,0,0-7,3.05-6.11,12.51,0,0,.43,8.2-3.64,13.55,0,0-6.4,10.16-.87,21.65,0,0,2.76,7.56.58,13.67,0,0-5.48,19.05,1.89,29.76a81.64,81.64,0,0,1,7.29,12.29,20,20,0,0,0,14.38,10.15s7.42,1.76,10.35,7.87c0,0,23.78,38.74,60.65,22.7,5,5.39,12.63,11,23,10.91,0,0,11.13.11,19.93-5.67a25.19,25.19,0,0,0,9.46,7.32s4.32-1,6.74,1.64a27.25,27.25,0,0,0,28.9-7.2,51.16,51.16,0,0,0,3.73-4.28c10.22,10.48,24.73,5.12,24.73,5.12,5.82-3.2,19.69-2.61,19.69-2.61a33.31,33.31,0,0,0,16-6.79c24.44,5.88,32-9.14,32-9.14,3.53-7.39,9.16-5.93,9.16-5.93,10,2.58,10.71-5.65,10.71-5.65,1.35-9,13.29-17.53,13.29-17.53,30.55-11.65,25.3-36.54,25.3-36.54A15.92,15.92,0,0,1,672,572.4c2.22-9.25-1.23-14-1.23-14-2.83-8.94,4.15-18,4.15-18C680.12,528,672,512.62,672,512.62Z" transform="translate(-0.16 -0.05)"/></g></g></svg>