<svg id="Layer_1" data-name="Layer 1" xmlns="http://www.w3.org/2000/svg" xmlns:xlink="http://www.w3.org/1999/xlink" viewBox="0 0 149 211.11"><defs><style>.cls-1{fill:url(#linear-gradient);}.cls-2{fill:url(#linear-gradient-2);}.cls-3{fill:url(#linear-gradient-3);}.cls-4{fill:url(#linear-gradient-4);}.cls-5{fill:url(#linear-gradient-5);}</style><linearGradient id="linear-gradient" x1="102.25" y1="-16.61" x2="35.93" y2="295.82" gradientUnits="userSpaceOnUse"><stop offset="0" stop-color="#0c6c77"/><stop offset="0.26" stop-color="#e1a05d"/><stop offset="0.51" stop-color="#e6622f"/><stop offset="0.76" stop-color="#8b3d6c"/><stop offset="0.99" stop-color="#642727"/></linearGradient><linearGradient id="linear-gradient-2" x1="102.08" y1="-16.65" x2="35.75" y2="295.79" xlink:href="#linear-gradient"/><linearGradient id="linear-gradient-3" x1="111.81" y1="-14.59" x2="45.48" y2="297.85" gradientTransform="translate(135.46 -5.7) rotate(45)" xlink:href="#linear-gradient"/><linearGradient id="linear-gradient-4" x1="83.64" y1="-20.57" x2="17.31" y2="291.87" xlink:href="#linear-gradient"/><linearGradient id="linear-gradient-5" x1="93.49" y1="-18.47" x2="27.16" y2="293.96" xlink:href="#linear-gradient"/></defs><path class="cls-1" d="M147,134.61a2,2,0,0,0-2,2,70.5,70.5,0,0,1-141,0v-45A70.6,70.6,0,0,1,53.07,24.47l6.12,6.11c-27,7.14-47.08,32.54-47.08,62.74V132.9c0,35.72,28,64.77,62.5,64.77,33.5,0,60.92-26.56,62.43-60.46a1,1,0,0,0-2-.09c-1.46,32.83-28,58.55-60.43,58.55-33.36,0-60.5-28.16-60.5-62.77V93.32c0-29.69,20-54.61,46.71-61.11L73.46,44.85a1.66,1.66,0,0,0,.3.24L59.39,60.81a.81.81,0,0,0,.6,1.35H89.22a.8.8,0,0,0,.6-1.35L75.45,45.09a1.38,1.38,0,0,0,.3-.24L88.39,32.21c25.86,6.22,45.4,29.57,46.65,58.25a1,1,0,0,0,2-.09,65.55,65.55,0,0,0-19.23-43.75,61.82,61.82,0,0,0-27.8-16l6.06-6.05A70.57,70.57,0,0,1,145,91.61a2,2,0,1,0,4,0A74.59,74.59,0,0,0,95.42,20.15L75.75.47a1.62,1.62,0,0,0-2.29,0L53.89,20A74.61,74.61,0,0,0,0,91.61v45a74.5,74.5,0,0,0,149,0A2,2,0,0,0,147,134.61ZM73.9,6.62a1,1,0,0,1,1.41,0L90,21.29a1,1,0,0,1,0,1.41L75.31,37.37a1,1,0,0,1-1.41,0L59.23,22.7a1,1,0,0,1-.2-.3c0-.16-.06-.31-.08-.47a1,1,0,0,1,.28-.64Z"/><path class="cls-2" d="M110.58,154.9a3.92,3.92,0,0,0,1.59-.34A3.85,3.85,0,0,0,114.5,151V75.33a2,2,0,1,0-4,0v75.45L77.06,120.12l6.46-6a3.91,3.91,0,0,0,0-5.57l-8-7.8a2,2,0,0,0-2.78,0l-8,7.71a4,4,0,0,0-1.29,2.89,3.9,3.9,0,0,0,1.27,2.9l6.47,5.93L38.5,150.58V75.33a2,2,0,0,0-4,0v75.46a3.91,3.91,0,0,0,6.61,2.83l33-30.76,33.83,31A3.86,3.86,0,0,0,110.58,154.9ZM74.1,117.41l-6.63-6.07,6.64-6.4,6.56,6.35Z"/><rect class="cls-3" x="68.95" y="155.01" width="11.31" height="11.31" rx="0.84" transform="translate(-91.75 99.81) rotate(-45)"/><path class="cls-4" d="M87.86,22,74.61,8.74,61.35,22,74.61,35.25ZM70,22.38a.87.87,0,0,1,0-1.23l4-4a.87.87,0,0,1,1.23,0l4,4a.87.87,0,0,1,0,1.23l-4,4a.87.87,0,0,1-1.23,0Z"/><path class="cls-5" d="M81.58,71.16A.67.67,0,0,0,82.07,70l-7-7.63a.67.67,0,0,0-1,0l-7,7.63a.67.67,0,0,0,.5,1.12Z"/></svg>